<?xml version="1.0" encoding="utf-8"?>
<!-- Generator: Adobe Illustrator 20.0.0, SVG Export Plug-In . SVG Version: 6.00 Build 0)  -->
<svg version="1.1" id="Camada_1" xmlns="http://www.w3.org/2000/svg" xmlns:xlink="http://www.w3.org/1999/xlink" x="0px" y="0px"
	 viewBox="0 0 1281 569" style="enable-background:new 0 0 1281 569;" xml:space="preserve">
<style type="text/css">
	.st0{clip-path:url(#SVGID_2_);fill:#3A5B9D;}
	.st1{clip-path:url(#SVGID_4_);fill:#613986;}
	.st2{opacity:0.4;enable-background:new    ;}
	.st3{clip-path:url(#SVGID_6_);}
	.st4{clip-path:url(#SVGID_8_);}
	.st5{clip-path:url(#SVGID_10_);fill:#7B5D9A;}
	.st6{clip-path:url(#SVGID_12_);}
	.st7{clip-path:url(#SVGID_14_);fill:#431E6E;}
	.st8{clip-path:url(#SVGID_16_);}
	.st9{clip-path:url(#SVGID_18_);fill:#7B5D9A;}
	.st10{clip-path:url(#SVGID_20_);}
	.st11{clip-path:url(#SVGID_22_);fill:#431E6E;}
	.st12{clip-path:url(#SVGID_24_);}
	.st13{clip-path:url(#SVGID_26_);fill:#7B5D9A;}
	.st14{clip-path:url(#SVGID_28_);}
	.st15{clip-path:url(#SVGID_30_);fill:#7B5D9A;}
	.st16{clip-path:url(#SVGID_32_);}
	.st17{clip-path:url(#SVGID_34_);fill:#431E6E;}
	.st18{clip-path:url(#SVGID_36_);}
	.st19{clip-path:url(#SVGID_38_);fill:#431E6E;}
	.st20{clip-path:url(#SVGID_40_);}
	.st21{clip-path:url(#SVGID_42_);fill:#431E6E;}
	.st22{clip-path:url(#SVGID_44_);}
	.st23{clip-path:url(#SVGID_46_);fill:#431E6E;}
	.st24{clip-path:url(#SVGID_48_);}
	.st25{clip-path:url(#SVGID_50_);fill:#7B5D9A;}
	.st26{clip-path:url(#SVGID_52_);}
	.st27{clip-path:url(#SVGID_54_);fill:#431E6E;}
	.st28{clip-path:url(#SVGID_56_);}
	.st29{clip-path:url(#SVGID_58_);fill:#431E6E;}
	.st30{clip-path:url(#SVGID_60_);}
	.st31{clip-path:url(#SVGID_62_);fill:#431E6E;}
	.st32{clip-path:url(#SVGID_64_);}
	.st33{clip-path:url(#SVGID_66_);fill:#7B5D9A;}
	.st34{clip-path:url(#SVGID_68_);}
	.st35{clip-path:url(#SVGID_70_);fill:#431E6E;}
	.st36{clip-path:url(#SVGID_72_);}
	.st37{clip-path:url(#SVGID_74_);fill:#431E6E;}
	.st38{clip-path:url(#SVGID_76_);}
	.st39{clip-path:url(#SVGID_78_);fill:#431E6E;}
	.st40{clip-path:url(#SVGID_80_);}
	.st41{clip-path:url(#SVGID_82_);fill:#431E6E;}
	.st42{clip-path:url(#SVGID_84_);}
	.st43{clip-path:url(#SVGID_86_);fill:#7B5D9A;}
	.st44{clip-path:url(#SVGID_88_);}
	.st45{clip-path:url(#SVGID_90_);fill:#431E6E;}
	.st46{clip-path:url(#SVGID_92_);}
	.st47{clip-path:url(#SVGID_94_);}
	.st48{clip-path:url(#SVGID_96_);fill:#7B5D9A;}
	.st49{clip-path:url(#SVGID_98_);}
	.st50{clip-path:url(#SVGID_100_);fill:#431E6E;}
	.st51{clip-path:url(#SVGID_102_);}
	.st52{clip-path:url(#SVGID_104_);fill:#431E6E;}
	.st53{clip-path:url(#SVGID_106_);}
	.st54{clip-path:url(#SVGID_108_);fill:#7B5D9A;}
	.st55{clip-path:url(#SVGID_110_);}
	.st56{clip-path:url(#SVGID_112_);fill:#7B5D9A;}
	.st57{clip-path:url(#SVGID_114_);}
	.st58{clip-path:url(#SVGID_116_);fill:#431E6E;}
	.st59{clip-path:url(#SVGID_118_);}
	.st60{clip-path:url(#SVGID_120_);fill:#431E6E;}
	.st61{clip-path:url(#SVGID_122_);}
	.st62{clip-path:url(#SVGID_124_);fill:#431E6E;}
	.st63{clip-path:url(#SVGID_126_);}
	.st64{clip-path:url(#SVGID_128_);fill:#431E6E;}
	.st65{clip-path:url(#SVGID_130_);}
	.st66{clip-path:url(#SVGID_132_);fill:#431E6E;}
	.st67{clip-path:url(#SVGID_134_);}
	.st68{clip-path:url(#SVGID_136_);fill:#7B5D9A;}
	.st69{clip-path:url(#SVGID_138_);}
	.st70{clip-path:url(#SVGID_140_);fill:#431E6E;}
	.st71{clip-path:url(#SVGID_142_);}
	.st72{clip-path:url(#SVGID_144_);fill:#7B5D9A;}
	.st73{clip-path:url(#SVGID_146_);}
	.st74{clip-path:url(#SVGID_148_);fill:#7B5D9A;}
	.st75{clip-path:url(#SVGID_150_);}
	.st76{clip-path:url(#SVGID_152_);fill:#431E6E;}
	.st77{clip-path:url(#SVGID_154_);}
	.st78{clip-path:url(#SVGID_156_);fill:#431E6E;}
</style>
<g>
	<defs>
		<polygon id="SVGID_1_" points="0,0 1281,0 1281,570 571.3,570 0,570 		"/>
	</defs>
	<clipPath id="SVGID_2_">
		<use xlink:href="#SVGID_1_"  style="overflow:visible;"/>
	</clipPath>
	<rect x="-5" y="-5" class="st0" width="1291" height="580"/>
</g>
<g>
	<defs>
		<polygon id="SVGID_3_" points="0,0 1281,0 1281,570 571.3,570 0,570 		"/>
	</defs>
	<clipPath id="SVGID_4_">
		<use xlink:href="#SVGID_3_"  style="overflow:visible;"/>
	</clipPath>
	<rect x="-5" y="-5" class="st1" width="1291" height="580"/>
</g>
<g class="st2">
	<g>
		<defs>
			<rect id="SVGID_5_" y="257" width="341" height="312"/>
		</defs>
		<clipPath id="SVGID_6_">
			<use xlink:href="#SVGID_5_"  style="overflow:visible;"/>
		</clipPath>
		<g class="st3">
			<defs>
				<rect id="SVGID_7_" x="201.2" y="485" width="27.2" height="29.5"/>
			</defs>
			<clipPath id="SVGID_8_">
				<use xlink:href="#SVGID_7_"  style="overflow:visible;"/>
			</clipPath>
			<g class="st4">
				<defs>
					<rect id="SVGID_9_" y="257" width="342" height="312"/>
				</defs>
				<clipPath id="SVGID_10_">
					<use xlink:href="#SVGID_9_"  style="overflow:visible;"/>
				</clipPath>
				<rect x="196.2" y="480" class="st5" width="37.2" height="39.5"/>
			</g>
		</g>
		<g class="st3">
			<defs>
				<polygon id="SVGID_11_" points="140.5,513.8 140.5,499.6 140.5,484.5 123.1,476 123.1,493 123.1,504.9 123.1,522.3 				"/>
			</defs>
			<clipPath id="SVGID_12_">
				<use xlink:href="#SVGID_11_"  style="overflow:visible;"/>
			</clipPath>
			<g class="st6">
				<defs>
					<rect id="SVGID_13_" y="257" width="342" height="312"/>
				</defs>
				<clipPath id="SVGID_14_">
					<use xlink:href="#SVGID_13_"  style="overflow:visible;"/>
				</clipPath>
				<rect x="118.1" y="471" class="st7" width="27.4" height="56.3"/>
			</g>
		</g>
		<g class="st3">
			<defs>
				<polygon id="SVGID_15_" points="16,292 16,309 16,320.9 16,338.3 33.1,329.8 33.1,315.6 33.1,300.5 				"/>
			</defs>
			<clipPath id="SVGID_16_">
				<use xlink:href="#SVGID_15_"  style="overflow:visible;"/>
			</clipPath>
			<g class="st8">
				<defs>
					<rect id="SVGID_17_" y="257" width="342" height="312"/>
				</defs>
				<clipPath id="SVGID_18_">
					<use xlink:href="#SVGID_17_"  style="overflow:visible;"/>
				</clipPath>
				<rect x="11" y="287" class="st9" width="27" height="56.3"/>
			</g>
		</g>
		<g class="st3">
			<defs>
				<polygon id="SVGID_19_" points="78.1,292 61,300.5 61,315.6 61,329.8 78.1,338.3 78.1,320.9 78.1,309 				"/>
			</defs>
			<clipPath id="SVGID_20_">
				<use xlink:href="#SVGID_19_"  style="overflow:visible;"/>
			</clipPath>
			<g class="st10">
				<defs>
					<rect id="SVGID_21_" y="257" width="342" height="312"/>
				</defs>
				<clipPath id="SVGID_22_">
					<use xlink:href="#SVGID_21_"  style="overflow:visible;"/>
				</clipPath>
				<rect x="56" y="287" class="st11" width="27" height="56.3"/>
			</g>
		</g>
		<g class="st3">
			<defs>
				<rect id="SVGID_23_" x="157.1" y="300.4" width="27.2" height="29.5"/>
			</defs>
			<clipPath id="SVGID_24_">
				<use xlink:href="#SVGID_23_"  style="overflow:visible;"/>
			</clipPath>
			<g class="st12">
				<defs>
					<rect id="SVGID_25_" y="257" width="342" height="312"/>
				</defs>
				<clipPath id="SVGID_26_">
					<use xlink:href="#SVGID_25_"  style="overflow:visible;"/>
				</clipPath>
				<rect x="152.1" y="295.4" class="st13" width="37.2" height="39.5"/>
			</g>
		</g>
		<g class="st3">
			<defs>
				<rect id="SVGID_27_" x="95.1" y="347" width="27.6" height="29.1"/>
			</defs>
			<clipPath id="SVGID_28_">
				<use xlink:href="#SVGID_27_"  style="overflow:visible;"/>
			</clipPath>
			<g class="st14">
				<defs>
					<rect id="SVGID_29_" y="257" width="342" height="312"/>
				</defs>
				<clipPath id="SVGID_30_">
					<use xlink:href="#SVGID_29_"  style="overflow:visible;"/>
				</clipPath>
				<rect x="90.1" y="342" class="st15" width="37.6" height="39.1"/>
			</g>
		</g>
		<g class="st3">
			<defs>
				<polygon id="SVGID_31_" points="261.6,375.8 261.6,362 261.6,346.5 244.2,338 244.2,355 244.2,367.3 244.2,384.3 				"/>
			</defs>
			<clipPath id="SVGID_32_">
				<use xlink:href="#SVGID_31_"  style="overflow:visible;"/>
			</clipPath>
			<g class="st16">
				<defs>
					<rect id="SVGID_33_" y="257" width="342" height="312"/>
				</defs>
				<clipPath id="SVGID_34_">
					<use xlink:href="#SVGID_33_"  style="overflow:visible;"/>
				</clipPath>
				<rect x="239.2" y="333" class="st17" width="27.4" height="56.3"/>
			</g>
		</g>
		<g class="st3">
			<defs>
				<rect id="SVGID_35_" x="33" y="347" width="27.6" height="29.1"/>
			</defs>
			<clipPath id="SVGID_36_">
				<use xlink:href="#SVGID_35_"  style="overflow:visible;"/>
			</clipPath>
			<g class="st18">
				<defs>
					<rect id="SVGID_37_" y="257" width="342" height="312"/>
				</defs>
				<clipPath id="SVGID_38_">
					<use xlink:href="#SVGID_37_"  style="overflow:visible;"/>
				</clipPath>
				<rect x="28" y="342" class="st19" width="37.6" height="39.1"/>
			</g>
		</g>
		<g class="st3">
			<defs>
				<rect id="SVGID_39_" x="33" y="257" width="27.6" height="29.1"/>
			</defs>
			<clipPath id="SVGID_40_">
				<use xlink:href="#SVGID_39_"  style="overflow:visible;"/>
			</clipPath>
			<g class="st20">
				<defs>
					<rect id="SVGID_41_" y="257" width="342" height="312"/>
				</defs>
				<clipPath id="SVGID_42_">
					<use xlink:href="#SVGID_41_"  style="overflow:visible;"/>
				</clipPath>
				<rect x="28" y="252" class="st21" width="37.6" height="39.1"/>
			</g>
		</g>
		<g class="st3">
			<defs>
				<rect id="SVGID_43_" x="140.1" y="347" width="27.6" height="29.1"/>
			</defs>
			<clipPath id="SVGID_44_">
				<use xlink:href="#SVGID_43_"  style="overflow:visible;"/>
			</clipPath>
			<g class="st22">
				<defs>
					<rect id="SVGID_45_" y="257" width="342" height="312"/>
				</defs>
				<clipPath id="SVGID_46_">
					<use xlink:href="#SVGID_45_"  style="overflow:visible;"/>
				</clipPath>
				<rect x="135.1" y="342" class="st23" width="37.6" height="39.1"/>
			</g>
		</g>
		<g class="st3">
			<defs>
				<polygon id="SVGID_47_" points="167.1,375.8 167.1,362 167.1,346.5 184.2,338 184.2,355 184.2,367.3 184.2,384.3 				"/>
			</defs>
			<clipPath id="SVGID_48_">
				<use xlink:href="#SVGID_47_"  style="overflow:visible;"/>
			</clipPath>
			<g class="st24">
				<defs>
					<rect id="SVGID_49_" y="257" width="342" height="312"/>
				</defs>
				<clipPath id="SVGID_50_">
					<use xlink:href="#SVGID_49_"  style="overflow:visible;"/>
				</clipPath>
				<rect x="162.1" y="333" class="st25" width="27" height="56.3"/>
			</g>
		</g>
		<g class="st3">
			<defs>
				<polygon id="SVGID_51_" points="139.5,421.8 139.5,407.6 139.5,392.5 122.1,384 122.1,401 122.1,412.9 122.1,430.3 				"/>
			</defs>
			<clipPath id="SVGID_52_">
				<use xlink:href="#SVGID_51_"  style="overflow:visible;"/>
			</clipPath>
			<g class="st26">
				<defs>
					<rect id="SVGID_53_" y="257" width="342" height="312"/>
				</defs>
				<clipPath id="SVGID_54_">
					<use xlink:href="#SVGID_53_"  style="overflow:visible;"/>
				</clipPath>
				<rect x="117.1" y="379" class="st27" width="27.4" height="56.3"/>
			</g>
		</g>
		<g class="st3">
			<defs>
				<rect id="SVGID_55_" x="78.1" y="393" width="27.2" height="29.5"/>
			</defs>
			<clipPath id="SVGID_56_">
				<use xlink:href="#SVGID_55_"  style="overflow:visible;"/>
			</clipPath>
			<g class="st28">
				<defs>
					<rect id="SVGID_57_" y="257" width="342" height="312"/>
				</defs>
				<clipPath id="SVGID_58_">
					<use xlink:href="#SVGID_57_"  style="overflow:visible;"/>
				</clipPath>
				<rect x="73.1" y="388" class="st29" width="37.2" height="39.5"/>
			</g>
		</g>
		<g class="st3">
			<defs>
				<rect id="SVGID_59_" x="313.2" y="531" width="27.2" height="29.5"/>
			</defs>
			<clipPath id="SVGID_60_">
				<use xlink:href="#SVGID_59_"  style="overflow:visible;"/>
			</clipPath>
			<g class="st30">
				<defs>
					<rect id="SVGID_61_" y="257" width="342" height="312"/>
				</defs>
				<clipPath id="SVGID_62_">
					<use xlink:href="#SVGID_61_"  style="overflow:visible;"/>
				</clipPath>
				<rect x="308.2" y="526" class="st31" width="37.2" height="39.5"/>
			</g>
		</g>
		<g class="st3">
			<defs>
				<rect id="SVGID_63_" x="34" y="438" width="27.6" height="29.1"/>
			</defs>
			<clipPath id="SVGID_64_">
				<use xlink:href="#SVGID_63_"  style="overflow:visible;"/>
			</clipPath>
			<g class="st32">
				<defs>
					<rect id="SVGID_65_" y="257" width="342" height="312"/>
				</defs>
				<clipPath id="SVGID_66_">
					<use xlink:href="#SVGID_65_"  style="overflow:visible;"/>
				</clipPath>
				<rect x="29" y="433" class="st33" width="37.6" height="39.1"/>
			</g>
		</g>
		<g class="st3">
			<defs>
				<polygon id="SVGID_67_" points="0,467.8 0,454 0,438.5 17,430 17,447 17,459.3 17,476.3 				"/>
			</defs>
			<clipPath id="SVGID_68_">
				<use xlink:href="#SVGID_67_"  style="overflow:visible;"/>
			</clipPath>
			<g class="st34">
				<defs>
					<rect id="SVGID_69_" y="257" width="342" height="312"/>
				</defs>
				<clipPath id="SVGID_70_">
					<use xlink:href="#SVGID_69_"  style="overflow:visible;"/>
				</clipPath>
				<rect x="-5" y="425" class="st35" width="27" height="56.3"/>
			</g>
		</g>
		<g class="st3">
			<defs>
				<polygon id="SVGID_71_" points="0,559.8 0,546 0,530.5 17,522 17,539 17,551.3 17,568.3 				"/>
			</defs>
			<clipPath id="SVGID_72_">
				<use xlink:href="#SVGID_71_"  style="overflow:visible;"/>
			</clipPath>
			<g class="st36">
				<defs>
					<rect id="SVGID_73_" y="257" width="342" height="312"/>
				</defs>
				<clipPath id="SVGID_74_">
					<use xlink:href="#SVGID_73_"  style="overflow:visible;"/>
				</clipPath>
				<rect x="-5" y="517" class="st37" width="27" height="56.3"/>
			</g>
		</g>
		<g class="st3">
			<defs>
				<polygon id="SVGID_75_" points="106.1,559.8 106.1,546 106.1,530.5 123.1,522 123.1,539 123.1,551.3 123.1,568.3 				"/>
			</defs>
			<clipPath id="SVGID_76_">
				<use xlink:href="#SVGID_75_"  style="overflow:visible;"/>
			</clipPath>
			<g class="st38">
				<defs>
					<rect id="SVGID_77_" y="257" width="342" height="312"/>
				</defs>
				<clipPath id="SVGID_78_">
					<use xlink:href="#SVGID_77_"  style="overflow:visible;"/>
				</clipPath>
				<rect x="101.1" y="517" class="st39" width="27" height="56.3"/>
			</g>
		</g>
		<g class="st3">
			<defs>
				<rect id="SVGID_79_" x="140.1" y="438" width="27.2" height="29.1"/>
			</defs>
			<clipPath id="SVGID_80_">
				<use xlink:href="#SVGID_79_"  style="overflow:visible;"/>
			</clipPath>
			<g class="st40">
				<defs>
					<rect id="SVGID_81_" y="257" width="342" height="312"/>
				</defs>
				<clipPath id="SVGID_82_">
					<use xlink:href="#SVGID_81_"  style="overflow:visible;"/>
				</clipPath>
				<rect x="135.1" y="433" class="st41" width="37.2" height="39.1"/>
			</g>
		</g>
		<g class="st3">
			<defs>
				<polygon id="SVGID_83_" points="201.3,292 201.3,309 201.3,320.9 201.3,338.3 218.4,329.8 218.4,315.6 218.4,300.5 				"/>
			</defs>
			<clipPath id="SVGID_84_">
				<use xlink:href="#SVGID_83_"  style="overflow:visible;"/>
			</clipPath>
			<g class="st42">
				<defs>
					<rect id="SVGID_85_" y="257" width="342" height="312"/>
				</defs>
				<clipPath id="SVGID_86_">
					<use xlink:href="#SVGID_85_"  style="overflow:visible;"/>
				</clipPath>
				<rect x="196.3" y="287" class="st43" width="27" height="56.3"/>
			</g>
		</g>
		<g class="st3">
			<defs>
				<polygon id="SVGID_87_" points="33.1,421.8 33.1,407.6 33.1,392.5 16,384 16,401 16,412.9 16,430.3 				"/>
			</defs>
			<clipPath id="SVGID_88_">
				<use xlink:href="#SVGID_87_"  style="overflow:visible;"/>
			</clipPath>
			<g class="st44">
				<defs>
					<rect id="SVGID_89_" y="257" width="342" height="312"/>
				</defs>
				<clipPath id="SVGID_90_">
					<use xlink:href="#SVGID_89_"  style="overflow:visible;"/>
				</clipPath>
				<rect x="11" y="379" class="st45" width="27" height="56.3"/>
			</g>
		</g>
	</g>
</g>
<g class="st2">
	<g>
		<defs>
			<rect id="SVGID_91_" x="996" y="257" width="284" height="266"/>
		</defs>
		<clipPath id="SVGID_92_">
			<use xlink:href="#SVGID_91_"  style="overflow:visible;"/>
		</clipPath>
		<g class="st46">
			<defs>
				<rect id="SVGID_93_" x="1164.9" y="485" width="27.2" height="29.5"/>
			</defs>
			<clipPath id="SVGID_94_">
				<use xlink:href="#SVGID_93_"  style="overflow:visible;"/>
			</clipPath>
			<g class="st47">
				<defs>
					<rect id="SVGID_95_" x="996" y="257" width="285" height="266"/>
				</defs>
				<clipPath id="SVGID_96_">
					<use xlink:href="#SVGID_95_"  style="overflow:visible;"/>
				</clipPath>
				<rect x="1159.9" y="480" class="st48" width="37.2" height="39.5"/>
			</g>
		</g>
		<g class="st46">
			<defs>
				<polygon id="SVGID_97_" points="1130.8,513.8 1130.8,499.6 1130.8,484.5 1148.3,476 1148.3,493 1148.3,504.9 1148.3,522.3 				
					"/>
			</defs>
			<clipPath id="SVGID_98_">
				<use xlink:href="#SVGID_97_"  style="overflow:visible;"/>
			</clipPath>
			<g class="st49">
				<defs>
					<rect id="SVGID_99_" x="996" y="257" width="285" height="266"/>
				</defs>
				<clipPath id="SVGID_100_">
					<use xlink:href="#SVGID_99_"  style="overflow:visible;"/>
				</clipPath>
				<rect x="1125.8" y="471" class="st50" width="27.4" height="56.3"/>
			</g>
		</g>
		<g class="st46">
			<defs>
				<rect id="SVGID_101_" x="1058.8" y="300.4" width="27.6" height="29.5"/>
			</defs>
			<clipPath id="SVGID_102_">
				<use xlink:href="#SVGID_101_"  style="overflow:visible;"/>
			</clipPath>
			<g class="st51">
				<defs>
					<rect id="SVGID_103_" x="996" y="257" width="285" height="266"/>
				</defs>
				<clipPath id="SVGID_104_">
					<use xlink:href="#SVGID_103_"  style="overflow:visible;"/>
				</clipPath>
				<rect x="1053.8" y="295.4" class="st52" width="37.6" height="39.5"/>
			</g>
		</g>
		<g class="st46">
			<defs>
				<polygon id="SVGID_105_" points="1103,292 1085.8,300.5 1085.8,315.6 1085.8,329.8 1103,338.3 1103,320.9 1103,309 				"/>
			</defs>
			<clipPath id="SVGID_106_">
				<use xlink:href="#SVGID_105_"  style="overflow:visible;"/>
			</clipPath>
			<g class="st53">
				<defs>
					<rect id="SVGID_107_" x="996" y="257" width="285" height="266"/>
				</defs>
				<clipPath id="SVGID_108_">
					<use xlink:href="#SVGID_107_"  style="overflow:visible;"/>
				</clipPath>
				<rect x="1080.8" y="287" class="st54" width="27.2" height="56.3"/>
			</g>
		</g>
		<g class="st46">
			<defs>
				<rect id="SVGID_109_" x="1120.8" y="300.4" width="27.2" height="29.5"/>
			</defs>
			<clipPath id="SVGID_110_">
				<use xlink:href="#SVGID_109_"  style="overflow:visible;"/>
			</clipPath>
			<g class="st55">
				<defs>
					<rect id="SVGID_111_" x="996" y="257" width="285" height="266"/>
				</defs>
				<clipPath id="SVGID_112_">
					<use xlink:href="#SVGID_111_"  style="overflow:visible;"/>
				</clipPath>
				<rect x="1115.8" y="295.4" class="st56" width="37.2" height="39.5"/>
			</g>
		</g>
		<g class="st46">
			<defs>
				<polygon id="SVGID_113_" points="1103.8,292 1103.8,309 1103.8,320.9 1103.8,338.3 1121.2,329.8 1121.2,315.6 1121.2,300.5 				
					"/>
			</defs>
			<clipPath id="SVGID_114_">
				<use xlink:href="#SVGID_113_"  style="overflow:visible;"/>
			</clipPath>
			<g class="st57">
				<defs>
					<rect id="SVGID_115_" x="996" y="257" width="285" height="266"/>
				</defs>
				<clipPath id="SVGID_116_">
					<use xlink:href="#SVGID_115_"  style="overflow:visible;"/>
				</clipPath>
				<rect x="1098.8" y="287" class="st58" width="27.4" height="56.3"/>
			</g>
		</g>
		<g class="st46">
			<defs>
				<polygon id="SVGID_117_" points="1262,292 1262,309 1262,320.9 1262,338.3 1279.4,329.8 1279.4,315.6 1279.4,300.5 				"/>
			</defs>
			<clipPath id="SVGID_118_">
				<use xlink:href="#SVGID_117_"  style="overflow:visible;"/>
			</clipPath>
			<g class="st59">
				<defs>
					<rect id="SVGID_119_" x="996" y="257" width="285" height="266"/>
				</defs>
				<clipPath id="SVGID_120_">
					<use xlink:href="#SVGID_119_"  style="overflow:visible;"/>
				</clipPath>
				<rect x="1257" y="287" class="st60" width="27.4" height="56.3"/>
			</g>
		</g>
		<g class="st46">
			<defs>
				<polygon id="SVGID_121_" points="1225.3,375.8 1225.3,362 1225.3,346.5 1207.9,338 1207.9,355 1207.9,367.3 1207.9,384.3 				
					"/>
			</defs>
			<clipPath id="SVGID_122_">
				<use xlink:href="#SVGID_121_"  style="overflow:visible;"/>
			</clipPath>
			<g class="st61">
				<defs>
					<rect id="SVGID_123_" x="996" y="257" width="285" height="266"/>
				</defs>
				<clipPath id="SVGID_124_">
					<use xlink:href="#SVGID_123_"  style="overflow:visible;"/>
				</clipPath>
				<rect x="1202.9" y="333" class="st62" width="27.4" height="56.3"/>
			</g>
		</g>
		<g class="st46">
			<defs>
				<rect id="SVGID_125_" x="996.7" y="257" width="27.6" height="29.1"/>
			</defs>
			<clipPath id="SVGID_126_">
				<use xlink:href="#SVGID_125_"  style="overflow:visible;"/>
			</clipPath>
			<g class="st63">
				<defs>
					<rect id="SVGID_127_" x="996" y="257" width="285" height="266"/>
				</defs>
				<clipPath id="SVGID_128_">
					<use xlink:href="#SVGID_127_"  style="overflow:visible;"/>
				</clipPath>
				<rect x="991.7" y="252" class="st64" width="37.6" height="39.1"/>
			</g>
		</g>
		<g class="st46">
			<defs>
				<rect id="SVGID_129_" x="1164.9" y="347" width="27.6" height="29.1"/>
			</defs>
			<clipPath id="SVGID_130_">
				<use xlink:href="#SVGID_129_"  style="overflow:visible;"/>
			</clipPath>
			<g class="st65">
				<defs>
					<rect id="SVGID_131_" x="996" y="257" width="285" height="266"/>
				</defs>
				<clipPath id="SVGID_132_">
					<use xlink:href="#SVGID_131_"  style="overflow:visible;"/>
				</clipPath>
				<rect x="1159.9" y="342" class="st66" width="37.6" height="39.1"/>
			</g>
		</g>
		<g class="st46">
			<defs>
				<polygon id="SVGID_133_" points="1244.9,375.8 1244.9,362 1244.9,346.5 1262,338 1262,355 1262,367.3 1262,384.3 				"/>
			</defs>
			<clipPath id="SVGID_134_">
				<use xlink:href="#SVGID_133_"  style="overflow:visible;"/>
			</clipPath>
			<g class="st67">
				<defs>
					<rect id="SVGID_135_" x="996" y="257" width="285" height="266"/>
				</defs>
				<clipPath id="SVGID_136_">
					<use xlink:href="#SVGID_135_"  style="overflow:visible;"/>
				</clipPath>
				<rect x="1239.9" y="333" class="st68" width="27" height="56.3"/>
			</g>
		</g>
		<g class="st46">
			<defs>
				<rect id="SVGID_137_" x="1041.8" y="393" width="27.2" height="29.5"/>
			</defs>
			<clipPath id="SVGID_138_">
				<use xlink:href="#SVGID_137_"  style="overflow:visible;"/>
			</clipPath>
			<g class="st69">
				<defs>
					<rect id="SVGID_139_" x="996" y="257" width="285" height="266"/>
				</defs>
				<clipPath id="SVGID_140_">
					<use xlink:href="#SVGID_139_"  style="overflow:visible;"/>
				</clipPath>
				<rect x="1036.8" y="388" class="st70" width="37.2" height="39.5"/>
			</g>
		</g>
		<g class="st46">
			<defs>
				<polygon id="SVGID_141_" points="1191.9,438.5 1191.9,452.3 1191.9,467.8 1208.9,476.3 1208.9,459.3 1208.9,447 1208.9,430 				
					"/>
			</defs>
			<clipPath id="SVGID_142_">
				<use xlink:href="#SVGID_141_"  style="overflow:visible;"/>
			</clipPath>
			<g class="st71">
				<defs>
					<rect id="SVGID_143_" x="996" y="257" width="285" height="266"/>
				</defs>
				<clipPath id="SVGID_144_">
					<use xlink:href="#SVGID_143_"  style="overflow:visible;"/>
				</clipPath>
				<rect x="1186.9" y="425" class="st72" width="27" height="56.3"/>
			</g>
		</g>
		<g class="st46">
			<defs>
				<polygon id="SVGID_145_" points="1165,292 1165,309 1165,320.9 1165,338.3 1182.1,329.8 1182.1,315.6 1182.1,300.5 				"/>
			</defs>
			<clipPath id="SVGID_146_">
				<use xlink:href="#SVGID_145_"  style="overflow:visible;"/>
			</clipPath>
			<g class="st73">
				<defs>
					<rect id="SVGID_147_" x="996" y="257" width="285" height="266"/>
				</defs>
				<clipPath id="SVGID_148_">
					<use xlink:href="#SVGID_147_"  style="overflow:visible;"/>
				</clipPath>
				<rect x="1160" y="287" class="st74" width="27" height="56.3"/>
			</g>
		</g>
		<g class="st46">
			<defs>
				<polygon id="SVGID_149_" points="1279.1,438.5 1279.1,452.3 1279.1,467.8 1262,476.3 1262,459.3 1262,447 1262,430 				"/>
			</defs>
			<clipPath id="SVGID_150_">
				<use xlink:href="#SVGID_149_"  style="overflow:visible;"/>
			</clipPath>
			<g class="st75">
				<defs>
					<rect id="SVGID_151_" x="996" y="257" width="285" height="266"/>
				</defs>
				<clipPath id="SVGID_152_">
					<use xlink:href="#SVGID_151_"  style="overflow:visible;"/>
				</clipPath>
				<rect x="1257" y="425" class="st76" width="27.2" height="56.3"/>
			</g>
		</g>
		<g class="st46">
			<defs>
				<polygon id="SVGID_153_" points="1165,438.5 1165,452.3 1165,467.8 1147.9,476.3 1147.9,459.3 1147.9,447 1147.9,430 				"/>
			</defs>
			<clipPath id="SVGID_154_">
				<use xlink:href="#SVGID_153_"  style="overflow:visible;"/>
			</clipPath>
			<g class="st77">
				<defs>
					<rect id="SVGID_155_" x="996" y="257" width="285" height="266"/>
				</defs>
				<clipPath id="SVGID_156_">
					<use xlink:href="#SVGID_155_"  style="overflow:visible;"/>
				</clipPath>
				<rect x="1142.9" y="425" class="st78" width="27.2" height="56.3"/>
			</g>
		</g>
	</g>
</g>
</svg>
