<?xml version="1.0" encoding="utf-8"?>
<!-- Generator: Adobe Illustrator 20.0.0, SVG Export Plug-In . SVG Version: 6.00 Build 0)  -->
<svg version="1.1" id="Camada_1" xmlns="http://www.w3.org/2000/svg" xmlns:xlink="http://www.w3.org/1999/xlink" x="0px" y="0px"
	 viewBox="0 0 285 265.3" style="enable-background:new 0 0 285 265.3;" xml:space="preserve">
<style type="text/css">
	.st0{opacity:0.4;enable-background:new    ;}
	.st1{clip-path:url(#SVGID_2_);}
	.st2{clip-path:url(#SVGID_4_);}
	.st3{clip-path:url(#SVGID_6_);fill:#7B5D9A;}
	.st4{clip-path:url(#SVGID_8_);}
	.st5{clip-path:url(#SVGID_10_);fill:#431E6E;}
	.st6{clip-path:url(#SVGID_12_);}
	.st7{clip-path:url(#SVGID_14_);fill:#431E6E;}
	.st8{clip-path:url(#SVGID_16_);}
	.st9{clip-path:url(#SVGID_18_);fill:#7B5D9A;}
	.st10{clip-path:url(#SVGID_20_);}
	.st11{clip-path:url(#SVGID_22_);fill:#7B5D9A;}
	.st12{clip-path:url(#SVGID_24_);}
	.st13{clip-path:url(#SVGID_26_);fill:#431E6E;}
	.st14{clip-path:url(#SVGID_28_);}
	.st15{clip-path:url(#SVGID_30_);fill:#431E6E;}
	.st16{clip-path:url(#SVGID_32_);}
	.st17{clip-path:url(#SVGID_34_);fill:#431E6E;}
	.st18{clip-path:url(#SVGID_36_);}
	.st19{clip-path:url(#SVGID_38_);fill:#431E6E;}
	.st20{clip-path:url(#SVGID_40_);}
	.st21{clip-path:url(#SVGID_42_);fill:#431E6E;}
	.st22{clip-path:url(#SVGID_44_);}
	.st23{clip-path:url(#SVGID_46_);fill:#7B5D9A;}
	.st24{clip-path:url(#SVGID_48_);}
	.st25{clip-path:url(#SVGID_50_);fill:#431E6E;}
	.st26{clip-path:url(#SVGID_52_);}
	.st27{clip-path:url(#SVGID_54_);fill:#7B5D9A;}
	.st28{clip-path:url(#SVGID_56_);}
	.st29{clip-path:url(#SVGID_58_);fill:#7B5D9A;}
	.st30{clip-path:url(#SVGID_60_);}
	.st31{clip-path:url(#SVGID_62_);fill:#431E6E;}
	.st32{clip-path:url(#SVGID_64_);}
	.st33{clip-path:url(#SVGID_66_);fill:#431E6E;}
</style>
<g class="st0">
	<g>
		<defs>
			<rect id="SVGID_1_" width="284" height="266"/>
		</defs>
		<clipPath id="SVGID_2_">
			<use xlink:href="#SVGID_1_"  style="overflow:visible;"/>
		</clipPath>
		<g class="st1">
			<defs>
				<rect id="SVGID_3_" x="168.9" y="228" width="27.2" height="29.5"/>
			</defs>
			<clipPath id="SVGID_4_">
				<use xlink:href="#SVGID_3_"  style="overflow:visible;"/>
			</clipPath>
			<g class="st2">
				<defs>
					<rect id="SVGID_5_" width="285" height="266"/>
				</defs>
				<clipPath id="SVGID_6_">
					<use xlink:href="#SVGID_5_"  style="overflow:visible;"/>
				</clipPath>
				<rect x="163.9" y="223" class="st3" width="37.2" height="39.5"/>
			</g>
		</g>
		<g class="st1">
			<defs>
				<polygon id="SVGID_7_" points="134.8,256.8 134.8,242.6 134.8,227.5 152.3,219 152.3,236 152.3,247.9 152.3,265.3 				"/>
			</defs>
			<clipPath id="SVGID_8_">
				<use xlink:href="#SVGID_7_"  style="overflow:visible;"/>
			</clipPath>
			<g class="st4">
				<defs>
					<rect id="SVGID_9_" width="285" height="266"/>
				</defs>
				<clipPath id="SVGID_10_">
					<use xlink:href="#SVGID_9_"  style="overflow:visible;"/>
				</clipPath>
				<rect x="129.8" y="214" class="st5" width="27.4" height="56.3"/>
			</g>
		</g>
		<g class="st1">
			<defs>
				<rect id="SVGID_11_" x="62.8" y="43.4" width="27.6" height="29.5"/>
			</defs>
			<clipPath id="SVGID_12_">
				<use xlink:href="#SVGID_11_"  style="overflow:visible;"/>
			</clipPath>
			<g class="st6">
				<defs>
					<rect id="SVGID_13_" width="285" height="266"/>
				</defs>
				<clipPath id="SVGID_14_">
					<use xlink:href="#SVGID_13_"  style="overflow:visible;"/>
				</clipPath>
				<rect x="57.8" y="38.4" class="st7" width="37.6" height="39.5"/>
			</g>
		</g>
		<g class="st1">
			<defs>
				<polygon id="SVGID_15_" points="107,35 89.8,43.5 89.8,58.6 89.8,72.8 107,81.3 107,63.9 107,52 				"/>
			</defs>
			<clipPath id="SVGID_16_">
				<use xlink:href="#SVGID_15_"  style="overflow:visible;"/>
			</clipPath>
			<g class="st8">
				<defs>
					<rect id="SVGID_17_" width="285" height="266"/>
				</defs>
				<clipPath id="SVGID_18_">
					<use xlink:href="#SVGID_17_"  style="overflow:visible;"/>
				</clipPath>
				<rect x="84.8" y="30" class="st9" width="27.2" height="56.3"/>
			</g>
		</g>
		<g class="st1">
			<defs>
				<rect id="SVGID_19_" x="124.8" y="43.4" width="27.2" height="29.5"/>
			</defs>
			<clipPath id="SVGID_20_">
				<use xlink:href="#SVGID_19_"  style="overflow:visible;"/>
			</clipPath>
			<g class="st10">
				<defs>
					<rect id="SVGID_21_" width="285" height="266"/>
				</defs>
				<clipPath id="SVGID_22_">
					<use xlink:href="#SVGID_21_"  style="overflow:visible;"/>
				</clipPath>
				<rect x="119.8" y="38.4" class="st11" width="37.2" height="39.5"/>
			</g>
		</g>
		<g class="st1">
			<defs>
				<polygon id="SVGID_23_" points="107.8,35 107.8,52 107.8,63.9 107.8,81.3 125.2,72.8 125.2,58.6 125.2,43.5 				"/>
			</defs>
			<clipPath id="SVGID_24_">
				<use xlink:href="#SVGID_23_"  style="overflow:visible;"/>
			</clipPath>
			<g class="st12">
				<defs>
					<rect id="SVGID_25_" width="285" height="266"/>
				</defs>
				<clipPath id="SVGID_26_">
					<use xlink:href="#SVGID_25_"  style="overflow:visible;"/>
				</clipPath>
				<rect x="102.8" y="30" class="st13" width="27.4" height="56.3"/>
			</g>
		</g>
		<g class="st1">
			<defs>
				<polygon id="SVGID_27_" points="266,35 266,52 266,63.9 266,81.3 283.4,72.8 283.4,58.6 283.4,43.5 				"/>
			</defs>
			<clipPath id="SVGID_28_">
				<use xlink:href="#SVGID_27_"  style="overflow:visible;"/>
			</clipPath>
			<g class="st14">
				<defs>
					<rect id="SVGID_29_" width="285" height="266"/>
				</defs>
				<clipPath id="SVGID_30_">
					<use xlink:href="#SVGID_29_"  style="overflow:visible;"/>
				</clipPath>
				<rect x="261" y="30" class="st15" width="27.4" height="56.3"/>
			</g>
		</g>
		<g class="st1">
			<defs>
				<polygon id="SVGID_31_" points="229.3,118.8 229.3,105 229.3,89.5 211.9,81 211.9,98 211.9,110.3 211.9,127.3 				"/>
			</defs>
			<clipPath id="SVGID_32_">
				<use xlink:href="#SVGID_31_"  style="overflow:visible;"/>
			</clipPath>
			<g class="st16">
				<defs>
					<rect id="SVGID_33_" width="285" height="266"/>
				</defs>
				<clipPath id="SVGID_34_">
					<use xlink:href="#SVGID_33_"  style="overflow:visible;"/>
				</clipPath>
				<rect x="206.9" y="76" class="st17" width="27.4" height="56.3"/>
			</g>
		</g>
		<g class="st1">
			<defs>
				<rect id="SVGID_35_" x="0.7" width="27.6" height="29.1"/>
			</defs>
			<clipPath id="SVGID_36_">
				<use xlink:href="#SVGID_35_"  style="overflow:visible;"/>
			</clipPath>
			<g class="st18">
				<defs>
					<rect id="SVGID_37_" width="285" height="266"/>
				</defs>
				<clipPath id="SVGID_38_">
					<use xlink:href="#SVGID_37_"  style="overflow:visible;"/>
				</clipPath>
				<rect x="-4.3" y="-5" class="st19" width="37.6" height="39.1"/>
			</g>
		</g>
		<g class="st1">
			<defs>
				<rect id="SVGID_39_" x="168.9" y="90" width="27.6" height="29.1"/>
			</defs>
			<clipPath id="SVGID_40_">
				<use xlink:href="#SVGID_39_"  style="overflow:visible;"/>
			</clipPath>
			<g class="st20">
				<defs>
					<rect id="SVGID_41_" width="285" height="266"/>
				</defs>
				<clipPath id="SVGID_42_">
					<use xlink:href="#SVGID_41_"  style="overflow:visible;"/>
				</clipPath>
				<rect x="163.9" y="85" class="st21" width="37.6" height="39.1"/>
			</g>
		</g>
		<g class="st1">
			<defs>
				<polygon id="SVGID_43_" points="248.9,118.8 248.9,105 248.9,89.5 266,81 266,98 266,110.3 266,127.3 				"/>
			</defs>
			<clipPath id="SVGID_44_">
				<use xlink:href="#SVGID_43_"  style="overflow:visible;"/>
			</clipPath>
			<g class="st22">
				<defs>
					<rect id="SVGID_45_" width="285" height="266"/>
				</defs>
				<clipPath id="SVGID_46_">
					<use xlink:href="#SVGID_45_"  style="overflow:visible;"/>
				</clipPath>
				<rect x="243.9" y="76" class="st23" width="27" height="56.3"/>
			</g>
		</g>
		<g class="st1">
			<defs>
				<rect id="SVGID_47_" x="45.8" y="136" width="27.2" height="29.5"/>
			</defs>
			<clipPath id="SVGID_48_">
				<use xlink:href="#SVGID_47_"  style="overflow:visible;"/>
			</clipPath>
			<g class="st24">
				<defs>
					<rect id="SVGID_49_" width="285" height="266"/>
				</defs>
				<clipPath id="SVGID_50_">
					<use xlink:href="#SVGID_49_"  style="overflow:visible;"/>
				</clipPath>
				<rect x="40.8" y="131" class="st25" width="37.2" height="39.5"/>
			</g>
		</g>
		<g class="st1">
			<defs>
				<polygon id="SVGID_51_" points="195.9,181.5 195.9,195.3 195.9,210.8 212.9,219.3 212.9,202.3 212.9,190 212.9,173 				"/>
			</defs>
			<clipPath id="SVGID_52_">
				<use xlink:href="#SVGID_51_"  style="overflow:visible;"/>
			</clipPath>
			<g class="st26">
				<defs>
					<rect id="SVGID_53_" width="285" height="266"/>
				</defs>
				<clipPath id="SVGID_54_">
					<use xlink:href="#SVGID_53_"  style="overflow:visible;"/>
				</clipPath>
				<rect x="190.9" y="168" class="st27" width="27" height="56.3"/>
			</g>
		</g>
		<g class="st1">
			<defs>
				<polygon id="SVGID_55_" points="169,35 169,52 169,63.9 169,81.3 186.1,72.8 186.1,58.6 186.1,43.5 				"/>
			</defs>
			<clipPath id="SVGID_56_">
				<use xlink:href="#SVGID_55_"  style="overflow:visible;"/>
			</clipPath>
			<g class="st28">
				<defs>
					<rect id="SVGID_57_" width="285" height="266"/>
				</defs>
				<clipPath id="SVGID_58_">
					<use xlink:href="#SVGID_57_"  style="overflow:visible;"/>
				</clipPath>
				<rect x="164" y="30" class="st29" width="27" height="56.3"/>
			</g>
		</g>
		<g class="st1">
			<defs>
				<polygon id="SVGID_59_" points="283.1,181.5 283.1,195.3 283.1,210.8 266,219.3 266,202.3 266,190 266,173 				"/>
			</defs>
			<clipPath id="SVGID_60_">
				<use xlink:href="#SVGID_59_"  style="overflow:visible;"/>
			</clipPath>
			<g class="st30">
				<defs>
					<rect id="SVGID_61_" width="285" height="266"/>
				</defs>
				<clipPath id="SVGID_62_">
					<use xlink:href="#SVGID_61_"  style="overflow:visible;"/>
				</clipPath>
				<rect x="261" y="168" class="st31" width="27.2" height="56.3"/>
			</g>
		</g>
		<g class="st1">
			<defs>
				<polygon id="SVGID_63_" points="169,181.5 169,195.3 169,210.8 151.9,219.3 151.9,202.3 151.9,190 151.9,173 				"/>
			</defs>
			<clipPath id="SVGID_64_">
				<use xlink:href="#SVGID_63_"  style="overflow:visible;"/>
			</clipPath>
			<g class="st32">
				<defs>
					<rect id="SVGID_65_" width="285" height="266"/>
				</defs>
				<clipPath id="SVGID_66_">
					<use xlink:href="#SVGID_65_"  style="overflow:visible;"/>
				</clipPath>
				<rect x="146.9" y="168" class="st33" width="27.2" height="56.3"/>
			</g>
		</g>
	</g>
</g>
</svg>
