<?xml version="1.0" encoding="UTF-8"?>
<svg width="10px" height="9px" viewBox="0 0 10 9" version="1.1" xmlns="http://www.w3.org/2000/svg" xmlns:xlink="http://www.w3.org/1999/xlink">
    <!-- Generator: Sketch 42 (36781) - http://www.bohemiancoding.com/sketch -->
    <title></title>
    <desc>Created with Sketch.</desc>
    <defs></defs>
    <g id="Page-1" stroke="none" stroke-width="1" fill="none" fill-rule="evenodd">
        <g id="Cotação-Nova-2.1" transform="translate(-810.000000, -6483.000000)" fill="#FFFFFF">
            <g id="Box-Preço-1" transform="translate(0.000000, 6361.000000)">
                <g id="enviar-email" transform="translate(810.000000, 115.000000)">
                    <path d="M10,10.390625 L10,14.8214286 C10,15.0669655 9.91257528,15.2771569 9.73772321,15.4520089 C9.56287115,15.626861 9.3526798,15.7142857 9.10714286,15.7142857 L0.892857143,15.7142857 C0.647320201,15.7142857 0.43712885,15.626861 0.262276786,15.4520089 C0.087424721,15.2771569 0,15.0669655 0,14.8214286 L0,10.390625 C0.163691295,10.5729176 0.35156144,10.7347463 0.563616071,10.8761161 C1.910349,11.7912992 2.83481892,12.4330339 3.33705357,12.8013393 C3.5491082,12.9575901 3.72116749,13.0794266 3.85323661,13.1668527 C3.98530572,13.2542787 4.16108521,13.3435635 4.38058036,13.4347098 C4.6000755,13.5258561 4.80468655,13.5714286 4.99441964,13.5714286 L5.00558036,13.5714286 C5.19531345,13.5714286 5.3999245,13.5258561 5.61941964,13.4347098 C5.83891479,13.3435635 6.01469428,13.2542787 6.14676339,13.1668527 C6.27883251,13.0794266 6.4508918,12.9575901 6.66294643,12.8013393 C7.29539007,12.3437477 8.22172009,11.7020131 9.44196429,10.8761161 C9.65401892,10.7310261 9.84002896,10.5691973 10,10.390625 Z M10,8.75 C10,9.04390028 9.90885508,9.32477545 9.7265625,9.59263393 C9.54426992,9.86049241 9.31733767,10.0892848 9.04575893,10.2790179 C7.64694241,11.2500049 6.7764154,11.8545375 6.43415179,12.0926339 C6.39694922,12.1186757 6.31789495,12.1754088 6.19698661,12.2628348 C6.07607826,12.3502609 5.97563284,12.4209447 5.89564732,12.4748884 C5.8156618,12.5288321 5.71893658,12.5892854 5.60546875,12.65625 C5.49200092,12.7232146 5.38504515,12.7734373 5.28459821,12.8069196 C5.18415128,12.840402 5.09114626,12.8571429 5.00558036,12.8571429 L4.99441964,12.8571429 C4.90885374,12.8571429 4.81584872,12.840402 4.71540179,12.8069196 C4.61495485,12.7734373 4.50799908,12.7232146 4.39453125,12.65625 C4.28106342,12.5892854 4.1843382,12.5288321 4.10435268,12.4748884 C4.02436716,12.4209447 3.92392174,12.3502609 3.80301339,12.2628348 C3.68210505,12.1754088 3.60305078,12.1186757 3.56584821,12.0926339 C3.22730485,11.8545375 2.73995854,11.5150692 2.10379464,11.0742188 C1.46763075,10.6333683 1.08631016,10.368304 0.959821429,10.2790179 C0.729165513,10.1227671 0.511533761,9.90792547 0.306919643,9.63448661 C0.102305525,9.36104774 0,9.10714403 0,8.87276786 C0,8.58258783 0.0771941685,8.34077478 0.231584821,8.14732143 C0.385975474,7.95386808 0.606397377,7.85714286 0.892857143,7.85714286 L9.10714286,7.85714286 C9.34895954,7.85714286 9.55822084,7.94456758 9.73493304,8.11941964 C9.91164523,8.29427171 10,8.50446306 10,8.75 Z" id=""></path>
                </g>
            </g>
        </g>
    </g>
</svg>