<?xml version="1.0" encoding="UTF-8"?>
<svg width="56px" height="34px" viewBox="0 0 56 34" version="1.1" xmlns="http://www.w3.org/2000/svg" xmlns:xlink="http://www.w3.org/1999/xlink">
    <!-- Generator: Sketch 42 (36781) - http://www.bohemiancoding.com/sketch -->
    <title>master</title>
    <desc>Created with Sketch.</desc>
    <defs>
        <polygon id="path-1" points="0.31862966 19.8734962 19.7281074 19.8734962 19.7281074 0.0181453661 0.31862966 0.0181453661 0.31862966 19.8734962"></polygon>
        <polygon id="path-3" points="9.70846558 19.8734962 0 19.8734962 0 0.0181453661 9.70846558 0.0181453661 19.4169312 0.0181453661 19.4169312 19.8734962 9.70846558 19.8734962"></polygon>
    </defs>
    <g id="Page-1" stroke="none" stroke-width="1" fill="none" fill-rule="evenodd">
        <g id="Cotação-Nova-4" transform="translate(-611.000000, -2714.000000)">
            <g id="Box-1" transform="translate(0.000000, -3.000000)">
                <g id="dados-cartão" transform="translate(1.000000, 2717.000000)">
                    <g id="card" transform="translate(538.000000, 0.000000)">
                        <g id="master" transform="translate(72.394068, 0.000000)">
                            <rect id="Rectangle-2" fill="#FFFFFF" x="0" y="0" width="55.3601695" height="34"></rect>
                            <g id="Group-3" transform="translate(24.563127, 7.735582)">
                                <mask id="mask-2" fill="white">
                                    <use xlink:href="#path-1"></use>
                                </mask>
                                <g id="Clip-2"></g>
                                <path d="M3.53617019,17.3355211 C3.53110011,17.3355211 4.04402329,16.881887 4.38709877,16.4373255 L2.6598912,16.4373255 C2.6598912,16.4373255 2.06964928,15.7845244 1.8512133,15.2920073 L5.22746468,15.2920073 C5.22746468,15.2920073 5.5540624,14.7662237 5.77207587,14.3216622 L1.3061796,14.3216622 C1.3061796,14.3216622 0.898038083,13.5405474 0.809311667,13.1279564 L6.23852332,13.1279564 C6.23852332,13.1279564 6.4252713,12.5870516 6.50259003,12.1891497 L0.559187675,12.1964942 C0.396100072,11.4330928 -0.000211253371,9.21460574 0.816494282,6.76325318 L6.21570796,6.75590863 C6.12909407,6.46212651 5.98206173,6.06379252 5.84221199,5.77001041 L1.20477798,5.77001041 C1.39237097,5.37167642 1.66488782,4.87095072 1.8203703,4.61864372 L5.21943705,4.61648356 C5.0402942,4.33825461 4.75298961,3.90017363 4.56624163,3.7005746 L2.47314322,3.7018707 C2.86607449,3.14757297 3.53110011,2.57253768 3.53110011,2.57253768 L3.54800038,2.57253768 L3.52603003,2.56519313 C5.24563247,0.981793916 7.52294382,0.0179293498 10.0195362,0.0179293498 C15.3819918,0.0179293498 19.7283186,4.46354405 19.7283186,9.94603681 C19.7283186,15.4293936 15.3815692,19.8737122 10.0195362,19.8737122 C7.5280139,19.8737122 5.25492762,18.913736 3.53617019,17.3355211" id="Fill-1" fill="#ED8313" mask="url(#mask-2)"></path>
                            </g>
                            <g id="Group-6" transform="translate(11.887925, 7.735582)">
                                <mask id="mask-4" fill="white">
                                    <use xlink:href="#path-3"></use>
                                </mask>
                                <g id="Clip-5"></g>
                                <path d="M19.4169312,9.94582079 C19.4169312,15.4287456 15.0701818,19.8734962 9.7081487,19.8734962 C4.3452706,19.8734962 -0.000211253373,15.4287456 -0.000211253373,9.94582079 C-0.000211253373,4.46332803 4.3452706,0.0181453661 9.7081487,0.0181453661 C15.0701818,0.0181453661 19.4169312,4.46332803 19.4169312,9.94582079" id="Fill-4" fill="#E1001F" mask="url(#mask-4)"></path>
                            </g>
                        </g>
                    </g>
                </g>
            </g>
        </g>
    </g>
</svg>