<?xml version="1.0" encoding="utf-8"?>
<!-- Generator: Adobe Illustrator 20.0.0, SVG Export Plug-In . SVG Version: 6.00 Build 0)  -->
<svg version="1.1" id="Camada_1" xmlns="http://www.w3.org/2000/svg" xmlns:xlink="http://www.w3.org/1999/xlink" x="0px" y="0px"
	 viewBox="0 0 132.1 47" style="enable-background:new 0 0 132.1 47;" xml:space="preserve">
<style type="text/css">
	.st0{clip-path:url(#SVGID_2_);enable-background:new    ;}
	.st1{clip-path:url(#SVGID_4_);}
	.st2{clip-path:url(#SVGID_6_);}
	.st3{clip-path:url(#SVGID_8_);fill:#3A599F;}
	.st4{clip-path:url(#SVGID_10_);enable-background:new    ;}
	.st5{clip-path:url(#SVGID_12_);}
	.st6{clip-path:url(#SVGID_14_);}
	.st7{clip-path:url(#SVGID_16_);fill:#CE6A29;}
</style>
<g>
	<defs>
		<rect id="SVGID_1_" x="9.4" y="5.7" width="67.7" height="14.8"/>
	</defs>
	<clipPath id="SVGID_2_">
		<use xlink:href="#SVGID_1_"  style="overflow:visible;"/>
	</clipPath>
	<g class="st0">
		<g>
			<defs>
				<rect id="SVGID_3_" x="8.2" y="4.9" width="69" height="16"/>
			</defs>
			<clipPath id="SVGID_4_">
				<use xlink:href="#SVGID_3_"  style="overflow:visible;"/>
			</clipPath>
			<g class="st1">
				<defs>
					<path id="SVGID_5_" d="M20.9,11.8l0.7-5.5c-1.1-0.4-2.2-0.6-3.4-0.6c-4.2,0-8.1,3.3-8.7,7.5c-0.6,4.1,2.1,7.3,6.2,7.3
						c0.9,0,2.9-0.2,3.8-0.6l1-5.4c-1,0.8-2,1.3-3.2,1.3c-1.6,0-2.7-1.2-2.5-2.8c0.2-1.6,1.7-2.8,3.3-2.8
						C19.3,10.3,20.2,11,20.9,11.8z M50.7,12.7H57l-3.4-6.8h-6.3L50.7,12.7z M53.9,20.3h6.3l-3.6-6.9l-4.2,4.1L53.9,20.3z M39.3,5.9
						L37,20.3h5.2l2.3-14.4H39.3z M66.7,20.3l0.7-1.8h2.5h1.4l0.2,1.8h5.6L74.2,5.9h-4.3h-1.5l-7.3,14.4H66.7z M69.9,12.3l0.6-1.6
						h0.2c0,0.6,0,1.2,0.1,1.8l0.2,2.5h-1.1h-1.1L69.9,12.3z M25.8,20.3l0.7-1.8H29h1.4l0.2,1.8h5.6L33.3,5.9H29h-1.5l-7.3,14.4
						H25.8z M29,12.3l0.6-1.6h0.2c0,0.6,0,1.2,0,1.8l0.2,2.5H29H28L29,12.3z"/>
				</defs>
				<clipPath id="SVGID_6_">
					<use xlink:href="#SVGID_5_"  style="overflow:visible;"/>
				</clipPath>
				<g class="st2">
					<defs>
						<rect id="SVGID_7_" x="9.2" y="4.9" width="68" height="16"/>
					</defs>
					<clipPath id="SVGID_8_">
						<use xlink:href="#SVGID_7_"  style="overflow:visible;"/>
					</clipPath>
					<rect x="4.4" y="0.7" class="st3" width="77.7" height="24.8"/>
				</g>
			</g>
		</g>
	</g>
</g>
<g>
	<defs>
		<rect id="SVGID_9_" x="5.2" y="5.9" width="119.8" height="37.4"/>
	</defs>
	<clipPath id="SVGID_10_">
		<use xlink:href="#SVGID_9_"  style="overflow:visible;"/>
	</clipPath>
	<g class="st4">
		<g>
			<defs>
				<rect id="SVGID_11_" x="5.2" y="5.9" width="121" height="38"/>
			</defs>
			<clipPath id="SVGID_12_">
				<use xlink:href="#SVGID_11_"  style="overflow:visible;"/>
			</clipPath>
			<g class="st5">
				<defs>
					<path id="SVGID_13_" d="M49.7,20.3l6.9-6.9l-6.3,0l-6.8,6.9H49.7z M57,12.7l6.7-6.8l-6.4,0l-2.5,2.5L57,12.7z M15.1,34.3
						L15.1,34.3c0.4-2.3-1.6-3-3.4-3.6c-1.6-0.5-3.1-1-2.9-2.1l0,0c0.2-1,1.2-1.8,2.7-1.8c1.2,0,2.5,0.5,3.5,1.2l1.1-1.4
						c-1.1-0.8-2.7-1.4-4.3-1.4c-2.5,0-4.5,1.4-4.8,3.6l0,0c-0.4,2.3,1.7,3,3.6,3.5c1.6,0.5,3,0.9,2.8,2.2l0,0c-0.2,1.2-1.4,2-2.9,2
						c-1.5,0-2.9-0.6-4.1-1.6l-1.2,1.3c1.2,1.1,3.1,1.8,4.9,1.8C12.6,38.1,14.8,36.7,15.1,34.3z M18.3,32.3h9.9
						c0.1-0.2,0.1-0.4,0.1-0.6c0.6-3.6-1.1-6.6-4.8-6.6c-3.4,0-6.4,2.9-7,6.5c-0.6,3.9,1.8,6.5,5.2,6.5c2.4,0,4-0.9,5.5-2.3l-1-1
						c-1.2,1.1-2.5,1.8-4.2,1.8C19.9,36.5,18.2,35,18.3,32.3z M18.6,30.9c0.6-2.4,2.6-4.2,4.7-4.2c2.5,0,3.5,2,3.3,4.2H18.6z
						 M53.4,32.5c-0.4,2.3-2.2,3.9-4.4,3.9c-2.2,0-3.2-1.4-2.9-3.7l1.2-7.3h-1.9l-1.2,7.7c-0.5,3,1,5,4,5c2.2,0,3.6-1.1,4.7-2.4
						l-0.3,2.2h1.8l2-12.4h-1.8L53.4,32.5z M59.5,32.9c0.6-3.7,3.1-5.7,5.9-5.7h0.1l0.3-2c-2.3-0.1-4.4,1.4-5.6,3.5l0.5-3.2h-1.9
						l-2,12.4h1.9L59.5,32.9z M71.6,26.9c2.3,0,3.5,1.1,3.2,3.4l-0.1,0.4c-1.1-0.3-2.2-0.5-3.8-0.5c-3.2,0-5.6,1.4-6,4
						c-0.4,2.6,1.7,3.9,4,3.9c2.2,0,3.8-1,4.9-2.1l-0.3,1.9h1.8l1.2-7.6c0.5-3.3-1.1-5-4.5-5c-1.8,0-3.2,0.4-4.7,1l0.3,1.5
						C68.9,27.3,70.1,26.9,71.6,26.9z M70.9,31.5c1.5,0,2.7,0.3,3.6,0.5l-0.2,1.2c-0.3,2-2.4,3.4-4.7,3.4c-1.7,0-3-0.9-2.7-2.5
						C67.1,32.5,68.6,31.5,70.9,31.5z M89.5,37.8l2.8-17.5h-1.9l-1.2,7.5c-0.7-1.4-2-2.6-4.4-2.6c-3,0-6.3,2.4-7,6.5
						c-0.7,4.1,1.9,6.5,4.9,6.5c2.3,0,4-1.3,5.2-2.8l-0.4,2.5H89.5z M88.7,31.6c-0.5,2.9-3,4.8-5.3,4.8c-2.4,0-4.1-1.9-3.6-4.8
						c0.5-3,2.7-4.8,5.2-4.8C87.2,26.8,89.1,28.7,88.7,31.6z M39.7,37.3c-0.5,2.9-2.5,4.4-5.2,4.4c-1.8,0-3.3-0.6-4.6-1.6l-1.1,1.4
						c1.5,1.2,3.3,1.7,5.4,1.7c3.8,0,6.7-2,7.3-6.1l1.9-11.8h-1.9l-0.4,2.5c-0.8-1.5-2.1-2.8-4.3-2.8c-3,0-6.3,2.4-7,6.5
						c-0.6,4.1,1.9,6.5,4.9,6.5c2.3,0,4-1.2,5.2-2.6L39.7,37.3z M35.4,36.4c-2.4,0-4.1-1.8-3.6-4.8c0.5-3,2.8-4.8,5.2-4.8
						c2.3,0,4.2,1.9,3.8,4.8C40.2,34.5,37.7,36.4,35.4,36.4z M105.1,31.6c0.6-3.5-1.7-6.5-5.5-6.5c-3.8,0-7,3-7.5,6.5
						c-0.6,3.5,1.7,6.5,5.4,6.5C101.3,38.1,104.6,35.1,105.1,31.6z M103.2,31.7c-0.4,2.7-2.6,4.8-5.3,4.8c-2.6,0-4.3-2.2-3.8-4.8
						c0.4-2.7,2.6-4.8,5.3-4.8C102,26.8,103.7,28.9,103.2,31.7z M108.5,32.9c0.6-3.7,3.1-5.7,5.8-5.7h0.1l0.3-2
						c-2.3-0.1-4.4,1.4-5.6,3.5l0.5-3.2h-1.9l-2,12.4h1.9L108.5,32.9z M120,26.9c2.3,0,3.5,1.1,3.2,3.4l-0.1,0.4
						c-1.1-0.3-2.2-0.5-3.8-0.5c-3.2,0-5.6,1.4-6,4c-0.4,2.6,1.7,3.9,4,3.9c2.2,0,3.8-1,4.9-2.1l-0.3,1.9h1.8l1.2-7.6
						c0.5-3.3-1.1-5-4.5-5c-1.8,0-3.2,0.4-4.7,1l0.3,1.5C117.3,27.3,118.6,26.9,120,26.9z M119.4,31.5c1.5,0,2.7,0.3,3.6,0.5
						l-0.2,1.2c-0.3,2-2.4,3.4-4.7,3.4c-1.7,0-3-0.9-2.7-2.5C115.6,32.5,117,31.5,119.4,31.5z"/>
				</defs>
				<clipPath id="SVGID_14_">
					<use xlink:href="#SVGID_13_"  style="overflow:visible;"/>
				</clipPath>
				<g class="st6">
					<defs>
						<rect id="SVGID_15_" x="5.2" y="5.9" width="120" height="38"/>
					</defs>
					<clipPath id="SVGID_16_">
						<use xlink:href="#SVGID_15_"  style="overflow:visible;"/>
					</clipPath>
					<rect x="0.2" y="0.9" class="st7" width="129.8" height="47.4"/>
				</g>
			</g>
		</g>
	</g>
</g>
</svg>
