<?xml version="1.0" encoding="utf-8"?>
<!-- Generator: Adobe Illustrator 20.0.0, SVG Export Plug-In . SVG Version: 6.00 Build 0)  -->
<svg version="1.1" id="Camada_1" xmlns="http://www.w3.org/2000/svg" xmlns:xlink="http://www.w3.org/1999/xlink" x="0px" y="0px"
	 viewBox="0 0 132.1 47" style="enable-background:new 0 0 132.1 47;" xml:space="preserve">
<style type="text/css">
	.st0{clip-path:url(#SVGID_2_);fill:#FFFFFF;}
	.st1{clip-path:url(#SVGID_4_);enable-background:new    ;}
	.st2{clip-path:url(#SVGID_6_);}
	.st3{clip-path:url(#SVGID_8_);}
	.st4{clip-path:url(#SVGID_10_);fill:#C57023;}
</style>
<g>
	<defs>
		<path id="SVGID_1_" d="M21.1,11.9l0.7-5.5c-1.1-0.4-2.2-0.6-3.4-0.6c-4.2,0-8,3.3-8.7,7.5c-0.6,4.1,2,7.3,6.2,7.3
			c0.9,0,2.9-0.2,3.8-0.6l1-5.4c-1,0.8-2,1.3-3.2,1.3c-1.6,0-2.7-1.2-2.5-2.8c0.2-1.6,1.7-2.8,3.3-2.8
			C19.5,10.5,20.4,11.2,21.1,11.9z M50.8,12.9h6.3l-3.4-6.8h-6.2L50.8,12.9z M54,20.5h6.2l-3.5-6.9l-4.2,4.1L54,20.5z M39.5,6.1
			l-2.3,14.4h5.2l2.3-14.4H39.5z M66.7,20.5l0.7-1.8h2.5h1.4l0.2,1.8h5.5L74.2,6.1h-4.3h-1.5l-7.3,14.4H66.7z M69.9,12.5l0.6-1.6
			h0.2c0,0.6,0,1.2,0.1,1.8l0.2,2.5h-1h-1L69.9,12.5z M25.9,20.5l0.7-1.8h2.5h1.4l0.2,1.8h5.5L33.5,6.1h-4.3h-1.5l-7.3,14.4H25.9z
			 M29.2,12.5l0.6-1.6H30c0,0.6,0,1.2,0,1.8l0.2,2.5h-1.1h-1L29.2,12.5z"/>
	</defs>
	<clipPath id="SVGID_2_">
		<use xlink:href="#SVGID_1_"  style="overflow:visible;"/>
	</clipPath>
	<rect x="4.6" y="0.9" class="st0" width="77.5" height="24.8"/>
</g>
<g>
	<defs>
		<rect id="SVGID_3_" x="5.4" y="5.9" width="119.5" height="37.4"/>
	</defs>
	<clipPath id="SVGID_4_">
		<use xlink:href="#SVGID_3_"  style="overflow:visible;"/>
	</clipPath>
	<g class="st1">
		<g>
			<defs>
				<rect id="SVGID_5_" x="5.4" y="5.4" width="120" height="38"/>
			</defs>
			<clipPath id="SVGID_6_">
				<use xlink:href="#SVGID_5_"  style="overflow:visible;"/>
			</clipPath>
			<g class="st2">
				<defs>
					<path id="SVGID_7_" d="M49.7,20.3l6.9-6.9l-6.3,0l-6.7,6.9H49.7z M57,12.7l6.7-6.8l-6.3,0l-2.5,2.5L57,12.7z M15.3,34.4
						L15.3,34.4c0.4-2.3-1.6-3-3.4-3.6c-1.6-0.5-3-1-2.9-2.1l0,0c0.2-1,1.2-1.8,2.7-1.8c1.2,0,2.5,0.5,3.5,1.2l1.1-1.4
						c-1.1-0.8-2.7-1.4-4.3-1.4c-2.5,0-4.5,1.4-4.8,3.6l0,0c-0.4,2.3,1.7,3,3.6,3.5c1.6,0.5,3,0.9,2.8,2.2l0,0c-0.2,1.2-1.4,2-2.9,2
						c-1.5,0-2.9-0.6-4.1-1.6l-1.1,1.3c1.2,1.1,3.1,1.8,4.9,1.8C12.7,38.1,14.9,36.7,15.3,34.4z M18.4,32.3h9.9
						c0.1-0.2,0.1-0.4,0.1-0.6c0.6-3.7-1.1-6.6-4.7-6.6c-3.4,0-6.4,2.9-7,6.5c-0.6,3.9,1.8,6.5,5.2,6.5c2.4,0,4-0.9,5.5-2.3l-1-1
						c-1.2,1.1-2.5,1.8-4.2,1.8C20,36.5,18.3,35,18.4,32.3z M18.7,30.9c0.6-2.4,2.5-4.2,4.7-4.2c2.5,0,3.5,2,3.3,4.2H18.7z
						 M53.4,32.5c-0.4,2.3-2.2,3.9-4.3,3.9c-2.2,0-3.2-1.4-2.8-3.7l1.2-7.3h-1.9l-1.2,7.7c-0.5,3,1,5,4,5c2.1,0,3.6-1.1,4.6-2.4
						l-0.3,2.2h1.8l2-12.4h-1.8L53.4,32.5z M59.5,32.9c0.6-3.7,3.1-5.7,5.8-5.7h0.1l0.3-2c-2.3-0.1-4.4,1.4-5.6,3.5l0.5-3.2h-1.9
						l-2,12.4h1.8L59.5,32.9z M71.5,26.9c2.3,0,3.5,1.1,3.2,3.4l-0.1,0.4c-1.1-0.3-2.2-0.5-3.7-0.5c-3.2,0-5.5,1.4-6,4
						c-0.4,2.6,1.7,3.9,4,3.9c2.2,0,3.8-1,4.8-2.1l-0.3,1.9h1.8l1.2-7.6c0.5-3.3-1.1-5-4.5-5c-1.8,0-3.2,0.4-4.7,1l0.3,1.5
						C68.8,27.3,70,26.9,71.5,26.9z M70.8,31.5c1.5,0,2.7,0.3,3.6,0.5l-0.2,1.2c-0.3,2-2.4,3.4-4.7,3.4c-1.7,0-3-0.9-2.7-2.5
						C67,32.6,68.5,31.5,70.8,31.5z M89.3,37.8l2.8-17.5h-1.9l-1.2,7.5c-0.7-1.4-2-2.6-4.3-2.6c-3,0-6.3,2.4-7,6.5
						c-0.7,4.1,1.9,6.5,4.9,6.5c2.3,0,4-1.3,5.2-2.8l-0.4,2.5H89.3z M88.5,31.6c-0.5,2.9-3,4.8-5.3,4.8c-2.4,0-4.1-1.9-3.6-4.8
						c0.5-3,2.7-4.8,5.1-4.8C87.1,26.8,89,28.7,88.5,31.6z M39.8,37.3c-0.5,2.9-2.5,4.4-5.2,4.4c-1.8,0-3.3-0.6-4.5-1.6l-1.1,1.4
						c1.5,1.2,3.3,1.7,5.4,1.7c3.8,0,6.6-2,7.3-6.1l1.9-11.8h-1.9l-0.4,2.5c-0.8-1.5-2-2.8-4.3-2.8c-3,0-6.3,2.4-7,6.5
						c-0.6,4.1,1.9,6.5,4.9,6.5c2.3,0,4-1.2,5.2-2.6L39.8,37.3z M35.5,36.4c-2.4,0-4.1-1.8-3.6-4.8c0.5-3,2.8-4.8,5.1-4.8
						c2.3,0,4.2,1.9,3.7,4.8C40.3,34.5,37.8,36.4,35.5,36.4z M105,31.6c0.6-3.5-1.7-6.5-5.4-6.5c-3.8,0-7,3-7.5,6.5
						c-0.6,3.5,1.7,6.5,5.4,6.5C101.2,38.1,104.4,35.1,105,31.6z M103.1,31.7c-0.4,2.7-2.6,4.8-5.3,4.8c-2.6,0-4.3-2.2-3.8-4.9
						c0.4-2.7,2.6-4.8,5.3-4.8C101.8,26.8,103.5,28.9,103.1,31.7z M108.3,32.9c0.6-3.7,3.1-5.7,5.8-5.7h0.1l0.3-2
						c-2.3-0.1-4.4,1.4-5.6,3.5l0.5-3.2h-1.9l-2,12.4h1.9L108.3,32.9z M119.8,26.9c2.3,0,3.5,1.1,3.2,3.4l-0.1,0.4
						c-1.1-0.3-2.2-0.5-3.7-0.5c-3.1,0-5.5,1.4-6,4c-0.4,2.6,1.7,3.9,4,3.9c2.2,0,3.8-1,4.8-2.1l-0.3,1.9h1.8l1.2-7.6
						c0.5-3.3-1.1-5-4.5-5c-1.8,0-3.2,0.4-4.7,1l0.3,1.5C117.1,27.3,118.3,26.9,119.8,26.9z M119.1,31.5c1.5,0,2.7,0.3,3.6,0.5
						l-0.2,1.2c-0.3,2-2.4,3.4-4.7,3.4c-1.7,0-3-0.9-2.7-2.5C115.4,32.6,116.8,31.5,119.1,31.5z"/>
				</defs>
				<clipPath id="SVGID_8_">
					<use xlink:href="#SVGID_7_"  style="overflow:visible;"/>
				</clipPath>
				<g class="st3">
					<defs>
						<rect id="SVGID_9_" x="5.4" y="5.4" width="120" height="38"/>
					</defs>
					<clipPath id="SVGID_10_">
						<use xlink:href="#SVGID_9_"  style="overflow:visible;"/>
					</clipPath>
					<rect x="0.4" y="0.9" class="st4" width="129.5" height="47.4"/>
				</g>
			</g>
		</g>
	</g>
</g>
</svg>
