<?xml version="1.0" encoding="utf-8"?>
<!-- Generator: Adobe Illustrator 20.0.0, SVG Export Plug-In . SVG Version: 6.00 Build 0)  -->
<svg version="1.1" id="Camada_1" xmlns="http://www.w3.org/2000/svg" xmlns:xlink="http://www.w3.org/1999/xlink" x="0px" y="0px"
	 viewBox="0 0 223.9 51" style="enable-background:new 0 0 223.9 51;" xml:space="preserve">
<style type="text/css">
	.st0{fill:#FFFFFF;}
	.st1{font-family:'AlrightSans-Light';}
	.st2{font-size:16px;}
	.st3{font-family:'AlrightSans-Medium';}
	.st4{font-size:22px;}
	.st5{fill:none;stroke:#FFFFFF;stroke-miterlimit:10;}
</style>
<text transform="matrix(1 0 0 1 58.2003 19.2298)"><tspan x="0" y="0" class="st0 st1 st2">Plan</tspan><tspan x="32.2" y="0" class="st0 st1 st2">o</tspan></text>
<text transform="matrix(1 0 0 1 58.2003 41.2298)"><tspan x="0" y="0" class="st0 st3 st4">Id</tspan><tspan x="19.6" y="0" class="st0 st3 st4">e</tspan><tspan x="32.2" y="0" class="st0 st3 st4">al </tspan><tspan x="55.9" y="0" class="st0 st3 st4">p</tspan><tspan x="69.3" y="0" class="st0 st3 st4">a</tspan><tspan x="81.5" y="0" class="st0 st3 st4">r</tspan><tspan x="90.8" y="0" class="st0 st3 st4">a </tspan><tspan x="108.6" y="0" class="st0 st3 st4">v</tspan><tspan x="120.1" y="0" class="st0 st3 st4">o</tspan><tspan x="133.7" y="0" class="st0 st3 st4">c</tspan><tspan x="145.1" y="0" class="st0 st3 st4">ê</tspan></text>
<polygon class="st5" points="15,41.2 27.1,41.2 27.1,31.5 31.9,31.5 31.9,41.2 43.9,41.2 43.9,26.7 48.7,26.7 29.5,7.2 10.2,26.7 
	15,26.7 "/>
</svg>
