<svg id="Layer_1" data-name="Layer 1" xmlns="http://www.w3.org/2000/svg" viewBox="0 0 1920 1080"><defs><style>.cls-1{fill:#ff9141;}.cls-2{fill:#ff6d00;}.cls-3{fill:#e65a00;}</style></defs><title>ilustracoes_caixa_am5SVG</title><polygon class="cls-1" points="960 256.5 469.09 539.93 469.09 610.79 960 894.21 1450.91 610.79 1450.91 539.93 960 256.5"/><polygon class="cls-2" points="960 894.21 469.09 610.79 469.09 539.93 960 823.36 960 894.21"/><polygon class="cls-3" points="960 894.21 1450.91 610.79 1450.91 539.93 960 823.36 960 894.21"/><path class="cls-3" d="M960,98.71c-161.25,0-292,130.72-292,292s130.72,292,292,292,292-130.72,292-292S1121.25,98.71,960,98.71Zm-228.46,292c0-126.18,102.29-228.46,228.46-228.46a227.42,227.42,0,0,1,134.82,44L780.45,531.95A227.48,227.48,0,0,1,731.54,390.67ZM960,619.13a227.41,227.41,0,0,1-133.28-42.9l314-325.33a227.46,227.46,0,0,1,47.75,139.77C1188.46,516.84,1086.18,619.13,960,619.13Z"/></svg>