<svg id="Layer_1" data-name="Layer 1" xmlns="http://www.w3.org/2000/svg" xmlns:xlink="http://www.w3.org/1999/xlink" viewBox="0 0 1920 1080"><defs><style>.cls-1,.cls-2{fill:none;}.cls-1{clip-rule:evenodd;}.cls-3{clip-path:url(#clip-path);}.cls-4{clip-path:url(#clip-path-2);}.cls-5{clip-path:url(#clip-path-3);}.cls-6{clip-path:url(#clip-path-4);}.cls-7{clip-path:url(#clip-path-5);}.cls-8{clip-path:url(#clip-path-6);}.cls-9{clip-path:url(#clip-path-7);}.cls-10{clip-path:url(#clip-path-8);}.cls-11{clip-path:url(#clip-path-9);}.cls-12{clip-path:url(#clip-path-10);}.cls-13{clip-path:url(#clip-path-11);}.cls-14{clip-path:url(#clip-path-12);}.cls-15{clip-path:url(#clip-path-13);}.cls-16{clip-path:url(#clip-path-14);}.cls-17{clip-path:url(#clip-path-15);}.cls-18{clip-path:url(#clip-path-16);}.cls-19{clip-path:url(#clip-path-17);}.cls-20{clip-path:url(#clip-path-18);}.cls-21{clip-path:url(#clip-path-19);}.cls-22{clip-path:url(#clip-path-20);}.cls-23{clip-path:url(#clip-path-21);}.cls-24{clip-path:url(#clip-path-22);}.cls-25{clip-path:url(#clip-path-23);}.cls-26{clip-path:url(#clip-path-24);}.cls-27{clip-path:url(#clip-path-25);}.cls-28{clip-path:url(#clip-path-26);}.cls-29{clip-path:url(#clip-path-27);}.cls-30{clip-path:url(#clip-path-28);}.cls-31{clip-path:url(#clip-path-29);}.cls-32{clip-path:url(#clip-path-30);}.cls-33{clip-path:url(#clip-path-31);}.cls-34{clip-path:url(#clip-path-32);}.cls-35{clip-path:url(#clip-path-33);}.cls-36{clip-path:url(#clip-path-34);}.cls-37{clip-path:url(#clip-path-35);}.cls-38{clip-path:url(#clip-path-36);}.cls-39{clip-path:url(#clip-path-37);}.cls-40{clip-path:url(#clip-path-38);}.cls-41{clip-path:url(#clip-path-39);}.cls-42{clip-path:url(#clip-path-40);}.cls-43{clip-path:url(#clip-path-41);}.cls-44{clip-path:url(#clip-path-42);}.cls-45{clip-path:url(#clip-path-43);}.cls-46{clip-path:url(#clip-path-44);}.cls-47{clip-path:url(#clip-path-45);}.cls-48{clip-path:url(#clip-path-46);}.cls-49{clip-path:url(#clip-path-47);}.cls-50{clip-path:url(#clip-path-48);}.cls-51{clip-path:url(#clip-path-49);}.cls-52{clip-path:url(#clip-path-50);}.cls-53{clip-path:url(#clip-path-51);}.cls-54{clip-path:url(#clip-path-52);}.cls-55{clip-path:url(#clip-path-53);}.cls-56{clip-path:url(#clip-path-54);}.cls-57{clip-path:url(#clip-path-55);}.cls-58{clip-path:url(#clip-path-56);}.cls-59{clip-path:url(#clip-path-57);}.cls-60{clip-path:url(#clip-path-58);}.cls-61{clip-path:url(#clip-path-59);}.cls-62{clip-path:url(#clip-path-60);}.cls-63{clip-path:url(#clip-path-61);}.cls-64{clip-path:url(#clip-path-62);}.cls-65{clip-path:url(#clip-path-63);}.cls-66{clip-path:url(#clip-path-64);}.cls-67{clip-path:url(#clip-path-65);}.cls-68{clip-path:url(#clip-path-66);}.cls-69{clip-path:url(#clip-path-67);}.cls-70{clip-path:url(#clip-path-68);}.cls-71{clip-path:url(#clip-path-69);}.cls-72{clip-path:url(#clip-path-70);}.cls-73{clip-path:url(#clip-path-71);}.cls-74{clip-path:url(#clip-path-72);}.cls-75{clip-path:url(#clip-path-73);}.cls-76{clip-path:url(#clip-path-74);}.cls-77{clip-path:url(#clip-path-75);}.cls-78{clip-path:url(#clip-path-76);}.cls-79{clip-path:url(#clip-path-77);}.cls-80{clip-path:url(#clip-path-78);}.cls-81{clip-path:url(#clip-path-79);}.cls-82{clip-path:url(#clip-path-80);}.cls-83{clip-path:url(#clip-path-81);}.cls-84{clip-path:url(#clip-path-82);}.cls-85{clip-path:url(#clip-path-83);}.cls-86{clip-path:url(#clip-path-84);}.cls-87{clip-path:url(#clip-path-85);}.cls-88{clip-path:url(#clip-path-86);}.cls-89{clip-path:url(#clip-path-87);}.cls-90{clip-path:url(#clip-path-88);}.cls-91{clip-path:url(#clip-path-89);}.cls-92{clip-path:url(#clip-path-90);}.cls-93{clip-path:url(#clip-path-91);}.cls-94{clip-path:url(#clip-path-92);}.cls-95{clip-path:url(#clip-path-93);}.cls-96{clip-path:url(#clip-path-94);}.cls-97{clip-path:url(#clip-path-95);}.cls-98{clip-path:url(#clip-path-96);}.cls-99{clip-path:url(#clip-path-97);}.cls-100{fill:#e1e1e1;}.cls-101{clip-path:url(#clip-path-98);}.cls-102{fill:#b9b9b9;}.cls-103{clip-path:url(#clip-path-100);}.cls-104{isolation:isolate;}.cls-105{clip-path:url(#clip-path-102);}.cls-106{clip-path:url(#clip-path-103);}.cls-107{clip-path:url(#clip-path-104);}.cls-108{fill:#898d8d;}.cls-109{clip-path:url(#clip-path-105);}.cls-110{fill:#41b9b4;}.cls-111{clip-path:url(#clip-path-107);}.cls-112{fill:#fff;}.cls-113{clip-path:url(#clip-path-109);}.cls-114{clip-path:url(#clip-path-111);}.cls-115{clip-path:url(#clip-path-113);}.cls-116{clip-path:url(#clip-path-115);}.cls-117{clip-path:url(#clip-path-117);}.cls-118{clip-path:url(#clip-path-119);}.cls-119{clip-path:url(#clip-path-121);}.cls-120{clip-path:url(#clip-path-123);}.cls-121{clip-path:url(#clip-path-125);}.cls-122{clip-path:url(#clip-path-127);}.cls-123{clip-path:url(#clip-path-129);}.cls-124{clip-path:url(#clip-path-131);}.cls-125{clip-path:url(#clip-path-133);}.cls-126{clip-path:url(#clip-path-134);}.cls-127{clip-path:url(#clip-path-136);}.cls-128{clip-path:url(#clip-path-138);}.cls-129{clip-path:url(#clip-path-140);}.cls-130{clip-path:url(#clip-path-142);}.cls-131{clip-path:url(#clip-path-144);}.cls-132{clip-path:url(#clip-path-146);}.cls-133{clip-path:url(#clip-path-148);}.cls-134{fill:#8c5fa5;}.cls-135{clip-path:url(#clip-path-150);}.cls-136{fill:#733791;}.cls-137{clip-path:url(#clip-path-152);}.cls-138{fill:#635d6b;}.cls-139{clip-path:url(#clip-path-154);}.cls-140{clip-path:url(#clip-path-156);}.cls-141{fill:#500778;}.cls-142{clip-path:url(#clip-path-158);}.cls-143{fill:#ededee;}.cls-144{clip-path:url(#clip-path-160);}.cls-145{fill:#514b5a;}.cls-146{clip-path:url(#clip-path-162);}.cls-147{fill:#dcdbde;}.cls-148{clip-path:url(#clip-path-164);}.cls-149{clip-path:url(#clip-path-166);}.cls-150{clip-path:url(#clip-path-168);}.cls-151{clip-path:url(#clip-path-170);}.cls-152{clip-path:url(#clip-path-172);}.cls-153{clip-path:url(#clip-path-174);}.cls-154{clip-path:url(#clip-path-176);}.cls-155{fill:#f16465;}.cls-156{clip-path:url(#clip-path-178);}.cls-157{clip-path:url(#clip-path-180);}.cls-158{clip-path:url(#clip-path-182);}</style><clipPath id="clip-path"><polygon class="cls-1" points="-1803.16 632.05 -1803.16 702.82 -1312.9 985.87 -822.64 702.82 -822.64 632.05 -1312.9 349 -1803.16 632.05"/></clipPath><clipPath id="clip-path-2"><polygon class="cls-1" points="-1312.9 985.87 -1803.16 702.82 -1803.16 632.05 -1312.9 915.11 -1312.9 985.87"/></clipPath><clipPath id="clip-path-3"><polygon class="cls-1" points="-1067.77 985.87 -822.64 985.87 -822.64 632.05 -1312.9 632.05 -1312.9 985.87 -1067.77 985.87"/></clipPath><clipPath id="clip-path-4"><path class="cls-1" d="M-955.48,525.91a71.57,71.57,0,0,0-71.57,71.57h143.13a71.57,71.57,0,0,0-71.57-71.57"/></clipPath><clipPath id="clip-path-5"><path class="cls-1" d="M-1002.6,567.95A39.38,39.38,0,0,0-1042,607.33h78.76a39.38,39.38,0,0,0-39.38-39.38"/></clipPath><clipPath id="clip-path-6"><path class="cls-1" d="M-1260.46,770.23a42.86,42.86,0,0,0-38.47,24,34.4,34.4,0,0,0-21.27-7.35,34.41,34.41,0,0,0-19.66,6.15,53.28,53.28,0,0,0-52.37-43.57,53.29,53.29,0,0,0-53.29,53.29,53.48,53.48,0,0,0,1,10.39h226.93a42.9,42.9,0,0,0-42.9-42.9"/></clipPath><clipPath id="clip-path-7"><path class="cls-1" d="M-1692.39,629.49h122.91A61.45,61.45,0,0,0-1630.94,568,61.45,61.45,0,0,0-1692.39,629.49Z"/></clipPath><clipPath id="clip-path-8"><path class="cls-1" d="M-1355.34,495.18H-1524s-25.14,113.28,32.42,213.21h21.5s-98.59-175.19,30.39-175.19,30.39,175.19,30.39,175.19h21.5c57.55-99.93,32.42-213.21,32.42-213.21"/></clipPath><clipPath id="clip-path-9"><path class="cls-1" d="M-1377.47,293.6h-.19a99,99,0,0,0-93.61,66.8l.47-.1a99,99,0,0,1,93.33-66.7"/></clipPath><clipPath id="clip-path-10"><path class="cls-1" d="M-1373.4,293.7c.9,0,1.82,0,2.72.07-.9,0-1.81,0-2.72-.07"/></clipPath><clipPath id="clip-path-11"><path class="cls-1" d="M-1377.41,318.14a27.72,27.72,0,0,1,3.4.25,27.92,27.92,0,0,0-3.19-.27l-.2,0"/></clipPath><clipPath id="clip-path-12"><path class="cls-1" d="M-1377.22,293.6h-.24a33.17,33.17,0,0,1,4.07.32,32.68,32.68,0,0,0-3.82-.33"/></clipPath><clipPath id="clip-path-13"><path class="cls-1" d="M-1372.86,318.25c-.46,0-.93,0-1.39,0l1.39,0"/></clipPath><clipPath id="clip-path-14"><path class="cls-1" d="M-1441.57,354.42l-29.23,5.89,0,.09,29.7-6a74.49,74.49,0,0,1,63.72-36.29h-.25a74.49,74.49,0,0,0-63.91,36.3"/></clipPath><clipPath id="clip-path-15"><path class="cls-1" d="M-1334.82,303.12a98.49,98.49,0,0,0-37.69-9.39,98.44,98.44,0,0,1,37.62,9.56Z"/></clipPath><clipPath id="clip-path-16"><path class="cls-1" d="M-1334.9,303.29a98.43,98.43,0,0,0-37.62-9.56l-.88,0c-1.35-.06-2.7-.1-4.07-.1a99,99,0,0,0-93.33,66.7l29.23-5.89a74.49,74.49,0,0,1,63.91-36.3h.44c1,0,2,0,3,.09h.45a74,74,0,0,1,29.33,7.51Z"/></clipPath><clipPath id="clip-path-17"><path class="cls-1" d="M-1501.34,293.6a98.59,98.59,0,0,0-42.4,9.53l9.65,22.6a74,74,0,0,1,32.75-7.61,74.49,74.49,0,0,1,63.91,36.3l29.7,6a99,99,0,0,0-93.61-66.8"/></clipPath><clipPath id="clip-path-18"><path class="cls-1" d="M-1600.33,392.58A99,99,0,0,0-1545.89,481l8-23.57a74.5,74.5,0,0,1-37.88-64.82,74.55,74.55,0,0,1,41.72-66.86l-9.65-22.6a99,99,0,0,0-56.59,89.46"/></clipPath><clipPath id="clip-path-19"><path class="cls-1" d="M-1523.84,219.91s2.21,38.19,19.81,50.79l-2.84-24.39Z"/></clipPath><clipPath id="clip-path-20"><path class="cls-1" d="M-1354.48,219.91s-2.21,38.19-19.81,50.79l2.84-24.39Z"/></clipPath><clipPath id="clip-path-21"><path class="cls-1" d="M-1439.16,308.71-1477.68,287s-38.15,136.05-46.29,208.14h84.81Z"/></clipPath><clipPath id="clip-path-22"><path class="cls-1" d="M-1439.66,308.71l38.52-21.67s38.15,136.05,46.29,208.14h-84.81Z"/></clipPath><clipPath id="clip-path-23"><path class="cls-1" d="M-1439.16,303.38h-30.08s13.44,30.21,30.08,33.85c16.64-3.63,30.08-33.85,30.08-33.85Z"/></clipPath><clipPath id="clip-path-24"><path class="cls-1" d="M-1439.16,282.28l-30.08,21.1S-1453.4,324-1439.16,324c4.38,0,19.63-6.61,30.08-20.57Z"/></clipPath><clipPath id="clip-path-25"><path class="cls-1" d="M-1504.79,219.91a13.47,13.47,0,0,0-19.05,0,13.47,13.47,0,0,0,0,19.05,13.47,13.47,0,0,0,19.05,0,13.47,13.47,0,0,0,0-19.05"/></clipPath><clipPath id="clip-path-26"><path class="cls-1" d="M-1354.48,219.91a13.47,13.47,0,0,0-19.05,0,13.47,13.47,0,0,0,0,19.05,13.47,13.47,0,0,0,19.05,0,13.47,13.47,0,0,0,0-19.05"/></clipPath><clipPath id="clip-path-27"><path class="cls-1" d="M-1423.9,308.73c20.85-7.2,42.52-17.78,52.53-37.43,6.92-13.58,7.17-29.46,7.31-44.7.1-11,.19-22.13-1.46-32.93a80.29,80.29,0,0,0-3.83-15.36c-6.87-18.85-22.41-34.18-41.09-41.51a76.75,76.75,0,0,0-28.73-5.17l-13.34,116.2,13.34,64.1c.34,0,.67,0,1,0,4.89-.12,9.63-1.63,14.25-3.23"/></clipPath><clipPath id="clip-path-28"><path class="cls-1" d="M-1468.77,137.66c-14,5.71-26.51,15.48-34.17,28.49-10.36,17.58-11,39-11,59.44.08,18.59.89,39.25,12.88,54.53s33.31,25.28,51.57,30.12a44.34,44.34,0,0,0,10.7,1.71l-5.45-65.58,16-5.45-10.5-109.27a81.54,81.54,0,0,0-30,6"/></clipPath><clipPath id="clip-path-29"><path class="cls-1" d="M-1460.59,210.37a5.67,5.67,0,0,0-5.66-5.67,5.67,5.67,0,0,0-5.66,5.67,5.67,5.67,0,0,0,5.66,5.66,5.67,5.67,0,0,0,5.66-5.66"/></clipPath><clipPath id="clip-path-30"><path class="cls-1" d="M-1404.09,210.37a5.66,5.66,0,0,0-5.66-5.67,5.66,5.66,0,0,0-5.66,5.67,5.66,5.66,0,0,0,5.66,5.66,5.66,5.66,0,0,0,5.66-5.66"/></clipPath><clipPath id="clip-path-31"><path class="cls-1" d="M-1385.06,235.73c0,3.48-5.58,6.3-12.45,6.3s-12.46-2.82-12.46-6.3,5.58-6.3,12.46-6.3,12.45,2.82,12.45,6.3"/></clipPath><clipPath id="clip-path-32"><path class="cls-1" d="M-1490.54,235.73c0,3.48,5.58,6.3,12.45,6.3s12.46-2.82,12.46-6.3-5.58-6.3-12.46-6.3-12.45,2.82-12.45,6.3"/></clipPath><clipPath id="clip-path-33"><polygon class="cls-1" points="-1444.61 246.31 -1422.19 246.31 -1428.66 240.9 -1444.61 246.31"/></clipPath><clipPath id="clip-path-34"><path class="cls-1" d="M-1372.47,457.4h31.39l8,23.57c-7,12-21.91,14.2-21.91,14.2l-4.22-29H-1372a4.28,4.28,0,0,1-.45,0,4.43,4.43,0,0,1-4.42-4.42,4.42,4.42,0,0,1,4.42-4.42"/></clipPath><clipPath id="clip-path-35"><path class="cls-1" d="M-1405.65,121.16v.62c-1.4,2.6-14.07,25.63-31,38.24-6.34,4.73-13.27,8-20.43,8.16h42.87c5.43.12,8.57,2.09,10.88,4.57,4.21,4.52,5.58,10.76,12.62,10.76a14.54,14.54,0,0,1,10.14,3.56c4.7,4.24,5.18,10.75,5.18,10.75v31.62h11.76q0-1.94,0-3.85c0-3.17,0-6.36-.06-9.56a13.39,13.39,0,0,1,7.62,2.64l1.52,1.24s0,0,0,0l.19.23a271.3,271.3,0,0,0,1.88-29.31c0-34.81-22-59.84-53.23-69.62"/></clipPath><clipPath id="clip-path-36"><path class="cls-1" d="M-1425,115.39a138.06,138.06,0,0,0-14.41,0c-2.54.13-5.07.32-7.59.6a103.3,103.3,0,0,0-11,1.78c-.34.08-1.08.36-1.83.61l-1.93.36h0a94.08,94.08,0,0,0-16.21,4.65c-28.13,10.93-47.55,35-47.51,67.61,0,6.91.65,19.07,1.66,27.51,0,.47,0,.91,0,1.39l.15-.12c0,.17,0,.36.06.53.12-.13.21-.28.34-.41a13.25,13.25,0,0,1,8.23-3.79c.41,0,.81-.09,1.21-.07-.06,3.19-.07,6.38-.06,9.54q0,1.91,0,3.85h11.76V197.81a19,19,0,0,1,2.07-6.71l2.45-3.36.06-.08c2.28-2.33,5.7-3.52,10.75-4.15s7-6.27,11.42-10.52a16.85,16.85,0,0,1,12.09-4.8s26.9.1,30.75,0c38.14-.86,52.93-26.84,58.65-41.11,1.27-3.17,2.1-5.77,2.64-7.38a30.64,30.64,0,0,0,1-4.3Z"/></clipPath><clipPath id="clip-path-37"><path class="cls-1" d="M-1375.41,229.43c0,22.25-40.62,22.85-58.33,22.06h-10c-17.7.79-58.33.18-58.33-22.06h-11.76c.21,17.55,1.68,36.45,12.85,50.68,11.91,15.18,33.31,25.28,51.57,30.12a44.27,44.27,0,0,0,10.7,1.71,44.28,44.28,0,0,0,10.7-1.71c18.25-4.84,39.66-14.95,51.57-30.12,11.17-14.23,12.63-33.13,12.84-50.68h-11.76Z"/></clipPath><clipPath id="clip-path-38"><path class="cls-1" d="M-1439.16,294.94a34.68,34.68,0,0,0,34.68-34.68h-69.37a34.68,34.68,0,0,0,34.68,34.68"/></clipPath><clipPath id="clip-path-39"><path class="cls-1" d="M-1334.9,303.29l-9.58,22.44a74,74,0,0,0-29.33-7.51,74.56,74.56,0,0,1,70.6,74.36,74.5,74.5,0,0,1-37.88,64.82l8,23.57a99,99,0,0,0,54.44-88.39,99,99,0,0,0-56.22-89.29"/></clipPath><clipPath id="clip-path-40"><path class="cls-1" d="M-1461.77,228.11a1.7,1.7,0,0,0-1.7-1.7,1.7,1.7,0,0,0-1.7,1.7,1.7,1.7,0,0,0,1.7,1.7,1.7,1.7,0,0,0,1.7-1.7"/></clipPath><clipPath id="clip-path-41"><path class="cls-1" d="M-1475.39,222.66a1.7,1.7,0,0,0-1.7-1.7,1.7,1.7,0,0,0-1.7,1.7,1.7,1.7,0,0,0,1.7,1.7,1.7,1.7,0,0,0,1.7-1.7"/></clipPath><clipPath id="clip-path-42"><path class="cls-1" d="M-1450.87,222.66a1.7,1.7,0,0,0-1.7-1.7,1.7,1.7,0,0,0-1.7,1.7,1.7,1.7,0,0,0,1.7,1.7,1.7,1.7,0,0,0,1.7-1.7"/></clipPath><clipPath id="clip-path-43"><path class="cls-1" d="M-1472.67,230.84a1.7,1.7,0,0,0-1.7-1.7,1.7,1.7,0,0,0-1.7,1.7,1.7,1.7,0,0,0,1.7,1.7,1.7,1.7,0,0,0,1.7-1.7"/></clipPath><clipPath id="clip-path-44"><path class="cls-1" d="M-1480.84,236.29a1.7,1.7,0,0,0-1.7-1.7,1.7,1.7,0,0,0-1.7,1.7,1.7,1.7,0,0,0,1.7,1.7,1.7,1.7,0,0,0,1.7-1.7"/></clipPath><clipPath id="clip-path-45"><path class="cls-1" d="M-1456.32,236.29a1.7,1.7,0,0,0-1.7-1.7,1.7,1.7,0,0,0-1.7,1.7,1.7,1.7,0,0,0,1.7,1.7,1.7,1.7,0,0,0,1.7-1.7"/></clipPath><clipPath id="clip-path-46"><path class="cls-1" d="M-1410,228.11a1.7,1.7,0,0,1,1.7-1.7,1.7,1.7,0,0,1,1.7,1.7,1.7,1.7,0,0,1-1.7,1.7,1.7,1.7,0,0,1-1.7-1.7"/></clipPath><clipPath id="clip-path-47"><path class="cls-1" d="M-1396.42,222.66a1.7,1.7,0,0,1,1.7-1.7,1.7,1.7,0,0,1,1.7,1.7,1.7,1.7,0,0,1-1.7,1.7,1.7,1.7,0,0,1-1.7-1.7"/></clipPath><clipPath id="clip-path-48"><path class="cls-1" d="M-1420.94,222.66a1.7,1.7,0,0,1,1.7-1.7,1.7,1.7,0,0,1,1.7,1.7,1.7,1.7,0,0,1-1.7,1.7,1.7,1.7,0,0,1-1.7-1.7"/></clipPath><clipPath id="clip-path-49"><path class="cls-1" d="M-1399.14,230.84a1.7,1.7,0,0,1,1.7-1.7,1.7,1.7,0,0,1,1.7,1.7,1.7,1.7,0,0,1-1.7,1.7,1.7,1.7,0,0,1-1.7-1.7"/></clipPath><clipPath id="clip-path-50"><path class="cls-1" d="M-1391,236.29a1.7,1.7,0,0,1,1.7-1.7,1.7,1.7,0,0,1,1.7,1.7,1.7,1.7,0,0,1-1.7,1.7,1.7,1.7,0,0,1-1.7-1.7"/></clipPath><clipPath id="clip-path-51"><path class="cls-1" d="M-1415.49,236.29a1.7,1.7,0,0,1,1.7-1.7,1.7,1.7,0,0,1,1.7,1.7,1.7,1.7,0,0,1-1.7,1.7,1.7,1.7,0,0,1-1.7-1.7"/></clipPath><clipPath id="clip-path-52"><path class="cls-1" d="M-1524,495.18s-25.14,113.28,32.42,213.21h21.5s-98.59-175.19,30.39-175.19v-38Z"/></clipPath><clipPath id="clip-path-53"><path class="cls-1" d="M-1355.34,495.18s25.14,113.28-32.42,213.21h-21.5s98.59-175.19-30.39-175.19v-38Z"/></clipPath><clipPath id="clip-path-54"><path class="cls-1" d="M-1464.1,711.33a7.81,7.81,0,0,0-6.11-2.94h-21.35s-13.72,6.18-21-1.81a10.73,10.73,0,0,0-8.4-4,10.75,10.75,0,0,0-10.75,10.75A10.75,10.75,0,0,0-1521,724h50.76a7.83,7.83,0,0,0,7.83-7.83,7.8,7.8,0,0,0-1.71-4.89"/></clipPath><clipPath id="clip-path-55"><path class="cls-1" d="M-1415.21,711.33a7.81,7.81,0,0,1,6.11-2.94h21.35s13.72,6.18,21-1.81a10.73,10.73,0,0,1,8.4-4,10.75,10.75,0,0,1,10.75,10.75A10.75,10.75,0,0,1-1358.34,724h-50.76a7.83,7.83,0,0,1-7.83-7.83,7.8,7.8,0,0,1,1.71-4.89"/></clipPath><clipPath id="clip-path-56"><path class="cls-1" d="M-1506.54,457.4h-31.39l-8,23.57c7,12,21.91,14.2,21.91,14.2l4.22-29H-1507a4.28,4.28,0,0,0,.45,0,4.43,4.43,0,0,0,4.42-4.42,4.42,4.42,0,0,0-4.42-4.42"/></clipPath><clipPath id="clip-path-57"><rect class="cls-2" x="-1290.87" y="119.27" width="95.11" height="186.11"/></clipPath><clipPath id="clip-path-58"><rect class="cls-2" x="-1199.81" y="119.27" width="95.09" height="186.16"/></clipPath><clipPath id="clip-path-59"><path class="cls-1" d="M-1117.44,491.63h-160.91s-24,108.09,30.93,203.44h20.52s-94.08-167.16,29-167.16,29,167.16,29,167.16h20.52c54.92-95.35,30.93-203.44,30.93-203.44"/></clipPath><clipPath id="clip-path-60"><path class="cls-1" d="M-1278.34,491.63s-24,108.09,30.93,203.44h20.52s-94.08-167.16,29-167.16V491.63Z"/></clipPath><clipPath id="clip-path-61"><path class="cls-1" d="M-1117.44,491.63s24,108.09-30.93,203.44h-20.52s94.08-167.16-29-167.16V491.63Z"/></clipPath><clipPath id="clip-path-62"><path class="cls-1" d="M-1221.21,697.88a7.45,7.45,0,0,0-5.83-2.81h-20.37s-13.09,5.9-20-1.73a10.24,10.24,0,0,0-8-3.85,10.26,10.26,0,0,0-10.26,10.26A10.26,10.26,0,0,0-1275.47,710H-1227a7.47,7.47,0,0,0,7.47-7.47,7.44,7.44,0,0,0-1.63-4.66"/></clipPath><clipPath id="clip-path-63"><path class="cls-1" d="M-1174.56,697.88a7.46,7.46,0,0,1,5.83-2.81h20.37s13.09,5.9,20-1.73a10.24,10.24,0,0,1,8-3.85A10.26,10.26,0,0,1-1110,699.75,10.26,10.26,0,0,1-1120.3,710h-48.43a7.47,7.47,0,0,1-7.47-7.47,7.44,7.44,0,0,1,1.63-4.66"/></clipPath><clipPath id="clip-path-64"><path class="cls-1" d="M-1104.71,212.35a93.08,93.08,0,0,0-93.08-93.08c-.68,0-1.34,0-2,.05l-23.77,78.35,23.77,107.71c.67,0,1.34.05,2,.05a93.08,93.08,0,0,0,93.08-93.08"/></clipPath><clipPath id="clip-path-65"><path class="cls-1" d="M-1289.88,226s4.61,55.57-28.41,63c0,0,30.69,44.28,100.11,20.08l-10-46.77Z"/></clipPath><clipPath id="clip-path-66"><path class="cls-1" d="M-1105.83,226s-4.61,55.57,28.41,63c0,0-30.69,44.28-100.11,20.08l10-46.77Z"/></clipPath><clipPath id="clip-path-67"><path class="cls-1" d="M-1350.67,384.1a95.37,95.37,0,0,0-.52,9.88,94.19,94.19,0,0,0,51.82,84.13l7.57-22.44A70.91,70.91,0,0,1-1327.85,394a71.15,71.15,0,0,1,.7-9.88Z"/></clipPath><clipPath id="clip-path-68"><path class="cls-1" d="M-1298.22,450.73c.88-4.94-2.11-9.56-4.59-12.11-3.12-3.21-5.85-6.58-12.9-5.68-4.15,6.11-10.51,12.42-16.67,17.63-.26,4.31-2,12.4.76,15.17s16.44,2.47,16.44,2.47Z"/></clipPath><clipPath id="clip-path-69"><path class="cls-1" d="M-1231.73,303.2l-4.79,23a71.19,71.19,0,0,1,40.38,31.5l28.27,5.69a94.42,94.42,0,0,0-63.85-60.15"/></clipPath><clipPath id="clip-path-70"><path class="cls-1" d="M-1257,299.77a94.22,94.22,0,0,0-93.69,84.33h23.53a71,71,0,0,1,70.17-61,70.57,70.57,0,0,1,20.45,3l4.79-23a94.23,94.23,0,0,0-25.25-3.44"/></clipPath><clipPath id="clip-path-71"><path class="cls-1" d="M-1198.27,314.15l36.66-20.63s36.31,129.49,44.06,198.11h-80.72Z"/></clipPath><clipPath id="clip-path-72"><path class="cls-1" d="M-1189.36,325.71a94.05,94.05,0,0,0-16,25.34l18.77,16.7a70.45,70.45,0,0,1,15-26.94l.48-.51-21.22-3.75Z"/></clipPath><clipPath id="clip-path-73"><path class="cls-1" d="M-1073.34,302.78c-19.73-4.74-38.71-11.11-59.31-8A93.82,93.82,0,0,0-1189,325.3l-.35.41-2.95,10.84,21.22,3.75a71.36,71.36,0,0,1,55.94-23.14c23.29,1.12,43.6,12.57,67.64,9a94.26,94.26,0,0,0,26.76-8.21l-10.86-20.76a71.38,71.38,0,0,1-41.73,5.63"/></clipPath><clipPath id="clip-path-74"><path class="cls-1" d="M-1197.79,314.15l-36.66-20.63s-36.31,129.49-44.06,198.11h80.72Z"/></clipPath><clipPath id="clip-path-75"><path class="cls-1" d="M-1226.42,309.08h6.5l-8.26-12-20.1,14.29,23.34,14.37-3.24,23.67,30.38,80v-88c-15.83-3.46-28.63-32.22-28.63-32.22"/></clipPath><clipPath id="clip-path-76"><path class="cls-1" d="M-1169.16,309.08h-6.5l8.26-12,20.1,14.29-23.34,14.37,3.24,23.67-30.38,80v-88c15.83-3.46,28.63-32.22,28.63-32.22"/></clipPath><clipPath id="clip-path-77"><path class="cls-1" d="M-1197.79,309.08h-28.63s12.79,28.76,28.63,32.22c15.83-3.46,28.63-32.22,28.63-32.22Z"/></clipPath><clipPath id="clip-path-78"><path class="cls-1" d="M-1197.79,289l-28.63,20.08s15.07,19.58,28.63,19.58c4.16,0,18.69-6.29,28.63-19.58Z"/></clipPath><clipPath id="clip-path-79"><path class="cls-1" d="M-1260.25,229.63a12.82,12.82,0,0,0-18.14,0,12.82,12.82,0,0,0,0,18.13,12.82,12.82,0,0,0,18.14,0,12.82,12.82,0,0,0,0-18.13"/></clipPath><clipPath id="clip-path-80"><path class="cls-1" d="M-1117.2,229.63a12.82,12.82,0,0,0-18.13,0,12.82,12.82,0,0,0,0,18.13,12.82,12.82,0,0,0,18.13,0,12.82,12.82,0,0,0,0-18.13"/></clipPath><clipPath id="clip-path-81"><path class="cls-1" d="M-1183.27,314.17c19.84-6.85,40.47-16.92,50-35.63,6.58-12.93,6.82-28,7-42.54.1-10.44.19-21.07-1.39-31.34a76.32,76.32,0,0,0-3.65-14.62c-6.53-17.94-21.33-32.53-39.1-39.51a73.08,73.08,0,0,0-27.34-4.92l-12.7,110.59,12.7,61c.32,0,.64,0,1,0,4.65-.11,9.17-1.56,13.57-3.08"/></clipPath><clipPath id="clip-path-82"><path class="cls-1" d="M-1226,151.35c-13.3,5.44-25.23,14.74-32.53,27.12-9.86,16.73-10.51,37.15-10.43,56.57.07,17.69.84,37.36,12.25,51.9s31.71,24.06,49.08,28.67a42.22,42.22,0,0,0,10.19,1.63l-5.19-62.42,15.18-5.19-10-104a77.62,77.62,0,0,0-28.56,5.72"/></clipPath><clipPath id="clip-path-83"><path class="cls-1" d="M-1218.18,220.56a5.39,5.39,0,0,0-5.39-5.39,5.39,5.39,0,0,0-5.39,5.39,5.39,5.39,0,0,0,5.39,5.39,5.39,5.39,0,0,0,5.39-5.39"/></clipPath><clipPath id="clip-path-84"><path class="cls-1" d="M-1164.42,220.56a5.39,5.39,0,0,0-5.39-5.39,5.39,5.39,0,0,0-5.39,5.39,5.39,5.39,0,0,0,5.39,5.39,5.39,5.39,0,0,0,5.39-5.39"/></clipPath><clipPath id="clip-path-85"><path class="cls-1" d="M-1146.3,244.7c0,3.31-5.31,6-11.85,6s-11.86-2.68-11.86-6,5.31-6,11.86-6,11.85,2.68,11.85,6"/></clipPath><clipPath id="clip-path-86"><path class="cls-1" d="M-1246.7,244.7c0,3.31,5.31,6,11.85,6s11.85-2.68,11.85-6-5.31-6-11.85-6-11.85,2.68-11.85,6"/></clipPath><clipPath id="clip-path-87"><polygon class="cls-1" points="-1202.98 254.76 -1181.64 254.76 -1187.8 249.62 -1202.98 254.76"/></clipPath><clipPath id="clip-path-88"><path class="cls-1" d="M-1291.8,455.67h29.88v8.38h-12.59l-4,27.58s-14.22-2.05-20.86-13.52Z"/></clipPath><clipPath id="clip-path-89"><path class="cls-1" d="M-1261.92,455.67a4.21,4.21,0,0,1,4.21,4.21,4.21,4.21,0,0,1-4.21,4.21,4.21,4.21,0,0,1-4.21-4.21,4.21,4.21,0,0,1,4.21-4.21"/></clipPath><clipPath id="clip-path-90"><path class="cls-1" d="M-963.91,216a18.9,18.9,0,0,0,1-6.13,19,19,0,0,0-19-19,19,19,0,0,0-19,19,18.86,18.86,0,0,0,3.15,10.46h0l0,.07.1.14,6.73,10a70.61,70.61,0,0,1-17.83,49.55,70.23,70.23,0,0,1-23,17.08l10.86,20.76a93.87,93.87,0,0,0,29.6-22.33c16.89-19,23.68-41.53,22.72-65.06l4.54-14.5Z"/></clipPath><clipPath id="clip-path-91"><path class="cls-1" d="M-996.47,170.35a4.32,4.32,0,0,0-4.32,4.32v40.41h8.64V174.68a4.32,4.32,0,0,0-4.32-4.32"/></clipPath><clipPath id="clip-path-92"><path class="cls-1" d="M-975.49,205.64h-26.34a1.56,1.56,0,0,0-1.54,1.22,22.63,22.63,0,0,0-.47,4.53,26.41,26.41,0,0,0,1.17,7.79c1.64,5.23,9.45,2.9,9.55-2.59a1.56,1.56,0,0,1,1.56-1.53h16V215h0c2.88,0,5.21-1.77,5.21-4.65s-2.33-4.7-5.21-4.7"/></clipPath><clipPath id="clip-path-93"><path class="cls-1" d="M-1197.79,301a33,33,0,0,0,33-33h-66a33,33,0,0,0,33,33"/></clipPath><clipPath id="clip-path-94"><path class="cls-1" d="M-1196.78,181.88s-23.12,30.46-87.65,48.64c0,0-15.56-103.17,87.65-92.52Z"/></clipPath><clipPath id="clip-path-95"><path class="cls-1" d="M-1198.8,181.88s23.12,30.46,87.65,48.64c0,0,15.56-104.45-87.65-93.8Z"/></clipPath><clipPath id="clip-path-96"><polygon class="cls-1" points="472.17 632.1 472.17 702.74 961.54 985.28 1450.91 702.74 1450.91 632.1 961.54 349.56 472.17 632.1"/></clipPath><clipPath id="clip-path-97"><rect class="cls-2" x="-2769.04" y="-3714.62" width="7448.38" height="6697.72"/></clipPath><clipPath id="clip-path-98"><polygon class="cls-1" points="961.54 985.28 472.17 702.74 472.17 632.1 961.54 914.64 961.54 985.28"/></clipPath><clipPath id="clip-path-100"><polygon class="cls-1" points="1206.22 985.28 1450.91 985.28 1450.91 632.1 961.54 632.1 961.54 985.28 1206.22 985.28"/></clipPath><clipPath id="clip-path-102"><rect class="cls-2" x="955.15" y="626.39" width="500.44" height="360.78"/></clipPath><clipPath id="clip-path-103"><polygon class="cls-1" points="960.63 984.56 1450 702.02 1450 631.39 960.63 913.93 960.63 984.56"/></clipPath><clipPath id="clip-path-104"><rect class="cls-2" x="960.97" y="626.39" width="494.62" height="360.78"/></clipPath><clipPath id="clip-path-105"><path class="cls-1" d="M922.27,701.84,757.3,797l94.05,54.3,201.18-116a53.29,53.29,0,0,0-2.91-95.35L945.44,579.84l-94.05,54.3,70.37,40.6a16.17,16.17,0,0,1,.51,27.1Z"/></clipPath><clipPath id="clip-path-107"><polygon class="cls-1" points="807.3 827.09 863.45 794.28 853.94 789.32 798.03 821.7 807.3 827.09"/></clipPath><clipPath id="clip-path-109"><polygon class="cls-1" points="912.05 763.08 968.19 730.27 958.68 725.31 902.77 757.69 912.05 763.08"/></clipPath><clipPath id="clip-path-111"><path class="cls-1" d="M999.33,710.71s19.45-13.41,26-17.76,5.11-14.73-1.54-19.13-22.3-14.76-23.14-14.35-8.4,5.49-8.4,5.49,18.78,11.38,21.21,12.79,9.57,6,2.88,10.14-26.29,17.43-26.29,17.43Z"/></clipPath><clipPath id="clip-path-113"><polyline class="cls-1" points="953.1 640.88 896.96 608.07 906.46 603.11 962.37 635.49"/></clipPath><clipPath id="clip-path-115"><polygon class="cls-1" points="943.34 525.64 943.25 273.6 864.31 228.03 864.46 480.04 943.34 525.64"/></clipPath><clipPath id="clip-path-117"><polygon class="cls-1" points="1022.18 228.03 943.25 273.6 943.34 525.64 1022.33 480.04 1022.18 228.03"/></clipPath><clipPath id="clip-path-119"><polygon class="cls-1" points="864.31 228.03 943.25 182.46 1022.18 228.03 943.25 273.6 864.31 228.03"/></clipPath><clipPath id="clip-path-121"><polygon class="cls-1" points="903.7 227.99 903.7 159.59 943.24 182.42 943.24 250.81 903.7 227.99"/></clipPath><clipPath id="clip-path-123"><polygon class="cls-1" points="982.7 159.59 943.24 182.42 943.24 250.81 982.7 227.99 982.7 159.59"/></clipPath><clipPath id="clip-path-125"><polygon class="cls-1" points="943.24 182.42 982.7 159.59 943.24 136.76 903.7 159.59 943.24 182.42"/></clipPath><clipPath id="clip-path-127"><polygon class="cls-1" points="932.79 160.24 932.79 72.56 943.21 78.58 943.21 166.25 932.79 160.24"/></clipPath><clipPath id="clip-path-129"><polygon class="cls-1" points="953.61 72.56 943.21 78.58 943.21 166.25 953.61 160.24 953.61 72.56"/></clipPath><clipPath id="clip-path-131"><rect class="cls-2" x="932.79" y="66.54" width="20.82" height="12.03"/></clipPath><clipPath id="clip-path-133"><rect class="cls-2" x="931.87" y="61.94" width="23.28" height="17.46"/></clipPath><clipPath id="clip-path-134"><polygon class="cls-1" points="943.21 78.58 953.61 72.56 943.21 66.54 932.79 72.56 943.21 78.58"/></clipPath><clipPath id="clip-path-136"><polygon class="cls-1" points="1064.45 479.23 1064.39 308.77 1010.48 277.95 1010.58 448.39 1064.45 479.23"/></clipPath><clipPath id="clip-path-138"><polygon class="cls-1" points="1118.29 277.95 1064.39 308.77 1064.45 479.23 1118.39 448.39 1118.29 277.95"/></clipPath><clipPath id="clip-path-140"><polygon class="cls-1" points="1010.48 277.95 1064.39 247.13 1118.29 277.95 1064.39 308.77 1010.48 277.95"/></clipPath><clipPath id="clip-path-142"><polygon class="cls-1" points="841.28 491.15 841.22 326.38 789.24 296.58 789.33 461.34 841.28 491.15"/></clipPath><clipPath id="clip-path-144"><polygon class="cls-1" points="893.2 296.58 841.22 326.38 841.28 491.15 893.3 461.34 893.2 296.58"/></clipPath><clipPath id="clip-path-146"><polygon class="cls-1" points="789.24 296.58 841.22 266.79 893.2 296.58 841.22 326.38 789.24 296.58"/></clipPath><clipPath id="clip-path-148"><path class="cls-1" d="M1349.91,549.57c-26.79-16.65-113.34-38.16-234.91-38.65l-63.92-75.18a71.3,71.3,0,0,0-54-25.12L697,409.4a57,57,0,0,0-40.4,16.54l-72.23,71.65A57.06,57.06,0,0,0,569.24,524l-10.6,41.67L772.13,666.38l598.9,2.44.33-80.61a45.23,45.23,0,0,0-21.45-38.64"/></clipPath><clipPath id="clip-path-150"><path class="cls-1" d="M1051.08,435.73a71.29,71.29,0,0,0-54-25.12L697,409.39a57,57,0,0,0-40.4,16.54l-69.12,68.57,37.29.15A356.67,356.67,0,0,1,664.1,497l108.66,12.52L1115,510.91Z"/></clipPath><clipPath id="clip-path-152"><path class="cls-1" d="M1028.47,510.56l-236.76-1a341.94,341.94,0,0,1-37.78-2.25l-74.18-8.55a19.55,19.55,0,0,1-13-31.69l26.43-32.77a28.55,28.55,0,0,1,22.31-10.61l243.87,1a28.51,28.51,0,0,1,21.87,10.35L1034,498.89a7.13,7.13,0,0,1-5.52,11.67"/></clipPath><clipPath id="clip-path-154"><path class="cls-1" d="M1371.32,597.51c.12-28.52-42.55-57.21-242.18-58L573,537.23a14.26,14.26,0,0,0-14.32,14.2l-.3,71.3,270.82,29.62,541.86,2.2Z"/></clipPath><clipPath id="clip-path-156"><path class="cls-1" d="M1371.14,640.29,702.5,637.57,575.81,608.88a14.26,14.26,0,1,0-6.29,27.81l128.22,29a14,14,0,0,0,3.09.36l670.2,2.73a14.26,14.26,0,0,0,.12-28.52"/></clipPath><clipPath id="clip-path-158"><path class="cls-1" d="M679.79,579.25a65.36,65.36,0,1,1-65.62,65.09,65.36,65.36,0,0,1,65.62-65.09"/></clipPath><clipPath id="clip-path-160"><path class="cls-1" d="M679.73,594.7a49.91,49.91,0,1,0,49.7,50.11,50,50,0,0,0-49.7-50.11M679.2,723a78.43,78.43,0,1,1,78.74-78.11A78.51,78.51,0,0,1,679.2,723"/></clipPath><clipPath id="clip-path-162"><path class="cls-1" d="M679.64,616.09A28.52,28.52,0,1,1,651,644.49a28.52,28.52,0,0,1,28.63-28.4"/></clipPath><clipPath id="clip-path-164"><path class="cls-1" d="M1128.84,610.79,786.61,609.4a14.26,14.26,0,0,1,.12-28.52L1129,582.27a14.26,14.26,0,0,1-.12,28.52"/></clipPath><clipPath id="clip-path-166"><path class="cls-1" d="M1371.26,611.78l-14.26-.06a14.26,14.26,0,0,1,.12-28.52l14.26.06a14.26,14.26,0,0,1-.12,28.52"/></clipPath><clipPath id="clip-path-168"><rect class="cls-2" x="844.23" y="452.94" width="85.56" height="28.52" transform="translate(416.22 1352.32) rotate(-89.77)"/></clipPath><clipPath id="clip-path-170"><path class="cls-1" d="M1356.18,554.67l-13.21-.05a14.26,14.26,0,0,0-.12,28.52l27.88.11a44.67,44.67,0,0,0-14.55-28.58"/></clipPath><clipPath id="clip-path-172"><path class="cls-1" d="M1051.08,435.73a71.26,71.26,0,0,0-11.32-10.68l-23.27-.1a7.13,7.13,0,0,0-5.52,11.67l52.75,63.82a28.52,28.52,0,0,0,21.87,10.35l29.42.12Z"/></clipPath><clipPath id="clip-path-174"><polygon class="cls-1" points="745.27 506.35 773.11 423.97 744.59 423.85 705.25 501.74 745.27 506.35"/></clipPath><clipPath id="clip-path-176"><path class="cls-1" d="M569.24,524l-3.36,13.18,35.64.15a14.26,14.26,0,1,0,.12-28.52l-25.94-.11a56.9,56.9,0,0,0-6.46,15.3"/></clipPath><clipPath id="clip-path-178"><path class="cls-1" d="M1235.91,581.51a65.36,65.36,0,1,1-65.62,65.09,65.36,65.36,0,0,1,65.62-65.09"/></clipPath><clipPath id="clip-path-180"><path class="cls-1" d="M1235.84,597a49.91,49.91,0,1,0,49.7,50.11,50,50,0,0,0-49.7-50.11m-.52,128.34a78.43,78.43,0,1,1,78.74-78.11,78.51,78.51,0,0,1-78.74,78.11"/></clipPath><clipPath id="clip-path-182"><path class="cls-1" d="M1235.76,618.35a28.52,28.52,0,1,1-28.63,28.4,28.52,28.52,0,0,1,28.63-28.4"/></clipPath></defs><title>ilustracoes_caixa_am5SVG</title><g class="cls-98"><g class="cls-99"><rect class="cls-100" x="443.07" y="320.47" width="1036.93" height="693.9"/></g></g><g class="cls-101"><g class="cls-99"><rect class="cls-102" x="443.07" y="603.01" width="547.56" height="411.36"/></g></g><g class="cls-103"><g class="cls-99"><g class="cls-104"><g class="cls-105"><g class="cls-106"><g class="cls-107"><rect class="cls-108" x="931.54" y="602.29" width="547.56" height="411.36"/></g></g></g></g></g></g><g class="cls-109"><g class="cls-99"><rect class="cls-110" x="728.2" y="550.74" width="381.54" height="329.66"/></g></g><g class="cls-111"><g class="cls-99"><rect class="cls-112" x="768.94" y="760.23" width="123.61" height="95.95"/></g></g><g class="cls-113"><g class="cls-99"><rect class="cls-112" x="873.68" y="696.22" width="123.61" height="95.95"/></g></g><g class="cls-114"><g class="cls-99"><rect class="cls-112" x="960.97" y="630.36" width="97.73" height="109.44"/></g></g><g class="cls-115"><g class="cls-99"><rect class="cls-112" x="867.86" y="574.02" width="123.61" height="95.95"/></g></g><g class="cls-116"><g class="cls-99"><rect class="cls-102" x="835.22" y="198.93" width="137.22" height="355.8"/></g></g><g class="cls-117"><g class="cls-99"><rect class="cls-108" x="914.15" y="198.93" width="137.27" height="355.8"/></g></g><g class="cls-118"><g class="cls-99"><rect class="cls-100" x="835.22" y="153.36" width="216.06" height="149.34"/></g></g><g class="cls-119"><g class="cls-99"><rect class="cls-102" x="874.6" y="130.5" width="97.73" height="149.41"/></g></g><g class="cls-120"><g class="cls-99"><rect class="cls-108" x="914.14" y="130.5" width="97.65" height="149.41"/></g></g><g class="cls-121"><g class="cls-99"><rect class="cls-100" x="874.6" y="107.67" width="137.19" height="103.85"/></g></g><g class="cls-122"><g class="cls-99"><rect class="cls-102" x="903.69" y="43.46" width="68.61" height="151.89"/></g></g><g class="cls-123"><g class="cls-99"><rect class="cls-108" x="914.11" y="43.46" width="68.59" height="151.89"/></g></g><g class="cls-124"><g class="cls-99"><g class="cls-104"><g class="cls-125"><g class="cls-126"><g class="cls-125"><rect class="cls-100" x="903.69" y="37.45" width="79.01" height="70.22"/></g></g></g></g></g></g><g class="cls-127"><g class="cls-99"><rect class="cls-102" x="981.38" y="248.85" width="112.16" height="259.47"/></g></g><g class="cls-128"><g class="cls-99"><rect class="cls-108" x="1035.29" y="248.85" width="112.2" height="259.47"/></g></g><g class="cls-129"><g class="cls-99"><rect class="cls-100" x="981.38" y="218.03" width="166.01" height="119.84"/></g></g><g class="cls-130"><g class="cls-99"><rect class="cls-102" x="760.14" y="267.48" width="110.24" height="252.76"/></g></g><g class="cls-131"><g class="cls-99"><rect class="cls-108" x="812.12" y="267.48" width="110.27" height="252.76"/></g></g><g class="cls-132"><g class="cls-99"><rect class="cls-100" x="760.14" y="237.69" width="162.16" height="117.78"/></g></g><g class="cls-133"><g class="cls-99"><rect class="cls-134" x="690.86" y="193.91" width="579.62" height="771.12" transform="translate(-93.59 958.23) rotate(-50)"/></g></g><g class="cls-135"><g class="cls-99"><rect class="cls-136" x="655.73" y="259.58" width="402.23" height="472.85" transform="translate(-73.88 833.57) rotate(-50)"/></g></g><g class="cls-137"><g class="cls-99"><rect class="cls-138" x="698.83" y="302.75" width="304.55" height="366.6" transform="translate(-68.31 825.61) rotate(-50)"/></g></g><g class="cls-139"><g class="cls-99"><rect class="cls-136" x="658.32" y="227.29" width="609.94" height="750.1" transform="translate(-117.32 953.08) rotate(-50)"/></g></g><g class="cls-140"><g class="cls-99"><rect class="cls-141" x="684.08" y="279.3" width="575.59" height="718.75" transform="translate(-142.08 972.64) rotate(-50)"/></g></g><g class="cls-142"><g class="cls-99"><rect class="cls-143" x="585.07" y="550.15" width="188.91" height="188.91" transform="translate(-251.06 750.8) rotate(-50)"/></g></g><g class="cls-144"><g class="cls-99"><rect class="cls-145" x="572.03" y="537.12" width="214.98" height="214.98" transform="translate(-251.07 750.81) rotate(-50)"/></g></g><g class="cls-146"><g class="cls-99"><rect class="cls-147" x="621.91" y="586.99" width="115.23" height="115.23" transform="translate(-251.06 750.8) rotate(-50)"/></g></g><g class="cls-148"><g class="cls-99"><rect class="cls-141" x="804.97" y="420.95" width="305.62" height="349.77" transform="translate(-114.3 946.54) rotate(-50)"/></g></g><g class="cls-149"><g class="cls-99"><rect class="cls-141" x="1316.27" y="548.65" width="95.83" height="97.67" transform="translate(29.6 1258.46) rotate(-50)"/></g></g><g class="cls-150"><g class="cls-99"><rect class="cls-145" x="815.91" y="399.78" width="142.2" height="134.84" transform="translate(-41.05 846.38) rotate(-50)"/></g></g><g class="cls-151"><g class="cls-99"><rect class="cls-143" x="1304.87" y="520.64" width="91.87" height="103" transform="translate(44.24 1239.16) rotate(-50)"/></g></g><g class="cls-152"><g class="cls-99"><rect class="cls-138" x="1010.84" y="375.37" width="101.12" height="191.48" transform="translate(18.26 981.36) rotate(-50)"/></g></g><g class="cls-153"><g class="cls-99"><rect class="cls-145" x="662.96" y="410.74" width="161.39" height="111.74" transform="translate(-91.8 736.36) rotate(-50)"/></g></g><g class="cls-154"><g class="cls-99"><rect class="cls-155" x="536.54" y="475.04" width="106.21" height="101.51" transform="translate(-192.15 639.52) rotate(-50)"/></g></g><g class="cls-156"><g class="cls-99"><rect class="cls-143" x="1141.19" y="552.41" width="188.91" height="188.91" transform="translate(-54.15 1177.62) rotate(-50)"/></g></g><g class="cls-157"><g class="cls-99"><rect class="cls-145" x="1128.15" y="539.38" width="214.98" height="214.98" transform="translate(-54.15 1177.62) rotate(-50)"/></g></g><g class="cls-158"><g class="cls-99"><rect class="cls-147" x="1178.02" y="589.25" width="115.23" height="115.23" transform="translate(-54.14 1177.62) rotate(-50)"/></g></g></svg>