<svg id="Layer_1" data-name="Layer 1" xmlns="http://www.w3.org/2000/svg" viewBox="0 0 1920 1080"><defs><style>.cls-1{fill:#3c9344;}.cls-2{fill:#347534;}.cls-3{fill:#00652e;}.cls-4{fill:#775020;}.cls-5{fill:#99bf19;}.cls-6{fill:#733791;}.cls-7{fill:#500778;}.cls-8{fill:#ff9141;}.cls-9{fill:#00a499;}.cls-10{fill:#64c8c3;}.cls-11{fill:#420768;}.cls-12{fill:#ff6d00;}.cls-13{fill:#e65a00;}</style></defs><title>ilustracoes_caixa_am5SVG</title><polygon class="cls-1" points="960 256.5 469.09 539.93 469.09 610.79 960 894.21 1450.91 610.79 1450.91 539.93 960 256.5"/><polygon class="cls-2" points="960 894.21 469.09 610.79 469.09 539.93 960 823.36 960 894.21"/><polygon class="cls-3" points="960 894.21 1450.91 610.79 1450.91 539.93 960 823.36 960 894.21"/><rect class="cls-4" x="598.16" y="423.62" width="11.63" height="145.59"/><circle class="cls-5" cx="603.97" cy="423.62" r="69.06"/><path class="cls-3" d="M1337,444.13a76.33,76.33,0,0,0-76.33,76.33h152.66A76.33,76.33,0,0,0,1337,444.13Z"/><path class="cls-5" d="M1291.05,487.45a42,42,0,0,0-42,42h84A42,42,0,0,0,1291.05,487.45Z"/><polygon class="cls-6" points="975.46 688.44 713.87 537.41 713.87 310.86 975.46 461.89 975.46 688.44"/><polygon class="cls-7" points="1082.85 297.85 975.46 461.87 975.46 688.42 1171.66 575.14 1171.66 348.62 1082.85 297.85"/><polygon class="cls-8" points="696.03 337.41 811.91 140.92 1082.85 297.85 957.62 488.44 696.03 337.41"/><polygon class="cls-9" points="1040.82 650.68 1040.82 499.63 1106.26 461.89 1106.26 612.9 1040.82 650.68"/><polygon class="cls-10" points="877.36 480.63 877.36 556.15 942.76 593.9 942.76 518.39 877.36 480.63"/><polygon class="cls-10" points="746.81 405.25 746.81 480.77 812.21 518.53 812.21 443.01 746.81 405.25"/><polygon class="cls-6" points="889.44 369.61 889.44 293.66 841.81 266.16 841.81 342.11 889.44 369.61"/><polygon class="cls-7" points="937.07 266.62 889.44 293.66 889.44 369.61 937.07 297.2 937.07 266.62"/><polygon class="cls-11" points="841.81 266.16 889.44 293.66 937.07 266.62 889.32 238.73 841.81 266.16"/><polygon class="cls-8" points="1106.26 612.9 1040.82 650.68 1171.66 726.2 1215.59 675.92 1106.26 612.9"/><polygon class="cls-12" points="1150.16 784.51 1150.16 713.7 1215.59 675.92 1215.59 746.77 1150.16 784.51"/><path class="cls-6" d="M1059.26,203.67a4.23,4.23,0,0,1-5.61-2.06l-37.12-80.11a4.23,4.23,0,0,1,7.67-3.55l37.12,80.11A4.23,4.23,0,0,1,1059.26,203.67Z"/><path class="cls-13" d="M1208.38,509.67l-12.06,5.59a14.42,14.42,0,0,1-19.35-7.46l-77.41-182.86a14.42,14.42,0,0,1,7.22-18.71h0a14.42,14.42,0,0,1,18.94,6.59l89.47,177.27A14.42,14.42,0,0,1,1208.38,509.67Z"/><path class="cls-8" d="M1177,507.79c.07.17.16.32.23.48l38.2-17.7c-.07-.16-.13-.33-.22-.49l-7-13.87-37.27,17.27Z"/><polygon class="cls-8" points="1164.66 478.68 1200.95 461.86 1193.71 447.51 1158.39 463.88 1164.66 478.68"/><polygon class="cls-8" points="1152.13 449.08 1186.47 433.17 1179.23 418.82 1145.86 434.28 1152.13 449.08"/><polygon class="cls-8" points="1139.59 419.48 1171.99 404.47 1164.75 390.12 1133.33 404.68 1139.59 419.48"/><polygon class="cls-8" points="1127.06 389.88 1157.5 375.77 1150.26 361.42 1120.8 375.08 1127.06 389.88"/><polygon class="cls-8" points="1135.78 332.73 1108.27 345.48 1114.53 360.28 1143.02 347.07 1135.78 332.73"/><path class="cls-6" d="M1092,521.66a4.23,4.23,0,0,1-5.85-2.7l-9.92-35.47a4.22,4.22,0,0,1,0-2.12l18.49-77.46-40.62-45a4.23,4.23,0,0,1-.87-4.18l17.26-51.22a4.23,4.23,0,1,1,8,2.7L1062,355.09l40.45,44.81a4.23,4.23,0,0,1,1,3.81l-18.76,78.56,9.62,34.42A4.23,4.23,0,0,1,1092,521.66Z"/><path class="cls-6" d="M1056.17,480.5a4.23,4.23,0,0,1-4.16-.34l-23.17-15.82a4.23,4.23,0,0,1-1.19-5.75l30.06-47.45-45.29-51.61a4.23,4.23,0,0,1,0-5.59l54.41-61.55a4.23,4.23,0,0,1,6.33,5.6l-51.94,58.76,44.92,51.19a4.23,4.23,0,0,1,.39,5L1037,459.66l19.8,13.52a4.23,4.23,0,0,1-.6,7.33Z"/><path class="cls-6" d="M1061.32,258.21a4.23,4.23,0,0,1-1.44.38l-56.7,4.48a4.23,4.23,0,0,1-4.45-3.24L983.9,197.37,924.57,202a4.23,4.23,0,0,1-2.55-.62l-9.48-5.86a4.23,4.23,0,1,1,4.44-7.19l8.31,5.13,61.56-4.83a4.23,4.23,0,0,1,4.44,3.24l14.83,62.46,53.09-4.19a4.23,4.23,0,0,1,2.11,8.05Z"/><path class="cls-6" d="M1280.71,434.22a4.23,4.23,0,0,1-5.27-1.47l-20-29.59-72.06-36.48a4.23,4.23,0,0,1-2.28-3.21l-8-59.83-47.94-19a4.23,4.23,0,0,1,3.12-7.86l50.24,19.94a4.23,4.23,0,0,1,2.63,3.37l8.07,60.08,71.05,36a4.22,4.22,0,0,1,1.59,1.4l20.65,30.5a4.23,4.23,0,0,1-1.73,6.21Z"/><path class="cls-6" d="M1272.48,380.27a4.23,4.23,0,0,1-6-4.28l2.49-23.84-54.72-7.61a4.23,4.23,0,0,1-3.6-3.56l-10-67.36-78.41,1.64a4.23,4.23,0,0,1-.18-8.45l82.13-1.72a4.23,4.23,0,0,1,4.27,3.61l10.1,67.92,55.63,7.74a4.23,4.23,0,0,1,3.62,4.62l-2.91,27.9A4.23,4.23,0,0,1,1272.48,380.27Z"/><path class="cls-6" d="M1099.55,240.5a4.23,4.23,0,0,1-4.78-6.81l37.52-37.79-38.07-51.7a4.23,4.23,0,0,1,.4-5.48l43.48-43.84,1.45-9.65a4.23,4.23,0,0,1,8.36,1.26l-1.66,11a4.23,4.23,0,0,1-1.18,2.35l-41.91,42.26,38.07,51.7a4.23,4.23,0,0,1-.4,5.48l-40.07,40.36A4.23,4.23,0,0,1,1099.55,240.5Z"/><path class="cls-12" d="M1048.69,261.27l32,69a33.82,33.82,0,0,0,44.9,16.46h0a33.82,33.82,0,0,0,16.46-44.9l-32-69a33.82,33.82,0,0,0-5-7.74L1046,252.47A33.82,33.82,0,0,0,1048.69,261.27Z"/><path class="cls-8" d="M1065.15,216.37h0a33.82,33.82,0,0,0-19.16,36.1l59.09-27.38A33.82,33.82,0,0,0,1065.15,216.37Z"/><path class="cls-10" d="M1098.62,223.28l219.6-20.76s21.66-.82,22.59,16.57c0,0,3.27,17.12-15.9,26L1258.16,276s-16.82,5.93-43.46-1.29-117.09-15.41-117.09-15.41-19.42-5.71-11.73-25.32C1085.87,234,1089.34,224.16,1098.62,223.28Z"/><path class="cls-10" d="M1049.92,245.85,892.12,400s-14.62,16-2,27.94c0,0,10.94,13.56,30.12,4.68L987,401.66s15.4-9,27.11-34,63.94-99.3,63.94-99.3,8.19-18.51-11.73-25.32C1066.33,243,1056.59,239.34,1049.92,245.85Z"/><circle class="cls-12" cx="1058.36" cy="201.72" r="29.59" transform="translate(13.28 463.68) rotate(-24.86)"/><path class="cls-13" d="M1051.38,173a19.61,19.61,0,0,0,32.5,13.77A29.6,29.6,0,0,0,1051.38,173Z"/><path class="cls-13" d="M1045.32,183.86a19.54,19.54,0,0,0-4.38-6.06,29.6,29.6,0,0,0-10.5,33.7,19.61,19.61,0,0,0,14.88-27.63Z"/></svg>