<svg id="Layer_1" data-name="Layer 1" xmlns="http://www.w3.org/2000/svg" viewBox="0 0 1920 1080"><defs><style>.cls-1{fill:#64c8c3;}.cls-2{fill:#41b9b4;}.cls-3{fill:#e65a00;}.cls-4{fill:#00a499;}.cls-5{fill:#fff;}.cls-6{fill:#ff6d00;}.cls-7{fill:#733791;}.cls-8{fill:#8c5fa5;}.cls-9{fill:#500778;}.cls-10{fill:#794199;}</style></defs><title>ilustracoes_caixa_am5SVG</title><polygon class="cls-1" points="960 256.5 469.09 539.93 469.09 610.79 960 894.21 1450.91 610.79 1450.91 539.93 960 256.5"/><polygon class="cls-2" points="960 894.21 469.09 610.79 469.09 539.93 960 823.36 960 894.21"/><path class="cls-3" d="M638.24,368.5c5.42-8.46,11-17.2,15.71-26.67,8.81-17.83,14-38.61,14.9-60.19,27.11,5.85,57.24-.65,88.78-19.42A257,257,0,0,0,814,216l-9-7.9c-.22.25-22.42,25.42-53.66,44-29.95,17.77-57.44,23.58-82.06,17.43.3-19.87-1.13-44.85-15.19-61.32a39.31,39.31,0,0,0-39.89-12.54c-9.86,2.81-16.56,9.8-17.92,18.69-1.71,11.2,4,29.65,41,53.9a95.72,95.72,0,0,0,19.82,10l0,1.15c-.67,20.56-5.42,40.33-13.74,57.16-4.38,8.87-9.81,17.33-15.05,25.51-6.66,10.38-13.54,21.11-18.71,33.19-14.14,33-19.43,80.63,8.13,115.33,6.76,8.51,14.26,16.52,21.52,24.28,17.06,18.23,33.17,35.45,40.62,58.72,7.79,24.34,2.34,44.74-9,62.81-6.84,10.94-15.83,21-25.33,30.62-5.29,5.34-10.58,10.9-15.54,16.64-15.64,18.08-27.94,37.83-26.05,57.3,1.27,13.13,8.9,24.52,22.66,33.88,9.11,6.19,20.42,10.61,34.58,13.51a154,154,0,0,0,31,3.12c23.28,0,47.22-5.15,71.49-15.41,4.88-2.06,9.75-4.34,14.62-6.79L765.56,782c-2.24,1-4.49,2-6.73,3-32.9,13.91-65,17.81-95.37,11.59-12.58-2.58-22.47-6.4-30.24-11.68-10.83-7.36-16.54-15.57-17.46-25.11-.91-9.38,1.47-23.38,24.76-50,3.87-4.42,8.3-9.18,13.41-14.34,9.91-10,19.63-20.95,27.17-33.09,12.63-20.36,19.11-44.09,10-72.45C682.85,564,665,545,647.84,526.62c-7.09-7.58-14.43-15.42-20.88-23.54-24.28-30.57-19.28-73.32-6.5-103.14C625.24,388.78,631.55,378.93,638.24,368.5Zm5.49-110.33c-35.51-23.31-36.28-38.08-35.68-42.06.88-5.73,6.23-8.08,9.35-9a23.59,23.59,0,0,1,6.42-.85,27.73,27.73,0,0,1,21.06,9.64c10.56,12.37,12.36,32.34,12.35,49.5A86.59,86.59,0,0,1,643.73,258.18Z"/><path class="cls-4" d="M1138,609.58c20.81-19.21,32.88-42,32.88-66.49,0-68.47-94.43-124-210.93-124s-210.93,55.51-210.93,124c0,24.47,12.06,47.28,32.88,66.49,37.43-26.13,103.18-43.46,178-43.46S1100.61,583.45,1138,609.58Z"/><path class="cls-5" d="M1138,609.58c-37.43-26.13-103.18-43.46-178-43.46s-140.61,17.33-178,43.46c37.43,34.56,103.18,57.49,178,57.49S1100.61,644.14,1138,609.58Z"/><path class="cls-6" d="M771.26,221,777,254.7a36.27,36.27,0,0,0,50.42,27.14L876.92,260a36.27,36.27,0,0,0,20.93-40.21h0a36.28,36.28,0,0,1,24.74-41.64c25.91-8.14,65-18.08,104.59-19.47a36.26,36.26,0,0,1,37,30.08l0,.23a36.27,36.27,0,0,0,31.22,29.81l50.06,6.29a36.27,36.27,0,0,0,40.44-41l-6.72-48A36,36,0,0,0,1166,112.74c-19.63-15.48-68.76-38.52-181.86-27-126.9,12.88-186.2,72.07-206.63,98.36a36.14,36.14,0,0,0-7.39,25.7l.85,8.69Q771,219.71,771.26,221Z"/><polygon class="cls-4" points="960 894.21 1450.91 610.79 1450.91 539.93 960 823.36 960 894.21"/><path class="cls-7" d="M1034.75,591.78a60.24,60.24,0,0,0-5.44-10c-2.4-4-5-7.86-7.72-11.57-4-5.53-8.29-10.71-12.47-15.41-15.61-17.59-33.13-37.42-37.81-61.23a49.69,49.69,0,0,1,4-31.24c5.83-12.65,16-23.68,26.11-34.14,43.25-44.79,62.95-117,39-175.91-15.21-37.41-48.2-60.77-86-71.92-24.8-7.32-57.08-20.58-52.16-52.15.39-2.53,1-5.56,1.77-8.9,0,0,28.23-77.92,92.61-43.26a69.79,69.79,0,0,0-4.19-6.3,34.61,34.61,0,0,0-14.68-8.68c-22-6.69-43.93,2.68-61.24,18.18a116.82,116.82,0,0,0-23.75,29.85c-9,14.69-16.36,32.9-12.68,50.08,3.19,14.89,14.64,29,40.43,39.41,90.77,36.59,80.25,90.75,80.25,90.75s15.77,58.08-99,138.74c-113.88,80-36.77,223.74-35.52,226.05,28.26,8.27,60.1,12.94,93.81,12.94a339.6,339.6,0,0,0,86.42-10.86,179.43,179.43,0,0,0-4.22-41.69A84.1,84.1,0,0,0,1034.75,591.78Z"/><path class="cls-7" d="M954,106.13c-1,1.74-2,3.51-2.85,5.32Q952.45,108.74,954,106.13Z"/><path class="cls-7" d="M1094,298.31q.24,4.43.22,8.88Q1094.21,302.74,1094,298.31Z"/><path class="cls-7" d="M1000.81,83.42l.07.17Z"/><path class="cls-7" d="M1001,84s0,0,0,.05S1001,84.08,1001,84Z"/><path class="cls-7" d="M1000.92,83.7l0,.13Z"/><path class="cls-7" d="M1094.2,307.19q0,5.93-.47,11.86Q1094.18,313.12,1094.2,307.19Z"/><path class="cls-7" d="M1001,83.91a.42.42,0,0,1,0,.09A.42.42,0,0,0,1001,83.91Z"/><path class="cls-7" d="M998,84.41l-2.07.21Z"/><path class="cls-7" d="M1022.51,514.75q1.06,2,2.2,4Q1023.56,516.77,1022.51,514.75Z"/><path class="cls-7" d="M1018.7,506.53q1.26,3.15,2.78,6.2Q1020,509.67,1018.7,506.53Z"/><path class="cls-7" d="M1017.14,502.29q.72,2.14,1.56,4.24Q1017.86,504.43,1017.14,502.29Z"/><path class="cls-7" d="M1061.94,566c2.56,3.3,5.06,6.76,7.43,10.33C1067,572.74,1064.5,569.29,1061.94,566Z"/><path class="cls-7" d="M1092.81,327.92q-.38,3-.87,5.9Q1092.43,330.88,1092.81,327.92Z"/><path class="cls-7" d="M1081.46,371.15q-1.67,4.16-3.54,8.24Q1079.79,375.32,1081.46,371.15Z"/><path class="cls-7" d="M1093.73,319q-.23,3-.56,5.92Q1093.5,322,1093.73,319Z"/><path class="cls-7" d="M1084.59,362.75q-1.46,4.24-3.13,8.41Q1083.13,367,1084.59,362.75Z"/><path class="cls-7" d="M998,78.38l.23.38Z"/><path class="cls-7" d="M997.59,77.66l.26.43Z"/><path class="cls-7" d="M1000.65,83.08l.09.2Z"/><path class="cls-7" d="M997.16,76.95l.28.46Z"/><path class="cls-7" d="M1000.21,82.2l.15.28Z"/><path class="cls-7" d="M999.89,81.62l.21.39Z"/><path class="cls-7" d="M999.51,80.93l.25.44Z"/><path class="cls-7" d="M1000.45,82.67l.12.24Z"/><path class="cls-7" d="M998.81,79.71l.21.36Z"/><path class="cls-7" d="M998.43,79.06l.21.35Z"/><path class="cls-7" d="M999.17,80.34l.21.37Z"/><path class="cls-7" d="M1078.33,646.14l.6-.66h0Z"/><path class="cls-7" d="M959,98.57a86.57,86.57,0,0,0-5,7.56A86.57,86.57,0,0,1,959,98.57Z"/><path class="cls-7" d="M1083.88,252.26a142.3,142.3,0,0,1,10.1,46.05,142.29,142.29,0,0,0-10.1-46.05c-15.21-37.41-48.2-60.77-86-71.92a164.71,164.71,0,0,1-21.71-7.86,164.71,164.71,0,0,0,21.71,7.86C1035.67,191.49,1068.67,214.85,1083.88,252.26Z"/><path class="cls-7" d="M1018.78,462.31a49.69,49.69,0,0,0-4,31.24q.66,3.35,1.64,6.59-1-3.24-1.64-6.59a49.69,49.69,0,0,1,4-31.24c5.83-12.65,16-23.68,26.11-34.14a175.89,175.89,0,0,0,33-48.78,175.9,175.9,0,0,1-33,48.78C1034.79,438.63,1024.61,449.66,1018.78,462.31Z"/><path class="cls-7" d="M959,98.57a92.85,92.85,0,0,1,9.64-11.11l24.83-2.58-24.83,2.58A92.85,92.85,0,0,0,959,98.57Z"/><path class="cls-7" d="M1061.94,566c-3.07-4-6.22-7.72-9.33-11.21-8.78-9.89-18.17-20.5-25.53-32.12,7.36,11.62,16.75,22.23,25.53,32.12C1055.72,558.27,1058.87,562,1061.94,566Z"/><path class="cls-7" d="M1085.82,633.18c.07-.27.12-.54.18-.81C1085.94,632.64,1085.89,632.91,1085.82,633.18Z"/><path class="cls-7" d="M1085.91,615.83a59.58,59.58,0,0,1,.6,9.81c0,.23,0,.45,0,.68,0-.23,0-.44,0-.68A59.58,59.58,0,0,0,1085.91,615.83Z"/><path class="cls-7" d="M1085,635.86c.1-.26.19-.51.28-.77C1085.15,635.34,1085.06,635.6,1085,635.86Z"/><path class="cls-7" d="M1081.41,642.36l.53-.77Z"/><path class="cls-7" d="M1085.43,634.52c.08-.26.15-.52.23-.78C1085.59,634,1085.51,634.26,1085.43,634.52Z"/><path class="cls-7" d="M1085.91,615.83q-.35-2.44-.88-4.87Q1085.56,613.39,1085.91,615.83Z"/><path class="cls-7" d="M1086.12,631.83c.05-.28.09-.56.14-.84C1086.21,631.27,1086.17,631.55,1086.12,631.83Z"/><path class="cls-7" d="M1086.47,626.32c0,.46,0,.93,0,1.39s0,.92,0,1.38c0-.46,0-.92,0-1.38S1086.49,626.79,1086.47,626.32Z"/><path class="cls-7" d="M1086.34,630.46c0-.31.06-.62.09-.93C1086.4,629.84,1086.37,630.15,1086.34,630.46Z"/><path class="cls-7" d="M996.63,76.08l.39.63Z"/><path class="cls-7" d="M996.6,76h0l0,.05Z"/><path class="cls-7" d="M1078.91,645.48h0l.12-.14Z"/><path class="cls-7" d="M1083.07,639.79c.15-.25.28-.51.42-.76C1083.36,639.29,1083.22,639.54,1083.07,639.79Z"/><path class="cls-7" d="M1082.28,641.08l.47-.76Z"/><path class="cls-7" d="M1084.41,637.18c.11-.25.22-.51.32-.77C1084.63,636.67,1084.53,636.93,1084.41,637.18Z"/><path class="cls-7" d="M1080.46,643.63l.58-.77Z"/><path class="cls-7" d="M1079.43,644.89l.65-.78Z"/><path class="cls-7" d="M1083.78,638.49c.13-.25.25-.51.37-.76C1084,638,1083.91,638.24,1083.78,638.49Z"/><path class="cls-8" d="M999,80.06l.16.27Z"/><path class="cls-8" d="M1000.86,84.11h0Z"/><path class="cls-8" d="M998.64,79.41l.17.29Z"/><path class="cls-8" d="M999.38,80.71l.13.22Z"/><path class="cls-8" d="M997,76.71l.14.24Z"/><path class="cls-8" d="M997.85,78.09l.17.29Z"/><path class="cls-8" d="M997.44,77.41l.15.25Z"/><path class="cls-8" d="M998.25,78.76l.18.31Z"/><path class="cls-8" d="M969.17,168.94c-15.08-8.45-26.53-21-23.46-40.76C942.64,147.92,954.09,160.5,969.17,168.94Z"/><path class="cls-8" d="M999.76,81.37l.14.25Z"/><path class="cls-8" d="M1000.88,83.59l0,.11Z"/><path class="cls-8" d="M1000.86,84.11l-1.3.13Z"/><path class="cls-8" d="M1001,83.83l0,.08Z"/><path class="cls-8" d="M1001,84a.34.34,0,0,1,0,0A.27.27,0,0,0,1001,84Z"/><path class="cls-8" d="M969.17,168.94c1.51.84,3.05,1.65,4.62,2.41C972.22,170.59,970.68,169.79,969.17,168.94Z"/><path class="cls-8" d="M1078.33,646.14l-.4.43Z"/><path class="cls-8" d="M1000.1,82l.1.2Z"/><path class="cls-8" d="M1000.57,82.91l.08.17Z"/><path class="cls-8" d="M1000.36,82.48l.1.19Z"/><path class="cls-8" d="M1000.75,83.28l.06.14Z"/><path class="cls-8" d="M1082.75,640.32l.32-.53Z"/><path class="cls-8" d="M1084.15,637.73l.26-.55Z"/><path class="cls-8" d="M1083.49,639l.29-.54Z"/><path class="cls-8" d="M1081,642.86l.36-.5Z"/><path class="cls-8" d="M1079,645.35l.39-.46Z"/><path class="cls-8" d="M1080.08,644.11l.38-.48Z"/><path class="cls-8" d="M1081.94,641.6l.34-.52Z"/><path class="cls-8" d="M1085.66,633.74c.05-.19.11-.37.16-.56C1085.77,633.37,1085.71,633.55,1085.66,633.74Z"/><path class="cls-8" d="M1086,632.37c0-.18.08-.36.12-.55C1086.08,632,1086,632.19,1086,632.37Z"/><path class="cls-8" d="M1084.74,636.41c.08-.19.16-.37.23-.56C1084.89,636,1084.81,636.23,1084.74,636.41Z"/><path class="cls-8" d="M1086.43,629.53c0-.15,0-.29,0-.44C1086.46,629.24,1086.44,629.39,1086.43,629.53Z"/><path class="cls-8" d="M1086.25,631c0-.17.06-.35.08-.52C1086.31,630.64,1086.28,630.81,1086.25,631Z"/><path class="cls-8" d="M1085.24,635.08c.06-.19.13-.37.19-.56C1085.37,634.71,1085.3,634.9,1085.24,635.08Z"/><path class="cls-8" d="M1094,298.31a142.3,142.3,0,0,0-10.1-46.05c-15.21-37.41-48.2-60.77-86-71.92a164.71,164.71,0,0,1-21.71-7.86q-1.19-.55-2.37-1.12c-1.57-.77-3.11-1.57-4.62-2.41-15.08-8.45-26.53-21-23.46-40.76a59.66,59.66,0,0,1,5.43-16.74c.87-1.8,1.83-3.58,2.85-5.32a86.57,86.57,0,0,1,5-7.56,92.85,92.85,0,0,1,9.64-11.11l24.83-2.58,2.45-.25,2.07-.21,1.6-.17,1.3-.13h.09s0,0,0-.05a.34.34,0,0,0,0,0,.42.42,0,0,0,0-.09l0-.08,0-.13,0-.11-.07-.17-.06-.14-.09-.2-.08-.17-.12-.24-.1-.19-.15-.28-.1-.2-.21-.39-.14-.25-.25-.44-.13-.22-.21-.37-.16-.27-.21-.36-.17-.29-.21-.35-.18-.31-.23-.38-.17-.29-.26-.43-.15-.25-.28-.46-.14-.24L996.6,76h0C932.22,41.37,904,119.28,904,119.29c-.77,3.33-1.38,6.37-1.77,8.9-4.92,31.57,27.36,44.83,52.16,52.15,37.8,11.15,70.79,34.51,86,71.92,24,58.93,4.27,131.13-39,175.91-10.1,10.46-20.28,21.49-26.11,34.14a49.69,49.69,0,0,0-4,31.24c4.67,23.8,22.19,43.64,37.81,61.23,4.18,4.7,8.43,9.89,12.47,15.41,2.71,3.71,5.32,7.57,7.72,11.57a60.24,60.24,0,0,1,5.44,10,84.1,84.1,0,0,1,7.45,22.73,179.43,179.43,0,0,1,4.22,41.69,277,277,0,0,0,32.5-10.72l.13-.14.39-.46.65-.78.38-.48.58-.77.36-.5.53-.77.34-.52.47-.76.32-.53c.15-.25.28-.51.42-.76l.29-.54c.13-.25.25-.51.37-.76l.26-.55c.11-.25.22-.51.32-.77s.16-.37.23-.56.19-.51.28-.77.13-.37.19-.56.15-.52.23-.78.11-.37.16-.56.12-.54.18-.81.08-.36.12-.55.09-.56.14-.84.06-.35.08-.52.06-.62.09-.93c0-.15,0-.29,0-.44,0-.46,0-.92,0-1.38s0-.93,0-1.39c0-.23,0-.44,0-.68a59.58,59.58,0,0,0-.6-9.81q-.35-2.44-.88-4.87c-2.31-10.61-7.12-20.95-13-30.54q-1.28-2.08-2.63-4.11c-2.37-3.57-4.87-7-7.43-10.33-3.07-4-6.22-7.72-9.33-11.21-8.78-9.89-18.17-20.5-25.53-32.12q-1.23-1.94-2.38-3.91t-2.2-4q-.53-1-1-2-1.51-3.05-2.78-6.2-.84-2.1-1.56-4.24-.36-1.07-.69-2.15-1-3.24-1.64-6.59a49.69,49.69,0,0,1,4-31.24c5.83-12.65,16-23.68,26.11-34.14a175.9,175.9,0,0,0,33-48.78q1.87-4.07,3.54-8.24t3.13-8.41a178.32,178.32,0,0,0,7.35-28.93q.49-2.94.87-5.9.19-1.48.36-3,.33-3,.56-5.92.45-5.93.47-11.86Q1094.21,302.74,1094,298.31Z"/><ellipse class="cls-9" cx="1058.93" cy="630.51" rx="9" ry="15.33"/><ellipse class="cls-9" cx="1049.93" cy="586.71" rx="9" ry="15.33" transform="translate(-147.64 475.34) rotate(-23.88)"/><ellipse class="cls-9" cx="1025.85" cy="551.67" rx="9" ry="15.33" transform="translate(-116.54 778.95) rotate(-39.52)"/><ellipse class="cls-9" cx="1002.5" cy="519.83" rx="9" ry="15.33" transform="translate(-101.61 756.81) rotate(-39.52)"/><ellipse class="cls-9" cx="989.17" cy="483.83" rx="9" ry="15.33" transform="translate(-41.36 95.82) rotate(-5.43)"/><ellipse class="cls-9" cx="1002.65" cy="450.76" rx="15.33" ry="9" transform="translate(150.14 1144.81) rotate(-63.36)"/><ellipse class="cls-9" cx="1025.85" cy="419.31" rx="15.33" ry="9" transform="translate(84.37 1003.95) rotate(-54.07)"/><ellipse class="cls-9" cx="1045.85" cy="390.38" rx="15.33" ry="9" transform="translate(374.98 1282.64) rotate(-73.53)"/><ellipse class="cls-9" cx="1057.94" cy="354.42" rx="15.33" ry="9" transform="translate(418.12 1268.47) rotate(-73.53)"/><ellipse class="cls-9" cx="1064.2" cy="318.1" rx="15.33" ry="9" transform="translate(642.26 1345.56) rotate(-84.32)"/><ellipse class="cls-9" cx="1061.44" cy="279.69" rx="9" ry="15.33" transform="translate(-22.72 107.97) rotate(-5.76)"/><ellipse class="cls-9" cx="1052.22" cy="247.17" rx="8.03" ry="13.68" transform="translate(-9.1 451.75) rotate(-24.13)"/><ellipse class="cls-9" cx="1034.43" cy="219.05" rx="7.46" ry="12.71" transform="translate(71.4 655.63) rotate(-36.34)"/><ellipse class="cls-9" cx="1011.73" cy="198.59" rx="6.17" ry="10.51" transform="matrix(0.5, -0.87, 0.87, 0.5, 333.88, 975.48)"/><ellipse class="cls-9" cx="986.33" cy="184.67" rx="6.17" ry="10.51" transform="translate(467.48 1043.58) rotate(-69.47)"/><ellipse class="cls-9" cx="960.02" cy="171.89" rx="6.17" ry="10.51" transform="translate(331.15 917.35) rotate(-60)"/><ellipse class="cls-9" cx="937.04" cy="154.79" rx="6.63" ry="11.3" transform="translate(222.93 780.92) rotate(-50.62)"/><ellipse class="cls-9" cx="924.51" cy="130.56" rx="6.63" ry="11.3" transform="translate(-4.03 32.69) rotate(-2.02)"/><ellipse class="cls-9" cx="929.3" cy="103.1" rx="11.3" ry="6.63" transform="translate(431.41 894.51) rotate(-64.16)"/><ellipse class="cls-9" cx="949.3" cy="83.51" rx="11.3" ry="6.63" transform="translate(85.43 485.84) rotate(-30)"/><ellipse class="cls-9" cx="977.11" cy="79.17" rx="5.54" ry="9.44" transform="translate(641.83 1000.36) rotate(-74.63)"/><ellipse class="cls-9" cx="1083.49" cy="618.01" rx="9" ry="15.33"/><ellipse class="cls-9" cx="1072.59" cy="581.48" rx="9" ry="15.33" transform="translate(-143.59 484.07) rotate(-23.88)"/><ellipse class="cls-9" cx="1049.93" cy="547.17" rx="9" ry="15.33" transform="translate(-108.17 793.25) rotate(-39.52)"/><ellipse class="cls-9" cx="1023.66" cy="515.33" rx="9" ry="15.33" transform="translate(-120.52 580.87) rotate(-30)"/><ellipse class="cls-9" cx="1015.91" cy="479.88" rx="9" ry="15.33"/><ellipse class="cls-9" cx="1029.4" cy="446.81" rx="15.33" ry="9" transform="translate(168.42 1166.54) rotate(-63.36)"/><ellipse class="cls-9" cx="1055.52" cy="417.48" rx="15.33" ry="9" transform="translate(134.55 1080.97) rotate(-57.35)"/><ellipse class="cls-9" cx="1073.93" cy="386.44" rx="15.33" ry="9" transform="translate(398.88 1306.75) rotate(-73.53)"/><ellipse class="cls-9" cx="1081.82" cy="347.42" rx="15.33" ry="9" transform="translate(441.95 1286.35) rotate(-73.53)"/><ellipse class="cls-9" cx="1087.02" cy="311.1" rx="15.33" ry="9" transform="translate(669.79 1361.96) rotate(-84.32)"/><ellipse class="cls-9" cx="1087.02" cy="272.69" rx="9" ry="15.33" transform="translate(-21.88 110.5) rotate(-5.76)"/><ellipse class="cls-9" cx="1076.27" cy="240.17" rx="8.03" ry="13.68" transform="translate(-4.14 460.97) rotate(-24.13)"/><ellipse class="cls-9" cx="1055.58" cy="212.05" rx="7.46" ry="12.71" transform="translate(79.67 666.81) rotate(-36.34)"/><ellipse class="cls-9" cx="1032.76" cy="194.68" rx="6.17" ry="10.51" transform="translate(347.79 991.74) rotate(-60)"/><ellipse class="cls-9" cx="1007.49" cy="181.59" rx="6.17" ry="10.51" transform="translate(484.1 1061.4) rotate(-69.47)"/><ellipse class="cls-9" cx="978.09" cy="170.23" rx="6.17" ry="10.51" transform="translate(341.62 932.17) rotate(-60)"/><ellipse class="cls-9" cx="952.22" cy="149.33" rx="6.63" ry="11.3" transform="translate(137.7 664.67) rotate(-41.23)"/><ellipse class="cls-9" cx="945.67" cy="123.56" rx="6.63" ry="11.3" transform="translate(-3.77 33.43) rotate(-2.02)"/><ellipse class="cls-9" cx="954.39" cy="98" rx="11.3" ry="6.63" transform="translate(450.15 914.21) rotate(-64.16)"/><ellipse class="cls-10" cx="887.57" cy="575.36" rx="32" ry="41"/><ellipse class="cls-10" cx="942.73" cy="622.52" rx="15.3" ry="19.85"/><ellipse class="cls-10" cx="887.57" cy="503.24" rx="14.14" ry="19.41"/><ellipse class="cls-10" cx="940.44" cy="428.08" rx="13" ry="18.74"/><ellipse class="cls-10" cx="1025.85" cy="298.31" rx="18.56" ry="29.04"/><ellipse class="cls-10" cx="1007.85" cy="247.17" rx="9.04" ry="16.03"/></svg>