<svg id="Layer_1" data-name="Layer 1" xmlns="http://www.w3.org/2000/svg" xmlns:xlink="http://www.w3.org/1999/xlink" viewBox="0 0 1920 1080"><defs><style>.cls-1,.cls-2{fill:none;}.cls-2{clip-rule:evenodd;}.cls-3{fill:#0039ba;}.cls-4{fill:#005fc8;}.cls-5{fill:#3c9344;}.cls-6{fill:#00652e;}.cls-7{fill:#347534;}.cls-8{fill:#733791;}.cls-9{fill:#500778;}.cls-10{fill:#ff9141;}.cls-11{fill:#00a499;}.cls-12{fill:#64c8c3;}.cls-13{fill:#420768;}.cls-14{fill:#ff6d00;}.cls-15{clip-path:url(#clip-path);}.cls-16{fill:#f99067;}.cls-17{clip-path:url(#clip-path-2);}.cls-18{fill:#ffb692;}.cls-19{clip-path:url(#clip-path-3);}.cls-20{clip-path:url(#clip-path-4);}.cls-21{clip-path:url(#clip-path-5);}.cls-22{clip-path:url(#clip-path-6);}.cls-23{clip-path:url(#clip-path-7);}.cls-24{clip-path:url(#clip-path-8);}.cls-25{clip-path:url(#clip-path-9);}.cls-26{clip-path:url(#clip-path-10);}.cls-27{clip-path:url(#clip-path-11);}.cls-28{clip-path:url(#clip-path-12);}.cls-29{clip-path:url(#clip-path-13);}.cls-30{clip-path:url(#clip-path-14);}.cls-31{clip-path:url(#clip-path-15);}.cls-32{clip-path:url(#clip-path-16);}.cls-33{clip-path:url(#clip-path-17);}.cls-34{clip-path:url(#clip-path-18);}.cls-35{clip-path:url(#clip-path-19);}.cls-36{clip-path:url(#clip-path-20);}.cls-37{clip-path:url(#clip-path-21);}.cls-38{clip-path:url(#clip-path-22);}.cls-39{clip-path:url(#clip-path-23);}.cls-40{clip-path:url(#clip-path-24);}.cls-41{clip-path:url(#clip-path-25);}.cls-42{clip-path:url(#clip-path-26);}.cls-43{clip-path:url(#clip-path-27);}.cls-44{clip-path:url(#clip-path-28);}.cls-45{clip-path:url(#clip-path-29);}.cls-46{clip-path:url(#clip-path-30);}.cls-47{clip-path:url(#clip-path-31);}.cls-48{clip-path:url(#clip-path-32);}.cls-49{clip-path:url(#clip-path-33);}.cls-50{clip-path:url(#clip-path-34);}.cls-51{clip-path:url(#clip-path-35);}.cls-52{clip-path:url(#clip-path-36);}.cls-53{clip-path:url(#clip-path-37);}.cls-54{clip-path:url(#clip-path-38);}.cls-55{clip-path:url(#clip-path-39);}.cls-56{clip-path:url(#clip-path-40);}.cls-57{clip-path:url(#clip-path-41);}.cls-58{clip-path:url(#clip-path-42);}.cls-59{clip-path:url(#clip-path-43);}.cls-60{clip-path:url(#clip-path-44);}.cls-61{clip-path:url(#clip-path-45);}.cls-62{clip-path:url(#clip-path-46);}.cls-63{clip-path:url(#clip-path-47);}.cls-64{clip-path:url(#clip-path-48);}.cls-65{clip-path:url(#clip-path-49);}.cls-66{clip-path:url(#clip-path-50);}.cls-67{clip-path:url(#clip-path-51);}.cls-68{clip-path:url(#clip-path-52);}.cls-69{clip-path:url(#clip-path-53);}.cls-70{clip-path:url(#clip-path-54);}.cls-71{clip-path:url(#clip-path-55);}.cls-72{clip-path:url(#clip-path-56);}.cls-73{clip-path:url(#clip-path-57);}.cls-74{clip-path:url(#clip-path-58);}.cls-75{clip-path:url(#clip-path-59);}.cls-76{clip-path:url(#clip-path-60);}.cls-77{clip-path:url(#clip-path-61);}.cls-78{clip-path:url(#clip-path-62);}.cls-79{clip-path:url(#clip-path-63);}.cls-80{clip-path:url(#clip-path-64);}.cls-81{clip-path:url(#clip-path-65);}.cls-82{clip-path:url(#clip-path-66);}.cls-83{clip-path:url(#clip-path-67);}.cls-84{clip-path:url(#clip-path-68);}.cls-85{clip-path:url(#clip-path-69);}.cls-86{clip-path:url(#clip-path-70);}.cls-87{clip-path:url(#clip-path-71);}.cls-88{clip-path:url(#clip-path-72);}.cls-89{clip-path:url(#clip-path-73);}.cls-90{clip-path:url(#clip-path-74);}.cls-91{clip-path:url(#clip-path-75);}.cls-92{clip-path:url(#clip-path-76);}.cls-93{clip-path:url(#clip-path-77);}.cls-94{clip-path:url(#clip-path-78);}.cls-95{clip-path:url(#clip-path-79);}.cls-96{clip-path:url(#clip-path-80);}.cls-97{clip-path:url(#clip-path-81);}.cls-98{clip-path:url(#clip-path-82);}.cls-99{clip-path:url(#clip-path-83);}.cls-100{clip-path:url(#clip-path-84);}.cls-101{clip-path:url(#clip-path-85);}.cls-102{clip-path:url(#clip-path-86);}.cls-103{clip-path:url(#clip-path-87);}.cls-104{clip-path:url(#clip-path-88);}.cls-105{clip-path:url(#clip-path-89);}.cls-106{clip-path:url(#clip-path-90);}.cls-107{clip-path:url(#clip-path-91);}.cls-108{clip-path:url(#clip-path-92);}.cls-109{clip-path:url(#clip-path-93);}.cls-110{clip-path:url(#clip-path-94);}.cls-111{clip-path:url(#clip-path-95);}.cls-112{clip-path:url(#clip-path-96);}.cls-113{clip-path:url(#clip-path-97);}.cls-114{clip-path:url(#clip-path-98);}.cls-115{clip-path:url(#clip-path-99);}.cls-116{clip-path:url(#clip-path-100);}.cls-117{clip-path:url(#clip-path-101);}.cls-118{clip-path:url(#clip-path-102);}.cls-119{clip-path:url(#clip-path-103);}.cls-120{clip-path:url(#clip-path-104);}.cls-121{clip-path:url(#clip-path-105);}.cls-122{clip-path:url(#clip-path-106);}.cls-123{clip-path:url(#clip-path-107);}.cls-124{clip-path:url(#clip-path-108);}.cls-125{clip-path:url(#clip-path-109);}.cls-126{clip-path:url(#clip-path-110);}.cls-127{clip-path:url(#clip-path-111);}.cls-128{clip-path:url(#clip-path-112);}.cls-129{clip-path:url(#clip-path-113);}.cls-130{clip-path:url(#clip-path-114);}.cls-131{clip-path:url(#clip-path-115);}.cls-132{clip-path:url(#clip-path-116);}.cls-133{clip-path:url(#clip-path-117);}.cls-134{clip-path:url(#clip-path-118);}.cls-135{clip-path:url(#clip-path-119);}.cls-136{clip-path:url(#clip-path-120);}.cls-137{clip-path:url(#clip-path-121);}.cls-138{clip-path:url(#clip-path-122);}.cls-139{clip-path:url(#clip-path-123);}.cls-140{clip-path:url(#clip-path-124);}.cls-141{clip-path:url(#clip-path-125);}.cls-142{clip-path:url(#clip-path-126);}.cls-143{clip-path:url(#clip-path-127);}.cls-144{clip-path:url(#clip-path-128);}.cls-145{clip-path:url(#clip-path-129);}.cls-146{clip-path:url(#clip-path-130);}.cls-147{clip-path:url(#clip-path-131);}.cls-148{clip-path:url(#clip-path-132);}.cls-149{clip-path:url(#clip-path-133);}.cls-150{clip-path:url(#clip-path-134);}.cls-151{clip-path:url(#clip-path-135);}.cls-152{clip-path:url(#clip-path-136);}.cls-153{clip-path:url(#clip-path-137);}.cls-154{clip-path:url(#clip-path-138);}</style><clipPath id="clip-path"><path class="cls-1" d="M1235.78,445.58s78.31-175.2,82.36-179.29,116.33,88.51,116.33,88.51L1414,581.14l-82.45,131.14-158.85,27.93-146.18-49.89,10.86-148.64,172.27-69.86Z"/></clipPath><clipPath id="clip-path-2"><path class="cls-1" d="M682,445.58s-78.31-175.2-82.36-179.29S483.3,354.8,483.3,354.8l20.47,226.33,82.45,131.14,158.85,27.93,146.18-49.89L880.39,541.68,708.12,471.82Z"/></clipPath><clipPath id="clip-path-3"><polygon class="cls-2" points="-1803.16 1987.37 -1803.16 2058.14 -1312.9 2341.19 -822.64 2058.14 -822.64 1987.37 -1312.9 1704.32 -1803.16 1987.37"/></clipPath><clipPath id="clip-path-4"><polygon class="cls-2" points="-1312.9 2341.19 -1803.16 2058.14 -1803.16 1987.37 -1312.9 2270.43 -1312.9 2341.19"/></clipPath><clipPath id="clip-path-5"><polygon class="cls-2" points="-1067.77 2341.19 -822.64 2341.19 -822.64 1987.37 -1312.9 1987.37 -1312.9 2341.19 -1067.77 2341.19"/></clipPath><clipPath id="clip-path-6"><path class="cls-2" d="M-955.48,1881.23a71.57,71.57,0,0,0-71.57,71.57h143.13a71.57,71.57,0,0,0-71.57-71.57"/></clipPath><clipPath id="clip-path-7"><path class="cls-2" d="M-1002.6,1923.26a39.38,39.38,0,0,0-39.38,39.38h78.76a39.38,39.38,0,0,0-39.38-39.38"/></clipPath><clipPath id="clip-path-8"><path class="cls-2" d="M-1260.46,2125.55a42.86,42.86,0,0,0-38.47,24,34.4,34.4,0,0,0-21.27-7.35,34.41,34.41,0,0,0-19.66,6.15,53.28,53.28,0,0,0-52.37-43.57,53.29,53.29,0,0,0-53.29,53.29,53.48,53.48,0,0,0,1,10.39h226.93a42.9,42.9,0,0,0-42.9-42.9"/></clipPath><clipPath id="clip-path-9"><path class="cls-2" d="M-1692.39,1984.81h122.91a61.45,61.45,0,0,0-61.45-61.45A61.45,61.45,0,0,0-1692.39,1984.81Z"/></clipPath><clipPath id="clip-path-10"><path class="cls-2" d="M-1355.34,1850.5H-1524s-25.14,113.28,32.42,213.21h21.5s-98.59-175.19,30.39-175.19,30.39,175.19,30.39,175.19h21.5c57.55-99.93,32.42-213.21,32.42-213.21"/></clipPath><clipPath id="clip-path-11"><path class="cls-2" d="M-1377.47,1648.92h-.19a99,99,0,0,0-93.61,66.8l.47-.1a99,99,0,0,1,93.33-66.7"/></clipPath><clipPath id="clip-path-12"><path class="cls-2" d="M-1373.4,1649c.9,0,1.82,0,2.72.07-.9,0-1.81,0-2.72-.07"/></clipPath><clipPath id="clip-path-13"><path class="cls-2" d="M-1377.41,1673.46a27.72,27.72,0,0,1,3.4.25,27.92,27.92,0,0,0-3.19-.27l-.2,0"/></clipPath><clipPath id="clip-path-14"><path class="cls-2" d="M-1377.22,1648.91h-.24a33.17,33.17,0,0,1,4.07.32,32.68,32.68,0,0,0-3.82-.33"/></clipPath><clipPath id="clip-path-15"><path class="cls-2" d="M-1372.86,1673.56c-.46,0-.93,0-1.39,0l1.39,0"/></clipPath><clipPath id="clip-path-16"><path class="cls-2" d="M-1441.57,1709.74l-29.23,5.89,0,.09,29.7-6a74.49,74.49,0,0,1,63.72-36.29h-.25a74.49,74.49,0,0,0-63.91,36.3"/></clipPath><clipPath id="clip-path-17"><path class="cls-2" d="M-1334.82,1658.44a98.49,98.49,0,0,0-37.69-9.39,98.44,98.44,0,0,1,37.62,9.56Z"/></clipPath><clipPath id="clip-path-18"><path class="cls-2" d="M-1334.9,1658.61a98.43,98.43,0,0,0-37.62-9.56l-.88,0c-1.35-.06-2.7-.1-4.07-.1a99,99,0,0,0-93.33,66.7l29.23-5.89a74.49,74.49,0,0,1,63.91-36.3h.44c1,0,2,0,3,.09h.45a74,74,0,0,1,29.33,7.51Z"/></clipPath><clipPath id="clip-path-19"><path class="cls-2" d="M-1501.34,1648.91a98.59,98.59,0,0,0-42.4,9.53l9.65,22.6a74,74,0,0,1,32.75-7.61,74.49,74.49,0,0,1,63.91,36.3l29.7,6a99,99,0,0,0-93.61-66.8"/></clipPath><clipPath id="clip-path-20"><path class="cls-2" d="M-1600.33,1747.9a99,99,0,0,0,54.44,88.39l8-23.57a74.5,74.5,0,0,1-37.88-64.82,74.55,74.55,0,0,1,41.72-66.86l-9.65-22.6a99,99,0,0,0-56.59,89.46"/></clipPath><clipPath id="clip-path-21"><path class="cls-2" d="M-1523.84,1575.23s2.21,38.19,19.81,50.79l-2.84-24.39Z"/></clipPath><clipPath id="clip-path-22"><path class="cls-2" d="M-1354.48,1575.23s-2.21,38.19-19.81,50.79l2.84-24.39Z"/></clipPath><clipPath id="clip-path-23"><path class="cls-2" d="M-1439.16,1664l-38.52-21.67s-38.15,136.05-46.29,208.14h84.81Z"/></clipPath><clipPath id="clip-path-24"><path class="cls-2" d="M-1439.66,1664l38.52-21.67s38.15,136.05,46.29,208.14h-84.81Z"/></clipPath><clipPath id="clip-path-25"><path class="cls-2" d="M-1439.16,1658.7h-30.08s13.44,30.21,30.08,33.85c16.64-3.63,30.08-33.85,30.08-33.85Z"/></clipPath><clipPath id="clip-path-26"><path class="cls-2" d="M-1439.16,1637.6l-30.08,21.1s15.84,20.57,30.08,20.57c4.38,0,19.63-6.61,30.08-20.57Z"/></clipPath><clipPath id="clip-path-27"><path class="cls-2" d="M-1504.79,1575.23a13.47,13.47,0,0,0-19.05,0,13.47,13.47,0,0,0,0,19.05,13.47,13.47,0,0,0,19.05,0,13.47,13.47,0,0,0,0-19.05"/></clipPath><clipPath id="clip-path-28"><path class="cls-2" d="M-1354.48,1575.23a13.47,13.47,0,0,0-19.05,0,13.47,13.47,0,0,0,0,19.05,13.47,13.47,0,0,0,19.05,0,13.47,13.47,0,0,0,0-19.05"/></clipPath><clipPath id="clip-path-29"><path class="cls-2" d="M-1423.9,1664c20.85-7.2,42.52-17.78,52.53-37.43,6.92-13.58,7.17-29.46,7.31-44.7.1-11,.19-22.13-1.46-32.93a80.29,80.29,0,0,0-3.83-15.36c-6.87-18.85-22.41-34.18-41.09-41.51a76.75,76.75,0,0,0-28.73-5.17l-13.34,116.2,13.34,64.1c.34,0,.67,0,1,0,4.89-.12,9.63-1.63,14.25-3.23"/></clipPath><clipPath id="clip-path-30"><path class="cls-2" d="M-1468.77,1493c-14,5.71-26.51,15.48-34.17,28.49-10.36,17.58-11,39-11,59.44.08,18.59.89,39.25,12.88,54.53s33.31,25.28,51.57,30.12a44.34,44.34,0,0,0,10.7,1.71l-5.45-65.58,16-5.45-10.5-109.27a81.54,81.54,0,0,0-30,6"/></clipPath><clipPath id="clip-path-31"><path class="cls-2" d="M-1460.59,1565.69a5.67,5.67,0,0,0-5.66-5.67,5.67,5.67,0,0,0-5.66,5.67,5.67,5.67,0,0,0,5.66,5.66,5.67,5.67,0,0,0,5.66-5.66"/></clipPath><clipPath id="clip-path-32"><path class="cls-2" d="M-1404.09,1565.69a5.66,5.66,0,0,0-5.66-5.67,5.66,5.66,0,0,0-5.66,5.67,5.66,5.66,0,0,0,5.66,5.66,5.66,5.66,0,0,0,5.66-5.66"/></clipPath><clipPath id="clip-path-33"><path class="cls-2" d="M-1385.06,1591.05c0,3.48-5.58,6.3-12.45,6.3s-12.46-2.82-12.46-6.3,5.58-6.3,12.46-6.3,12.45,2.82,12.45,6.3"/></clipPath><clipPath id="clip-path-34"><path class="cls-2" d="M-1490.54,1591.05c0,3.48,5.58,6.3,12.45,6.3s12.46-2.82,12.46-6.3-5.58-6.3-12.46-6.3-12.45,2.82-12.45,6.3"/></clipPath><clipPath id="clip-path-35"><polygon class="cls-2" points="-1444.61 1601.63 -1422.19 1601.63 -1428.66 1596.22 -1444.61 1601.63"/></clipPath><clipPath id="clip-path-36"><path class="cls-2" d="M-1372.47,1812.72h31.39l8,23.57c-7,12-21.91,14.2-21.91,14.2l-4.22-29H-1372a4.28,4.28,0,0,1-.45,0,4.43,4.43,0,0,1-4.42-4.42,4.42,4.42,0,0,1,4.42-4.42"/></clipPath><clipPath id="clip-path-37"><path class="cls-2" d="M-1405.65,1476.48v.62c-1.4,2.6-14.07,25.63-31,38.24-6.34,4.73-13.27,8-20.43,8.16h42.87c5.43.12,8.57,2.09,10.88,4.57,4.21,4.52,5.58,10.76,12.62,10.76a14.54,14.54,0,0,1,10.14,3.56c4.7,4.24,5.18,10.75,5.18,10.75v31.62h11.76q0-1.94,0-3.85c0-3.17,0-6.36-.06-9.56A13.39,13.39,0,0,1-1356,1574l1.52,1.24s0,0,0,0l.19.23a271.3,271.3,0,0,0,1.88-29.31c0-34.81-22-59.84-53.23-69.62"/></clipPath><clipPath id="clip-path-38"><path class="cls-2" d="M-1425,1470.71a138.06,138.06,0,0,0-14.41,0c-2.54.13-5.07.32-7.59.6a103.3,103.3,0,0,0-11,1.78c-.34.08-1.08.36-1.83.61l-1.93.36h0a94.08,94.08,0,0,0-16.21,4.65c-28.13,10.93-47.55,35-47.51,67.61,0,6.91.65,19.07,1.66,27.51,0,.47,0,.91,0,1.39l.15-.12c0,.17,0,.36.06.53.12-.13.21-.28.34-.41a13.25,13.25,0,0,1,8.23-3.79c.41,0,.81-.09,1.21-.07-.06,3.19-.07,6.38-.06,9.54q0,1.91,0,3.85h11.76v-31.62a19,19,0,0,1,2.07-6.71l2.45-3.36.06-.08c2.28-2.33,5.7-3.52,10.75-4.15s7-6.27,11.42-10.52a16.85,16.85,0,0,1,12.09-4.8s26.9.1,30.75,0c38.14-.86,52.93-26.84,58.65-41.11,1.27-3.17,2.1-5.77,2.64-7.38a30.64,30.64,0,0,0,1-4.3Z"/></clipPath><clipPath id="clip-path-39"><path class="cls-2" d="M-1375.41,1584.75c0,22.25-40.62,22.85-58.33,22.06h-10c-17.7.79-58.33.18-58.33-22.06h-11.76c.21,17.55,1.68,36.45,12.85,50.68,11.91,15.18,33.31,25.28,51.57,30.12a44.27,44.27,0,0,0,10.7,1.71,44.28,44.28,0,0,0,10.7-1.71c18.25-4.84,39.66-14.95,51.57-30.12,11.17-14.23,12.63-33.13,12.84-50.68h-11.76Z"/></clipPath><clipPath id="clip-path-40"><path class="cls-2" d="M-1439.16,1650.26a34.68,34.68,0,0,0,34.68-34.68h-69.37a34.68,34.68,0,0,0,34.68,34.68"/></clipPath><clipPath id="clip-path-41"><path class="cls-2" d="M-1334.9,1658.61l-9.58,22.44a74,74,0,0,0-29.33-7.51,74.56,74.56,0,0,1,70.6,74.36,74.5,74.5,0,0,1-37.88,64.82l8,23.57a99,99,0,0,0,54.44-88.39,99,99,0,0,0-56.22-89.29"/></clipPath><clipPath id="clip-path-42"><path class="cls-2" d="M-1461.77,1583.43a1.7,1.7,0,0,0-1.7-1.7,1.7,1.7,0,0,0-1.7,1.7,1.7,1.7,0,0,0,1.7,1.7,1.7,1.7,0,0,0,1.7-1.7"/></clipPath><clipPath id="clip-path-43"><path class="cls-2" d="M-1475.39,1578a1.7,1.7,0,0,0-1.7-1.7,1.7,1.7,0,0,0-1.7,1.7,1.7,1.7,0,0,0,1.7,1.7,1.7,1.7,0,0,0,1.7-1.7"/></clipPath><clipPath id="clip-path-44"><path class="cls-2" d="M-1450.87,1578a1.7,1.7,0,0,0-1.7-1.7,1.7,1.7,0,0,0-1.7,1.7,1.7,1.7,0,0,0,1.7,1.7,1.7,1.7,0,0,0,1.7-1.7"/></clipPath><clipPath id="clip-path-45"><path class="cls-2" d="M-1472.67,1586.16a1.7,1.7,0,0,0-1.7-1.7,1.7,1.7,0,0,0-1.7,1.7,1.7,1.7,0,0,0,1.7,1.7,1.7,1.7,0,0,0,1.7-1.7"/></clipPath><clipPath id="clip-path-46"><path class="cls-2" d="M-1480.84,1591.61a1.7,1.7,0,0,0-1.7-1.7,1.7,1.7,0,0,0-1.7,1.7,1.7,1.7,0,0,0,1.7,1.7,1.7,1.7,0,0,0,1.7-1.7"/></clipPath><clipPath id="clip-path-47"><path class="cls-2" d="M-1456.32,1591.61a1.7,1.7,0,0,0-1.7-1.7,1.7,1.7,0,0,0-1.7,1.7,1.7,1.7,0,0,0,1.7,1.7,1.7,1.7,0,0,0,1.7-1.7"/></clipPath><clipPath id="clip-path-48"><path class="cls-2" d="M-1410,1583.43a1.7,1.7,0,0,1,1.7-1.7,1.7,1.7,0,0,1,1.7,1.7,1.7,1.7,0,0,1-1.7,1.7,1.7,1.7,0,0,1-1.7-1.7"/></clipPath><clipPath id="clip-path-49"><path class="cls-2" d="M-1396.42,1578a1.7,1.7,0,0,1,1.7-1.7,1.7,1.7,0,0,1,1.7,1.7,1.7,1.7,0,0,1-1.7,1.7,1.7,1.7,0,0,1-1.7-1.7"/></clipPath><clipPath id="clip-path-50"><path class="cls-2" d="M-1420.94,1578a1.7,1.7,0,0,1,1.7-1.7,1.7,1.7,0,0,1,1.7,1.7,1.7,1.7,0,0,1-1.7,1.7,1.7,1.7,0,0,1-1.7-1.7"/></clipPath><clipPath id="clip-path-51"><path class="cls-2" d="M-1399.14,1586.16a1.7,1.7,0,0,1,1.7-1.7,1.7,1.7,0,0,1,1.7,1.7,1.7,1.7,0,0,1-1.7,1.7,1.7,1.7,0,0,1-1.7-1.7"/></clipPath><clipPath id="clip-path-52"><path class="cls-2" d="M-1391,1591.61a1.7,1.7,0,0,1,1.7-1.7,1.7,1.7,0,0,1,1.7,1.7,1.7,1.7,0,0,1-1.7,1.7,1.7,1.7,0,0,1-1.7-1.7"/></clipPath><clipPath id="clip-path-53"><path class="cls-2" d="M-1415.49,1591.61a1.7,1.7,0,0,1,1.7-1.7,1.7,1.7,0,0,1,1.7,1.7,1.7,1.7,0,0,1-1.7,1.7,1.7,1.7,0,0,1-1.7-1.7"/></clipPath><clipPath id="clip-path-54"><path class="cls-2" d="M-1524,1850.5s-25.14,113.28,32.42,213.21h21.5s-98.59-175.19,30.39-175.19v-38Z"/></clipPath><clipPath id="clip-path-55"><path class="cls-2" d="M-1355.34,1850.5s25.14,113.28-32.42,213.21h-21.5s98.59-175.19-30.39-175.19v-38Z"/></clipPath><clipPath id="clip-path-56"><path class="cls-2" d="M-1464.1,2066.65a7.81,7.81,0,0,0-6.11-2.94h-21.35s-13.72,6.18-21-1.81a10.73,10.73,0,0,0-8.4-4,10.75,10.75,0,0,0-10.75,10.75,10.75,10.75,0,0,0,10.75,10.75h50.76a7.83,7.83,0,0,0,7.83-7.83,7.8,7.8,0,0,0-1.71-4.89"/></clipPath><clipPath id="clip-path-57"><path class="cls-2" d="M-1415.21,2066.65a7.81,7.81,0,0,1,6.11-2.94h21.35s13.72,6.18,21-1.81a10.73,10.73,0,0,1,8.4-4,10.75,10.75,0,0,1,10.75,10.75,10.75,10.75,0,0,1-10.75,10.75h-50.76a7.83,7.83,0,0,1-7.83-7.83,7.8,7.8,0,0,1,1.71-4.89"/></clipPath><clipPath id="clip-path-58"><path class="cls-2" d="M-1506.54,1812.72h-31.39l-8,23.57c7,12,21.91,14.2,21.91,14.2l4.22-29H-1507a4.28,4.28,0,0,0,.45,0,4.43,4.43,0,0,0,4.42-4.42,4.42,4.42,0,0,0-4.42-4.42"/></clipPath><clipPath id="clip-path-59"><rect class="cls-1" x="-1290.87" y="1474.59" width="95.11" height="186.11"/></clipPath><clipPath id="clip-path-60"><rect class="cls-1" x="-1199.81" y="1474.59" width="95.09" height="186.16"/></clipPath><clipPath id="clip-path-61"><path class="cls-2" d="M-1117.44,1846.95h-160.91s-24,108.09,30.93,203.44h20.52s-94.08-167.16,29-167.16,29,167.16,29,167.16h20.52c54.92-95.35,30.93-203.44,30.93-203.44"/></clipPath><clipPath id="clip-path-62"><path class="cls-2" d="M-1278.34,1846.95s-24,108.09,30.93,203.44h20.52s-94.08-167.16,29-167.16v-36.28Z"/></clipPath><clipPath id="clip-path-63"><path class="cls-2" d="M-1117.44,1846.95s24,108.09-30.93,203.44h-20.52s94.08-167.16-29-167.16v-36.28Z"/></clipPath><clipPath id="clip-path-64"><path class="cls-2" d="M-1221.21,2053.2a7.45,7.45,0,0,0-5.83-2.81h-20.37s-13.09,5.9-20-1.73a10.24,10.24,0,0,0-8-3.85,10.26,10.26,0,0,0-10.26,10.26,10.26,10.26,0,0,0,10.26,10.26H-1227a7.47,7.47,0,0,0,7.47-7.47,7.44,7.44,0,0,0-1.63-4.66"/></clipPath><clipPath id="clip-path-65"><path class="cls-2" d="M-1174.56,2053.2a7.46,7.46,0,0,1,5.83-2.81h20.37s13.09,5.9,20-1.73a10.24,10.24,0,0,1,8-3.85,10.26,10.26,0,0,1,10.26,10.26,10.26,10.26,0,0,1-10.26,10.26h-48.43a7.47,7.47,0,0,1-7.47-7.47,7.44,7.44,0,0,1,1.63-4.66"/></clipPath><clipPath id="clip-path-66"><path class="cls-2" d="M-1104.71,1567.67a93.08,93.08,0,0,0-93.08-93.08c-.68,0-1.34,0-2,.05l-23.77,78.35,23.77,107.71c.67,0,1.34.05,2,.05a93.08,93.08,0,0,0,93.08-93.08"/></clipPath><clipPath id="clip-path-67"><path class="cls-2" d="M-1289.88,1581.27s4.61,55.57-28.41,63c0,0,30.69,44.28,100.11,20.08l-10-46.77Z"/></clipPath><clipPath id="clip-path-68"><path class="cls-2" d="M-1105.83,1581.27s-4.61,55.57,28.41,63c0,0-30.69,44.28-100.11,20.08l10-46.77Z"/></clipPath><clipPath id="clip-path-69"><path class="cls-2" d="M-1350.67,1739.42a95.37,95.37,0,0,0-.52,9.88,94.19,94.19,0,0,0,51.82,84.13l7.57-22.44a70.91,70.91,0,0,1-36.05-61.69,71.15,71.15,0,0,1,.7-9.88Z"/></clipPath><clipPath id="clip-path-70"><path class="cls-2" d="M-1298.22,1806c.88-4.94-2.11-9.56-4.59-12.11-3.12-3.21-5.85-6.58-12.9-5.68-4.15,6.11-10.51,12.42-16.67,17.63-.26,4.31-2,12.4.76,15.17s16.44,2.47,16.44,2.47Z"/></clipPath><clipPath id="clip-path-71"><path class="cls-2" d="M-1231.73,1658.52l-4.79,23a71.19,71.19,0,0,1,40.38,31.5l28.27,5.69a94.42,94.42,0,0,0-63.85-60.15"/></clipPath><clipPath id="clip-path-72"><path class="cls-2" d="M-1257,1655.09a94.22,94.22,0,0,0-93.69,84.33h23.53a71,71,0,0,1,70.17-61,70.57,70.57,0,0,1,20.45,3l4.79-23a94.23,94.23,0,0,0-25.25-3.44"/></clipPath><clipPath id="clip-path-73"><path class="cls-2" d="M-1198.27,1669.47l36.66-20.63s36.31,129.49,44.06,198.11h-80.72Z"/></clipPath><clipPath id="clip-path-74"><path class="cls-2" d="M-1189.36,1681a94.05,94.05,0,0,0-16,25.34l18.77,16.7a70.45,70.45,0,0,1,15-26.94l.48-.51-21.22-3.75Z"/></clipPath><clipPath id="clip-path-75"><path class="cls-2" d="M-1073.34,1658.1c-19.73-4.74-38.71-11.11-59.31-8a93.82,93.82,0,0,0-56.35,30.54l-.35.41-2.95,10.84,21.22,3.75a71.36,71.36,0,0,1,55.94-23.14c23.29,1.12,43.6,12.57,67.64,9a94.26,94.26,0,0,0,26.76-8.21l-10.86-20.76a71.38,71.38,0,0,1-41.73,5.63"/></clipPath><clipPath id="clip-path-76"><path class="cls-2" d="M-1197.79,1669.47l-36.66-20.63s-36.31,129.49-44.06,198.11h80.72Z"/></clipPath><clipPath id="clip-path-77"><path class="cls-2" d="M-1226.42,1664.4h6.5l-8.26-12-20.1,14.29,23.34,14.37-3.24,23.67,30.38,80v-88c-15.83-3.46-28.63-32.22-28.63-32.22"/></clipPath><clipPath id="clip-path-78"><path class="cls-2" d="M-1169.16,1664.4h-6.5l8.26-12,20.1,14.29-23.34,14.37,3.24,23.67-30.38,80v-88c15.83-3.46,28.63-32.22,28.63-32.22"/></clipPath><clipPath id="clip-path-79"><path class="cls-2" d="M-1197.79,1664.4h-28.63s12.79,28.76,28.63,32.22c15.83-3.46,28.63-32.22,28.63-32.22Z"/></clipPath><clipPath id="clip-path-80"><path class="cls-2" d="M-1197.79,1644.32l-28.63,20.08s15.07,19.58,28.63,19.58c4.16,0,18.69-6.29,28.63-19.58Z"/></clipPath><clipPath id="clip-path-81"><path class="cls-2" d="M-1260.25,1585a12.82,12.82,0,0,0-18.14,0,12.82,12.82,0,0,0,0,18.13,12.82,12.82,0,0,0,18.14,0,12.82,12.82,0,0,0,0-18.13"/></clipPath><clipPath id="clip-path-82"><path class="cls-2" d="M-1117.2,1585a12.82,12.82,0,0,0-18.13,0,12.82,12.82,0,0,0,0,18.13,12.82,12.82,0,0,0,18.13,0,12.82,12.82,0,0,0,0-18.13"/></clipPath><clipPath id="clip-path-83"><path class="cls-2" d="M-1183.27,1669.49c19.84-6.85,40.47-16.92,50-35.63,6.58-12.93,6.82-28,7-42.54.1-10.44.19-21.07-1.39-31.34a76.32,76.32,0,0,0-3.65-14.62c-6.53-17.94-21.33-32.53-39.1-39.51a73.08,73.08,0,0,0-27.34-4.92l-12.7,110.59,12.7,61c.32,0,.64,0,1,0,4.65-.11,9.17-1.56,13.57-3.08"/></clipPath><clipPath id="clip-path-84"><path class="cls-2" d="M-1226,1506.67c-13.3,5.44-25.23,14.74-32.53,27.12-9.86,16.73-10.51,37.15-10.43,56.57.07,17.69.84,37.36,12.25,51.9s31.71,24.06,49.08,28.67a42.22,42.22,0,0,0,10.19,1.63l-5.19-62.42,15.18-5.19-10-104a77.62,77.62,0,0,0-28.56,5.72"/></clipPath><clipPath id="clip-path-85"><path class="cls-2" d="M-1218.18,1575.88a5.39,5.39,0,0,0-5.39-5.39,5.39,5.39,0,0,0-5.39,5.39,5.39,5.39,0,0,0,5.39,5.39,5.39,5.39,0,0,0,5.39-5.39"/></clipPath><clipPath id="clip-path-86"><path class="cls-2" d="M-1164.42,1575.88a5.39,5.39,0,0,0-5.39-5.39,5.39,5.39,0,0,0-5.39,5.39,5.39,5.39,0,0,0,5.39,5.39,5.39,5.39,0,0,0,5.39-5.39"/></clipPath><clipPath id="clip-path-87"><path class="cls-2" d="M-1146.3,1600c0,3.31-5.31,6-11.85,6s-11.86-2.68-11.86-6,5.31-6,11.86-6,11.85,2.68,11.85,6"/></clipPath><clipPath id="clip-path-88"><path class="cls-2" d="M-1246.7,1600c0,3.31,5.31,6,11.85,6s11.85-2.68,11.85-6-5.31-6-11.85-6-11.85,2.68-11.85,6"/></clipPath><clipPath id="clip-path-89"><polygon class="cls-2" points="-1202.98 1610.08 -1181.64 1610.08 -1187.8 1604.93 -1202.98 1610.08"/></clipPath><clipPath id="clip-path-90"><path class="cls-2" d="M-1291.8,1811h29.88v8.38h-12.59l-4,27.58s-14.22-2.05-20.86-13.52Z"/></clipPath><clipPath id="clip-path-91"><path class="cls-2" d="M-1261.92,1811a4.21,4.21,0,0,1,4.21,4.21,4.21,4.21,0,0,1-4.21,4.21,4.21,4.21,0,0,1-4.21-4.21,4.21,4.21,0,0,1,4.21-4.21"/></clipPath><clipPath id="clip-path-92"><path class="cls-2" d="M-963.91,1571.35a18.9,18.9,0,0,0,1-6.13,19,19,0,0,0-19-19,19,19,0,0,0-19,19,18.86,18.86,0,0,0,3.15,10.46h0l0,.07.1.14,6.73,10a70.61,70.61,0,0,1-17.83,49.55,70.23,70.23,0,0,1-23,17.08l10.86,20.76a93.87,93.87,0,0,0,29.6-22.33c16.89-19,23.68-41.53,22.72-65.06l4.54-14.5Z"/></clipPath><clipPath id="clip-path-93"><path class="cls-2" d="M-996.47,1525.67a4.32,4.32,0,0,0-4.32,4.32v40.41h8.64V1530a4.32,4.32,0,0,0-4.32-4.32"/></clipPath><clipPath id="clip-path-94"><path class="cls-2" d="M-975.49,1561h-26.34a1.56,1.56,0,0,0-1.54,1.22,22.63,22.63,0,0,0-.47,4.53,26.41,26.41,0,0,0,1.17,7.79c1.64,5.23,9.45,2.9,9.55-2.59a1.56,1.56,0,0,1,1.56-1.53h16v-.08h0c2.88,0,5.21-1.77,5.21-4.65s-2.33-4.7-5.21-4.7"/></clipPath><clipPath id="clip-path-95"><path class="cls-2" d="M-1197.79,1656.37a33,33,0,0,0,33-33h-66a33,33,0,0,0,33,33"/></clipPath><clipPath id="clip-path-96"><path class="cls-2" d="M-1196.78,1537.2s-23.12,30.46-87.65,48.64c0,0-15.56-103.17,87.65-92.52Z"/></clipPath><clipPath id="clip-path-97"><path class="cls-2" d="M-1198.8,1537.2s23.12,30.46,87.65,48.64c0,0,15.56-104.45-87.65-93.8Z"/></clipPath><clipPath id="clip-path-98"><polygon class="cls-2" points="472.17 1987.42 472.17 2058.06 961.54 2340.6 1450.91 2058.06 1450.91 1987.42 961.54 1704.88 472.17 1987.42"/></clipPath><clipPath id="clip-path-99"><polygon class="cls-2" points="961.54 2340.6 472.17 2058.06 472.17 1987.42 961.54 2269.96 961.54 2340.6"/></clipPath><clipPath id="clip-path-100"><polygon class="cls-2" points="1206.22 2340.6 1450.91 2340.6 1450.91 1987.42 961.54 1987.42 961.54 2340.6 1206.22 2340.6"/></clipPath><clipPath id="clip-path-101"><path class="cls-2" d="M922.27,2057.16l-165,95.17,94.05,54.3,201.18-116a53.29,53.29,0,0,0-2.91-95.35l-104.17-60.09-94.05,54.3,70.37,40.6a16.17,16.17,0,0,1,.51,27.1Z"/></clipPath><clipPath id="clip-path-102"><polygon class="cls-2" points="807.3 2182.41 863.45 2149.6 853.94 2144.64 798.03 2177.02 807.3 2182.41"/></clipPath><clipPath id="clip-path-103"><polygon class="cls-2" points="912.05 2118.4 968.19 2085.59 958.68 2080.63 902.77 2113.01 912.05 2118.4"/></clipPath><clipPath id="clip-path-104"><path class="cls-2" d="M999.33,2066s19.45-13.41,26-17.76,5.11-14.73-1.54-19.13-22.3-14.76-23.14-14.35-8.4,5.49-8.4,5.49,18.78,11.38,21.21,12.79,9.57,6,2.88,10.14-26.29,17.43-26.29,17.43Z"/></clipPath><clipPath id="clip-path-105"><polyline class="cls-2" points="953.1 1996.2 896.96 1963.39 906.46 1958.43 962.37 1990.81"/></clipPath><clipPath id="clip-path-106"><polygon class="cls-2" points="943.34 1880.96 943.25 1628.92 864.31 1583.35 864.46 1835.35 943.34 1880.96"/></clipPath><clipPath id="clip-path-107"><polygon class="cls-2" points="1022.18 1583.35 943.25 1628.92 943.34 1880.96 1022.33 1835.35 1022.18 1583.35"/></clipPath><clipPath id="clip-path-108"><polygon class="cls-2" points="864.31 1583.35 943.25 1537.77 1022.18 1583.35 943.25 1628.92 864.31 1583.35"/></clipPath><clipPath id="clip-path-109"><polygon class="cls-2" points="903.7 1583.31 903.7 1514.91 943.24 1537.74 943.24 1606.13 903.7 1583.31"/></clipPath><clipPath id="clip-path-110"><polygon class="cls-2" points="982.7 1514.91 943.24 1537.74 943.24 1606.13 982.7 1583.31 982.7 1514.91"/></clipPath><clipPath id="clip-path-111"><polygon class="cls-2" points="943.24 1537.74 982.7 1514.91 943.24 1492.08 903.7 1514.91 943.24 1537.74"/></clipPath><clipPath id="clip-path-112"><polygon class="cls-2" points="932.79 1515.56 932.79 1427.88 943.21 1433.89 943.21 1521.58 932.79 1515.56"/></clipPath><clipPath id="clip-path-113"><polygon class="cls-2" points="953.61 1427.88 943.21 1433.89 943.21 1521.58 953.61 1515.56 953.61 1427.88"/></clipPath><clipPath id="clip-path-114"><rect class="cls-1" x="932.79" y="1421.86" width="20.82" height="12.03"/></clipPath><clipPath id="clip-path-115"><polygon class="cls-2" points="1064.45 1834.55 1064.39 1664.09 1010.48 1633.27 1010.58 1803.71 1064.45 1834.55"/></clipPath><clipPath id="clip-path-116"><polygon class="cls-2" points="1118.29 1633.27 1064.39 1664.09 1064.45 1834.55 1118.39 1803.71 1118.29 1633.27"/></clipPath><clipPath id="clip-path-117"><polygon class="cls-2" points="1010.48 1633.27 1064.39 1602.44 1118.29 1633.27 1064.39 1664.09 1010.48 1633.27"/></clipPath><clipPath id="clip-path-118"><polygon class="cls-2" points="841.28 1846.47 841.22 1681.69 789.24 1651.9 789.33 1816.66 841.28 1846.47"/></clipPath><clipPath id="clip-path-119"><polygon class="cls-2" points="893.2 1651.9 841.22 1681.69 841.28 1846.47 893.3 1816.66 893.2 1651.9"/></clipPath><clipPath id="clip-path-120"><polygon class="cls-2" points="789.24 1651.9 841.22 1622.1 893.2 1651.9 841.22 1681.69 789.24 1651.9"/></clipPath><clipPath id="clip-path-121"><path class="cls-2" d="M1349.91,1904.89c-26.79-16.65-113.34-38.16-234.91-38.65l-63.92-75.18a71.3,71.3,0,0,0-54-25.12L697,1764.72a57,57,0,0,0-40.4,16.54l-72.23,71.65a57.06,57.06,0,0,0-15.11,26.43L558.64,1921,772.13,2021.7l598.9,2.44.33-80.61a45.23,45.23,0,0,0-21.45-38.64"/></clipPath><clipPath id="clip-path-122"><path class="cls-2" d="M1051.08,1791.05a71.29,71.29,0,0,0-54-25.12L697,1764.71a57,57,0,0,0-40.4,16.54l-69.12,68.57,37.29.15a356.67,356.67,0,0,1,39.36,2.34l108.66,12.52,342.23,1.39Z"/></clipPath><clipPath id="clip-path-123"><path class="cls-2" d="M1028.47,1865.88l-236.76-1a341.94,341.94,0,0,1-37.78-2.25l-74.18-8.55a19.55,19.55,0,0,1-13-31.69l26.43-32.77A28.55,28.55,0,0,1,715.52,1779l243.87,1a28.51,28.51,0,0,1,21.87,10.35l52.75,63.82a7.13,7.13,0,0,1-5.52,11.67"/></clipPath><clipPath id="clip-path-124"><path class="cls-2" d="M1371.32,1952.83c.12-28.52-42.55-57.21-242.18-58L573,1892.55a14.26,14.26,0,0,0-14.32,14.2l-.3,71.3,270.82,29.62,541.86,2.2Z"/></clipPath><clipPath id="clip-path-125"><path class="cls-2" d="M1371.14,1995.61l-668.64-2.72L575.81,1964.2a14.26,14.26,0,1,0-6.29,27.81l128.22,29a14,14,0,0,0,3.09.36l670.2,2.73a14.26,14.26,0,0,0,.12-28.52"/></clipPath><clipPath id="clip-path-126"><path class="cls-2" d="M679.79,1934.57a65.36,65.36,0,1,1-65.62,65.09,65.36,65.36,0,0,1,65.62-65.09"/></clipPath><clipPath id="clip-path-127"><path class="cls-2" d="M679.73,1950a49.91,49.91,0,1,0,49.7,50.11,50,50,0,0,0-49.7-50.11m-.52,128.34a78.43,78.43,0,1,1,78.74-78.11,78.51,78.51,0,0,1-78.74,78.11"/></clipPath><clipPath id="clip-path-128"><path class="cls-2" d="M679.64,1971.4a28.52,28.52,0,1,1-28.63,28.4,28.52,28.52,0,0,1,28.63-28.4"/></clipPath><clipPath id="clip-path-129"><path class="cls-2" d="M1128.84,1966.11l-342.23-1.39a14.26,14.26,0,0,1,.12-28.52l342.23,1.39a14.26,14.26,0,0,1-.12,28.52"/></clipPath><clipPath id="clip-path-130"><path class="cls-2" d="M1371.26,1967.09,1357,1967a14.26,14.26,0,0,1,.12-28.52l14.26.06a14.26,14.26,0,0,1-.12,28.52"/></clipPath><clipPath id="clip-path-131"><rect class="cls-1" x="844.23" y="1808.26" width="85.56" height="28.52" transform="translate(-939.09 2702.16) rotate(-89.77)"/></clipPath><clipPath id="clip-path-132"><path class="cls-2" d="M1356.18,1910l-13.21-.05a14.26,14.26,0,0,0-.12,28.52l27.88.11a44.67,44.67,0,0,0-14.55-28.58"/></clipPath><clipPath id="clip-path-133"><path class="cls-2" d="M1051.08,1791.05a71.26,71.26,0,0,0-11.32-10.68l-23.27-.1a7.13,7.13,0,0,0-5.52,11.67l52.75,63.82a28.52,28.52,0,0,0,21.87,10.35l29.42.12Z"/></clipPath><clipPath id="clip-path-134"><polygon class="cls-2" points="745.27 1861.67 773.11 1779.29 744.59 1779.17 705.25 1857.06 745.27 1861.67"/></clipPath><clipPath id="clip-path-135"><path class="cls-2" d="M569.24,1879.34l-3.36,13.18,35.64.15a14.26,14.26,0,1,0,.12-28.52L575.7,1864a56.9,56.9,0,0,0-6.46,15.3"/></clipPath><clipPath id="clip-path-136"><path class="cls-2" d="M1235.91,1936.83a65.36,65.36,0,1,1-65.62,65.09,65.36,65.36,0,0,1,65.62-65.09"/></clipPath><clipPath id="clip-path-137"><path class="cls-2" d="M1235.84,1952.28a49.91,49.91,0,1,0,49.7,50.11,50,50,0,0,0-49.7-50.11m-.52,128.34a78.43,78.43,0,1,1,78.74-78.11,78.51,78.51,0,0,1-78.74,78.11"/></clipPath><clipPath id="clip-path-138"><path class="cls-2" d="M1235.76,1973.67a28.52,28.52,0,1,1-28.63,28.4,28.52,28.52,0,0,1,28.63-28.4"/></clipPath></defs><title>ilustracoes_caixa_am5SVG</title><polygon class="cls-3" points="705.25 271.71 1202.21 271.71 1193.97 331.14 994.18 431.39 705.25 271.71"/><path class="cls-3" d="M1112.92,412.85s48.54-84,137.72-35.86C1348.28,429.7,1279,527.64,1279,527.64s-46.6,63.72-221.77,51.42v93.59S1316.44,721,1378.9,527.6C1445,323,1252.78,276,1252.78,276s-136.42-34.41-216.58,91.76Z"/><path class="cls-4" d="M804.86,412.85s-48.54-84-137.72-35.86c-97.65,52.71-28.35,150.65-28.35,150.65s46.6,63.72,221.77,51.42v93.59S601.34,721,538.87,527.6C472.79,323,665,276,665,276s136.42-34.41,216.58,91.76Z"/><polygon class="cls-5" points="960 256.5 469.09 539.93 469.09 610.79 960 894.21 1450.91 610.79 1450.91 539.93 960 256.5"/><polygon class="cls-6" points="960 894.21 1450.91 610.79 1450.91 539.93 960 823.36 960 894.21"/><polygon class="cls-7" points="960 894.21 469.09 610.79 469.09 539.93 960 823.36 960 894.21"/><polygon class="cls-8" points="975.46 688.44 713.87 537.41 713.87 310.86 975.46 461.89 975.46 688.44"/><polygon class="cls-9" points="1082.85 297.85 975.46 461.87 975.46 688.42 1171.66 575.14 1171.66 348.62 1082.85 297.85"/><polygon class="cls-10" points="696.03 337.41 811.91 140.92 1082.85 297.85 957.62 488.44 696.03 337.41"/><polygon class="cls-11" points="1040.82 650.68 1040.82 499.63 1106.26 461.89 1106.26 612.9 1040.82 650.68"/><polygon class="cls-12" points="877.36 480.63 877.36 556.15 942.76 593.9 942.76 518.39 877.36 480.63"/><polygon class="cls-12" points="746.81 405.25 746.81 480.77 812.21 518.53 812.21 443.01 746.81 405.25"/><polygon class="cls-8" points="889.44 369.61 889.44 293.66 841.81 266.16 841.81 342.11 889.44 369.61"/><polygon class="cls-9" points="937.07 266.62 889.44 293.66 889.44 369.61 937.07 297.2 937.07 266.62"/><polygon class="cls-13" points="841.81 266.16 889.44 293.66 937.07 266.62 889.32 238.73 841.81 266.16"/><polygon class="cls-10" points="1106.26 612.9 1040.82 650.68 1171.66 726.2 1215.59 675.92 1106.26 612.9"/><polygon class="cls-14" points="1150.16 784.51 1150.16 713.7 1215.59 675.92 1215.59 746.77 1150.16 784.51"/><g class="cls-15"><path class="cls-3" d="M1112.92,412.85s48.54-84,137.72-35.86C1348.28,429.7,1279,527.64,1279,527.64s-46.6,63.72-221.77,51.42v93.59S1316.44,721,1378.9,527.6C1445,323,1252.78,276,1252.78,276s-136.42-34.41-216.58,91.76Z"/></g><path class="cls-16" d="M1057.49,578.47,944.09,540.32l-10.7,31.8,47.76,16.07L961.18,698s56.6,10.36,96.41-24.68Z"/><circle class="cls-16" cx="938.71" cy="556.3" r="16.86" transform="translate(112.17 1268.68) rotate(-71.41)"/><path class="cls-16" d="M981.15,588.19,877.66,564l-27.52,104.6s82.11,34.7,129.23,30.76l19.51-45.08Z"/><ellipse class="cls-16" cx="863.56" cy="616.06" rx="54.26" ry="32.8" transform="translate(53.03 1300.4) rotate(-75.68)"/><g class="cls-17"><path class="cls-4" d="M804.86,412.85s-48.54-84-137.72-35.86c-97.65,52.71-28.35,150.65-28.35,150.65s46.6,63.72,221.77,51.42v93.59S601.34,721,538.87,527.6C472.79,323,665,276,665,276s136.42-34.41,216.58,91.76Z"/></g><path class="cls-18" d="M861.1,580l119.57,4.2-1.18,33.53L929.13,616,909.2,725.75s-50.49-9.11-77.11-49.53C830.52,673.83,861.1,580,861.1,580Z"/><circle class="cls-18" cx="980.08" cy="601.05" r="16.86" transform="translate(345 1559.43) rotate(-87.99)"/><path class="cls-18" d="M929.13,616l105.38,13.81-11,107.6S934.39,741,891.67,720.69l-2.4-49.06Z"/><ellipse class="cls-18" cx="1029.4" cy="683.43" rx="54.26" ry="32.8" transform="translate(237.45 1631.88) rotate(-83.72)"/></svg>