<svg id="Layer_1" data-name="Layer 1" xmlns="http://www.w3.org/2000/svg" xmlns:xlink="http://www.w3.org/1999/xlink" viewBox="0 0 1920 1080"><defs><style>.cls-1,.cls-3,.cls-7{fill:none;}.cls-2{fill:#4187d7;}.cls-3{stroke:#005fc8;stroke-width:7px;}.cls-3,.cls-7{stroke-miterlimit:10;}.cls-4{fill:#005fc8;}.cls-5{fill:#0039ba;}.cls-6{fill:#fff;}.cls-7{stroke:#ffce00;stroke-width:9px;}.cls-8{fill:#ffce00;}.cls-9{fill:#ffbc00;}.cls-10{fill:#d0d1d3;}.cls-11{fill:#a6a8aa;}.cls-12{clip-path:url(#clip-path);}.cls-13{fill:#e1e1e1;}.cls-14{fill:#898d8d;}.cls-15{fill:#b9b9b9;}.cls-16{fill:#e65a00;}.cls-17{fill:#ff6d00;}.cls-18{fill:#414042;}.cls-19{fill:#58595b;}.cls-20{fill:#ff9141;}</style><clipPath id="clip-path"><rect class="cls-1" x="552.05" y="496.85" width="325" height="322.29"/></clipPath></defs><title>ilustracoes_caixa_am5SVG</title><polygon class="cls-2" points="960 256.5 469.09 539.93 469.09 610.79 960 894.21 1450.91 610.79 1450.91 539.93 960 256.5"/><line class="cls-3" x1="1271.98" y1="430.68" x2="1021.36" y2="574.45"/><polyline class="cls-3" points="1002.43 515.5 1144.13 433.79 960 327.43 776.13 433.79 837.27 469.14 653.3 575.36 714.54 610.86 898.71 504.62 917.5 515.46"/><polygon class="cls-4" points="960 894.21 469.09 610.79 469.09 539.93 960 823.36 960 894.21"/><polyline class="cls-3" points="945.73 586.91 809.64 665.32 960 752.47 1082.81 681.65 1082.56 610.4 1267.36 504.79 1177.52 453.04 1025.4 540.6"/><polyline class="cls-3" points="939.04 551.44 850.54 500.2 728.77 571.61 939.04 693.15 1061.88 622.36 999.92 586.59"/><polyline class="cls-3" points="1429.44 511.55 1126.09 686.75 730.13 460.14 591.7 539.93 530.34 575.36 530.34 652.04"/><polygon class="cls-5" points="960 894.21 1450.91 610.79 1450.91 539.93 960 823.36 960 894.21"/><polygon class="cls-6" points="518.43 639.28 543 653.54 534.38 662.91 514 647.54 518.43 639.28"/><polygon class="cls-6" points="1433.13 483.8 1405.84 513.81 1433.13 529.57 1439.13 499.8 1433.13 483.8"/><polygon class="cls-6" points="1282.63 396.8 1255.34 426.81 1282.63 442.57 1288.63 412.8 1282.63 396.8"/><line class="cls-7" x1="960" y1="42.75" x2="960" y2="96.56"/><line class="cls-7" x1="790.71" y1="265.85" x2="736.91" y2="265.85"/><line class="cls-7" x1="1183.09" y1="265.85" x2="1129.29" y2="265.85"/><line class="cls-7" x1="840.3" y1="385.55" x2="802.25" y2="423.6"/><line class="cls-7" x1="1117.75" y1="108.1" x2="1079.7" y2="146.14"/><line class="cls-7" x1="840.3" y1="146.14" x2="802.25" y2="108.1"/><line class="cls-7" x1="1117.75" y1="423.6" x2="1079.7" y2="385.55"/><line class="cls-7" x1="802.45" y1="327.77" x2="752.37" y2="347.45"/><line class="cls-7" x1="1167.63" y1="184.24" x2="1117.55" y2="203.93"/><line class="cls-7" x1="804.47" y1="199.01" x2="755.03" y2="177.76"/><line class="cls-7" x1="1164.97" y1="353.93" x2="1115.53" y2="332.69"/><line class="cls-7" x1="895.62" y1="422.41" x2="875.16" y2="472.18"/><line class="cls-7" x1="1044.84" y1="59.51" x2="1024.38" y2="109.28"/><line class="cls-7" x1="897.48" y1="108.53" x2="877.61" y2="58.52"/><line class="cls-7" x1="1042.39" y1="473.17" x2="1022.52" y2="423.17"/><path class="cls-5" d="M883.95,510.27v51.65c0,27.72,35.49,50.19,79.28,50.19s79.28-22.47,79.28-50.19V510.27Z"/><ellipse class="cls-4" cx="963.23" cy="510.27" rx="79.28" ry="50.19"/><ellipse class="cls-5" cx="963.23" cy="510.27" rx="54.6" ry="34.56"/><path class="cls-8" d="M1090.32,261.8A127.49,127.49,0,0,0,957.71,134.42c-65.17,2.55-118.56,55-122.16,120.14a127.27,127.27,0,0,0,51,109.36c21,15.69,33.81,39.94,33.81,66.13v44.23a42.49,42.49,0,0,0,42.49,42.49h0a42.49,42.49,0,0,0,42.49-42.49V430.76c0-26.55,13-51.14,34.17-67.11a127.24,127.24,0,0,0,50.82-101.84Z"/><path class="cls-9" d="M962.84,134.35V516.77a42.49,42.49,0,0,0,42.49-42.49V430.76c0-26.55,13-51.14,34.17-67.11a127.45,127.45,0,0,0-76.66-229.29Z"/><path class="cls-10" d="M920.34,431.78v42.5a42.49,42.49,0,0,0,42.49,42.49h0a42.49,42.49,0,0,0,42.49-42.49v-42.5Z"/><path class="cls-11" d="M962.84,431.78v85a42.49,42.49,0,0,0,42.49-42.49v-42.5Z"/><g class="cls-12"><path class="cls-13" d="M787.47,703.24,670.66,586.43a5.08,5.08,0,0,0-7.18,0l-19.15,19.15a5.08,5.08,0,0,0,0,7.18L761.14,729.57a5.08,5.08,0,0,0,7.18,0l19.15-19.15a5.08,5.08,0,0,0,0-7.18Z"/><path class="cls-13" d="M687.89,542.39l-44-44a5.08,5.08,0,0,0-7.18,0l-19.15,19.15a5.08,5.08,0,0,0,0,7.18l32.79,32.79-34.95,34.95-32.79-32.79a5.08,5.08,0,0,0-7.18,0l-19.15,19.15a5.08,5.08,0,0,0,0,7.18l44,44a5.08,5.08,0,0,0,3.59,1.49l.46,0,42.13-3.83a5.08,5.08,0,0,0,3.13-1.47l34.47-34.47a5.08,5.08,0,0,0,1.47-3.13l3.83-42.13a5.08,5.08,0,0,0-1.47-4Z"/><path class="cls-6" d="M658.16,544.08a5.06,5.06,0,0,1-3.59-1.49L641,529.06a5.08,5.08,0,1,1,7.18-7.18l13.54,13.54a5.08,5.08,0,0,1-3.59,8.67Z"/><path class="cls-13" d="M875.56,730l-44-44a5.08,5.08,0,0,0-4.05-1.47l-42.13,3.83a5.07,5.07,0,0,0-3.13,1.47L747.73,724.3a5.08,5.08,0,0,0-1.47,3.13l-3.83,42.13a5.08,5.08,0,0,0,1.47,4l44,44a5.08,5.08,0,0,0,7.18,0l19.15-19.15a5.08,5.08,0,0,0,0-7.18l-32.79-32.79,34.95-34.95,32.79,32.79a5.08,5.08,0,0,0,7.18,0l19.15-19.15a5.08,5.08,0,0,0,0-7.18Z"/></g><path class="cls-14" d="M654.23,595.68l-9.9,9.9a5.08,5.08,0,0,0,0,7.18L761.14,729.57a5.08,5.08,0,0,0,7.18,0l9.9-9.9-124-124Z"/><path class="cls-15" d="M633.17,574.61l-17.8,17.8-32.79-32.79a5.08,5.08,0,0,0-7.18,0l-19.15,19.15a5.08,5.08,0,0,0,0,7.18l44,44a5.08,5.08,0,0,0,3.59,1.49l.46,0,42.13-3.83a5.08,5.08,0,0,0,3.13-1.47l17.56-17.56-34-34Z"/><path class="cls-15" d="M747.74,724.3a5.08,5.08,0,0,0-1.47,3.13l-3.83,42.13a5.08,5.08,0,0,0,1.47,4l44,44a5.08,5.08,0,0,0,7.18,0l19.15-19.15a5.08,5.08,0,0,0,0-7.18l-32.79-32.79,17.8-17.8-34-34L747.74,724.3Z"/><path class="cls-13" d="M782.85,587.83l-15.32-15.32a5.08,5.08,0,0,0-7.18,0L658.86,674a5.08,5.08,0,0,0,0,7.18l15.32,15.32a5.08,5.08,0,0,0,7.18,0L782.85,595a5.08,5.08,0,0,0,0-7.18Z"/><path class="cls-13" d="M846,524.64l-15.32-15.32a5.08,5.08,0,0,0-5.69-1L782.9,527.44a5.06,5.06,0,0,0-1.49,1L748.86,561a5.08,5.08,0,0,0,0,7.18l38.3,38.3a5.08,5.08,0,0,0,7.18,0l32.55-32.55a5.07,5.07,0,0,0,1-1.49l19.15-42.13a5.07,5.07,0,0,0-1-5.69Z"/><path class="cls-16" d="M679.44,725.71l-49.79-49.79a5.08,5.08,0,0,0-7.18,0l-59.36,59.36a5.08,5.08,0,0,0,0,7.18l49.79,49.79a5.08,5.08,0,0,0,7.18,0l59.36-59.36a5.08,5.08,0,0,0,0-7.18Z"/><path class="cls-17" d="M629.65,675.92a5.08,5.08,0,0,0-7.18,0l-59.36,59.36a5.08,5.08,0,0,0,0,7.18l24.68,24.69,66.54-66.54-24.69-24.69Z"/><polygon class="cls-18" points="650.95 697.22 658.13 704.4 591.59 770.95 584.41 763.76 650.95 697.22 650.95 697.22"/><polygon class="cls-18" points="664.36 710.63 671.54 717.81 606.91 782.43 599.73 775.25 664.36 710.63 664.36 710.63"/><polygon class="cls-19" points="637.55 683.82 644.73 691 580.11 755.63 572.92 748.45 637.55 683.82 637.55 683.82"/><polygon class="cls-19" points="584.41 763.76 650.96 697.22 654.34 700.6 587.79 767.14 584.41 763.76 584.41 763.76"/><path class="cls-14" d="M775,580,666.31,688.64l7.87,7.87a5.08,5.08,0,0,0,7.18,0L782.85,595a5.08,5.08,0,0,0,0-7.18L775,580Z"/><g class="cls-12"><path class="cls-15" d="M838.17,516.77,767.8,587.14l19.36,19.36a5.08,5.08,0,0,0,7.18,0l32.55-32.55a5.07,5.07,0,0,0,1-1.49l19.15-42.13a5.08,5.08,0,0,0-1-5.69l-7.87-7.87Z"/><path class="cls-17" d="M599.25,803.31a5.06,5.06,0,0,0,2.46-.64L619,793.1l-56.69-56.69-9.57,17.23a5.08,5.08,0,0,0,.85,6.06l42.13,42.13a5.07,5.07,0,0,0,3.59,1.49Z"/><path class="cls-20" d="M562.26,736.41l-9.57,17.23a5.08,5.08,0,0,0,.85,6.06l20.86,20.86,16-16-28.14-28.14Z"/></g><path class="cls-17" d="M656.46,664.43a5.08,5.08,0,0,0-5.59-1.08l-26.81,11.49,56.46,56.46L692,704.49a5.08,5.08,0,0,0-1.08-5.59l-34.47-34.47Z"/><path class="cls-20" d="M656.46,664.43a5.08,5.08,0,0,0-5.59-1.08l-26.81,11.49,28,28,21.41-21.41-17-17Z"/><path class="cls-6" d="M776.48,570a5.08,5.08,0,0,1-3.59-8.67l16.25-16.25a5.08,5.08,0,1,1,7.18,7.18l-16.25,16.25a5.06,5.06,0,0,1-3.59,1.49Z"/></svg>