<svg id="Layer_1" data-name="Layer 1" xmlns="http://www.w3.org/2000/svg" xmlns:xlink="http://www.w3.org/1999/xlink" viewBox="0 0 1920 1080"><defs><style>.cls-1,.cls-2,.cls-3{fill:none;}.cls-1{clip-rule:evenodd;}.cls-3{fill-rule:evenodd;}.cls-4{clip-path:url(#clip-path);}.cls-5{clip-path:url(#clip-path-2);}.cls-6{clip-path:url(#clip-path-3);}.cls-7{clip-path:url(#clip-path-4);}.cls-8{clip-path:url(#clip-path-5);}.cls-9{clip-path:url(#clip-path-6);}.cls-10{clip-path:url(#clip-path-7);}.cls-11{clip-path:url(#clip-path-8);}.cls-12{clip-path:url(#clip-path-9);}.cls-13{clip-path:url(#clip-path-10);}.cls-14{clip-path:url(#clip-path-11);}.cls-15{clip-path:url(#clip-path-12);}.cls-16{clip-path:url(#clip-path-13);}.cls-17{clip-path:url(#clip-path-14);}.cls-18{clip-path:url(#clip-path-15);}.cls-19{clip-path:url(#clip-path-16);}.cls-20{clip-path:url(#clip-path-17);}.cls-21{clip-path:url(#clip-path-18);}.cls-22{clip-path:url(#clip-path-19);}.cls-23{clip-path:url(#clip-path-20);}.cls-24{clip-path:url(#clip-path-21);}.cls-25{clip-path:url(#clip-path-22);}.cls-26{clip-path:url(#clip-path-23);}.cls-27{clip-path:url(#clip-path-24);}.cls-28{clip-path:url(#clip-path-25);}.cls-29{clip-path:url(#clip-path-26);}.cls-30{clip-path:url(#clip-path-27);}.cls-31{clip-path:url(#clip-path-28);}.cls-32{clip-path:url(#clip-path-29);}.cls-33{clip-path:url(#clip-path-30);}.cls-34{clip-path:url(#clip-path-31);}.cls-35{clip-path:url(#clip-path-32);}.cls-36{clip-path:url(#clip-path-33);}.cls-37{clip-path:url(#clip-path-34);}.cls-38{clip-path:url(#clip-path-35);}.cls-39{clip-path:url(#clip-path-36);}.cls-40{clip-path:url(#clip-path-37);}.cls-41{clip-path:url(#clip-path-38);}.cls-42{clip-path:url(#clip-path-39);}.cls-43{clip-path:url(#clip-path-40);}.cls-44{clip-path:url(#clip-path-41);}.cls-45{clip-path:url(#clip-path-42);}.cls-46{clip-path:url(#clip-path-43);}.cls-47{clip-path:url(#clip-path-44);}.cls-48{clip-path:url(#clip-path-45);}.cls-49{clip-path:url(#clip-path-46);}.cls-50{clip-path:url(#clip-path-47);}.cls-51{clip-path:url(#clip-path-48);}.cls-52{clip-path:url(#clip-path-49);}.cls-53{clip-path:url(#clip-path-50);}.cls-54{clip-path:url(#clip-path-51);}.cls-55{clip-path:url(#clip-path-52);}.cls-56{clip-path:url(#clip-path-53);}.cls-57{clip-path:url(#clip-path-54);}.cls-58{clip-path:url(#clip-path-55);}.cls-59{clip-path:url(#clip-path-56);}.cls-60{clip-path:url(#clip-path-57);}.cls-61{clip-path:url(#clip-path-58);}.cls-62{clip-path:url(#clip-path-59);}.cls-63{clip-path:url(#clip-path-60);}.cls-64{clip-path:url(#clip-path-61);}.cls-65{clip-path:url(#clip-path-62);}.cls-66{clip-path:url(#clip-path-63);}.cls-67{clip-path:url(#clip-path-64);}.cls-68{clip-path:url(#clip-path-65);}.cls-69{clip-path:url(#clip-path-66);}.cls-70{clip-path:url(#clip-path-67);}.cls-71{clip-path:url(#clip-path-68);}.cls-72{clip-path:url(#clip-path-69);}.cls-73{clip-path:url(#clip-path-70);}.cls-74{clip-path:url(#clip-path-71);}.cls-75{clip-path:url(#clip-path-72);}.cls-76{clip-path:url(#clip-path-73);}.cls-77{clip-path:url(#clip-path-74);}.cls-78{clip-path:url(#clip-path-75);}.cls-79{clip-path:url(#clip-path-76);}.cls-80{clip-path:url(#clip-path-77);}.cls-81{clip-path:url(#clip-path-78);}.cls-82{clip-path:url(#clip-path-79);}.cls-83{clip-path:url(#clip-path-80);}.cls-84{clip-path:url(#clip-path-81);}.cls-85{clip-path:url(#clip-path-82);}.cls-86{clip-path:url(#clip-path-83);}.cls-87{clip-path:url(#clip-path-84);}.cls-88{clip-path:url(#clip-path-85);}.cls-89{clip-path:url(#clip-path-86);}.cls-90{clip-path:url(#clip-path-87);}.cls-91{clip-path:url(#clip-path-88);}.cls-92{clip-path:url(#clip-path-89);}.cls-93{clip-path:url(#clip-path-90);}.cls-94{clip-path:url(#clip-path-91);}.cls-95{clip-path:url(#clip-path-92);}.cls-96{clip-path:url(#clip-path-93);}.cls-97{clip-path:url(#clip-path-94);}.cls-98{clip-path:url(#clip-path-95);}.cls-99{clip-path:url(#clip-path-96);}.cls-100{clip-path:url(#clip-path-97);}.cls-101{clip-path:url(#clip-path-98);}.cls-102{clip-path:url(#clip-path-99);}.cls-103{clip-path:url(#clip-path-100);}.cls-104{clip-path:url(#clip-path-101);}.cls-105{clip-path:url(#clip-path-102);}.cls-106{clip-path:url(#clip-path-103);}.cls-107{clip-path:url(#clip-path-104);}.cls-108{clip-path:url(#clip-path-105);}.cls-109{clip-path:url(#clip-path-106);}.cls-110{clip-path:url(#clip-path-107);}.cls-111{clip-path:url(#clip-path-108);}.cls-112{clip-path:url(#clip-path-109);}.cls-113{clip-path:url(#clip-path-110);}.cls-114{clip-path:url(#clip-path-111);}.cls-115{clip-path:url(#clip-path-112);}.cls-116{clip-path:url(#clip-path-113);}.cls-117{clip-path:url(#clip-path-114);}.cls-118{clip-path:url(#clip-path-115);}.cls-119{clip-path:url(#clip-path-116);}.cls-120{clip-path:url(#clip-path-117);}.cls-121{clip-path:url(#clip-path-118);}.cls-122{clip-path:url(#clip-path-119);}.cls-123{clip-path:url(#clip-path-120);}.cls-124{clip-path:url(#clip-path-121);}.cls-125{clip-path:url(#clip-path-122);}.cls-126{clip-path:url(#clip-path-123);}.cls-127{clip-path:url(#clip-path-124);}.cls-128{clip-path:url(#clip-path-125);}.cls-129{clip-path:url(#clip-path-126);}.cls-130{clip-path:url(#clip-path-127);}.cls-131{clip-path:url(#clip-path-128);}.cls-132{clip-path:url(#clip-path-129);}.cls-133{clip-path:url(#clip-path-130);}.cls-134{clip-path:url(#clip-path-131);}.cls-135{clip-path:url(#clip-path-132);}.cls-136{clip-path:url(#clip-path-133);}.cls-137{clip-path:url(#clip-path-134);}.cls-138{clip-path:url(#clip-path-135);}.cls-139{clip-path:url(#clip-path-136);}.cls-140{clip-path:url(#clip-path-137);}.cls-141{clip-path:url(#clip-path-138);}.cls-142{clip-path:url(#clip-path-139);}.cls-143{clip-path:url(#clip-path-140);}.cls-144{clip-path:url(#clip-path-141);}.cls-145{clip-path:url(#clip-path-142);}.cls-146{clip-path:url(#clip-path-143);}.cls-147{clip-path:url(#clip-path-144);}.cls-148{clip-path:url(#clip-path-145);}.cls-149{clip-path:url(#clip-path-146);}.cls-150{clip-path:url(#clip-path-147);}.cls-151{clip-path:url(#clip-path-148);}.cls-152{clip-path:url(#clip-path-149);}.cls-153{clip-path:url(#clip-path-150);}.cls-154{clip-path:url(#clip-path-151);}.cls-155{clip-path:url(#clip-path-152);}.cls-156{clip-path:url(#clip-path-153);}.cls-157{clip-path:url(#clip-path-154);}.cls-158{clip-path:url(#clip-path-155);}.cls-159{clip-path:url(#clip-path-156);}.cls-160{clip-path:url(#clip-path-157);}.cls-161{clip-path:url(#clip-path-158);}.cls-162{clip-path:url(#clip-path-159);}.cls-163{clip-path:url(#clip-path-160);}.cls-164{clip-path:url(#clip-path-161);}.cls-165{clip-path:url(#clip-path-162);}.cls-166{clip-path:url(#clip-path-163);}.cls-167{clip-path:url(#clip-path-164);}.cls-168{clip-path:url(#clip-path-165);}.cls-169{clip-path:url(#clip-path-166);}.cls-170{clip-path:url(#clip-path-167);}.cls-171{clip-path:url(#clip-path-168);}.cls-172{clip-path:url(#clip-path-169);}.cls-173{clip-path:url(#clip-path-170);}.cls-174{clip-path:url(#clip-path-171);}.cls-175{clip-path:url(#clip-path-172);}.cls-176{clip-path:url(#clip-path-173);}.cls-177{clip-path:url(#clip-path-174);}.cls-178{clip-path:url(#clip-path-175);}.cls-179{clip-path:url(#clip-path-176);}.cls-180{clip-path:url(#clip-path-177);}.cls-181{clip-path:url(#clip-path-178);}.cls-182{clip-path:url(#clip-path-179);}.cls-183{clip-path:url(#clip-path-180);}.cls-184{clip-path:url(#clip-path-181);}.cls-185{clip-path:url(#clip-path-182);}.cls-186{clip-path:url(#clip-path-183);}.cls-187{clip-path:url(#clip-path-184);}.cls-188{clip-path:url(#clip-path-185);}.cls-189{clip-path:url(#clip-path-186);}.cls-190{clip-path:url(#clip-path-187);}.cls-191{clip-path:url(#clip-path-188);}.cls-192{clip-path:url(#clip-path-189);}.cls-193{clip-path:url(#clip-path-190);}.cls-194{clip-path:url(#clip-path-191);}.cls-195{clip-path:url(#clip-path-192);}.cls-196{clip-path:url(#clip-path-193);}.cls-197{clip-path:url(#clip-path-194);}.cls-198{clip-path:url(#clip-path-195);}.cls-199{clip-path:url(#clip-path-196);}.cls-200{clip-path:url(#clip-path-197);}.cls-201{clip-path:url(#clip-path-198);}.cls-202{clip-path:url(#clip-path-199);}.cls-203{clip-path:url(#clip-path-200);}.cls-204{clip-path:url(#clip-path-201);}.cls-205{clip-path:url(#clip-path-202);}.cls-206{clip-path:url(#clip-path-203);}.cls-207{clip-path:url(#clip-path-204);}.cls-208{clip-path:url(#clip-path-205);}.cls-209{clip-path:url(#clip-path-206);}.cls-210{clip-path:url(#clip-path-207);}.cls-211{clip-path:url(#clip-path-208);}.cls-212{clip-path:url(#clip-path-209);}.cls-213{clip-path:url(#clip-path-210);}.cls-214{clip-path:url(#clip-path-211);}.cls-215{clip-path:url(#clip-path-212);}.cls-216{clip-path:url(#clip-path-213);}.cls-217{clip-path:url(#clip-path-214);}.cls-218{clip-path:url(#clip-path-215);}.cls-219{clip-path:url(#clip-path-216);}.cls-220{clip-path:url(#clip-path-217);}.cls-221{clip-path:url(#clip-path-218);}.cls-222{clip-path:url(#clip-path-219);}.cls-223{clip-path:url(#clip-path-220);}.cls-224{clip-path:url(#clip-path-221);}.cls-225{clip-path:url(#clip-path-222);}.cls-226{clip-path:url(#clip-path-223);}.cls-227{clip-path:url(#clip-path-224);}.cls-228{clip-path:url(#clip-path-225);}.cls-229{clip-path:url(#clip-path-226);}.cls-230{clip-path:url(#clip-path-227);}.cls-231{clip-path:url(#clip-path-228);}.cls-232{clip-path:url(#clip-path-229);}.cls-233{clip-path:url(#clip-path-230);}.cls-234{clip-path:url(#clip-path-231);}.cls-235{clip-path:url(#clip-path-232);}.cls-236{clip-path:url(#clip-path-233);}.cls-237{clip-path:url(#clip-path-234);}.cls-238{clip-path:url(#clip-path-235);}.cls-239{clip-path:url(#clip-path-236);}.cls-240{clip-path:url(#clip-path-237);}.cls-241{clip-path:url(#clip-path-238);}.cls-242{clip-path:url(#clip-path-239);}.cls-243{clip-path:url(#clip-path-240);}.cls-244{clip-path:url(#clip-path-241);}.cls-245{clip-path:url(#clip-path-242);}.cls-246{clip-path:url(#clip-path-243);}.cls-247{clip-path:url(#clip-path-262);}.cls-248{clip-path:url(#clip-path-263);}.cls-249{clip-path:url(#clip-path-264);}.cls-250{clip-path:url(#clip-path-265);}.cls-251{clip-path:url(#clip-path-266);}.cls-252{clip-path:url(#clip-path-267);}.cls-253{clip-path:url(#clip-path-268);}.cls-254{clip-path:url(#clip-path-269);}.cls-255{clip-path:url(#clip-path-270);}.cls-256{clip-path:url(#clip-path-271);}.cls-257{clip-path:url(#clip-path-272);}.cls-258{clip-path:url(#clip-path-273);}.cls-259{clip-path:url(#clip-path-274);}.cls-260{clip-path:url(#clip-path-275);}.cls-261{clip-path:url(#clip-path-276);}.cls-262{clip-path:url(#clip-path-277);}.cls-263{clip-path:url(#clip-path-278);}.cls-264{clip-path:url(#clip-path-279);}.cls-265{clip-path:url(#clip-path-280);}.cls-266{clip-path:url(#clip-path-281);}.cls-267{fill:#ffbc00;}.cls-268{clip-path:url(#clip-path-282);}.cls-269{fill:#ffce00;}.cls-270{clip-path:url(#clip-path-284);}.cls-271{clip-path:url(#clip-path-286);}.cls-272{fill:#500778;}.cls-273{clip-path:url(#clip-path-288);}.cls-274{fill:#733791;}.cls-275{clip-path:url(#clip-path-290);}.cls-276{fill:#8c5fa5;}.cls-277{clip-path:url(#clip-path-292);}.cls-278{fill:#ff6d00;}.cls-279{clip-path:url(#clip-path-294);}.cls-280{fill:#ff9141;}.cls-281{clip-path:url(#clip-path-296);}.cls-282{clip-path:url(#clip-path-298);}.cls-283{fill:#64c8c3;}.cls-284{clip-path:url(#clip-path-300);}.cls-285{fill:#007062;}.cls-286{clip-path:url(#clip-path-302);}.cls-287{fill:#41b9b4;}.cls-288{clip-path:url(#clip-path-304);}.cls-289{fill:#025b4e;}.cls-290{clip-path:url(#clip-path-306);}.cls-291{fill:#00a499;}.cls-292{clip-path:url(#clip-path-308);}.cls-293{fill:#683184;}.cls-294{clip-path:url(#clip-path-310);}.cls-295{clip-path:url(#clip-path-312);}.cls-296{clip-path:url(#clip-path-314);}.cls-297{clip-path:url(#clip-path-316);}</style><clipPath id="clip-path"><polygon class="cls-1" points="469.7 -834.88 469.7 -763.89 961.57 -479.91 1453.43 -763.89 1453.43 -834.88 961.57 -1118.86 469.7 -834.88"/></clipPath><clipPath id="clip-path-2"><polygon class="cls-1" points="961.57 -479.91 469.7 -763.89 469.7 -834.88 961.57 -550.9 961.57 -479.91"/></clipPath><clipPath id="clip-path-3"><polygon class="cls-1" points="1207.5 -479.91 1453.43 -479.91 1453.43 -834.88 961.57 -834.88 961.57 -479.91 1207.5 -479.91"/></clipPath><clipPath id="clip-path-4"><polygon class="cls-1" points="1023.05 -728.39 777.12 -870.38 777.12 -1083.37 1023.05 -941.38 1023.05 -728.39"/></clipPath><clipPath id="clip-path-5"><polygon class="cls-1" points="1124.01 -1095.6 1023.05 -941.4 1023.05 -728.41 1207.5 -834.91 1207.5 -1047.87 1124.01 -1095.6"/></clipPath><clipPath id="clip-path-6"><polygon class="cls-1" points="760.34 -1058.4 869.29 -1243.14 1124.01 -1095.6 1006.28 -916.41 760.34 -1058.4"/></clipPath><clipPath id="clip-path-7"><polygon class="cls-1" points="1084.5 -763.89 1084.5 -905.9 1146.02 -941.38 1146.02 -799.41 1084.5 -763.89"/></clipPath><clipPath id="clip-path-8"><polygon class="cls-1" points="930.82 -923.76 930.82 -852.76 992.31 -817.27 992.31 -888.26 930.82 -923.76"/></clipPath><clipPath id="clip-path-9"><polygon class="cls-1" points="808.09 -994.62 808.09 -923.63 869.57 -888.13 869.57 -959.13 808.09 -994.62"/></clipPath><clipPath id="clip-path-10"><rect class="cls-2" x="469.7" y="-1307.56" width="983.74" height="827.65"/></clipPath><clipPath id="clip-path-11"><path class="cls-1" d="M726.27-798.11H557.09s-25.22,113.66,32.53,213.91h21.57S512.27-760,641.68-760s30.49,175.77,30.49,175.77h21.57c57.74-100.26,32.53-213.91,32.53-213.91"/></clipPath><clipPath id="clip-path-12"><path class="cls-1" d="M704.08-1000.35h-.19a99.33,99.33,0,0,0-93.91,67l.47-.1a99.32,99.32,0,0,1,93.63-66.92"/></clipPath><clipPath id="clip-path-13"><path class="cls-1" d="M708.16-1000.24c.91,0,1.82,0,2.73.07-.9,0-1.82,0-2.73-.07"/></clipPath><clipPath id="clip-path-14"><path class="cls-1" d="M704.13-975.73a27.82,27.82,0,0,1,3.41.25,28,28,0,0,0-3.21-.27l-.2,0"/></clipPath><clipPath id="clip-path-15"><path class="cls-1" d="M704.32-1000.35h-.24a33.32,33.32,0,0,1,4.08.32,32.85,32.85,0,0,0-3.83-.33"/></clipPath><clipPath id="clip-path-16"><path class="cls-1" d="M708.7-975.62c-.46,0-.93,0-1.4,0l1.4,0"/></clipPath><clipPath id="clip-path-17"><path class="cls-1" d="M639.76-939.33l-29.32,5.91,0,.09,29.79-6a74.73,74.73,0,0,1,63.93-36.41h-.25a74.74,74.74,0,0,0-64.12,36.42"/></clipPath><clipPath id="clip-path-18"><path class="cls-1" d="M746.86-990.79a98.8,98.8,0,0,0-37.81-9.42,98.76,98.76,0,0,1,37.74,9.59Z"/></clipPath><clipPath id="clip-path-19"><path class="cls-1" d="M746.79-990.63a98.76,98.76,0,0,0-37.74-9.59l-.89,0c-1.35-.06-2.71-.1-4.08-.1a99.32,99.32,0,0,0-93.63,66.92l29.32-5.91a74.73,74.73,0,0,1,64.12-36.42h.44c1,0,2,0,3,.09h.46a74.21,74.21,0,0,1,29.42,7.53Z"/></clipPath><clipPath id="clip-path-20"><path class="cls-1" d="M579.79-1000.35a98.91,98.91,0,0,0-42.54,9.56l9.68,22.68a74.24,74.24,0,0,1,32.86-7.63,74.73,74.73,0,0,1,64.12,36.42l29.79,6a99.33,99.33,0,0,0-93.91-67"/></clipPath><clipPath id="clip-path-21"><path class="cls-1" d="M480.48-901a99.29,99.29,0,0,0,54.62,88.68l8-23.65a74.74,74.74,0,0,1-38-65,74.79,74.79,0,0,1,41.85-67.08l-9.68-22.68A99.31,99.31,0,0,0,480.48-901"/></clipPath><clipPath id="clip-path-22"><path class="cls-1" d="M557.22-1074.28s2.22,38.32,19.87,51l-2.85-24.47Z"/></clipPath><clipPath id="clip-path-23"><path class="cls-1" d="M727.14-1074.28s-2.22,38.32-19.87,51l2.85-24.47Z"/></clipPath><clipPath id="clip-path-24"><path class="cls-1" d="M642.18-985.19l-38.65-21.75s-38.28,136.5-46.45,208.83h85.09Z"/></clipPath><clipPath id="clip-path-25"><path class="cls-1" d="M641.68-985.19l38.65-21.75s38.28,136.5,46.44,208.83H641.68Z"/></clipPath><clipPath id="clip-path-26"><path class="cls-1" d="M642.18-990.53H612s13.48,30.31,30.18,34c16.69-3.64,30.18-34,30.18-34Z"/></clipPath><clipPath id="clip-path-27"><path class="cls-1" d="M642.18-1011.7,612-990.53s15.89,20.64,30.18,20.64c4.39,0,19.7-6.63,30.18-20.64Z"/></clipPath><clipPath id="clip-path-28"><path class="cls-1" d="M576.34-1074.28a13.52,13.52,0,0,0-19.12,0,13.52,13.52,0,0,0,0,19.12,13.52,13.52,0,0,0,19.12,0,13.52,13.52,0,0,0,0-19.12"/></clipPath><clipPath id="clip-path-29"><path class="cls-1" d="M727.14-1074.28a13.52,13.52,0,0,0-19.12,0,13.52,13.52,0,0,0,0,19.12,13.52,13.52,0,0,0,19.12,0,13.52,13.52,0,0,0,0-19.12"/></clipPath><clipPath id="clip-path-30"><path class="cls-1" d="M657.49-985.17c20.92-7.23,42.66-17.84,52.7-37.56,6.94-13.63,7.19-29.55,7.34-44.85.1-11,.2-22.2-1.46-33a80.56,80.56,0,0,0-3.84-15.41c-6.89-18.91-22.48-34.29-41.22-41.65a77,77,0,0,0-28.82-5.19l-13.38,116.58L642.18-982c.34,0,.67,0,1,0,4.91-.12,9.66-1.64,14.3-3.24"/></clipPath><clipPath id="clip-path-31"><path class="cls-1" d="M612.47-1156.8c-14,5.73-26.6,15.54-34.29,28.58-10.39,17.64-11.08,39.16-11,59.63.08,18.65.89,39.38,12.92,54.71s33.42,25.37,51.74,30.22a44.49,44.49,0,0,0,10.74,1.71l-5.47-65.8,16-5.47-10.54-109.63a81.81,81.81,0,0,0-30.11,6"/></clipPath><clipPath id="clip-path-32"><path class="cls-1" d="M620.68-1083.85a5.68,5.68,0,0,0-5.68-5.68,5.68,5.68,0,0,0-5.68,5.68,5.68,5.68,0,0,0,5.68,5.68,5.68,5.68,0,0,0,5.68-5.68"/></clipPath><clipPath id="clip-path-33"><path class="cls-1" d="M677.36-1083.85a5.68,5.68,0,0,0-5.68-5.68,5.68,5.68,0,0,0-5.68,5.68,5.68,5.68,0,0,0,5.68,5.68,5.68,5.68,0,0,0,5.68-5.68"/></clipPath><clipPath id="clip-path-34"><path class="cls-1" d="M696.45-1058.4c0,3.49-5.59,6.32-12.5,6.32s-12.5-2.83-12.5-6.32,5.6-6.32,12.5-6.32,12.5,2.83,12.5,6.32"/></clipPath><clipPath id="clip-path-35"><path class="cls-1" d="M590.63-1058.4c0,3.49,5.59,6.32,12.5,6.32s12.5-2.83,12.5-6.32-5.59-6.32-12.5-6.32-12.5,2.83-12.5,6.32"/></clipPath><clipPath id="clip-path-36"><polygon class="cls-1" points="636.71 -1047.79 659.21 -1047.79 652.72 -1053.22 636.71 -1047.79"/></clipPath><clipPath id="clip-path-37"><path class="cls-1" d="M709.09-836h31.5l8,23.65c-7,12.09-22,14.25-22,14.25l-4.23-29.07H709.54a4.29,4.29,0,0,1-.45,0,4.44,4.44,0,0,1-4.44-4.44,4.44,4.44,0,0,1,4.44-4.44"/></clipPath><clipPath id="clip-path-38"><path class="cls-1" d="M675.8-1173.36v.63c-1.4,2.61-14.12,25.71-31.09,38.37-6.36,4.74-13.31,8-20.49,8.19h43c5.45.12,8.6,2.1,10.92,4.58,4.22,4.53,5.6,10.79,12.66,10.79a14.59,14.59,0,0,1,10.18,3.57c4.72,4.25,5.2,10.78,5.2,10.78v31.72H718q0-1.94,0-3.86c0-3.18,0-6.38-.06-9.59a13.44,13.44,0,0,1,7.64,2.65l1.52,1.24s0,0,0,0l.19.23a272.17,272.17,0,0,0,1.88-29.41c0-34.92-22.12-60-53.41-69.85"/></clipPath><clipPath id="clip-path-39"><path class="cls-1" d="M656.35-1179.14a138.83,138.83,0,0,0-14.46,0c-2.54.13-5.09.32-7.62.6a103.49,103.49,0,0,0-11,1.79c-.34.08-1.08.36-1.84.61l-1.94.36h0a94.45,94.45,0,0,0-16.26,4.67c-28.22,11-47.71,35.09-47.66,67.84,0,6.94.65,19.13,1.67,27.6,0,.48,0,.92,0,1.4l.15-.12c0,.17,0,.37.06.53.12-.13.21-.28.34-.41a13.29,13.29,0,0,1,8.26-3.8c.41,0,.81-.09,1.22-.07-.06,3.2-.07,6.4-.06,9.57q0,1.92,0,3.86H579v-31.72a19.1,19.1,0,0,1,2.08-6.74l2.46-3.38.06-.08c2.29-2.34,5.72-3.53,10.78-4.16s7-6.29,11.45-10.56a16.9,16.9,0,0,1,12.13-4.82s27,.1,30.85,0c38.27-.86,53.1-26.93,58.85-41.24,1.28-3.18,2.11-5.79,2.64-7.4a30.72,30.72,0,0,0,1-4.32Z"/></clipPath><clipPath id="clip-path-40"><path class="cls-1" d="M706.14-1064.72c0,22.32-40.76,22.93-58.52,22.13H637.55c-17.76.79-58.52.18-58.52-22.13h-11.8c.21,17.61,1.68,36.57,12.89,50.84,11.95,15.23,33.42,25.37,51.74,30.22a44.44,44.44,0,0,0,10.74,1.71,44.44,44.44,0,0,0,10.74-1.71c18.31-4.86,39.79-15,51.74-30.22,11.2-14.27,12.67-33.24,12.89-50.84h-11.8Z"/></clipPath><clipPath id="clip-path-41"><path class="cls-1" d="M642.18-999a34.8,34.8,0,0,0,34.8-34.8H607.38a34.8,34.8,0,0,0,34.8,34.8"/></clipPath><clipPath id="clip-path-42"><path class="cls-1" d="M746.79-990.63l-9.61,22.51a74.21,74.21,0,0,0-29.42-7.53A74.8,74.8,0,0,1,778.59-901a74.74,74.74,0,0,1-38,65l8,23.65A99.29,99.29,0,0,0,803.19-901a99.32,99.32,0,0,0-56.41-89.59"/></clipPath><clipPath id="clip-path-43"><path class="cls-1" d="M619.5-1066a1.7,1.7,0,0,0-1.71-1.7,1.7,1.7,0,0,0-1.7,1.7,1.71,1.71,0,0,0,1.7,1.7,1.71,1.71,0,0,0,1.71-1.7"/></clipPath><clipPath id="clip-path-44"><path class="cls-1" d="M605.83-1071.51a1.7,1.7,0,0,0-1.7-1.7,1.7,1.7,0,0,0-1.71,1.7,1.7,1.7,0,0,0,1.71,1.7,1.7,1.7,0,0,0,1.7-1.7"/></clipPath><clipPath id="clip-path-45"><path class="cls-1" d="M630.43-1071.51a1.7,1.7,0,0,0-1.7-1.7,1.7,1.7,0,0,0-1.71,1.7,1.7,1.7,0,0,0,1.71,1.7,1.7,1.7,0,0,0,1.7-1.7"/></clipPath><clipPath id="clip-path-46"><path class="cls-1" d="M608.56-1063.31a1.71,1.71,0,0,0-1.71-1.71,1.71,1.71,0,0,0-1.7,1.71,1.7,1.7,0,0,0,1.7,1.7,1.7,1.7,0,0,0,1.71-1.7"/></clipPath><clipPath id="clip-path-47"><path class="cls-1" d="M600.36-1057.85a1.71,1.71,0,0,0-1.71-1.71,1.71,1.71,0,0,0-1.7,1.71,1.7,1.7,0,0,0,1.7,1.7,1.7,1.7,0,0,0,1.71-1.7"/></clipPath><clipPath id="clip-path-48"><path class="cls-1" d="M625-1057.85a1.71,1.71,0,0,0-1.7-1.71,1.71,1.71,0,0,0-1.71,1.71,1.7,1.7,0,0,0,1.71,1.7,1.7,1.7,0,0,0,1.7-1.7"/></clipPath><clipPath id="clip-path-49"><path class="cls-1" d="M671.4-1066a1.7,1.7,0,0,1,1.7-1.7,1.7,1.7,0,0,1,1.71,1.7,1.71,1.71,0,0,1-1.71,1.7,1.71,1.71,0,0,1-1.7-1.7"/></clipPath><clipPath id="clip-path-50"><path class="cls-1" d="M685.06-1071.51a1.7,1.7,0,0,1,1.7-1.7,1.7,1.7,0,0,1,1.71,1.7,1.7,1.7,0,0,1-1.71,1.7,1.7,1.7,0,0,1-1.7-1.7"/></clipPath><clipPath id="clip-path-51"><path class="cls-1" d="M660.46-1071.51a1.7,1.7,0,0,1,1.7-1.7,1.7,1.7,0,0,1,1.71,1.7,1.7,1.7,0,0,1-1.71,1.7,1.7,1.7,0,0,1-1.7-1.7"/></clipPath><clipPath id="clip-path-52"><path class="cls-1" d="M682.33-1063.31A1.71,1.71,0,0,1,684-1065a1.71,1.71,0,0,1,1.7,1.71,1.7,1.7,0,0,1-1.7,1.7,1.7,1.7,0,0,1-1.71-1.7"/></clipPath><clipPath id="clip-path-53"><path class="cls-1" d="M690.53-1057.85a1.71,1.71,0,0,1,1.7-1.71,1.71,1.71,0,0,1,1.71,1.71,1.7,1.7,0,0,1-1.71,1.7,1.7,1.7,0,0,1-1.7-1.7"/></clipPath><clipPath id="clip-path-54"><path class="cls-1" d="M665.93-1057.85a1.71,1.71,0,0,1,1.7-1.71,1.71,1.71,0,0,1,1.71,1.71,1.7,1.7,0,0,1-1.71,1.7,1.7,1.7,0,0,1-1.7-1.7"/></clipPath><clipPath id="clip-path-55"><path class="cls-1" d="M557.09-798.11s-25.22,113.66,32.53,213.91h21.57S512.27-760,641.68-760v-38.15Z"/></clipPath><clipPath id="clip-path-56"><path class="cls-1" d="M726.27-798.11s25.22,113.66-32.53,213.91H672.17S771.09-760,641.68-760v-38.15Z"/></clipPath><clipPath id="clip-path-57"><path class="cls-1" d="M617.16-581.25a7.84,7.84,0,0,0-6.13-2.95H589.61S575.85-578,568.53-586a10.77,10.77,0,0,0-8.43-4.05,10.79,10.79,0,0,0-10.79,10.79,10.79,10.79,0,0,0,10.79,10.79H611a7.85,7.85,0,0,0,7.85-7.85,7.82,7.82,0,0,0-1.72-4.9"/></clipPath><clipPath id="clip-path-58"><path class="cls-1" d="M666.21-581.25a7.84,7.84,0,0,1,6.13-2.95h21.42s13.76,6.2,21.08-1.82a10.77,10.77,0,0,1,8.43-4.05,10.79,10.79,0,0,1,10.79,10.79,10.79,10.79,0,0,1-10.79,10.79H672.34a7.85,7.85,0,0,1-7.85-7.85,7.82,7.82,0,0,1,1.72-4.9"/></clipPath><clipPath id="clip-path-59"><path class="cls-1" d="M574.58-836h-31.5l-8,23.65c7,12.09,22,14.25,22,14.25l4.23-29.07h12.82a4.29,4.29,0,0,0,.45,0,4.44,4.44,0,0,0,4.44-4.44,4.44,4.44,0,0,0-4.44-4.44"/></clipPath><clipPath id="clip-path-60"><rect class="cls-2" x="1244.43" y="-1147.39" width="92.62" height="181.23"/></clipPath><clipPath id="clip-path-61"><rect class="cls-2" x="1333.1" y="-1147.39" width="92.6" height="181.28"/></clipPath><clipPath id="clip-path-62"><path class="cls-1" d="M1413.31-784.79H1256.63s-23.35,105.26,30.12,198.11h20S1215.12-749.46,1335-749.46s28.24,162.78,28.24,162.78h20c53.48-92.85,30.12-198.11,30.12-198.11"/></clipPath><clipPath id="clip-path-63"><path class="cls-1" d="M1256.63-784.79s-23.35,105.26,30.12,198.11h20S1215.12-749.46,1335-749.46v-35.33Z"/></clipPath><clipPath id="clip-path-64"><path class="cls-1" d="M1413.31-784.79s23.35,105.26-30.12,198.11h-20s91.61-162.78-28.24-162.78v-35.33Z"/></clipPath><clipPath id="clip-path-65"><path class="cls-1" d="M1312.27-584a7.26,7.26,0,0,0-5.68-2.73h-19.83s-12.75,5.74-19.52-1.68a10,10,0,0,0-7.8-3.75,10,10,0,0,0-10,10,10,10,0,0,0,10,10h47.16a7.27,7.27,0,0,0,7.27-7.27,7.24,7.24,0,0,0-1.59-4.54"/></clipPath><clipPath id="clip-path-66"><path class="cls-1" d="M1357.69-584a7.26,7.26,0,0,1,5.68-2.73h19.83s12.75,5.74,19.52-1.68a10,10,0,0,1,7.8-3.75,10,10,0,0,1,10,10,10,10,0,0,1-10,10h-47.16a7.27,7.27,0,0,1-7.27-7.27,7.25,7.25,0,0,1,1.59-4.54"/></clipPath><clipPath id="clip-path-67"><path class="cls-1" d="M1425.7-1056.74a90.64,90.64,0,0,0-90.64-90.64c-.66,0-1.31,0-2,0L1310-1071l23.15,104.88c.66,0,1.3.05,2,.05a90.64,90.64,0,0,0,90.64-90.64"/></clipPath><clipPath id="clip-path-68"><path class="cls-1" d="M1245.39-1043.5s4.49,54.11-27.67,61.4c0,0,29.88,43.12,97.48,19.56l-9.73-45.54Z"/></clipPath><clipPath id="clip-path-69"><path class="cls-1" d="M1424.61-1043.5s-4.49,54.11,27.67,61.4c0,0-29.88,43.12-97.48,19.56l9.73-45.54Z"/></clipPath><clipPath id="clip-path-70"><path class="cls-1" d="M1186.2-889.5a92.94,92.94,0,0,0-.51,9.62A91.72,91.72,0,0,0,1236.15-798l7.37-21.85a69,69,0,0,1-35.11-60.07,69.21,69.21,0,0,1,.69-9.62Z"/></clipPath><clipPath id="clip-path-71"><path class="cls-1" d="M1302-968.28l-4.67,22.35a69.32,69.32,0,0,1,39.32,30.68l27.52,5.54A91.94,91.94,0,0,0,1302-968.28"/></clipPath><clipPath id="clip-path-72"><path class="cls-1" d="M1277.43-971.62a91.75,91.75,0,0,0-91.24,82.12h22.91a69.11,69.11,0,0,1,68.33-59.39,68.71,68.71,0,0,1,19.92,3l4.67-22.35a91.75,91.75,0,0,0-24.58-3.35"/></clipPath><clipPath id="clip-path-73"><path class="cls-1" d="M1334.61-957.61l35.7-20.09s35.36,126.1,42.91,192.91h-78.61Z"/></clipPath><clipPath id="clip-path-74"><path class="cls-1" d="M1343.28-946.36a91.59,91.59,0,0,0-15.53,24.67L1346-905.42a68.6,68.6,0,0,1,14.58-26.23l.47-.5-20.66-3.65Z"/></clipPath><clipPath id="clip-path-75"><path class="cls-1" d="M1456.25-968.69c-19.21-4.62-37.7-10.82-57.76-7.81a91.36,91.36,0,0,0-54.88,29.74l-.34.4-2.87,10.55,20.66,3.65a69.49,69.49,0,0,1,54.47-22.54c22.68,1.09,42.46,12.24,65.86,8.73a91.79,91.79,0,0,0,26.05-8l-10.57-20.21a69.51,69.51,0,0,1-40.63,5.48"/></clipPath><clipPath id="clip-path-76"><path class="cls-1" d="M1335.07-957.61l-35.7-20.09s-35.36,126.1-42.91,192.91h78.61Z"/></clipPath><clipPath id="clip-path-77"><path class="cls-1" d="M1307.19-962.55h6.33l-8-11.71-19.57,13.92,22.73,14-3.16,23,29.59,77.86v-85.74c-15.42-3.37-27.88-31.37-27.88-31.37"/></clipPath><clipPath id="clip-path-78"><path class="cls-1" d="M1362.94-962.55h-6.33l8-11.71,19.57,13.92-22.73,14,3.16,23-29.59,77.86v-85.74c15.42-3.37,27.88-31.37,27.88-31.37"/></clipPath><clipPath id="clip-path-79"><path class="cls-1" d="M1335.07-962.55h-27.88s12.46,28,27.88,31.37c15.42-3.37,27.88-31.37,27.88-31.37Z"/></clipPath><clipPath id="clip-path-80"><path class="cls-1" d="M1335.07-982.11l-27.88,19.56s14.68,19.07,27.88,19.07c4.06,0,18.2-6.12,27.88-19.07Z"/></clipPath><clipPath id="clip-path-81"><path class="cls-1" d="M1274.24-1039.92a12.49,12.49,0,0,0-17.66,0,12.49,12.49,0,0,0,0,17.66,12.49,12.49,0,0,0,17.66,0,12.49,12.49,0,0,0,0-17.66"/></clipPath><clipPath id="clip-path-82"><path class="cls-1" d="M1413.55-1039.92a12.49,12.49,0,0,0-17.66,0,12.49,12.49,0,0,0,0,17.66,12.49,12.49,0,0,0,17.66,0,12.49,12.49,0,0,0,0-17.66"/></clipPath><clipPath id="clip-path-83"><path class="cls-1" d="M1349.21-957.6c19.32-6.67,39.41-16.48,48.69-34.69,6.41-12.59,6.64-27.3,6.78-41.43.1-10.17.18-20.51-1.35-30.52a74.36,74.36,0,0,0-3.55-14.23c-6.36-17.47-20.77-31.68-38.08-38.47a71.17,71.17,0,0,0-26.62-4.79L1322.7-1014l12.36,59.41c.31,0,.62,0,.93,0,4.53-.11,8.93-1.51,13.21-3"/></clipPath><clipPath id="clip-path-84"><path class="cls-1" d="M1307.63-1116.15c-12.95,5.3-24.57,14.35-31.67,26.4-9.6,16.29-10.24,36.18-10.16,55.09.07,17.23.82,36.38,11.93,50.54s30.88,23.43,47.79,27.92a41.13,41.13,0,0,0,9.92,1.58l-5.05-60.78,14.78-5.05-9.73-101.27a75.59,75.59,0,0,0-27.82,5.57"/></clipPath><clipPath id="clip-path-85"><path class="cls-1" d="M1315.21-1048.75A5.25,5.25,0,0,0,1310-1054a5.25,5.25,0,0,0-5.25,5.25,5.25,5.25,0,0,0,5.25,5.25,5.25,5.25,0,0,0,5.25-5.25"/></clipPath><clipPath id="clip-path-86"><path class="cls-1" d="M1367.57-1048.75a5.25,5.25,0,0,0-5.25-5.25,5.25,5.25,0,0,0-5.25,5.25,5.25,5.25,0,0,0,5.25,5.25,5.25,5.25,0,0,0,5.25-5.25"/></clipPath><clipPath id="clip-path-87"><path class="cls-1" d="M1385.21-1025.25c0,3.23-5.17,5.84-11.54,5.84s-11.54-2.61-11.54-5.84,5.17-5.84,11.54-5.84,11.54,2.61,11.54,5.84"/></clipPath><clipPath id="clip-path-88"><path class="cls-1" d="M1287.44-1025.25c0,3.23,5.17,5.84,11.54,5.84s11.54-2.61,11.54-5.84-5.17-5.84-11.54-5.84-11.54,2.61-11.54,5.84"/></clipPath><clipPath id="clip-path-89"><polygon class="cls-1" points="1330.02 -1015.45 1350.8 -1015.45 1344.8 -1020.46 1330.02 -1015.45"/></clipPath><clipPath id="clip-path-90"><path class="cls-1" d="M1243.53-819.81h29.1v8.16h-12.25l-3.91,26.85s-13.85-2-20.31-13.16Z"/></clipPath><clipPath id="clip-path-91"><path class="cls-1" d="M1272.62-819.81a4.1,4.1,0,0,1,4.1,4.1,4.1,4.1,0,0,1-4.1,4.1,4.1,4.1,0,0,1-4.1-4.1,4.1,4.1,0,0,1,4.1-4.1"/></clipPath><clipPath id="clip-path-92"><path class="cls-1" d="M1562.82-1053.17a18.41,18.41,0,0,0,1-6,18.46,18.46,0,0,0-18.46-18.46,18.46,18.46,0,0,0-18.46,18.46,18.37,18.37,0,0,0,3.07,10.18h0l0,.07.1.14,6.55,9.69a68.76,68.76,0,0,1-17.36,48.25,68.39,68.39,0,0,1-22.41,16.63L1507.46-954a91.4,91.4,0,0,0,28.82-21.74c16.44-18.49,23.06-40.44,22.13-63.35l4.42-14.12Z"/></clipPath><clipPath id="clip-path-93"><path class="cls-1" d="M1531.11-1097.64a4.21,4.21,0,0,0-4.21,4.21v39.35h8.42v-39.35a4.21,4.21,0,0,0-4.21-4.21"/></clipPath><clipPath id="clip-path-94"><path class="cls-1" d="M1551.54-1063.28h-25.65a1.52,1.52,0,0,0-1.5,1.19,22,22,0,0,0-.45,4.41,25.73,25.73,0,0,0,1.14,7.59c1.6,5.1,9.21,2.82,9.3-2.52a1.52,1.52,0,0,1,1.52-1.49h15.6v-.08h0c2.8,0,5.08-1.73,5.08-4.53s-2.27-4.57-5.08-4.57"/></clipPath><clipPath id="clip-path-95"><path class="cls-1" d="M1335.07-970.37a32.14,32.14,0,0,0,32.14-32.14h-64.29a32.15,32.15,0,0,0,32.15,32.14"/></clipPath><clipPath id="clip-path-96"><path class="cls-1" d="M1336-1086.41s-22.51,29.66-85.35,47.36c0,0-15.15-100.46,85.35-90.09Z"/></clipPath><clipPath id="clip-path-97"><path class="cls-1" d="M1334.09-1086.41s22.51,29.66,85.35,47.36c0,0,15.15-101.71-85.35-91.34Z"/></clipPath><clipPath id="clip-path-98"><path class="cls-1" d="M3081.65-944.57s-71.17-123.23-201.91-52.61c-143.17,77.33-41.57,221-41.57,221s68.32,93.48,325.14,75.44v137.31s-380,70.95-471.62-212.8c-96.89-300.22,184.9-369.12,184.9-369.12s200-50.48,317.53,134.63Z"/></clipPath><clipPath id="clip-path-99"><path class="cls-1" d="M3533.3-944.57s71.17-123.23,201.91-52.61c143.17,77.33,41.57,221,41.57,221s-68.32,93.48-325.14,75.44v137.31s380,70.95,471.62-212.8c96.89-300.22-184.9-369.12-184.9-369.12s-200-50.48-317.53,134.63Z"/></clipPath><clipPath id="clip-path-100"><polygon class="cls-1" points="3307.59 -1117.17 2815.46 -832.85 2815.46 -761.77 3307.59 -477.46 3799.71 -761.77 3799.71 -832.85 3307.59 -1117.17"/></clipPath><clipPath id="clip-path-101"><polygon class="cls-1" points="3307.59 -477.46 2815.46 -761.77 2815.46 -832.85 3307.59 -548.54 3307.59 -477.46"/></clipPath><clipPath id="clip-path-102"><polygon class="cls-1" points="3307.59 -477.46 3799.71 -761.77 3799.71 -832.85 3307.59 -548.54 3307.59 -477.46"/></clipPath><clipPath id="clip-path-103"><polygon class="cls-1" points="3307.55 -477.04 2814.92 -761.65 2814.92 -832.8 3307.55 -548.19 3307.55 -477.04"/></clipPath><clipPath id="clip-path-104"><polygon class="cls-1" points="3553.86 -477.04 3800.17 -477.04 3800.17 -832.8 3307.55 -832.8 3307.55 -477.04 3553.86 -477.04"/></clipPath><clipPath id="clip-path-105"><polygon class="cls-1" points="3369.13 -726.07 3122.81 -868.38 3122.81 -1081.83 3369.13 -939.53 3369.13 -726.07"/></clipPath><clipPath id="clip-path-106"><polygon class="cls-1" points="3470.24 -1094.09 3369.13 -939.55 3369.13 -726.09 3553.86 -832.82 3553.86 -1046.25 3470.24 -1094.09"/></clipPath><clipPath id="clip-path-107"><polygon class="cls-1" points="3106.01 -1056.81 3215.12 -1241.95 3470.24 -1094.09 3352.33 -914.51 3106.01 -1056.81"/></clipPath><clipPath id="clip-path-108"><polygon class="cls-1" points="3430.67 -761.65 3430.67 -903.97 3492.28 -939.53 3492.28 -797.25 3430.67 -761.65"/></clipPath><clipPath id="clip-path-109"><polygon class="cls-1" points="3276.76 -921.87 3276.76 -850.72 3338.34 -815.14 3338.34 -886.29 3276.76 -921.87"/></clipPath><clipPath id="clip-path-110"><polygon class="cls-1" points="3153.83 -992.89 3153.83 -921.74 3215.41 -886.16 3215.41 -957.31 3153.83 -992.89"/></clipPath><clipPath id="clip-path-111"><rect class="cls-2" x="2814.92" y="-1306.51" width="985.25" height="829.47"/></clipPath><clipPath id="clip-path-112"><path class="cls-1" d="M3039.29-901.66H2946S2932-838.92,2963.9-783.58h11.9s-54.57-97,16.82-97,16.82,97,16.82,97h11.9c31.85-55.34,17.94-118.08,17.94-118.08"/></clipPath><clipPath id="clip-path-113"><path class="cls-1" d="M3027-1013.3h-.11a54.8,54.8,0,0,0-51.81,37l.26-.05A54.79,54.79,0,0,1,3027-1013.3"/></clipPath><clipPath id="clip-path-114"><path class="cls-1" d="M3029.3-1013.24l1.5,0c-.5,0-1,0-1.5,0"/></clipPath><clipPath id="clip-path-115"><path class="cls-1" d="M3027.08-999.71a15.32,15.32,0,0,1,1.88.14,15.45,15.45,0,0,0-1.77-.15h-.11"/></clipPath><clipPath id="clip-path-116"><path class="cls-1" d="M3027.18-1013.3H3027a18.38,18.38,0,0,1,2.25.18,18.12,18.12,0,0,0-2.12-.18"/></clipPath><clipPath id="clip-path-117"><path class="cls-1" d="M3029.6-999.65l-.77,0,.77,0"/></clipPath><clipPath id="clip-path-118"><path class="cls-1" d="M2991.57-979.62l-16.17,3.26,0,.05,16.44-3.31a41.22,41.22,0,0,1,35.27-20.1h-.14a41.22,41.22,0,0,0-35.37,20.1"/></clipPath><clipPath id="clip-path-119"><path class="cls-1" d="M3050.65-1008a54.47,54.47,0,0,0-20.86-5.2,54.45,54.45,0,0,1,20.82,5.29Z"/></clipPath><clipPath id="clip-path-120"><path class="cls-1" d="M3050.61-1007.93a54.45,54.45,0,0,0-20.82-5.29h-.49c-.75,0-1.5-.06-2.25-.06a54.79,54.79,0,0,0-51.65,36.94l16.17-3.26a41.22,41.22,0,0,1,35.37-20.1h.24c.55,0,1.1,0,1.64,0h.25a40.91,40.91,0,0,1,16.23,4.16Z"/></clipPath><clipPath id="clip-path-121"><path class="cls-1" d="M2958.49-1013.3A54.53,54.53,0,0,0,2935-1008l5.34,12.52a40.93,40.93,0,0,1,18.12-4.21,41.22,41.22,0,0,1,35.37,20.1l16.44,3.31a54.8,54.8,0,0,0-51.81-37"/></clipPath><clipPath id="clip-path-122"><path class="cls-1" d="M2903.7-958.48a54.81,54.81,0,0,0,30.13,49l4.4-13.06a41.26,41.26,0,0,1-21-35.9,41.29,41.29,0,0,1,23.09-37L2935-1008a54.82,54.82,0,0,0-31.32,49.54"/></clipPath><clipPath id="clip-path-123"><path class="cls-1" d="M2946-1054.11s1.23,21.15,11,28.13l-1.57-13.51Z"/></clipPath><clipPath id="clip-path-124"><path class="cls-1" d="M3039.77-1054.11s-1.23,21.15-11,28.13l1.57-13.51Z"/></clipPath><clipPath id="clip-path-125"><path class="cls-1" d="M2992.9-1004.93l-21.32-12s-21.11,75.35-25.62,115.27h46.94Z"/></clipPath><clipPath id="clip-path-126"><path class="cls-1" d="M2992.63-1004.93l21.32-12s21.11,75.35,25.62,115.27h-46.94Z"/></clipPath><clipPath id="clip-path-127"><path class="cls-1" d="M2992.9-1007.88h-16.65s7.44,16.73,16.65,18.75c9.21-2,16.65-18.75,16.65-18.75Z"/></clipPath><clipPath id="clip-path-128"><path class="cls-1" d="M2992.9-1019.57l-16.65,11.69s8.76,11.39,16.65,11.39c2.42,0,10.86-3.66,16.65-11.39Z"/></clipPath><clipPath id="clip-path-129"><path class="cls-1" d="M2956.58-1054.11a7.45,7.45,0,0,0-10.55,0,7.46,7.46,0,0,0,0,10.55,7.45,7.45,0,0,0,10.55,0,7.47,7.47,0,0,0,0-10.55"/></clipPath><clipPath id="clip-path-130"><path class="cls-1" d="M3039.77-1054.11a7.45,7.45,0,0,0-10.55,0,7.47,7.47,0,0,0,0,10.55,7.45,7.45,0,0,0,10.55,0,7.47,7.47,0,0,0,0-10.55"/></clipPath><clipPath id="clip-path-131"><path class="cls-1" d="M3001.35-1004.92c11.54-4,23.53-9.85,29.07-20.73,3.83-7.52,4-16.31,4-24.75a113.94,113.94,0,0,0-.81-18.24,44.5,44.5,0,0,0-2.12-8.5,39.86,39.86,0,0,0-22.74-23,42.46,42.46,0,0,0-15.9-2.86l-7.38,64.35,7.38,35.5.56,0a26.43,26.43,0,0,0,7.89-1.79"/></clipPath><clipPath id="clip-path-132"><path class="cls-1" d="M2976.51-1099.66a38.89,38.89,0,0,0-18.91,15.78c-5.73,9.73-6.11,21.62-6.07,32.92,0,10.3.49,21.74,7.13,30.2s18.44,14,28.54,16.68a24.53,24.53,0,0,0,5.92.95l-3-36.32,8.83-3-5.81-60.52a45.1,45.1,0,0,0-16.61,3.33"/></clipPath><clipPath id="clip-path-133"><path class="cls-1" d="M2981-1059.39a3.14,3.14,0,0,0-3.14-3.14,3.14,3.14,0,0,0-3.14,3.14,3.14,3.14,0,0,0,3.14,3.14,3.14,3.14,0,0,0,3.14-3.14"/></clipPath><clipPath id="clip-path-134"><path class="cls-1" d="M3012.31-1059.39a3.14,3.14,0,0,0-3.14-3.14,3.14,3.14,0,0,0-3.13,3.14,3.14,3.14,0,0,0,3.13,3.14,3.14,3.14,0,0,0,3.14-3.14"/></clipPath><clipPath id="clip-path-135"><path class="cls-1" d="M3022.84-1045.35c0,1.93-3.09,3.49-6.89,3.49s-6.89-1.56-6.89-3.49,3.09-3.49,6.89-3.49,6.89,1.56,6.89,3.49"/></clipPath><clipPath id="clip-path-136"><path class="cls-1" d="M2964.46-1045.35c0,1.93,3.09,3.49,6.89,3.49s6.89-1.56,6.89-3.49-3.09-3.49-6.89-3.49-6.89,1.56-6.89,3.49"/></clipPath><clipPath id="clip-path-137"><polygon class="cls-1" points="2989.89 -1039.49 3002.29 -1039.49 2998.71 -1042.48 2989.89 -1039.49"/></clipPath><clipPath id="clip-path-138"><path class="cls-1" d="M3029.81-922.58h17.38l4.4,13.06c-3.86,6.67-12.13,7.87-12.13,7.87l-2.33-16h-7.07l-.25,0a2.45,2.45,0,0,1-2.45-2.45,2.45,2.45,0,0,1,2.45-2.45"/></clipPath><clipPath id="clip-path-139"><path class="cls-1" d="M3011.45-1108.8v.35c-.77,1.44-7.79,14.19-17.15,21.18-3.51,2.62-7.34,4.43-11.3,4.52h23.73a7.83,7.83,0,0,1,6,2.53c2.33,2.5,3.09,6,7,6a8,8,0,0,1,5.61,2,9.82,9.82,0,0,1,2.87,6v17.51h6.51q0-1.07,0-2.13c0-1.75,0-3.52,0-5.29a7.41,7.41,0,0,1,4.22,1.46l.84.69v0l.1.13a150.36,150.36,0,0,0,1-16.23c0-19.28-12.2-33.14-29.46-38.56"/></clipPath><clipPath id="clip-path-140"><path class="cls-1" d="M3000.72-1112a76.57,76.57,0,0,0-8,0c-1.4.07-2.81.18-4.2.33a57.15,57.15,0,0,0-6.07,1c-.19,0-.6.2-1,.34l-1.07.2h0a52,52,0,0,0-9,2.58c-15.57,6.05-26.32,19.37-26.29,37.45,0,3.83.36,10.56.92,15.24,0,.26,0,.51,0,.77l.08-.07,0,.29c.07-.07.12-.16.19-.23a7.33,7.33,0,0,1,4.55-2.1c.22,0,.45,0,.67,0,0,1.77,0,3.53,0,5.28,0,.71,0,1.42,0,2.13h6.51v-17.51a10.55,10.55,0,0,1,1.15-3.72l1.36-1.86,0,0c1.26-1.29,3.16-1.95,5.95-2.3s3.88-3.47,6.32-5.83a9.32,9.32,0,0,1,6.69-2.66s14.89.05,17,0c21.11-.48,29.29-14.87,32.46-22.77.7-1.76,1.16-3.2,1.46-4.09a17,17,0,0,0,.54-2.38Z"/></clipPath><clipPath id="clip-path-141"><path class="cls-1" d="M3028.19-1048.84c0,12.32-22.48,12.66-32.28,12.22h-5.56c-9.8.44-32.28.1-32.28-12.22h-6.51c.12,9.72.93,20.19,7.11,28.06,6.59,8.4,18.44,14,28.54,16.68a24.5,24.5,0,0,0,5.92.95,24.5,24.5,0,0,0,5.92-.95c10.1-2.68,21.95-8.28,28.54-16.68,6.18-7.88,7-18.35,7.11-28.06h-6.51Z"/></clipPath><clipPath id="clip-path-142"><path class="cls-1" d="M2992.9-1012.56a19.2,19.2,0,0,0,19.2-19.21h-38.39a19.2,19.2,0,0,0,19.2,19.21"/></clipPath><clipPath id="clip-path-143"><path class="cls-1" d="M3050.61-1007.93l-5.3,12.43a40.91,40.91,0,0,0-16.23-4.16,41.28,41.28,0,0,1,39.08,41.18,41.26,41.26,0,0,1-21,35.9l4.4,13.06a54.81,54.81,0,0,0,30.13-49,54.83,54.83,0,0,0-31.12-49.45"/></clipPath><clipPath id="clip-path-144"><path class="cls-1" d="M2980.39-1049.57a.94.94,0,0,0-.94-.94.94.94,0,0,0-.94.94.94.94,0,0,0,.94.94.94.94,0,0,0,.94-.94"/></clipPath><clipPath id="clip-path-145"><path class="cls-1" d="M2972.85-1052.58a.94.94,0,0,0-.94-.94.94.94,0,0,0-.94.94.94.94,0,0,0,.94.94.94.94,0,0,0,.94-.94"/></clipPath><clipPath id="clip-path-146"><path class="cls-1" d="M2986.42-1052.58a.94.94,0,0,0-.94-.94.94.94,0,0,0-.94.94.94.94,0,0,0,.94.94.94.94,0,0,0,.94-.94"/></clipPath><clipPath id="clip-path-147"><path class="cls-1" d="M2974.36-1048.06a.94.94,0,0,0-.94-.94.94.94,0,0,0-.94.94.94.94,0,0,0,.94.94.94.94,0,0,0,.94-.94"/></clipPath><clipPath id="clip-path-148"><path class="cls-1" d="M2969.83-1045a.94.94,0,0,0-.94-.94.94.94,0,0,0-.94.94.94.94,0,0,0,.94.94.94.94,0,0,0,.94-.94"/></clipPath><clipPath id="clip-path-149"><path class="cls-1" d="M2983.4-1045a.94.94,0,0,0-.94-.94.94.94,0,0,0-.94.94.94.94,0,0,0,.94.94.94.94,0,0,0,.94-.94"/></clipPath><clipPath id="clip-path-150"><path class="cls-1" d="M3009-1049.57a.94.94,0,0,1,.94-.94.94.94,0,0,1,.94.94.94.94,0,0,1-.94.94.94.94,0,0,1-.94-.94"/></clipPath><clipPath id="clip-path-151"><path class="cls-1" d="M3016.56-1052.58a.94.94,0,0,1,.94-.94.94.94,0,0,1,.94.94.94.94,0,0,1-.94.94.94.94,0,0,1-.94-.94"/></clipPath><clipPath id="clip-path-152"><path class="cls-1" d="M3003-1052.58a.94.94,0,0,1,.94-.94.94.94,0,0,1,.94.94.94.94,0,0,1-.94.94.94.94,0,0,1-.94-.94"/></clipPath><clipPath id="clip-path-153"><path class="cls-1" d="M3015-1048.06a.94.94,0,0,1,.94-.94.94.94,0,0,1,.94.94.94.94,0,0,1-.94.94.94.94,0,0,1-.94-.94"/></clipPath><clipPath id="clip-path-154"><path class="cls-1" d="M3019.57-1045a.94.94,0,0,1,.94-.94.94.94,0,0,1,.94.94.94.94,0,0,1-.94.94.94.94,0,0,1-.94-.94"/></clipPath><clipPath id="clip-path-155"><path class="cls-1" d="M3006-1045a.94.94,0,0,1,.94-.94.94.94,0,0,1,.94.94.94.94,0,0,1-.94.94.94.94,0,0,1-.94-.94"/></clipPath><clipPath id="clip-path-156"><path class="cls-1" d="M2946-901.66S2932-838.92,2963.9-783.58h11.9s-54.57-97,16.82-97v-21.06Z"/></clipPath><clipPath id="clip-path-157"><path class="cls-1" d="M3039.29-901.66s13.91,62.74-17.94,118.08h-11.9s54.57-97-16.82-97v-21.06Z"/></clipPath><clipPath id="clip-path-158"><path class="cls-1" d="M2979.1-782a4.32,4.32,0,0,0-3.38-1.63H2963.9s-7.59,3.42-11.63-1a5.94,5.94,0,0,0-4.65-2.24,6,6,0,0,0-6,6,6,6,0,0,0,6,6h28.09a4.33,4.33,0,0,0,4.33-4.33,4.32,4.32,0,0,0-.95-2.71"/></clipPath><clipPath id="clip-path-159"><path class="cls-1" d="M3006.16-782a4.32,4.32,0,0,1,3.38-1.63h11.81s7.59,3.42,11.63-1a5.94,5.94,0,0,1,4.65-2.24,6,6,0,0,1,6,6,6,6,0,0,1-6,6h-28.09a4.33,4.33,0,0,1-4.33-4.33,4.32,4.32,0,0,1,.95-2.71"/></clipPath><clipPath id="clip-path-160"><path class="cls-1" d="M2955.61-922.58h-17.38l-4.4,13.06c3.86,6.67,12.13,7.87,12.13,7.87l2.33-16h7.07l.25,0a2.45,2.45,0,0,0,2.45-2.45,2.45,2.45,0,0,0-2.45-2.45"/></clipPath><clipPath id="clip-path-161"><rect class="cls-2" x="3070.7" y="-1097.86" width="51.09" height="100.04"/></clipPath><clipPath id="clip-path-162"><rect class="cls-2" x="3119.62" y="-1097.86" width="51.08" height="100.07"/></clipPath><clipPath id="clip-path-163"><path class="cls-1" d="M3163.87-897.71h-86.43s-12.88,58.1,16.62,109.36h11s-50.53-89.86,15.58-89.86,15.58,89.86,15.58,89.86h11c29.5-51.25,16.62-109.36,16.62-109.36"/></clipPath><clipPath id="clip-path-164"><path class="cls-1" d="M3077.43-897.71s-12.88,58.1,16.62,109.36h11s-50.53-89.86,15.58-89.86v-19.5Z"/></clipPath><clipPath id="clip-path-165"><path class="cls-1" d="M3163.87-897.71s12.88,58.1-16.62,109.36h-11s50.53-89.86-15.58-89.86v-19.5Z"/></clipPath><clipPath id="clip-path-166"><path class="cls-1" d="M3108.12-786.84a4,4,0,0,0-3.13-1.51H3094s-7,3.17-10.77-.93a5.5,5.5,0,0,0-4.3-2.07,5.51,5.51,0,0,0-5.51,5.51,5.51,5.51,0,0,0,5.51,5.51h26a4,4,0,0,0,4-4,4,4,0,0,0-.88-2.51"/></clipPath><clipPath id="clip-path-167"><path class="cls-1" d="M3133.18-786.84a4,4,0,0,1,3.13-1.51h10.94s7,3.17,10.77-.93a5.5,5.5,0,0,1,4.3-2.07,5.51,5.51,0,0,1,5.51,5.51,5.51,5.51,0,0,1-5.51,5.51h-26a4,4,0,0,1-4-4,4,4,0,0,1,.88-2.51"/></clipPath><clipPath id="clip-path-168"><path class="cls-1" d="M3170.7-1047.83a50,50,0,0,0-50-50l-1.08,0-12.77,42.11,12.77,57.9,1.08,0a50,50,0,0,0,50-50"/></clipPath><clipPath id="clip-path-169"><path class="cls-1" d="M3071.23-1040.52s2.48,29.87-15.26,33.89c0,0,16.48,23.8,53.78,10.8l-5.37-25.14Z"/></clipPath><clipPath id="clip-path-170"><path class="cls-1" d="M3170.1-1040.52s-2.48,29.87,15.26,33.89c0,0-16.48,23.8-53.77,10.8L3137-1021Z"/></clipPath><clipPath id="clip-path-171"><path class="cls-1" d="M3038.58-955.51a51.3,51.3,0,0,0-.28,5.31A50.63,50.63,0,0,0,3066.14-905L3070.2-917a38.12,38.12,0,0,1-19.37-33.16,38.27,38.27,0,0,1,.38-5.31Z"/></clipPath><clipPath id="clip-path-172"><path class="cls-1" d="M3066-919.83a7.32,7.32,0,0,0-1.68-6.37c-1.68-1.73-3.37-3.54-7.15-3.06a38.28,38.28,0,0,1-8.33,9.91c-.14,2.32-1.47,6.24,0,7.73s6.54,1.21,8.81,1.21a50.77,50.77,0,0,0,8.35-9.42"/></clipPath><clipPath id="clip-path-173"><path class="cls-1" d="M3102.47-999l-2.57,12.34a38.24,38.24,0,0,1,21.69,16.93l15.18,3.06a50.73,50.73,0,0,0-34.3-32.33"/></clipPath><clipPath id="clip-path-174"><path class="cls-1" d="M3088.91-1000.84a50.63,50.63,0,0,0-50.33,45.33h12.64a38.13,38.13,0,0,1,37.69-32.78,37.88,37.88,0,0,1,11,1.64l2.57-12.34a50.58,50.58,0,0,0-13.56-1.85"/></clipPath><clipPath id="clip-path-175"><path class="cls-1" d="M3120.45-993.11l19.69-11.09s19.51,69.61,23.67,106.49h-43.36Z"/></clipPath><clipPath id="clip-path-176"><path class="cls-1" d="M3125.23-986.89a50.56,50.56,0,0,0-8.57,13.62l10.08,9a37.87,37.87,0,0,1,8-14.48l.26-.27-11.4-2Z"/></clipPath><clipPath id="clip-path-177"><path class="cls-1" d="M3187.55-999.22c-10.6-2.55-20.79-6-31.86-4.31a50.39,50.39,0,0,0-30.27,16.42l-.19.22-1.58,5.83,11.4,2a38.32,38.32,0,0,1,30-12.44c12.51.6,23.42,6.76,36.33,4.82a50.61,50.61,0,0,0,14.37-4.41l-5.83-11.16a38.32,38.32,0,0,1-22.41,3"/></clipPath><clipPath id="clip-path-178"><path class="cls-1" d="M3120.7-993.11,3101-1004.19s-19.51,69.61-23.67,106.49h43.36Z"/></clipPath><clipPath id="clip-path-179"><path class="cls-1" d="M3105.32-995.83h3.49l-4.44-6.46-10.8,7.68,12.54,7.72-1.74,12.72,16.32,43v-47.33c-8.51-1.86-15.38-17.32-15.38-17.32"/></clipPath><clipPath id="clip-path-180"><path class="cls-1" d="M3136.08-995.83h-3.49l4.44-6.46,10.8,7.68-12.54,7.72,1.74,12.72-16.32,43v-47.33c8.51-1.86,15.38-17.32,15.38-17.32"/></clipPath><clipPath id="clip-path-181"><path class="cls-1" d="M3120.7-995.83h-15.38s6.87,15.46,15.38,17.32c8.51-1.86,15.38-17.32,15.38-17.32Z"/></clipPath><clipPath id="clip-path-182"><path class="cls-1" d="M3120.7-1006.63l-15.38,10.8s8.1,10.52,15.38,10.52c2.24,0,10-3.38,15.38-10.52Z"/></clipPath><clipPath id="clip-path-183"><path class="cls-1" d="M3087.15-1038.54a6.88,6.88,0,0,0-9.74,0,6.9,6.9,0,0,0,0,9.75,6.89,6.89,0,0,0,9.74,0,6.9,6.9,0,0,0,0-9.75"/></clipPath><clipPath id="clip-path-184"><path class="cls-1" d="M3164-1038.54a6.88,6.88,0,0,0-9.74,0,6.9,6.9,0,0,0,0,9.75,6.89,6.89,0,0,0,9.74,0,6.9,6.9,0,0,0,0-9.75"/></clipPath><clipPath id="clip-path-185"><path class="cls-1" d="M3128.5-993.1c10.66-3.68,21.74-9.1,26.86-19.15,3.54-6.95,3.67-15.07,3.74-22.87a105.25,105.25,0,0,0-.75-16.85,41,41,0,0,0-2-7.86,36.82,36.82,0,0,0-21-21.24,39.23,39.23,0,0,0-14.69-2.65l-6.82,59.45,6.82,32.79.51,0a24.41,24.41,0,0,0,7.29-1.65"/></clipPath><clipPath id="clip-path-186"><path class="cls-1" d="M3105.56-1080.62a35.93,35.93,0,0,0-17.47,14.58c-5.3,9-5.65,20-5.6,30.41,0,9.51.45,20.08,6.58,27.9s17,12.93,26.37,15.41a22.67,22.67,0,0,0,5.47.87l-2.79-33.55,8.15-2.79-5.37-55.9a41.67,41.67,0,0,0-15.34,3.08"/></clipPath><clipPath id="clip-path-187"><path class="cls-1" d="M3109.75-1043.41a2.9,2.9,0,0,0-2.9-2.9,2.9,2.9,0,0,0-2.9,2.9,2.9,2.9,0,0,0,2.9,2.9,2.9,2.9,0,0,0,2.9-2.9"/></clipPath><clipPath id="clip-path-188"><path class="cls-1" d="M3138.63-1043.41a2.9,2.9,0,0,0-2.9-2.9,2.9,2.9,0,0,0-2.9,2.9,2.9,2.9,0,0,0,2.9,2.9,2.9,2.9,0,0,0,2.9-2.9"/></clipPath><clipPath id="clip-path-189"><path class="cls-1" d="M3148.36-1030.44c0,1.78-2.85,3.22-6.37,3.22s-6.37-1.44-6.37-3.22,2.85-3.22,6.37-3.22,6.37,1.44,6.37,3.22"/></clipPath><clipPath id="clip-path-190"><path class="cls-1" d="M3094.43-1030.44c0,1.78,2.85,3.22,6.37,3.22s6.37-1.44,6.37-3.22-2.85-3.22-6.37-3.22-6.37,1.44-6.37,3.22"/></clipPath><clipPath id="clip-path-191"><polygon class="cls-1" points="3117.91 -1025.03 3129.38 -1025.03 3126.07 -1027.8 3117.91 -1025.03"/></clipPath><clipPath id="clip-path-192"><path class="cls-1" d="M3070.2-917h16.05v4.5h-6.76l-2.16,14.82s-7.64-1.1-11.2-7.27Z"/></clipPath><clipPath id="clip-path-193"><path class="cls-1" d="M3086.25-917a2.26,2.26,0,0,1,2.26,2.26,2.26,2.26,0,0,1-2.26,2.26,2.26,2.26,0,0,1-2.26-2.26,2.26,2.26,0,0,1,2.26-2.26"/></clipPath><clipPath id="clip-path-194"><path class="cls-1" d="M3246.34-1045.85a10.18,10.18,0,0,0,.55-3.29,10.19,10.19,0,0,0-10.18-10.19,10.19,10.19,0,0,0-10.19,10.19,10.14,10.14,0,0,0,1.69,5.62h0l0,0,.05.08,3.61,5.35a38,38,0,0,1-9.58,26.63,37.73,37.73,0,0,1-12.36,9.18l5.83,11.16a50.43,50.43,0,0,0,15.9-12c9.07-10.2,12.72-22.32,12.21-35l2.44-7.79Z"/></clipPath><clipPath id="clip-path-195"><path class="cls-1" d="M3228.84-1070.4a2.32,2.32,0,0,0-2.32,2.32v21.72h4.64v-21.72a2.32,2.32,0,0,0-2.32-2.32"/></clipPath><clipPath id="clip-path-196"><path class="cls-1" d="M3240.12-1051.43H3226a.84.84,0,0,0-.83.66,12.17,12.17,0,0,0-.25,2.43,14.2,14.2,0,0,0,.63,4.19c.88,2.81,5.08,1.56,5.13-1.39a.84.84,0,0,1,.84-.82h8.6v0h0a2.56,2.56,0,0,0,2.8-2.5,2.58,2.58,0,0,0-2.8-2.52"/></clipPath><clipPath id="clip-path-197"><path class="cls-1" d="M3120.7-1000.15a17.74,17.74,0,0,0,17.73-17.74H3103a17.74,17.74,0,0,0,17.73,17.74"/></clipPath><clipPath id="clip-path-198"><path class="cls-1" d="M3121.24-1064.2s-12.42,16.37-47.08,26.15c0,0-8.36-55.46,47.08-49.73Z"/></clipPath><clipPath id="clip-path-199"><path class="cls-1" d="M3120.16-1064.2s12.42,16.37,47.08,26.15c0,0,8.36-56.14-47.08-50.42Z"/></clipPath><clipPath id="clip-path-200"><path class="cls-1" d="M3810.25-901.78c10,64.16-33.48,125.61-33.48,125.61s-68.32,93.48-325.14,75.44v137.31s380,70.95,471.62-212.8c17.3-53.61,22.53-99.84,19.44-139.63-14.2-183-204.34-229.5-204.34-229.5S3805-935.73,3810.25-901.78Z"/></clipPath><clipPath id="clip-path-201"><path class="cls-1" d="M3452-701.6l-166.27-56-15.68,46.66,70,23.57-29.29,161.06s83,15.21,141.35-36.21Z"/></clipPath><clipPath id="clip-path-202"><path class="cls-1" d="M3254.46-742A24.74,24.74,0,0,0,3270-710.67a24.72,24.72,0,0,0,31.31-15.56,24.74,24.74,0,0,0-15.55-31.33A24.72,24.72,0,0,0,3254.46-742"/></clipPath><clipPath id="clip-path-203"><path class="cls-1" d="M3340.12-687.34l-151.74-35.43L3148-569.31s120.38,50.91,189.46,45.13l28.61-66.14Z"/></clipPath><clipPath id="clip-path-204"><path class="cls-1" d="M3148-569.31c25.73,6.57,55.4-22.63,66.27-65.23s-1.18-82.46-26.91-89-55.4,22.63-66.27,65.23,1.18,82.46,26.91,89"/></clipPath><clipPath id="clip-path-205"><path class="cls-1" d="M2809.27-920.72c-23.52,70.42,28.9,144.55,28.9,144.55s68.32,93.48,325.14,75.44v137.31s-380,70.95-471.62-212.8c-29.51-91.45-23.89-161.44-1.8-214.55,50.43-121.26,186.7-154.58,186.7-154.58S2818.5-948.34,2809.27-920.72Z"/></clipPath><clipPath id="clip-path-206"><path class="cls-1" d="M3164.1-699.36l175.31,6.16L3337.69-644l-73.84-2.59-29.22,161.07s-74-13.36-113-72.66c-2.31-3.5,42.52-141.17,42.52-141.17"/></clipPath><clipPath id="clip-path-207"><path class="cls-1" d="M3363.25-667.6a24.73,24.73,0,0,1-25.57,23.85,24.73,24.73,0,0,1-23.84-25.59,24.73,24.73,0,0,1,25.58-23.86,24.73,24.73,0,0,1,23.84,25.59"/></clipPath><clipPath id="clip-path-208"><path class="cls-1" d="M3263.85-646.6l154.49,20.26-16.2,157.85s-130.58,5.27-193.21-24.47l-3.52-72Z"/></clipPath><clipPath id="clip-path-209"><path class="cls-1" d="M3402.14-468.48c-26.4-2.91-43.9-40.69-39.09-84.39s30.1-76.77,56.5-73.86,43.9,40.69,39.09,84.39-30.1,76.77-56.5,73.87"/></clipPath><clipPath id="clip-path-210"><rect class="cls-2" x="-904.61" y="358.27" width="10.8" height="135.33" transform="translate(-127 -201.52) rotate(-13.75)"/></clipPath><clipPath id="clip-path-211"><path class="cls-1" d="M-853,345a64.14,64.14,0,0,0-77.54-47.11,64.2,64.2,0,0,0-47.07,77.61A64.14,64.14,0,0,0-900,422.56,64.2,64.2,0,0,0-853,345"/></clipPath><clipPath id="clip-path-212"><path class="cls-1" d="M-894.71,615.66a94.25,94.25,0,0,0-94.21,94.29H-800.5a94.25,94.25,0,0,0-94.21-94.29"/></clipPath><clipPath id="clip-path-213"><path class="cls-1" d="M-956.74,671a51.86,51.86,0,0,0-51.84,51.88H-904.9A51.86,51.86,0,0,0-956.74,671"/></clipPath><clipPath id="clip-path-214"><path class="cls-1" d="M-1296.19,937.54a56.42,56.42,0,0,0-50.64,31.6,45.27,45.27,0,0,0-28-9.69,45.27,45.27,0,0,0-25.88,8.1,70.16,70.16,0,0,0-68.94-57.4,70.19,70.19,0,0,0-70.16,70.21,70.5,70.5,0,0,0,1.36,13.69h298.74a56.5,56.5,0,0,0-56.48-56.53"/></clipPath><clipPath id="clip-path-215"><polygon class="cls-1" points="-1284.55 895.32 -1607.24 708.89 -1365.22 569.04 -1042.53 755.47 -1284.55 895.32"/></clipPath><clipPath id="clip-path-216"><polygon class="cls-1" points="-1274.64 720.58 -1479.08 485.34 -1403.08 264.23 -1198.63 499.47 -1274.64 720.58"/></clipPath><clipPath id="clip-path-217"><polygon class="cls-1" points="-1038.87 375.42 -1198.63 499.44 -1274.63 720.55 -1045.3 675.87 -969.3 454.79 -1038.87 375.42"/></clipPath><clipPath id="clip-path-218"><polygon class="cls-1" points="-1429.38 284.15 -1250.45 131.28 -1038.87 375.42 -1224.94 519.39 -1429.38 284.15"/></clipPath><clipPath id="clip-path-219"><polygon class="cls-1" points="-1198.23 705.67 -1147.55 558.24 -1071.08 543.38 -1121.74 690.77 -1198.23 705.67"/></clipPath><clipPath id="clip-path-220"><polygon class="cls-1" points="-1300.59 484.82 -1325.92 558.52 -1274.81 617.33 -1249.48 543.63 -1300.59 484.82"/></clipPath><clipPath id="clip-path-221"><polygon class="cls-1" points="-1402.62 367.42 -1427.96 441.12 -1376.84 499.93 -1351.51 426.23 -1402.62 367.42"/></clipPath><clipPath id="clip-path-222"><polygon class="cls-1" points="-1251.57 380.51 -1226.09 306.38 -1263.31 263.56 -1288.79 337.69 -1251.57 380.51"/></clipPath><clipPath id="clip-path-223"><polygon class="cls-1" points="-1170.57 295.99 -1226.09 306.38 -1251.57 380.51 -1180.83 325.83 -1170.57 295.99"/></clipPath><clipPath id="clip-path-224"><polygon class="cls-1" points="-1263.31 263.56 -1226.09 306.38 -1170.56 295.99 -1207.77 252.73 -1263.31 263.56"/></clipPath><clipPath id="clip-path-225"><path class="cls-1" d="M-1563.55,701.66a80.93,80.93,0,0,0-80.9,81h161.8a80.93,80.93,0,0,0-80.9-81"/></clipPath><clipPath id="clip-path-226"><path class="cls-1" d="M-1613.9,215.67c1.81-5.44,3.09-9.39,3.09-9.39s6.34-12.19-8.44-17.25l-18.29-6.27s-1.58-2.18-18.23,2.45a109.54,109.54,0,0,0-21.06,6.4c-6.58,2.88-12.67,6.78-14.73,11.79-5.18,12.59-2.78,22.11,4.57,29.85,1.74,1.83,5.14,3.79,9.31,5.72,4.58,2.11,10.09,4.19,15.37,6,10.26,3.53,19.66,6.08,19.66,6.08s15.2,2.6,19.45-8.56c2.57-6.74,6.55-18.54,9.31-26.83"/></clipPath><clipPath id="clip-path-227"><path class="cls-1" d="M-1662.54,276.48l-15,56.19,16.73,5.73,14.08-36.87,2.83-11.29c-9.68-3.61-15.36-8.67-18.65-13.76"/></clipPath><clipPath id="clip-path-228"><path class="cls-1" d="M-1558.69,327.68a25.64,25.64,0,0,1-5.12,2.35l-2.22,6.48a2.06,2.06,0,0,1-2.61,1.28,2.06,2.06,0,0,1-1.28-2.61l1.39-4.06a25.3,25.3,0,0,1-6.73,0l-2,5.71a2,2,0,0,1-.9,1.09l-9.53,25.57,15.18,5.2,17.22-31.27L-1553,331a20.65,20.65,0,0,1-5.66-3.27"/></clipPath><clipPath id="clip-path-229"><path class="cls-1" d="M-1532.29,243.64l-81.61-28c-2.75,8.3-6.74,20.1-9.31,26.83-4.25,11.16-19.45,8.56-19.45,8.56s-9.39-2.56-19.66-6.08l-3.93,11.49a27,27,0,0,0,3.71,20c3.29,5.1,9,10.15,18.65,13.76l-2.83,11.29-9.63,38.39,16.17,5.54,20.09-47.29,22.76,7.8,27.58,9.45,3.75,1.28a22.88,22.88,0,0,0,7.3,11A20.61,20.61,0,0,0-1553,331l-2.21,6.45-11.39,33.27,15.57,5.34,20.47-38.24,17.72-51.8s12.87-31.27-19.43-42.34"/></clipPath><clipPath id="clip-path-230"><path class="cls-1" d="M-1566,316.72l-3.75-1.29-27.58-9.45a25.49,25.49,0,0,0,1.38,8.07l-2.2,6.44a2.06,2.06,0,0,0,1.28,2.61,2.06,2.06,0,0,0,2.61-1.28l.84-2.46a25.52,25.52,0,0,0,4.47,5.35l-1.7,5a2.06,2.06,0,0,0,1.28,2.61,2.06,2.06,0,0,0,2.61-1.28l1.26-3.69a25.5,25.5,0,0,0,5.41,2.61l.79.25-1.81,5.28a2.06,2.06,0,0,0,1.28,2.61,2,2,0,0,0,1.71-.19,2,2,0,0,0,.9-1.1l2-5.71a25.31,25.31,0,0,0,6.73,0l-1.39,4.06a2.06,2.06,0,0,0,1.28,2.61,2.06,2.06,0,0,0,2.61-1.28l2.22-6.48a25.61,25.61,0,0,0,5.12-2.35,22.89,22.89,0,0,1-7.3-11"/></clipPath><clipPath id="clip-path-231"><path class="cls-1" d="M-1636,199a2.47,2.47,0,0,1-1.59-2.92,2.47,2.47,0,0,1,3-1.82c.61.14,15.21,3.42,18.87-11.58a2.47,2.47,0,0,1,3-1.81,2.48,2.48,0,0,1,1.81,3c-4.84,19.84-24.63,15.26-24.83,15.21l-.22-.06"/></clipPath><clipPath id="clip-path-232"><path class="cls-1" d="M-1603.09,283.34a12.78,12.78,0,0,0-16.23,8,12.72,12.72,0,0,0-.35,7l20.49,7a12.71,12.71,0,0,0,4-5.77,12.79,12.79,0,0,0-7.95-16.24"/></clipPath><clipPath id="clip-path-233"><path class="cls-1" d="M-1637.26,323.61a12.79,12.79,0,0,0-7.95-16.24,12.75,12.75,0,0,0-2.82-.61l-6.15,24.54c.23.09.45.2.69.28a12.78,12.78,0,0,0,16.23-8"/></clipPath><clipPath id="clip-path-234"><path class="cls-1" d="M-1524.42,291.23a18,18,0,0,0-22.9,11.23,18,18,0,0,0,11.22,22.92,17.92,17.92,0,0,0,9.56.59l10-29.33a18,18,0,0,0-7.91-5.4"/></clipPath><clipPath id="clip-path-235"><path class="cls-1" d="M-1574.11,270.55a31.26,31.26,0,0,0,39.7-19.46,31.38,31.38,0,0,0,1.59-7.63l-57.33-19.65a31.31,31.31,0,0,0-3.42,7,31.29,31.29,0,0,0,19.45,39.74"/></clipPath><clipPath id="clip-path-236"><path class="cls-1" d="M-1623.21,242.51c1-2.53,2.13-5.77,3.35-9.27a18,18,0,0,0-9.87-8.19,18.09,18.09,0,0,0-23,11.27,18,18,0,0,0,0,11.81c5.83,1.81,10,2.94,10,2.94s15.2,2.6,19.45-8.56"/></clipPath><clipPath id="clip-path-237"><path class="cls-1" d="M-1662.21,196.64a18,18,0,0,0,.48-10.07,101,101,0,0,0-15.11,5.06c-6.58,2.88-12.67,6.78-14.73,11.79-.07.17-.13.34-.2.52a18,18,0,0,0,6.57,4,18.09,18.09,0,0,0,23-11.27"/></clipPath><clipPath id="clip-path-238"><path class="cls-1" d="M-1676.84,191.62c-6.58,2.88-12.67,6.78-14.73,11.79-5.18,12.59-2.78,22.11,4.57,29.85,1.74,1.83,5.14,3.79,9.31,5.72,12.91-24.75,6.6-39.92.85-47.36"/></clipPath><clipPath id="clip-path-239"><path class="cls-1" d="M-1646.48,204.51a4.3,4.3,0,0,0-2.67-5.46,4.29,4.29,0,0,0-5.45,2.67,4.3,4.3,0,0,0,2.67,5.46,4.29,4.29,0,0,0,5.45-2.67"/></clipPath><clipPath id="clip-path-240"><path class="cls-1" d="M-1656.57,309.19a14.25,14.25,0,0,0-8.85-18.09c-.31-.11-.63-.19-.94-.27l-7.34,27.49a14.22,14.22,0,0,0,17.13-9.13"/></clipPath><clipPath id="clip-path-241"><path class="cls-1" d="M-1582.76,350.38l-4.88,13.1,13.23,4.54a14,14,0,0,0-8.35-17.64"/></clipPath><clipPath id="clip-path-242"><path class="cls-1" d="M-1522.5,263.74l.33-6.58c.61,0,15,.42,20.72-16.34l6.23,2.13c-3.83,11.2-11,16.27-16.32,18.55a26.9,26.9,0,0,1-11,2.24"/></clipPath><clipPath id="clip-path-243"><path class="cls-1" d="M-1500.31,247.64h0c-3.17-1.09-5.11-3.8-4.33-6.07l3.86-11.27c.77-2.27,4-3.22,7.14-2.14s5.11,3.8,4.33,6.07l-3.86,11.27c-.78,2.27-4,3.22-7.14,2.14"/></clipPath><clipPath id="clip-path-262"><path class="cls-1" d="M-1628.74,419.35c-119.68,0-216.69,25.69-216.69,57.39a16.86,16.86,0,0,0,1.87,7.54h0l.09.14a22.79,22.79,0,0,0,1.57,2.65l40.56,68.33c-8.2.42-14.18,4-14.18,16.5,0,24,28.43,40.57,40.38,45.92,4.6,2.07,9.36,3.94,14.22,5.67L-1653,805.31a41.85,41.85,0,0,0-4,3.28,29.43,29.43,0,0,0-25.6-14.92,29.46,29.46,0,0,0-29.45,29.47A29.42,29.42,0,0,0-1710,834a39.79,39.79,0,0,0-20.55,18.09,29.3,29.3,0,0,0-17.72-5.94,29.46,29.46,0,0,0-29.19,25.64h291a29.46,29.46,0,0,0-29.19-25.64,29.51,29.51,0,0,0-5.88.59,43.09,43.09,0,0,0-40.66-28.86,43.17,43.17,0,0,0-8.08.77c0-.26,0-.51,0-.77a21.26,21.26,0,0,0-21.25-21.27,21,21,0,0,0-9.11,2.07l46.18-77.88c4.26-1.53,8.43-3.2,12.48-5,11.09-5,37.47-20.31,37.47-42.62,0-11.31-5.31-14.76-12.66-15.27l100.33-169.21a23,23,0,0,0,3.62-6.11,16.27,16.27,0,0,0,1.12-5.87c0-31.69-97-57.39-216.69-57.39"/></clipPath><clipPath id="clip-path-263"><path class="cls-1" d="M-1843.58,484.28l.27.45c-.08-.15-.17-.3-.24-.45Z"/></clipPath><clipPath id="clip-path-264"><path class="cls-1" d="M-1839.46,488.46l-4-4a37.6,37.6,0,0,0,4,4"/></clipPath><clipPath id="clip-path-265"><path class="cls-1" d="M-1416.79,488.72a22.66,22.66,0,0,0,4-6.11Z"/></clipPath><clipPath id="clip-path-266"><path class="cls-1" d="M-1628.74,419.35c-119.68,0-216.69,25.69-216.69,57.39a16.86,16.86,0,0,0,1.87,7.54l.08.15,1.57,2.65c18.38,26.76,106.83,47,213.18,47,104.16,0,191.15-19.46,212-45.41l3.62-6.11a16.28,16.28,0,0,0,1.12-5.87c0-31.69-97-57.39-216.69-57.39"/></clipPath><clipPath id="clip-path-267"><path class="cls-1" d="M-1841.92,487.07l213.18,359.1V534.12c-106.35,0-194.8-20.29-213.18-47"/></clipPath><clipPath id="clip-path-268"><path class="cls-1" d="M-1628.74,534.12V846.17l212-357.46c-20.81,25.94-107.79,45.41-212,45.41"/></clipPath><clipPath id="clip-path-269"><path class="cls-1" d="M-1778.29,482l.19.31-.17-.31Z"/></clipPath><clipPath id="clip-path-270"><path class="cls-1" d="M-1774.87,486.13l-3.36-4a35.2,35.2,0,0,0,3.36,4"/></clipPath><clipPath id="clip-path-271"><path class="cls-1" d="M-1481.2,485.08a16.69,16.69,0,0,0,4-4.25Z"/></clipPath><clipPath id="clip-path-272"><path class="cls-1" d="M-1628.74,436.79c-83.31,0-150.84,17.88-150.84,39.95a11.74,11.74,0,0,0,1.3,5.25l.05.1,1.09,1.84c12.79,18.63,74.36,32.75,148.39,32.75,72.51,0,133.05-13.55,147.54-31.61l2.52-4.25a11.33,11.33,0,0,0,.78-4.08c0-22.06-67.53-39.95-150.84-39.95"/></clipPath><clipPath id="clip-path-273"><path class="cls-1" d="M-1708.25,479.53l.1.17-.08-.17Z"/></clipPath><clipPath id="clip-path-274"><path class="cls-1" d="M-1706.44,482.59l-1.78-3a25.87,25.87,0,0,0,1.78,3"/></clipPath><clipPath id="clip-path-275"><path class="cls-1" d="M-1550.29,482.95a16.14,16.14,0,0,0,4-4Z"/></clipPath><clipPath id="clip-path-276"><path class="cls-1" d="M-1628.74,455.5c-44.29,0-80.2,9.51-80.2,21.24a6.24,6.24,0,0,0,.69,2.79l0,.05.58,1c6.8,9.9,39.54,17.41,78.9,17.41,38.55,0,70.75-7.2,78.45-16.81l1.34-2.26a6,6,0,0,0,.41-2.17c0-11.73-35.91-21.24-80.2-21.24"/></clipPath><clipPath id="clip-path-277"><path class="cls-1" d="M-1801.36,555.4l13.75,23.16c18.68,17.3,44.73,24.59,69.45,31.38,33,9.06,67.57,10.07,101.77,10.17-12.32,11.17-29.55,15.19-46.14,16.31-36.83,2.49-78.62-3.36-112.63-18.61-12-5.36-40.38-21.89-40.38-45.92,0-12.47,6-16.08,14.18-16.5"/></clipPath><clipPath id="clip-path-278"><path class="cls-1" d="M-1517.62,657.88l-12.76,21.49c-17.33,16.05-41.5,22.82-64.45,29.12-30.6,8.4-62.71,9.35-94.44,9.44,11.43,10.37,27.42,14.1,42.82,15.14,34.18,2.31,73-3.11,104.52-17.27,11.09-5,37.47-20.31,37.47-42.62,0-11.57-5.55-14.92-13.16-15.31"/></clipPath><clipPath id="clip-path-279"><path class="cls-1" d="M-1515.65,846.17a29.6,29.6,0,0,0-5.88.59,43.09,43.09,0,0,0-40.66-28.86,43.28,43.28,0,0,0-8.08.77c0-.26,0-.51,0-.77a21.26,21.26,0,0,0-21.25-21.27,21.16,21.16,0,0,0-15.64,6.91,41.42,41.42,0,0,0-21.62-6A41.48,41.48,0,0,0-1657,808.58a29.43,29.43,0,0,0-25.6-14.92,29.46,29.46,0,0,0-29.45,29.47A29.42,29.42,0,0,0-1710,834a39.79,39.79,0,0,0-20.55,18.09,29.3,29.3,0,0,0-17.72-5.94,29.46,29.46,0,0,0-29.19,25.64h291a29.46,29.46,0,0,0-29.19-25.64"/></clipPath><clipPath id="clip-path-280"><polyline class="cls-1" points="508.26 406.12 508.11 585.77 585.8 630.62 585.8 630.81 585.96 630.72 586.13 630.81 586.13 630.62 663.82 585.77 663.67 406.12 586.2 450.94"/></clipPath><clipPath id="clip-path-281"><rect class="cls-2" x="-753.79" y="-1095.23" width="3165.39" height="2972.5"/></clipPath><clipPath id="clip-path-282"><polygon class="cls-1" points="508.26 406.12 585.72 450.94 586.13 630.81 508.11 585.77 508.26 406.12"/></clipPath><clipPath id="clip-path-284"><polygon class="cls-1" points="663.67 406.12 586.2 450.94 585.8 630.81 663.82 585.77 663.67 406.12"/></clipPath><clipPath id="clip-path-286"><polygon class="cls-1" points="809.65 726.8 809.65 402.59 1090.47 240.48 1090.47 564.7 809.65 726.8"/></clipPath><clipPath id="clip-path-288"><polygon class="cls-1" points="1104.57 552.36 810.5 495.88 810.34 592.39 856.64 712.04 1104.57 552.36"/></clipPath><clipPath id="clip-path-290"><polygon class="cls-1" points="1088.25 257.61 753.56 257.61 585.88 354.55 837.09 402.59 1088.25 257.61"/></clipPath><clipPath id="clip-path-292"><polygon class="cls-1" points="965.25 388.7 668.74 406.54 675.23 468.32 951.76 547.74 965.25 388.7"/></clipPath><clipPath id="clip-path-294"><path class="cls-1" d="M1008.41,470.38c-1.84,44.11-25.41,79-52.64,77.82s-47.81-37.82-46-81.94,25.41-79,52.64-77.81,47.81,37.82,46,81.93"/></clipPath><clipPath id="clip-path-296"><polygon class="cls-1" points="837.11 402.75 585.96 354.55 585.8 451.05 837.11 692.55 837.11 402.75"/></clipPath><clipPath id="clip-path-298"><polygon class="cls-1" points="1136.79 208.16 1104.56 189.51 792.31 369.76 824.54 388.42 1136.79 208.16"/></clipPath><clipPath id="clip-path-300"><polygon class="cls-1" points="1136.79 527.44 1104.56 508.78 792.31 689.03 824.54 707.69 1136.79 527.44"/></clipPath><clipPath id="clip-path-302"><polygon class="cls-1" points="792.31 730.26 824.54 748.91 824.54 388.42 792.31 369.76 792.31 730.26"/></clipPath><clipPath id="clip-path-304"><polygon class="cls-1" points="1072.34 527.25 1104.57 545.91 1104.57 247.29 1072.34 259.16 1072.34 527.25"/></clipPath><clipPath id="clip-path-306"><path class="cls-1" d="M1136.79,249.71V208.55l-.13.07v-.07l-32.1,18.53v.07L856.64,370.27v-.37l-32.1,18.53V748.91l280-161.65v.16l32.1-18.57v-.11l.13-.07V527.5l-.13.07V249.78Zm-32.23,296.4L856.64,689.22V411.43l247.93-143.12Z"/></clipPath><clipPath id="clip-path-308"><polygon class="cls-1" points="753.96 257.52 641.87 192.94 473.89 289.9 585.88 354.55 753.96 257.52"/></clipPath><clipPath id="clip-path-310"><polygon class="cls-1" points="474 290.25 585.94 354.57 586.13 451.05 473.79 386.71 474 290.25"/></clipPath><clipPath id="clip-path-312"><polygon class="cls-1" points="1269.68 472.12 1271.36 408.24 1176.53 465 1178.49 390.39 1320.25 324.14 1318.8 379.16 1450.83 327.58 1269.68 472.12"/></clipPath><clipPath id="clip-path-314"><polygon class="cls-1" points="1016.47 758.41 1080.36 760.1 1023.59 665.28 1098.21 667.25 1164.48 808.98 1109.44 807.53 1161.03 939.54 1016.47 758.41"/></clipPath><clipPath id="clip-path-316"><polygon class="cls-1" points="1269.68 562.22 1271.36 626.1 1176.53 569.35 1178.49 643.95 1320.25 710.21 1318.8 655.18 1450.83 706.76 1269.68 562.22"/></clipPath></defs><title>ilustracoes_caixa_am5SVG</title><g class="cls-265"><g class="cls-266"><rect class="cls-267" x="495.74" y="393.76" width="180.44" height="249.42"/></g></g><g class="cls-268"><g class="cls-266"><rect class="cls-269" x="495.74" y="393.76" width="102.75" height="249.42"/></g></g><g class="cls-270"><g class="cls-266"><rect class="cls-267" x="573.43" y="393.76" width="102.75" height="249.42"/></g></g><g class="cls-271"><g class="cls-266"><rect class="cls-272" x="797.28" y="228.12" width="305.55" height="511.05"/></g></g><g class="cls-273"><g class="cls-266"><rect class="cls-274" x="797.98" y="483.52" width="318.95" height="240.89"/></g></g><g class="cls-275"><g class="cls-266"><rect class="cls-276" x="573.51" y="245.24" width="527.1" height="169.71"/></g></g><g class="cls-277"><g class="cls-266"><rect class="cls-278" x="656.38" y="376.33" width="321.23" height="183.77"/></g></g><g class="cls-279"><g class="cls-266"><rect class="cls-280" x="897.33" y="376.05" width="123.56" height="184.53"/></g></g><g class="cls-281"><g class="cls-266"><rect class="cls-274" x="573.43" y="342.18" width="276.04" height="362.74"/></g></g><g class="cls-282"><g class="cls-266"><rect class="cls-283" x="779.95" y="177.15" width="369.21" height="223.63"/></g></g><g class="cls-284"><g class="cls-266"><rect class="cls-285" x="779.95" y="496.42" width="369.21" height="223.63"/></g></g><g class="cls-286"><g class="cls-266"><rect class="cls-287" x="779.95" y="357.4" width="56.96" height="403.88"/></g></g><g class="cls-288"><g class="cls-266"><rect class="cls-289" x="1059.97" y="234.92" width="56.96" height="323.35"/></g></g><g class="cls-290"><g class="cls-266"><rect class="cls-291" x="812.17" y="196.18" width="336.98" height="565.1"/></g></g><g class="cls-292"><g class="cls-266"><rect class="cls-293" x="461.53" y="180.57" width="304.8" height="186.34"/></g></g><g class="cls-294"><g class="cls-266"><rect class="cls-272" x="461.42" y="277.88" width="137.07" height="185.54"/></g></g><g class="cls-295"><g class="cls-266"><rect class="cls-269" x="1164.16" y="311.77" width="299.04" height="172.71"/></g></g><g class="cls-296"><g class="cls-266"><rect class="cls-269" x="1004.1" y="652.91" width="172.74" height="298.99"/></g></g><g class="cls-297"><g class="cls-266"><rect class="cls-269" x="1164.16" y="549.86" width="299.04" height="172.71"/></g></g></svg>