<svg id="Layer_1" data-name="Layer 1" xmlns="http://www.w3.org/2000/svg" xmlns:xlink="http://www.w3.org/1999/xlink" viewBox="0 0 1920 1080"><defs><style>.cls-1,.cls-2{fill:none;}.cls-2{clip-rule:evenodd;}.cls-3{fill:#3c9344;}.cls-4{fill:#347534;}.cls-5{fill:#00652e;}.cls-6{fill:#775020;}.cls-7{fill:#4ca92c;}.cls-8{fill:#99bf19;}.cls-9{clip-path:url(#clip-path);}.cls-10{fill:#ff9141;}.cls-11{fill:#e65a00;}.cls-12{fill:#733791;}.cls-13{fill:#ff6d00;}.cls-14{fill:#00377d;}.cls-15{fill:#3c2415;}.cls-16{fill:#603913;}.cls-17{fill:#8b5e3c;}.cls-18{fill:#754c29;}.cls-19{clip-path:url(#clip-path-3);}.cls-20{clip-path:url(#clip-path-4);}.cls-21{clip-path:url(#clip-path-5);}.cls-22{clip-path:url(#clip-path-6);}.cls-23{clip-path:url(#clip-path-7);}.cls-24{clip-path:url(#clip-path-8);}.cls-25{clip-path:url(#clip-path-9);}.cls-26{clip-path:url(#clip-path-10);}.cls-27{clip-path:url(#clip-path-11);}.cls-28{clip-path:url(#clip-path-12);}.cls-29{clip-path:url(#clip-path-13);}.cls-30{clip-path:url(#clip-path-14);}.cls-31{clip-path:url(#clip-path-15);}.cls-32{clip-path:url(#clip-path-16);}.cls-33{clip-path:url(#clip-path-17);}.cls-34{clip-path:url(#clip-path-18);}.cls-35{clip-path:url(#clip-path-19);}.cls-36{clip-path:url(#clip-path-20);}.cls-37{clip-path:url(#clip-path-21);}.cls-38{clip-path:url(#clip-path-22);}.cls-39{clip-path:url(#clip-path-23);}.cls-40{clip-path:url(#clip-path-24);}.cls-41{clip-path:url(#clip-path-25);}.cls-42{clip-path:url(#clip-path-26);}.cls-43{clip-path:url(#clip-path-27);}.cls-44{clip-path:url(#clip-path-28);}.cls-45{clip-path:url(#clip-path-29);}.cls-46{clip-path:url(#clip-path-30);}</style><clipPath id="clip-path"><rect class="cls-1" x="954.14" y="571.67" width="478.61" height="334.06"/></clipPath><clipPath id="clip-path-3"><polygon class="cls-2" points="474.31 4773.3 474.31 4843.78 962.61 5125.7 1450.91 4843.78 1450.91 4773.3 962.61 4491.38 474.31 4773.3"/></clipPath><clipPath id="clip-path-4"><polygon class="cls-2" points="962.61 5125.7 474.31 4843.78 474.31 4773.3 962.61 5055.22 962.61 5125.7"/></clipPath><clipPath id="clip-path-5"><polygon class="cls-2" points="1206.76 5125.7 1450.91 5125.7 1450.91 4773.3 962.61 4773.3 962.61 5125.7 1206.76 5125.7"/></clipPath><clipPath id="clip-path-6"><path class="cls-2" d="M1012.37,4723.89l-89.14-1.55c-4.86-.07-44.92,30.09-45,35L878,4775a8.87,8.87,0,0,0,8.72,9l9.29.14,70.78,1c28.76.43,57.73,1.08,71.67,1.06l8.85.13a8.87,8.87,0,0,0,9-8.72l.27-17.7c.07-4.86-39.29-36-44.15-36.05"/></clipPath><clipPath id="clip-path-7"><path class="cls-2" d="M1159.67,4548.2a17.21,17.21,0,1,1-24.33-.36,17.36,17.36,0,0,1,24.33.36m-50.51-25.09a17.21,17.21,0,1,1-24.33-.36,17.36,17.36,0,0,1,24.33.36m-274.25-6.29a17.21,17.21,0,1,1-.36,24.33,17.16,17.16,0,0,1,.36-24.33M808,4540.76a17.21,17.21,0,1,1-24.34-.36,17.36,17.36,0,0,1,24.34.36"/></clipPath><clipPath id="clip-path-8"><path class="cls-2" d="M1014.88,4495.16l-87.59-1.3c-9.74-.14-194,83.62-194.1,93.36l-.52,34.95a17.37,17.37,0,0,0,17.21,17.73l219.82-22.84,218.38,29.57a17.37,17.37,0,0,0,17.73-17.22l.52-34.95c.14-9.74-181.72-99.17-191.45-99.31"/></clipPath><clipPath id="clip-path-9"><path class="cls-2" d="M973.77,4313.56c-24.33-.36-44.41,40.49-45.06,69.47l-4.48,316.09c-.44,29.2,17.77,114.43,42.1,114.79s45.06-84.29,45.49-113.49l4.92-316.09c.44-29.2-18.64-70.41-43-70.77"/></clipPath><clipPath id="clip-path-10"><path class="cls-2" d="M990.38,4699.89l4.7-315.87c.37-24.78-13.29-58.16-32-68a27.37,27.37,0,0,1,10.88-2.72c24.33.37,43.19,41.8,42.75,71l-4.7,315.87c-.43,29.2-21.38,113.62-45.49,113.49-3.54-.05-7.27-2.1-10.76-5.69,19.09-19,34.21-83.34,34.57-108.12"/></clipPath><clipPath id="clip-path-11"><path class="cls-2" d="M1056.48,4628.75l-44.38-6.19,1.9-127.85,1.33,0c2.65,0,20,7.6,43.09,18.34Z"/></clipPath><clipPath id="clip-path-12"><path class="cls-2" d="M925.39,4621.71l-175.28,18.41a17.63,17.63,0,0,1-17-15.74l192.55-19.48Zm87.85-15.51,192.09,26.31a17.51,17.51,0,0,1-17.24,14.12l-174.87-23.84Z"/></clipPath><clipPath id="clip-path-13"><path class="cls-2" d="M1195.5,4739.73a19.59,19.59,0,1,0-19.59,19.59,19.59,19.59,0,0,0,19.59-19.59"/></clipPath><clipPath id="clip-path-14"><path class="cls-2" d="M1269.63,4740.79a18.53,18.53,0,1,0-18.53,18.53,18.53,18.53,0,0,0,18.53-18.53"/></clipPath><clipPath id="clip-path-15"><path class="cls-2" d="M1238.22,4715.62a31.15,31.15,0,1,0-31.15,31.15,31.15,31.15,0,0,0,31.15-31.15"/></clipPath><clipPath id="clip-path-16"><polygon class="cls-2" points="1238.22 4715.62 1237.51 4739.73 1253.57 4743.25 1253.57 4759.31 1175.92 4759.31 1175.92 4731.56 1238.22 4715.62"/></clipPath><clipPath id="clip-path-17"><path class="cls-2" d="M781.07,4771.79a30.36,30.36,0,1,1,30.36,30.78,30.57,30.57,0,0,1-30.36-30.78"/></clipPath><clipPath id="clip-path-18"><path class="cls-2" d="M666.18,4773.46a28.72,28.72,0,1,1,28.72,29.11,28.92,28.92,0,0,1-28.72-29.11"/></clipPath><clipPath id="clip-path-19"><path class="cls-2" d="M714.86,4733.92c0-27,21.62-49,48.29-49s48.29,21.92,48.29,49-21.62,49-48.29,49-48.29-21.92-48.29-49"/></clipPath><clipPath id="clip-path-20"><polygon class="cls-2" points="714.86 4733.91 715.97 4771.8 691.07 4777.33 691.07 4802.57 811.43 4802.57 811.43 4758.97 714.86 4733.91"/></clipPath><clipPath id="clip-path-21"><path class="cls-2" d="M940.32,4900.35a15.46,15.46,0,1,0-15.46,15.46,15.46,15.46,0,0,0,15.46-15.46"/></clipPath><clipPath id="clip-path-22"><path class="cls-2" d="M1008.63,4906a9.47,9.47,0,1,0-9.47,9.47,9.47,9.47,0,0,0,9.47-9.47"/></clipPath><clipPath id="clip-path-23"><path class="cls-2" d="M991.15,4896.56A15.46,15.46,0,1,0,975.69,4912a15.46,15.46,0,0,0,15.46-15.46"/></clipPath><clipPath id="clip-path-24"><path class="cls-2" d="M973.9,4893.35a22.16,22.16,0,1,0-22.16,22.16,22.16,22.16,0,0,0,22.16-22.16"/></clipPath><clipPath id="clip-path-25"><polygon class="cls-2" points="991.15 4896.56 991.15 4906.03 999.16 4906.03 999.16 4915.51 924.86 4915.51 924.86 4903.82 962.01 4903.82 991.15 4896.56"/></clipPath><clipPath id="clip-path-26"><path class="cls-2" d="M1068.4,4646.87a17.9,17.9,0,1,1,17.9,17.9,17.9,17.9,0,0,1-17.9-17.9"/></clipPath><clipPath id="clip-path-27"><path class="cls-2" d="M989.28,4653.46a11,11,0,1,1,11,11,11,11,0,0,1-11-11"/></clipPath><clipPath id="clip-path-28"><path class="cls-2" d="M1009.52,4642.49a17.9,17.9,0,1,1,17.9,17.9,17.9,17.9,0,0,1-17.9-17.9"/></clipPath><clipPath id="clip-path-29"><path class="cls-2" d="M1029.5,4638.76a25.67,25.67,0,1,1,25.67,25.67,25.67,25.67,0,0,1-25.67-25.67"/></clipPath><clipPath id="clip-path-30"><polygon class="cls-2" points="1009.52 4642.48 1009.52 4653.46 1000.25 4653.46 1000.25 4664.43 1086.3 4664.43 1086.3 4650.89 1043.28 4650.89 1009.52 4642.48"/></clipPath></defs><title>ilustracoes_caixa_am5SVG</title><polygon class="cls-3" points="960 256.5 469.09 539.93 469.09 610.79 960 894.21 1450.91 610.79 1450.91 539.93 960 256.5"/><polygon class="cls-4" points="960 894.21 469.09 610.79 469.09 539.93 960 823.36 960 894.21"/><polygon class="cls-5" points="960 894.21 1450.91 610.79 1450.91 539.93 960 823.36 960 894.21"/><rect class="cls-6" x="1282.11" y="354.04" width="16.66" height="208.62"/><rect class="cls-5" x="1212.26" y="224.07" width="156.36" height="225.65" rx="44.77" ry="44.77"/><rect class="cls-6" x="962.18" y="161.11" width="16.66" height="208.62"/><circle class="cls-7" cx="970.51" cy="161.11" r="98.95"/><rect class="cls-6" x="863.16" y="250.11" width="16.66" height="208.62"/><path class="cls-8" d="M858.56,117,800.43,332.17a13.39,13.39,0,0,0,12.93,16.89H929.62a13.39,13.39,0,0,0,12.93-16.89L884.42,117C880.85,103.85,862.12,103.85,858.56,117Z"/><rect class="cls-6" x="737.97" y="282.94" width="16.66" height="208.62"/><rect class="cls-5" x="668.12" y="152.97" width="156.36" height="225.65" rx="44.77" ry="44.77"/><rect class="cls-6" x="1088.9" y="243.61" width="16.66" height="208.62"/><rect class="cls-4" x="1019.05" y="113.65" width="156.36" height="225.65" rx="44.77" ry="44.77"/><rect class="cls-6" x="613.92" y="386.67" width="16.66" height="208.62"/><circle class="cls-4" cx="622.25" cy="386.67" r="98.95"/><rect class="cls-6" x="1172.83" y="387.84" width="16.66" height="208.62"/><path class="cls-8" d="M1168.23,254.77,1110.1,469.9A13.39,13.39,0,0,0,1123,486.79h116.26a13.39,13.39,0,0,0,12.93-16.89l-58.13-215.13C1190.53,241.57,1171.8,241.57,1168.23,254.77Z"/><rect class="cls-6" x="989.48" y="436.14" width="16.66" height="208.62"/><circle class="cls-5" cx="997.81" cy="436.14" r="98.95"/><rect class="cls-6" x="777.74" y="442.67" width="16.66" height="208.62"/><path class="cls-7" d="M773.15,309.61,715,524.73a13.39,13.39,0,0,0,12.93,16.89H844.2a13.39,13.39,0,0,0,12.93-16.89L799,309.61C795.44,296.41,776.71,296.41,773.15,309.61Z"/><g class="cls-9"><path class="cls-10" d="M1333.73,723.1H1193.44v41.26s66,132,82.52,140.28,107.27-31,107.27-99c0-41.26-49.51-82.52-49.51-82.52Z"/><path class="cls-11" d="M1348.28,807.78c-41.4-47.1-115.06-65.77-154.83-72.69v-12h140.28s49.51,41.26,49.51,82.52a78.63,78.63,0,0,1-10,37.89,199,199,0,0,0-25-35.73Z"/><path class="cls-12" d="M1412.11,571.67A20.76,20.76,0,0,1,1431.66,599l-35.72,107.15a24.76,24.76,0,0,1-23.49,16.93H1201.7v-16.5c76.23-111.41,167.85-135.24,210.41-134.92Z"/></g><path class="cls-10" d="M1374,595.11c15.92-3.32,29.5,11.85,24.81,27.43l-23.08,76.52a30.74,30.74,0,0,1-6.65,12.16l-.14.15c-6.62,7.24-15.68,11.73-25.49,11.73H1202.2c48.88-81.53,120-117.19,171.8-128Z"/><path class="cls-13" d="M1374.07,685.78a21.28,21.28,0,0,1,5.2,1.5l-3.55,11.77a30.72,30.72,0,0,1-6.65,12.15l-.14.15c-6.62,7.24-15.68,11.73-25.49,11.73H1202.53c63.48-38.28,127.17-43.86,171.54-37.31Z"/><path class="cls-14" d="M1378.26,609.46a7,7,0,1,1-7,7,7,7,0,0,1,7-7Z"/><path class="cls-14" d="M1372.15,638.11a6,6,0,1,1-6,6,6,6,0,0,1,6-6Z"/><path class="cls-14" d="M1366,666.42a5.33,5.33,0,1,1-5.33,5.33,5.33,5.33,0,0,1,5.33-5.33Z"/><g class="cls-9"><path class="cls-14" d="M1359.95,694.65a4.73,4.73,0,1,1-4.73,4.73,4.73,4.73,0,0,1,4.73-4.73Z"/><path class="cls-10" d="M1053.16,723.1h140.28v41.26s-66,132-82.52,140.28-107.27-31-107.27-99c0-41.26,49.51-82.52,49.51-82.52Z"/><path class="cls-11" d="M1038.61,807.78c41.4-47.1,115.06-65.77,154.83-72.69v-12H1053.16s-49.51,41.26-49.51,82.52a78.63,78.63,0,0,0,10,37.89,198.93,198.93,0,0,1,25-35.73Z"/><path class="cls-12" d="M974.78,571.67A20.76,20.76,0,0,0,955.23,599l35.72,107.15a24.76,24.76,0,0,0,23.49,16.93h170.77v-16.5C1109,595.19,1017.34,571.36,974.78,571.67Z"/></g><path class="cls-15" d="M1185.19,694.22a4.13,4.13,0,0,1-4.13-4.12c0-.44-.59-44.52-39.87-79.44a4.12,4.12,0,1,1,5.48-6.17c42.16,37.48,42.65,83.65,42.65,85.6a4.13,4.13,0,0,1-4.12,4.13Z"/><path class="cls-15" d="M1201.7,694.22a4.12,4.12,0,0,1-4.13-4.13c0-2,.48-48.13,42.65-85.6a4.12,4.12,0,1,1,5.48,6.17c-39.41,35-39.87,79-39.87,79.44a4.12,4.12,0,0,1-4.13,4.13Z"/><path class="cls-16" d="M1193.44,681.84a16.5,16.5,0,1,1-16.5,16.5,16.5,16.5,0,0,1,16.5-16.5Z"/><path class="cls-17" d="M1193.44,830.37a8.25,8.25,0,0,1-8.25-8.25v-66a8.25,8.25,0,0,1,16.5,0v66a8.25,8.25,0,0,1-8.25,8.25Z"/><path class="cls-10" d="M1012.9,595.11c-15.92-3.32-29.5,11.85-24.81,27.43l23.08,76.52a30.74,30.74,0,0,0,6.65,12.16l.14.15c6.62,7.24,15.68,11.73,25.49,11.73h141.24c-48.88-81.53-120-117.19-171.8-128Z"/><path class="cls-13" d="M1012.82,685.78a21.28,21.28,0,0,0-5.2,1.5l3.55,11.77a30.72,30.72,0,0,0,6.65,12.15l.14.15c6.62,7.24,15.68,11.73,25.49,11.73h140.91c-63.48-38.28-127.17-43.86-171.54-37.31Z"/><path class="cls-18" d="M1193.44,764.36h0a16.5,16.5,0,0,1-16.5-16.5V723.1a16.5,16.5,0,0,1,16.5-16.5h0a16.5,16.5,0,0,1,16.5,16.5v24.76a16.5,16.5,0,0,1-16.5,16.5Z"/><path class="cls-14" d="M1008.64,609.46a7,7,0,1,1-7,7,7,7,0,0,1,7-7Z"/><path class="cls-14" d="M1014.74,638.11a6,6,0,1,1-6,6,6,6,0,0,1,6-6Z"/><path class="cls-14" d="M1020.85,666.42a5.33,5.33,0,1,1-5.33,5.33,5.33,5.33,0,0,1,5.33-5.33Z"/><path class="cls-14" d="M1026.94,694.65a4.73,4.73,0,1,1-4.73,4.73,4.73,4.73,0,0,1,4.73-4.73Z"/></svg>