<svg id="Layer_1" data-name="Layer 1" xmlns="http://www.w3.org/2000/svg" xmlns:xlink="http://www.w3.org/1999/xlink" viewBox="0 0 1920 1080"><defs><style>.cls-1,.cls-2,.cls-3{fill:none;}.cls-1{clip-rule:evenodd;}.cls-3{fill-rule:evenodd;}.cls-4{clip-path:url(#clip-path);}.cls-5{clip-path:url(#clip-path-2);}.cls-6{clip-path:url(#clip-path-3);}.cls-7{clip-path:url(#clip-path-4);}.cls-8{clip-path:url(#clip-path-5);}.cls-9{clip-path:url(#clip-path-6);}.cls-10{clip-path:url(#clip-path-7);}.cls-11{clip-path:url(#clip-path-8);}.cls-12{clip-path:url(#clip-path-9);}.cls-13{clip-path:url(#clip-path-10);}.cls-14{clip-path:url(#clip-path-11);}.cls-15{clip-path:url(#clip-path-12);}.cls-16{clip-path:url(#clip-path-13);}.cls-17{clip-path:url(#clip-path-14);}.cls-18{clip-path:url(#clip-path-15);}.cls-19{clip-path:url(#clip-path-16);}.cls-20{clip-path:url(#clip-path-17);}.cls-21{clip-path:url(#clip-path-18);}.cls-22{clip-path:url(#clip-path-19);}.cls-23{clip-path:url(#clip-path-20);}.cls-24{clip-path:url(#clip-path-21);}.cls-25{clip-path:url(#clip-path-22);}.cls-26{clip-path:url(#clip-path-23);}.cls-27{clip-path:url(#clip-path-24);}.cls-28{clip-path:url(#clip-path-25);}.cls-29{clip-path:url(#clip-path-26);}.cls-30{clip-path:url(#clip-path-27);}.cls-31{clip-path:url(#clip-path-28);}.cls-32{clip-path:url(#clip-path-29);}.cls-33{clip-path:url(#clip-path-30);}.cls-34{clip-path:url(#clip-path-31);}.cls-35{clip-path:url(#clip-path-32);}.cls-36{clip-path:url(#clip-path-33);}.cls-37{clip-path:url(#clip-path-34);}.cls-38{clip-path:url(#clip-path-35);}.cls-39{clip-path:url(#clip-path-36);}.cls-40{clip-path:url(#clip-path-37);}.cls-41{clip-path:url(#clip-path-38);}.cls-42{clip-path:url(#clip-path-39);}.cls-43{clip-path:url(#clip-path-40);}.cls-44{clip-path:url(#clip-path-41);}.cls-45{clip-path:url(#clip-path-42);}.cls-46{clip-path:url(#clip-path-43);}.cls-47{clip-path:url(#clip-path-44);}.cls-48{clip-path:url(#clip-path-45);}.cls-49{clip-path:url(#clip-path-46);}.cls-50{clip-path:url(#clip-path-47);}.cls-51{clip-path:url(#clip-path-48);}.cls-52{clip-path:url(#clip-path-49);}.cls-53{clip-path:url(#clip-path-50);}.cls-54{clip-path:url(#clip-path-51);}.cls-55{clip-path:url(#clip-path-52);}.cls-56{clip-path:url(#clip-path-53);}.cls-57{clip-path:url(#clip-path-54);}.cls-58{clip-path:url(#clip-path-55);}.cls-59{clip-path:url(#clip-path-56);}.cls-60{clip-path:url(#clip-path-57);}.cls-61{clip-path:url(#clip-path-58);}.cls-62{clip-path:url(#clip-path-59);}.cls-63{clip-path:url(#clip-path-60);}.cls-64{clip-path:url(#clip-path-61);}.cls-65{clip-path:url(#clip-path-62);}.cls-66{clip-path:url(#clip-path-63);}.cls-67{clip-path:url(#clip-path-64);}.cls-68{clip-path:url(#clip-path-65);}.cls-69{clip-path:url(#clip-path-66);}.cls-70{clip-path:url(#clip-path-67);}.cls-71{clip-path:url(#clip-path-68);}.cls-72{clip-path:url(#clip-path-69);}.cls-73{clip-path:url(#clip-path-70);}.cls-74{clip-path:url(#clip-path-71);}.cls-75{clip-path:url(#clip-path-72);}.cls-76{clip-path:url(#clip-path-73);}.cls-77{clip-path:url(#clip-path-74);}.cls-78{clip-path:url(#clip-path-75);}.cls-79{clip-path:url(#clip-path-76);}.cls-80{clip-path:url(#clip-path-77);}.cls-81{clip-path:url(#clip-path-78);}.cls-82{clip-path:url(#clip-path-79);}.cls-83{clip-path:url(#clip-path-80);}.cls-84{clip-path:url(#clip-path-81);}.cls-85{clip-path:url(#clip-path-82);}.cls-86{clip-path:url(#clip-path-83);}.cls-87{clip-path:url(#clip-path-84);}.cls-88{clip-path:url(#clip-path-85);}.cls-89{clip-path:url(#clip-path-86);}.cls-90{clip-path:url(#clip-path-87);}.cls-91{clip-path:url(#clip-path-88);}.cls-92{clip-path:url(#clip-path-89);}.cls-93{clip-path:url(#clip-path-90);}.cls-94{clip-path:url(#clip-path-91);}.cls-95{clip-path:url(#clip-path-92);}.cls-96{clip-path:url(#clip-path-93);}.cls-97{clip-path:url(#clip-path-94);}.cls-98{clip-path:url(#clip-path-95);}.cls-99{clip-path:url(#clip-path-96);}.cls-100{clip-path:url(#clip-path-97);}.cls-101{clip-path:url(#clip-path-98);}.cls-102{clip-path:url(#clip-path-99);}.cls-103{clip-path:url(#clip-path-100);}.cls-104{clip-path:url(#clip-path-101);}.cls-105{clip-path:url(#clip-path-102);}.cls-106{clip-path:url(#clip-path-103);}.cls-107{clip-path:url(#clip-path-104);}.cls-108{clip-path:url(#clip-path-105);}.cls-109{clip-path:url(#clip-path-106);}.cls-110{clip-path:url(#clip-path-107);}.cls-111{clip-path:url(#clip-path-108);}.cls-112{clip-path:url(#clip-path-109);}.cls-113{clip-path:url(#clip-path-110);}.cls-114{clip-path:url(#clip-path-111);}.cls-115{clip-path:url(#clip-path-112);}.cls-116{clip-path:url(#clip-path-113);}.cls-117{clip-path:url(#clip-path-114);}.cls-118{clip-path:url(#clip-path-115);}.cls-119{clip-path:url(#clip-path-116);}.cls-120{clip-path:url(#clip-path-117);}.cls-121{clip-path:url(#clip-path-118);}.cls-122{clip-path:url(#clip-path-119);}.cls-123{clip-path:url(#clip-path-120);}.cls-124{clip-path:url(#clip-path-121);}.cls-125{clip-path:url(#clip-path-122);}.cls-126{clip-path:url(#clip-path-123);}.cls-127{clip-path:url(#clip-path-124);}.cls-128{clip-path:url(#clip-path-125);}.cls-129{clip-path:url(#clip-path-126);}.cls-130{clip-path:url(#clip-path-127);}.cls-131{clip-path:url(#clip-path-128);}.cls-132{clip-path:url(#clip-path-129);}.cls-133{clip-path:url(#clip-path-130);}.cls-134{clip-path:url(#clip-path-131);}.cls-135{clip-path:url(#clip-path-132);}.cls-136{clip-path:url(#clip-path-133);}.cls-137{clip-path:url(#clip-path-134);}.cls-138{clip-path:url(#clip-path-135);}.cls-139{clip-path:url(#clip-path-136);}.cls-140{clip-path:url(#clip-path-137);}.cls-141{clip-path:url(#clip-path-138);}.cls-142{clip-path:url(#clip-path-139);}.cls-143{clip-path:url(#clip-path-140);}.cls-144{clip-path:url(#clip-path-141);}.cls-145{clip-path:url(#clip-path-142);}.cls-146{clip-path:url(#clip-path-143);}.cls-147{clip-path:url(#clip-path-144);}.cls-148{clip-path:url(#clip-path-145);}.cls-149{clip-path:url(#clip-path-146);}.cls-150{clip-path:url(#clip-path-147);}.cls-151{clip-path:url(#clip-path-148);}.cls-152{clip-path:url(#clip-path-149);}.cls-153{clip-path:url(#clip-path-150);}.cls-154{clip-path:url(#clip-path-151);}.cls-155{clip-path:url(#clip-path-152);}.cls-156{clip-path:url(#clip-path-153);}.cls-157{clip-path:url(#clip-path-154);}.cls-158{clip-path:url(#clip-path-155);}.cls-159{clip-path:url(#clip-path-156);}.cls-160{clip-path:url(#clip-path-157);}.cls-161{clip-path:url(#clip-path-158);}.cls-162{clip-path:url(#clip-path-159);}.cls-163{clip-path:url(#clip-path-160);}.cls-164{clip-path:url(#clip-path-161);}.cls-165{clip-path:url(#clip-path-162);}.cls-166{clip-path:url(#clip-path-163);}.cls-167{clip-path:url(#clip-path-164);}.cls-168{clip-path:url(#clip-path-165);}.cls-169{clip-path:url(#clip-path-166);}.cls-170{clip-path:url(#clip-path-167);}.cls-171{clip-path:url(#clip-path-168);}.cls-172{clip-path:url(#clip-path-169);}.cls-173{clip-path:url(#clip-path-170);}.cls-174{clip-path:url(#clip-path-171);}.cls-175{clip-path:url(#clip-path-172);}.cls-176{clip-path:url(#clip-path-173);}.cls-177{clip-path:url(#clip-path-174);}.cls-178{clip-path:url(#clip-path-175);}.cls-179{clip-path:url(#clip-path-176);}.cls-180{clip-path:url(#clip-path-177);}.cls-181{clip-path:url(#clip-path-178);}.cls-182{clip-path:url(#clip-path-179);}.cls-183{clip-path:url(#clip-path-180);}.cls-184{clip-path:url(#clip-path-181);}.cls-185{clip-path:url(#clip-path-182);}.cls-186{clip-path:url(#clip-path-183);}.cls-187{clip-path:url(#clip-path-184);}.cls-188{clip-path:url(#clip-path-185);}.cls-189{clip-path:url(#clip-path-186);}.cls-190{clip-path:url(#clip-path-187);}.cls-191{clip-path:url(#clip-path-188);}.cls-192{clip-path:url(#clip-path-189);}.cls-193{clip-path:url(#clip-path-190);}.cls-194{clip-path:url(#clip-path-191);}.cls-195{clip-path:url(#clip-path-192);}.cls-196{clip-path:url(#clip-path-193);}.cls-197{clip-path:url(#clip-path-194);}.cls-198{clip-path:url(#clip-path-195);}.cls-199{clip-path:url(#clip-path-196);}.cls-200{clip-path:url(#clip-path-197);}.cls-201{clip-path:url(#clip-path-198);}.cls-202{clip-path:url(#clip-path-199);}.cls-203{clip-path:url(#clip-path-200);}.cls-204{clip-path:url(#clip-path-201);}.cls-205{clip-path:url(#clip-path-202);}.cls-206{clip-path:url(#clip-path-203);}.cls-207{clip-path:url(#clip-path-204);}.cls-208{clip-path:url(#clip-path-205);}.cls-209{clip-path:url(#clip-path-206);}.cls-210{clip-path:url(#clip-path-207);}.cls-211{clip-path:url(#clip-path-208);}.cls-212{clip-path:url(#clip-path-209);}.cls-213{clip-path:url(#clip-path-210);}.cls-214{clip-path:url(#clip-path-211);}.cls-215{clip-path:url(#clip-path-212);}.cls-216{clip-path:url(#clip-path-213);}.cls-217{clip-path:url(#clip-path-214);}.cls-218{clip-path:url(#clip-path-215);}.cls-219{clip-path:url(#clip-path-216);}.cls-220{clip-path:url(#clip-path-217);}.cls-221{clip-path:url(#clip-path-218);}.cls-222{clip-path:url(#clip-path-219);}.cls-223{clip-path:url(#clip-path-220);}.cls-224{clip-path:url(#clip-path-221);}.cls-225{clip-path:url(#clip-path-222);}.cls-226{clip-path:url(#clip-path-223);}.cls-227{clip-path:url(#clip-path-224);}.cls-228{clip-path:url(#clip-path-225);}.cls-229{clip-path:url(#clip-path-226);}.cls-230{clip-path:url(#clip-path-227);}.cls-231{clip-path:url(#clip-path-228);}.cls-232{clip-path:url(#clip-path-229);}.cls-233{clip-path:url(#clip-path-230);}.cls-234{clip-path:url(#clip-path-231);}.cls-235{clip-path:url(#clip-path-232);}.cls-236{clip-path:url(#clip-path-233);}.cls-237{clip-path:url(#clip-path-234);}.cls-238{clip-path:url(#clip-path-235);}.cls-239{clip-path:url(#clip-path-236);}.cls-240{clip-path:url(#clip-path-237);}.cls-241{clip-path:url(#clip-path-238);}.cls-242{clip-path:url(#clip-path-239);}.cls-243{fill:#775020;}.cls-244{clip-path:url(#clip-path-240);}.cls-245{fill:#99bf19;}.cls-246{clip-path:url(#clip-path-242);}.cls-247{fill:#00652e;}.cls-248{clip-path:url(#clip-path-244);}.cls-249{clip-path:url(#clip-path-246);}.cls-250{clip-path:url(#clip-path-248);}.cls-251{clip-path:url(#clip-path-250);}.cls-252{fill:#733791;}.cls-253{clip-path:url(#clip-path-252);}.cls-254{fill:#500778;}.cls-255{clip-path:url(#clip-path-254);}.cls-256{fill:#ff9141;}.cls-257{clip-path:url(#clip-path-256);}.cls-258{fill:#00a499;}.cls-259{clip-path:url(#clip-path-258);}.cls-260{fill:#64c8c3;}.cls-261{clip-path:url(#clip-path-260);}.cls-262{clip-path:url(#clip-path-262);}.cls-263{clip-path:url(#clip-path-264);}.cls-264{clip-path:url(#clip-path-266);}.cls-265{fill:#420768;}.cls-266{clip-path:url(#clip-path-268);}.cls-267{fill:#4ca92c;}.cls-268{clip-path:url(#clip-path-270);}.cls-269{fill:#e1e1e1;}.cls-270{clip-path:url(#clip-path-272);}.cls-271{clip-path:url(#clip-path-274);}.cls-272{clip-path:url(#clip-path-276);}.cls-273{clip-path:url(#clip-path-278);}.cls-274{clip-path:url(#clip-path-280);}.cls-275{clip-path:url(#clip-path-282);}.cls-276{clip-path:url(#clip-path-284);}.cls-277{clip-path:url(#clip-path-286);}.cls-278{clip-path:url(#clip-path-288);}.cls-279{clip-path:url(#clip-path-290);}.cls-280{clip-path:url(#clip-path-292);}.cls-281{clip-path:url(#clip-path-294);}.cls-282{clip-path:url(#clip-path-296);}.cls-283{clip-path:url(#clip-path-298);}.cls-284{clip-path:url(#clip-path-300);}.cls-285{clip-path:url(#clip-path-302);}.cls-286{clip-path:url(#clip-path-304);}.cls-287{fill:#bcbcbc;}.cls-288{fill:#f19297;}.cls-289{fill:#93794b;}.cls-290{fill:#313d47;}.cls-291{fill:#0b0f11;}.cls-292{fill:#202930;}.cls-293{clip-path:url(#clip-path-342);}.cls-294{fill:#262626;}.cls-295{clip-path:url(#clip-path-344);}.cls-296{fill:#b9b9b9;}.cls-297{clip-path:url(#clip-path-346);}.cls-298{fill:#6d6d6d;}.cls-299{clip-path:url(#clip-path-348);}.cls-300{clip-path:url(#clip-path-350);}.cls-301{fill:#545454;}.cls-302{clip-path:url(#clip-path-352);}.cls-303{clip-path:url(#clip-path-354);}.cls-304{fill:#444;}.cls-305{clip-path:url(#clip-path-356);}.cls-306{fill:#5b5b5b;}.cls-307{clip-path:url(#clip-path-358);}.cls-308{clip-path:url(#clip-path-360);}.cls-309{clip-path:url(#clip-path-362);}.cls-310{clip-path:url(#clip-path-364);}.cls-311{fill:#4c4c4c;}.cls-312{clip-path:url(#clip-path-366);}.cls-313{clip-path:url(#clip-path-368);}.cls-314{clip-path:url(#clip-path-370);}.cls-315{fill:#353535;}.cls-316{clip-path:url(#clip-path-372);}.cls-317{clip-path:url(#clip-path-374);}.cls-318{clip-path:url(#clip-path-376);}.cls-319{clip-path:url(#clip-path-378);}.cls-320{clip-path:url(#clip-path-379);}.cls-321{clip-path:url(#clip-path-380);}.cls-322{clip-path:url(#clip-path-381);}.cls-323{clip-path:url(#clip-path-382);}.cls-324{clip-path:url(#clip-path-383);}.cls-325{clip-path:url(#clip-path-384);}.cls-326{clip-path:url(#clip-path-385);}.cls-327{clip-path:url(#clip-path-386);}.cls-328{clip-path:url(#clip-path-387);}.cls-329{clip-path:url(#clip-path-388);}.cls-330{clip-path:url(#clip-path-389);}.cls-331{clip-path:url(#clip-path-390);}.cls-332{clip-path:url(#clip-path-391);}.cls-333{clip-path:url(#clip-path-392);}.cls-334{clip-path:url(#clip-path-393);}.cls-335{clip-path:url(#clip-path-394);}.cls-336{clip-path:url(#clip-path-395);}.cls-337{clip-path:url(#clip-path-396);}</style><clipPath id="clip-path"><polygon class="cls-1" points="2752.91 -834.88 2752.91 -763.89 3244.78 -479.91 3736.65 -763.89 3736.65 -834.88 3244.78 -1118.86 2752.91 -834.88"/></clipPath><clipPath id="clip-path-2"><polygon class="cls-1" points="3244.78 -479.91 2752.91 -763.89 2752.91 -834.88 3244.78 -550.9 3244.78 -479.91"/></clipPath><clipPath id="clip-path-3"><polygon class="cls-1" points="3490.72 -479.91 3736.65 -479.91 3736.65 -834.88 3244.78 -834.88 3244.78 -479.91 3490.72 -479.91"/></clipPath><clipPath id="clip-path-4"><polygon class="cls-1" points="3306.27 -728.39 3060.33 -870.38 3060.33 -1083.37 3306.27 -941.38 3306.27 -728.39"/></clipPath><clipPath id="clip-path-5"><polygon class="cls-1" points="3407.22 -1095.6 3306.27 -941.4 3306.27 -728.41 3490.72 -834.91 3490.72 -1047.87 3407.22 -1095.6"/></clipPath><clipPath id="clip-path-6"><polygon class="cls-1" points="3043.56 -1058.4 3152.5 -1243.14 3407.22 -1095.6 3289.49 -916.41 3043.56 -1058.4"/></clipPath><clipPath id="clip-path-7"><polygon class="cls-1" points="3367.71 -763.89 3367.71 -905.9 3429.23 -941.38 3429.23 -799.41 3367.71 -763.89"/></clipPath><clipPath id="clip-path-8"><polygon class="cls-1" points="3214.04 -923.76 3214.04 -852.76 3275.52 -817.27 3275.52 -888.26 3214.04 -923.76"/></clipPath><clipPath id="clip-path-9"><polygon class="cls-1" points="3091.3 -994.62 3091.3 -923.63 3152.78 -888.13 3152.78 -959.13 3091.3 -994.62"/></clipPath><clipPath id="clip-path-10"><rect class="cls-2" x="2752.91" y="-1307.56" width="983.74" height="827.65"/></clipPath><clipPath id="clip-path-11"><path class="cls-1" d="M3009.49-798.11H2840.3s-25.22,113.66,32.53,213.91h21.57S2795.48-760,2924.89-760s30.49,175.77,30.49,175.77H2977c57.74-100.26,32.53-213.91,32.53-213.91"/></clipPath><clipPath id="clip-path-12"><path class="cls-1" d="M2987.29-1000.35h-.19a99.33,99.33,0,0,0-93.91,67l.47-.1a99.32,99.32,0,0,1,93.63-66.92"/></clipPath><clipPath id="clip-path-13"><path class="cls-1" d="M2991.37-1000.24c.91,0,1.82,0,2.73.07-.9,0-1.82,0-2.73-.07"/></clipPath><clipPath id="clip-path-14"><path class="cls-1" d="M2987.35-975.73a27.82,27.82,0,0,1,3.41.25,28,28,0,0,0-3.21-.27l-.2,0"/></clipPath><clipPath id="clip-path-15"><path class="cls-1" d="M2987.54-1000.35h-.24a33.32,33.32,0,0,1,4.08.32,32.85,32.85,0,0,0-3.83-.33"/></clipPath><clipPath id="clip-path-16"><path class="cls-1" d="M2991.91-975.62c-.46,0-.93,0-1.4,0l1.4,0"/></clipPath><clipPath id="clip-path-17"><path class="cls-1" d="M2923-939.33l-29.32,5.91,0,.09,29.79-6a74.73,74.73,0,0,1,63.93-36.41h-.25A74.74,74.74,0,0,0,2923-939.33"/></clipPath><clipPath id="clip-path-18"><path class="cls-1" d="M3030.07-990.79a98.8,98.8,0,0,0-37.81-9.42,98.76,98.76,0,0,1,37.74,9.59Z"/></clipPath><clipPath id="clip-path-19"><path class="cls-1" d="M3030-990.63a98.76,98.76,0,0,0-37.74-9.59l-.89,0c-1.35-.06-2.71-.1-4.08-.1a99.32,99.32,0,0,0-93.63,66.92l29.32-5.91a74.73,74.73,0,0,1,64.12-36.42h.44c1,0,2,0,3,.09h.46a74.21,74.21,0,0,1,29.42,7.53Z"/></clipPath><clipPath id="clip-path-20"><path class="cls-1" d="M2863-1000.35a98.91,98.91,0,0,0-42.54,9.56l9.68,22.68a74.24,74.24,0,0,1,32.86-7.63,74.73,74.73,0,0,1,64.12,36.42l29.79,6a99.33,99.33,0,0,0-93.91-67"/></clipPath><clipPath id="clip-path-21"><path class="cls-1" d="M2763.7-901a99.29,99.29,0,0,0,54.62,88.68l8-23.65a74.74,74.74,0,0,1-38-65,74.79,74.79,0,0,1,41.85-67.08l-9.68-22.68A99.31,99.31,0,0,0,2763.7-901"/></clipPath><clipPath id="clip-path-22"><path class="cls-1" d="M2840.44-1074.28s2.22,38.32,19.87,51l-2.85-24.47Z"/></clipPath><clipPath id="clip-path-23"><path class="cls-1" d="M3010.35-1074.28s-2.22,38.32-19.87,51l2.85-24.47Z"/></clipPath><clipPath id="clip-path-24"><path class="cls-1" d="M2925.39-985.19l-38.65-21.75s-38.28,136.5-46.45,208.83h85.09Z"/></clipPath><clipPath id="clip-path-25"><path class="cls-1" d="M2924.89-985.19l38.65-21.75s38.28,136.5,46.44,208.83h-85.09Z"/></clipPath><clipPath id="clip-path-26"><path class="cls-1" d="M2925.39-990.53h-30.18s13.48,30.31,30.18,34c16.69-3.64,30.18-34,30.18-34Z"/></clipPath><clipPath id="clip-path-27"><path class="cls-1" d="M2925.39-1011.7l-30.18,21.17s15.89,20.64,30.18,20.64c4.39,0,19.7-6.63,30.18-20.64Z"/></clipPath><clipPath id="clip-path-28"><path class="cls-1" d="M2859.55-1074.28a13.52,13.52,0,0,0-19.12,0,13.52,13.52,0,0,0,0,19.12,13.52,13.52,0,0,0,19.12,0,13.52,13.52,0,0,0,0-19.12"/></clipPath><clipPath id="clip-path-29"><path class="cls-1" d="M3010.35-1074.28a13.52,13.52,0,0,0-19.12,0,13.52,13.52,0,0,0,0,19.12,13.52,13.52,0,0,0,19.12,0,13.52,13.52,0,0,0,0-19.12"/></clipPath><clipPath id="clip-path-30"><path class="cls-1" d="M2940.71-985.17c20.92-7.23,42.66-17.84,52.7-37.56,6.94-13.63,7.19-29.55,7.34-44.85.1-11,.2-22.2-1.46-33a80.56,80.56,0,0,0-3.84-15.41c-6.89-18.91-22.48-34.29-41.22-41.65a77,77,0,0,0-28.82-5.19L2912-1046.27,2925.39-982c.34,0,.67,0,1,0,4.91-.12,9.66-1.64,14.3-3.24"/></clipPath><clipPath id="clip-path-31"><path class="cls-1" d="M2895.69-1156.8c-14,5.73-26.6,15.54-34.29,28.58-10.39,17.64-11.08,39.16-11,59.63.08,18.65.89,39.38,12.92,54.71s33.42,25.37,51.74,30.22a44.49,44.49,0,0,0,10.74,1.71l-5.47-65.8,16-5.47-10.54-109.63a81.81,81.81,0,0,0-30.11,6"/></clipPath><clipPath id="clip-path-32"><path class="cls-1" d="M2903.9-1083.85a5.68,5.68,0,0,0-5.68-5.68,5.68,5.68,0,0,0-5.68,5.68,5.68,5.68,0,0,0,5.68,5.68,5.68,5.68,0,0,0,5.68-5.68"/></clipPath><clipPath id="clip-path-33"><path class="cls-1" d="M2960.58-1083.85a5.68,5.68,0,0,0-5.68-5.68,5.68,5.68,0,0,0-5.68,5.68,5.68,5.68,0,0,0,5.68,5.68,5.68,5.68,0,0,0,5.68-5.68"/></clipPath><clipPath id="clip-path-34"><path class="cls-1" d="M2979.67-1058.4c0,3.49-5.59,6.32-12.5,6.32s-12.5-2.83-12.5-6.32,5.6-6.32,12.5-6.32,12.5,2.83,12.5,6.32"/></clipPath><clipPath id="clip-path-35"><path class="cls-1" d="M2873.84-1058.4c0,3.49,5.59,6.32,12.5,6.32s12.5-2.83,12.5-6.32-5.59-6.32-12.5-6.32-12.5,2.83-12.5,6.32"/></clipPath><clipPath id="clip-path-36"><polygon class="cls-1" points="2919.93 -1047.79 2942.42 -1047.79 2935.93 -1053.22 2919.93 -1047.79"/></clipPath><clipPath id="clip-path-37"><path class="cls-1" d="M2992.31-836h31.5l8,23.65c-7,12.09-22,14.25-22,14.25l-4.23-29.07h-12.82a4.29,4.29,0,0,1-.45,0,4.44,4.44,0,0,1-4.44-4.44,4.44,4.44,0,0,1,4.44-4.44"/></clipPath><clipPath id="clip-path-38"><path class="cls-1" d="M2959-1173.36v.63c-1.4,2.61-14.12,25.71-31.09,38.37-6.36,4.74-13.31,8-20.49,8.19h43c5.45.12,8.6,2.1,10.92,4.58,4.22,4.53,5.6,10.79,12.66,10.79a14.59,14.59,0,0,1,10.18,3.57c4.72,4.25,5.2,10.78,5.2,10.78v31.72h11.8q0-1.94,0-3.86c0-3.18,0-6.38-.06-9.59a13.44,13.44,0,0,1,7.64,2.65l1.52,1.24s0,0,0,0l.19.23a272.17,272.17,0,0,0,1.88-29.41c0-34.92-22.12-60-53.41-69.85"/></clipPath><clipPath id="clip-path-39"><path class="cls-1" d="M2939.56-1179.14a138.83,138.83,0,0,0-14.46,0c-2.54.13-5.09.32-7.62.6a103.49,103.49,0,0,0-11,1.79c-.34.08-1.08.36-1.84.61l-1.94.36h0a94.45,94.45,0,0,0-16.26,4.67c-28.22,11-47.71,35.09-47.66,67.84,0,6.94.65,19.13,1.67,27.6,0,.48,0,.92,0,1.4l.15-.12c0,.17,0,.37.06.53.12-.13.21-.28.34-.41a13.29,13.29,0,0,1,8.26-3.8c.41,0,.81-.09,1.22-.07-.06,3.2-.07,6.4-.06,9.57q0,1.92,0,3.86h11.8v-31.72a19.1,19.1,0,0,1,2.08-6.74l2.46-3.38.06-.08c2.29-2.34,5.72-3.53,10.78-4.16s7-6.29,11.45-10.56a16.9,16.9,0,0,1,12.13-4.82s27,.1,30.85,0c38.27-.86,53.1-26.93,58.85-41.24,1.28-3.18,2.11-5.79,2.64-7.4a30.72,30.72,0,0,0,1-4.32Z"/></clipPath><clipPath id="clip-path-40"><path class="cls-1" d="M2989.36-1064.72c0,22.32-40.76,22.93-58.52,22.13h-10.08c-17.76.79-58.52.18-58.52-22.13h-11.8c.21,17.61,1.68,36.57,12.89,50.84,11.95,15.23,33.42,25.37,51.74,30.22a44.44,44.44,0,0,0,10.74,1.71,44.44,44.44,0,0,0,10.74-1.71c18.31-4.86,39.79-15,51.74-30.22,11.2-14.27,12.67-33.24,12.89-50.84h-11.8Z"/></clipPath><clipPath id="clip-path-41"><path class="cls-1" d="M2925.39-999a34.8,34.8,0,0,0,34.8-34.8H2890.6a34.8,34.8,0,0,0,34.8,34.8"/></clipPath><clipPath id="clip-path-42"><path class="cls-1" d="M3030-990.63l-9.61,22.51a74.21,74.21,0,0,0-29.42-7.53A74.8,74.8,0,0,1,3061.81-901a74.74,74.74,0,0,1-38,65l8,23.65A99.29,99.29,0,0,0,3086.41-901,99.32,99.32,0,0,0,3030-990.63"/></clipPath><clipPath id="clip-path-43"><path class="cls-1" d="M2902.71-1066a1.7,1.7,0,0,0-1.71-1.7,1.7,1.7,0,0,0-1.7,1.7,1.71,1.71,0,0,0,1.7,1.7,1.71,1.71,0,0,0,1.71-1.7"/></clipPath><clipPath id="clip-path-44"><path class="cls-1" d="M2889-1071.51a1.7,1.7,0,0,0-1.7-1.7,1.7,1.7,0,0,0-1.71,1.7,1.7,1.7,0,0,0,1.71,1.7,1.7,1.7,0,0,0,1.7-1.7"/></clipPath><clipPath id="clip-path-45"><path class="cls-1" d="M2913.65-1071.51a1.7,1.7,0,0,0-1.7-1.7,1.7,1.7,0,0,0-1.71,1.7,1.7,1.7,0,0,0,1.71,1.7,1.7,1.7,0,0,0,1.7-1.7"/></clipPath><clipPath id="clip-path-46"><path class="cls-1" d="M2891.78-1063.31a1.71,1.71,0,0,0-1.71-1.71,1.71,1.71,0,0,0-1.7,1.71,1.7,1.7,0,0,0,1.7,1.7,1.7,1.7,0,0,0,1.71-1.7"/></clipPath><clipPath id="clip-path-47"><path class="cls-1" d="M2883.57-1057.85a1.71,1.71,0,0,0-1.71-1.71,1.71,1.71,0,0,0-1.7,1.71,1.7,1.7,0,0,0,1.7,1.7,1.7,1.7,0,0,0,1.71-1.7"/></clipPath><clipPath id="clip-path-48"><path class="cls-1" d="M2908.18-1057.85a1.71,1.71,0,0,0-1.7-1.71,1.71,1.71,0,0,0-1.71,1.71,1.7,1.7,0,0,0,1.71,1.7,1.7,1.7,0,0,0,1.7-1.7"/></clipPath><clipPath id="clip-path-49"><path class="cls-1" d="M2954.61-1066a1.7,1.7,0,0,1,1.7-1.7,1.7,1.7,0,0,1,1.71,1.7,1.71,1.71,0,0,1-1.71,1.7,1.71,1.71,0,0,1-1.7-1.7"/></clipPath><clipPath id="clip-path-50"><path class="cls-1" d="M2968.28-1071.51a1.7,1.7,0,0,1,1.7-1.7,1.7,1.7,0,0,1,1.71,1.7,1.7,1.7,0,0,1-1.71,1.7,1.7,1.7,0,0,1-1.7-1.7"/></clipPath><clipPath id="clip-path-51"><path class="cls-1" d="M2943.68-1071.51a1.7,1.7,0,0,1,1.7-1.7,1.7,1.7,0,0,1,1.71,1.7,1.7,1.7,0,0,1-1.71,1.7,1.7,1.7,0,0,1-1.7-1.7"/></clipPath><clipPath id="clip-path-52"><path class="cls-1" d="M2965.55-1063.31a1.71,1.71,0,0,1,1.71-1.71,1.71,1.71,0,0,1,1.7,1.71,1.7,1.7,0,0,1-1.7,1.7,1.7,1.7,0,0,1-1.71-1.7"/></clipPath><clipPath id="clip-path-53"><path class="cls-1" d="M2973.75-1057.85a1.71,1.71,0,0,1,1.7-1.71,1.71,1.71,0,0,1,1.71,1.71,1.7,1.7,0,0,1-1.71,1.7,1.7,1.7,0,0,1-1.7-1.7"/></clipPath><clipPath id="clip-path-54"><path class="cls-1" d="M2949.14-1057.85a1.71,1.71,0,0,1,1.7-1.71,1.71,1.71,0,0,1,1.71,1.71,1.7,1.7,0,0,1-1.71,1.7,1.7,1.7,0,0,1-1.7-1.7"/></clipPath><clipPath id="clip-path-55"><path class="cls-1" d="M2840.3-798.11s-25.22,113.66,32.53,213.91h21.57S2795.48-760,2924.89-760v-38.15Z"/></clipPath><clipPath id="clip-path-56"><path class="cls-1" d="M3009.49-798.11s25.22,113.66-32.53,213.91h-21.57S3054.31-760,2924.89-760v-38.15Z"/></clipPath><clipPath id="clip-path-57"><path class="cls-1" d="M2900.38-581.25a7.84,7.84,0,0,0-6.13-2.95h-21.42s-13.76,6.2-21.08-1.82a10.77,10.77,0,0,0-8.43-4.05,10.79,10.79,0,0,0-10.79,10.79,10.79,10.79,0,0,0,10.79,10.79h50.92a7.85,7.85,0,0,0,7.85-7.85,7.82,7.82,0,0,0-1.72-4.9"/></clipPath><clipPath id="clip-path-58"><path class="cls-1" d="M2949.42-581.25a7.84,7.84,0,0,1,6.13-2.95H2977s13.76,6.2,21.08-1.82a10.77,10.77,0,0,1,8.43-4.05,10.79,10.79,0,0,1,10.79,10.79,10.79,10.79,0,0,1-10.79,10.79h-50.92a7.85,7.85,0,0,1-7.85-7.85,7.82,7.82,0,0,1,1.72-4.9"/></clipPath><clipPath id="clip-path-59"><path class="cls-1" d="M2857.8-836h-31.5l-8,23.65c7,12.09,22,14.25,22,14.25l4.23-29.07h12.82a4.29,4.29,0,0,0,.45,0,4.44,4.44,0,0,0,4.44-4.44,4.44,4.44,0,0,0-4.44-4.44"/></clipPath><clipPath id="clip-path-60"><rect class="cls-2" x="3527.65" y="-1147.39" width="92.62" height="181.23"/></clipPath><clipPath id="clip-path-61"><rect class="cls-2" x="3616.32" y="-1147.39" width="92.6" height="181.28"/></clipPath><clipPath id="clip-path-62"><path class="cls-1" d="M3696.53-784.79H3539.84S3516.49-679.53,3570-586.68h20s-91.61-162.78,28.24-162.78,28.24,162.78,28.24,162.78h20c53.48-92.85,30.12-198.11,30.12-198.11"/></clipPath><clipPath id="clip-path-63"><path class="cls-1" d="M3539.84-784.79S3516.49-679.53,3570-586.68h20s-91.61-162.78,28.24-162.78v-35.33Z"/></clipPath><clipPath id="clip-path-64"><path class="cls-1" d="M3696.53-784.79s23.35,105.26-30.12,198.11h-20s91.61-162.78-28.24-162.78v-35.33Z"/></clipPath><clipPath id="clip-path-65"><path class="cls-1" d="M3595.48-584a7.26,7.26,0,0,0-5.68-2.73H3570s-12.75,5.74-19.52-1.68a10,10,0,0,0-7.8-3.75,10,10,0,0,0-10,10,10,10,0,0,0,10,10h47.16a7.27,7.27,0,0,0,7.27-7.27,7.24,7.24,0,0,0-1.59-4.54"/></clipPath><clipPath id="clip-path-66"><path class="cls-1" d="M3640.9-584a7.26,7.26,0,0,1,5.68-2.73h19.83s12.75,5.74,19.52-1.68a10,10,0,0,1,7.8-3.75,10,10,0,0,1,10,10,10,10,0,0,1-10,10h-47.16a7.27,7.27,0,0,1-7.27-7.27,7.25,7.25,0,0,1,1.59-4.54"/></clipPath><clipPath id="clip-path-67"><path class="cls-1" d="M3708.92-1056.74a90.64,90.64,0,0,0-90.64-90.64c-.66,0-1.31,0-2,0L3593.17-1071l23.15,104.88c.66,0,1.3.05,2,.05a90.64,90.64,0,0,0,90.64-90.64"/></clipPath><clipPath id="clip-path-68"><path class="cls-1" d="M3528.61-1043.5s4.49,54.11-27.67,61.4c0,0,29.88,43.12,97.48,19.56l-9.73-45.54Z"/></clipPath><clipPath id="clip-path-69"><path class="cls-1" d="M3707.83-1043.5s-4.49,54.11,27.67,61.4c0,0-29.88,43.12-97.48,19.56l9.73-45.54Z"/></clipPath><clipPath id="clip-path-70"><path class="cls-1" d="M3469.41-889.5a92.94,92.94,0,0,0-.51,9.62A91.72,91.72,0,0,0,3519.37-798l7.37-21.85a69,69,0,0,1-35.11-60.07,69.21,69.21,0,0,1,.69-9.62Z"/></clipPath><clipPath id="clip-path-71"><path class="cls-1" d="M3585.23-968.28l-4.67,22.35a69.32,69.32,0,0,1,39.32,30.68l27.52,5.54a91.94,91.94,0,0,0-62.17-58.57"/></clipPath><clipPath id="clip-path-72"><path class="cls-1" d="M3560.65-971.62a91.75,91.75,0,0,0-91.24,82.12h22.91a69.11,69.11,0,0,1,68.33-59.39,68.71,68.71,0,0,1,19.92,3l4.67-22.35a91.75,91.75,0,0,0-24.58-3.35"/></clipPath><clipPath id="clip-path-73"><path class="cls-1" d="M3617.82-957.61l35.7-20.09s35.36,126.1,42.91,192.91h-78.61Z"/></clipPath><clipPath id="clip-path-74"><path class="cls-1" d="M3626.49-946.36A91.59,91.59,0,0,0,3611-921.68l18.28,16.26a68.6,68.6,0,0,1,14.58-26.23l.47-.5-20.66-3.65Z"/></clipPath><clipPath id="clip-path-75"><path class="cls-1" d="M3739.47-968.69c-19.21-4.62-37.7-10.82-57.76-7.81a91.36,91.36,0,0,0-54.88,29.74l-.34.4-2.87,10.55,20.66,3.65a69.49,69.49,0,0,1,54.47-22.54c22.68,1.09,42.46,12.24,65.86,8.73a91.79,91.79,0,0,0,26.05-8l-10.57-20.21a69.51,69.51,0,0,1-40.63,5.48"/></clipPath><clipPath id="clip-path-76"><path class="cls-1" d="M3618.28-957.61l-35.7-20.09s-35.36,126.1-42.91,192.91h78.61Z"/></clipPath><clipPath id="clip-path-77"><path class="cls-1" d="M3590.41-962.55h6.33l-8-11.71-19.57,13.92,22.73,14-3.16,23,29.59,77.86v-85.74c-15.42-3.37-27.88-31.37-27.88-31.37"/></clipPath><clipPath id="clip-path-78"><path class="cls-1" d="M3646.16-962.55h-6.33l8-11.71,19.57,13.92-22.73,14,3.16,23-29.59,77.86v-85.74c15.42-3.37,27.88-31.37,27.88-31.37"/></clipPath><clipPath id="clip-path-79"><path class="cls-1" d="M3618.28-962.55h-27.88s12.46,28,27.88,31.37c15.42-3.37,27.88-31.37,27.88-31.37Z"/></clipPath><clipPath id="clip-path-80"><path class="cls-1" d="M3618.28-982.11l-27.88,19.56s14.68,19.07,27.88,19.07c4.06,0,18.2-6.12,27.88-19.07Z"/></clipPath><clipPath id="clip-path-81"><path class="cls-1" d="M3557.46-1039.92a12.49,12.49,0,0,0-17.66,0,12.49,12.49,0,0,0,0,17.66,12.49,12.49,0,0,0,17.66,0,12.49,12.49,0,0,0,0-17.66"/></clipPath><clipPath id="clip-path-82"><path class="cls-1" d="M3696.76-1039.92a12.49,12.49,0,0,0-17.66,0,12.49,12.49,0,0,0,0,17.66,12.49,12.49,0,0,0,17.66,0,12.49,12.49,0,0,0,0-17.66"/></clipPath><clipPath id="clip-path-83"><path class="cls-1" d="M3632.43-957.6c19.32-6.67,39.41-16.48,48.69-34.69,6.41-12.59,6.64-27.3,6.78-41.43.1-10.17.18-20.51-1.35-30.52a74.36,74.36,0,0,0-3.55-14.23c-6.36-17.47-20.77-31.68-38.08-38.47a71.17,71.17,0,0,0-26.62-4.79L3605.92-1014l12.36,59.41c.31,0,.62,0,.93,0,4.53-.11,8.93-1.51,13.21-3"/></clipPath><clipPath id="clip-path-84"><path class="cls-1" d="M3590.84-1116.15c-12.95,5.3-24.57,14.35-31.67,26.4-9.6,16.29-10.24,36.18-10.16,55.09.07,17.23.82,36.38,11.93,50.54s30.88,23.43,47.79,27.92a41.13,41.13,0,0,0,9.92,1.58l-5.05-60.78,14.78-5.05-9.73-101.27a75.59,75.59,0,0,0-27.82,5.57"/></clipPath><clipPath id="clip-path-85"><path class="cls-1" d="M3598.42-1048.75a5.25,5.25,0,0,0-5.25-5.25,5.25,5.25,0,0,0-5.25,5.25,5.25,5.25,0,0,0,5.25,5.25,5.25,5.25,0,0,0,5.25-5.25"/></clipPath><clipPath id="clip-path-86"><path class="cls-1" d="M3650.78-1048.75a5.25,5.25,0,0,0-5.25-5.25,5.25,5.25,0,0,0-5.25,5.25,5.25,5.25,0,0,0,5.25,5.25,5.25,5.25,0,0,0,5.25-5.25"/></clipPath><clipPath id="clip-path-87"><path class="cls-1" d="M3668.42-1025.25c0,3.23-5.17,5.84-11.54,5.84s-11.54-2.61-11.54-5.84,5.17-5.84,11.54-5.84,11.54,2.61,11.54,5.84"/></clipPath><clipPath id="clip-path-88"><path class="cls-1" d="M3570.66-1025.25c0,3.23,5.17,5.84,11.54,5.84s11.54-2.61,11.54-5.84-5.17-5.84-11.54-5.84-11.54,2.61-11.54,5.84"/></clipPath><clipPath id="clip-path-89"><polygon class="cls-1" points="3613.23 -1015.45 3634.01 -1015.45 3628.02 -1020.46 3613.23 -1015.45"/></clipPath><clipPath id="clip-path-90"><path class="cls-1" d="M3526.74-819.81h29.1v8.16h-12.25l-3.91,26.85s-13.85-2-20.31-13.16Z"/></clipPath><clipPath id="clip-path-91"><path class="cls-1" d="M3555.84-819.81a4.1,4.1,0,0,1,4.1,4.1,4.1,4.1,0,0,1-4.1,4.1,4.1,4.1,0,0,1-4.1-4.1,4.1,4.1,0,0,1,4.1-4.1"/></clipPath><clipPath id="clip-path-92"><path class="cls-1" d="M3846-1053.17a18.41,18.41,0,0,0,1-6,18.46,18.46,0,0,0-18.46-18.46,18.46,18.46,0,0,0-18.46,18.46,18.37,18.37,0,0,0,3.07,10.18h0l0,.07.1.14,6.55,9.69a68.76,68.76,0,0,1-17.36,48.25,68.39,68.39,0,0,1-22.41,16.63L3790.67-954a91.4,91.4,0,0,0,28.82-21.74c16.44-18.49,23.06-40.44,22.13-63.35l4.42-14.12Z"/></clipPath><clipPath id="clip-path-93"><path class="cls-1" d="M3814.32-1097.64a4.21,4.21,0,0,0-4.21,4.21v39.35h8.42v-39.35a4.21,4.21,0,0,0-4.21-4.21"/></clipPath><clipPath id="clip-path-94"><path class="cls-1" d="M3834.75-1063.28h-25.65a1.52,1.52,0,0,0-1.5,1.19,22,22,0,0,0-.45,4.41,25.73,25.73,0,0,0,1.14,7.59c1.6,5.1,9.21,2.82,9.3-2.52a1.52,1.52,0,0,1,1.52-1.49h15.6v-.08h0c2.8,0,5.08-1.73,5.08-4.53s-2.27-4.57-5.08-4.57"/></clipPath><clipPath id="clip-path-95"><path class="cls-1" d="M3618.28-970.37a32.14,32.14,0,0,0,32.14-32.14h-64.29a32.15,32.15,0,0,0,32.15,32.14"/></clipPath><clipPath id="clip-path-96"><path class="cls-1" d="M3619.26-1086.41s-22.51,29.66-85.35,47.36c0,0-15.15-100.46,85.35-90.09Z"/></clipPath><clipPath id="clip-path-97"><path class="cls-1" d="M3617.3-1086.41s22.51,29.66,85.35,47.36c0,0,15.15-101.71-85.35-91.34Z"/></clipPath><clipPath id="clip-path-98"><path class="cls-1" d="M5364.86-944.57S5293.7-1067.8,5163-997.18c-143.17,77.33-41.57,221-41.57,221s68.32,93.48,325.14,75.44v137.31s-380,70.95-471.62-212.8c-96.89-300.22,184.9-369.12,184.9-369.12s200-50.48,317.53,134.63Z"/></clipPath><clipPath id="clip-path-99"><path class="cls-1" d="M5816.51-944.57s71.17-123.23,201.91-52.61c143.17,77.33,41.57,221,41.57,221s-68.32,93.48-325.14,75.44v137.31s380,70.95,471.62-212.8c96.89-300.22-184.9-369.12-184.9-369.12s-200-50.48-317.53,134.63Z"/></clipPath><clipPath id="clip-path-100"><polygon class="cls-1" points="5590.8 -1117.17 5098.68 -832.85 5098.68 -761.77 5590.8 -477.46 6082.93 -761.77 6082.93 -832.85 5590.8 -1117.17"/></clipPath><clipPath id="clip-path-101"><polygon class="cls-1" points="5590.8 -477.46 5098.68 -761.77 5098.68 -832.85 5590.8 -548.54 5590.8 -477.46"/></clipPath><clipPath id="clip-path-102"><polygon class="cls-1" points="5590.8 -477.46 6082.93 -761.77 6082.93 -832.85 5590.8 -548.54 5590.8 -477.46"/></clipPath><clipPath id="clip-path-103"><polygon class="cls-1" points="5590.76 -477.04 5098.14 -761.65 5098.14 -832.8 5590.76 -548.19 5590.76 -477.04"/></clipPath><clipPath id="clip-path-104"><polygon class="cls-1" points="5837.07 -477.04 6083.39 -477.04 6083.39 -832.8 5590.76 -832.8 5590.76 -477.04 5837.07 -477.04"/></clipPath><clipPath id="clip-path-105"><polygon class="cls-1" points="5652.34 -726.07 5406.03 -868.38 5406.03 -1081.83 5652.34 -939.53 5652.34 -726.07"/></clipPath><clipPath id="clip-path-106"><polygon class="cls-1" points="5753.45 -1094.09 5652.34 -939.55 5652.34 -726.09 5837.07 -832.82 5837.07 -1046.25 5753.45 -1094.09"/></clipPath><clipPath id="clip-path-107"><polygon class="cls-1" points="5389.23 -1056.81 5498.34 -1241.95 5753.45 -1094.09 5635.54 -914.51 5389.23 -1056.81"/></clipPath><clipPath id="clip-path-108"><polygon class="cls-1" points="5713.88 -761.65 5713.88 -903.97 5775.5 -939.53 5775.5 -797.25 5713.88 -761.65"/></clipPath><clipPath id="clip-path-109"><polygon class="cls-1" points="5559.97 -921.87 5559.97 -850.72 5621.55 -815.14 5621.55 -886.29 5559.97 -921.87"/></clipPath><clipPath id="clip-path-110"><polygon class="cls-1" points="5437.04 -992.89 5437.04 -921.74 5498.62 -886.16 5498.62 -957.31 5437.04 -992.89"/></clipPath><clipPath id="clip-path-111"><rect class="cls-2" x="5098.14" y="-1306.51" width="985.25" height="829.47"/></clipPath><clipPath id="clip-path-112"><path class="cls-1" d="M5322.51-901.66h-93.33s-13.91,62.74,17.94,118.08H5259s-54.57-97,16.82-97,16.82,97,16.82,97h11.9c31.85-55.34,17.94-118.08,17.94-118.08"/></clipPath><clipPath id="clip-path-113"><path class="cls-1" d="M5310.26-1013.3h-.11a54.8,54.8,0,0,0-51.81,37l.26-.05a54.79,54.79,0,0,1,51.65-36.94"/></clipPath><clipPath id="clip-path-114"><path class="cls-1" d="M5312.51-1013.24l1.5,0c-.5,0-1,0-1.5,0"/></clipPath><clipPath id="clip-path-115"><path class="cls-1" d="M5310.29-999.71a15.32,15.32,0,0,1,1.88.14,15.45,15.45,0,0,0-1.77-.15h-.11"/></clipPath><clipPath id="clip-path-116"><path class="cls-1" d="M5310.4-1013.3h-.13a18.38,18.38,0,0,1,2.25.18,18.12,18.12,0,0,0-2.12-.18"/></clipPath><clipPath id="clip-path-117"><path class="cls-1" d="M5312.81-999.65l-.77,0,.77,0"/></clipPath><clipPath id="clip-path-118"><path class="cls-1" d="M5274.78-979.62l-16.17,3.26,0,.05,16.44-3.31a41.22,41.22,0,0,1,35.27-20.1h-.14a41.22,41.22,0,0,0-35.37,20.1"/></clipPath><clipPath id="clip-path-119"><path class="cls-1" d="M5333.86-1008a54.47,54.47,0,0,0-20.86-5.2,54.45,54.45,0,0,1,20.82,5.29Z"/></clipPath><clipPath id="clip-path-120"><path class="cls-1" d="M5333.82-1007.93a54.45,54.45,0,0,0-20.82-5.29h-.49c-.75,0-1.5-.06-2.25-.06a54.79,54.79,0,0,0-51.65,36.94l16.17-3.26a41.22,41.22,0,0,1,35.37-20.1h.24c.55,0,1.1,0,1.64,0h.25a40.91,40.91,0,0,1,16.23,4.16Z"/></clipPath><clipPath id="clip-path-121"><path class="cls-1" d="M5241.7-1013.3a54.53,54.53,0,0,0-23.46,5.28l5.34,12.52a40.93,40.93,0,0,1,18.12-4.21,41.22,41.22,0,0,1,35.37,20.1l16.44,3.31a54.8,54.8,0,0,0-51.81-37"/></clipPath><clipPath id="clip-path-122"><path class="cls-1" d="M5186.92-958.48a54.81,54.81,0,0,0,30.13,49l4.4-13.06a41.26,41.26,0,0,1-21-35.9,41.29,41.29,0,0,1,23.09-37l-5.34-12.52a54.82,54.82,0,0,0-31.32,49.54"/></clipPath><clipPath id="clip-path-123"><path class="cls-1" d="M5229.25-1054.11s1.23,21.15,11,28.13l-1.57-13.51Z"/></clipPath><clipPath id="clip-path-124"><path class="cls-1" d="M5323-1054.11s-1.23,21.15-11,28.13l1.57-13.51Z"/></clipPath><clipPath id="clip-path-125"><path class="cls-1" d="M5276.12-1004.93l-21.32-12s-21.11,75.35-25.62,115.27h46.94Z"/></clipPath><clipPath id="clip-path-126"><path class="cls-1" d="M5275.84-1004.93l21.32-12s21.11,75.35,25.62,115.27h-46.94Z"/></clipPath><clipPath id="clip-path-127"><path class="cls-1" d="M5276.12-1007.88h-16.65s7.44,16.73,16.65,18.75c9.21-2,16.65-18.75,16.65-18.75Z"/></clipPath><clipPath id="clip-path-128"><path class="cls-1" d="M5276.12-1019.57l-16.65,11.69s8.76,11.39,16.65,11.39c2.42,0,10.86-3.66,16.65-11.39Z"/></clipPath><clipPath id="clip-path-129"><path class="cls-1" d="M5239.8-1054.11a7.45,7.45,0,0,0-10.55,0,7.46,7.46,0,0,0,0,10.55,7.45,7.45,0,0,0,10.55,0,7.47,7.47,0,0,0,0-10.55"/></clipPath><clipPath id="clip-path-130"><path class="cls-1" d="M5323-1054.11a7.45,7.45,0,0,0-10.55,0,7.47,7.47,0,0,0,0,10.55,7.45,7.45,0,0,0,10.55,0,7.47,7.47,0,0,0,0-10.55"/></clipPath><clipPath id="clip-path-131"><path class="cls-1" d="M5284.56-1004.92c11.54-4,23.53-9.85,29.07-20.73,3.83-7.52,4-16.31,4-24.75a113.94,113.94,0,0,0-.81-18.24,44.5,44.5,0,0,0-2.12-8.5,39.86,39.86,0,0,0-22.74-23,42.46,42.46,0,0,0-15.9-2.86l-7.38,64.35,7.38,35.5.56,0a26.43,26.43,0,0,0,7.89-1.79"/></clipPath><clipPath id="clip-path-132"><path class="cls-1" d="M5259.73-1099.66a38.89,38.89,0,0,0-18.91,15.78c-5.73,9.73-6.11,21.62-6.07,32.92,0,10.3.49,21.74,7.13,30.2s18.44,14,28.54,16.68a24.53,24.53,0,0,0,5.92.95l-3-36.32,8.83-3-5.81-60.52a45.1,45.1,0,0,0-16.61,3.33"/></clipPath><clipPath id="clip-path-133"><path class="cls-1" d="M5264.26-1059.39a3.14,3.14,0,0,0-3.14-3.14,3.14,3.14,0,0,0-3.14,3.14,3.14,3.14,0,0,0,3.14,3.14,3.14,3.14,0,0,0,3.14-3.14"/></clipPath><clipPath id="clip-path-134"><path class="cls-1" d="M5295.52-1059.39a3.14,3.14,0,0,0-3.14-3.14,3.14,3.14,0,0,0-3.13,3.14,3.14,3.14,0,0,0,3.13,3.14,3.14,3.14,0,0,0,3.14-3.14"/></clipPath><clipPath id="clip-path-135"><path class="cls-1" d="M5306.06-1045.35c0,1.93-3.09,3.49-6.89,3.49s-6.89-1.56-6.89-3.49,3.09-3.49,6.89-3.49,6.89,1.56,6.89,3.49"/></clipPath><clipPath id="clip-path-136"><path class="cls-1" d="M5247.68-1045.35c0,1.93,3.09,3.49,6.89,3.49s6.89-1.56,6.89-3.49-3.09-3.49-6.89-3.49-6.89,1.56-6.89,3.49"/></clipPath><clipPath id="clip-path-137"><polygon class="cls-1" points="5273.1 -1039.49 5285.51 -1039.49 5281.93 -1042.48 5273.1 -1039.49"/></clipPath><clipPath id="clip-path-138"><path class="cls-1" d="M5313-922.58h17.38l4.4,13.06c-3.86,6.67-12.13,7.87-12.13,7.87l-2.33-16h-7.07l-.25,0a2.45,2.45,0,0,1-2.45-2.45,2.45,2.45,0,0,1,2.45-2.45"/></clipPath><clipPath id="clip-path-139"><path class="cls-1" d="M5294.66-1108.8v.35c-.77,1.44-7.79,14.19-17.15,21.18-3.51,2.62-7.34,4.43-11.3,4.52h23.73a7.83,7.83,0,0,1,6,2.53c2.33,2.5,3.09,6,7,6a8,8,0,0,1,5.61,2,9.82,9.82,0,0,1,2.87,6v17.51h6.51q0-1.07,0-2.13c0-1.75,0-3.52,0-5.29a7.41,7.41,0,0,1,4.22,1.46l.84.69v0l.1.13a150.36,150.36,0,0,0,1-16.23c0-19.28-12.2-33.14-29.46-38.56"/></clipPath><clipPath id="clip-path-140"><path class="cls-1" d="M5283.93-1112a76.57,76.57,0,0,0-8,0c-1.4.07-2.81.18-4.2.33a57.15,57.15,0,0,0-6.07,1c-.19,0-.6.2-1,.34l-1.07.2h0a52,52,0,0,0-9,2.58c-15.57,6.05-26.32,19.37-26.29,37.45,0,3.83.36,10.56.92,15.24,0,.26,0,.51,0,.77l.08-.07,0,.29c.07-.07.12-.16.19-.23a7.33,7.33,0,0,1,4.55-2.1c.22,0,.45,0,.67,0,0,1.77,0,3.53,0,5.28,0,.71,0,1.42,0,2.13h6.51v-17.51a10.55,10.55,0,0,1,1.15-3.72l1.36-1.86,0,0c1.26-1.29,3.16-1.95,5.95-2.3s3.88-3.47,6.32-5.83a9.32,9.32,0,0,1,6.69-2.66s14.89.05,17,0c21.11-.48,29.29-14.87,32.46-22.77.7-1.76,1.16-3.2,1.46-4.09a17,17,0,0,0,.54-2.38Z"/></clipPath><clipPath id="clip-path-141"><path class="cls-1" d="M5311.4-1048.84c0,12.32-22.48,12.66-32.28,12.22h-5.56c-9.8.44-32.28.1-32.28-12.22h-6.51c.12,9.72.93,20.19,7.11,28.06,6.59,8.4,18.44,14,28.54,16.68a24.5,24.5,0,0,0,5.92.95,24.5,24.5,0,0,0,5.92-.95c10.1-2.68,21.95-8.28,28.54-16.68,6.18-7.88,7-18.35,7.11-28.06h-6.51Z"/></clipPath><clipPath id="clip-path-142"><path class="cls-1" d="M5276.12-1012.56a19.2,19.2,0,0,0,19.2-19.21h-38.39a19.2,19.2,0,0,0,19.2,19.21"/></clipPath><clipPath id="clip-path-143"><path class="cls-1" d="M5333.82-1007.93l-5.3,12.43a40.91,40.91,0,0,0-16.23-4.16,41.28,41.28,0,0,1,39.08,41.18,41.26,41.26,0,0,1-21,35.9l4.4,13.06a54.81,54.81,0,0,0,30.13-49,54.83,54.83,0,0,0-31.12-49.45"/></clipPath><clipPath id="clip-path-144"><path class="cls-1" d="M5263.6-1049.57a.94.94,0,0,0-.94-.94.94.94,0,0,0-.94.94.94.94,0,0,0,.94.94.94.94,0,0,0,.94-.94"/></clipPath><clipPath id="clip-path-145"><path class="cls-1" d="M5256.06-1052.58a.94.94,0,0,0-.94-.94.94.94,0,0,0-.94.94.94.94,0,0,0,.94.94.94.94,0,0,0,.94-.94"/></clipPath><clipPath id="clip-path-146"><path class="cls-1" d="M5269.63-1052.58a.94.94,0,0,0-.94-.94.94.94,0,0,0-.94.94.94.94,0,0,0,.94.94.94.94,0,0,0,.94-.94"/></clipPath><clipPath id="clip-path-147"><path class="cls-1" d="M5257.57-1048.06a.94.94,0,0,0-.94-.94.94.94,0,0,0-.94.94.94.94,0,0,0,.94.94.94.94,0,0,0,.94-.94"/></clipPath><clipPath id="clip-path-148"><path class="cls-1" d="M5253-1045a.94.94,0,0,0-.94-.94.94.94,0,0,0-.94.94.94.94,0,0,0,.94.94.94.94,0,0,0,.94-.94"/></clipPath><clipPath id="clip-path-149"><path class="cls-1" d="M5266.62-1045a.94.94,0,0,0-.94-.94.94.94,0,0,0-.94.94.94.94,0,0,0,.94.94.94.94,0,0,0,.94-.94"/></clipPath><clipPath id="clip-path-150"><path class="cls-1" d="M5292.23-1049.57a.94.94,0,0,1,.94-.94.94.94,0,0,1,.94.94.94.94,0,0,1-.94.94.94.94,0,0,1-.94-.94"/></clipPath><clipPath id="clip-path-151"><path class="cls-1" d="M5299.77-1052.58a.94.94,0,0,1,.94-.94.94.94,0,0,1,.94.94.94.94,0,0,1-.94.94.94.94,0,0,1-.94-.94"/></clipPath><clipPath id="clip-path-152"><path class="cls-1" d="M5286.2-1052.58a.94.94,0,0,1,.94-.94.94.94,0,0,1,.94.94.94.94,0,0,1-.94.94.94.94,0,0,1-.94-.94"/></clipPath><clipPath id="clip-path-153"><path class="cls-1" d="M5298.27-1048.06a.94.94,0,0,1,.94-.94.94.94,0,0,1,.94.94.94.94,0,0,1-.94.94.94.94,0,0,1-.94-.94"/></clipPath><clipPath id="clip-path-154"><path class="cls-1" d="M5302.79-1045a.94.94,0,0,1,.94-.94.94.94,0,0,1,.94.94.94.94,0,0,1-.94.94.94.94,0,0,1-.94-.94"/></clipPath><clipPath id="clip-path-155"><path class="cls-1" d="M5289.22-1045a.94.94,0,0,1,.94-.94.94.94,0,0,1,.94.94.94.94,0,0,1-.94.94.94.94,0,0,1-.94-.94"/></clipPath><clipPath id="clip-path-156"><path class="cls-1" d="M5229.18-901.66s-13.91,62.74,17.94,118.08H5259s-54.57-97,16.82-97v-21.06Z"/></clipPath><clipPath id="clip-path-157"><path class="cls-1" d="M5322.5-901.66s13.91,62.74-17.94,118.08h-11.9s54.57-97-16.82-97v-21.06Z"/></clipPath><clipPath id="clip-path-158"><path class="cls-1" d="M5262.32-782a4.32,4.32,0,0,0-3.38-1.63h-11.81s-7.59,3.42-11.63-1a5.94,5.94,0,0,0-4.65-2.24,6,6,0,0,0-6,6,6,6,0,0,0,6,6h28.09a4.33,4.33,0,0,0,4.33-4.33,4.32,4.32,0,0,0-.95-2.71"/></clipPath><clipPath id="clip-path-159"><path class="cls-1" d="M5289.37-782a4.32,4.32,0,0,1,3.38-1.63h11.81s7.59,3.42,11.63-1a5.94,5.94,0,0,1,4.65-2.24,6,6,0,0,1,6,6,6,6,0,0,1-6,6h-28.09a4.33,4.33,0,0,1-4.33-4.33,4.32,4.32,0,0,1,.95-2.71"/></clipPath><clipPath id="clip-path-160"><path class="cls-1" d="M5238.83-922.58h-17.38l-4.4,13.06c3.86,6.67,12.13,7.87,12.13,7.87l2.33-16h7.07l.25,0a2.45,2.45,0,0,0,2.45-2.45,2.45,2.45,0,0,0-2.45-2.45"/></clipPath><clipPath id="clip-path-161"><rect class="cls-2" x="5353.92" y="-1097.86" width="51.09" height="100.04"/></clipPath><clipPath id="clip-path-162"><rect class="cls-2" x="5402.83" y="-1097.86" width="51.08" height="100.07"/></clipPath><clipPath id="clip-path-163"><path class="cls-1" d="M5447.08-897.71h-86.43s-12.88,58.1,16.62,109.36h11s-50.53-89.86,15.58-89.86,15.58,89.86,15.58,89.86h11c29.5-51.25,16.62-109.36,16.62-109.36"/></clipPath><clipPath id="clip-path-164"><path class="cls-1" d="M5360.65-897.71s-12.88,58.1,16.62,109.36h11s-50.53-89.86,15.58-89.86v-19.5Z"/></clipPath><clipPath id="clip-path-165"><path class="cls-1" d="M5447.08-897.71s12.88,58.1-16.62,109.36h-11s50.53-89.86-15.58-89.86v-19.5Z"/></clipPath><clipPath id="clip-path-166"><path class="cls-1" d="M5391.34-786.84a4,4,0,0,0-3.13-1.51h-10.94s-7,3.17-10.77-.93a5.5,5.5,0,0,0-4.3-2.07,5.51,5.51,0,0,0-5.51,5.51,5.51,5.51,0,0,0,5.51,5.51h26a4,4,0,0,0,4-4,4,4,0,0,0-.88-2.51"/></clipPath><clipPath id="clip-path-167"><path class="cls-1" d="M5416.39-786.84a4,4,0,0,1,3.13-1.51h10.94s7,3.17,10.77-.93a5.5,5.5,0,0,1,4.3-2.07,5.51,5.51,0,0,1,5.51,5.51,5.51,5.51,0,0,1-5.51,5.51h-26a4,4,0,0,1-4-4,4,4,0,0,1,.88-2.51"/></clipPath><clipPath id="clip-path-168"><path class="cls-1" d="M5453.92-1047.83a50,50,0,0,0-50-50l-1.08,0-12.77,42.11,12.77,57.9,1.08,0a50,50,0,0,0,50-50"/></clipPath><clipPath id="clip-path-169"><path class="cls-1" d="M5354.45-1040.52s2.48,29.87-15.26,33.89c0,0,16.48,23.8,53.78,10.8L5387.6-1021Z"/></clipPath><clipPath id="clip-path-170"><path class="cls-1" d="M5453.31-1040.52s-2.48,29.87,15.26,33.89c0,0-16.48,23.8-53.77,10.8l5.37-25.14Z"/></clipPath><clipPath id="clip-path-171"><path class="cls-1" d="M5321.79-955.51a51.3,51.3,0,0,0-.28,5.31A50.63,50.63,0,0,0,5349.35-905l4.07-12.06a38.12,38.12,0,0,1-19.37-33.16,38.27,38.27,0,0,1,.38-5.31Z"/></clipPath><clipPath id="clip-path-172"><path class="cls-1" d="M5349.18-919.83a7.32,7.32,0,0,0-1.68-6.37c-1.68-1.73-3.37-3.54-7.15-3.06a38.28,38.28,0,0,1-8.33,9.91c-.14,2.32-1.47,6.24,0,7.73s6.54,1.21,8.81,1.21a50.77,50.77,0,0,0,8.35-9.42"/></clipPath><clipPath id="clip-path-173"><path class="cls-1" d="M5385.69-999l-2.57,12.34a38.24,38.24,0,0,1,21.69,16.93l15.18,3.06a50.73,50.73,0,0,0-34.3-32.33"/></clipPath><clipPath id="clip-path-174"><path class="cls-1" d="M5372.12-1000.84a50.63,50.63,0,0,0-50.33,45.33h12.64a38.13,38.13,0,0,1,37.69-32.78,37.88,37.88,0,0,1,11,1.64l2.57-12.34a50.58,50.58,0,0,0-13.56-1.85"/></clipPath><clipPath id="clip-path-175"><path class="cls-1" d="M5403.66-993.11l19.69-11.09s19.51,69.61,23.67,106.49h-43.36Z"/></clipPath><clipPath id="clip-path-176"><path class="cls-1" d="M5408.45-986.89a50.56,50.56,0,0,0-8.57,13.62l10.08,9a37.87,37.87,0,0,1,8-14.48l.26-.27-11.4-2Z"/></clipPath><clipPath id="clip-path-177"><path class="cls-1" d="M5470.77-999.22c-10.6-2.55-20.79-6-31.86-4.31a50.39,50.39,0,0,0-30.27,16.42l-.19.22-1.58,5.83,11.4,2a38.32,38.32,0,0,1,30-12.44c12.51.6,23.42,6.76,36.33,4.82a50.61,50.61,0,0,0,14.37-4.41l-5.83-11.16a38.32,38.32,0,0,1-22.41,3"/></clipPath><clipPath id="clip-path-178"><path class="cls-1" d="M5403.92-993.11l-19.69-11.09s-19.51,69.61-23.67,106.49h43.36Z"/></clipPath><clipPath id="clip-path-179"><path class="cls-1" d="M5388.54-995.83H5392l-4.44-6.46-10.8,7.68,12.54,7.72-1.74,12.72,16.32,43v-47.33c-8.51-1.86-15.38-17.32-15.38-17.32"/></clipPath><clipPath id="clip-path-180"><path class="cls-1" d="M5419.29-995.83h-3.49l4.44-6.46,10.8,7.68-12.54,7.72,1.74,12.72-16.32,43v-47.33c8.51-1.86,15.38-17.32,15.38-17.32"/></clipPath><clipPath id="clip-path-181"><path class="cls-1" d="M5403.92-995.83h-15.38s6.87,15.46,15.38,17.32c8.51-1.86,15.38-17.32,15.38-17.32Z"/></clipPath><clipPath id="clip-path-182"><path class="cls-1" d="M5403.92-1006.63l-15.38,10.8s8.1,10.52,15.38,10.52c2.24,0,10-3.38,15.38-10.52Z"/></clipPath><clipPath id="clip-path-183"><path class="cls-1" d="M5370.36-1038.54a6.88,6.88,0,0,0-9.74,0,6.9,6.9,0,0,0,0,9.75,6.89,6.89,0,0,0,9.74,0,6.9,6.9,0,0,0,0-9.75"/></clipPath><clipPath id="clip-path-184"><path class="cls-1" d="M5447.21-1038.54a6.88,6.88,0,0,0-9.74,0,6.9,6.9,0,0,0,0,9.75,6.89,6.89,0,0,0,9.74,0,6.9,6.9,0,0,0,0-9.75"/></clipPath><clipPath id="clip-path-185"><path class="cls-1" d="M5411.72-993.1c10.66-3.68,21.74-9.1,26.86-19.15,3.54-6.95,3.67-15.07,3.74-22.87a105.25,105.25,0,0,0-.75-16.85,41,41,0,0,0-2-7.86,36.82,36.82,0,0,0-21-21.24,39.23,39.23,0,0,0-14.69-2.65l-6.82,59.45,6.82,32.79.51,0a24.41,24.41,0,0,0,7.29-1.65"/></clipPath><clipPath id="clip-path-186"><path class="cls-1" d="M5388.78-1080.62a35.93,35.93,0,0,0-17.47,14.58c-5.3,9-5.65,20-5.6,30.41,0,9.51.45,20.08,6.58,27.9s17,12.93,26.37,15.41a22.67,22.67,0,0,0,5.47.87l-2.79-33.55,8.15-2.79-5.37-55.9a41.67,41.67,0,0,0-15.34,3.08"/></clipPath><clipPath id="clip-path-187"><path class="cls-1" d="M5393-1043.41a2.9,2.9,0,0,0-2.9-2.9,2.9,2.9,0,0,0-2.9,2.9,2.9,2.9,0,0,0,2.9,2.9,2.9,2.9,0,0,0,2.9-2.9"/></clipPath><clipPath id="clip-path-188"><path class="cls-1" d="M5421.85-1043.41a2.9,2.9,0,0,0-2.9-2.9,2.9,2.9,0,0,0-2.9,2.9,2.9,2.9,0,0,0,2.9,2.9,2.9,2.9,0,0,0,2.9-2.9"/></clipPath><clipPath id="clip-path-189"><path class="cls-1" d="M5431.57-1030.44c0,1.78-2.85,3.22-6.37,3.22s-6.37-1.44-6.37-3.22,2.85-3.22,6.37-3.22,6.37,1.44,6.37,3.22"/></clipPath><clipPath id="clip-path-190"><path class="cls-1" d="M5377.65-1030.44c0,1.78,2.85,3.22,6.37,3.22s6.37-1.44,6.37-3.22-2.85-3.22-6.37-3.22-6.37,1.44-6.37,3.22"/></clipPath><clipPath id="clip-path-191"><polygon class="cls-1" points="5401.13 -1025.03 5412.59 -1025.03 5409.29 -1027.8 5401.13 -1025.03"/></clipPath><clipPath id="clip-path-192"><path class="cls-1" d="M5353.42-917h16.05v4.5h-6.76l-2.16,14.82s-7.64-1.1-11.2-7.27Z"/></clipPath><clipPath id="clip-path-193"><path class="cls-1" d="M5369.47-917a2.26,2.26,0,0,1,2.26,2.26,2.26,2.26,0,0,1-2.26,2.26,2.26,2.26,0,0,1-2.26-2.26,2.26,2.26,0,0,1,2.26-2.26"/></clipPath><clipPath id="clip-path-194"><path class="cls-1" d="M5529.55-1045.85a10.18,10.18,0,0,0,.55-3.29,10.19,10.19,0,0,0-10.18-10.19,10.19,10.19,0,0,0-10.19,10.19,10.14,10.14,0,0,0,1.69,5.62h0l0,0,.05.08,3.61,5.35a38,38,0,0,1-9.58,26.63,37.73,37.73,0,0,1-12.36,9.18l5.83,11.16a50.43,50.43,0,0,0,15.9-12c9.07-10.2,12.72-22.32,12.21-35l2.44-7.79Z"/></clipPath><clipPath id="clip-path-195"><path class="cls-1" d="M5512.06-1070.4a2.32,2.32,0,0,0-2.32,2.32v21.72h4.64v-21.72a2.32,2.32,0,0,0-2.32-2.32"/></clipPath><clipPath id="clip-path-196"><path class="cls-1" d="M5523.33-1051.43h-14.15a.84.84,0,0,0-.83.66,12.17,12.17,0,0,0-.25,2.43,14.2,14.2,0,0,0,.63,4.19c.88,2.81,5.08,1.56,5.13-1.39a.84.84,0,0,1,.84-.82h8.6v0h0a2.56,2.56,0,0,0,2.8-2.5,2.58,2.58,0,0,0-2.8-2.52"/></clipPath><clipPath id="clip-path-197"><path class="cls-1" d="M5403.92-1000.15a17.74,17.74,0,0,0,17.73-17.74h-35.46a17.74,17.74,0,0,0,17.73,17.74"/></clipPath><clipPath id="clip-path-198"><path class="cls-1" d="M5404.46-1064.2s-12.42,16.37-47.08,26.15c0,0-8.36-55.46,47.08-49.73Z"/></clipPath><clipPath id="clip-path-199"><path class="cls-1" d="M5403.38-1064.2s12.42,16.37,47.08,26.15c0,0,8.36-56.14-47.08-50.42Z"/></clipPath><clipPath id="clip-path-200"><path class="cls-1" d="M6093.47-901.78c10,64.16-33.48,125.61-33.48,125.61s-68.32,93.48-325.14,75.44v137.31s380,70.95,471.62-212.8c17.3-53.61,22.53-99.84,19.44-139.63-14.2-183-204.34-229.5-204.34-229.5S6088.19-935.73,6093.47-901.78Z"/></clipPath><clipPath id="clip-path-201"><path class="cls-1" d="M5735.25-701.6l-166.27-56-15.68,46.66,70,23.57L5594-526.28s83,15.21,141.35-36.21Z"/></clipPath><clipPath id="clip-path-202"><path class="cls-1" d="M5537.68-742a24.74,24.74,0,0,0,15.55,31.33,24.72,24.72,0,0,0,31.31-15.56A24.74,24.74,0,0,0,5569-757.56,24.72,24.72,0,0,0,5537.68-742"/></clipPath><clipPath id="clip-path-203"><path class="cls-1" d="M5623.33-687.34,5471.6-722.77l-40.35,153.46s120.38,50.91,189.46,45.13l28.61-66.14Z"/></clipPath><clipPath id="clip-path-204"><path class="cls-1" d="M5431.25-569.31c25.73,6.57,55.4-22.63,66.27-65.23s-1.18-82.46-26.91-89-55.4,22.63-66.27,65.23,1.18,82.46,26.91,89"/></clipPath><clipPath id="clip-path-205"><path class="cls-1" d="M5092.49-920.72c-23.52,70.42,28.9,144.55,28.9,144.55s68.32,93.48,325.14,75.44v137.31s-380,70.95-471.62-212.8c-29.51-91.45-23.89-161.44-1.8-214.55,50.43-121.26,186.7-154.58,186.7-154.58S5101.71-948.34,5092.49-920.72Z"/></clipPath><clipPath id="clip-path-206"><path class="cls-1" d="M5447.32-699.36l175.31,6.16L5620.9-644l-73.84-2.59-29.22,161.07s-74-13.36-113-72.66c-2.31-3.5,42.52-141.17,42.52-141.17"/></clipPath><clipPath id="clip-path-207"><path class="cls-1" d="M5646.47-667.6a24.73,24.73,0,0,1-25.57,23.85,24.73,24.73,0,0,1-23.84-25.59,24.73,24.73,0,0,1,25.58-23.86,24.73,24.73,0,0,1,23.84,25.59"/></clipPath><clipPath id="clip-path-208"><path class="cls-1" d="M5547.06-646.6l154.49,20.26-16.2,157.85s-130.58,5.27-193.21-24.47l-3.52-72Z"/></clipPath><clipPath id="clip-path-209"><path class="cls-1" d="M5685.36-468.48c-26.4-2.91-43.9-40.69-39.09-84.39s30.1-76.77,56.5-73.86,43.9,40.69,39.09,84.39-30.1,76.77-56.5,73.87"/></clipPath><clipPath id="clip-path-210"><polygon class="cls-1" points="-1782.09 633.03 -1782.09 703.51 -1293.79 985.43 -805.49 703.51 -805.49 633.03 -1293.79 351.11 -1782.09 633.03"/></clipPath><clipPath id="clip-path-211"><polygon class="cls-1" points="-1293.79 985.43 -1782.09 703.51 -1782.09 633.03 -1293.79 914.95 -1293.79 985.43"/></clipPath><clipPath id="clip-path-212"><polygon class="cls-1" points="-1049.64 985.43 -805.49 985.43 -805.49 633.03 -1293.79 633.03 -1293.79 985.43 -1049.64 985.43"/></clipPath><clipPath id="clip-path-213"><path class="cls-1" d="M-1244,583.61l-89.14-1.55c-4.86-.07-44.92,30.09-45,35l-.26,17.7a8.87,8.87,0,0,0,8.72,9l9.29.14,70.78,1c28.76.43,57.73,1.08,71.67,1.06l8.85.13a8.87,8.87,0,0,0,9-8.72l.27-17.7c.07-4.86-39.29-36-44.15-36.05"/></clipPath><clipPath id="clip-path-214"><path class="cls-1" d="M-1096.72,407.92a17.36,17.36,0,0,1-.36,24.34,17.36,17.36,0,0,1-24.33-.37,17.36,17.36,0,0,1,.36-24.33,17.36,17.36,0,0,1,24.33.36m-50.51-25.09a17.36,17.36,0,0,1-.36,24.33,17.36,17.36,0,0,1-24.34-.36,17.36,17.36,0,0,1,.37-24.33,17.36,17.36,0,0,1,24.33.36m-274.25-6.29a17.36,17.36,0,0,1,24.33.36,17.37,17.37,0,0,1-.36,24.34,17.36,17.36,0,0,1-24.33-.36,17.16,17.16,0,0,1,.36-24.33m-26.9,23.94a17.36,17.36,0,0,1-.37,24.33,17.36,17.36,0,0,1-24.33-.36,17.36,17.36,0,0,1,.36-24.33,17.36,17.36,0,0,1,24.34.36"/></clipPath><clipPath id="clip-path-215"><path class="cls-1" d="M-1241.52,354.88l-87.59-1.3c-9.74-.14-194,83.62-194.1,93.36l-.52,34.95a17.37,17.37,0,0,0,17.21,17.73l219.82-22.84,218.38,29.57a17.37,17.37,0,0,0,17.73-17.22l.52-34.95c.14-9.74-181.72-99.17-191.45-99.31"/></clipPath><clipPath id="clip-path-216"><path class="cls-1" d="M-1282.62,173.29c-24.33-.36-44.41,40.49-45.06,69.47l-4.48,316.09c-.44,29.2,17.77,114.43,42.1,114.79s45.06-84.29,45.49-113.49l4.92-316.09c.44-29.2-18.64-70.41-43-70.77"/></clipPath><clipPath id="clip-path-217"><path class="cls-1" d="M-1266,559.61l4.7-315.87c.37-24.78-13.29-58.16-32-68a27.37,27.37,0,0,1,10.88-2.72c24.33.37,43.19,41.8,42.75,71l-4.7,315.87c-.43,29.2-21.38,113.62-45.49,113.49-3.54-.05-7.27-2.1-10.76-5.69,19.09-19,34.21-83.34,34.57-108.12"/></clipPath><clipPath id="clip-path-218"><path class="cls-1" d="M-1199.92,488.47l-44.38-6.19,1.9-127.85,1.33,0c2.65,0,20,7.6,43.09,18.34Z"/></clipPath><clipPath id="clip-path-219"><path class="cls-1" d="M-1331,481.43l-175.28,18.41a17.63,17.63,0,0,1-17-15.74l192.55-19.48Zm87.85-15.51,192.09,26.31a17.51,17.51,0,0,1-17.24,14.12l-174.87-23.84Z"/></clipPath><clipPath id="clip-path-220"><path class="cls-1" d="M-1060.9,599.45a19.59,19.59,0,0,0-19.59-19.59,19.59,19.59,0,0,0-19.59,19.59A19.59,19.59,0,0,0-1080.48,619a19.59,19.59,0,0,0,19.59-19.59"/></clipPath><clipPath id="clip-path-221"><path class="cls-1" d="M-986.77,600.51A18.53,18.53,0,0,0-1005.29,582a18.53,18.53,0,0,0-18.53,18.53A18.53,18.53,0,0,0-1005.29,619a18.53,18.53,0,0,0,18.53-18.53"/></clipPath><clipPath id="clip-path-222"><path class="cls-1" d="M-1018.18,575.35a31.15,31.15,0,0,0-31.15-31.15,31.15,31.15,0,0,0-31.15,31.15,31.15,31.15,0,0,0,31.15,31.15,31.15,31.15,0,0,0,31.15-31.15"/></clipPath><clipPath id="clip-path-223"><polygon class="cls-1" points="-1018.18 575.35 -1018.89 599.45 -1002.83 602.97 -1002.83 619.04 -1080.48 619.04 -1080.48 591.29 -1018.18 575.35"/></clipPath><clipPath id="clip-path-224"><path class="cls-1" d="M-1475.32,631.52A30.57,30.57,0,0,1-1445,600.74a30.57,30.57,0,0,1,30.36,30.78A30.57,30.57,0,0,1-1445,662.3a30.57,30.57,0,0,1-30.36-30.78"/></clipPath><clipPath id="clip-path-225"><path class="cls-1" d="M-1590.22,633.18a28.92,28.92,0,0,1,28.72-29.11,28.92,28.92,0,0,1,28.72,29.11,28.92,28.92,0,0,1-28.72,29.11,28.92,28.92,0,0,1-28.72-29.11"/></clipPath><clipPath id="clip-path-226"><path class="cls-1" d="M-1541.54,593.64c0-27,21.62-49,48.29-49s48.29,21.92,48.29,49-21.62,49-48.29,49-48.29-21.92-48.29-49"/></clipPath><clipPath id="clip-path-227"><polygon class="cls-1" points="-1541.54 593.64 -1540.43 631.52 -1565.33 637.06 -1565.33 662.3 -1444.96 662.3 -1444.96 618.69 -1541.54 593.64"/></clipPath><clipPath id="clip-path-228"><path class="cls-1" d="M-1316.08,760.07a15.46,15.46,0,0,0-15.46-15.46A15.46,15.46,0,0,0-1347,760.07a15.46,15.46,0,0,0,15.46,15.46,15.46,15.46,0,0,0,15.46-15.46"/></clipPath><clipPath id="clip-path-229"><path class="cls-1" d="M-1247.77,765.76a9.47,9.47,0,0,0-9.47-9.47,9.47,9.47,0,0,0-9.47,9.47,9.47,9.47,0,0,0,9.47,9.47,9.47,9.47,0,0,0,9.47-9.47"/></clipPath><clipPath id="clip-path-230"><path class="cls-1" d="M-1265.25,756.29a15.46,15.46,0,0,0-15.46-15.46,15.46,15.46,0,0,0-15.46,15.46,15.46,15.46,0,0,0,15.46,15.46,15.46,15.46,0,0,0,15.46-15.46"/></clipPath><clipPath id="clip-path-231"><path class="cls-1" d="M-1282.5,753.07a22.16,22.16,0,0,0-22.16-22.16,22.16,22.16,0,0,0-22.16,22.16,22.16,22.16,0,0,0,22.16,22.16,22.16,22.16,0,0,0,22.16-22.16"/></clipPath><clipPath id="clip-path-232"><polygon class="cls-1" points="-1265.25 756.29 -1265.25 765.76 -1257.24 765.76 -1257.24 775.23 -1331.54 775.23 -1331.54 763.54 -1294.39 763.54 -1265.25 756.29"/></clipPath><clipPath id="clip-path-233"><path class="cls-1" d="M-1188,506.59a17.9,17.9,0,0,1,17.9-17.9,17.9,17.9,0,0,1,17.9,17.9,17.9,17.9,0,0,1-17.9,17.9,17.9,17.9,0,0,1-17.9-17.9"/></clipPath><clipPath id="clip-path-234"><path class="cls-1" d="M-1267.12,513.18a11,11,0,0,1,11-11,11,11,0,0,1,11,11,11,11,0,0,1-11,11,11,11,0,0,1-11-11"/></clipPath><clipPath id="clip-path-235"><path class="cls-1" d="M-1246.87,502.21a17.9,17.9,0,0,1,17.9-17.9,17.9,17.9,0,0,1,17.9,17.9,17.9,17.9,0,0,1-17.9,17.9,17.9,17.9,0,0,1-17.9-17.9"/></clipPath><clipPath id="clip-path-236"><path class="cls-1" d="M-1226.9,498.48a25.67,25.67,0,0,1,25.67-25.67,25.67,25.67,0,0,1,25.67,25.67,25.67,25.67,0,0,1-25.67,25.67,25.67,25.67,0,0,1-25.67-25.67"/></clipPath><clipPath id="clip-path-237"><polygon class="cls-1" points="-1246.87 502.21 -1246.87 513.18 -1256.15 513.18 -1256.15 524.15 -1170.09 524.15 -1170.09 510.61 -1213.12 510.61 -1246.87 502.21"/></clipPath><clipPath id="clip-path-238"><rect class="cls-2" x="1378.61" y="358.27" width="10.8" height="135.33" transform="translate(-61.58 341.16) rotate(-13.75)"/></clipPath><clipPath id="clip-path-239"><rect class="cls-2" x="-781.46" y="-1297.25" width="3486.31" height="3273.87"/></clipPath><clipPath id="clip-path-240"><path class="cls-1" d="M1430.25,345a64.15,64.15,0,1,0-47.07,77.61A64.14,64.14,0,0,0,1430.25,345"/></clipPath><clipPath id="clip-path-242"><path class="cls-1" d="M1388.5,615.66a94.25,94.25,0,0,0-94.21,94.29h188.42a94.25,94.25,0,0,0-94.21-94.29"/></clipPath><clipPath id="clip-path-244"><path class="cls-1" d="M1326.47,671a51.86,51.86,0,0,0-51.84,51.88h103.68A51.86,51.86,0,0,0,1326.47,671"/></clipPath><clipPath id="clip-path-246"><path class="cls-1" d="M987,937.54a56.42,56.42,0,0,0-50.64,31.6,45.35,45.35,0,0,0-53.89-1.58,70.14,70.14,0,1,0-137.74,26.51h298.74A56.5,56.5,0,0,0,987,937.54"/></clipPath><clipPath id="clip-path-248"><polygon class="cls-1" points="998.67 895.32 675.97 708.89 917.99 569.04 1240.69 755.47 998.67 895.32"/></clipPath><clipPath id="clip-path-250"><polygon class="cls-1" points="1008.58 720.58 804.13 485.34 880.14 264.23 1084.58 499.47 1008.58 720.58"/></clipPath><clipPath id="clip-path-252"><polygon class="cls-1" points="1244.34 375.42 1084.59 499.44 1008.59 720.55 1237.92 675.87 1313.92 454.79 1244.34 375.42"/></clipPath><clipPath id="clip-path-254"><polygon class="cls-1" points="853.83 284.15 1032.76 131.28 1244.34 375.42 1058.28 519.39 853.83 284.15"/></clipPath><clipPath id="clip-path-256"><polygon class="cls-1" points="1084.98 705.67 1135.66 558.24 1212.14 543.38 1161.48 690.77 1084.98 705.67"/></clipPath><clipPath id="clip-path-258"><polygon class="cls-1" points="982.63 484.82 957.29 558.52 1008.4 617.33 1033.74 543.63 982.63 484.82"/></clipPath><clipPath id="clip-path-260"><polygon class="cls-1" points="880.59 367.42 855.26 441.12 906.37 499.93 931.71 426.23 880.59 367.42"/></clipPath><clipPath id="clip-path-262"><polygon class="cls-1" points="1031.65 380.51 1057.13 306.38 1019.91 263.56 994.42 337.69 1031.65 380.51"/></clipPath><clipPath id="clip-path-264"><polygon class="cls-1" points="1112.65 295.99 1057.13 306.38 1031.65 380.51 1102.39 325.83 1112.65 295.99"/></clipPath><clipPath id="clip-path-266"><polygon class="cls-1" points="1019.91 263.56 1057.13 306.38 1112.65 295.99 1075.44 252.73 1019.91 263.56"/></clipPath><clipPath id="clip-path-268"><path class="cls-1" d="M719.66,701.66a80.93,80.93,0,0,0-80.9,81h161.8a80.93,80.93,0,0,0-80.9-81"/></clipPath><clipPath id="clip-path-270"><path class="cls-1" d="M669.31,215.67c1.81-5.44,3.09-9.39,3.09-9.39S678.75,194.1,664,189l-18.29-6.27s-1.58-2.18-18.23,2.45a109.54,109.54,0,0,0-21.06,6.4c-6.58,2.88-12.67,6.78-14.73,11.79-5.18,12.59-2.78,22.11,4.57,29.85,1.74,1.83,5.14,3.79,9.31,5.72,4.58,2.11,10.09,4.19,15.37,6,10.26,3.53,19.66,6.08,19.66,6.08s15.2,2.6,19.45-8.56c2.57-6.74,6.55-18.54,9.31-26.83"/></clipPath><clipPath id="clip-path-272"><path class="cls-1" d="M620.68,276.48l-15,56.19,16.73,5.73,14.08-36.87,2.83-11.29c-9.68-3.61-15.36-8.67-18.65-13.76"/></clipPath><clipPath id="clip-path-274"><path class="cls-1" d="M724.52,327.68a25.64,25.64,0,0,1-5.12,2.35l-2.22,6.48a2.06,2.06,0,1,1-3.89-1.33l1.39-4.06a25.3,25.3,0,0,1-6.73,0l-2,5.71a2,2,0,0,1-.9,1.09l-9.53,25.57,15.18,5.2L728,337.41l2.21-6.45a20.65,20.65,0,0,1-5.66-3.27"/></clipPath><clipPath id="clip-path-276"><path class="cls-1" d="M750.92,243.64l-81.61-28c-2.75,8.3-6.74,20.1-9.31,26.83-4.25,11.16-19.45,8.56-19.45,8.56s-9.39-2.56-19.66-6.08L617,256.47a27,27,0,0,0,3.71,20c3.29,5.1,9,10.15,18.65,13.76l-2.83,11.29-9.63,38.39L643,345.47l20.09-47.29,22.76,7.8,27.58,9.45,3.75,1.28a22.88,22.88,0,0,0,7.3,11,20.61,20.61,0,0,0,5.66,3.27L728,337.41l-11.39,33.27L732.15,376l20.47-38.24L770.35,286s12.87-31.27-19.43-42.34"/></clipPath><clipPath id="clip-path-278"><path class="cls-1" d="M717.22,316.72l-3.75-1.29L685.89,306a25.49,25.49,0,0,0,1.38,8.07l-2.2,6.44a2.06,2.06,0,1,0,3.89,1.33l.84-2.46a25.52,25.52,0,0,0,4.47,5.35l-1.7,5a2.06,2.06,0,1,0,3.89,1.33l1.26-3.69a25.5,25.5,0,0,0,5.41,2.61l.79.25-1.81,5.28a2,2,0,0,0,3,2.43,2,2,0,0,0,.9-1.1l2-5.71a25.31,25.31,0,0,0,6.73,0l-1.39,4.06a2.06,2.06,0,1,0,3.89,1.33l2.22-6.48a25.61,25.61,0,0,0,5.12-2.35,22.89,22.89,0,0,1-7.3-11"/></clipPath><clipPath id="clip-path-280"><path class="cls-1" d="M647.2,199a2.47,2.47,0,0,1,1.39-4.74c.61.14,15.21,3.42,18.87-11.58a2.47,2.47,0,1,1,4.79,1.17c-4.84,19.84-24.63,15.26-24.83,15.21l-.22-.06"/></clipPath><clipPath id="clip-path-282"><path class="cls-1" d="M680.13,283.34a12.77,12.77,0,0,0-16.58,15l20.49,7a12.78,12.78,0,0,0-3.92-22"/></clipPath><clipPath id="clip-path-284"><path class="cls-1" d="M646,323.61a12.75,12.75,0,0,0-10.77-16.86L629,331.29c.23.09.45.2.69.28a12.78,12.78,0,0,0,16.23-8"/></clipPath><clipPath id="clip-path-286"><path class="cls-1" d="M758.8,291.23A18,18,0,1,0,756.67,326l10-29.33a18,18,0,0,0-7.91-5.4"/></clipPath><clipPath id="clip-path-288"><path class="cls-1" d="M709.11,270.55a31.29,31.29,0,0,0,41.29-27.09l-57.33-19.65a31.32,31.32,0,0,0,16,46.74"/></clipPath><clipPath id="clip-path-290"><path class="cls-1" d="M660,242.51c1-2.53,2.13-5.77,3.35-9.27a18.1,18.1,0,0,0-32.82,14.89c5.83,1.81,10,2.94,10,2.94s15.2,2.6,19.45-8.56"/></clipPath><clipPath id="clip-path-292"><path class="cls-1" d="M621,196.64a18,18,0,0,0,.48-10.07,101,101,0,0,0-15.11,5.06c-6.58,2.88-12.67,6.78-14.73,11.79-.07.17-.13.34-.2.52A18.09,18.09,0,0,0,621,196.64"/></clipPath><clipPath id="clip-path-294"><path class="cls-1" d="M606.37,191.62c-6.58,2.88-12.67,6.78-14.73,11.79-5.18,12.59-2.78,22.11,4.57,29.85,1.74,1.83,5.14,3.79,9.31,5.72,12.91-24.75,6.6-39.92.85-47.36"/></clipPath><clipPath id="clip-path-296"><path class="cls-1" d="M636.73,204.51a4.29,4.29,0,1,0-5.45,2.67,4.3,4.3,0,0,0,5.45-2.67"/></clipPath><clipPath id="clip-path-298"><path class="cls-1" d="M626.64,309.19a14.25,14.25,0,0,0-8.85-18.09c-.31-.11-.63-.19-.94-.27l-7.34,27.49a14.22,14.22,0,0,0,17.13-9.13"/></clipPath><clipPath id="clip-path-300"><path class="cls-1" d="M700.45,350.38l-4.88,13.1L708.8,368a14,14,0,0,0-8.35-17.64"/></clipPath><clipPath id="clip-path-302"><path class="cls-1" d="M760.72,263.74l.33-6.58c.61,0,15,.42,20.72-16.34L788,243c-3.83,11.2-11,16.27-16.32,18.55a26.9,26.9,0,0,1-11,2.24"/></clipPath><clipPath id="clip-path-304"><path class="cls-1" d="M782.91,247.64h0c-3.17-1.09-5.11-3.8-4.33-6.07l3.86-11.27c.77-2.27,4-3.22,7.14-2.14s5.11,3.8,4.33,6.07l-3.86,11.27c-.78,2.27-4,3.22-7.14,2.14"/></clipPath><clipPath id="clip-path-342"><path class="cls-1" d="M654.47,419.35c-119.68,0-216.69,25.69-216.69,57.39a16.86,16.86,0,0,0,1.87,7.54h0l.09.14a22.79,22.79,0,0,0,1.57,2.65l40.56,68.33c-8.2.42-14.18,4-14.18,16.5,0,24,28.43,40.57,40.38,45.92,4.6,2.07,9.36,3.94,14.22,5.67L630.21,805.31a41.85,41.85,0,0,0-4,3.28,29.45,29.45,0,0,0-53,25.44,39.79,39.79,0,0,0-20.55,18.09,29.44,29.44,0,0,0-46.92,19.71h291a29.46,29.46,0,0,0-35.07-25.05A43,43,0,0,0,713,818.67c0-.26,0-.51,0-.77a21.26,21.26,0,0,0-21.25-21.27,21,21,0,0,0-9.11,2.07l46.18-77.88c4.26-1.53,8.43-3.2,12.48-5,11.09-5,37.47-20.31,37.47-42.62,0-11.31-5.31-14.76-12.66-15.27L866.43,488.72A23,23,0,0,0,870,482.6a16.27,16.27,0,0,0,1.12-5.87c0-31.69-97-57.39-216.69-57.39"/></clipPath><clipPath id="clip-path-344"><path class="cls-1" d="M439.64,484.28l.27.45c-.08-.15-.17-.3-.24-.45Z"/></clipPath><clipPath id="clip-path-346"><path class="cls-1" d="M443.76,488.46l-4-4a37.6,37.6,0,0,0,4,4"/></clipPath><clipPath id="clip-path-348"><path class="cls-1" d="M866.43,488.72a22.66,22.66,0,0,0,4-6.11Z"/></clipPath><clipPath id="clip-path-350"><path class="cls-1" d="M654.48,419.35c-119.68,0-216.69,25.69-216.69,57.39a16.86,16.86,0,0,0,1.87,7.54l.08.15,1.57,2.65c18.38,26.76,106.83,47,213.18,47,104.16,0,191.15-19.46,212-45.41l3.62-6.11a16.28,16.28,0,0,0,1.12-5.87c0-31.69-97-57.39-216.69-57.39"/></clipPath><clipPath id="clip-path-352"><path class="cls-1" d="M441.3,487.07l213.18,359.1V534.12c-106.35,0-194.8-20.29-213.18-47"/></clipPath><clipPath id="clip-path-354"><path class="cls-1" d="M654.48,534.12V846.17l212-357.46c-20.81,25.94-107.79,45.41-212,45.41"/></clipPath><clipPath id="clip-path-356"><path class="cls-1" d="M504.93,482l.19.31-.17-.31Z"/></clipPath><clipPath id="clip-path-358"><path class="cls-1" d="M508.35,486.13l-3.36-4a35.2,35.2,0,0,0,3.36,4"/></clipPath><clipPath id="clip-path-360"><path class="cls-1" d="M802,485.08a16.69,16.69,0,0,0,4-4.25Z"/></clipPath><clipPath id="clip-path-362"><path class="cls-1" d="M654.48,436.79c-83.31,0-150.84,17.88-150.84,39.95a11.74,11.74,0,0,0,1.3,5.25l.05.1,1.09,1.84c12.79,18.63,74.36,32.75,148.39,32.75,72.51,0,133.05-13.55,147.54-31.61l2.52-4.25a11.33,11.33,0,0,0,.78-4.08c0-22.06-67.53-39.95-150.84-39.95"/></clipPath><clipPath id="clip-path-364"><path class="cls-1" d="M575,479.53l.1.17-.08-.17Z"/></clipPath><clipPath id="clip-path-366"><path class="cls-1" d="M576.78,482.59l-1.78-3a25.87,25.87,0,0,0,1.78,3"/></clipPath><clipPath id="clip-path-368"><path class="cls-1" d="M732.92,482.95a16.14,16.14,0,0,0,4-4Z"/></clipPath><clipPath id="clip-path-370"><path class="cls-1" d="M654.48,455.5c-44.29,0-80.2,9.51-80.2,21.24a6.24,6.24,0,0,0,.69,2.79l0,.05.58,1c6.8,9.9,39.54,17.41,78.9,17.41,38.55,0,70.75-7.2,78.45-16.81l1.34-2.26a6,6,0,0,0,.41-2.17c0-11.73-35.91-21.24-80.2-21.24"/></clipPath><clipPath id="clip-path-372"><path class="cls-1" d="M481.86,555.4l13.75,23.16c18.68,17.3,44.73,24.59,69.45,31.38C598,619,632.63,620,666.83,620.11c-12.32,11.17-29.55,15.19-46.14,16.31-36.83,2.49-78.62-3.36-112.63-18.61-12-5.36-40.38-21.89-40.38-45.92,0-12.47,6-16.08,14.18-16.5"/></clipPath><clipPath id="clip-path-374"><path class="cls-1" d="M765.59,657.88l-12.76,21.49c-17.33,16.05-41.5,22.82-64.45,29.12-30.6,8.4-62.71,9.35-94.44,9.44,11.43,10.37,27.42,14.1,42.82,15.14,34.18,2.31,73-3.11,104.52-17.27,11.09-5,37.47-20.31,37.47-42.62,0-11.57-5.55-14.92-13.16-15.31"/></clipPath><clipPath id="clip-path-376"><path class="cls-1" d="M767.57,846.17a29.6,29.6,0,0,0-5.88.59A43,43,0,0,0,713,818.67c0-.26,0-.51,0-.77a21.23,21.23,0,0,0-36.9-14.36,41.62,41.62,0,0,0-49.9,5,29.45,29.45,0,0,0-53,25.44,39.79,39.79,0,0,0-20.55,18.09,29.44,29.44,0,0,0-46.92,19.71h291a29.46,29.46,0,0,0-29.19-25.64"/></clipPath><clipPath id="clip-path-378"><polyline class="cls-1" points="2791.47 406.12 2791.32 585.77 2869.01 630.62 2869.01 630.81 2869.18 630.72 2869.34 630.81 2869.34 630.62 2947.03 585.77 2946.88 406.12 2869.41 450.94"/></clipPath><clipPath id="clip-path-379"><polygon class="cls-1" points="2791.47 406.12 2868.94 450.94 2869.34 630.81 2791.32 585.77 2791.47 406.12"/></clipPath><clipPath id="clip-path-380"><polygon class="cls-1" points="2946.88 406.12 2869.41 450.94 2869.01 630.81 2947.03 585.77 2946.88 406.12"/></clipPath><clipPath id="clip-path-381"><polygon class="cls-1" points="3092.86 726.8 3092.86 402.59 3373.69 240.48 3373.69 564.7 3092.86 726.8"/></clipPath><clipPath id="clip-path-382"><polygon class="cls-1" points="3387.78 552.36 3093.72 495.88 3093.56 592.39 3139.85 712.04 3387.78 552.36"/></clipPath><clipPath id="clip-path-383"><polygon class="cls-1" points="3371.47 257.61 3036.78 257.61 2869.09 354.55 3120.31 402.59 3371.47 257.61"/></clipPath><clipPath id="clip-path-384"><polygon class="cls-1" points="3248.46 388.7 2951.96 406.54 2958.44 468.32 3234.97 547.74 3248.46 388.7"/></clipPath><clipPath id="clip-path-385"><path class="cls-1" d="M3291.62,470.38c-1.84,44.11-25.41,79-52.64,77.82s-47.81-37.82-46-81.94,25.41-79,52.64-77.81,47.81,37.82,46,81.93"/></clipPath><clipPath id="clip-path-386"><polygon class="cls-1" points="3120.32 402.75 2869.17 354.55 2869.01 451.05 3120.32 692.55 3120.32 402.75"/></clipPath><clipPath id="clip-path-387"><polygon class="cls-1" points="3420.01 208.16 3387.78 189.51 3075.53 369.76 3107.76 388.42 3420.01 208.16"/></clipPath><clipPath id="clip-path-388"><polygon class="cls-1" points="3420.01 527.44 3387.78 508.78 3075.53 689.03 3107.76 707.69 3420.01 527.44"/></clipPath><clipPath id="clip-path-389"><polygon class="cls-1" points="3075.53 730.26 3107.76 748.91 3107.76 388.42 3075.53 369.76 3075.53 730.26"/></clipPath><clipPath id="clip-path-390"><polygon class="cls-1" points="3355.55 527.25 3387.78 545.91 3387.78 247.29 3355.55 259.16 3355.55 527.25"/></clipPath><clipPath id="clip-path-391"><path class="cls-1" d="M3420,249.71V208.55l-.13.07v-.07l-32.1,18.53v.07L3139.85,370.27v-.37l-32.1,18.53V748.91l280-161.65v.16l32.1-18.57v-.11l.13-.07V527.5l-.13.07V249.78Zm-32.23,296.4L3139.85,689.22V411.43l247.93-143.12Z"/></clipPath><clipPath id="clip-path-392"><polygon class="cls-1" points="3037.18 257.52 2925.09 192.94 2757.11 289.9 2869.09 354.55 3037.18 257.52"/></clipPath><clipPath id="clip-path-393"><polygon class="cls-1" points="2757.22 290.25 2869.16 354.57 2869.34 451.05 2757 386.71 2757.22 290.25"/></clipPath><clipPath id="clip-path-394"><polygon class="cls-1" points="3552.89 472.12 3554.58 408.24 3459.74 465 3461.71 390.39 3603.47 324.14 3602.01 379.16 3734.05 327.58 3552.89 472.12"/></clipPath><clipPath id="clip-path-395"><polygon class="cls-1" points="3299.68 758.41 3363.57 760.1 3306.81 665.28 3381.43 667.25 3447.69 808.98 3392.66 807.53 3444.24 939.54 3299.68 758.41"/></clipPath><clipPath id="clip-path-396"><polygon class="cls-1" points="3552.89 562.22 3554.58 626.1 3459.74 569.35 3461.71 643.95 3603.47 710.21 3602.01 655.18 3734.05 706.76 3552.89 562.22"/></clipPath></defs><title>ilustracoes_caixa_am5SVG</title><g class="cls-241"><g class="cls-242"><rect class="cls-243" x="1349.08" y="345.3" width="69.85" height="161.27"/></g></g><g class="cls-244"><g class="cls-242"><rect class="cls-245" x="1290.17" y="282.38" width="155.55" height="155.65"/></g></g><g class="cls-246"><g class="cls-242"><rect class="cls-247" x="1280.67" y="602.04" width="215.66" height="121.52"/></g></g><g class="cls-248"><g class="cls-242"><rect class="cls-245" x="1261.01" y="657.42" width="130.92" height="79.12"/></g></g><g class="cls-249"><g class="cls-242"><rect class="cls-247" x="729.79" y="896.54" width="327.33" height="111.14"/></g></g><g class="cls-250"><g class="cls-242"><rect class="cls-247" x="662.35" y="555.42" width="591.96" height="353.51"/></g></g><g class="cls-251"><g class="cls-242"><rect class="cls-252" x="790.51" y="250.61" width="307.69" height="483.59"/></g></g><g class="cls-253"><g class="cls-242"><rect class="cls-254" x="994.97" y="361.8" width="332.57" height="372.37"/></g></g><g class="cls-255"><g class="cls-242"><rect class="cls-256" x="840.21" y="117.66" width="417.75" height="415.35"/></g></g><g class="cls-257"><g class="cls-242"><rect class="cls-258" x="1071.37" y="529.76" width="154.39" height="189.53"/></g></g><g class="cls-259"><g class="cls-242"><rect class="cls-260" x="943.67" y="471.2" width="103.68" height="159.75"/></g></g><g class="cls-261"><g class="cls-242"><rect class="cls-260" x="841.64" y="353.8" width="103.68" height="159.75"/></g></g><g class="cls-262"><g class="cls-242"><rect class="cls-252" x="980.81" y="249.94" width="89.94" height="144.2"/></g></g><g class="cls-263"><g class="cls-242"><rect class="cls-254" x="1018.03" y="282.37" width="108.24" height="111.77"/></g></g><g class="cls-264"><g class="cls-242"><rect class="cls-265" x="1006.29" y="239.12" width="119.98" height="80.89"/></g></g><g class="cls-266"><g class="cls-242"><rect class="cls-267" x="625.14" y="688.04" width="189.03" height="108.2"/></g></g><g class="cls-268"><g class="cls-242"><rect class="cls-269" x="575.26" y="168.64" width="112.11" height="96.31"/></g></g><g class="cls-270"><g class="cls-242"><rect class="cls-269" x="592.06" y="262.87" width="60.88" height="89.16"/></g></g><g class="cls-271"><g class="cls-242"><rect class="cls-269" x="681.95" y="314.06" width="61.84" height="68.24"/></g></g><g class="cls-272"><g class="cls-242"><rect class="cls-269" x="602.79" y="202.05" width="183.71" height="187.58"/></g></g><g class="cls-273"><g class="cls-242"><rect class="cls-269" x="671.33" y="292.37" width="66.81" height="59.45"/></g></g><g class="cls-274"><g class="cls-242"><rect class="cls-269" x="631.92" y="167.13" width="54.03" height="45.99"/></g></g><g class="cls-275"><g class="cls-242"><rect class="cls-269" x="649.59" y="269.03" width="52.8" height="49.94"/></g></g><g class="cls-276"><g class="cls-242"><rect class="cls-269" x="615.41" y="293.14" width="44.85" height="52.74"/></g></g><g class="cls-277"><g class="cls-242"><rect class="cls-269" x="721.3" y="276.63" width="59.03" height="63.34"/></g></g><g class="cls-278"><g class="cls-242"><rect class="cls-269" x="674.35" y="210.2" width="89.67" height="75.67"/></g></g><g class="cls-279"><g class="cls-242"><rect class="cls-269" x="615.91" y="210.44" width="61.07" height="54.51"/></g></g><g class="cls-280"><g class="cls-242"><rect class="cls-269" x="577.83" y="172.95" width="57.77" height="49.56"/></g></g><g class="cls-281"><g class="cls-242"><rect class="cls-269" x="575.26" y="178.01" width="51.45" height="74.6"/></g></g><g class="cls-282"><g class="cls-242"><rect class="cls-269" x="614.76" y="185.2" width="35.83" height="35.83"/></g></g><g class="cls-283"><g class="cls-242"><rect class="cls-269" x="595.89" y="277.21" width="45.14" height="55.21"/></g></g><g class="cls-284"><g class="cls-242"><rect class="cls-269" x="681.95" y="336.76" width="41.22" height="44.87"/></g></g><g class="cls-285"><g class="cls-242"><rect class="cls-269" x="747.1" y="227.2" width="54.51" height="50.17"/></g></g><g class="cls-286"><g class="cls-242"><rect class="cls-269" x="764.79" y="214.1" width="42.91" height="47.61"/></g></g><g class="cls-268"><g class="cls-242"><rect class="cls-269" x="575.26" y="168.64" width="112.11" height="96.31"/></g></g><g class="cls-270"><g class="cls-242"><rect class="cls-287" x="592.06" y="262.87" width="60.88" height="89.16"/></g></g><g class="cls-271"><g class="cls-242"><rect class="cls-287" x="681.95" y="314.06" width="61.84" height="68.24"/></g></g><g class="cls-272"><g class="cls-242"><rect class="cls-269" x="602.79" y="202.05" width="183.71" height="187.58"/></g></g><g class="cls-273"><g class="cls-242"><rect class="cls-288" x="671.33" y="292.37" width="66.81" height="59.45"/></g></g><g class="cls-274"><g class="cls-242"><rect class="cls-289" x="631.92" y="167.13" width="54.03" height="45.99"/></g></g><g class="cls-275"><g class="cls-242"><rect class="cls-290" x="649.59" y="269.03" width="52.8" height="49.94"/></g></g><g class="cls-276"><g class="cls-242"><rect class="cls-290" x="615.41" y="293.14" width="44.85" height="52.74"/></g></g><g class="cls-277"><g class="cls-242"><rect class="cls-290" x="721.3" y="276.63" width="59.03" height="63.34"/></g></g><g class="cls-278"><g class="cls-242"><rect class="cls-290" x="674.35" y="210.2" width="89.67" height="75.67"/></g></g><g class="cls-279"><g class="cls-242"><rect class="cls-290" x="615.91" y="210.44" width="61.07" height="54.51"/></g></g><g class="cls-280"><g class="cls-242"><rect class="cls-290" x="577.83" y="172.95" width="57.77" height="49.56"/></g></g><g class="cls-281"><g class="cls-242"><rect class="cls-288" x="575.26" y="178.01" width="51.45" height="74.6"/></g></g><g class="cls-282"><g class="cls-242"><rect class="cls-291" x="614.76" y="185.2" width="35.83" height="35.83"/></g></g><g class="cls-283"><g class="cls-242"><rect class="cls-292" x="595.89" y="277.21" width="45.14" height="55.21"/></g></g><g class="cls-284"><g class="cls-242"><rect class="cls-292" x="681.95" y="336.76" width="41.22" height="44.87"/></g></g><g class="cls-285"><g class="cls-242"><rect class="cls-269" x="747.1" y="227.2" width="54.51" height="50.17"/></g></g><g class="cls-286"><g class="cls-242"><rect class="cls-290" x="764.79" y="214.1" width="42.91" height="47.61"/></g></g><g class="cls-293"><g class="cls-242"><rect class="cls-294" x="424.16" y="405.73" width="460.62" height="479.7"/></g></g><g class="cls-295"><g class="cls-242"><rect class="cls-296" x="426.02" y="470.66" width="27.5" height="27.69"/></g></g><g class="cls-297"><g class="cls-242"><rect class="cls-298" x="426.11" y="470.81" width="31.27" height="31.27"/></g></g><g class="cls-299"><g class="cls-242"><rect class="cls-298" x="852.81" y="468.99" width="31.27" height="33.35"/></g></g><g class="cls-300"><g class="cls-242"><rect class="cls-301" x="424.16" y="405.73" width="460.62" height="142.01"/></g></g><g class="cls-302"><g class="cls-242"><rect class="cls-301" x="427.68" y="473.45" width="240.42" height="386.34"/></g></g><g class="cls-303"><g class="cls-242"><rect class="cls-304" x="640.86" y="475.1" width="239.19" height="384.69"/></g></g><g class="cls-305"><g class="cls-242"><rect class="cls-306" x="491.31" y="468.37" width="27.42" height="27.55"/></g></g><g class="cls-307"><g class="cls-242"><rect class="cls-306" x="491.37" y="468.47" width="30.59" height="31.27"/></g></g><g class="cls-308"><g class="cls-242"><rect class="cls-306" x="788.39" y="467.2" width="31.27" height="31.49"/></g></g><g class="cls-309"><g class="cls-242"><rect class="cls-304" x="490.02" y="423.17" width="328.91" height="107.13"/></g></g><g class="cls-310"><g class="cls-242"><rect class="cls-311" x="561.34" y="465.91" width="27.33" height="27.4"/></g></g><g class="cls-312"><g class="cls-242"><rect class="cls-311" x="561.37" y="465.97" width="29.02" height="30.24"/></g></g><g class="cls-313"><g class="cls-242"><rect class="cls-311" x="719.3" y="465.29" width="31.27" height="31.27"/></g></g><g class="cls-314"><g class="cls-242"><rect class="cls-315" x="560.66" y="441.88" width="187.64" height="69.72"/></g></g><g class="cls-316"><g class="cls-242"><rect class="cls-315" x="454.05" y="541.78" width="226.39" height="108.82"/></g></g><g class="cls-317"><g class="cls-242"><rect class="cls-315" x="580.33" y="644.27" width="212.05" height="102.94"/></g></g><g class="cls-318"><g class="cls-242"><rect class="cls-315" x="492.14" y="780.05" width="318.24" height="105.39"/></g></g></svg>