<svg id="Layer_1" data-name="Layer 1" xmlns="http://www.w3.org/2000/svg" xmlns:xlink="http://www.w3.org/1999/xlink" viewBox="0 0 1920 1080"><defs><style>.cls-1,.cls-2,.cls-3{fill:none;}.cls-1{clip-rule:evenodd;}.cls-3{fill-rule:evenodd;}.cls-4{clip-path:url(#clip-path);}.cls-5{clip-path:url(#clip-path-2);}.cls-6{fill:#3c9344;}.cls-7{clip-path:url(#clip-path-3);}.cls-8{fill:#347534;}.cls-9{clip-path:url(#clip-path-5);}.cls-10{isolation:isolate;}.cls-11{clip-path:url(#clip-path-7);}.cls-12{clip-path:url(#clip-path-8);}.cls-13{fill:#00652e;}.cls-14{clip-path:url(#clip-path-10);}.cls-15{fill:#733791;}.cls-16{clip-path:url(#clip-path-12);}.cls-17{fill:#500778;}.cls-18{clip-path:url(#clip-path-14);}.cls-19{fill:#ff9141;}.cls-20{clip-path:url(#clip-path-16);}.cls-21{fill:#00a499;}.cls-22{clip-path:url(#clip-path-18);}.cls-23{fill:#64c8c3;}.cls-24{clip-path:url(#clip-path-20);}.cls-25{clip-path:url(#clip-path-22);}.cls-26{clip-path:url(#clip-path-24);}.cls-27{clip-path:url(#clip-path-25);}.cls-28{clip-path:url(#clip-path-26);}.cls-29{clip-path:url(#clip-path-27);}.cls-30{clip-path:url(#clip-path-29);}.cls-31{fill:#420768;}.cls-32{clip-path:url(#clip-path-31);}.cls-33{clip-path:url(#clip-path-33);}.cls-34{fill:#99bf19;}.cls-35{clip-path:url(#clip-path-35);}.cls-36{clip-path:url(#clip-path-37);}.cls-37{fill:#4ca92c;}.cls-38{clip-path:url(#clip-path-39);}.cls-39{clip-path:url(#clip-path-41);}.cls-40{fill:#ff6d00;}.cls-41{clip-path:url(#clip-path-43);}.cls-42{fill:#2c346e;}.cls-43{clip-path:url(#clip-path-45);}.cls-44{fill:#13b9b0;}.cls-45{clip-path:url(#clip-path-47);}.cls-46{clip-path:url(#clip-path-49);}.cls-47{clip-path:url(#clip-path-51);}.cls-48{clip-path:url(#clip-path-53);}.cls-49{clip-path:url(#clip-path-55);}.cls-50{clip-path:url(#clip-path-57);}.cls-51{clip-path:url(#clip-path-59);}.cls-52{clip-path:url(#clip-path-61);}.cls-53{clip-path:url(#clip-path-63);}.cls-54{fill:#ffb692;}.cls-55{clip-path:url(#clip-path-65);}.cls-56{fill:#b5802c;}.cls-57{clip-path:url(#clip-path-67);}.cls-58{fill:#96631a;}.cls-59{clip-path:url(#clip-path-69);}.cls-60{clip-path:url(#clip-path-71);}.cls-61{clip-path:url(#clip-path-73);}.cls-62{fill:#ffa57d;}.cls-63{clip-path:url(#clip-path-75);}.cls-64{fill:#f99067;}.cls-65{clip-path:url(#clip-path-77);}.cls-66{clip-path:url(#clip-path-79);}.cls-67{clip-path:url(#clip-path-81);}.cls-68{clip-path:url(#clip-path-83);}.cls-69{clip-path:url(#clip-path-85);}.cls-70{fill:#59a352;}.cls-71{clip-path:url(#clip-path-87);}.cls-72{clip-path:url(#clip-path-89);}.cls-73{clip-path:url(#clip-path-91);}.cls-74{clip-path:url(#clip-path-93);}.cls-75{clip-path:url(#clip-path-95);}.cls-76{clip-path:url(#clip-path-97);}.cls-77{clip-path:url(#clip-path-99);}.cls-78{clip-path:url(#clip-path-101);}.cls-79{clip-path:url(#clip-path-103);}.cls-80{fill:#fff;}.cls-81{clip-path:url(#clip-path-105);}.cls-82{clip-path:url(#clip-path-107);}.cls-83{clip-path:url(#clip-path-109);}.cls-84{clip-path:url(#clip-path-111);}.cls-85{clip-path:url(#clip-path-113);}.cls-86{clip-path:url(#clip-path-115);}.cls-87{clip-path:url(#clip-path-117);}.cls-88{clip-path:url(#clip-path-119);}.cls-89{fill:#e57857;}.cls-90{clip-path:url(#clip-path-121);}.cls-91{clip-path:url(#clip-path-123);}.cls-92{clip-path:url(#clip-path-125);}.cls-93{clip-path:url(#clip-path-127);}.cls-94{clip-path:url(#clip-path-129);}.cls-95{clip-path:url(#clip-path-131);}.cls-96{fill:#2c446e;}.cls-97{clip-path:url(#clip-path-133);}.cls-98{clip-path:url(#clip-path-135);}.cls-99{fill:#a55c25;}.cls-100{clip-path:url(#clip-path-137);}.cls-101{fill:#8c491c;}.cls-102{clip-path:url(#clip-path-139);}.cls-103{clip-path:url(#clip-path-141);}.cls-104{clip-path:url(#clip-path-143);}.cls-105{clip-path:url(#clip-path-144);}.cls-106{fill:#633220;}.cls-107{clip-path:url(#clip-path-146);}.cls-108{clip-path:url(#clip-path-148);}.cls-109{clip-path:url(#clip-path-149);}.cls-110{fill:#4c2218;}.cls-111{clip-path:url(#clip-path-151);}.cls-112{clip-path:url(#clip-path-153);}.cls-113{fill:#2d2a2b;}.cls-114{clip-path:url(#clip-path-155);}.cls-115{fill:#231f20;}.cls-116{clip-path:url(#clip-path-157);}.cls-117{clip-path:url(#clip-path-159);}.cls-118{clip-path:url(#clip-path-161);}.cls-119{clip-path:url(#clip-path-163);}.cls-120{clip-path:url(#clip-path-165);}.cls-121{clip-path:url(#clip-path-167);}.cls-122{fill:#bf7c5e;}.cls-123{clip-path:url(#clip-path-169);}.cls-124{clip-path:url(#clip-path-171);}.cls-125{fill:#8a397e;}.cls-126{clip-path:url(#clip-path-173);}.cls-127{fill:#772a70;}.cls-128{clip-path:url(#clip-path-175);}.cls-129{clip-path:url(#clip-path-177);}.cls-130{clip-path:url(#clip-path-179);}.cls-131{clip-path:url(#clip-path-181);}.cls-132{clip-path:url(#clip-path-183);}.cls-133{fill:#681964;}.cls-134{clip-path:url(#clip-path-185);}.cls-135{fill:#ad6b51;}.cls-136{clip-path:url(#clip-path-187);}.cls-137{fill:#9b5942;}.cls-138{clip-path:url(#clip-path-189);}.cls-139{clip-path:url(#clip-path-191);}.cls-140{clip-path:url(#clip-path-193);}.cls-141{clip-path:url(#clip-path-195);}.cls-142{clip-path:url(#clip-path-197);}.cls-143{clip-path:url(#clip-path-199);}.cls-144{clip-path:url(#clip-path-201);}.cls-145{clip-path:url(#clip-path-203);}.cls-146{clip-path:url(#clip-path-205);}.cls-147{clip-path:url(#clip-path-207);}.cls-148{clip-path:url(#clip-path-209);}.cls-149{clip-path:url(#clip-path-211);}.cls-150{clip-path:url(#clip-path-213);}.cls-151{clip-path:url(#clip-path-215);}.cls-152{clip-path:url(#clip-path-217);}.cls-153{clip-path:url(#clip-path-219);}.cls-154{clip-path:url(#clip-path-221);}.cls-155{clip-path:url(#clip-path-223);}.cls-156{clip-path:url(#clip-path-224);}.cls-157{clip-path:url(#clip-path-225);}.cls-158{clip-path:url(#clip-path-226);}.cls-159{clip-path:url(#clip-path-227);}.cls-160{clip-path:url(#clip-path-228);}.cls-161{clip-path:url(#clip-path-229);}.cls-162{clip-path:url(#clip-path-230);}.cls-163{clip-path:url(#clip-path-231);}.cls-164{clip-path:url(#clip-path-232);}.cls-165{clip-path:url(#clip-path-233);}.cls-166{clip-path:url(#clip-path-234);}.cls-167{clip-path:url(#clip-path-235);}.cls-168{clip-path:url(#clip-path-236);}.cls-169{clip-path:url(#clip-path-237);}.cls-170{clip-path:url(#clip-path-238);}.cls-171{clip-path:url(#clip-path-239);}.cls-172{clip-path:url(#clip-path-240);}.cls-173{clip-path:url(#clip-path-241);}.cls-174{clip-path:url(#clip-path-242);}.cls-175{clip-path:url(#clip-path-243);}.cls-176{clip-path:url(#clip-path-244);}.cls-177{clip-path:url(#clip-path-245);}.cls-178{clip-path:url(#clip-path-246);}.cls-179{clip-path:url(#clip-path-247);}.cls-180{clip-path:url(#clip-path-248);}.cls-181{clip-path:url(#clip-path-249);}.cls-182{clip-path:url(#clip-path-250);}.cls-183{clip-path:url(#clip-path-251);}.cls-184{clip-path:url(#clip-path-252);}.cls-185{clip-path:url(#clip-path-253);}.cls-186{clip-path:url(#clip-path-254);}.cls-187{clip-path:url(#clip-path-255);}.cls-188{clip-path:url(#clip-path-256);}.cls-189{clip-path:url(#clip-path-257);}.cls-190{clip-path:url(#clip-path-258);}.cls-191{clip-path:url(#clip-path-259);}.cls-192{clip-path:url(#clip-path-260);}.cls-193{clip-path:url(#clip-path-261);}.cls-194{clip-path:url(#clip-path-262);}.cls-195{clip-path:url(#clip-path-263);}.cls-196{clip-path:url(#clip-path-264);}.cls-197{clip-path:url(#clip-path-265);}.cls-198{clip-path:url(#clip-path-266);}.cls-199{clip-path:url(#clip-path-267);}.cls-200{clip-path:url(#clip-path-268);}.cls-201{clip-path:url(#clip-path-269);}.cls-202{clip-path:url(#clip-path-270);}.cls-203{clip-path:url(#clip-path-271);}.cls-204{clip-path:url(#clip-path-272);}.cls-205{clip-path:url(#clip-path-273);}.cls-206{clip-path:url(#clip-path-274);}.cls-207{clip-path:url(#clip-path-275);}.cls-208{clip-path:url(#clip-path-276);}.cls-209{clip-path:url(#clip-path-277);}.cls-210{clip-path:url(#clip-path-278);}.cls-211{clip-path:url(#clip-path-279);}.cls-212{clip-path:url(#clip-path-280);}.cls-213{clip-path:url(#clip-path-281);}.cls-214{clip-path:url(#clip-path-282);}.cls-215{clip-path:url(#clip-path-283);}.cls-216{clip-path:url(#clip-path-284);}.cls-217{clip-path:url(#clip-path-285);}.cls-218{clip-path:url(#clip-path-286);}.cls-219{clip-path:url(#clip-path-287);}.cls-220{clip-path:url(#clip-path-288);}.cls-221{clip-path:url(#clip-path-289);}.cls-222{clip-path:url(#clip-path-290);}.cls-223{clip-path:url(#clip-path-291);}.cls-224{clip-path:url(#clip-path-292);}.cls-225{clip-path:url(#clip-path-293);}.cls-226{clip-path:url(#clip-path-294);}.cls-227{clip-path:url(#clip-path-295);}.cls-228{clip-path:url(#clip-path-296);}.cls-229{clip-path:url(#clip-path-297);}.cls-230{clip-path:url(#clip-path-298);}.cls-231{clip-path:url(#clip-path-299);}.cls-232{clip-path:url(#clip-path-300);}.cls-233{clip-path:url(#clip-path-301);}.cls-234{clip-path:url(#clip-path-302);}.cls-235{clip-path:url(#clip-path-303);}.cls-236{clip-path:url(#clip-path-304);}.cls-237{clip-path:url(#clip-path-305);}.cls-238{clip-path:url(#clip-path-306);}.cls-239{clip-path:url(#clip-path-307);}.cls-240{clip-path:url(#clip-path-308);}.cls-241{clip-path:url(#clip-path-309);}.cls-242{clip-path:url(#clip-path-310);}.cls-243{clip-path:url(#clip-path-311);}.cls-244{clip-path:url(#clip-path-312);}.cls-245{clip-path:url(#clip-path-313);}.cls-246{clip-path:url(#clip-path-314);}.cls-247{clip-path:url(#clip-path-315);}.cls-248{clip-path:url(#clip-path-316);}.cls-249{clip-path:url(#clip-path-317);}.cls-250{clip-path:url(#clip-path-318);}.cls-251{clip-path:url(#clip-path-319);}.cls-252{clip-path:url(#clip-path-320);}.cls-253{clip-path:url(#clip-path-321);}.cls-254{clip-path:url(#clip-path-322);}.cls-255{clip-path:url(#clip-path-323);}.cls-256{clip-path:url(#clip-path-324);}.cls-257{clip-path:url(#clip-path-325);}.cls-258{clip-path:url(#clip-path-326);}.cls-259{clip-path:url(#clip-path-327);}.cls-260{clip-path:url(#clip-path-328);}.cls-261{clip-path:url(#clip-path-329);}.cls-262{clip-path:url(#clip-path-330);}.cls-263{clip-path:url(#clip-path-331);}.cls-264{clip-path:url(#clip-path-332);}.cls-265{clip-path:url(#clip-path-333);}.cls-266{clip-path:url(#clip-path-334);}.cls-267{clip-path:url(#clip-path-335);}.cls-268{clip-path:url(#clip-path-336);}.cls-269{clip-path:url(#clip-path-337);}.cls-270{clip-path:url(#clip-path-338);}.cls-271{clip-path:url(#clip-path-339);}.cls-272{clip-path:url(#clip-path-340);}.cls-273{clip-path:url(#clip-path-341);}.cls-274{clip-path:url(#clip-path-342);}.cls-275{clip-path:url(#clip-path-343);}.cls-276{clip-path:url(#clip-path-344);}.cls-277{clip-path:url(#clip-path-345);}.cls-278{clip-path:url(#clip-path-346);}.cls-279{clip-path:url(#clip-path-347);}.cls-280{clip-path:url(#clip-path-348);}.cls-281{clip-path:url(#clip-path-349);}.cls-282{clip-path:url(#clip-path-350);}.cls-283{clip-path:url(#clip-path-351);}.cls-284{clip-path:url(#clip-path-352);}.cls-285{clip-path:url(#clip-path-353);}.cls-286{clip-path:url(#clip-path-354);}.cls-287{clip-path:url(#clip-path-355);}.cls-288{clip-path:url(#clip-path-356);}.cls-289{clip-path:url(#clip-path-357);}.cls-290{clip-path:url(#clip-path-358);}.cls-291{clip-path:url(#clip-path-359);}.cls-292{clip-path:url(#clip-path-360);}.cls-293{clip-path:url(#clip-path-361);}.cls-294{clip-path:url(#clip-path-362);}.cls-295{clip-path:url(#clip-path-363);}.cls-296{clip-path:url(#clip-path-364);}.cls-297{clip-path:url(#clip-path-365);}.cls-298{clip-path:url(#clip-path-366);}.cls-299{clip-path:url(#clip-path-367);}.cls-300{clip-path:url(#clip-path-368);}.cls-301{clip-path:url(#clip-path-387);}.cls-302{clip-path:url(#clip-path-388);}.cls-303{clip-path:url(#clip-path-389);}.cls-304{clip-path:url(#clip-path-390);}.cls-305{clip-path:url(#clip-path-391);}.cls-306{clip-path:url(#clip-path-392);}.cls-307{clip-path:url(#clip-path-393);}.cls-308{clip-path:url(#clip-path-394);}.cls-309{clip-path:url(#clip-path-395);}.cls-310{clip-path:url(#clip-path-396);}.cls-311{clip-path:url(#clip-path-397);}.cls-312{clip-path:url(#clip-path-398);}.cls-313{clip-path:url(#clip-path-399);}.cls-314{clip-path:url(#clip-path-400);}.cls-315{clip-path:url(#clip-path-401);}.cls-316{clip-path:url(#clip-path-402);}.cls-317{clip-path:url(#clip-path-403);}.cls-318{clip-path:url(#clip-path-404);}.cls-319{clip-path:url(#clip-path-405);}.cls-320{clip-path:url(#clip-path-406);}.cls-321{clip-path:url(#clip-path-407);}.cls-322{clip-path:url(#clip-path-408);}.cls-323{clip-path:url(#clip-path-409);}.cls-324{clip-path:url(#clip-path-410);}.cls-325{clip-path:url(#clip-path-411);}.cls-326{clip-path:url(#clip-path-412);}.cls-327{clip-path:url(#clip-path-413);}.cls-328{clip-path:url(#clip-path-414);}.cls-329{clip-path:url(#clip-path-415);}.cls-330{clip-path:url(#clip-path-416);}.cls-331{clip-path:url(#clip-path-417);}.cls-332{clip-path:url(#clip-path-418);}.cls-333{clip-path:url(#clip-path-419);}.cls-334{clip-path:url(#clip-path-420);}.cls-335{clip-path:url(#clip-path-421);}.cls-336{clip-path:url(#clip-path-422);}.cls-337{clip-path:url(#clip-path-423);}</style><clipPath id="clip-path"><polygon class="cls-1" points="469.7 540.53 469.7 611.53 961.57 895.51 1453.43 611.53 1453.43 540.53 961.57 256.55 469.7 540.53"/></clipPath><clipPath id="clip-path-2"><rect class="cls-2" x="-1115.31" y="-2740.54" width="7486.39" height="7919.2"/></clipPath><clipPath id="clip-path-3"><polygon class="cls-1" points="961.57 895.51 469.7 611.53 469.7 540.53 961.57 824.51 961.57 895.51"/></clipPath><clipPath id="clip-path-5"><polygon class="cls-1" points="1207.5 895.51 1453.43 895.51 1453.43 540.53 961.57 540.53 961.57 895.51 1207.5 895.51"/></clipPath><clipPath id="clip-path-7"><rect class="cls-2" x="960.99" y="534.75" width="497.14" height="362.62"/></clipPath><clipPath id="clip-path-8"><polygon class="cls-1" points="961.57 895.51 1453.43 611.53 1453.43 540.53 961.57 824.51 961.57 895.51"/></clipPath><clipPath id="clip-path-10"><polygon class="cls-1" points="1023.05 647.02 777.12 505.03 777.12 292.05 1023.05 434.04 1023.05 647.02"/></clipPath><clipPath id="clip-path-12"><polygon class="cls-1" points="1124.01 279.82 1023.05 434.02 1023.05 647 1207.5 540.51 1207.5 327.55 1124.01 279.82"/></clipPath><clipPath id="clip-path-14"><polygon class="cls-1" points="760.34 317.01 869.29 132.28 1124.01 279.82 1006.28 459 760.34 317.01"/></clipPath><clipPath id="clip-path-16"><polygon class="cls-1" points="1084.5 611.53 1084.5 469.52 1146.02 434.04 1146.02 576.01 1084.5 611.53"/></clipPath><clipPath id="clip-path-18"><polygon class="cls-1" points="930.82 451.66 930.82 522.65 992.31 558.15 992.31 487.15 930.82 451.66"/></clipPath><clipPath id="clip-path-20"><polygon class="cls-1" points="808.09 380.79 808.09 451.79 869.57 487.29 869.57 416.29 808.09 380.79"/></clipPath><clipPath id="clip-path-22"><rect class="cls-2" x="469.7" y="67.86" width="983.74" height="827.65"/></clipPath><clipPath id="clip-path-24"><rect class="cls-2" x="744.59" y="218.92" width="649.21" height="538.08"/></clipPath><clipPath id="clip-path-25"><polygon class="cls-1" points="942.18 347.28 942.18 275.88 897.4 250.02 897.4 321.43 942.18 347.28"/></clipPath><clipPath id="clip-path-26"><rect class="cls-2" x="469.7" y="131.19" width="988.44" height="766.19"/></clipPath><clipPath id="clip-path-27"><polygon class="cls-1" points="986.95 250.45 942.18 275.88 942.18 347.28 986.95 279.2 986.95 250.45"/></clipPath><clipPath id="clip-path-29"><polygon class="cls-1" points="897.4 250.02 942.17 275.88 986.95 250.45 942.07 224.23 897.4 250.02"/></clipPath><clipPath id="clip-path-31"><path class="cls-1" d="M1320.15,434a71.8,71.8,0,0,0-71.8,71.8H1392a71.8,71.8,0,0,0-71.8-71.8"/></clipPath><clipPath id="clip-path-33"><path class="cls-1" d="M1272.88,476.21a39.51,39.51,0,0,0-39.51,39.51h79a39.51,39.51,0,0,0-39.51-39.51"/></clipPath><clipPath id="clip-path-35"><path class="cls-1" d="M1014.18,679.16a43,43,0,0,0-38.59,24.07A34.59,34.59,0,0,0,934.52,702a53.45,53.45,0,1,0-105,20.19h227.68a43,43,0,0,0-43-43"/></clipPath><clipPath id="clip-path-37"><path class="cls-1" d="M810.41,499.53a61.65,61.65,0,0,0-61.65,61.65H872.07a61.65,61.65,0,0,0-61.65-61.65"/></clipPath><clipPath id="clip-path-39"><polygon class="cls-1" points="1146.02 576.01 1084.5 611.53 1207.5 682.52 1269.02 647 1146.02 576.01"/></clipPath><clipPath id="clip-path-41"><polygon class="cls-1" points="1207.5 753.52 1207.5 682.52 1269.02 647 1269.02 718.04 1207.5 753.52"/></clipPath><clipPath id="clip-path-43"><path class="cls-1" d="M726.27,577.31H557.09S531.87,691,589.61,791.22h21.57s-98.92-175.77,30.49-175.77,30.49,175.77,30.49,175.77h21.57C751.49,691,726.27,577.31,726.27,577.31"/></clipPath><clipPath id="clip-path-45"><path class="cls-1" d="M704.08,375.07h-.19a99.33,99.33,0,0,0-93.91,67l.47-.1a99.32,99.32,0,0,1,93.63-66.92"/></clipPath><clipPath id="clip-path-47"><path class="cls-1" d="M708.16,375.17c.91,0,1.82,0,2.73.07-.9,0-1.82,0-2.73-.07"/></clipPath><clipPath id="clip-path-49"><path class="cls-1" d="M704.13,399.69a27.82,27.82,0,0,1,3.41.25,28,28,0,0,0-3.21-.27l-.2,0"/></clipPath><clipPath id="clip-path-51"><path class="cls-1" d="M704.32,375.07h-.24a33.32,33.32,0,0,1,4.08.32,32.85,32.85,0,0,0-3.83-.33"/></clipPath><clipPath id="clip-path-53"><path class="cls-1" d="M708.7,399.8c-.46,0-.93,0-1.4,0l1.4,0"/></clipPath><clipPath id="clip-path-55"><path class="cls-1" d="M639.76,436.09,610.44,442l0,.09,29.79-6a74.73,74.73,0,0,1,63.93-36.41h-.25a74.74,74.74,0,0,0-64.12,36.42"/></clipPath><clipPath id="clip-path-57"><path class="cls-1" d="M746.86,384.62A98.8,98.8,0,0,0,709,375.2a98.76,98.76,0,0,1,37.74,9.59Z"/></clipPath><clipPath id="clip-path-59"><path class="cls-1" d="M746.79,384.79A98.76,98.76,0,0,0,709,375.2l-.89,0c-1.35-.06-2.71-.1-4.08-.1A99.32,99.32,0,0,0,610.44,442l29.32-5.91a74.73,74.73,0,0,1,64.12-36.42h.44c1,0,2,0,3,.09h.46a74.21,74.21,0,0,1,29.42,7.53Z"/></clipPath><clipPath id="clip-path-61"><path class="cls-1" d="M579.79,375.07a98.91,98.91,0,0,0-42.54,9.56l9.68,22.68a74.62,74.62,0,0,1,97,28.79l29.79,6a99.33,99.33,0,0,0-93.91-67"/></clipPath><clipPath id="clip-path-63"><path class="cls-1" d="M480.48,474.38a99.29,99.29,0,0,0,54.62,88.68l8-23.65a74.66,74.66,0,0,1,3.85-132.11l-9.68-22.68a99.31,99.31,0,0,0-56.78,89.75"/></clipPath><clipPath id="clip-path-65"><path class="cls-1" d="M557.22,301.13s2.22,38.32,19.87,51l-2.85-24.47Z"/></clipPath><clipPath id="clip-path-67"><path class="cls-1" d="M727.14,301.13s-2.22,38.32-19.87,51l2.85-24.47Z"/></clipPath><clipPath id="clip-path-69"><path class="cls-1" d="M642.18,390.23l-38.65-21.75S565.26,505,557.09,577.31h85.09Z"/></clipPath><clipPath id="clip-path-71"><path class="cls-1" d="M641.68,390.23l38.65-21.75S718.6,505,726.77,577.31H641.68Z"/></clipPath><clipPath id="clip-path-73"><path class="cls-1" d="M642.18,384.88H612s13.48,30.31,30.18,34c16.69-3.64,30.18-34,30.18-34Z"/></clipPath><clipPath id="clip-path-75"><path class="cls-1" d="M642.18,363.71,612,384.88s15.89,20.64,30.18,20.64c4.39,0,19.7-6.63,30.18-20.64Z"/></clipPath><clipPath id="clip-path-77"><path class="cls-1" d="M576.34,301.13a13.52,13.52,0,1,0,0,19.12,13.52,13.52,0,0,0,0-19.12"/></clipPath><clipPath id="clip-path-79"><path class="cls-1" d="M727.14,301.13a13.52,13.52,0,1,0,0,19.12,13.52,13.52,0,0,0,0-19.12"/></clipPath><clipPath id="clip-path-81"><path class="cls-1" d="M657.49,390.25c20.92-7.23,42.66-17.84,52.7-37.56,6.94-13.63,7.19-29.55,7.34-44.85.1-11,.2-22.2-1.46-33a80.56,80.56,0,0,0-3.84-15.41c-6.89-18.91-22.48-34.29-41.22-41.65a77,77,0,0,0-28.82-5.19L628.79,329.15l13.38,64.31c.34,0,.67,0,1,0,4.91-.12,9.66-1.64,14.3-3.24"/></clipPath><clipPath id="clip-path-83"><path class="cls-1" d="M612.47,218.61c-14,5.73-26.6,15.54-34.29,28.58-10.39,17.64-11.08,39.16-11,59.63.08,18.65.89,39.38,12.92,54.71s33.42,25.37,51.74,30.22a44.49,44.49,0,0,0,10.74,1.71l-5.47-65.8,16-5.47L642.59,212.58a81.81,81.81,0,0,0-30.11,6"/></clipPath><clipPath id="clip-path-85"><path class="cls-1" d="M620.68,291.57a5.68,5.68,0,1,0-5.68,5.68,5.68,5.68,0,0,0,5.68-5.68"/></clipPath><clipPath id="clip-path-87"><path class="cls-1" d="M677.36,291.57a5.68,5.68,0,1,0-5.68,5.68,5.68,5.68,0,0,0,5.68-5.68"/></clipPath><clipPath id="clip-path-89"><path class="cls-1" d="M696.45,317c0,3.49-5.59,6.32-12.5,6.32s-12.5-2.83-12.5-6.32,5.6-6.32,12.5-6.32,12.5,2.83,12.5,6.32"/></clipPath><clipPath id="clip-path-91"><path class="cls-1" d="M590.63,317c0,3.49,5.59,6.32,12.5,6.32s12.5-2.83,12.5-6.32-5.59-6.32-12.5-6.32-12.5,2.83-12.5,6.32"/></clipPath><clipPath id="clip-path-93"><polygon class="cls-1" points="636.71 327.63 659.21 327.63 652.72 322.2 636.71 327.63"/></clipPath><clipPath id="clip-path-95"><path class="cls-1" d="M709.09,539.41h31.5l8,23.65c-7,12.09-22,14.25-22,14.25l-4.23-29.07H709.54a4.29,4.29,0,0,1-.45,0,4.44,4.44,0,1,1,0-8.88"/></clipPath><clipPath id="clip-path-97"><path class="cls-1" d="M675.8,202.06v.63c-1.4,2.61-14.12,25.71-31.09,38.37-6.36,4.74-13.31,8-20.49,8.19h43c5.45.12,8.6,2.1,10.92,4.58,4.22,4.53,5.6,10.79,12.66,10.79A14.59,14.59,0,0,1,701,268.19c4.72,4.25,5.2,10.78,5.2,10.78v31.72H718q0-1.94,0-3.86c0-3.18,0-6.38-.06-9.59a13.44,13.44,0,0,1,7.64,2.65l1.52,1.24s0,0,0,0l.19.23a272.17,272.17,0,0,0,1.88-29.41c0-34.92-22.12-60-53.41-69.85"/></clipPath><clipPath id="clip-path-99"><path class="cls-1" d="M656.35,196.27a138.83,138.83,0,0,0-14.46,0c-2.54.13-5.09.32-7.62.6a103.49,103.49,0,0,0-11,1.79c-.34.08-1.08.36-1.84.61l-1.94.36h0a94.45,94.45,0,0,0-16.26,4.67c-28.22,11-47.71,35.09-47.66,67.84,0,6.94.65,19.13,1.67,27.6,0,.48,0,.92,0,1.4l.15-.12c0,.17,0,.37.06.53.12-.13.21-.28.34-.41a13.29,13.29,0,0,1,8.26-3.8c.41,0,.81-.09,1.22-.07-.06,3.2-.07,6.4-.06,9.57q0,1.92,0,3.86H579V279a19.1,19.1,0,0,1,2.08-6.74l2.46-3.38.06-.08c2.29-2.34,5.72-3.53,10.78-4.16s7-6.29,11.45-10.56A16.9,16.9,0,0,1,618,249.24s27,.1,30.85,0c38.27-.86,53.1-26.93,58.85-41.24,1.28-3.18,2.11-5.79,2.64-7.4a30.72,30.72,0,0,0,1-4.32Z"/></clipPath><clipPath id="clip-path-101"><path class="cls-1" d="M706.14,310.69c0,22.32-40.76,22.93-58.52,22.13H637.55c-17.76.79-58.52.18-58.52-22.13h-11.8c.21,17.61,1.68,36.57,12.89,50.84,11.95,15.23,33.42,25.37,51.74,30.22a34.48,34.48,0,0,0,21.48,0c18.31-4.86,39.79-15,51.74-30.22,11.2-14.27,12.67-33.24,12.89-50.84h-11.8Z"/></clipPath><clipPath id="clip-path-103"><path class="cls-1" d="M642.18,376.41a34.8,34.8,0,0,0,34.8-34.8H607.38a34.8,34.8,0,0,0,34.8,34.8"/></clipPath><clipPath id="clip-path-105"><path class="cls-1" d="M746.79,384.79l-9.61,22.51a74.21,74.21,0,0,0-29.42-7.53,74.68,74.68,0,0,1,32.83,139.64l8,23.65a99.32,99.32,0,0,0-1.79-178.27"/></clipPath><clipPath id="clip-path-107"><path class="cls-1" d="M619.5,309.37a1.7,1.7,0,1,0-1.71,1.7,1.7,1.7,0,0,0,1.71-1.7"/></clipPath><clipPath id="clip-path-109"><path class="cls-1" d="M605.83,303.9a1.7,1.7,0,1,0-1.7,1.7,1.7,1.7,0,0,0,1.7-1.7"/></clipPath><clipPath id="clip-path-111"><path class="cls-1" d="M630.43,303.9a1.7,1.7,0,1,0-1.7,1.7,1.7,1.7,0,0,0,1.7-1.7"/></clipPath><clipPath id="clip-path-113"><path class="cls-1" d="M608.56,312.1a1.7,1.7,0,1,0-1.71,1.7,1.71,1.71,0,0,0,1.71-1.7"/></clipPath><clipPath id="clip-path-115"><path class="cls-1" d="M600.36,317.57a1.7,1.7,0,1,0-1.71,1.7,1.71,1.71,0,0,0,1.71-1.7"/></clipPath><clipPath id="clip-path-117"><path class="cls-1" d="M625,317.57a1.7,1.7,0,1,0-1.7,1.7,1.71,1.71,0,0,0,1.7-1.7"/></clipPath><clipPath id="clip-path-119"><path class="cls-1" d="M671.4,309.37a1.7,1.7,0,1,1,1.7,1.7,1.7,1.7,0,0,1-1.7-1.7"/></clipPath><clipPath id="clip-path-121"><path class="cls-1" d="M685.06,303.9a1.7,1.7,0,1,1,1.7,1.7,1.7,1.7,0,0,1-1.7-1.7"/></clipPath><clipPath id="clip-path-123"><path class="cls-1" d="M660.46,303.9a1.7,1.7,0,1,1,1.7,1.7,1.7,1.7,0,0,1-1.7-1.7"/></clipPath><clipPath id="clip-path-125"><path class="cls-1" d="M682.33,312.1a1.7,1.7,0,1,1,1.71,1.7,1.71,1.71,0,0,1-1.71-1.7"/></clipPath><clipPath id="clip-path-127"><path class="cls-1" d="M690.53,317.57a1.7,1.7,0,1,1,1.7,1.7,1.71,1.71,0,0,1-1.7-1.7"/></clipPath><clipPath id="clip-path-129"><path class="cls-1" d="M665.93,317.57a1.7,1.7,0,1,1,1.7,1.7,1.71,1.71,0,0,1-1.7-1.7"/></clipPath><clipPath id="clip-path-131"><path class="cls-1" d="M557.09,577.31S531.87,691,589.61,791.22h21.57s-98.92-175.77,30.49-175.77V577.31Z"/></clipPath><clipPath id="clip-path-133"><path class="cls-1" d="M726.27,577.31S751.49,691,693.75,791.22H672.17s98.92-175.77-30.49-175.77V577.31Z"/></clipPath><clipPath id="clip-path-135"><path class="cls-1" d="M617.16,794.17a7.84,7.84,0,0,0-6.13-2.95H589.61s-13.76,6.2-21.08-1.82a10.79,10.79,0,1,0-8.43,17.52H611a7.85,7.85,0,0,0,6.13-12.76"/></clipPath><clipPath id="clip-path-137"><path class="cls-1" d="M666.21,794.17a7.84,7.84,0,0,1,6.13-2.95h21.42s13.76,6.2,21.08-1.82a10.79,10.79,0,1,1,8.43,17.52H672.34a7.85,7.85,0,0,1-6.13-12.76"/></clipPath><clipPath id="clip-path-139"><path class="cls-1" d="M574.58,539.41h-31.5l-8,23.65c7,12.09,22,14.25,22,14.25l4.23-29.07h12.82a4.29,4.29,0,0,0,.45,0,4.44,4.44,0,1,0,0-8.88"/></clipPath><clipPath id="clip-path-141"><rect class="cls-2" x="1244.43" y="228.03" width="92.62" height="181.23"/></clipPath><clipPath id="clip-path-143"><rect class="cls-2" x="1241.73" y="224.77" width="99.43" height="187.16"/></clipPath><clipPath id="clip-path-144"><path class="cls-1" d="M1244.43,318.67a90.62,90.62,0,0,0,88.67,90.59L1337,246.21,1334.52,228l-1.42.06a90.62,90.62,0,0,0-88.67,90.59"/></clipPath><clipPath id="clip-path-146"><rect class="cls-2" x="1333.1" y="228.03" width="92.6" height="181.28"/></clipPath><clipPath id="clip-path-148"><rect class="cls-2" x="1329.46" y="224.77" width="99.43" height="187.16"/></clipPath><clipPath id="clip-path-149"><path class="cls-1" d="M1425.7,318.67A90.64,90.64,0,0,0,1335.07,228c-.66,0-.33,0-1,0v18.24l-1,58.1V409.26c.66,0,1.3.05,2,.05a90.64,90.64,0,0,0,90.64-90.64"/></clipPath><clipPath id="clip-path-151"><path class="cls-1" d="M1413.31,590.62H1256.63s-23.35,105.26,30.12,198.11h20S1215.12,626,1335,626s28.24,162.78,28.24,162.78h20c53.48-92.85,30.12-198.11,30.12-198.11"/></clipPath><clipPath id="clip-path-153"><path class="cls-1" d="M1256.63,590.62s-23.35,105.26,30.12,198.11h20S1215.12,626,1335,626V590.62Z"/></clipPath><clipPath id="clip-path-155"><path class="cls-1" d="M1413.31,590.62s23.35,105.26-30.12,198.11h-20S1454.82,626,1335,626V590.62Z"/></clipPath><clipPath id="clip-path-157"><path class="cls-1" d="M1312.27,791.46a7.26,7.26,0,0,0-5.68-2.73h-19.83s-12.75,5.74-19.52-1.68a10,10,0,1,0-7.8,16.23h47.16a7.27,7.27,0,0,0,5.68-11.81"/></clipPath><clipPath id="clip-path-159"><path class="cls-1" d="M1357.69,791.46a7.26,7.26,0,0,1,5.68-2.73h19.83s12.75,5.74,19.52-1.68a10,10,0,1,1,7.8,16.23h-47.16a7.27,7.27,0,0,1-5.68-11.81"/></clipPath><clipPath id="clip-path-161"><path class="cls-1" d="M1425.7,318.67A90.64,90.64,0,0,0,1335.07,228c-.66,0-1.31,0-2,0L1310,304.37l23.15,104.88c.66,0,1.3.05,2,.05a90.64,90.64,0,0,0,90.64-90.64"/></clipPath><clipPath id="clip-path-163"><path class="cls-1" d="M1245.39,331.91s4.49,54.11-27.67,61.4c0,0,29.88,43.12,97.48,19.56l-9.73-45.54Z"/></clipPath><clipPath id="clip-path-165"><path class="cls-1" d="M1424.61,331.91s-4.49,54.11,27.67,61.4c0,0-29.88,43.12-97.48,19.56l9.73-45.54Z"/></clipPath><clipPath id="clip-path-167"><path class="cls-1" d="M1186.2,485.91a92.94,92.94,0,0,0-.51,9.62,91.72,91.72,0,0,0,50.46,81.92l7.37-21.85a68.84,68.84,0,0,1-34.42-69.7Z"/></clipPath><clipPath id="clip-path-169"><path class="cls-1" d="M1302,407.14l-4.67,22.35a69.32,69.32,0,0,1,39.32,30.68l27.52,5.54A91.94,91.94,0,0,0,1302,407.14"/></clipPath><clipPath id="clip-path-171"><path class="cls-1" d="M1277.43,403.79a91.75,91.75,0,0,0-91.24,82.12h22.91a68.9,68.9,0,0,1,88.24-56.42l4.67-22.35a91.75,91.75,0,0,0-24.58-3.35"/></clipPath><clipPath id="clip-path-173"><path class="cls-1" d="M1334.61,417.8l35.7-20.09s35.36,126.1,42.91,192.91h-78.61Z"/></clipPath><clipPath id="clip-path-175"><path class="cls-1" d="M1343.28,429.06a91.59,91.59,0,0,0-15.53,24.67L1346,470a68.6,68.6,0,0,1,14.58-26.23l.47-.5-20.66-3.65Z"/></clipPath><clipPath id="clip-path-177"><path class="cls-1" d="M1456.25,406.73c-19.21-4.62-37.7-10.82-57.76-7.81a91.36,91.36,0,0,0-54.88,29.74l-.34.4-2.87,10.55,20.66,3.65a69.49,69.49,0,0,1,54.47-22.54c22.68,1.09,42.46,12.24,65.86,8.73a91.79,91.79,0,0,0,26.05-8l-10.57-20.21a69.51,69.51,0,0,1-40.63,5.48"/></clipPath><clipPath id="clip-path-179"><path class="cls-1" d="M1335.07,417.8l-35.7-20.09s-35.36,126.1-42.91,192.91h78.61Z"/></clipPath><clipPath id="clip-path-181"><path class="cls-1" d="M1307.19,412.87h6.33l-8-11.71-19.57,13.92,22.73,14-3.16,23L1335.07,530V444.24c-15.42-3.37-27.88-31.37-27.88-31.37"/></clipPath><clipPath id="clip-path-183"><path class="cls-1" d="M1362.94,412.87h-6.33l8-11.71,19.57,13.92-22.73,14,3.16,23L1335.07,530V444.24c15.42-3.37,27.88-31.37,27.88-31.37"/></clipPath><clipPath id="clip-path-185"><path class="cls-1" d="M1335.07,412.87h-27.88s12.46,28,27.88,31.37c15.42-3.37,27.88-31.37,27.88-31.37Z"/></clipPath><clipPath id="clip-path-187"><path class="cls-1" d="M1335.07,393.31l-27.88,19.56s14.68,19.07,27.88,19.07c4.06,0,18.2-6.12,27.88-19.07Z"/></clipPath><clipPath id="clip-path-189"><path class="cls-1" d="M1274.24,335.5a12.49,12.49,0,1,0,0,17.66,12.49,12.49,0,0,0,0-17.66"/></clipPath><clipPath id="clip-path-191"><path class="cls-1" d="M1413.55,335.5a12.49,12.49,0,1,0,0,17.66,12.49,12.49,0,0,0,0-17.66"/></clipPath><clipPath id="clip-path-193"><path class="cls-1" d="M1349.21,417.82c19.32-6.67,39.41-16.48,48.69-34.69,6.41-12.59,6.64-27.3,6.78-41.43.1-10.17.18-20.51-1.35-30.52a74.36,74.36,0,0,0-3.55-14.23c-6.36-17.47-20.77-31.68-38.08-38.47a71.17,71.17,0,0,0-26.62-4.79L1322.7,361.38l12.36,59.41c.31,0,.62,0,.93,0,4.53-.11,8.93-1.51,13.21-3"/></clipPath><clipPath id="clip-path-195"><path class="cls-1" d="M1307.63,259.27c-12.95,5.3-24.57,14.35-31.67,26.4-9.6,16.29-10.24,36.18-10.16,55.09.07,17.23.82,36.38,11.93,50.54s30.88,23.43,47.79,27.92a41.13,41.13,0,0,0,9.92,1.58L1330.39,360l14.78-5.05-9.73-101.27a75.59,75.59,0,0,0-27.82,5.57"/></clipPath><clipPath id="clip-path-197"><path class="cls-1" d="M1315.21,326.66a5.25,5.25,0,1,0-5.25,5.25,5.25,5.25,0,0,0,5.25-5.25"/></clipPath><clipPath id="clip-path-199"><path class="cls-1" d="M1367.57,326.66a5.25,5.25,0,1,0-5.25,5.25,5.25,5.25,0,0,0,5.25-5.25"/></clipPath><clipPath id="clip-path-201"><path class="cls-1" d="M1385.21,350.17c0,3.23-5.17,5.84-11.54,5.84s-11.54-2.61-11.54-5.84,5.17-5.84,11.54-5.84,11.54,2.61,11.54,5.84"/></clipPath><clipPath id="clip-path-203"><path class="cls-1" d="M1287.44,350.17c0,3.23,5.17,5.84,11.54,5.84s11.54-2.61,11.54-5.84-5.17-5.84-11.54-5.84-11.54,2.61-11.54,5.84"/></clipPath><clipPath id="clip-path-205"><polygon class="cls-1" points="1330.02 359.97 1350.8 359.97 1344.8 354.96 1330.02 359.97"/></clipPath><clipPath id="clip-path-207"><path class="cls-1" d="M1243.53,555.61h29.1v8.16h-12.25l-3.91,26.85s-13.85-2-20.31-13.16Z"/></clipPath><clipPath id="clip-path-209"><path class="cls-1" d="M1272.62,555.61a4.1,4.1,0,1,1-4.1,4.1,4.1,4.1,0,0,1,4.1-4.1"/></clipPath><clipPath id="clip-path-211"><path class="cls-1" d="M1562.82,322.25a18.46,18.46,0,1,0-32.86,4.22h0l0,.07.1.14,6.55,9.69a68.7,68.7,0,0,1-39.77,64.88l10.57,20.21a91.4,91.4,0,0,0,28.82-21.74c16.44-18.49,23.06-40.44,22.13-63.35l4.42-14.12Z"/></clipPath><clipPath id="clip-path-213"><path class="cls-1" d="M1531.11,277.77a4.21,4.21,0,0,0-4.21,4.21v39.35h8.42V282a4.21,4.21,0,0,0-4.21-4.21"/></clipPath><clipPath id="clip-path-215"><path class="cls-1" d="M1551.54,312.13h-25.65a1.52,1.52,0,0,0-1.5,1.19,22,22,0,0,0-.45,4.41,25.73,25.73,0,0,0,1.14,7.59c1.6,5.1,9.21,2.82,9.3-2.52a1.52,1.52,0,0,1,1.52-1.49h15.6v-.08h0c2.8,0,5.08-1.73,5.08-4.53s-2.27-4.57-5.08-4.57"/></clipPath><clipPath id="clip-path-217"><path class="cls-1" d="M1335.07,405a32.14,32.14,0,0,0,32.14-32.14h-64.29A32.15,32.15,0,0,0,1335.07,405"/></clipPath><clipPath id="clip-path-219"><path class="cls-1" d="M1336,289s-22.51,29.66-85.35,47.36c0,0-15.15-100.46,85.35-90.09Z"/></clipPath><clipPath id="clip-path-221"><path class="cls-1" d="M1334.09,289s22.51,29.66,85.35,47.36c0,0,15.15-101.71-85.35-91.34Z"/></clipPath><clipPath id="clip-path-223"><path class="cls-1" d="M3081.65,430.84s-71.17-123.23-201.91-52.61c-143.17,77.33-41.57,221-41.57,221s68.32,93.48,325.14,75.44V812s-380,70.95-471.62-212.8c-96.89-300.22,184.9-369.12,184.9-369.12s200-50.48,317.53,134.63Z"/></clipPath><clipPath id="clip-path-224"><path class="cls-1" d="M3533.3,430.84s71.17-123.23,201.91-52.61c143.17,77.33,41.57,221,41.57,221s-68.32,93.48-325.14,75.44V812s380,70.95,471.62-212.8c96.89-300.22-184.9-369.12-184.9-369.12s-200-50.48-317.53,134.63Z"/></clipPath><clipPath id="clip-path-225"><polygon class="cls-1" points="3307.59 258.25 2815.46 542.56 2815.46 613.64 3307.59 897.96 3799.71 613.64 3799.71 542.56 3307.59 258.25"/></clipPath><clipPath id="clip-path-226"><polygon class="cls-1" points="3307.59 897.96 2815.46 613.64 2815.46 542.56 3307.59 826.88 3307.59 897.96"/></clipPath><clipPath id="clip-path-227"><polygon class="cls-1" points="3307.59 897.96 3799.71 613.64 3799.71 542.56 3307.59 826.88 3307.59 897.96"/></clipPath><clipPath id="clip-path-228"><polygon class="cls-1" points="3307.55 898.37 2814.92 613.77 2814.92 542.62 3307.55 827.22 3307.55 898.37"/></clipPath><clipPath id="clip-path-229"><polygon class="cls-1" points="3553.86 898.37 3800.17 898.37 3800.17 542.62 3307.55 542.62 3307.55 898.37 3553.86 898.37"/></clipPath><clipPath id="clip-path-230"><polygon class="cls-1" points="3369.13 649.34 3122.81 507.04 3122.81 293.58 3369.13 435.89 3369.13 649.34"/></clipPath><clipPath id="clip-path-231"><polygon class="cls-1" points="3470.24 281.33 3369.13 435.87 3369.13 649.32 3553.86 542.6 3553.86 329.16 3470.24 281.33"/></clipPath><clipPath id="clip-path-232"><polygon class="cls-1" points="3106.01 318.6 3215.12 133.46 3470.24 281.33 3352.33 460.91 3106.01 318.6"/></clipPath><clipPath id="clip-path-233"><polygon class="cls-1" points="3430.67 613.77 3430.67 471.44 3492.28 435.89 3492.28 578.17 3430.67 613.77"/></clipPath><clipPath id="clip-path-234"><polygon class="cls-1" points="3276.76 453.55 3276.76 524.7 3338.34 560.27 3338.34 489.12 3276.76 453.55"/></clipPath><clipPath id="clip-path-235"><polygon class="cls-1" points="3153.83 382.52 3153.83 453.68 3215.41 489.25 3215.41 418.1 3153.83 382.52"/></clipPath><clipPath id="clip-path-236"><rect class="cls-2" x="2814.92" y="68.9" width="985.25" height="829.47"/></clipPath><clipPath id="clip-path-237"><path class="cls-1" d="M3039.29,473.75H2946S2932,536.49,2963.9,591.83h11.9s-54.57-97,16.82-97,16.82,97,16.82,97h11.9c31.85-55.34,17.94-118.08,17.94-118.08"/></clipPath><clipPath id="clip-path-238"><path class="cls-1" d="M3027,362.12h-.11a54.8,54.8,0,0,0-51.81,37l.26-.05A54.79,54.79,0,0,1,3027,362.12"/></clipPath><clipPath id="clip-path-239"><path class="cls-1" d="M3029.3,362.17l1.5,0c-.5,0-1,0-1.5,0"/></clipPath><clipPath id="clip-path-240"><path class="cls-1" d="M3027.08,375.71a15.32,15.32,0,0,1,1.88.14,15.45,15.45,0,0,0-1.77-.15h-.11"/></clipPath><clipPath id="clip-path-241"><path class="cls-1" d="M3027.18,362.11H3027a18.38,18.38,0,0,1,2.25.18,18.12,18.12,0,0,0-2.12-.18"/></clipPath><clipPath id="clip-path-242"><path class="cls-1" d="M3029.6,375.77l-.77,0,.77,0"/></clipPath><clipPath id="clip-path-243"><path class="cls-1" d="M2991.57,395.8l-16.17,3.26,0,.05,16.44-3.31a41.22,41.22,0,0,1,35.27-20.1h-.14a41.22,41.22,0,0,0-35.37,20.1"/></clipPath><clipPath id="clip-path-244"><path class="cls-1" d="M3050.65,367.39a54.47,54.47,0,0,0-20.86-5.2,54.45,54.45,0,0,1,20.82,5.29Z"/></clipPath><clipPath id="clip-path-245"><path class="cls-1" d="M3050.61,367.48a54.45,54.45,0,0,0-20.82-5.29h-.49c-.75,0-1.5-.06-2.25-.06a54.79,54.79,0,0,0-51.65,36.94l16.17-3.26a41.22,41.22,0,0,1,35.37-20.1h.24c.55,0,1.1,0,1.64,0h.25a40.91,40.91,0,0,1,16.23,4.16Z"/></clipPath><clipPath id="clip-path-246"><path class="cls-1" d="M2958.49,362.11a54.53,54.53,0,0,0-23.46,5.28l5.34,12.52a41.15,41.15,0,0,1,53.5,15.89l16.44,3.31a54.8,54.8,0,0,0-51.81-37"/></clipPath><clipPath id="clip-path-247"><path class="cls-1" d="M2903.7,416.93a54.81,54.81,0,0,0,30.13,49l4.4-13.06a41.23,41.23,0,0,1,2.12-72.92L2935,367.39a54.82,54.82,0,0,0-31.32,49.54"/></clipPath><clipPath id="clip-path-248"><path class="cls-1" d="M2946,321.3s1.23,21.15,11,28.13l-1.57-13.51Z"/></clipPath><clipPath id="clip-path-249"><path class="cls-1" d="M3039.77,321.3s-1.23,21.15-11,28.13l1.57-13.51Z"/></clipPath><clipPath id="clip-path-250"><path class="cls-1" d="M2992.9,370.48l-21.32-12s-21.11,75.35-25.62,115.27h46.94Z"/></clipPath><clipPath id="clip-path-251"><path class="cls-1" d="M2992.63,370.48l21.32-12s21.11,75.35,25.62,115.27h-46.94Z"/></clipPath><clipPath id="clip-path-252"><path class="cls-1" d="M2992.9,367.53h-16.65s7.44,16.73,16.65,18.75c9.21-2,16.65-18.75,16.65-18.75Z"/></clipPath><clipPath id="clip-path-253"><path class="cls-1" d="M2992.9,355.85l-16.65,11.69s8.76,11.39,16.65,11.39c2.42,0,10.86-3.66,16.65-11.39Z"/></clipPath><clipPath id="clip-path-254"><path class="cls-1" d="M2956.58,321.3a7.46,7.46,0,1,0,0,10.55,7.45,7.45,0,0,0,0-10.55"/></clipPath><clipPath id="clip-path-255"><path class="cls-1" d="M3039.77,321.3a7.46,7.46,0,1,0,0,10.55,7.45,7.45,0,0,0,0-10.55"/></clipPath><clipPath id="clip-path-256"><path class="cls-1" d="M3001.35,370.49c11.54-4,23.53-9.85,29.07-20.73,3.83-7.52,4-16.31,4-24.75a113.94,113.94,0,0,0-.81-18.24,44.5,44.5,0,0,0-2.12-8.5,39.86,39.86,0,0,0-22.74-23,42.46,42.46,0,0,0-15.9-2.86l-7.38,64.35,7.38,35.5.56,0a26.43,26.43,0,0,0,7.89-1.79"/></clipPath><clipPath id="clip-path-257"><path class="cls-1" d="M2976.51,275.75a38.89,38.89,0,0,0-18.91,15.78c-5.73,9.73-6.11,21.62-6.07,32.92,0,10.3.49,21.74,7.13,30.2s18.44,14,28.54,16.68a24.53,24.53,0,0,0,5.92.95l-3-36.32,8.83-3-5.81-60.52a45.1,45.1,0,0,0-16.61,3.33"/></clipPath><clipPath id="clip-path-258"><path class="cls-1" d="M2981,316a3.14,3.14,0,1,0-3.14,3.14A3.14,3.14,0,0,0,2981,316"/></clipPath><clipPath id="clip-path-259"><path class="cls-1" d="M3012.31,316a3.13,3.13,0,1,0-3.14,3.14,3.14,3.14,0,0,0,3.14-3.14"/></clipPath><clipPath id="clip-path-260"><path class="cls-1" d="M3022.84,330.07c0,1.93-3.09,3.49-6.89,3.49s-6.89-1.56-6.89-3.49,3.09-3.49,6.89-3.49,6.89,1.56,6.89,3.49"/></clipPath><clipPath id="clip-path-261"><path class="cls-1" d="M2964.46,330.07c0,1.93,3.09,3.49,6.89,3.49s6.89-1.56,6.89-3.49-3.09-3.49-6.89-3.49-6.89,1.56-6.89,3.49"/></clipPath><clipPath id="clip-path-262"><polygon class="cls-1" points="2989.89 335.93 3002.29 335.93 2998.71 332.93 2989.89 335.93"/></clipPath><clipPath id="clip-path-263"><path class="cls-1" d="M3029.81,452.83h17.38l4.4,13.06c-3.86,6.67-12.13,7.87-12.13,7.87l-2.33-16h-7.07l-.25,0a2.45,2.45,0,0,1,0-4.9"/></clipPath><clipPath id="clip-path-264"><path class="cls-1" d="M3011.45,266.61V267c-.77,1.44-7.79,14.19-17.15,21.18-3.51,2.62-7.34,4.43-11.3,4.52h23.73a7.83,7.83,0,0,1,6,2.53c2.33,2.5,3.09,6,7,6a8,8,0,0,1,5.61,2,9.82,9.82,0,0,1,2.87,6v17.51h6.51q0-1.07,0-2.13c0-1.75,0-3.52,0-5.29a7.41,7.41,0,0,1,4.22,1.46l.84.69v0l.1.13a150.36,150.36,0,0,0,1-16.23c0-19.28-12.2-33.14-29.46-38.56"/></clipPath><clipPath id="clip-path-265"><path class="cls-1" d="M3000.72,263.42a76.57,76.57,0,0,0-8,0c-1.4.07-2.81.18-4.2.33a57.15,57.15,0,0,0-6.07,1c-.19,0-.6.2-1,.34l-1.07.2h0a52,52,0,0,0-9,2.58c-15.57,6.05-26.32,19.37-26.29,37.45,0,3.83.36,10.56.92,15.24,0,.26,0,.51,0,.77l.08-.07,0,.29c.07-.07.12-.16.19-.23a7.33,7.33,0,0,1,4.55-2.1c.22,0,.45,0,.67,0,0,1.77,0,3.53,0,5.28,0,.71,0,1.42,0,2.13h6.51V309.07a10.55,10.55,0,0,1,1.15-3.72l1.36-1.86,0,0c1.26-1.29,3.16-1.95,5.95-2.3s3.88-3.47,6.32-5.83a9.32,9.32,0,0,1,6.69-2.66s14.89.05,17,0c21.11-.48,29.29-14.87,32.46-22.77.7-1.76,1.16-3.2,1.46-4.09a17,17,0,0,0,.54-2.38Z"/></clipPath><clipPath id="clip-path-266"><path class="cls-1" d="M3028.19,326.58c0,12.32-22.48,12.66-32.28,12.22h-5.56c-9.8.44-32.28.1-32.28-12.22h-6.51c.12,9.72.93,20.19,7.11,28.06,6.59,8.4,18.44,14,28.54,16.68a19,19,0,0,0,11.85,0c10.1-2.68,21.95-8.28,28.54-16.68,6.18-7.88,7-18.35,7.11-28.06h-6.51Z"/></clipPath><clipPath id="clip-path-267"><path class="cls-1" d="M2992.9,362.86a19.2,19.2,0,0,0,19.2-19.21h-38.39a19.2,19.2,0,0,0,19.2,19.21"/></clipPath><clipPath id="clip-path-268"><path class="cls-1" d="M3050.61,367.48l-5.3,12.43a40.91,40.91,0,0,0-16.23-4.16,41.23,41.23,0,0,1,18.11,77.08l4.4,13.06a54.84,54.84,0,0,0-1-98.4"/></clipPath><clipPath id="clip-path-269"><path class="cls-1" d="M2980.39,325.85a.94.94,0,1,0-.94.94.94.94,0,0,0,.94-.94"/></clipPath><clipPath id="clip-path-270"><path class="cls-1" d="M2972.85,322.83a.94.94,0,1,0-.94.94.94.94,0,0,0,.94-.94"/></clipPath><clipPath id="clip-path-271"><path class="cls-1" d="M2986.42,322.83a.94.94,0,1,0-.94.94.94.94,0,0,0,.94-.94"/></clipPath><clipPath id="clip-path-272"><path class="cls-1" d="M2974.36,327.36a.94.94,0,1,0-.94.94.94.94,0,0,0,.94-.94"/></clipPath><clipPath id="clip-path-273"><path class="cls-1" d="M2969.83,330.38a.94.94,0,1,0-.94.94.94.94,0,0,0,.94-.94"/></clipPath><clipPath id="clip-path-274"><path class="cls-1" d="M2983.4,330.38a.94.94,0,1,0-.94.94.94.94,0,0,0,.94-.94"/></clipPath><clipPath id="clip-path-275"><path class="cls-1" d="M3009,325.85a.94.94,0,1,1,.94.94.94.94,0,0,1-.94-.94"/></clipPath><clipPath id="clip-path-276"><path class="cls-1" d="M3016.56,322.83a.94.94,0,1,1,.94.94.94.94,0,0,1-.94-.94"/></clipPath><clipPath id="clip-path-277"><path class="cls-1" d="M3003,322.83a.94.94,0,1,1,.94.94.94.94,0,0,1-.94-.94"/></clipPath><clipPath id="clip-path-278"><path class="cls-1" d="M3015,327.36a.94.94,0,1,1,.94.94.94.94,0,0,1-.94-.94"/></clipPath><clipPath id="clip-path-279"><path class="cls-1" d="M3019.57,330.38a.94.94,0,1,1,.94.94.94.94,0,0,1-.94-.94"/></clipPath><clipPath id="clip-path-280"><path class="cls-1" d="M3006,330.38a.94.94,0,1,1,.94.94.94.94,0,0,1-.94-.94"/></clipPath><clipPath id="clip-path-281"><path class="cls-1" d="M2946,473.75S2932,536.49,2963.9,591.83h11.9s-54.57-97,16.82-97V473.75Z"/></clipPath><clipPath id="clip-path-282"><path class="cls-1" d="M3039.29,473.75s13.91,62.74-17.94,118.08h-11.9s54.57-97-16.82-97V473.75Z"/></clipPath><clipPath id="clip-path-283"><path class="cls-1" d="M2979.1,593.46a4.32,4.32,0,0,0-3.38-1.63H2963.9s-7.59,3.42-11.63-1a6,6,0,1,0-4.65,9.67h28.09a4.33,4.33,0,0,0,3.38-7"/></clipPath><clipPath id="clip-path-284"><path class="cls-1" d="M3006.16,593.46a4.32,4.32,0,0,1,3.38-1.63h11.81s7.59,3.42,11.63-1a6,6,0,1,1,4.65,9.67h-28.09a4.34,4.34,0,0,1-3.38-7"/></clipPath><clipPath id="clip-path-285"><path class="cls-1" d="M2955.61,452.83h-17.38l-4.4,13.06c3.86,6.67,12.13,7.87,12.13,7.87l2.33-16h7.07l.25,0a2.45,2.45,0,0,0,0-4.9"/></clipPath><clipPath id="clip-path-286"><rect class="cls-2" x="3070.7" y="277.56" width="51.09" height="100.04"/></clipPath><clipPath id="clip-path-287"><rect class="cls-2" x="3119.62" y="277.56" width="51.08" height="100.07"/></clipPath><clipPath id="clip-path-288"><path class="cls-1" d="M3163.87,477.71h-86.43s-12.88,58.1,16.62,109.36h11s-50.53-89.86,15.58-89.86,15.58,89.86,15.58,89.86h11c29.5-51.25,16.62-109.36,16.62-109.36"/></clipPath><clipPath id="clip-path-289"><path class="cls-1" d="M3077.43,477.71s-12.88,58.1,16.62,109.36h11s-50.53-89.86,15.58-89.86v-19.5Z"/></clipPath><clipPath id="clip-path-290"><path class="cls-1" d="M3163.87,477.71s12.88,58.1-16.62,109.36h-11s50.53-89.86-15.58-89.86v-19.5Z"/></clipPath><clipPath id="clip-path-291"><path class="cls-1" d="M3108.12,588.57a4,4,0,0,0-3.13-1.51H3094s-7,3.17-10.77-.93a5.51,5.51,0,1,0-4.3,9h26a4,4,0,0,0,3.13-6.52"/></clipPath><clipPath id="clip-path-292"><path class="cls-1" d="M3133.18,588.57a4,4,0,0,1,3.13-1.51h10.94s7,3.17,10.77-.93a5.51,5.51,0,1,1,4.3,9h-26a4,4,0,0,1-3.13-6.52"/></clipPath><clipPath id="clip-path-293"><path class="cls-1" d="M3170.7,327.59a50,50,0,0,0-50-50l-1.08,0-12.77,42.11,12.77,57.9,1.08,0a50,50,0,0,0,50-50"/></clipPath><clipPath id="clip-path-294"><path class="cls-1" d="M3071.23,334.9s2.48,29.87-15.26,33.89c0,0,16.48,23.8,53.78,10.8l-5.37-25.14Z"/></clipPath><clipPath id="clip-path-295"><path class="cls-1" d="M3170.1,334.9s-2.48,29.87,15.26,33.89c0,0-16.48,23.8-53.77,10.8l5.37-25.14Z"/></clipPath><clipPath id="clip-path-296"><path class="cls-1" d="M3038.58,419.91a51.3,51.3,0,0,0-.28,5.31,50.63,50.63,0,0,0,27.84,45.22l4.07-12.06a38,38,0,0,1-19-38.47Z"/></clipPath><clipPath id="clip-path-297"><path class="cls-1" d="M3066,455.58a7.32,7.32,0,0,0-1.68-6.37c-1.68-1.73-3.37-3.54-7.15-3.06a38.28,38.28,0,0,1-8.33,9.91c-.14,2.32-1.47,6.24,0,7.73s6.54,1.21,8.81,1.21a50.77,50.77,0,0,0,8.35-9.42"/></clipPath><clipPath id="clip-path-298"><path class="cls-1" d="M3102.47,376.43l-2.57,12.34a38.24,38.24,0,0,1,21.69,16.93l15.18,3.06a50.73,50.73,0,0,0-34.3-32.33"/></clipPath><clipPath id="clip-path-299"><path class="cls-1" d="M3088.91,374.58a50.63,50.63,0,0,0-50.33,45.33h12.64a38,38,0,0,1,48.68-31.14l2.57-12.34a50.58,50.58,0,0,0-13.56-1.85"/></clipPath><clipPath id="clip-path-300"><path class="cls-1" d="M3120.45,382.31l19.69-11.09s19.51,69.61,23.67,106.49h-43.36Z"/></clipPath><clipPath id="clip-path-301"><path class="cls-1" d="M3125.23,388.53a50.56,50.56,0,0,0-8.57,13.62l10.08,9a37.87,37.87,0,0,1,8-14.48l.26-.27-11.4-2Z"/></clipPath><clipPath id="clip-path-302"><path class="cls-1" d="M3187.55,376.2c-10.6-2.55-20.79-6-31.86-4.31a50.39,50.39,0,0,0-30.27,16.42l-.19.22-1.58,5.83,11.4,2a38.32,38.32,0,0,1,30-12.44c12.51.6,23.42,6.76,36.33,4.82a50.61,50.61,0,0,0,14.37-4.41L3210,373.17a38.32,38.32,0,0,1-22.41,3"/></clipPath><clipPath id="clip-path-303"><path class="cls-1" d="M3120.7,382.31,3101,371.22s-19.51,69.61-23.67,106.49h43.36Z"/></clipPath><clipPath id="clip-path-304"><path class="cls-1" d="M3105.32,379.59h3.49l-4.44-6.46-10.8,7.68,12.54,7.72-1.74,12.72,16.32,43V396.9c-8.51-1.86-15.38-17.32-15.38-17.32"/></clipPath><clipPath id="clip-path-305"><path class="cls-1" d="M3136.08,379.59h-3.49l4.44-6.46,10.8,7.68-12.54,7.72,1.74,12.72-16.32,43V396.9c8.51-1.86,15.38-17.32,15.38-17.32"/></clipPath><clipPath id="clip-path-306"><path class="cls-1" d="M3120.7,379.59h-15.38s6.87,15.46,15.38,17.32c8.51-1.86,15.38-17.32,15.38-17.32Z"/></clipPath><clipPath id="clip-path-307"><path class="cls-1" d="M3120.7,368.79l-15.38,10.8s8.1,10.52,15.38,10.52c2.24,0,10-3.38,15.38-10.52Z"/></clipPath><clipPath id="clip-path-308"><path class="cls-1" d="M3087.15,336.88a6.89,6.89,0,1,0,0,9.75,6.88,6.88,0,0,0,0-9.75"/></clipPath><clipPath id="clip-path-309"><path class="cls-1" d="M3164,336.88a6.89,6.89,0,1,0,0,9.75,6.88,6.88,0,0,0,0-9.75"/></clipPath><clipPath id="clip-path-310"><path class="cls-1" d="M3128.5,382.32c10.66-3.68,21.74-9.1,26.86-19.15,3.54-6.95,3.67-15.07,3.74-22.87a105.25,105.25,0,0,0-.75-16.85,41,41,0,0,0-2-7.86,36.82,36.82,0,0,0-21-21.24,39.23,39.23,0,0,0-14.69-2.65l-6.82,59.45L3120.7,384l.51,0a24.41,24.41,0,0,0,7.29-1.65"/></clipPath><clipPath id="clip-path-311"><path class="cls-1" d="M3105.56,294.8a35.93,35.93,0,0,0-17.47,14.58c-5.3,9-5.65,20-5.6,30.41,0,9.51.45,20.08,6.58,27.9s17,12.93,26.37,15.41a22.67,22.67,0,0,0,5.47.87l-2.79-33.55,8.15-2.79-5.37-55.9a41.67,41.67,0,0,0-15.34,3.08"/></clipPath><clipPath id="clip-path-312"><path class="cls-1" d="M3109.75,332a2.9,2.9,0,1,0-2.9,2.9,2.9,2.9,0,0,0,2.9-2.9"/></clipPath><clipPath id="clip-path-313"><path class="cls-1" d="M3138.63,332a2.9,2.9,0,1,0-2.9,2.9,2.9,2.9,0,0,0,2.9-2.9"/></clipPath><clipPath id="clip-path-314"><path class="cls-1" d="M3148.36,345c0,1.78-2.85,3.22-6.37,3.22s-6.37-1.44-6.37-3.22,2.85-3.22,6.37-3.22,6.37,1.44,6.37,3.22"/></clipPath><clipPath id="clip-path-315"><path class="cls-1" d="M3094.43,345c0,1.78,2.85,3.22,6.37,3.22s6.37-1.44,6.37-3.22-2.85-3.22-6.37-3.22-6.37,1.44-6.37,3.22"/></clipPath><clipPath id="clip-path-316"><polygon class="cls-1" points="3117.91 350.39 3129.38 350.39 3126.07 347.62 3117.91 350.39"/></clipPath><clipPath id="clip-path-317"><path class="cls-1" d="M3070.2,458.38h16.05v4.5h-6.76l-2.16,14.82s-7.64-1.1-11.2-7.27Z"/></clipPath><clipPath id="clip-path-318"><path class="cls-1" d="M3086.25,458.38a2.26,2.26,0,1,1-2.26,2.26,2.26,2.26,0,0,1,2.26-2.26"/></clipPath><clipPath id="clip-path-319"><path class="cls-1" d="M3246.34,329.57a10.18,10.18,0,1,0-18.12,2.33h0l0,0,.05.08,3.61,5.35A37.92,37.92,0,0,1,3210,373.17l5.83,11.16a50.43,50.43,0,0,0,15.9-12c9.07-10.2,12.72-22.32,12.21-35l2.44-7.79Z"/></clipPath><clipPath id="clip-path-320"><path class="cls-1" d="M3228.84,305a2.32,2.32,0,0,0-2.32,2.32v21.72h4.64V307.34a2.32,2.32,0,0,0-2.32-2.32"/></clipPath><clipPath id="clip-path-321"><path class="cls-1" d="M3240.12,324H3226a.84.84,0,0,0-.83.66,12.17,12.17,0,0,0-.25,2.43,14.2,14.2,0,0,0,.63,4.19c.88,2.81,5.08,1.56,5.13-1.39a.84.84,0,0,1,.84-.82h8.6v0h0a2.53,2.53,0,1,0,0-5"/></clipPath><clipPath id="clip-path-322"><path class="cls-1" d="M3120.7,375.27a17.74,17.74,0,0,0,17.73-17.74H3103a17.74,17.74,0,0,0,17.73,17.74"/></clipPath><clipPath id="clip-path-323"><path class="cls-1" d="M3121.24,311.21s-12.42,16.37-47.08,26.15c0,0-8.36-55.46,47.08-49.73Z"/></clipPath><clipPath id="clip-path-324"><path class="cls-1" d="M3120.16,311.21s12.42,16.37,47.08,26.15c0,0,8.36-56.14-47.08-50.42Z"/></clipPath><clipPath id="clip-path-325"><path class="cls-1" d="M3810.25,473.63c10,64.16-33.48,125.61-33.48,125.61s-68.32,93.48-325.14,75.44V812s380,70.95,471.62-212.8c17.3-53.61,22.53-99.84,19.44-139.63-14.2-183-204.34-229.5-204.34-229.5S3805,439.69,3810.25,473.63Z"/></clipPath><clipPath id="clip-path-326"><path class="cls-1" d="M3452,673.81l-166.27-56-15.68,46.66,70,23.57-29.29,161.06s83,15.21,141.35-36.21Z"/></clipPath><clipPath id="clip-path-327"><path class="cls-1" d="M3254.46,633.41a24.72,24.72,0,1,0,31.31-15.56,24.74,24.74,0,0,0-31.31,15.56"/></clipPath><clipPath id="clip-path-328"><path class="cls-1" d="M3340.12,688.08l-151.74-35.43L3148,806.11S3268.42,857,3337.5,851.23l28.61-66.14Z"/></clipPath><clipPath id="clip-path-329"><path class="cls-1" d="M3148,806.11c25.73,6.57,55.4-22.63,66.27-65.23s-1.18-82.46-26.91-89-55.4,22.63-66.27,65.23,1.18,82.46,26.91,89"/></clipPath><clipPath id="clip-path-330"><path class="cls-1" d="M2809.27,454.7c-23.52,70.42,28.9,144.55,28.9,144.55s68.32,93.48,325.14,75.44V812s-380,70.95-471.62-212.8c-29.51-91.45-23.89-161.44-1.8-214.55,50.43-121.26,186.7-154.58,186.7-154.58S2818.5,427.07,2809.27,454.7Z"/></clipPath><clipPath id="clip-path-331"><path class="cls-1" d="M3164.1,676.06l175.31,6.16-1.73,49.19-73.84-2.59-29.22,161.07s-74-13.36-113-72.66c-2.31-3.5,42.52-141.17,42.52-141.17"/></clipPath><clipPath id="clip-path-332"><path class="cls-1" d="M3363.25,707.81a24.72,24.72,0,1,1-23.84-25.59,24.73,24.73,0,0,1,23.84,25.59"/></clipPath><clipPath id="clip-path-333"><path class="cls-1" d="M3263.85,728.82l154.49,20.26-16.2,157.85s-130.58,5.27-193.21-24.47l-3.52-72Z"/></clipPath><clipPath id="clip-path-334"><path class="cls-1" d="M3402.14,906.94c-26.4-2.91-43.9-40.69-39.09-84.39s30.1-76.77,56.5-73.86,43.9,40.69,39.09,84.39-30.1,76.77-56.5,73.87"/></clipPath><clipPath id="clip-path-335"><rect class="cls-2" x="-904.61" y="1733.69" width="10.8" height="135.33" transform="translate(-453.91 -162.1) rotate(-13.75)"/></clipPath><clipPath id="clip-path-336"><path class="cls-1" d="M-853,1720.37a64.14,64.14,0,0,0-77.54-47.11,64.2,64.2,0,0,0-47.07,77.61A64.14,64.14,0,0,0-900,1798,64.2,64.2,0,0,0-853,1720.37"/></clipPath><clipPath id="clip-path-337"><path class="cls-1" d="M-894.71,1991.07a94.25,94.25,0,0,0-94.21,94.29H-800.5a94.25,94.25,0,0,0-94.21-94.29"/></clipPath><clipPath id="clip-path-338"><path class="cls-1" d="M-956.74,2046.45a51.86,51.86,0,0,0-51.84,51.88H-904.9a51.86,51.86,0,0,0-51.84-51.88"/></clipPath><clipPath id="clip-path-339"><path class="cls-1" d="M-1296.19,2313a56.42,56.42,0,0,0-50.64,31.6,45.27,45.27,0,0,0-28-9.69,45.27,45.27,0,0,0-25.88,8.1,70.16,70.16,0,0,0-68.94-57.4,70.19,70.19,0,0,0-70.16,70.21,70.5,70.5,0,0,0,1.36,13.69h298.74a56.5,56.5,0,0,0-56.48-56.53"/></clipPath><clipPath id="clip-path-340"><polygon class="cls-1" points="-1284.55 2270.73 -1607.24 2084.3 -1365.22 1944.46 -1042.53 2130.89 -1284.55 2270.73"/></clipPath><clipPath id="clip-path-341"><polygon class="cls-1" points="-1274.64 2095.99 -1479.08 1860.75 -1403.08 1639.64 -1198.63 1874.88 -1274.64 2095.99"/></clipPath><clipPath id="clip-path-342"><polygon class="cls-1" points="-1038.87 1750.83 -1198.63 1874.86 -1274.63 2095.97 -1045.3 2051.29 -969.3 1830.2 -1038.87 1750.83"/></clipPath><clipPath id="clip-path-343"><polygon class="cls-1" points="-1429.38 1659.57 -1250.45 1506.69 -1038.87 1750.83 -1224.94 1894.81 -1429.38 1659.57"/></clipPath><clipPath id="clip-path-344"><polygon class="cls-1" points="-1198.23 2081.09 -1147.55 1933.66 -1071.08 1918.8 -1121.74 2066.18 -1198.23 2081.09"/></clipPath><clipPath id="clip-path-345"><polygon class="cls-1" points="-1300.59 1860.23 -1325.92 1933.94 -1274.81 1992.75 -1249.48 1919.05 -1300.59 1860.23"/></clipPath><clipPath id="clip-path-346"><polygon class="cls-1" points="-1402.62 1742.83 -1427.96 1816.54 -1376.84 1875.35 -1351.51 1801.64 -1402.62 1742.83"/></clipPath><clipPath id="clip-path-347"><polygon class="cls-1" points="-1251.57 1755.93 -1226.09 1681.8 -1263.31 1638.97 -1288.79 1713.1 -1251.57 1755.93"/></clipPath><clipPath id="clip-path-348"><polygon class="cls-1" points="-1170.57 1671.4 -1226.09 1681.8 -1251.57 1755.93 -1180.83 1701.25 -1170.57 1671.4"/></clipPath><clipPath id="clip-path-349"><polygon class="cls-1" points="-1263.31 1638.97 -1226.09 1681.8 -1170.56 1671.4 -1207.77 1628.15 -1263.31 1638.97"/></clipPath><clipPath id="clip-path-350"><path class="cls-1" d="M-1563.55,2077.07a80.93,80.93,0,0,0-80.9,81h161.8a80.93,80.93,0,0,0-80.9-81"/></clipPath><clipPath id="clip-path-351"><path class="cls-1" d="M-1613.9,1591.09c1.81-5.44,3.09-9.39,3.09-9.39s6.34-12.19-8.44-17.25l-18.29-6.27s-1.58-2.18-18.23,2.45a109.54,109.54,0,0,0-21.06,6.4c-6.58,2.88-12.67,6.78-14.73,11.79-5.18,12.59-2.78,22.11,4.57,29.85,1.74,1.83,5.14,3.79,9.31,5.72,4.58,2.11,10.09,4.19,15.37,6,10.26,3.53,19.66,6.08,19.66,6.08s15.2,2.6,19.45-8.56c2.57-6.74,6.55-18.54,9.31-26.83"/></clipPath><clipPath id="clip-path-352"><path class="cls-1" d="M-1662.54,1651.9l-15,56.19,16.73,5.73,14.08-36.87,2.83-11.29c-9.68-3.61-15.36-8.67-18.65-13.76"/></clipPath><clipPath id="clip-path-353"><path class="cls-1" d="M-1558.69,1703.1a25.64,25.64,0,0,1-5.12,2.35l-2.22,6.48a2.06,2.06,0,0,1-2.61,1.28,2.06,2.06,0,0,1-1.28-2.61l1.39-4.06a25.3,25.3,0,0,1-6.73,0l-2,5.71a2,2,0,0,1-.9,1.09l-9.53,25.57,15.18,5.2,17.22-31.27,2.21-6.45a20.65,20.65,0,0,1-5.66-3.27"/></clipPath><clipPath id="clip-path-354"><path class="cls-1" d="M-1532.29,1619.06l-81.61-28c-2.75,8.3-6.74,20.1-9.31,26.83-4.25,11.16-19.45,8.56-19.45,8.56s-9.39-2.56-19.66-6.08l-3.93,11.49a27,27,0,0,0,3.71,20c3.29,5.1,9,10.15,18.65,13.76l-2.83,11.29-9.63,38.39,16.17,5.54,20.09-47.29,22.76,7.8,27.58,9.45,3.75,1.28a22.88,22.88,0,0,0,7.3,11,20.61,20.61,0,0,0,5.66,3.27l-2.21,6.45-11.39,33.27,15.57,5.34,20.47-38.24,17.72-51.8s12.87-31.27-19.43-42.34"/></clipPath><clipPath id="clip-path-355"><path class="cls-1" d="M-1566,1692.14l-3.75-1.29-27.58-9.45a25.49,25.49,0,0,0,1.38,8.07l-2.2,6.44a2.06,2.06,0,0,0,1.28,2.61,2.06,2.06,0,0,0,2.61-1.28l.84-2.46a25.52,25.52,0,0,0,4.47,5.35l-1.7,5a2.06,2.06,0,0,0,1.28,2.61,2.06,2.06,0,0,0,2.61-1.28l1.26-3.69a25.5,25.5,0,0,0,5.41,2.61l.79.25-1.81,5.28a2.06,2.06,0,0,0,1.28,2.61,2,2,0,0,0,1.71-.19,2,2,0,0,0,.9-1.1l2-5.71a25.31,25.31,0,0,0,6.73,0l-1.39,4.06a2.06,2.06,0,0,0,1.28,2.61,2.06,2.06,0,0,0,2.61-1.28l2.22-6.48a25.61,25.61,0,0,0,5.12-2.35,22.89,22.89,0,0,1-7.3-11"/></clipPath><clipPath id="clip-path-356"><path class="cls-1" d="M-1636,1574.37a2.47,2.47,0,0,1-1.59-2.92,2.47,2.47,0,0,1,3-1.82c.61.14,15.21,3.42,18.87-11.58a2.47,2.47,0,0,1,3-1.81,2.48,2.48,0,0,1,1.81,3c-4.84,19.84-24.63,15.26-24.83,15.21l-.22-.06"/></clipPath><clipPath id="clip-path-357"><path class="cls-1" d="M-1603.09,1658.76a12.78,12.78,0,0,0-16.23,8,12.72,12.72,0,0,0-.35,7l20.49,7a12.71,12.71,0,0,0,4-5.77,12.79,12.79,0,0,0-7.95-16.24"/></clipPath><clipPath id="clip-path-358"><path class="cls-1" d="M-1637.26,1699a12.79,12.79,0,0,0-7.95-16.24,12.75,12.75,0,0,0-2.82-.61l-6.15,24.54c.23.09.45.2.69.28a12.78,12.78,0,0,0,16.23-8"/></clipPath><clipPath id="clip-path-359"><path class="cls-1" d="M-1524.42,1666.64a18,18,0,0,0-22.9,11.23,18,18,0,0,0,11.22,22.92,17.92,17.92,0,0,0,9.56.59l10-29.33a18,18,0,0,0-7.91-5.4"/></clipPath><clipPath id="clip-path-360"><path class="cls-1" d="M-1574.11,1646a31.26,31.26,0,0,0,39.7-19.46,31.38,31.38,0,0,0,1.59-7.63l-57.33-19.65a31.31,31.31,0,0,0-3.42,7,31.29,31.29,0,0,0,19.45,39.74"/></clipPath><clipPath id="clip-path-361"><path class="cls-1" d="M-1623.21,1617.92c1-2.53,2.13-5.77,3.35-9.27a18,18,0,0,0-9.87-8.19,18.09,18.09,0,0,0-23,11.27,18,18,0,0,0,0,11.81c5.83,1.81,10,2.94,10,2.94s15.2,2.6,19.45-8.56"/></clipPath><clipPath id="clip-path-362"><path class="cls-1" d="M-1662.21,1572.05a18,18,0,0,0,.48-10.07,101,101,0,0,0-15.11,5.06c-6.58,2.88-12.67,6.78-14.73,11.79-.07.17-.13.34-.2.52a18,18,0,0,0,6.57,4,18.09,18.09,0,0,0,23-11.27"/></clipPath><clipPath id="clip-path-363"><path class="cls-1" d="M-1676.84,1567c-6.58,2.88-12.67,6.78-14.73,11.79-5.18,12.59-2.78,22.11,4.57,29.85,1.74,1.83,5.14,3.79,9.31,5.72,12.91-24.75,6.6-39.92.85-47.36"/></clipPath><clipPath id="clip-path-364"><path class="cls-1" d="M-1646.48,1579.92a4.3,4.3,0,0,0-2.67-5.46,4.29,4.29,0,0,0-5.45,2.67,4.3,4.3,0,0,0,2.67,5.46,4.29,4.29,0,0,0,5.45-2.67"/></clipPath><clipPath id="clip-path-365"><path class="cls-1" d="M-1656.57,1684.61a14.25,14.25,0,0,0-8.85-18.09c-.31-.11-.63-.19-.94-.27l-7.34,27.49a14.22,14.22,0,0,0,17.13-9.13"/></clipPath><clipPath id="clip-path-366"><path class="cls-1" d="M-1582.76,1725.79l-4.88,13.1,13.23,4.54a14,14,0,0,0-8.35-17.64"/></clipPath><clipPath id="clip-path-367"><path class="cls-1" d="M-1522.5,1639.16l.33-6.58c.61,0,15,.42,20.72-16.34l6.23,2.13c-3.83,11.2-11,16.27-16.32,18.55a26.9,26.9,0,0,1-11,2.24"/></clipPath><clipPath id="clip-path-368"><path class="cls-1" d="M-1500.31,1623.06h0c-3.17-1.09-5.11-3.8-4.33-6.07l3.86-11.27c.77-2.27,4-3.22,7.14-2.14s5.11,3.8,4.33,6.07l-3.86,11.27c-.78,2.27-4,3.22-7.14,2.14"/></clipPath><clipPath id="clip-path-387"><path class="cls-1" d="M-1628.74,1794.77c-119.68,0-216.69,25.69-216.69,57.39a16.86,16.86,0,0,0,1.87,7.54h0l.09.14a22.79,22.79,0,0,0,1.57,2.65l40.56,68.33c-8.2.42-14.18,4-14.18,16.5,0,24,28.43,40.57,40.38,45.92,4.6,2.07,9.36,3.94,14.22,5.67L-1653,2180.72a41.85,41.85,0,0,0-4,3.28,29.43,29.43,0,0,0-25.6-14.92,29.46,29.46,0,0,0-29.45,29.47,29.42,29.42,0,0,0,2.08,10.88,39.79,39.79,0,0,0-20.55,18.09,29.3,29.3,0,0,0-17.72-5.94,29.46,29.46,0,0,0-29.19,25.64h291a29.46,29.46,0,0,0-29.19-25.64,29.51,29.51,0,0,0-5.88.59,43.09,43.09,0,0,0-40.66-28.86,43.17,43.17,0,0,0-8.08.77c0-.26,0-.51,0-.77a21.26,21.26,0,0,0-21.25-21.27,21,21,0,0,0-9.11,2.07l46.18-77.88c4.26-1.53,8.43-3.2,12.48-5,11.09-5,37.47-20.31,37.47-42.62,0-11.31-5.31-14.76-12.66-15.27l100.33-169.21a23,23,0,0,0,3.62-6.11,16.27,16.27,0,0,0,1.12-5.87c0-31.69-97-57.39-216.69-57.39"/></clipPath><clipPath id="clip-path-388"><path class="cls-1" d="M-1843.58,1859.7l.27.45c-.08-.15-.17-.3-.24-.45Z"/></clipPath><clipPath id="clip-path-389"><path class="cls-1" d="M-1839.46,1863.88l-4-4a37.6,37.6,0,0,0,4,4"/></clipPath><clipPath id="clip-path-390"><path class="cls-1" d="M-1416.79,1864.13a22.66,22.66,0,0,0,4-6.11Z"/></clipPath><clipPath id="clip-path-391"><path class="cls-1" d="M-1628.74,1794.77c-119.68,0-216.69,25.69-216.69,57.39a16.86,16.86,0,0,0,1.87,7.54l.08.15,1.57,2.65c18.38,26.76,106.83,47,213.18,47,104.16,0,191.15-19.46,212-45.41l3.62-6.11a16.28,16.28,0,0,0,1.12-5.87c0-31.69-97-57.39-216.69-57.39"/></clipPath><clipPath id="clip-path-392"><path class="cls-1" d="M-1841.92,1862.49l213.18,359.1V1909.54c-106.35,0-194.8-20.29-213.18-47"/></clipPath><clipPath id="clip-path-393"><path class="cls-1" d="M-1628.74,1909.54v312.05l212-357.46c-20.81,25.94-107.79,45.41-212,45.41"/></clipPath><clipPath id="clip-path-394"><path class="cls-1" d="M-1778.29,1857.4l.19.31-.17-.31Z"/></clipPath><clipPath id="clip-path-395"><path class="cls-1" d="M-1774.87,1861.54l-3.36-4a35.2,35.2,0,0,0,3.36,4"/></clipPath><clipPath id="clip-path-396"><path class="cls-1" d="M-1481.2,1860.49a16.69,16.69,0,0,0,4-4.25Z"/></clipPath><clipPath id="clip-path-397"><path class="cls-1" d="M-1628.74,1812.21c-83.31,0-150.84,17.88-150.84,39.95a11.74,11.74,0,0,0,1.3,5.25l.05.1,1.09,1.84c12.79,18.63,74.36,32.75,148.39,32.75,72.51,0,133.05-13.55,147.54-31.61l2.52-4.25a11.33,11.33,0,0,0,.78-4.08c0-22.06-67.53-39.95-150.84-39.95"/></clipPath><clipPath id="clip-path-398"><path class="cls-1" d="M-1708.25,1854.94l.1.17-.08-.17Z"/></clipPath><clipPath id="clip-path-399"><path class="cls-1" d="M-1706.44,1858l-1.78-3a25.87,25.87,0,0,0,1.78,3"/></clipPath><clipPath id="clip-path-400"><path class="cls-1" d="M-1550.29,1858.36a16.14,16.14,0,0,0,4-4Z"/></clipPath><clipPath id="clip-path-401"><path class="cls-1" d="M-1628.74,1830.91c-44.29,0-80.2,9.51-80.2,21.24a6.24,6.24,0,0,0,.69,2.79l0,.05.58,1c6.8,9.9,39.54,17.41,78.9,17.41,38.55,0,70.75-7.2,78.45-16.81l1.34-2.26a6,6,0,0,0,.41-2.17c0-11.73-35.91-21.24-80.2-21.24"/></clipPath><clipPath id="clip-path-402"><path class="cls-1" d="M-1801.36,1930.81l13.75,23.16c18.68,17.3,44.73,24.59,69.45,31.38,33,9.06,67.57,10.07,101.77,10.17-12.32,11.17-29.55,15.19-46.14,16.31-36.83,2.49-78.62-3.36-112.63-18.61-12-5.36-40.38-21.89-40.38-45.92,0-12.47,6-16.08,14.18-16.5"/></clipPath><clipPath id="clip-path-403"><path class="cls-1" d="M-1517.62,2033.3l-12.76,21.49c-17.33,16.05-41.5,22.82-64.45,29.12-30.6,8.4-62.71,9.35-94.44,9.44,11.43,10.37,27.42,14.1,42.82,15.14,34.18,2.31,73-3.11,104.52-17.27,11.09-5,37.47-20.31,37.47-42.62,0-11.57-5.55-14.92-13.16-15.31"/></clipPath><clipPath id="clip-path-404"><path class="cls-1" d="M-1515.65,2221.59a29.6,29.6,0,0,0-5.88.59,43.09,43.09,0,0,0-40.66-28.86,43.28,43.28,0,0,0-8.08.77c0-.26,0-.51,0-.77a21.26,21.26,0,0,0-21.25-21.27,21.16,21.16,0,0,0-15.64,6.91,41.42,41.42,0,0,0-21.62-6A41.48,41.48,0,0,0-1657,2184a29.43,29.43,0,0,0-25.6-14.92,29.46,29.46,0,0,0-29.45,29.47,29.42,29.42,0,0,0,2.08,10.88,39.79,39.79,0,0,0-20.55,18.09,29.3,29.3,0,0,0-17.72-5.94,29.46,29.46,0,0,0-29.19,25.64h291a29.46,29.46,0,0,0-29.19-25.64"/></clipPath><clipPath id="clip-path-405"><polyline class="cls-1" points="508.26 1781.54 508.11 1961.19 585.8 2006.04 585.8 2006.23 585.96 2006.13 586.13 2006.23 586.13 2006.04 663.82 1961.19 663.67 1781.54 586.2 1826.36"/></clipPath><clipPath id="clip-path-406"><polygon class="cls-1" points="508.26 1781.54 585.72 1826.36 586.13 2006.23 508.11 1961.19 508.26 1781.54"/></clipPath><clipPath id="clip-path-407"><polygon class="cls-1" points="663.67 1781.54 586.2 1826.36 585.8 2006.23 663.82 1961.19 663.67 1781.54"/></clipPath><clipPath id="clip-path-408"><polygon class="cls-1" points="809.65 2102.22 809.65 1778.01 1090.47 1615.9 1090.47 1940.11 809.65 2102.22"/></clipPath><clipPath id="clip-path-409"><polygon class="cls-1" points="1104.57 1927.78 810.5 1871.3 810.34 1967.81 856.64 2087.46 1104.57 1927.78"/></clipPath><clipPath id="clip-path-410"><polygon class="cls-1" points="1088.25 1633.02 753.56 1633.02 585.88 1729.96 837.09 1778.01 1088.25 1633.02"/></clipPath><clipPath id="clip-path-411"><polygon class="cls-1" points="965.25 1764.11 668.74 1781.96 675.23 1843.73 951.76 1923.15 965.25 1764.11"/></clipPath><clipPath id="clip-path-412"><path class="cls-1" d="M1008.41,1845.79c-1.84,44.11-25.41,79-52.64,77.82s-47.81-37.82-46-81.94,25.41-79,52.64-77.81,47.81,37.82,46,81.93"/></clipPath><clipPath id="clip-path-413"><polygon class="cls-1" points="837.11 1778.17 585.96 1729.96 585.8 1826.47 837.11 2067.97 837.11 1778.17"/></clipPath><clipPath id="clip-path-414"><polygon class="cls-1" points="1136.79 1583.58 1104.56 1564.93 792.31 1745.17 824.54 1763.83 1136.79 1583.58"/></clipPath><clipPath id="clip-path-415"><polygon class="cls-1" points="1136.79 1902.85 1104.56 1884.2 792.31 2064.45 824.54 2083.1 1136.79 1902.85"/></clipPath><clipPath id="clip-path-416"><polygon class="cls-1" points="792.31 2105.67 824.54 2124.33 824.54 1763.83 792.31 1745.18 792.31 2105.67"/></clipPath><clipPath id="clip-path-417"><polygon class="cls-1" points="1072.34 1902.67 1104.57 1921.33 1104.57 1622.7 1072.34 1634.58 1072.34 1902.67"/></clipPath><clipPath id="clip-path-418"><path class="cls-1" d="M1136.79,1625.12V1584l-.13.07V1584l-32.1,18.53v.07L856.64,1745.68v-.37l-32.1,18.53v360.49l280-161.65v.16l32.1-18.57v-.11l.13-.07v-41.16l-.13.07V1625.2Zm-32.23,296.4L856.64,2064.64V1786.85l247.93-143.12Z"/></clipPath><clipPath id="clip-path-419"><polygon class="cls-1" points="753.96 1632.94 641.87 1568.36 473.89 1665.32 585.88 1729.96 753.96 1632.94"/></clipPath><clipPath id="clip-path-420"><polygon class="cls-1" points="474 1665.66 585.94 1729.99 586.13 1826.47 473.79 1762.12 474 1665.66"/></clipPath><clipPath id="clip-path-421"><polygon class="cls-1" points="1269.68 1847.54 1271.36 1783.66 1176.53 1840.41 1178.49 1765.81 1320.25 1699.56 1318.8 1754.58 1450.83 1703 1269.68 1847.54"/></clipPath><clipPath id="clip-path-422"><polygon class="cls-1" points="1016.47 2133.83 1080.36 2135.51 1023.59 2040.69 1098.21 2042.66 1164.48 2184.4 1109.44 2182.95 1161.03 2314.96 1016.47 2133.83"/></clipPath><clipPath id="clip-path-423"><polygon class="cls-1" points="1269.68 1937.64 1271.36 2001.52 1176.53 1944.76 1178.49 2019.37 1320.25 2085.62 1318.8 2030.6 1450.83 2082.18 1269.68 1937.64"/></clipPath></defs><title>ilustracoes_caixa_am5SVG</title><g class="cls-4"><g class="cls-5"><rect class="cls-6" x="440.45" y="227.31" width="1042.23" height="697.44"/></g></g><g class="cls-7"><g class="cls-5"><rect class="cls-8" x="440.45" y="511.29" width="550.36" height="413.46"/></g></g><g class="cls-9"><g class="cls-5"><g class="cls-10"><g class="cls-11"><g class="cls-12"><g class="cls-11"><rect class="cls-13" x="932.32" y="511.29" width="550.36" height="413.46"/></g></g></g></g></g></g><g class="cls-14"><g class="cls-5"><rect class="cls-15" x="747.87" y="262.8" width="304.42" height="413.46"/></g></g><g class="cls-16"><g class="cls-5"><rect class="cls-17" x="993.81" y="250.57" width="242.94" height="425.67"/></g></g><g class="cls-18"><g class="cls-5"><rect class="cls-19" x="731.1" y="103.03" width="422.15" height="385.21"/></g></g><g class="cls-20"><g class="cls-5"><rect class="cls-21" x="1055.25" y="404.79" width="120.01" height="235.98"/></g></g><g class="cls-22"><g class="cls-5"><rect class="cls-23" x="901.58" y="422.41" width="119.97" height="164.98"/></g></g><g class="cls-24"><g class="cls-5"><rect class="cls-23" x="778.84" y="351.55" width="119.97" height="164.98"/></g></g><g class="cls-25"><g class="cls-5"><g class="cls-10"><g class="cls-26"><g class="cls-27"><g class="cls-28"><rect class="cls-15" x="868.16" y="220.78" width="103.26" height="155.75"/></g></g><g class="cls-29"><g class="cls-28"><rect class="cls-17" x="912.93" y="221.21" width="103.26" height="155.32"/></g></g><g class="cls-30"><g class="cls-28"><rect class="cls-31" x="868.16" y="194.99" width="148.04" height="110.13"/></g></g><g class="cls-32"><g class="cls-28"><rect class="cls-13" x="1219.11" y="404.79" width="202.09" height="130.29"/></g></g><g class="cls-33"><g class="cls-28"><rect class="cls-34" x="1204.12" y="446.97" width="137.51" height="98"/></g></g><g class="cls-35"><g class="cls-28"><rect class="cls-13" x="799.27" y="629.06" width="287.2" height="122.38"/></g></g><g class="cls-36"><g class="cls-28"><rect class="cls-37" x="719.51" y="470.29" width="181.8" height="120.14"/></g></g><g class="cls-38"><g class="cls-28"><rect class="cls-19" x="1055.25" y="546.76" width="243.01" height="165"/></g></g><g class="cls-39"><g class="cls-28"><rect class="cls-40" x="1178.26" y="617.76" width="120.01" height="165"/></g></g></g></g></g></g><g class="cls-41"><g class="cls-5"><rect class="cls-42" x="522.36" y="548.06" width="238.64" height="272.4"/></g></g><g class="cls-43"><g class="cls-5"><rect class="cls-44" x="580.73" y="345.82" width="152.6" height="125.51"/></g></g><g class="cls-45"><g class="cls-5"><rect class="cls-44" x="678.91" y="345.93" width="61.21" height="58.56"/></g></g><g class="cls-46"><g class="cls-5"><rect class="cls-44" x="674.89" y="370.42" width="61.9" height="58.76"/></g></g><g class="cls-47"><g class="cls-5"><rect class="cls-44" x="674.83" y="345.82" width="62.57" height="58.82"/></g></g><g class="cls-48"><g class="cls-5"><rect class="cls-44" x="678.06" y="370.51" width="59.89" height="58.53"/></g></g><g class="cls-49"><g class="cls-5"><rect class="cls-44" x="581.16" y="370.42" width="152.21" height="100.91"/></g></g><g class="cls-50"><g class="cls-5"><rect class="cls-44" x="679.8" y="345.95" width="96.3" height="68.08"/></g></g><g class="cls-51"><g class="cls-5"><rect class="cls-40" x="581.2" y="345.83" width="194.83" height="125.41"/></g></g><g class="cls-52"><g class="cls-5"><rect class="cls-19" x="508.01" y="345.82" width="194.94" height="125.51"/></g></g><g class="cls-53"><g class="cls-5"><rect class="cls-54" x="451.24" y="355.38" width="124.94" height="236.92"/></g></g><g class="cls-55"><g class="cls-5"><rect class="cls-56" x="527.98" y="271.89" width="78.36" height="109.45"/></g></g><g class="cls-57"><g class="cls-5"><rect class="cls-58" x="678.02" y="271.89" width="78.36" height="109.45"/></g></g><g class="cls-59"><g class="cls-5"><rect class="cls-19" x="527.84" y="339.24" width="143.58" height="267.31"/></g></g><g class="cls-60"><g class="cls-5"><rect class="cls-40" x="612.44" y="339.24" width="143.58" height="267.31"/></g></g><g class="cls-61"><g class="cls-5"><rect class="cls-62" x="582.76" y="355.64" width="118.84" height="92.45"/></g></g><g class="cls-63"><g class="cls-5"><rect class="cls-64" x="582.76" y="334.47" width="118.84" height="100.3"/></g></g><g class="cls-65"><g class="cls-5"><rect class="cls-54" x="524.02" y="267.93" width="85.52" height="85.52"/></g></g><g class="cls-66"><g class="cls-5"><rect class="cls-62" x="674.82" y="267.93" width="85.52" height="85.52"/></g></g><g class="cls-67"><g class="cls-5"><rect class="cls-62" x="599.55" y="183.32" width="147.27" height="239.41"/></g></g><g class="cls-68"><g class="cls-5"><rect class="cls-54" x="537.94" y="183.34" width="144.42" height="239.38"/></g></g><g class="cls-69"><g class="cls-5"><rect class="cls-70" x="580.07" y="256.64" width="69.85" height="69.85"/></g></g><g class="cls-71"><g class="cls-5"><rect class="cls-70" x="636.75" y="256.64" width="69.85" height="69.85"/></g></g><g class="cls-72"><g class="cls-5"><rect class="cls-64" x="642.22" y="281.45" width="83.48" height="71.13"/></g></g><g class="cls-73"><g class="cls-5"><rect class="cls-62" x="561.38" y="281.45" width="83.48" height="71.13"/></g></g><g class="cls-74"><g class="cls-5"><rect class="cls-64" x="607.47" y="292.95" width="80.98" height="63.92"/></g></g><g class="cls-75"><g class="cls-5"><rect class="cls-54" x="675.41" y="510.16" width="102.41" height="96.39"/></g></g><g class="cls-76"><g class="cls-5"><rect class="cls-58" x="594.98" y="172.82" width="163.47" height="167.12"/></g></g><g class="cls-77"><g class="cls-5"><rect class="cls-56" x="526.31" y="166.84" width="214.23" height="173.09"/></g></g><g class="cls-78"><g class="cls-5"><rect class="cls-56" x="537.98" y="281.45" width="209.21" height="141.27"/></g></g><g class="cls-79"><g class="cls-5"><rect class="cls-80" x="578.14" y="312.37" width="128.08" height="93.28"/></g></g><g class="cls-81"><g class="cls-5"><rect class="cls-54" x="678.51" y="355.55" width="153.93" height="236.76"/></g></g><g class="cls-82"><g class="cls-5"><rect class="cls-64" x="586.84" y="278.42" width="61.9" height="61.9"/></g></g><g class="cls-83"><g class="cls-5"><rect class="cls-64" x="573.17" y="272.95" width="61.9" height="61.9"/></g></g><g class="cls-84"><g class="cls-5"><rect class="cls-64" x="597.78" y="272.95" width="61.9" height="61.9"/></g></g><g class="cls-85"><g class="cls-5"><rect class="cls-64" x="575.91" y="281.15" width="61.9" height="61.9"/></g></g><g class="cls-86"><g class="cls-5"><rect class="cls-64" x="567.71" y="286.62" width="61.9" height="61.9"/></g></g><g class="cls-87"><g class="cls-5"><rect class="cls-64" x="592.31" y="286.62" width="61.9" height="61.9"/></g></g><g class="cls-88"><g class="cls-5"><rect class="cls-89" x="642.15" y="278.42" width="61.9" height="61.9"/></g></g><g class="cls-90"><g class="cls-5"><rect class="cls-89" x="655.82" y="272.95" width="61.9" height="61.9"/></g></g><g class="cls-91"><g class="cls-5"><rect class="cls-89" x="631.22" y="272.95" width="61.9" height="61.9"/></g></g><g class="cls-92"><g class="cls-5"><rect class="cls-89" x="653.09" y="281.15" width="61.9" height="61.9"/></g></g><g class="cls-93"><g class="cls-5"><rect class="cls-89" x="661.29" y="286.62" width="61.9" height="61.9"/></g></g><g class="cls-94"><g class="cls-5"><rect class="cls-89" x="636.68" y="286.62" width="61.9" height="61.9"/></g></g><g class="cls-95"><g class="cls-5"><rect class="cls-96" x="522.36" y="548.06" width="148.56" height="272.4"/></g></g><g class="cls-97"><g class="cls-5"><rect class="cls-42" x="612.44" y="548.06" width="148.56" height="272.4"/></g></g><g class="cls-98"><g class="cls-5"><rect class="cls-99" x="520.07" y="756.11" width="128.05" height="80.06"/></g></g><g class="cls-100"><g class="cls-5"><rect class="cls-101" x="635.24" y="756.11" width="128.05" height="80.06"/></g></g><g class="cls-102"><g class="cls-5"><rect class="cls-54" x="505.86" y="510.16" width="102.41" height="96.39"/></g></g><g class="cls-103"><g class="cls-5"><g class="cls-10"><g class="cls-104"><g class="cls-105"><g class="cls-104"><rect class="cls-106" x="1215.19" y="198.79" width="151.11" height="239.72"/></g></g></g></g></g></g><g class="cls-107"><g class="cls-5"><g class="cls-10"><g class="cls-108"><g class="cls-109"><g class="cls-108"><rect class="cls-110" x="1303.86" y="198.79" width="151.09" height="239.77"/></g></g></g></g></g></g><g class="cls-111"><g class="cls-5"><rect class="cls-42" x="1222.31" y="561.38" width="225.33" height="256.6"/></g></g><g class="cls-112"><g class="cls-5"><rect class="cls-113" x="1222.31" y="561.38" width="141.91" height="256.6"/></g></g><g class="cls-114"><g class="cls-5"><rect class="cls-115" x="1305.73" y="561.38" width="141.91" height="256.6"/></g></g><g class="cls-116"><g class="cls-5"><rect class="cls-99" x="1220.19" y="754.05" width="122.91" height="78.47"/></g></g><g class="cls-117"><g class="cls-5"><rect class="cls-101" x="1326.85" y="754.05" width="122.91" height="78.47"/></g></g><g class="cls-118"><g class="cls-5"><rect class="cls-110" x="1280.71" y="198.79" width="174.23" height="239.76"/></g></g><g class="cls-119"><g class="cls-5"><rect class="cls-106" x="1188.48" y="302.67" width="155.97" height="146.48"/></g></g><g class="cls-120"><g class="cls-5"><rect class="cls-110" x="1325.55" y="302.67" width="155.97" height="146.48"/></g></g><g class="cls-121"><g class="cls-5"><rect class="cls-122" x="1156.45" y="456.67" width="116.32" height="150.03"/></g></g><g class="cls-123"><g class="cls-5"><rect class="cls-54" x="1268.11" y="377.9" width="125.33" height="117.06"/></g></g><g class="cls-124"><g class="cls-5"><rect class="cls-125" x="1156.95" y="374.55" width="174.31" height="140.6"/></g></g><g class="cls-126"><g class="cls-5"><rect class="cls-127" x="1305.36" y="368.47" width="137.09" height="251.4"/></g></g><g class="cls-128"><g class="cls-5"><rect class="cls-54" x="1298.5" y="399.82" width="91.81" height="99.42"/></g></g><g class="cls-129"><g class="cls-5"><rect class="cls-127" x="1311.16" y="368.88" width="225.54" height="103.63"/></g></g><g class="cls-130"><g class="cls-5"><rect class="cls-125" x="1227.22" y="368.47" width="137.09" height="251.4"/></g></g><g class="cls-131"><g class="cls-5"><rect class="cls-127" x="1256.67" y="371.91" width="107.64" height="187.31"/></g></g><g class="cls-132"><g class="cls-5"><rect class="cls-133" x="1305.82" y="371.91" width="107.64" height="187.31"/></g></g><g class="cls-134"><g class="cls-5"><rect class="cls-135" x="1277.95" y="383.62" width="114.24" height="89.86"/></g></g><g class="cls-136"><g class="cls-5"><rect class="cls-137" x="1277.95" y="364.06" width="114.24" height="97.11"/></g></g><g class="cls-138"><g class="cls-5"><rect class="cls-122" x="1223.68" y="302.6" width="83.46" height="83.46"/></g></g><g class="cls-139"><g class="cls-5"><rect class="cls-135" x="1362.99" y="302.6" width="83.46" height="83.46"/></g></g><g class="cls-140"><g class="cls-5"><rect class="cls-135" x="1293.46" y="224.44" width="140.5" height="225.62"/></g></g><g class="cls-141"><g class="cls-5"><rect class="cls-122" x="1236.54" y="224.45" width="137.87" height="225.59"/></g></g><g class="cls-142"><g class="cls-5"><rect class="cls-110" x="1275.47" y="292.17" width="68.99" height="68.99"/></g></g><g class="cls-143"><g class="cls-5"><rect class="cls-110" x="1327.82" y="292.17" width="68.99" height="68.99"/></g></g><g class="cls-144"><g class="cls-5"><rect class="cls-137" x="1332.87" y="315.09" width="81.58" height="70.17"/></g></g><g class="cls-145"><g class="cls-5"><rect class="cls-135" x="1258.2" y="315.09" width="81.58" height="70.17"/></g></g><g class="cls-146"><g class="cls-5"><rect class="cls-137" x="1300.77" y="325.71" width="79.27" height="63.5"/></g></g><g class="cls-147"><g class="cls-5"><rect class="cls-122" x="1206.91" y="526.37" width="94.96" height="93.5"/></g></g><g class="cls-148"><g class="cls-5"><rect class="cls-122" x="1239.28" y="526.37" width="66.69" height="66.69"/></g></g><g class="cls-149"><g class="cls-5"><rect class="cls-122" x="1467.64" y="268.58" width="125.42" height="182.13"/></g></g><g class="cls-150"><g class="cls-5"><rect class="cls-122" x="1497.65" y="248.53" width="66.9" height="102.05"/></g></g><g class="cls-151"><g class="cls-5"><rect class="cls-135" x="1494.7" y="282.89" width="91.16" height="74.53"/></g></g><g class="cls-152"><g class="cls-5"><rect class="cls-80" x="1273.68" y="343.65" width="122.78" height="90.63"/></g></g><g class="cls-153"><g class="cls-5"><rect class="cls-106" x="1220.64" y="216.28" width="144.65" height="149.33"/></g></g><g class="cls-154"><g class="cls-5"><rect class="cls-110" x="1304.84" y="215.04" width="144.65" height="150.57"/></g></g></svg>