<svg id="Layer_1" data-name="Layer 1" xmlns="http://www.w3.org/2000/svg" xmlns:xlink="http://www.w3.org/1999/xlink" viewBox="0 0 1920 1080"><defs><style>.cls-1{fill:none;}.cls-2{fill:#733791;}.cls-3{fill:#500778;}.cls-4{fill:#400666;}.cls-5{fill:#603913;}.cls-6{clip-path:url(#clip-path);}.cls-7{fill:#49280c;}.cls-8{fill:#754c29;}.cls-9{clip-path:url(#clip-path-2);}.cls-10{fill:#8b5e3c;}.cls-11{fill:#ff9141;}.cls-12{fill:#64c8c3;}.cls-13{fill:#ff6d00;}.cls-14{fill:#00a499;}</style><clipPath id="clip-path"><polygon class="cls-1" points="975.46 688.44 713.87 537.41 713.87 310.86 975.46 461.89 975.46 688.44"/></clipPath><clipPath id="clip-path-2"><polygon class="cls-1" points="1082.85 297.85 975.46 461.87 975.46 688.42 1171.66 575.14 1171.66 348.62 1082.85 297.85"/></clipPath></defs><title>ilustracoes_caixa_am5SVG</title><polygon class="cls-2" points="960 256.5 469.09 539.93 469.09 610.79 960 894.21 1450.91 610.79 1450.91 539.93 960 256.5"/><polygon class="cls-3" points="960 894.21 469.09 610.79 469.09 539.93 960 823.36 960 894.21"/><polygon class="cls-4" points="960 894.21 1450.91 610.79 1450.91 539.93 960 823.36 960 894.21"/><polygon class="cls-2" points="975.46 688.44 713.87 537.41 713.87 310.86 975.46 461.89 975.46 688.44"/><polygon class="cls-5" points="975.46 688.44 713.87 537.41 713.87 310.86 975.46 461.89 975.46 688.44"/><g class="cls-6"><polygon class="cls-5" points="975.46 688.44 713.87 537.41 713.87 497.23 975.46 648.26 975.46 688.44"/><polygon class="cls-7" points="975.46 608.44 713.87 457.41 713.87 415.2 975.46 566.23 975.46 608.44"/><polygon class="cls-8" points="975.46 525.27 713.87 374.24 713.87 332.03 975.46 483.06 975.46 525.27"/><polygon class="cls-7" points="975.46 482.94 713.87 331.91 713.87 289.7 975.46 440.73 975.46 482.94"/><polygon class="cls-8" points="975.46 648.61 713.87 497.57 713.87 455.37 975.46 606.4 975.46 648.61"/><polygon class="cls-5" points="975.46 567.11 713.87 416.07 713.87 373.87 975.46 524.9 975.46 567.11"/></g><g class="cls-9"><polygon class="cls-8" points="975.46 688.42 1171.66 575.14 1171.66 533.35 975.46 646.23 975.46 688.42"/><polygon class="cls-10" points="975.46 648.2 1171.66 534.93 1171.66 493.13 975.46 606.02 975.46 648.2"/><polygon class="cls-5" points="975.46 606.2 1171.66 492.93 1171.66 451.13 975.46 564.02 975.46 606.2"/><polygon class="cls-8" points="975.46 565.98 1171.66 452.7 1171.66 410.91 975.46 523.79 975.46 565.98"/><polygon class="cls-10" points="975.46 524.68 1171.66 411.41 1171.66 369.61 975.46 482.49 975.46 524.68"/><polygon class="cls-5" points="975.46 482.79 1171.66 369.51 1171.66 327.72 975.46 440.6 975.46 482.79"/><polygon class="cls-8" points="975.46 441.02 1171.66 327.75 1171.66 285.95 975.46 398.83 975.46 441.02"/><polygon class="cls-10" points="975.46 399.35 1171.66 286.08 1171.66 244.28 975.46 357.17 975.46 399.35"/></g><polygon class="cls-11" points="696.03 337.41 811.91 140.92 1082.85 297.85 957.62 488.44 696.03 337.41"/><polygon class="cls-12" points="877.36 480.63 877.36 556.15 942.76 593.9 942.76 518.39 877.36 480.63"/><polygon class="cls-12" points="746.81 405.25 746.81 480.77 812.21 518.53 812.21 443.01 746.81 405.25"/><polygon class="cls-8" points="889.44 369.61 889.44 293.66 841.81 266.16 841.81 342.11 889.44 369.61"/><polygon class="cls-5" points="937.07 266.62 889.44 293.66 889.44 369.61 937.07 297.2 937.07 266.62"/><polygon class="cls-10" points="841.81 266.16 889.44 293.66 937.07 266.62 889.32 238.73 841.81 266.16"/><polygon class="cls-11" points="1106.26 612.9 1040.82 650.68 1171.66 726.2 1215.59 675.92 1106.26 612.9"/><polygon class="cls-13" points="1150.16 784.51 1150.16 713.7 1215.59 675.92 1215.59 746.77 1150.16 784.51"/><polygon class="cls-14" points="1040.82 650.68 1040.82 499.63 1106.26 461.89 1106.26 612.9 1040.82 650.68"/></svg>