<svg id="Layer_1" data-name="Layer 1" xmlns="http://www.w3.org/2000/svg" xmlns:xlink="http://www.w3.org/1999/xlink" viewBox="0 0 1920 1080"><defs><style>.cls-1{fill:none;}.cls-2{fill:#4187d7;}.cls-3{fill:#005fc8;}.cls-4{fill:#0039ba;}.cls-5{clip-path:url(#clip-path);}.cls-6{fill:#e1e1e1;}.cls-7{fill:#fff;}.cls-8{fill:#898d8d;}.cls-9{fill:#b9b9b9;}.cls-10{fill:#e65a00;}.cls-11{fill:#ff6d00;}.cls-12{fill:#414042;}.cls-13{fill:#58595b;}.cls-14{fill:#ff9141;}.cls-15{fill:#733791;}.cls-16{fill:#500778;}.cls-17{fill:#8c5fa5;}.cls-18{fill:#d1d1d1;}.cls-19{fill:#c1c1c1;}.cls-20{fill:#474747;}.cls-21{fill:#1f00ff;}</style><clipPath id="clip-path"><rect class="cls-1" x="985.25" y="555.93" width="325" height="322.29"/></clipPath></defs><title>ilustracoes_caixa_am5SVG</title><polygon class="cls-2" points="960 256.5 469.09 539.93 469.09 610.79 960 894.21 1450.91 610.79 1450.91 539.93 960 256.5"/><polygon class="cls-3" points="960 894.21 469.09 610.79 469.09 539.93 960 823.36 960 894.21"/><polygon class="cls-4" points="960 894.21 1450.91 610.79 1450.91 539.93 960 823.36 960 894.21"/><g class="cls-5"><path class="cls-6" d="M1220.68,762.31,1103.86,645.5a5.08,5.08,0,0,0-7.18,0l-19.15,19.15a5.08,5.08,0,0,0,0,7.18l116.81,116.81a5.08,5.08,0,0,0,7.18,0l19.15-19.15a5.08,5.08,0,0,0,0-7.18Z"/><path class="cls-6" d="M1121.1,601.46l-44-44a5.08,5.08,0,0,0-7.18,0l-19.15,19.15a5.08,5.08,0,0,0,0,7.18l32.79,32.79-34.95,34.95-32.79-32.79a5.08,5.08,0,0,0-7.18,0l-19.15,19.15a5.08,5.08,0,0,0,0,7.18l44,44a5.08,5.08,0,0,0,3.59,1.49l.46,0,42.13-3.83a5.08,5.08,0,0,0,3.13-1.47l34.47-34.47a5.08,5.08,0,0,0,1.47-3.13l3.83-42.13a5.08,5.08,0,0,0-1.47-4Z"/><path class="cls-7" d="M1091.37,603.16a5.06,5.06,0,0,1-3.59-1.49l-13.54-13.54a5.08,5.08,0,0,1,7.18-7.18L1095,594.49a5.08,5.08,0,0,1-3.59,8.67Z"/><path class="cls-6" d="M1308.76,789.12l-44-44a5.08,5.08,0,0,0-4.05-1.47l-42.13,3.83a5.07,5.07,0,0,0-3.13,1.47l-34.47,34.47a5.08,5.08,0,0,0-1.47,3.13l-3.83,42.13a5.08,5.08,0,0,0,1.47,4l44,44a5.08,5.08,0,0,0,7.18,0l19.15-19.15a5.08,5.08,0,0,0,0-7.18l-32.79-32.79,34.95-34.95,32.79,32.79a5.08,5.08,0,0,0,7.18,0l19.15-19.15a5.08,5.08,0,0,0,0-7.18Z"/></g><path class="cls-8" d="M1087.44,654.75l-9.9,9.9a5.08,5.08,0,0,0,0,7.18l116.81,116.81a5.08,5.08,0,0,0,7.18,0l9.9-9.9-124-124Z"/><path class="cls-9" d="M1066.37,633.69l-17.8,17.8-32.79-32.79a5.08,5.08,0,0,0-7.18,0l-19.15,19.15a5.08,5.08,0,0,0,0,7.18l44,44a5.08,5.08,0,0,0,3.59,1.49l.46,0,42.13-3.83a5.08,5.08,0,0,0,3.13-1.47l17.56-17.56-34-34Z"/><path class="cls-9" d="M1180.94,783.38a5.08,5.08,0,0,0-1.47,3.13l-3.83,42.13a5.08,5.08,0,0,0,1.47,4l44,44a5.08,5.08,0,0,0,7.18,0l19.15-19.15a5.08,5.08,0,0,0,0-7.18l-32.79-32.79,17.8-17.8-34-34-17.56,17.56Z"/><path class="cls-6" d="M1216.05,646.91l-15.32-15.32a5.08,5.08,0,0,0-7.18,0L1092.06,733.08a5.08,5.08,0,0,0,0,7.18l15.32,15.32a5.08,5.08,0,0,0,7.18,0l101.49-101.49a5.08,5.08,0,0,0,0-7.18Z"/><path class="cls-6" d="M1279.24,583.71l-15.32-15.32a5.08,5.08,0,0,0-5.69-1l-42.13,19.15a5.06,5.06,0,0,0-1.49,1l-32.55,32.55a5.08,5.08,0,0,0,0,7.18l38.3,38.3a5.08,5.08,0,0,0,7.18,0L1260.1,633a5.07,5.07,0,0,0,1-1.49l19.15-42.13a5.07,5.07,0,0,0-1-5.69Z"/><path class="cls-10" d="M1112.65,784.78,1062.86,735a5.08,5.08,0,0,0-7.18,0l-59.36,59.36a5.08,5.08,0,0,0,0,7.18l49.79,49.79a5.08,5.08,0,0,0,7.18,0L1112.65,792a5.08,5.08,0,0,0,0-7.18Z"/><path class="cls-11" d="M1062.86,735a5.08,5.08,0,0,0-7.18,0l-59.36,59.36a5.08,5.08,0,0,0,0,7.18L1021,826.22l66.54-66.54L1062.86,735Z"/><polygon class="cls-12" points="1084.16 756.29 1091.34 763.48 1024.8 830.02 1017.62 822.84 1084.16 756.29 1084.16 756.29"/><polygon class="cls-12" points="1097.57 769.7 1104.75 776.88 1040.12 841.51 1032.94 834.33 1097.57 769.7 1097.57 769.7"/><polygon class="cls-13" points="1070.76 742.89 1077.94 750.08 1013.31 814.7 1006.13 807.52 1070.76 742.89 1070.76 742.89"/><polygon class="cls-13" points="1017.62 822.84 1084.16 756.29 1087.54 759.67 1021 826.22 1017.62 822.84 1017.62 822.84"/><path class="cls-8" d="M1208.18,639,1099.51,747.71l7.87,7.87a5.08,5.08,0,0,0,7.18,0l101.49-101.49a5.08,5.08,0,0,0,0-7.18l-7.87-7.87Z"/><g class="cls-5"><path class="cls-9" d="M1271.38,575.84,1201,646.22l19.36,19.36a5.08,5.08,0,0,0,7.18,0L1260.1,633a5.07,5.07,0,0,0,1-1.49l19.15-42.13a5.08,5.08,0,0,0-1-5.69l-7.87-7.87Z"/><path class="cls-11" d="M1032.46,862.39a5.06,5.06,0,0,0,2.46-.64l17.23-9.57-56.69-56.69-9.57,17.23a5.08,5.08,0,0,0,.85,6.06l42.13,42.13a5.07,5.07,0,0,0,3.59,1.49Z"/><path class="cls-14" d="M995.47,795.48l-9.57,17.23a5.08,5.08,0,0,0,.85,6.06l20.86,20.86,16-16-28.14-28.14Z"/></g><path class="cls-11" d="M1089.67,723.5a5.08,5.08,0,0,0-5.59-1.08l-26.81,11.49,56.46,56.46,11.49-26.81a5.08,5.08,0,0,0-1.08-5.59l-34.47-34.47Z"/><path class="cls-14" d="M1089.67,723.5a5.08,5.08,0,0,0-5.59-1.08l-26.81,11.49,28,28,21.41-21.41-17-17Z"/><path class="cls-7" d="M1209.69,629.07a5.08,5.08,0,0,1-3.59-8.67l16.25-16.25a5.08,5.08,0,0,1,7.18,7.18l-16.25,16.25a5.06,5.06,0,0,1-3.59,1.49Z"/><path class="cls-15" d="M1224.23,295.82h-17.32a134.9,134.9,0,0,0-17-41l12.24-12.24a11,11,0,0,0,0-15.57L1174,198.87a11.05,11.05,0,0,0-15.6,0l-12.24,12.24a135.74,135.74,0,0,0-40.92-16.93V176.87a11,11,0,0,0-11-11h-39.86a11,11,0,0,0-11,11v17.32a134.89,134.89,0,0,0-41,17l-12.21-12.26a11.05,11.05,0,0,0-15.6,0l-28.19,28.19a11.05,11.05,0,0,0,0,15.6l12.26,12.24a134.38,134.38,0,0,0-17,40.92H924.42a11,11,0,0,0-11,11v39.83a11,11,0,0,0,11,11h17.32a135.19,135.19,0,0,0,17,40.92l-12.26,12.24a11.05,11.05,0,0,0,0,15.6l28.19,28.16a11,11,0,0,0,15.6,0l12.24-12.24a135.82,135.82,0,0,0,40.92,17v17.32a11,11,0,0,0,11,11h39.83a11,11,0,0,0,11-11V459.36a135.21,135.21,0,0,0,40.92-17l12.24,12.24a11,11,0,0,0,15.6,0l28.16-28.16a11,11,0,0,0,0-15.6L1190,398.64a135.21,135.21,0,0,0,17-40.92h17.32a11,11,0,0,0,11-11V306.82a11,11,0,0,0-11-11Zm-149.9,86.65a55.7,55.7,0,1,1,55.7-55.7,55.69,55.69,0,0,1-55.7,55.7Zm0,0"/><path class="cls-16" d="M1074.32,246.28a80.47,80.47,0,1,0,80.45,80.49,80.48,80.48,0,0,0-80.45-80.49Zm0,136.19a55.7,55.7,0,1,1,55.7-55.7,55.69,55.69,0,0,1-55.7,55.7Zm0,0"/><path class="cls-17" d="M1350.63,255l-7.44-3.07a62.71,62.71,0,0,0,0-20.6l7.43-3.09a5.09,5.09,0,0,0,2.76-6.69l-7.1-17.11a5.14,5.14,0,0,0-6.7-2.77l-7.43,3.09a63.1,63.1,0,0,0-14.58-14.53l3.07-7.44a5.12,5.12,0,0,0-2.78-6.7L1300.71,169a5.12,5.12,0,0,0-6.68,2.79l-3.07,7.44a62.7,62.7,0,0,0-20.6,0l-3.07-7.43a5.14,5.14,0,0,0-6.7-2.77l-17.11,7.11a5.14,5.14,0,0,0-2.77,6.7l3.1,7.43a62.46,62.46,0,0,0-14.54,14.57l-7.44-3.07a5.12,5.12,0,0,0-6.7,2.78l-7.07,17.11a5.12,5.12,0,0,0,2.78,6.7l7.44,3.07a62.84,62.84,0,0,0,0,20.59l-7.44,3.08a5.14,5.14,0,0,0-2.77,6.7l7.12,17.1a5.11,5.11,0,0,0,6.7,2.77l7.43-3.09a63.13,63.13,0,0,0,14.57,14.55l-3.07,7.44a5.13,5.13,0,0,0,2.78,6.7l17.11,7.07a5.13,5.13,0,0,0,6.7-2.78l3.07-7.44a62.85,62.85,0,0,0,20.59,0l3.09,7.43a5.11,5.11,0,0,0,6.7,2.77l17.1-7.1a5.11,5.11,0,0,0,2.77-6.7l-3.09-7.43a62.85,62.85,0,0,0,14.55-14.57l7.44,3.07a5.13,5.13,0,0,0,6.7-2.78l7.07-17.13a5.13,5.13,0,0,0-2.79-6.68Zm-79.78,10.64a25.89,25.89,0,1,1,33.81-14.05,25.89,25.89,0,0,1-33.81,14.05Zm0,0"/><path class="cls-15" d="M1295,207.09a37.4,37.4,0,1,0,20.29,48.85A37.41,37.41,0,0,0,1295,207.09Zm-24.16,58.51a25.89,25.89,0,1,1,33.81-14.05,25.89,25.89,0,0,1-33.81,14.05Zm0,0"/><polygon class="cls-9" points="781.14 395.39 781.12 571.22 933.76 483.51 933.76 307.21 781.14 395.39"/><polygon class="cls-18" points="762.9 561.49 781.12 571.22 781.12 458.69 762.9 477.44 762.9 561.49"/><polygon class="cls-18" points="765.03 561.43 828.29 599.98 828.21 577.65 771.71 544.98 765.03 561.43"/><polygon class="cls-19" points="980.47 489.97 933.23 462.97 781.12 550.96 827.98 577.65 980.47 489.97"/><polygon class="cls-9" points="827.98 577.65 980.47 489.97 980.47 514.37 828.29 599.98 827.98 577.65"/><path class="cls-9" d="M627.63,260.07l-.78,277.61c0,12.64,4.27,14.9,18.51,26.25L673.9,581l81.52-121.17,130.44-74.75L632.27,244.67A27.86,27.86,0,0,0,627.63,260.07Z"/><path class="cls-6" d="M962.07,325.28V152.69l63.38-94.21L999.6,43.64q-1-.64-2.08-1.2h0a27.57,27.57,0,0,0-26.79.65L641.5,236a27.84,27.84,0,0,0-9.23,8.7L885.85,385.11l62.21-35.65A27.87,27.87,0,0,0,962.07,325.28Z"/><path class="cls-20" d="M1038.82,82.26A27.87,27.87,0,0,0,997,58.16l-325.32,189a27.87,27.87,0,0,0-13.87,24.1V517.6l381.06-220.05Z"/><path class="cls-21" d="M677.75,468V268.43a11.36,11.36,0,0,1,5.65-9.82L1001.76,73.68a11.36,11.36,0,0,1,17.07,9.82v202a11.36,11.36,0,0,1-5.71,9.86L694.76,477.81A11.36,11.36,0,0,1,677.75,468Z"/><path class="cls-6" d="M699.49,579.95l325.32-186.43a27.87,27.87,0,0,0,14-24.18V297.55L657.76,517.6v38.16A27.87,27.87,0,0,0,699.49,579.95Z"/><polygon class="cls-7" points="933.76 195.01 713.73 322.34 713.73 328.34 933.76 201.01 933.76 195.01"/><polygon class="cls-7" points="933.76 178 713.73 305.34 713.73 311.34 933.76 184 933.76 178"/><polygon class="cls-7" points="860.73 202.84 713.73 288.33 713.73 294.33 860.73 208.84 860.73 202.84"/><polygon class="cls-7" points="860.73 275.73 713.73 361.22 713.73 367.22 860.73 281.73 860.73 275.73"/><polygon class="cls-7" points="946.23 241.67 713.73 376.72 713.73 382.72 946.23 247.67 946.23 241.67"/><polygon class="cls-7" points="927.73 266.84 713.73 392.22 713.73 398.22 927.73 272.84 927.73 266.84"/><polygon class="cls-7" points="908.23 294.55 713.73 407.72 713.73 413.72 908.23 300.55 908.23 294.55"/><polygon class="cls-7" points="946.23 288.33 713.73 423.21 713.73 429.21 946.23 294.33 946.23 288.33"/></svg>