<svg id="Layer_1" data-name="Layer 1" xmlns="http://www.w3.org/2000/svg" viewBox="0 0 1920 1080"><defs><style>.cls-1{fill:#4187d7;}.cls-2{fill:#005fc8;}.cls-3{fill:#0039ba;}.cls-4{fill:#b9b9b9;}.cls-5{fill:#d1d1d1;}.cls-6{fill:#c1c1c1;}.cls-7{fill:#e1e1e1;}.cls-8{fill:#474747;}.cls-9{fill:#64c8c3;}.cls-10{fill:#4c2218;}.cls-11{fill:#ea3d1b;}.cls-12{fill:#d82f19;}.cls-13{fill:#8c5fa5;}.cls-14{fill:#733791;}.cls-15{fill:#ffb692;}.cls-16{fill:#500778;}.cls-17{fill:#ffa57d;}.cls-18{fill:#f99067;}.cls-19{fill:none;}.cls-20{fill:#fff;}.cls-21{fill:#ff9141;}</style></defs><title>ilustracoes_caixa_am5SVG</title><polygon class="cls-1" points="960 256.5 469.09 539.93 469.09 610.79 960 894.21 1450.91 610.79 1450.91 539.93 960 256.5"/><polygon class="cls-2" points="960 894.21 469.09 610.79 469.09 539.93 960 823.36 960 894.21"/><polygon class="cls-3" points="960 894.21 1450.91 610.79 1450.91 539.93 960 823.36 960 894.21"/><polygon class="cls-4" points="892.53 463.75 892.51 647.16 1051.74 555.67 1051.74 371.76 892.53 463.75"/><polygon class="cls-5" points="873.51 637.01 892.51 647.16 892.51 529.78 873.51 549.34 873.51 637.01"/><polygon class="cls-5" points="875.73 636.95 941.72 677.16 941.64 653.87 882.7 619.79 875.73 636.95"/><polygon class="cls-6" points="1100.46 562.41 1051.18 534.24 892.51 626.03 941.4 653.87 1100.46 562.41"/><polygon class="cls-4" points="941.4 653.87 1100.46 562.41 1100.46 587.86 941.72 677.16 941.4 653.87"/><path class="cls-4" d="M732.4,322.58l-.81,289.59c0,13.19,4.46,15.54,19.3,27.39l29.77,17.84L865.7,531l136.06-78L737.24,306.52A29.06,29.06,0,0,0,732.4,322.58Z"/><path class="cls-7" d="M1081.28,390.61v-180l66.12-98.27-27-15.47q-1.06-.67-2.17-1.25h0a28.75,28.75,0,0,0-28,.68L746.87,297.44a29,29,0,0,0-9.63,9.08L1001.77,453l64.89-37.19A29.07,29.07,0,0,0,1081.28,390.61Z"/><path class="cls-8" d="M1161.34,137.11A29.07,29.07,0,0,0,1117.66,112L778.31,309.1a29.07,29.07,0,0,0-14.47,25.14v257l397.5-229.55Z"/><path class="cls-9" d="M784.69,539.44V331.31a11.85,11.85,0,0,1,5.9-10.25l332.09-192.91a11.85,11.85,0,0,1,17.81,10.25V349.13a11.85,11.85,0,0,1-6,10.28L802.43,549.73A11.85,11.85,0,0,1,784.69,539.44Z"/><path class="cls-7" d="M807.36,656.26l339.35-194.48a29.07,29.07,0,0,0,14.62-25.22V361.68L763.84,591.23V631A29.07,29.07,0,0,0,807.36,656.26Z"/><path class="cls-10" d="M1078.22,157a97,97,0,0,0-97-97c-.71,0-1.4,0-2.1.05L954.29,141.7,979.07,254c.7,0,1.4.05,2.1.05A97,97,0,0,0,1078.22,157Z"/><path class="cls-11" d="M885.16,171.18s4.81,57.94-29.62,65.73c0,0,32,46.16,104.37,20.94L949.5,209.1Z"/><path class="cls-12" d="M1077,171.18s-4.81,57.94,29.62,65.73c0,0-32,46.16-104.37,20.94l10.42-48.76Z"/><path class="cls-13" d="M980.68,263.14l.25-.14-38-21.37s-21.62,77.11-35.67,145.66h0s-.76,3.47-1.89,9.39c-3.68,18.73-6.69,36.51-8.38,51.5h.71a366.42,366.42,0,0,0-2.22,48.69l85.17-48.81Z"/><path class="cls-14" d="M980.93,263l.25.14V447.78l76.67-43.94c-13.65-72-38.94-162.2-38.94-162.2Z"/><polygon class="cls-14" points="981.17 447.78 980.68 448.06 980.68 448.18 981.17 448.18 981.17 448.18 981.17 447.78"/><polygon class="cls-14" points="980.68 448.06 981.17 447.78 981.17 263.14 980.93 263 980.68 263.14 980.68 448.06"/><path class="cls-15" d="M821.78,336.07a99.35,99.35,0,0,0-.54,10.31,98.2,98.2,0,0,0,54,87.71l7.9-23.39a73.7,73.7,0,0,1-36.85-74.63H821.78Z"/><path class="cls-13" d="M919.47,248.15a98.24,98.24,0,0,0-97.69,87.92h24.53a73.77,73.77,0,0,1,94.48-60.41l5-23.93A98.23,98.23,0,0,0,919.47,248.15Z"/><path class="cls-15" d="M990,275.2a98.07,98.07,0,0,0-16.63,26.42L992.91,319a73.44,73.44,0,0,1,15.61-28.09c.16-.18.34-.35.5-.53l-22.12-3.91Z"/><path class="cls-14" d="M1110.93,251.29c-20.57-4.95-40.36-11.58-61.84-8.36a97.82,97.82,0,0,0-58.76,31.84l-.37.43-3.07,11.3,22.12,3.91a74.4,74.4,0,0,1,58.32-24.13c24.28,1.17,45.46,13.11,70.52,9.34a98.29,98.29,0,0,0,27.9-8.56l-11.32-21.64A74.43,74.43,0,0,1,1110.93,251.29Z"/><path class="cls-14" d="M951.33,257.86h6.78l-8.61-12.54-21,14.9,24.33,15-3.38,24.68,31.68,83.37v-91.8C964.66,287.84,951.33,257.86,951.33,257.86Z"/><path class="cls-16" d="M1011,257.86h-6.78l8.61-12.54,21,14.9-24.33,15,3.38,24.68-31.68,83.37v-91.8C997.68,287.84,1011,257.86,1011,257.86Z"/><path class="cls-11" d="M884.13,157a97,97,0,0,0,94.94,97L983.3,79.42,980.59,60l-1.52.06A97,97,0,0,0,884.13,157Z"/><path class="cls-12" d="M1078.22,157a97,97,0,0,0-97-97c-.71,0-.35,0-1.05,0V79.49l-1.05,62.21V254c.7,0,1.4.05,2.1.05A97,97,0,0,0,1078.22,157Z"/><path class="cls-17" d="M981.17,257.86H951.33s13.34,30,29.85,33.59c16.51-3.61,29.85-33.59,29.85-33.59Z"/><path class="cls-18" d="M981.17,236.92l-29.85,20.94s15.71,20.41,29.85,20.41c4.34,0,19.48-6.56,29.85-20.41Z"/><circle class="cls-15" cx="906.6" cy="184.48" r="13.37" transform="translate(135.09 695.09) rotate(-45)"/><circle class="cls-17" cx="1055.75" cy="184.48" r="13.37" transform="translate(178.78 800.56) rotate(-45)"/><path class="cls-17" d="M996.32,263.16c20.69-7.15,42.19-17.64,52.13-37.15,6.86-13.48,7.11-29.23,7.26-44.36.1-10.89.19-22-1.45-32.67a79.65,79.65,0,0,0-3.8-15.24c-6.81-18.71-22.24-33.92-40.77-41.19a76.19,76.19,0,0,0-28.51-5.13L967.94,202.73l13.24,63.61c.33,0,.67,0,1,0C987,266.25,991.73,264.75,996.32,263.16Z"/><path class="cls-15" d="M951.79,93.4c-13.86,5.67-26.3,15.37-33.91,28.27-10.28,17.44-11,38.73-10.88,59,.08,18.45.88,39,12.78,54.11s33.06,25.09,51.17,29.89a44,44,0,0,0,10.62,1.7l-5.41-65.08L992,195.87,981.58,87.44h0A80.91,80.91,0,0,0,951.79,93.4Z"/><circle class="cls-10" cx="954.29" cy="165.56" r="5.62"/><circle class="cls-10" cx="1010.35" cy="165.56" r="5.62"/><ellipse class="cls-18" cx="1022.5" cy="190.73" rx="12.36" ry="6.25"/><ellipse class="cls-18" cx="942.55" cy="190.73" rx="12.36" ry="6.25"/><polygon class="cls-18" points="975.77 201.22 998.02 201.22 991.6 195.85 975.77 201.22"/><path class="cls-15" d="M883.16,410.69h31.15v8.74H901.19L897,448.18s-14.83-2.14-21.75-14.09Z"/><circle class="cls-15" cx="914.32" cy="415.08" r="4.39"/><path class="cls-17" d="M1225,160.84a19.76,19.76,0,1,0-35.18,4.52h0l0,.07.1.15,7,10.37a73.56,73.56,0,0,1-42.58,69.47l11.32,21.64a97.87,97.87,0,0,0,30.86-23.28c17.61-19.79,24.69-43.3,23.69-67.83l4.73-15.11Z"/><path class="cls-17" d="M1191.07,113.22a4.51,4.51,0,0,0-4.51,4.51v42.14h9V117.72A4.51,4.51,0,0,0,1191.07,113.22Z"/><path class="cls-18" d="M1212.95,150h-27.46a1.63,1.63,0,0,0-1.6,1.28,23.57,23.57,0,0,0-.49,4.72,27.51,27.51,0,0,0,1.22,8.12c1.71,5.46,9.86,3,10-2.7h0a1.62,1.62,0,0,1,1.62-1.6h16.7v-.08h0c3,0,5.44-1.85,5.44-4.85S1216,150,1212.95,150Z"/><path class="cls-19" d="M1025.2,79.42a30.43,30.43,0,0,1-1,4.27A18.85,18.85,0,0,0,1025.2,79.42Z"/><path class="cls-20" d="M981.17,249.48a34.42,34.42,0,0,0,34.42-34.42H946.76A34.42,34.42,0,0,0,981.17,249.48Z"/><path class="cls-11" d="M982.23,125.24S958.12,157,890.84,176c0,0-16.22-107.57,91.39-96.46Z"/><path class="cls-12" d="M980.12,125.24s24.1,31.76,91.39,50.71c0,0,16.22-108.9-91.39-97.79Z"/><path class="cls-21" d="M1222.19,794q0-17.9,4.77-30.43t16.11-23.27q16.7-16.11,30.73-28T1298,689.89a116,116,0,0,0,15.81-19.69,36.56,36.56,0,0,0,5.67-19.39q0-19.69-12.23-30.73t-30.73-11q-28.05,0-42.66,15.51t-16.41,37.59l-91.88-6q6.56-63.23,46.54-96.36t102.62-33.11a174.22,174.22,0,0,1,51.61,7.46A127,127,0,0,1,1369,556.54a107.09,107.09,0,0,1,29.24,37q10.74,22.08,10.74,50.71a126.73,126.73,0,0,1-3.58,31.32,97.14,97.14,0,0,1-12.23,27.74,161.65,161.65,0,0,1-22.67,27.74,383.3,383.3,0,0,1-35.5,30.73q-13.73,10.74-18.5,20.88a47.23,47.23,0,0,0-4.77,20.29v17.3h-89.49ZM1212,908.56a55.85,55.85,0,0,1,4.18-21.48,52.76,52.76,0,0,1,29.23-29.24,57.33,57.33,0,0,1,43,0,52.76,52.76,0,0,1,29.23,29.24,57.3,57.3,0,0,1,0,43,52.76,52.76,0,0,1-29.23,29.24,57.32,57.32,0,0,1-43,0A52.76,52.76,0,0,1,1216.22,930,55.78,55.78,0,0,1,1212,908.56Z"/></svg>