<svg id="Layer_1" data-name="Layer 1" xmlns="http://www.w3.org/2000/svg" viewBox="0 0 1920 1080"><defs><style>.cls-1{fill:#733791;}.cls-2{fill:#fff;}.cls-3{fill:#005fc8;}.cls-4{fill:#4187d7;}.cls-5{fill:#500778;}.cls-6{fill:#400666;}.cls-7{fill:#b9b9b9;}.cls-8{fill:#d1d1d1;}.cls-9{fill:#c1c1c1;}.cls-10{fill:#e1e1e1;}.cls-11{fill:#474747;}.cls-12{fill:#64c8c3;}.cls-13{fill:#e65a00;}.cls-14{fill:#ff9141;}.cls-15{fill:#00a499;}.cls-16{fill:#f9f9f9;}.cls-17{fill:#e2e2e2;}.cls-18{fill:#898d8d;}</style></defs><title>ilustracoes_caixa_am5SVG</title><polygon class="cls-1" points="960 256.5 469.09 539.93 469.09 610.79 960 894.21 1450.91 610.79 1450.91 539.93 960 256.5"/><polygon class="cls-2" points="1227.18 540.8 1227.18 601.97 1327.29 544.08 1327.29 518.91 1227.18 540.8"/><polygon class="cls-3" points="1227.18 601.97 1227.18 540.8 1068.46 485.1 1068.46 510.39 1227.18 601.97"/><polygon class="cls-3" points="1227.18 576.8 1333.08 515.66 1333.08 507.89 1068.46 477.33 1068.46 485.1 1227.18 576.8"/><polygon class="cls-3" points="1227.18 601.97 1333.08 540.83 1333.08 533.67 1227.18 594.7 1227.18 601.97"/><polygon class="cls-4" points="1227.18 569.03 1333.08 507.89 1174.16 416.14 1068.46 477.33 1227.18 569.03"/><polygon class="cls-5" points="960 894.21 469.09 610.79 469.09 539.93 960 823.36 960 894.21"/><polygon class="cls-6" points="960 894.21 1450.91 610.79 1450.91 539.93 960 823.36 960 894.21"/><polygon class="cls-7" points="781.14 395.39 781.12 571.22 933.76 483.51 933.76 307.21 781.14 395.39"/><polygon class="cls-8" points="762.9 561.49 781.12 571.22 781.12 458.69 762.9 477.44 762.9 561.49"/><polygon class="cls-8" points="765.03 561.43 828.29 599.98 828.21 577.65 771.71 544.98 765.03 561.43"/><polygon class="cls-9" points="980.47 489.97 933.23 462.97 781.12 550.96 827.98 577.65 980.47 489.97"/><polygon class="cls-7" points="827.98 577.65 980.47 489.97 980.47 514.37 828.29 599.98 827.98 577.65"/><path class="cls-7" d="M627.63,260.07l-.78,277.61c0,12.64,4.27,14.9,18.51,26.25L673.9,581l81.52-121.17,130.44-74.75L632.27,244.67A27.86,27.86,0,0,0,627.63,260.07Z"/><path class="cls-10" d="M962.07,325.28V152.69l63.38-94.21L999.6,43.64q-1-.64-2.08-1.2h0a27.57,27.57,0,0,0-26.79.65L641.5,236a27.84,27.84,0,0,0-9.23,8.7L885.85,385.11l62.21-35.65A27.87,27.87,0,0,0,962.07,325.28Z"/><path class="cls-11" d="M1038.82,82.26A27.87,27.87,0,0,0,997,58.16l-325.32,189a27.87,27.87,0,0,0-13.87,24.1V517.6l381.06-220.05Z"/><path class="cls-12" d="M677.75,468V268.43a11.36,11.36,0,0,1,5.65-9.82L1001.76,73.68a11.36,11.36,0,0,1,17.07,9.82v202a11.36,11.36,0,0,1-5.71,9.86L694.76,477.81A11.36,11.36,0,0,1,677.75,468Z"/><path class="cls-10" d="M699.49,579.95l325.32-186.43a27.87,27.87,0,0,0,14-24.18V297.55L657.76,517.6v38.16A27.87,27.87,0,0,0,699.49,579.95Z"/><polygon class="cls-2" points="1242.51 509.3 1242.51 570.47 1342.62 512.58 1342.62 487.41 1242.51 509.3"/><polygon class="cls-13" points="1242.51 570.47 1242.51 509.3 1083.79 453.6 1083.79 478.89 1242.51 570.47"/><polygon class="cls-13" points="1242.51 545.3 1348.4 484.16 1348.4 476.39 1083.79 445.83 1083.79 453.6 1242.51 545.3"/><polygon class="cls-13" points="1242.51 570.47 1348.4 509.33 1348.4 502.17 1242.51 563.2 1242.51 570.47"/><polygon class="cls-14" points="1242.51 537.53 1348.4 476.39 1189.49 384.64 1083.79 445.83 1242.51 537.53"/><polygon class="cls-2" points="1221.23 477.57 1221.23 538.74 1321.34 480.85 1321.34 455.68 1221.23 477.57"/><polygon class="cls-15" points="1221.23 538.74 1221.23 477.57 1062.51 421.87 1062.51 447.16 1221.23 538.74"/><polygon class="cls-15" points="1221.23 513.57 1327.12 452.44 1327.12 444.67 1062.51 414.1 1062.51 421.87 1221.23 513.57"/><polygon class="cls-15" points="1221.23 538.74 1327.12 477.6 1327.12 470.29 1221.23 531.47 1221.23 538.74"/><polygon class="cls-12" points="1221.23 505.8 1327.12 444.67 1168.2 352.92 1062.51 414.1 1221.23 505.8"/><polygon class="cls-14" points="806.89 681.86 1006.94 566.54 1165.82 658.27 965.83 773.62 806.89 681.86"/><path class="cls-2" d="M1011.46,564.82s-103.52,29.07-100,57.73l-91.09,52.57,143.33,82.75,191.09-110.33Z"/><path class="cls-16" d="M911.41,622.55S875.79,608,820.31,675.12l143.33,82.75,91.15-52.62Z"/><path class="cls-17" d="M1054.8,705.25h0s-15.91-8.41-91.15,52.62L820.31,675.12v8.36l143.33,82.75,191.09-110.33v-8.36S1052.56,685.42,1054.8,705.25Z"/><polygon class="cls-18" points="853.8 681.59 925.78 640.17 928.75 641.89 856.79 683.29 853.8 681.59"/><polygon class="cls-18" points="841.66 674.65 871.68 657.14 880 662.4 849.99 679.9 841.66 674.65"/><polygon class="cls-18" points="859.76 685.15 931.74 643.74 934.72 645.45 862.75 686.85 859.76 685.15"/><polygon class="cls-18" points="865.72 688.71 937.7 647.3 940.68 649.01 868.71 690.41 865.72 688.71"/><polygon class="cls-18" points="871.68 692.27 943.67 650.86 946.64 652.58 874.67 693.97 871.68 692.27"/><polygon class="cls-18" points="877.65 695.83 949.63 654.42 952.6 656.14 880.63 697.54 877.65 695.83"/><polygon class="cls-18" points="978.52 642.94 1050.5 601.53 1053.47 603.25 981.5 644.65 978.52 642.94"/><polygon class="cls-18" points="984.48 646.5 1056.46 605.09 1059.43 606.81 987.46 648.21 984.48 646.5"/><polygon class="cls-18" points="990.44 650.07 1062.42 608.65 1065.39 610.37 993.43 651.77 990.44 650.07"/><polygon class="cls-18" points="996.4 653.63 1068.38 612.22 1071.35 613.93 999.39 655.33 996.4 653.63"/><polygon class="cls-18" points="1002.36 657.19 1063.27 622.23 1066.24 623.95 1005.35 658.89 1002.36 657.19"/><polygon class="cls-18" points="891.28 702.21 937.74 675.54 940.71 677.25 894.26 703.92 891.28 702.21"/><polygon class="cls-18" points="897.24 705.77 943.7 679.1 946.67 680.82 900.23 707.48 897.24 705.77"/><polygon class="cls-18" points="903.2 709.34 949.66 682.66 952.63 684.38 906.19 711.04 903.2 709.34"/><polygon class="cls-18" points="932.6 725.66 979.06 698.99 982.04 700.7 935.59 727.37 932.6 725.66"/><polygon class="cls-18" points="938.56 729.22 985.02 702.55 988 704.26 941.55 730.93 938.56 729.22"/><polygon class="cls-18" points="944.52 732.78 990.99 706.11 993.96 707.83 947.51 734.49 944.52 732.78"/><polygon class="cls-18" points="909.16 712.9 955.62 686.22 958.6 687.94 912.15 714.6 909.16 712.9"/><polygon class="cls-18" points="915.12 716.46 961.58 689.78 964.56 691.5 918.11 718.16 915.12 716.46"/><polygon class="cls-18" points="962.78 659.77 940.71 672.78 997.57 705.37 1020.31 692.6 962.78 659.77"/><polygon class="cls-18" points="941.17 618.74 1011.22 578.7 1044.61 597.72 973.91 638.61 941.17 618.74"/></svg>