<svg id="Layer_1" data-name="Layer 1" xmlns="http://www.w3.org/2000/svg" viewBox="0 0 1920 1080"><defs><style>.cls-1{fill:#3c9344;}.cls-2{fill:#347534;}.cls-3{fill:#00652e;}.cls-4{fill:#775020;}.cls-5{fill:#4ca92c;}.cls-6{fill:#99bf19;}.cls-7{fill:#a4a6a9;}.cls-8{fill:#454547;}.cls-9{fill:#84878c;}.cls-10{fill:#565658;}.cls-11{opacity:0.2;}.cls-12{fill:#5c6066;}.cls-13{fill:#b5bac6;}.cls-14{fill:#8e96a5;opacity:0.66;}.cls-15{fill:#9ea5b5;}.cls-16{fill:#412517;}.cls-17{fill:#c8cbd6;}.cls-18{fill:#b8bac1;}.cls-19{fill:#331b11;}.cls-20{fill:#d82a19;opacity:0.14;}.cls-21{fill:#41b9b4;}.cls-22{fill:#00a499;}</style></defs><title>ilustracoes_caixa_am5SVG</title><polygon class="cls-1" points="960 256.5 469.09 539.93 469.09 610.79 960 894.21 1450.91 610.79 1450.91 539.93 960 256.5"/><polygon class="cls-2" points="960 894.21 469.09 610.79 469.09 539.93 960 823.36 960 894.21"/><polygon class="cls-3" points="960 894.21 1450.91 610.79 1450.91 539.93 960 823.36 960 894.21"/><rect class="cls-4" x="1138.44" y="286.26" width="9.54" height="119.46"/><rect class="cls-3" x="1098.45" y="211.84" width="89.53" height="129.21" rx="44.77" ry="44.77"/><rect class="cls-4" x="558.77" y="435.24" width="9.54" height="119.46"/><rect class="cls-3" x="518.77" y="360.82" width="89.53" height="129.21" rx="44.77" ry="44.77"/><path class="cls-3" d="M792.67,460.64a31.23,31.23,0,0,0-28,17.48,25.12,25.12,0,0,0-29.82-.88,38.82,38.82,0,1,0-76.24,14.66H823.93A31.26,31.26,0,0,0,792.67,460.64Z"/><rect class="cls-4" x="955.25" y="189.32" width="9.54" height="119.46"/><circle class="cls-5" cx="960.02" cy="189.32" r="56.66"/><rect class="cls-4" x="905.28" y="252.95" width="9.54" height="119.46"/><path class="cls-6" d="M897.12,197.21l-25.81,95.52a13.39,13.39,0,0,0,12.93,16.89h51.62a13.39,13.39,0,0,0,12.93-16.89L923,197.21C919.41,184,900.69,184,897.12,197.21Z"/><rect class="cls-4" x="610.93" y="464.99" width="9.54" height="119.46"/><path class="cls-6" d="M602.77,409.25,577,504.76a13.39,13.39,0,0,0,12.93,16.89h51.62a13.39,13.39,0,0,0,12.93-16.89l-25.81-95.52C625.06,396,606.33,396,602.77,409.25Z"/><rect class="cls-4" x="826.86" y="253.93" width="9.54" height="119.46"/><rect class="cls-3" x="786.87" y="179.51" width="89.53" height="129.21" rx="44.77" ry="44.77"/><rect class="cls-4" x="1023.8" y="252.28" width="9.54" height="119.46"/><rect class="cls-2" x="983.81" y="177.86" width="89.53" height="129.21" rx="44.77" ry="44.77"/><path class="cls-7" d="M778.56,412.54s2.75,8.36,5.8,4.72c0,0,2.95-4.62,4.72-2.95.25.17,2.27,3.38-2.26,7.87,0,0-2.46,3.34-5.51,2.95Z"/><path class="cls-8" d="M785.18,416.11l3.87,3.13s2-3.43-.15-5.05C788.9,414.19,787.5,412.54,785.18,416.11Z"/><path class="cls-9" d="M753.79,431.51s-4.82-2.65-6.19-6.88a10.06,10.06,0,0,1-.2-9.83s8.75-12.68,2.36-18.88c0,0-9.41-8.68-16.42,1.77-6.61,9.86,6,30.68,6,30.68s6.78,11.21,13.47,12.39C752.81,440.75,756.54,435.35,753.79,431.51Z"/><path class="cls-10" d="M751,397.26c-5.19.09-14.47.29-17.82.57a13.56,13.56,0,0,0-1.71,7.58l20.27-.48A10.47,10.47,0,0,0,751,397.26Z"/><path class="cls-10" d="M751,407.27c-3.81.44-14.61,1.69-19.12,2.39a44,44,0,0,0,1.63,6L747.82,414A33.88,33.88,0,0,0,751,407.27Z"/><path class="cls-10" d="M746.38,417.67c-3.08,1.1-7.15,2.57-10.49,3.8.78,1.71,1.52,3.19,2.13,4.32l8.75-3.16A10.06,10.06,0,0,1,746.38,417.67Z"/><path class="cls-10" d="M748,425.47c-2.14,1.58-4.7,3.48-7,5.21a47.32,47.32,0,0,0,3,3.76l7-5.18A12.57,12.57,0,0,1,748,425.47Z"/><path class="cls-10" d="M753.79,431.31s-.27-.15-.69-.42l-6.21,6.42a18.71,18.71,0,0,0,2.65,1.95l5.21-5.39A5.36,5.36,0,0,0,753.79,431.31Z"/><g class="cls-11"><path class="cls-12" d="M741.37,420.88a42.25,42.25,0,0,1,1.7-22.38,31.55,31.55,0,0,1,2.28-5.23c-3.36-1.28-8.07-1.46-12,4.42-6.61,9.86,6,30.68,6,30.68s6.78,11.21,13.47,12.39a11.59,11.59,0,0,0,.67-1.14l-.1-.07A30.51,30.51,0,0,1,741.37,420.88Z"/></g><path class="cls-7" d="M781.12,427.65s4.2,1.55,3.1,6.71c0,0-.59,5.24-3.32,7.52,0,0,4.28-.22,4.13,1.18,0,0,.22,1.92-4.79,1.92l-6.71-.52S777.66,429.57,781.12,427.65Z"/><path class="cls-13" d="M761.95,445.42a18,18,0,0,0,12.39-1.23s8.26-3.24,7-19.07c0,0-.49-9.93-2.75-12.58l-7.87.49Z"/><path class="cls-14" d="M768.46,427l3.12-2.44a8.18,8.18,0,0,1,3.43-1.88,2.81,2.81,0,0,1,3.22,1.63,2.72,2.72,0,0,1-.56,2.36,7.25,7.25,0,0,1-1.93,1.6c-2.3,1.47-4.85,2.78-7.58,2.81L767,431Z"/><path class="cls-15" d="M766.32,428.75a7.33,7.33,0,0,0,8.87-6,2.83,2.83,0,0,0,0-1.26,1.29,1.29,0,0,0-.82-.9,1.41,1.41,0,0,0-1.19.3,6.76,6.76,0,0,0-.89.91,7.27,7.27,0,0,1-4.47,2.3.6.6,0,0,0-.32.1.57.57,0,0,0-.15.25,17.74,17.74,0,0,0-1,4.38"/><path class="cls-7" d="M766.08,413.13l-6.1,9.14s-14.26,12.09-6.1,20.75c0,0,6.78,6.78,13.17-.1,0,0,7-9.34-.39-14.45l4-14.06.39-1.47-4.52-.79Z"/><g class="cls-11"><path class="cls-9" d="M758.53,437.42a22.24,22.24,0,0,1,1.72-11,66.4,66.4,0,0,1,5.33-9.89,37,37,0,0,1,2.78-4.08l-1.79-.31-.49,1-6.1,9.14s-14.26,12.09-6.1,20.75c0,0,3.36,3.36,7.59,2.95-.4-.72-.76-1.48-1.09-2.23A23.67,23.67,0,0,1,758.53,437.42Z"/></g><path class="cls-7" d="M768.27,440.93s-.65,2.95,1.64,3.24c0,0,4.42.81,4.42,2l.07,1-18-.81s-.29-2,.52-2.43C756.93,443.95,767.61,439,768.27,440.93Z"/><path class="cls-7" d="M795.32,406.28a10.46,10.46,0,0,1-4.76-5s-2.09-5.47-6.43-8.51a13.93,13.93,0,0,0-5.22-2.47,16.5,16.5,0,0,0-5.28-.15,13.66,13.66,0,0,0-8,2.62c-4.34,3-6.43,8.51-6.43,8.51a10.46,10.46,0,0,1-4.76,5,27.35,27.35,0,0,0,15.64,11.44s1.38.24,4,.48a15.36,15.36,0,0,0,6-.65A26.2,26.2,0,0,0,795.32,406.28Z"/><path class="cls-10" d="M792.44,410.07c-.53-1.44-3.87-1.6-3.87-1.6l.61-1.36c2-5.62-3.27-7-3.27-7-6.75-1.28-10.52,8.83-11.28,11.1-.81-2-5-11.35-11.81-10.12,0,0-5.24,1.29-3.27,6.61l.61,1.29s-2.81-1-3.34.38c13.85,13.74,17.05,4.12,17.05,4.12l-.57-.15c.33-.08.67-.17,1-.27,1.52,2.61,6.48,8.67,18-3Z"/><ellipse class="cls-16" cx="768.37" cy="408.9" rx="1.52" ry="1.71"/><ellipse class="cls-16" cx="781.05" cy="408.9" rx="1.52" ry="1.71"/><path class="cls-7" d="M780.11,392.36s-.49-2.71,3.14-4.06,5.9-1.91,6.33-2.21l1.6,5.9s1.29,5.47-2.15,7.75Z"/><path class="cls-17" d="M788.49,388.14s-7.58,1.23-7.09,4.55c0,0,.61,2,3.12.74l.66-.2s-.74,3.4,1.52,3.69c0,0,2.7.43,2.83-3.36C789.52,393.55,789.07,388.92,788.49,388.14Z"/><path class="cls-18" d="M788.49,388.14s-.83.14-1.92.43l.21.21a4.34,4.34,0,0,1,.94,3.18,6.64,6.64,0,0,1-1.25,3.47,2.91,2.91,0,0,1-.93.85,1.62,1.62,0,0,0,1.13.63s2.7.43,2.83-3.36C789.52,393.55,789.07,388.92,788.49,388.14Z"/><path class="cls-7" d="M758.78,387.45s-3.2,7.13.25,11.62l1.17,1.66,8.42-8s-1.78-3.5-5-4C763.57,388.74,759.76,388.31,758.78,387.45Z"/><path class="cls-17" d="M759.72,390.3s-1.48,7.13,1.19,7.5c0,0,2.34,0,2.71-1.89,0,0,3.65-.33,3.07-2.79C766.69,393.13,765.79,389.93,759.72,390.3Z"/><path class="cls-18" d="M761,391.63a4.55,4.55,0,0,1,.13-1.35c-.45,0-.92,0-1.44,0,0,0-1.48,7.13,1.19,7.5,0,0,2.16,0,2.65-1.69A6,6,0,0,1,761,391.63Z"/><path class="cls-19" d="M776.71,412a2.22,2.22,0,0,1-4.32,0c0-.94.94-1.31,2.14-1.31S776.71,411.09,776.71,412Z"/><path class="cls-17" d="M766.47,416.27s2.16-6.69,8-7c0,0,6.19.1,8.6,7.32C783,416.62,774,420.84,766.47,416.27Z"/><path class="cls-16" d="M777.4,412.11a2.81,2.81,0,0,1-5.47,0c0-1.19,1.2-1.65,2.71-1.65S777.4,410.91,777.4,412.11Z"/><ellipse class="cls-20" cx="766.4" cy="412.73" rx="3.29" ry="2.69"/><ellipse class="cls-20" cx="781.91" cy="412.73" rx="3.29" ry="2.69"/><path class="cls-7" d="M768.08,417.48s.87,6.57,3.05,4.72c0,0,4.19-2.79,5.84-.59,0,0,1.62,1.85-2.11,4.46,0,0-3.82,3.86-8.34,3.09C766.52,429.16,763.8,417.46,768.08,417.48Z"/><path class="cls-10" d="M771.47,422s1.09,5.16,3.06,4.39c.1,0,3.77-2.33,2.44-4.76C777,421.61,775.36,419.16,771.47,422Z"/><rect class="cls-4" x="755.83" y="327.52" width="9.54" height="119.46"/><circle class="cls-2" cx="760.6" cy="327.52" r="56.66"/><rect class="cls-4" x="1068.57" y="322.31" width="9.54" height="119.46"/><path class="cls-6" d="M1060.41,266.57l-25.81,95.52A13.39,13.39,0,0,0,1047.53,379h51.62a13.39,13.39,0,0,0,12.93-16.89l-25.81-95.52C1082.7,253.37,1064,253.37,1060.41,266.57Z"/><rect class="cls-4" x="967.14" y="368.67" width="9.54" height="119.46"/><circle class="cls-3" cx="971.91" cy="368.67" r="56.66"/><rect class="cls-4" x="861.3" y="363.41" width="9.54" height="119.46"/><path class="cls-5" d="M853.14,307.67l-25.81,95.52a13.39,13.39,0,0,0,12.93,16.89h51.62a13.39,13.39,0,0,0,12.93-16.89L879,307.67C875.43,294.47,856.71,294.47,853.14,307.67Z"/><path class="cls-21" d="M1103.7,610.76A21,21,0,0,1,1113,593.3l215.28-124.19-122.73-70.86L943,549.65a69.49,69.49,0,0,0-7.4,117.94h0l.18.11a69.39,69.39,0,0,0,11,6.37l135.93,78.42,122.73-70.86-91.83-53A21,21,0,0,1,1103.7,610.76Z"/><rect class="cls-4" x="1286.23" y="400.29" width="9.54" height="119.46"/><circle class="cls-5" cx="1291" cy="400.29" r="56.66"/><path class="cls-3" d="M1268.48,539.93a52.15,52.15,0,0,0-52.15,52.15h104.29A52.15,52.15,0,0,0,1268.48,539.93Z"/><path class="cls-6" d="M1234.15,570.56a28.69,28.69,0,0,0-28.69,28.69h57.39A28.69,28.69,0,0,0,1234.15,570.56Z"/><polygon class="cls-22" points="1081.98 822.25 1081.98 752.5 1205.45 681.64 1205.45 751.95 1081.98 822.25"/><path class="cls-5" d="M910.05,584.44a44.78,44.78,0,0,0-44.78,44.78h89.55A44.78,44.78,0,0,0,910.05,584.44Z"/><path class="cls-3" d="M960,606.83a34.1,34.1,0,0,0-34.1,34.1H994.1A34.1,34.1,0,0,0,960,606.83Z"/></svg>