<svg id="Layer_1" data-name="Layer 1" xmlns="http://www.w3.org/2000/svg" xmlns:xlink="http://www.w3.org/1999/xlink" viewBox="0 0 1920 1080"><defs><style>.cls-1,.cls-16{fill:none;}.cls-1{clip-rule:evenodd;}.cls-2{fill:#64c8c3;}.cls-3{fill:#41b9b4;}.cls-4{fill:#00a499;}.cls-5{fill:#500778;}.cls-6{fill:#633220;}.cls-7{fill:#4c2218;}.cls-8{fill:#a97c50;}.cls-9{fill:#8b5e3c;}.cls-10{fill:#13b9b0;}.cls-11{fill:#005fc8;}.cls-12{fill:#4187d7;}.cls-13{fill:#754c29;}.cls-14{fill:#603913;}.cls-15{fill:#261b0e;}.cls-17{fill:#fff;}.cls-18{fill:#3c2415;}.cls-19{fill:#c49a6c;}.cls-20{fill:#ed2b2b;}.cls-21{fill:#0039ba;}.cls-22{clip-path:url(#clip-path);}.cls-23{clip-path:url(#clip-path-2);}.cls-24{clip-path:url(#clip-path-3);}.cls-25{clip-path:url(#clip-path-4);}.cls-26{clip-path:url(#clip-path-5);}.cls-27{clip-path:url(#clip-path-6);}.cls-28{clip-path:url(#clip-path-7);}.cls-29{clip-path:url(#clip-path-8);}.cls-30{clip-path:url(#clip-path-9);}.cls-31{clip-path:url(#clip-path-10);}.cls-32{clip-path:url(#clip-path-11);}.cls-33{clip-path:url(#clip-path-12);}.cls-34{clip-path:url(#clip-path-13);}.cls-35{clip-path:url(#clip-path-14);}.cls-36{clip-path:url(#clip-path-15);}.cls-37{clip-path:url(#clip-path-16);}.cls-38{clip-path:url(#clip-path-17);}.cls-39{clip-path:url(#clip-path-18);}.cls-40{clip-path:url(#clip-path-19);}.cls-41{clip-path:url(#clip-path-20);}.cls-42{clip-path:url(#clip-path-21);}.cls-43{clip-path:url(#clip-path-22);}.cls-44{clip-path:url(#clip-path-23);}.cls-45{clip-path:url(#clip-path-24);}.cls-46{clip-path:url(#clip-path-25);}.cls-47{clip-path:url(#clip-path-26);}.cls-48{clip-path:url(#clip-path-27);}.cls-49{clip-path:url(#clip-path-28);}</style><clipPath id="clip-path"><polygon class="cls-1" points="474.31 3363.76 474.31 3434.24 962.61 3716.16 1450.91 3434.24 1450.91 3363.76 962.61 3081.84 474.31 3363.76"/></clipPath><clipPath id="clip-path-2"><polygon class="cls-1" points="962.61 3716.16 474.31 3434.24 474.31 3363.76 962.61 3645.68 962.61 3716.16"/></clipPath><clipPath id="clip-path-3"><polygon class="cls-1" points="1206.76 3716.16 1450.91 3716.16 1450.91 3363.76 962.61 3363.76 962.61 3716.16 1206.76 3716.16"/></clipPath><clipPath id="clip-path-4"><path class="cls-1" d="M1012.37,3314.35l-89.14-1.55c-4.86-.07-44.92,30.09-45,35l-.26,17.7a8.87,8.87,0,0,0,8.72,9l9.29.14,70.78,1c28.76.43,57.73,1.08,71.67,1.06l8.85.13a8.87,8.87,0,0,0,9-8.72l.27-17.7c.07-4.86-39.29-36-44.15-36.05"/></clipPath><clipPath id="clip-path-5"><path class="cls-1" d="M1159.67,3138.65a17.21,17.21,0,1,1-24.33-.36,17.36,17.36,0,0,1,24.33.36m-50.51-25.09a17.21,17.21,0,1,1-24.33-.36,17.36,17.36,0,0,1,24.33.36m-274.25-6.29a17.21,17.21,0,1,1-.36,24.33,17.16,17.16,0,0,1,.36-24.33M808,3131.22a17.21,17.21,0,1,1-24.34-.36,17.36,17.36,0,0,1,24.34.36"/></clipPath><clipPath id="clip-path-6"><path class="cls-1" d="M1014.88,3085.62l-87.59-1.3c-9.74-.14-194,83.62-194.1,93.36l-.52,34.95a17.37,17.37,0,0,0,17.21,17.73l219.82-22.84,218.38,29.57a17.37,17.37,0,0,0,17.73-17.22l.52-34.95c.14-9.74-181.72-99.17-191.45-99.31"/></clipPath><clipPath id="clip-path-7"><path class="cls-1" d="M973.77,2904c-24.33-.36-44.41,40.49-45.06,69.47l-4.48,316.09c-.44,29.2,17.77,114.43,42.1,114.79s45.06-84.29,45.49-113.49l4.92-316.09c.44-29.2-18.64-70.41-43-70.77"/></clipPath><clipPath id="clip-path-8"><path class="cls-1" d="M990.38,3290.35l4.7-315.87c.37-24.78-13.29-58.16-32-68A27.37,27.37,0,0,1,974,2903.8c24.33.37,43.19,41.8,42.75,71l-4.7,315.87c-.43,29.2-21.38,113.62-45.49,113.49-3.54-.05-7.27-2.1-10.76-5.69,19.09-19,34.21-83.34,34.57-108.12"/></clipPath><clipPath id="clip-path-9"><path class="cls-1" d="M1056.48,3219.21,1012.1,3213l1.9-127.85,1.33,0c2.65,0,20,7.6,43.09,18.34Z"/></clipPath><clipPath id="clip-path-10"><path class="cls-1" d="M925.39,3212.17l-175.28,18.41a17.63,17.63,0,0,1-17-15.74l192.55-19.48Zm87.85-15.51L1205.33,3223a17.51,17.51,0,0,1-17.24,14.12l-174.87-23.84Z"/></clipPath><clipPath id="clip-path-11"><path class="cls-1" d="M1195.5,3330.19a19.59,19.59,0,1,0-19.59,19.59,19.59,19.59,0,0,0,19.59-19.59"/></clipPath><clipPath id="clip-path-12"><path class="cls-1" d="M1269.63,3331.24a18.53,18.53,0,1,0-18.53,18.53,18.53,18.53,0,0,0,18.53-18.53"/></clipPath><clipPath id="clip-path-13"><path class="cls-1" d="M1238.22,3306.08a31.15,31.15,0,1,0-31.15,31.15,31.15,31.15,0,0,0,31.15-31.15"/></clipPath><clipPath id="clip-path-14"><polygon class="cls-1" points="1238.22 3306.08 1237.51 3330.18 1253.57 3333.71 1253.57 3349.77 1175.92 3349.77 1175.92 3322.02 1238.22 3306.08"/></clipPath><clipPath id="clip-path-15"><path class="cls-1" d="M781.07,3362.25A30.36,30.36,0,1,1,811.43,3393a30.57,30.57,0,0,1-30.36-30.78"/></clipPath><clipPath id="clip-path-16"><path class="cls-1" d="M666.18,3363.92A28.72,28.72,0,1,1,694.89,3393a28.92,28.92,0,0,1-28.72-29.11"/></clipPath><clipPath id="clip-path-17"><path class="cls-1" d="M714.86,3324.37c0-27,21.62-49,48.29-49s48.29,21.92,48.29,49-21.62,49-48.29,49-48.29-21.92-48.29-49"/></clipPath><clipPath id="clip-path-18"><polygon class="cls-1" points="714.86 3324.37 715.97 3362.25 691.07 3367.79 691.07 3393.03 811.43 3393.03 811.43 3349.42 714.86 3324.37"/></clipPath><clipPath id="clip-path-19"><path class="cls-1" d="M940.32,3490.81a15.46,15.46,0,1,0-15.46,15.46,15.46,15.46,0,0,0,15.46-15.46"/></clipPath><clipPath id="clip-path-20"><path class="cls-1" d="M1008.63,3496.49a9.47,9.47,0,1,0-9.47,9.47,9.47,9.47,0,0,0,9.47-9.47"/></clipPath><clipPath id="clip-path-21"><path class="cls-1" d="M991.15,3487a15.46,15.46,0,1,0-15.46,15.46A15.46,15.46,0,0,0,991.15,3487"/></clipPath><clipPath id="clip-path-22"><path class="cls-1" d="M973.9,3483.8A22.16,22.16,0,1,0,951.74,3506a22.16,22.16,0,0,0,22.16-22.16"/></clipPath><clipPath id="clip-path-23"><polygon class="cls-1" points="991.15 3487.02 991.15 3496.49 999.16 3496.49 999.16 3505.97 924.86 3505.97 924.86 3494.28 962.01 3494.28 991.15 3487.02"/></clipPath><clipPath id="clip-path-24"><path class="cls-1" d="M1068.4,3237.33a17.9,17.9,0,1,1,17.9,17.9,17.9,17.9,0,0,1-17.9-17.9"/></clipPath><clipPath id="clip-path-25"><path class="cls-1" d="M989.28,3243.91a11,11,0,1,1,11,11,11,11,0,0,1-11-11"/></clipPath><clipPath id="clip-path-26"><path class="cls-1" d="M1009.52,3232.94a17.9,17.9,0,1,1,17.9,17.9,17.9,17.9,0,0,1-17.9-17.9"/></clipPath><clipPath id="clip-path-27"><path class="cls-1" d="M1029.5,3229.22a25.67,25.67,0,1,1,25.67,25.67,25.67,25.67,0,0,1-25.67-25.67"/></clipPath><clipPath id="clip-path-28"><polygon class="cls-1" points="1009.52 3232.95 1009.52 3243.91 1000.25 3243.91 1000.25 3254.89 1086.3 3254.89 1086.3 3241.34 1043.28 3241.34 1009.52 3232.95"/></clipPath></defs><title>ilustracoes_caixa_am5SVG</title><polygon class="cls-2" points="960 256.5 469.09 539.93 469.09 610.79 960 894.21 1450.91 610.79 1450.91 539.93 960 256.5"/><polygon class="cls-3" points="960 894.21 469.09 610.79 469.09 539.93 960 823.36 960 894.21"/><polygon class="cls-4" points="960 894.21 1450.91 610.79 1450.91 539.93 960 823.36 960 894.21"/><rect class="cls-5" x="1034.19" y="126.72" width="2" height="378.65"/><path class="cls-6" d="M1018.73,213.32a89.13,89.13,0,1,0-18.37,147.37L990.1,252.46Z"/><path class="cls-7" d="M1049.77,280.89a88.91,88.91,0,0,0-31-67.58L990.1,252.46l10.26,108.23A89.12,89.12,0,0,0,1049.77,280.89Z"/><path class="cls-8" d="M884.07,619.46s12.47,8.91,39.64,0l-16-13.23Z"/><path class="cls-9" d="M995.55,619.46s12.47,8.91,39.64,0l-16-13.23Z"/><path class="cls-10" d="M1009.4,369.79h-.16a79.22,79.22,0,0,0-74.9,53.45l.38-.08A79.22,79.22,0,0,1,1009.4,369.79Z"/><path class="cls-10" d="M1012.65,369.88l.71,0Z"/><path class="cls-10" d="M1009.44,389.42c.85,0,1.69,0,2.53.06-.79,0-1.58-.07-2.37-.07Z"/><path class="cls-10" d="M1009.59,369.79h-.19c1.09,0,2.17,0,3.25.08C1011.63,369.84,1010.62,369.79,1009.59,369.79Z"/><path class="cls-10" d="M1012.33,389.49h0Z"/><path class="cls-10" d="M958.11,418.46l-23.38,4.71,0,.08,23.76-4.79a59.6,59.6,0,0,1,51-29h-.2A59.6,59.6,0,0,0,958.11,418.46Z"/><path class="cls-10" d="M1043.52,377.41a78.8,78.8,0,0,0-30.16-7.52,78.76,78.76,0,0,1,30.1,7.65Z"/><path class="cls-11" d="M1043.46,377.55a78.76,78.76,0,0,0-30.1-7.65l-.71,0c-1.08,0-2.16-.08-3.25-.08a79.22,79.22,0,0,0-74.68,53.37l23.38-4.71a59.6,59.6,0,0,1,51.14-29h.35c.8,0,1.59,0,2.37.07h.36a59.18,59.18,0,0,1,23.47,6Z"/><path class="cls-12" d="M910.28,369.79a78.88,78.88,0,0,0-33.92,7.62l7.72,18.09a59.51,59.51,0,0,1,77.34,23l23.76,4.79A79.22,79.22,0,0,0,910.28,369.79Z"/><path class="cls-9" d="M831.07,449a79.18,79.18,0,0,0,43.56,70.73L881,500.86a59.54,59.54,0,0,1,3.07-105.36l-7.72-18.09A79.2,79.2,0,0,0,831.07,449Z"/><path class="cls-6" d="M892.28,310.83s1.77,30.56,15.85,40.64L905.85,332Z"/><path class="cls-7" d="M1027.79,310.83s-1.77,30.56-15.85,40.64l2.28-19.52Z"/><path class="cls-12" d="M960,381.88l-30.82-17.34s-30.53,108.86-37,166.54H960Z"/><path class="cls-11" d="M959.63,381.88l30.82-17.34s30.53,108.86,37,166.54H959.63Z"/><path class="cls-13" d="M960,377.62H936S946.72,401.8,960,404.7c13.31-2.91,24.07-27.08,24.07-27.08Z"/><path class="cls-14" d="M960,360.74,936,377.62s12.67,16.46,24.07,16.46c3.5,0,15.71-5.29,24.07-16.46Z"/><circle class="cls-9" cx="899.9" cy="318.45" r="10.78" transform="translate(38.39 729.6) rotate(-45)"/><circle class="cls-13" cx="1020.16" cy="318.45" r="10.78" transform="translate(73.62 814.63) rotate(-45)"/><path class="cls-13" d="M972.24,381.9c16.68-5.76,34-14.23,42-30,5.53-10.87,5.74-23.57,5.85-35.77.08-8.78.16-17.71-1.17-26.35a64.2,64.2,0,0,0-3.06-12.29C1010.4,262.46,998,250.2,983,244.33a61.43,61.43,0,0,0-23-4.14l-10.67,93L960,384.46c.27,0,.54,0,.81,0C964.75,384.39,968.54,383.18,972.24,381.9Z"/><path class="cls-9" d="M936.34,245c-11.18,4.57-21.21,12.39-27.34,22.8-8.29,14.06-8.84,31.23-8.77,47.56.06,14.88.71,31.41,10.3,43.63s26.66,20.23,41.26,24.1a35.48,35.48,0,0,0,8.56,1.37L956,332l12.76-4.36-8.4-87.43h0A65.24,65.24,0,0,0,936.34,245Z"/><circle class="cls-15" cx="938.36" cy="303.2" r="4.53"/><circle class="cls-15" cx="983.56" cy="303.2" r="4.53"/><ellipse class="cls-14" cx="993.35" cy="323.49" rx="9.97" ry="5.04"/><ellipse class="cls-14" cx="928.88" cy="323.49" rx="9.97" ry="5.04"/><polygon class="cls-14" points="955.67 331.96 973.61 331.96 968.43 327.63 955.67 331.96"/><path class="cls-13" d="M1013.4,500.86h25.12l6.37,18.86c-5.58,9.64-17.53,11.36-17.53,11.36L1024,507.9h-10.22a3.49,3.49,0,0,1-.36,0,3.54,3.54,0,1,1,0-7.08Z"/><path class="cls-16" d="M995.53,233.74a24.55,24.55,0,0,1-.78,3.44A15.21,15.21,0,0,0,995.53,233.74Z"/><path class="cls-7" d="M986.85,231.81v.5c-1.12,2.08-11.26,20.51-24.79,30.6-5.07,3.78-10.62,6.4-16.34,6.53H980a11.33,11.33,0,0,1,8.7,3.65c3.37,3.62,4.47,8.61,10.1,8.61a11.63,11.63,0,0,1,8.12,2.85,14.18,14.18,0,0,1,4.15,8.6v25.3h9.41q0-1.55,0-3.08c0-2.53,0-5.09,0-7.65a10.72,10.72,0,0,1,6.1,2.12l1.21,1v0l.15.18a217,217,0,0,0,1.5-23.46C1029.48,259.67,1011.8,239.64,986.85,231.81Z"/><path class="cls-6" d="M971.33,227.2a110.66,110.66,0,0,0-11.53,0c-2,.11-4.06.25-6.07.48a82.53,82.53,0,0,0-8.77,1.42c-.27.06-.86.29-1.46.49l-1.55.28h0a75.29,75.29,0,0,0-13,3.72c-22.51,8.75-38,28-38,54.1,0,5.53.52,15.26,1.33,22,0,.38,0,.73,0,1.11l.12-.1c0,.14,0,.29.05.43.1-.11.17-.23.27-.33a10.6,10.6,0,0,1,6.58-3c.32,0,.65-.07,1-.06,0,2.55-.05,5.1,0,7.63q0,1.53,0,3.08h9.41v-25.3a15.22,15.22,0,0,1,1.66-5.37l2-2.69,0-.06c1.82-1.86,4.56-2.81,8.6-3.32s5.61-5,9.13-8.42a13.47,13.47,0,0,1,9.67-3.84s21.52.08,24.6,0c30.52-.69,42.35-21.48,46.93-32.89,1-2.54,1.68-4.62,2.11-5.9.33-1.1,2.78-16.44,3-17.65Z"/><path class="cls-17" d="M960,370.87a27.75,27.75,0,0,0,27.75-27.75h-55.5A27.75,27.75,0,0,0,960,370.87Z"/><path class="cls-13" d="M1043.46,377.55l-7.66,18a59.18,59.18,0,0,0-23.47-6,59.56,59.56,0,0,1,26.19,111.36l6.37,18.86a79.21,79.21,0,0,0-1.42-142.17Z"/><circle class="cls-18" cx="940.56" cy="317.38" r="1.34"/><circle class="cls-18" cx="929.66" cy="313.02" r="1.34"/><circle class="cls-18" cx="949.28" cy="313.02" r="1.34"/><circle class="cls-18" cx="931.84" cy="319.56" r="1.34"/><circle class="cls-18" cx="925.3" cy="323.92" r="1.34"/><circle class="cls-18" cx="944.92" cy="323.92" r="1.34"/><circle class="cls-18" cx="984.67" cy="317.38" r="1.34"/><circle class="cls-18" cx="995.57" cy="313.02" r="1.34"/><circle class="cls-18" cx="975.95" cy="313.02" r="1.34"/><circle class="cls-18" cx="993.39" cy="319.56" r="1.34"/><circle class="cls-18" cx="999.93" cy="323.92" r="1.34"/><circle class="cls-18" cx="980.31" cy="323.92" r="1.34"/><path class="cls-9" d="M892.17,531.08s-20.11,90.64,25.94,170.6h17.21s-78.89-140.18,24.32-140.18V531.08Z"/><path class="cls-13" d="M1027.1,531.08s20.11,90.64-25.94,170.6H984s78.89-140.18-24.32-140.18V531.08Z"/><path class="cls-6" d="M940.08,704a6.25,6.25,0,0,0-4.89-2.35H918.11s-11,4.94-16.81-1.45a8.6,8.6,0,1,0-6.72,14h40.61A6.26,6.26,0,0,0,940.08,704Z"/><path class="cls-7" d="M979.19,704a6.25,6.25,0,0,1,4.89-2.35h17.08s11,4.94,16.81-1.45a8.6,8.6,0,1,1,6.72,14H984.09A6.26,6.26,0,0,1,979.19,704Z"/><path class="cls-9" d="M906.12,500.86H881l-6.37,18.86c5.58,9.64,17.53,11.36,17.53,11.36l3.37-23.18h10.22a3.49,3.49,0,0,0,.36,0,3.54,3.54,0,1,0,0-7.08Z"/><path class="cls-19" d="M892.17,531.08s-12.51,49-8.1,88.37c0,0,16.5-12.65,39.64,0,0,0-19.17-58.68,35.92-57.95V531.08Z"/><path class="cls-8" d="M1027.1,531.08s12.51,49,8.1,88.37c0,0-16.5-12.65-39.64,0,0,0,19.17-58.68-35.92-57.95V531.08Z"/><circle class="cls-20" cx="1035.19" cy="109.19" r="76.96"/><polygon class="cls-20" points="1035.19 180.55 1023.99 191.75 1035.19 191.75 1046.39 191.75 1035.19 180.55"/><path class="cls-21" d="M1222.18,794q0-17.9,4.77-30.43t16.11-23.27q16.7-16.11,30.73-28T1298,689.89a116,116,0,0,0,15.81-19.69,36.56,36.56,0,0,0,5.67-19.39q0-19.69-12.23-30.73t-30.73-11q-28.05,0-42.66,15.51t-16.41,37.59l-91.88-6q6.56-63.23,46.54-96.36t102.62-33.11a174.22,174.22,0,0,1,51.61,7.46A127,127,0,0,1,1369,556.55a107.08,107.08,0,0,1,29.24,37q10.74,22.08,10.74,50.71a126.68,126.68,0,0,1-3.58,31.32,97.14,97.14,0,0,1-12.23,27.74,161.74,161.74,0,0,1-22.67,27.74,383.56,383.56,0,0,1-35.5,30.73q-13.73,10.74-18.5,20.88a47.22,47.22,0,0,0-4.77,20.29v17.3h-89.5ZM1212,908.56a55.85,55.85,0,0,1,4.18-21.48,52.76,52.76,0,0,1,29.24-29.24,57.33,57.33,0,0,1,43,0,52.76,52.76,0,0,1,29.24,29.24,57.32,57.32,0,0,1,0,43,52.76,52.76,0,0,1-29.24,29.24,57.32,57.32,0,0,1-43,0A52.76,52.76,0,0,1,1216.22,930,55.78,55.78,0,0,1,1212,908.56Z"/></svg>