<svg id="Layer_1" data-name="Layer 1" xmlns="http://www.w3.org/2000/svg" xmlns:xlink="http://www.w3.org/1999/xlink" viewBox="0 0 1920 1080"><defs><style>.cls-1,.cls-2{fill:none;}.cls-1{clip-rule:evenodd;}.cls-3{fill:#64c8c3;}.cls-4{fill:#41b9b4;}.cls-5{fill:#00a499;}.cls-6{fill:#fff;}.cls-7{fill:#754c29;}.cls-8{fill:#603913;}.cls-9{fill:#af7337;}.cls-10{fill:#e6e7e8;}.cls-11{fill:#f1f2f2;}.cls-12{fill:#bf844f;}.cls-13{fill:#99612e;}.cls-14{fill:#be1e2d;}.cls-15{fill:#e65a00;}.cls-16{fill:#ff6d00;}.cls-17{clip-path:url(#clip-path);}.cls-18{clip-path:url(#clip-path-2);}.cls-19{clip-path:url(#clip-path-3);}.cls-20{clip-path:url(#clip-path-4);}.cls-21{clip-path:url(#clip-path-5);}.cls-22{clip-path:url(#clip-path-6);}.cls-23{clip-path:url(#clip-path-7);}.cls-24{clip-path:url(#clip-path-8);}.cls-25{clip-path:url(#clip-path-9);}.cls-26{clip-path:url(#clip-path-10);}.cls-27{clip-path:url(#clip-path-11);}.cls-28{clip-path:url(#clip-path-12);}.cls-29{clip-path:url(#clip-path-13);}.cls-30{clip-path:url(#clip-path-14);}.cls-31{clip-path:url(#clip-path-15);}.cls-32{clip-path:url(#clip-path-16);}.cls-33{clip-path:url(#clip-path-17);}.cls-34{clip-path:url(#clip-path-18);}.cls-35{clip-path:url(#clip-path-19);}.cls-36{clip-path:url(#clip-path-20);}.cls-37{clip-path:url(#clip-path-21);}.cls-38{clip-path:url(#clip-path-22);}.cls-39{clip-path:url(#clip-path-23);}.cls-40{clip-path:url(#clip-path-24);}.cls-41{clip-path:url(#clip-path-25);}.cls-42{clip-path:url(#clip-path-26);}.cls-43{clip-path:url(#clip-path-27);}.cls-44{clip-path:url(#clip-path-28);}.cls-45{clip-path:url(#clip-path-29);}.cls-46{clip-path:url(#clip-path-30);}.cls-47{clip-path:url(#clip-path-31);}.cls-48{clip-path:url(#clip-path-32);}.cls-49{clip-path:url(#clip-path-33);}.cls-50{clip-path:url(#clip-path-34);}.cls-51{clip-path:url(#clip-path-35);}.cls-52{clip-path:url(#clip-path-36);}.cls-53{clip-path:url(#clip-path-37);}.cls-54{clip-path:url(#clip-path-38);}.cls-55{clip-path:url(#clip-path-39);}.cls-56{clip-path:url(#clip-path-40);}.cls-57{clip-path:url(#clip-path-41);}.cls-58{clip-path:url(#clip-path-42);}.cls-59{clip-path:url(#clip-path-43);}.cls-60{clip-path:url(#clip-path-44);}.cls-61{clip-path:url(#clip-path-45);}.cls-62{clip-path:url(#clip-path-46);}.cls-63{clip-path:url(#clip-path-47);}.cls-64{clip-path:url(#clip-path-48);}.cls-65{clip-path:url(#clip-path-49);}.cls-66{clip-path:url(#clip-path-50);}.cls-67{clip-path:url(#clip-path-51);}.cls-68{clip-path:url(#clip-path-52);}.cls-69{clip-path:url(#clip-path-53);}.cls-70{clip-path:url(#clip-path-54);}.cls-71{clip-path:url(#clip-path-55);}.cls-72{clip-path:url(#clip-path-56);}.cls-73{clip-path:url(#clip-path-57);}.cls-74{clip-path:url(#clip-path-58);}.cls-75{clip-path:url(#clip-path-59);}.cls-76{clip-path:url(#clip-path-60);}.cls-77{clip-path:url(#clip-path-61);}.cls-78{clip-path:url(#clip-path-62);}.cls-79{clip-path:url(#clip-path-63);}.cls-80{clip-path:url(#clip-path-64);}.cls-81{clip-path:url(#clip-path-65);}.cls-82{clip-path:url(#clip-path-66);}.cls-83{clip-path:url(#clip-path-67);}.cls-84{clip-path:url(#clip-path-68);}.cls-85{clip-path:url(#clip-path-69);}.cls-86{clip-path:url(#clip-path-70);}.cls-87{clip-path:url(#clip-path-71);}.cls-88{clip-path:url(#clip-path-72);}.cls-89{clip-path:url(#clip-path-73);}.cls-90{clip-path:url(#clip-path-74);}.cls-91{clip-path:url(#clip-path-75);}.cls-92{clip-path:url(#clip-path-76);}.cls-93{clip-path:url(#clip-path-77);}.cls-94{clip-path:url(#clip-path-78);}.cls-95{clip-path:url(#clip-path-79);}.cls-96{clip-path:url(#clip-path-80);}.cls-97{clip-path:url(#clip-path-81);}.cls-98{clip-path:url(#clip-path-82);}.cls-99{clip-path:url(#clip-path-83);}.cls-100{clip-path:url(#clip-path-84);}.cls-101{clip-path:url(#clip-path-85);}.cls-102{clip-path:url(#clip-path-86);}.cls-103{clip-path:url(#clip-path-87);}.cls-104{clip-path:url(#clip-path-88);}.cls-105{clip-path:url(#clip-path-89);}.cls-106{clip-path:url(#clip-path-90);}.cls-107{clip-path:url(#clip-path-91);}.cls-108{clip-path:url(#clip-path-92);}.cls-109{clip-path:url(#clip-path-93);}.cls-110{clip-path:url(#clip-path-94);}.cls-111{clip-path:url(#clip-path-95);}.cls-112{clip-path:url(#clip-path-96);}.cls-113{clip-path:url(#clip-path-97);}.cls-114{clip-path:url(#clip-path-98);}.cls-115{clip-path:url(#clip-path-99);}.cls-116{clip-path:url(#clip-path-100);}.cls-117{clip-path:url(#clip-path-101);}.cls-118{clip-path:url(#clip-path-102);}.cls-119{clip-path:url(#clip-path-103);}.cls-120{clip-path:url(#clip-path-104);}.cls-121{clip-path:url(#clip-path-105);}.cls-122{clip-path:url(#clip-path-106);}.cls-123{clip-path:url(#clip-path-107);}.cls-124{clip-path:url(#clip-path-108);}.cls-125{clip-path:url(#clip-path-109);}.cls-126{clip-path:url(#clip-path-110);}.cls-127{clip-path:url(#clip-path-111);}.cls-128{clip-path:url(#clip-path-112);}.cls-129{clip-path:url(#clip-path-113);}.cls-130{clip-path:url(#clip-path-114);}.cls-131{clip-path:url(#clip-path-115);}.cls-132{clip-path:url(#clip-path-116);}.cls-133{clip-path:url(#clip-path-117);}.cls-134{clip-path:url(#clip-path-118);}.cls-135{clip-path:url(#clip-path-119);}.cls-136{clip-path:url(#clip-path-120);}.cls-137{clip-path:url(#clip-path-121);}.cls-138{clip-path:url(#clip-path-122);}.cls-139{clip-path:url(#clip-path-123);}.cls-140{clip-path:url(#clip-path-124);}.cls-141{clip-path:url(#clip-path-125);}.cls-142{clip-path:url(#clip-path-126);}.cls-143{clip-path:url(#clip-path-127);}.cls-144{clip-path:url(#clip-path-128);}.cls-145{clip-path:url(#clip-path-129);}.cls-146{clip-path:url(#clip-path-130);}.cls-147{clip-path:url(#clip-path-131);}.cls-148{clip-path:url(#clip-path-132);}.cls-149{clip-path:url(#clip-path-133);}.cls-150{clip-path:url(#clip-path-134);}.cls-151{clip-path:url(#clip-path-135);}.cls-152{clip-path:url(#clip-path-136);}.cls-153{clip-path:url(#clip-path-137);}.cls-154{clip-path:url(#clip-path-138);}.cls-155{clip-path:url(#clip-path-139);}.cls-156{clip-path:url(#clip-path-140);}.cls-157{clip-path:url(#clip-path-141);}.cls-158{clip-path:url(#clip-path-142);}.cls-159{clip-path:url(#clip-path-143);}.cls-160{clip-path:url(#clip-path-144);}.cls-161{clip-path:url(#clip-path-145);}.cls-162{clip-path:url(#clip-path-146);}.cls-163{clip-path:url(#clip-path-147);}.cls-164{clip-path:url(#clip-path-148);}.cls-165{clip-path:url(#clip-path-149);}.cls-166{clip-path:url(#clip-path-150);}.cls-167{clip-path:url(#clip-path-151);}.cls-168{clip-path:url(#clip-path-152);}.cls-169{clip-path:url(#clip-path-153);}.cls-170{clip-path:url(#clip-path-154);}.cls-171{clip-path:url(#clip-path-155);}.cls-172{clip-path:url(#clip-path-156);}.cls-173{clip-path:url(#clip-path-157);}.cls-174{clip-path:url(#clip-path-158);}.cls-175{clip-path:url(#clip-path-159);}.cls-176{clip-path:url(#clip-path-160);}.cls-177{clip-path:url(#clip-path-161);}.cls-178{clip-path:url(#clip-path-162);}.cls-179{clip-path:url(#clip-path-163);}.cls-180{clip-path:url(#clip-path-164);}.cls-181{clip-path:url(#clip-path-165);}.cls-182{clip-path:url(#clip-path-166);}.cls-183{clip-path:url(#clip-path-167);}.cls-184{clip-path:url(#clip-path-168);}.cls-185{clip-path:url(#clip-path-169);}.cls-186{clip-path:url(#clip-path-170);}.cls-187{clip-path:url(#clip-path-171);}.cls-188{clip-path:url(#clip-path-172);}.cls-189{clip-path:url(#clip-path-173);}.cls-190{clip-path:url(#clip-path-174);}.cls-191{clip-path:url(#clip-path-175);}.cls-192{clip-path:url(#clip-path-176);}.cls-193{clip-path:url(#clip-path-177);}.cls-194{clip-path:url(#clip-path-178);}.cls-195{clip-path:url(#clip-path-179);}.cls-196{clip-path:url(#clip-path-180);}.cls-197{clip-path:url(#clip-path-181);}.cls-198{clip-path:url(#clip-path-182);}.cls-199{clip-path:url(#clip-path-183);}.cls-200{clip-path:url(#clip-path-184);}.cls-201{clip-path:url(#clip-path-185);}.cls-202{clip-path:url(#clip-path-186);}.cls-203{clip-path:url(#clip-path-187);}.cls-204{clip-path:url(#clip-path-188);}.cls-205{clip-path:url(#clip-path-189);}.cls-206{clip-path:url(#clip-path-190);}.cls-207{clip-path:url(#clip-path-191);}.cls-208{clip-path:url(#clip-path-192);}.cls-209{clip-path:url(#clip-path-193);}.cls-210{clip-path:url(#clip-path-194);}.cls-211{clip-path:url(#clip-path-195);}.cls-212{clip-path:url(#clip-path-196);}.cls-213{clip-path:url(#clip-path-197);}.cls-214{clip-path:url(#clip-path-198);}.cls-215{clip-path:url(#clip-path-199);}.cls-216{clip-path:url(#clip-path-200);}.cls-217{clip-path:url(#clip-path-201);}.cls-218{clip-path:url(#clip-path-202);}.cls-219{clip-path:url(#clip-path-203);}.cls-220{clip-path:url(#clip-path-204);}.cls-221{clip-path:url(#clip-path-205);}.cls-222{clip-path:url(#clip-path-206);}.cls-223{clip-path:url(#clip-path-207);}.cls-224{clip-path:url(#clip-path-208);}.cls-225{clip-path:url(#clip-path-209);}.cls-226{clip-path:url(#clip-path-210);}.cls-227{clip-path:url(#clip-path-211);}.cls-228{clip-path:url(#clip-path-212);}.cls-229{clip-path:url(#clip-path-213);}.cls-230{clip-path:url(#clip-path-214);}.cls-231{clip-path:url(#clip-path-215);}.cls-232{clip-path:url(#clip-path-216);}.cls-233{clip-path:url(#clip-path-217);}.cls-234{clip-path:url(#clip-path-218);}.cls-235{clip-path:url(#clip-path-219);}.cls-236{clip-path:url(#clip-path-220);}.cls-237{clip-path:url(#clip-path-221);}.cls-238{clip-path:url(#clip-path-222);}.cls-239{clip-path:url(#clip-path-223);}.cls-240{clip-path:url(#clip-path-224);}.cls-241{clip-path:url(#clip-path-225);}.cls-242{clip-path:url(#clip-path-226);}.cls-243{clip-path:url(#clip-path-227);}.cls-244{clip-path:url(#clip-path-228);}.cls-245{clip-path:url(#clip-path-229);}.cls-246{clip-path:url(#clip-path-230);}.cls-247{clip-path:url(#clip-path-231);}.cls-248{clip-path:url(#clip-path-232);}.cls-249{clip-path:url(#clip-path-233);}.cls-250{clip-path:url(#clip-path-234);}.cls-251{clip-path:url(#clip-path-235);}.cls-252{clip-path:url(#clip-path-236);}.cls-253{clip-path:url(#clip-path-237);}.cls-254{clip-path:url(#clip-path-238);}.cls-255{clip-path:url(#clip-path-239);}.cls-256{clip-path:url(#clip-path-240);}.cls-257{clip-path:url(#clip-path-241);}.cls-258{clip-path:url(#clip-path-242);}.cls-259{clip-path:url(#clip-path-243);}.cls-260{clip-path:url(#clip-path-244);}.cls-261{clip-path:url(#clip-path-245);}.cls-262{clip-path:url(#clip-path-246);}.cls-263{clip-path:url(#clip-path-247);}.cls-264{clip-path:url(#clip-path-248);}.cls-265{clip-path:url(#clip-path-249);}.cls-266{clip-path:url(#clip-path-250);}.cls-267{clip-path:url(#clip-path-251);}.cls-268{clip-path:url(#clip-path-252);}.cls-269{clip-path:url(#clip-path-253);}.cls-270{clip-path:url(#clip-path-254);}.cls-271{clip-path:url(#clip-path-255);}.cls-272{clip-path:url(#clip-path-256);}.cls-273{clip-path:url(#clip-path-257);}.cls-274{clip-path:url(#clip-path-258);}.cls-275{clip-path:url(#clip-path-259);}.cls-276{clip-path:url(#clip-path-260);}.cls-277{clip-path:url(#clip-path-261);}.cls-278{clip-path:url(#clip-path-262);}.cls-279{clip-path:url(#clip-path-263);}.cls-280{clip-path:url(#clip-path-264);}.cls-281{clip-path:url(#clip-path-265);}.cls-282{clip-path:url(#clip-path-266);}.cls-283{clip-path:url(#clip-path-267);}.cls-284{clip-path:url(#clip-path-268);}.cls-285{clip-path:url(#clip-path-269);}.cls-286{clip-path:url(#clip-path-270);}.cls-287{clip-path:url(#clip-path-271);}.cls-288{clip-path:url(#clip-path-272);}.cls-289{clip-path:url(#clip-path-273);}.cls-290{clip-path:url(#clip-path-274);}.cls-291{clip-path:url(#clip-path-275);}.cls-292{clip-path:url(#clip-path-276);}.cls-293{clip-path:url(#clip-path-277);}.cls-294{clip-path:url(#clip-path-278);}.cls-295{clip-path:url(#clip-path-279);}.cls-296{clip-path:url(#clip-path-280);}.cls-297{clip-path:url(#clip-path-281);}.cls-298{clip-path:url(#clip-path-282);}.cls-299{clip-path:url(#clip-path-283);}.cls-300{clip-path:url(#clip-path-284);}.cls-301{clip-path:url(#clip-path-285);}.cls-302{clip-path:url(#clip-path-286);}.cls-303{clip-path:url(#clip-path-287);}.cls-304{clip-path:url(#clip-path-288);}.cls-305{clip-path:url(#clip-path-289);}.cls-306{clip-path:url(#clip-path-290);}.cls-307{clip-path:url(#clip-path-291);}.cls-308{clip-path:url(#clip-path-292);}.cls-309{clip-path:url(#clip-path-293);}.cls-310{clip-path:url(#clip-path-294);}.cls-311{clip-path:url(#clip-path-295);}.cls-312{clip-path:url(#clip-path-296);}.cls-313{clip-path:url(#clip-path-297);}.cls-314{clip-path:url(#clip-path-298);}.cls-315{clip-path:url(#clip-path-299);}.cls-316{clip-path:url(#clip-path-300);}.cls-317{clip-path:url(#clip-path-301);}.cls-318{clip-path:url(#clip-path-302);}.cls-319{clip-path:url(#clip-path-303);}.cls-320{clip-path:url(#clip-path-304);}.cls-321{clip-path:url(#clip-path-305);}.cls-322{clip-path:url(#clip-path-306);}.cls-323{clip-path:url(#clip-path-307);}.cls-324{clip-path:url(#clip-path-308);}.cls-325{clip-path:url(#clip-path-309);}.cls-326{clip-path:url(#clip-path-310);}.cls-327{clip-path:url(#clip-path-311);}.cls-328{clip-path:url(#clip-path-312);}.cls-329{clip-path:url(#clip-path-313);}.cls-330{clip-path:url(#clip-path-314);}.cls-331{clip-path:url(#clip-path-315);}.cls-332{clip-path:url(#clip-path-316);}.cls-333{clip-path:url(#clip-path-317);}.cls-334{clip-path:url(#clip-path-318);}.cls-335{clip-path:url(#clip-path-319);}.cls-336{clip-path:url(#clip-path-320);}.cls-337{clip-path:url(#clip-path-321);}.cls-338{clip-path:url(#clip-path-322);}.cls-339{clip-path:url(#clip-path-323);}.cls-340{clip-path:url(#clip-path-324);}.cls-341{clip-path:url(#clip-path-325);}.cls-342{clip-path:url(#clip-path-326);}.cls-343{clip-path:url(#clip-path-327);}.cls-344{clip-path:url(#clip-path-328);}.cls-345{clip-path:url(#clip-path-329);}.cls-346{clip-path:url(#clip-path-330);}.cls-347{clip-path:url(#clip-path-331);}.cls-348{clip-path:url(#clip-path-332);}.cls-349{clip-path:url(#clip-path-333);}.cls-350{clip-path:url(#clip-path-334);}.cls-351{clip-path:url(#clip-path-335);}.cls-352{clip-path:url(#clip-path-336);}.cls-353{clip-path:url(#clip-path-337);}.cls-354{clip-path:url(#clip-path-338);}.cls-355{clip-path:url(#clip-path-339);}.cls-356{clip-path:url(#clip-path-340);}.cls-357{clip-path:url(#clip-path-341);}.cls-358{clip-path:url(#clip-path-342);}.cls-359{clip-path:url(#clip-path-343);}.cls-360{clip-path:url(#clip-path-344);}.cls-361{clip-path:url(#clip-path-345);}</style><clipPath id="clip-path"><polygon class="cls-1" points="-4175.83 1895.85 -4175.83 1966.85 -3683.97 2250.83 -3192.09 1966.85 -3192.09 1895.85 -3683.97 1611.87 -4175.83 1895.85"/></clipPath><clipPath id="clip-path-2"><polygon class="cls-1" points="-3683.96 2250.83 -4175.83 1966.85 -4175.83 1895.85 -3683.96 2179.83 -3683.96 2250.83"/></clipPath><clipPath id="clip-path-3"><polygon class="cls-1" points="-3438.03 2250.83 -3192.09 2250.83 -3192.09 1895.85 -3683.96 1895.85 -3683.96 2250.83 -3438.03 2250.83"/></clipPath><clipPath id="clip-path-4"><polygon class="cls-1" points="-3622.48 2002.34 -3868.41 1860.35 -3868.41 1647.37 -3622.48 1789.36 -3622.48 2002.34"/></clipPath><clipPath id="clip-path-5"><polygon class="cls-1" points="-3521.52 1635.14 -3622.48 1789.34 -3622.48 2002.32 -3438.03 1895.83 -3438.03 1682.87 -3521.52 1635.14"/></clipPath><clipPath id="clip-path-6"><polygon class="cls-1" points="-3885.19 1672.33 -3776.24 1487.6 -3521.52 1635.14 -3639.25 1814.32 -3885.19 1672.33"/></clipPath><clipPath id="clip-path-7"><polygon class="cls-1" points="-3561.03 1966.85 -3561.03 1824.84 -3499.51 1789.36 -3499.51 1931.33 -3561.03 1966.85"/></clipPath><clipPath id="clip-path-8"><polygon class="cls-1" points="-3714.71 1806.97 -3714.71 1877.97 -3653.22 1913.47 -3653.22 1842.47 -3714.71 1806.97"/></clipPath><clipPath id="clip-path-9"><polygon class="cls-1" points="-3837.45 1736.11 -3837.45 1807.11 -3775.96 1842.6 -3775.96 1771.61 -3837.45 1736.11"/></clipPath><clipPath id="clip-path-10"><rect class="cls-2" x="-4175.83" y="1423.18" width="983.74" height="827.65"/></clipPath><clipPath id="clip-path-11"><path class="cls-1" d="M-3919.26,1932.63h-169.19s-25.22,113.66,32.53,213.91h21.57s-98.92-175.77,30.49-175.77,30.49,175.77,30.49,175.77h21.57c57.74-100.26,32.53-213.91,32.53-213.91"/></clipPath><clipPath id="clip-path-12"><path class="cls-1" d="M-3941.45,1730.39h-.19a99.33,99.33,0,0,0-93.91,67l.47-.1a99.32,99.32,0,0,1,93.63-66.92"/></clipPath><clipPath id="clip-path-13"><path class="cls-1" d="M-3937.37,1730.49c.91,0,1.82,0,2.73.07-.9,0-1.82,0-2.73-.07"/></clipPath><clipPath id="clip-path-14"><path class="cls-1" d="M-3941.4,1755a27.82,27.82,0,0,1,3.41.25,28,28,0,0,0-3.21-.27l-.2,0"/></clipPath><clipPath id="clip-path-15"><path class="cls-1" d="M-3941.21,1730.38h-.24a33.32,33.32,0,0,1,4.08.32,32.85,32.85,0,0,0-3.83-.33"/></clipPath><clipPath id="clip-path-16"><path class="cls-1" d="M-3936.83,1755.11c-.46,0-.93,0-1.4,0l1.4,0"/></clipPath><clipPath id="clip-path-17"><path class="cls-1" d="M-4005.77,1791.41l-29.32,5.91,0,.09,29.79-6A74.73,74.73,0,0,1-3941.4,1755h-.25a74.74,74.74,0,0,0-64.12,36.42"/></clipPath><clipPath id="clip-path-18"><path class="cls-1" d="M-3898.67,1739.94a98.8,98.8,0,0,0-37.81-9.42,98.76,98.76,0,0,1,37.74,9.59Z"/></clipPath><clipPath id="clip-path-19"><path class="cls-1" d="M-3898.74,1740.11a98.76,98.76,0,0,0-37.74-9.59l-.89,0c-1.35-.06-2.71-.1-4.08-.1a99.32,99.32,0,0,0-93.63,66.92l29.32-5.91a74.73,74.73,0,0,1,64.12-36.42h.44c1,0,2,0,3,.09h.46a74.21,74.21,0,0,1,29.42,7.53Z"/></clipPath><clipPath id="clip-path-20"><path class="cls-1" d="M-4065.74,1730.38a98.91,98.91,0,0,0-42.54,9.56l9.68,22.68a74.24,74.24,0,0,1,32.86-7.63,74.73,74.73,0,0,1,64.12,36.42l29.79,6a99.33,99.33,0,0,0-93.91-67"/></clipPath><clipPath id="clip-path-21"><path class="cls-1" d="M-4165,1829.7a99.29,99.29,0,0,0,54.62,88.68l8-23.65a74.74,74.74,0,0,1-38-65,74.79,74.79,0,0,1,41.85-67.08l-9.68-22.68A99.31,99.31,0,0,0-4165,1829.7"/></clipPath><clipPath id="clip-path-22"><path class="cls-1" d="M-4088.31,1656.45s2.22,38.32,19.87,51l-2.85-24.47Z"/></clipPath><clipPath id="clip-path-23"><path class="cls-1" d="M-3918.39,1656.45s-2.22,38.32-19.87,51l2.85-24.47Z"/></clipPath><clipPath id="clip-path-24"><path class="cls-1" d="M-4003.35,1745.55-4042,1723.8s-38.28,136.5-46.45,208.83h85.09Z"/></clipPath><clipPath id="clip-path-25"><path class="cls-1" d="M-4003.85,1745.55l38.65-21.75s38.28,136.5,46.44,208.83h-85.09Z"/></clipPath><clipPath id="clip-path-26"><path class="cls-1" d="M-4003.35,1740.2h-30.18s13.48,30.31,30.18,34c16.69-3.64,30.18-34,30.18-34Z"/></clipPath><clipPath id="clip-path-27"><path class="cls-1" d="M-4003.35,1719l-30.18,21.17s15.89,20.64,30.18,20.64c4.39,0,19.7-6.63,30.18-20.64Z"/></clipPath><clipPath id="clip-path-28"><path class="cls-1" d="M-4069.19,1656.45a13.52,13.52,0,0,0-19.12,0,13.52,13.52,0,0,0,0,19.12,13.52,13.52,0,0,0,19.12,0,13.52,13.52,0,0,0,0-19.12"/></clipPath><clipPath id="clip-path-29"><path class="cls-1" d="M-3918.39,1656.45a13.52,13.52,0,0,0-19.12,0,13.52,13.52,0,0,0,0,19.12,13.52,13.52,0,0,0,19.12,0,13.52,13.52,0,0,0,0-19.12"/></clipPath><clipPath id="clip-path-30"><path class="cls-1" d="M-3988,1745.57c20.92-7.23,42.66-17.84,52.7-37.56,6.94-13.63,7.19-29.55,7.34-44.85.1-11,.2-22.2-1.46-33a80.56,80.56,0,0,0-3.84-15.41c-6.89-18.91-22.48-34.29-41.22-41.65a77,77,0,0,0-28.82-5.19l-13.38,116.58,13.38,64.31c.34,0,.67,0,1,0,4.91-.12,9.66-1.64,14.3-3.24"/></clipPath><clipPath id="clip-path-31"><path class="cls-1" d="M-4033.06,1573.93c-14,5.73-26.6,15.54-34.29,28.58-10.39,17.64-11.08,39.16-11,59.63.08,18.65.89,39.38,12.92,54.71s33.42,25.37,51.74,30.22a44.49,44.49,0,0,0,10.74,1.71l-5.47-65.8,16-5.47-10.54-109.63a81.81,81.81,0,0,0-30.11,6"/></clipPath><clipPath id="clip-path-32"><path class="cls-1" d="M-4024.85,1646.89a5.68,5.68,0,0,0-5.68-5.68,5.68,5.68,0,0,0-5.68,5.68,5.68,5.68,0,0,0,5.68,5.68,5.68,5.68,0,0,0,5.68-5.68"/></clipPath><clipPath id="clip-path-33"><path class="cls-1" d="M-3968.17,1646.89a5.68,5.68,0,0,0-5.68-5.68,5.68,5.68,0,0,0-5.68,5.68,5.68,5.68,0,0,0,5.68,5.68,5.68,5.68,0,0,0,5.68-5.68"/></clipPath><clipPath id="clip-path-34"><path class="cls-1" d="M-3949.08,1672.33c0,3.49-5.59,6.32-12.5,6.32s-12.5-2.83-12.5-6.32,5.6-6.32,12.5-6.32,12.5,2.83,12.5,6.32"/></clipPath><clipPath id="clip-path-35"><path class="cls-1" d="M-4054.9,1672.33c0,3.49,5.59,6.32,12.5,6.32s12.5-2.83,12.5-6.32-5.59-6.32-12.5-6.32-12.5,2.83-12.5,6.32"/></clipPath><clipPath id="clip-path-36"><polygon class="cls-1" points="-4008.82 1682.94 -3986.32 1682.94 -3992.82 1677.52 -4008.82 1682.94"/></clipPath><clipPath id="clip-path-37"><path class="cls-1" d="M-3936.44,1894.73h31.5l8,23.65c-7,12.09-22,14.25-22,14.25l-4.23-29.07H-3936a4.29,4.29,0,0,1-.45,0,4.44,4.44,0,0,1-4.44-4.44,4.44,4.44,0,0,1,4.44-4.44"/></clipPath><clipPath id="clip-path-38"><path class="cls-1" d="M-3969.73,1557.38v.63c-1.4,2.61-14.12,25.71-31.09,38.37-6.36,4.74-13.31,8-20.49,8.19h43c5.45.12,8.6,2.1,10.92,4.58,4.22,4.53,5.6,10.79,12.66,10.79a14.59,14.59,0,0,1,10.18,3.57c4.72,4.25,5.2,10.78,5.2,10.78V1666h11.8q0-1.94,0-3.86c0-3.18,0-6.38-.06-9.59a13.44,13.44,0,0,1,7.64,2.65l1.52,1.24s0,0,0,0l.19.23a272.17,272.17,0,0,0,1.88-29.41c0-34.92-22.12-60-53.41-69.85"/></clipPath><clipPath id="clip-path-39"><path class="cls-1" d="M-3989.18,1551.59a138.83,138.83,0,0,0-14.46,0c-2.54.13-5.09.32-7.62.6a103.49,103.49,0,0,0-11,1.79c-.34.08-1.08.36-1.84.61l-1.94.36h0a94.45,94.45,0,0,0-16.26,4.67c-28.22,11-47.71,35.09-47.66,67.84,0,6.94.65,19.13,1.67,27.6,0,.48,0,.92,0,1.4l.15-.12c0,.17,0,.37.06.53.12-.13.21-.28.34-.41a13.29,13.29,0,0,1,8.26-3.8c.41,0,.81-.09,1.22-.07-.06,3.2-.07,6.4-.06,9.57q0,1.92,0,3.86h11.8v-31.72a19.1,19.1,0,0,1,2.08-6.74l2.46-3.38.06-.08c2.29-2.34,5.72-3.53,10.78-4.16s7-6.29,11.45-10.56a16.9,16.9,0,0,1,12.13-4.82s27,.1,30.85,0c38.27-.86,53.1-26.93,58.85-41.24,1.28-3.18,2.11-5.79,2.64-7.4a30.72,30.72,0,0,0,1-4.32Z"/></clipPath><clipPath id="clip-path-40"><path class="cls-1" d="M-3939.39,1666c0,22.32-40.76,22.93-58.52,22.13H-4008c-17.76.79-58.52.18-58.52-22.13h-11.8c.21,17.61,1.68,36.57,12.89,50.84,11.95,15.23,33.42,25.37,51.74,30.22a44.44,44.44,0,0,0,10.74,1.71,44.44,44.44,0,0,0,10.74-1.71c18.31-4.86,39.79-15,51.74-30.22,11.2-14.27,12.67-33.24,12.89-50.84h-11.8Z"/></clipPath><clipPath id="clip-path-41"><path class="cls-1" d="M-4003.35,1731.73a34.8,34.8,0,0,0,34.8-34.8h-69.59a34.8,34.8,0,0,0,34.8,34.8"/></clipPath><clipPath id="clip-path-42"><path class="cls-1" d="M-3898.74,1740.11l-9.61,22.51a74.21,74.21,0,0,0-29.42-7.53,74.8,74.8,0,0,1,70.84,74.61,74.74,74.74,0,0,1-38,65l8,23.65a99.29,99.29,0,0,0,54.62-88.68,99.32,99.32,0,0,0-56.41-89.59"/></clipPath><clipPath id="clip-path-43"><path class="cls-1" d="M-4026,1664.69a1.7,1.7,0,0,0-1.71-1.7,1.7,1.7,0,0,0-1.7,1.7,1.71,1.71,0,0,0,1.7,1.7,1.71,1.71,0,0,0,1.71-1.7"/></clipPath><clipPath id="clip-path-44"><path class="cls-1" d="M-4039.7,1659.22a1.7,1.7,0,0,0-1.7-1.7,1.7,1.7,0,0,0-1.71,1.7,1.7,1.7,0,0,0,1.71,1.7,1.7,1.7,0,0,0,1.7-1.7"/></clipPath><clipPath id="clip-path-45"><path class="cls-1" d="M-4015.1,1659.22a1.7,1.7,0,0,0-1.7-1.7,1.7,1.7,0,0,0-1.71,1.7,1.7,1.7,0,0,0,1.71,1.7,1.7,1.7,0,0,0,1.7-1.7"/></clipPath><clipPath id="clip-path-46"><path class="cls-1" d="M-4037,1667.42a1.71,1.71,0,0,0-1.71-1.71,1.71,1.71,0,0,0-1.7,1.71,1.7,1.7,0,0,0,1.7,1.7,1.7,1.7,0,0,0,1.71-1.7"/></clipPath><clipPath id="clip-path-47"><path class="cls-1" d="M-4045.17,1672.89a1.71,1.71,0,0,0-1.71-1.71,1.71,1.71,0,0,0-1.7,1.71,1.7,1.7,0,0,0,1.7,1.7,1.7,1.7,0,0,0,1.71-1.7"/></clipPath><clipPath id="clip-path-48"><path class="cls-1" d="M-4020.57,1672.89a1.71,1.71,0,0,0-1.7-1.71,1.71,1.71,0,0,0-1.71,1.71,1.7,1.7,0,0,0,1.71,1.7,1.7,1.7,0,0,0,1.7-1.7"/></clipPath><clipPath id="clip-path-49"><path class="cls-1" d="M-3974.13,1664.69a1.7,1.7,0,0,1,1.7-1.7,1.7,1.7,0,0,1,1.71,1.7,1.71,1.71,0,0,1-1.71,1.7,1.71,1.71,0,0,1-1.7-1.7"/></clipPath><clipPath id="clip-path-50"><path class="cls-1" d="M-3960.47,1659.22a1.7,1.7,0,0,1,1.7-1.7,1.7,1.7,0,0,1,1.71,1.7,1.7,1.7,0,0,1-1.71,1.7,1.7,1.7,0,0,1-1.7-1.7"/></clipPath><clipPath id="clip-path-51"><path class="cls-1" d="M-3985.07,1659.22a1.7,1.7,0,0,1,1.7-1.7,1.7,1.7,0,0,1,1.71,1.7,1.7,1.7,0,0,1-1.71,1.7,1.7,1.7,0,0,1-1.7-1.7"/></clipPath><clipPath id="clip-path-52"><path class="cls-1" d="M-3963.2,1667.42a1.71,1.71,0,0,1,1.71-1.71,1.71,1.71,0,0,1,1.7,1.71,1.7,1.7,0,0,1-1.7,1.7,1.7,1.7,0,0,1-1.71-1.7"/></clipPath><clipPath id="clip-path-53"><path class="cls-1" d="M-3955,1672.89a1.71,1.71,0,0,1,1.7-1.71,1.71,1.71,0,0,1,1.71,1.71,1.7,1.7,0,0,1-1.71,1.7,1.7,1.7,0,0,1-1.7-1.7"/></clipPath><clipPath id="clip-path-54"><path class="cls-1" d="M-3979.6,1672.89a1.71,1.71,0,0,1,1.7-1.71,1.71,1.71,0,0,1,1.71,1.71,1.7,1.7,0,0,1-1.71,1.7,1.7,1.7,0,0,1-1.7-1.7"/></clipPath><clipPath id="clip-path-55"><path class="cls-1" d="M-4088.44,1932.63s-25.22,113.66,32.53,213.91h21.57s-98.92-175.77,30.49-175.77v-38.15Z"/></clipPath><clipPath id="clip-path-56"><path class="cls-1" d="M-3919.26,1932.63s25.22,113.66-32.53,213.91h-21.57s98.92-175.77-30.49-175.77v-38.15Z"/></clipPath><clipPath id="clip-path-57"><path class="cls-1" d="M-4028.37,2149.49a7.84,7.84,0,0,0-6.13-2.95h-21.42s-13.76,6.2-21.08-1.82a10.77,10.77,0,0,0-8.43-4.05,10.79,10.79,0,0,0-10.79,10.79,10.79,10.79,0,0,0,10.79,10.79h50.92a7.85,7.85,0,0,0,7.85-7.85,7.82,7.82,0,0,0-1.72-4.9"/></clipPath><clipPath id="clip-path-58"><path class="cls-1" d="M-3979.32,2149.49a7.84,7.84,0,0,1,6.13-2.95h21.42s13.76,6.2,21.08-1.82a10.77,10.77,0,0,1,8.43-4.05,10.79,10.79,0,0,1,10.79,10.79,10.79,10.79,0,0,1-10.79,10.79h-50.92a7.85,7.85,0,0,1-7.85-7.85,7.82,7.82,0,0,1,1.72-4.9"/></clipPath><clipPath id="clip-path-59"><path class="cls-1" d="M-4070.95,1894.73h-31.5l-8,23.65c7,12.09,22,14.25,22,14.25l4.23-29.07h12.82a4.29,4.29,0,0,0,.45,0,4.44,4.44,0,0,0,4.44-4.44,4.44,4.44,0,0,0-4.44-4.44"/></clipPath><clipPath id="clip-path-60"><rect class="cls-2" x="-3401.1" y="1583.35" width="92.62" height="181.23"/></clipPath><clipPath id="clip-path-61"><rect class="cls-2" x="-3312.43" y="1583.35" width="92.6" height="181.28"/></clipPath><clipPath id="clip-path-62"><path class="cls-1" d="M-3232.22,1945.94H-3388.9s-23.35,105.26,30.12,198.11h20s-91.61-162.78,28.24-162.78,28.24,162.78,28.24,162.78h20c53.48-92.85,30.12-198.11,30.12-198.11"/></clipPath><clipPath id="clip-path-63"><path class="cls-1" d="M-3388.9,1945.94s-23.35,105.26,30.12,198.11h20s-91.61-162.78,28.24-162.78v-35.33Z"/></clipPath><clipPath id="clip-path-64"><path class="cls-1" d="M-3232.22,1945.94s23.35,105.26-30.12,198.11h-20s91.61-162.78-28.24-162.78v-35.33Z"/></clipPath><clipPath id="clip-path-65"><path class="cls-1" d="M-3333.27,2146.78a7.26,7.26,0,0,0-5.68-2.73h-19.83s-12.75,5.74-19.52-1.68a10,10,0,0,0-7.8-3.75,10,10,0,0,0-10,10,10,10,0,0,0,10,10h47.16a7.27,7.27,0,0,0,7.27-7.27,7.24,7.24,0,0,0-1.59-4.54"/></clipPath><clipPath id="clip-path-66"><path class="cls-1" d="M-3287.84,2146.78a7.26,7.26,0,0,1,5.68-2.73h19.83s12.75,5.74,19.52-1.68a10,10,0,0,1,7.8-3.75,10,10,0,0,1,10,10,10,10,0,0,1-10,10h-47.16a7.27,7.27,0,0,1-7.27-7.27,7.25,7.25,0,0,1,1.59-4.54"/></clipPath><clipPath id="clip-path-67"><path class="cls-1" d="M-3219.83,1674a90.64,90.64,0,0,0-90.64-90.64c-.66,0-1.31,0-2,0l-23.15,76.29,23.15,104.88c.66,0,1.3.05,2,.05a90.64,90.64,0,0,0,90.64-90.64"/></clipPath><clipPath id="clip-path-68"><path class="cls-1" d="M-3400.14,1687.23s4.49,54.11-27.67,61.4c0,0,29.88,43.12,97.48,19.56l-9.73-45.54Z"/></clipPath><clipPath id="clip-path-69"><path class="cls-1" d="M-3220.92,1687.23s-4.49,54.11,27.67,61.4c0,0-29.88,43.12-97.48,19.56l9.73-45.54Z"/></clipPath><clipPath id="clip-path-70"><path class="cls-1" d="M-3459.33,1841.23a92.94,92.94,0,0,0-.51,9.62,91.72,91.72,0,0,0,50.46,81.92l7.37-21.85a69,69,0,0,1-35.11-60.07,69.21,69.21,0,0,1,.69-9.62Z"/></clipPath><clipPath id="clip-path-71"><path class="cls-1" d="M-3343.51,1762.46l-4.67,22.35a69.32,69.32,0,0,1,39.32,30.68l27.52,5.54a91.94,91.94,0,0,0-62.17-58.57"/></clipPath><clipPath id="clip-path-72"><path class="cls-1" d="M-3368.1,1759.11a91.75,91.75,0,0,0-91.24,82.12h22.91a69.11,69.11,0,0,1,68.33-59.39,68.71,68.71,0,0,1,19.92,3l4.67-22.35a91.75,91.75,0,0,0-24.58-3.35"/></clipPath><clipPath id="clip-path-73"><path class="cls-1" d="M-3310.93,1773.12l35.7-20.09s35.36,126.1,42.91,192.91h-78.61Z"/></clipPath><clipPath id="clip-path-74"><path class="cls-1" d="M-3302.25,1784.38a91.59,91.59,0,0,0-15.53,24.67l18.28,16.26a68.6,68.6,0,0,1,14.58-26.23l.47-.5-20.66-3.65Z"/></clipPath><clipPath id="clip-path-75"><path class="cls-1" d="M-3189.28,1762c-19.21-4.62-37.7-10.82-57.76-7.81a91.36,91.36,0,0,0-54.88,29.74l-.34.4-2.87,10.55,20.66,3.65A69.49,69.49,0,0,1-3230,1776c22.68,1.09,42.46,12.24,65.86,8.73a91.79,91.79,0,0,0,26.05-8l-10.57-20.21a69.51,69.51,0,0,1-40.63,5.48"/></clipPath><clipPath id="clip-path-76"><path class="cls-1" d="M-3310.46,1773.12l-35.7-20.09s-35.36,126.1-42.91,192.91h78.61Z"/></clipPath><clipPath id="clip-path-77"><path class="cls-1" d="M-3338.34,1768.18h6.33l-8-11.71-19.57,13.92,22.73,14-3.16,23,29.59,77.86v-85.74c-15.42-3.37-27.88-31.37-27.88-31.37"/></clipPath><clipPath id="clip-path-78"><path class="cls-1" d="M-3282.59,1768.18h-6.33l8-11.71,19.57,13.92-22.73,14,3.16,23-29.59,77.86v-85.74c15.42-3.37,27.88-31.37,27.88-31.37"/></clipPath><clipPath id="clip-path-79"><path class="cls-1" d="M-3310.46,1768.18h-27.88s12.46,28,27.88,31.37c15.42-3.37,27.88-31.37,27.88-31.37Z"/></clipPath><clipPath id="clip-path-80"><path class="cls-1" d="M-3310.46,1748.63l-27.88,19.56s14.68,19.07,27.88,19.07c4.06,0,18.2-6.12,27.88-19.07Z"/></clipPath><clipPath id="clip-path-81"><path class="cls-1" d="M-3371.29,1690.82a12.49,12.49,0,0,0-17.66,0,12.49,12.49,0,0,0,0,17.66,12.49,12.49,0,0,0,17.66,0,12.49,12.49,0,0,0,0-17.66"/></clipPath><clipPath id="clip-path-82"><path class="cls-1" d="M-3232,1690.82a12.49,12.49,0,0,0-17.66,0,12.49,12.49,0,0,0,0,17.66,12.49,12.49,0,0,0,17.66,0,12.49,12.49,0,0,0,0-17.66"/></clipPath><clipPath id="clip-path-83"><path class="cls-1" d="M-3296.32,1773.14c19.32-6.67,39.41-16.48,48.69-34.69,6.41-12.59,6.64-27.3,6.78-41.43.1-10.17.18-20.51-1.35-30.52a74.36,74.36,0,0,0-3.55-14.23c-6.36-17.47-20.77-31.68-38.08-38.47a71.17,71.17,0,0,0-26.62-4.79l-12.36,107.69,12.36,59.41c.31,0,.62,0,.93,0,4.53-.11,8.93-1.51,13.21-3"/></clipPath><clipPath id="clip-path-84"><path class="cls-1" d="M-3337.91,1614.59c-12.95,5.3-24.57,14.35-31.67,26.4-9.6,16.29-10.24,36.18-10.16,55.09.07,17.23.82,36.38,11.93,50.54s30.88,23.43,47.79,27.92a41.13,41.13,0,0,0,9.92,1.58l-5.05-60.78,14.78-5.05-9.73-101.27a75.59,75.59,0,0,0-27.82,5.57"/></clipPath><clipPath id="clip-path-85"><path class="cls-1" d="M-3330.32,1682a5.25,5.25,0,0,0-5.25-5.25,5.25,5.25,0,0,0-5.25,5.25,5.25,5.25,0,0,0,5.25,5.25,5.25,5.25,0,0,0,5.25-5.25"/></clipPath><clipPath id="clip-path-86"><path class="cls-1" d="M-3278,1682a5.25,5.25,0,0,0-5.25-5.25,5.25,5.25,0,0,0-5.25,5.25,5.25,5.25,0,0,0,5.25,5.25A5.25,5.25,0,0,0-3278,1682"/></clipPath><clipPath id="clip-path-87"><path class="cls-1" d="M-3260.33,1705.49c0,3.23-5.17,5.84-11.54,5.84s-11.54-2.61-11.54-5.84,5.17-5.84,11.54-5.84,11.54,2.61,11.54,5.84"/></clipPath><clipPath id="clip-path-88"><path class="cls-1" d="M-3358.09,1705.49c0,3.23,5.17,5.84,11.54,5.84s11.54-2.61,11.54-5.84-5.17-5.84-11.54-5.84-11.54,2.61-11.54,5.84"/></clipPath><clipPath id="clip-path-89"><polygon class="cls-1" points="-3315.51 1715.29 -3294.73 1715.29 -3300.73 1710.28 -3315.51 1715.29"/></clipPath><clipPath id="clip-path-90"><path class="cls-1" d="M-3402,1910.93h29.1v8.16h-12.25l-3.91,26.85s-13.85-2-20.31-13.16Z"/></clipPath><clipPath id="clip-path-91"><path class="cls-1" d="M-3372.91,1910.93a4.1,4.1,0,0,1,4.1,4.1,4.1,4.1,0,0,1-4.1,4.1,4.1,4.1,0,0,1-4.1-4.1,4.1,4.1,0,0,1,4.1-4.1"/></clipPath><clipPath id="clip-path-92"><path class="cls-1" d="M-3082.71,1677.57a18.41,18.41,0,0,0,1-6,18.46,18.46,0,0,0-18.46-18.46,18.46,18.46,0,0,0-18.46,18.46,18.37,18.37,0,0,0,3.07,10.18h0l0,.07.1.14,6.55,9.69a68.76,68.76,0,0,1-17.36,48.25,68.39,68.39,0,0,1-22.41,16.63l10.57,20.21a91.4,91.4,0,0,0,28.82-21.74c16.44-18.49,23.06-40.44,22.13-63.35l4.42-14.12Z"/></clipPath><clipPath id="clip-path-93"><path class="cls-1" d="M-3114.43,1633.09a4.21,4.21,0,0,0-4.21,4.21v39.35h8.42V1637.3a4.21,4.21,0,0,0-4.21-4.21"/></clipPath><clipPath id="clip-path-94"><path class="cls-1" d="M-3094,1667.45h-25.65a1.52,1.52,0,0,0-1.5,1.19,22,22,0,0,0-.45,4.41,25.73,25.73,0,0,0,1.14,7.59c1.6,5.1,9.21,2.82,9.3-2.52a1.52,1.52,0,0,1,1.52-1.49h15.6v-.08h0c2.8,0,5.08-1.73,5.08-4.53s-2.27-4.57-5.08-4.57"/></clipPath><clipPath id="clip-path-95"><path class="cls-1" d="M-3310.46,1760.36a32.14,32.14,0,0,0,32.14-32.14h-64.29a32.15,32.15,0,0,0,32.15,32.14"/></clipPath><clipPath id="clip-path-96"><path class="cls-1" d="M-3309.48,1644.32s-22.51,29.66-85.35,47.36c0,0-15.15-100.46,85.35-90.09Z"/></clipPath><clipPath id="clip-path-97"><path class="cls-1" d="M-3311.45,1644.32s22.51,29.66,85.35,47.36c0,0,15.15-101.71-85.35-91.34Z"/></clipPath><clipPath id="clip-path-98"><path class="cls-1" d="M-1563.88,1786.16s-71.17-123.23-201.91-52.61c-143.17,77.33-41.57,221-41.57,221S-1739,2048-1482.22,2030V2167.3s-380,70.95-471.62-212.8c-96.89-300.22,184.9-369.12,184.9-369.12s200-50.48,317.53,134.63Z"/></clipPath><clipPath id="clip-path-99"><path class="cls-1" d="M-1112.23,1786.16s71.17-123.23,201.91-52.61c143.17,77.33,41.57,221,41.57,221S-937.07,2048-1193.9,2030V2167.3s380,70.95,471.62-212.8c96.89-300.22-184.9-369.12-184.9-369.12s-200-50.48-317.53,134.63Z"/></clipPath><clipPath id="clip-path-100"><polygon class="cls-1" points="-1337.94 1613.57 -1830.07 1897.88 -1830.07 1968.96 -1337.94 2253.28 -845.82 1968.96 -845.82 1897.88 -1337.94 1613.57"/></clipPath><clipPath id="clip-path-101"><polygon class="cls-1" points="-1337.94 2253.28 -1830.07 1968.96 -1830.07 1897.88 -1337.94 2182.2 -1337.94 2253.28"/></clipPath><clipPath id="clip-path-102"><polygon class="cls-1" points="-1337.94 2253.28 -845.82 1968.96 -845.82 1897.88 -1337.94 2182.2 -1337.94 2253.28"/></clipPath><clipPath id="clip-path-103"><polygon class="cls-1" points="-1337.98 2253.69 -1830.61 1969.09 -1830.61 1897.94 -1337.98 2182.54 -1337.98 2253.69"/></clipPath><clipPath id="clip-path-104"><polygon class="cls-1" points="-1091.67 2253.69 -845.36 2253.69 -845.36 1897.94 -1337.98 1897.94 -1337.98 2253.69 -1091.67 2253.69"/></clipPath><clipPath id="clip-path-105"><polygon class="cls-1" points="-1276.41 2004.66 -1522.72 1862.36 -1522.72 1648.9 -1276.41 1791.21 -1276.41 2004.66"/></clipPath><clipPath id="clip-path-106"><polygon class="cls-1" points="-1175.29 1636.65 -1276.41 1791.19 -1276.41 2004.64 -1091.67 1897.91 -1091.67 1684.48 -1175.29 1636.65"/></clipPath><clipPath id="clip-path-107"><polygon class="cls-1" points="-1539.52 1673.92 -1430.41 1488.78 -1175.29 1636.65 -1293.2 1816.23 -1539.52 1673.92"/></clipPath><clipPath id="clip-path-108"><polygon class="cls-1" points="-1214.86 1969.09 -1214.86 1826.76 -1153.25 1791.21 -1153.25 1933.49 -1214.86 1969.09"/></clipPath><clipPath id="clip-path-109"><polygon class="cls-1" points="-1368.78 1808.86 -1368.78 1880.02 -1307.2 1915.59 -1307.19 1844.44 -1368.78 1808.86"/></clipPath><clipPath id="clip-path-110"><polygon class="cls-1" points="-1491.7 1737.84 -1491.7 1809 -1430.12 1844.57 -1430.12 1773.42 -1491.7 1737.84"/></clipPath><clipPath id="clip-path-111"><rect class="cls-2" x="-1830.61" y="1424.22" width="985.25" height="829.47"/></clipPath><clipPath id="clip-path-112"><path class="cls-1" d="M-1606.24,1829.07h-93.33s-13.91,62.74,17.94,118.08h11.9s-54.57-97,16.82-97,16.82,97,16.82,97h11.9c31.85-55.34,17.94-118.08,17.94-118.08"/></clipPath><clipPath id="clip-path-113"><path class="cls-1" d="M-1618.48,1717.44h-.11a54.8,54.8,0,0,0-51.81,37l.26-.05a54.79,54.79,0,0,1,51.65-36.94"/></clipPath><clipPath id="clip-path-114"><path class="cls-1" d="M-1616.23,1717.49l1.5,0c-.5,0-1,0-1.5,0"/></clipPath><clipPath id="clip-path-115"><path class="cls-1" d="M-1618.45,1731a15.32,15.32,0,0,1,1.88.14,15.45,15.45,0,0,0-1.77-.15h-.11"/></clipPath><clipPath id="clip-path-116"><path class="cls-1" d="M-1618.35,1717.43h-.13a18.38,18.38,0,0,1,2.25.18,18.12,18.12,0,0,0-2.12-.18"/></clipPath><clipPath id="clip-path-117"><path class="cls-1" d="M-1615.94,1731.08l-.77,0,.77,0"/></clipPath><clipPath id="clip-path-118"><path class="cls-1" d="M-1654,1751.12l-16.17,3.26,0,.05,16.44-3.31a41.22,41.22,0,0,1,35.27-20.1h-.14a41.22,41.22,0,0,0-35.37,20.1"/></clipPath><clipPath id="clip-path-119"><path class="cls-1" d="M-1594.89,1722.71a54.47,54.47,0,0,0-20.86-5.2,54.45,54.45,0,0,1,20.82,5.29Z"/></clipPath><clipPath id="clip-path-120"><path class="cls-1" d="M-1594.92,1722.8a54.45,54.45,0,0,0-20.82-5.29h-.49c-.75,0-1.5-.06-2.25-.06a54.79,54.79,0,0,0-51.65,36.94l16.17-3.26a41.22,41.22,0,0,1,35.37-20.1h.24c.55,0,1.1,0,1.64,0h.25a40.91,40.91,0,0,1,16.23,4.16Z"/></clipPath><clipPath id="clip-path-121"><path class="cls-1" d="M-1687,1717.43a54.53,54.53,0,0,0-23.46,5.28l5.34,12.52A40.93,40.93,0,0,1-1687,1731a41.22,41.22,0,0,1,35.37,20.1l16.44,3.31a54.8,54.8,0,0,0-51.81-37"/></clipPath><clipPath id="clip-path-122"><path class="cls-1" d="M-1741.83,1772.25a54.81,54.81,0,0,0,30.13,49l4.4-13.06a41.26,41.26,0,0,1-21-35.9,41.29,41.29,0,0,1,23.09-37l-5.34-12.52a54.82,54.82,0,0,0-31.32,49.54"/></clipPath><clipPath id="clip-path-123"><path class="cls-1" d="M-1699.5,1676.62s1.23,21.15,11,28.13l-1.57-13.51Z"/></clipPath><clipPath id="clip-path-124"><path class="cls-1" d="M-1605.76,1676.62s-1.23,21.15-11,28.13l1.57-13.51Z"/></clipPath><clipPath id="clip-path-125"><path class="cls-1" d="M-1652.63,1725.8l-21.32-12s-21.11,75.35-25.62,115.27h46.94Z"/></clipPath><clipPath id="clip-path-126"><path class="cls-1" d="M-1652.91,1725.8l21.32-12s21.11,75.35,25.62,115.27h-46.94Z"/></clipPath><clipPath id="clip-path-127"><path class="cls-1" d="M-1652.63,1722.85h-16.65s7.44,16.73,16.65,18.75c9.21-2,16.65-18.75,16.65-18.75Z"/></clipPath><clipPath id="clip-path-128"><path class="cls-1" d="M-1652.63,1711.17l-16.65,11.69s8.76,11.39,16.65,11.39c2.42,0,10.86-3.66,16.65-11.39Z"/></clipPath><clipPath id="clip-path-129"><path class="cls-1" d="M-1689,1676.62a7.45,7.45,0,0,0-10.55,0,7.46,7.46,0,0,0,0,10.55,7.45,7.45,0,0,0,10.55,0,7.47,7.47,0,0,0,0-10.55"/></clipPath><clipPath id="clip-path-130"><path class="cls-1" d="M-1605.76,1676.62a7.45,7.45,0,0,0-10.55,0,7.47,7.47,0,0,0,0,10.55,7.45,7.45,0,0,0,10.55,0,7.47,7.47,0,0,0,0-10.55"/></clipPath><clipPath id="clip-path-131"><path class="cls-1" d="M-1644.18,1725.81c11.54-4,23.53-9.85,29.07-20.73,3.83-7.52,4-16.31,4-24.75a113.94,113.94,0,0,0-.81-18.24,44.5,44.5,0,0,0-2.12-8.5,39.86,39.86,0,0,0-22.74-23,42.46,42.46,0,0,0-15.9-2.86l-7.38,64.35,7.38,35.5.56,0a26.43,26.43,0,0,0,7.89-1.79"/></clipPath><clipPath id="clip-path-132"><path class="cls-1" d="M-1669,1631.07a38.89,38.89,0,0,0-18.91,15.78c-5.73,9.73-6.11,21.62-6.07,32.92,0,10.3.49,21.74,7.13,30.2s18.44,14,28.54,16.68a24.53,24.53,0,0,0,5.92.95l-3-36.32,8.83-3-5.81-60.52a45.1,45.1,0,0,0-16.61,3.33"/></clipPath><clipPath id="clip-path-133"><path class="cls-1" d="M-1664.49,1671.34a3.14,3.14,0,0,0-3.14-3.14,3.14,3.14,0,0,0-3.14,3.14,3.14,3.14,0,0,0,3.14,3.14,3.14,3.14,0,0,0,3.14-3.14"/></clipPath><clipPath id="clip-path-134"><path class="cls-1" d="M-1633.22,1671.34a3.14,3.14,0,0,0-3.14-3.14,3.14,3.14,0,0,0-3.13,3.14,3.14,3.14,0,0,0,3.13,3.14,3.14,3.14,0,0,0,3.14-3.14"/></clipPath><clipPath id="clip-path-135"><path class="cls-1" d="M-1622.69,1685.39c0,1.93-3.09,3.49-6.89,3.49s-6.89-1.56-6.89-3.49,3.09-3.49,6.89-3.49,6.89,1.56,6.89,3.49"/></clipPath><clipPath id="clip-path-136"><path class="cls-1" d="M-1681.07,1685.39c0,1.93,3.09,3.49,6.89,3.49s6.89-1.56,6.89-3.49-3.09-3.49-6.89-3.49-6.89,1.56-6.89,3.49"/></clipPath><clipPath id="clip-path-137"><polygon class="cls-1" points="-1655.65 1691.25 -1643.24 1691.25 -1646.82 1688.25 -1655.65 1691.25"/></clipPath><clipPath id="clip-path-138"><path class="cls-1" d="M-1615.72,1808.15h17.38l4.4,13.06c-3.86,6.67-12.13,7.87-12.13,7.87l-2.33-16h-7.07l-.25,0a2.45,2.45,0,0,1-2.45-2.45,2.45,2.45,0,0,1,2.45-2.45"/></clipPath><clipPath id="clip-path-139"><path class="cls-1" d="M-1634.08,1621.93v.35c-.77,1.44-7.79,14.19-17.15,21.18-3.51,2.62-7.34,4.43-11.3,4.52h23.73a7.83,7.83,0,0,1,6,2.53c2.33,2.5,3.09,6,7,6a8,8,0,0,1,5.61,2,9.82,9.82,0,0,1,2.87,6v17.51h6.51q0-1.07,0-2.13c0-1.75,0-3.52,0-5.29a7.41,7.41,0,0,1,4.22,1.46l.84.69v0l.1.13a150.36,150.36,0,0,0,1-16.23c0-19.28-12.2-33.14-29.46-38.56"/></clipPath><clipPath id="clip-path-140"><path class="cls-1" d="M-1644.81,1618.74a76.57,76.57,0,0,0-8,0c-1.4.07-2.81.18-4.2.33a57.15,57.15,0,0,0-6.07,1c-.19,0-.6.2-1,.34l-1.07.2h0a52,52,0,0,0-9,2.58c-15.57,6.05-26.32,19.37-26.29,37.45,0,3.83.36,10.56.92,15.24,0,.26,0,.51,0,.77l.08-.07,0,.29c.07-.07.12-.16.19-.23a7.33,7.33,0,0,1,4.55-2.1c.22,0,.45,0,.67,0,0,1.77,0,3.53,0,5.28,0,.71,0,1.42,0,2.13h6.51v-17.51a10.55,10.55,0,0,1,1.15-3.72l1.36-1.86,0,0c1.26-1.29,3.16-1.95,5.95-2.3s3.88-3.47,6.32-5.83A9.32,9.32,0,0,1-1666,1648s14.89.05,17,0c21.11-.48,29.29-14.87,32.46-22.77.7-1.76,1.16-3.2,1.46-4.09a17,17,0,0,0,.54-2.38Z"/></clipPath><clipPath id="clip-path-141"><path class="cls-1" d="M-1617.34,1681.9c0,12.32-22.48,12.66-32.28,12.22h-5.56c-9.8.44-32.28.1-32.28-12.22H-1694c.12,9.72.93,20.19,7.11,28.06,6.59,8.4,18.44,14,28.54,16.68a24.5,24.5,0,0,0,5.92.95,24.5,24.5,0,0,0,5.92-.95c10.1-2.68,21.95-8.28,28.54-16.68,6.18-7.88,7-18.35,7.11-28.06h-6.51Z"/></clipPath><clipPath id="clip-path-142"><path class="cls-1" d="M-1652.63,1718.18a19.2,19.2,0,0,0,19.2-19.21h-38.39a19.2,19.2,0,0,0,19.2,19.21"/></clipPath><clipPath id="clip-path-143"><path class="cls-1" d="M-1594.92,1722.8l-5.3,12.43a40.91,40.91,0,0,0-16.23-4.16,41.28,41.28,0,0,1,39.08,41.18,41.26,41.26,0,0,1-21,35.9l4.4,13.06a54.81,54.81,0,0,0,30.13-49,54.83,54.83,0,0,0-31.12-49.45"/></clipPath><clipPath id="clip-path-144"><path class="cls-1" d="M-1665.14,1681.17a.94.94,0,0,0-.94-.94.94.94,0,0,0-.94.94.94.94,0,0,0,.94.94.94.94,0,0,0,.94-.94"/></clipPath><clipPath id="clip-path-145"><path class="cls-1" d="M-1672.68,1678.15a.94.94,0,0,0-.94-.94.94.94,0,0,0-.94.94.94.94,0,0,0,.94.94.94.94,0,0,0,.94-.94"/></clipPath><clipPath id="clip-path-146"><path class="cls-1" d="M-1659.11,1678.15a.94.94,0,0,0-.94-.94.94.94,0,0,0-.94.94.94.94,0,0,0,.94.94.94.94,0,0,0,.94-.94"/></clipPath><clipPath id="clip-path-147"><path class="cls-1" d="M-1671.18,1682.68a.94.94,0,0,0-.94-.94.94.94,0,0,0-.94.94.94.94,0,0,0,.94.94.94.94,0,0,0,.94-.94"/></clipPath><clipPath id="clip-path-148"><path class="cls-1" d="M-1675.7,1685.7a.94.94,0,0,0-.94-.94.94.94,0,0,0-.94.94.94.94,0,0,0,.94.94.94.94,0,0,0,.94-.94"/></clipPath><clipPath id="clip-path-149"><path class="cls-1" d="M-1662.13,1685.7a.94.94,0,0,0-.94-.94.94.94,0,0,0-.94.94.94.94,0,0,0,.94.94.94.94,0,0,0,.94-.94"/></clipPath><clipPath id="clip-path-150"><path class="cls-1" d="M-1636.51,1681.17a.94.94,0,0,1,.94-.94.94.94,0,0,1,.94.94.94.94,0,0,1-.94.94.94.94,0,0,1-.94-.94"/></clipPath><clipPath id="clip-path-151"><path class="cls-1" d="M-1629,1678.15a.94.94,0,0,1,.94-.94.94.94,0,0,1,.94.94.94.94,0,0,1-.94.94.94.94,0,0,1-.94-.94"/></clipPath><clipPath id="clip-path-152"><path class="cls-1" d="M-1642.54,1678.15a.94.94,0,0,1,.94-.94.94.94,0,0,1,.94.94.94.94,0,0,1-.94.94.94.94,0,0,1-.94-.94"/></clipPath><clipPath id="clip-path-153"><path class="cls-1" d="M-1630.48,1682.68a.94.94,0,0,1,.94-.94.94.94,0,0,1,.94.94.94.94,0,0,1-.94.94.94.94,0,0,1-.94-.94"/></clipPath><clipPath id="clip-path-154"><path class="cls-1" d="M-1626,1685.7a.94.94,0,0,1,.94-.94.94.94,0,0,1,.94.94.94.94,0,0,1-.94.94.94.94,0,0,1-.94-.94"/></clipPath><clipPath id="clip-path-155"><path class="cls-1" d="M-1639.53,1685.7a.94.94,0,0,1,.94-.94.94.94,0,0,1,.94.94.94.94,0,0,1-.94.94.94.94,0,0,1-.94-.94"/></clipPath><clipPath id="clip-path-156"><path class="cls-1" d="M-1699.57,1829.07s-13.91,62.74,17.94,118.08h11.9s-54.57-97,16.82-97v-21.06Z"/></clipPath><clipPath id="clip-path-157"><path class="cls-1" d="M-1606.24,1829.07s13.91,62.74-17.94,118.08h-11.9s54.57-97-16.82-97v-21.06Z"/></clipPath><clipPath id="clip-path-158"><path class="cls-1" d="M-1666.43,1948.78a4.32,4.32,0,0,0-3.38-1.63h-11.81s-7.59,3.42-11.63-1a5.94,5.94,0,0,0-4.65-2.24,6,6,0,0,0-6,6,6,6,0,0,0,6,6h28.09a4.33,4.33,0,0,0,4.33-4.33,4.32,4.32,0,0,0-.95-2.71"/></clipPath><clipPath id="clip-path-159"><path class="cls-1" d="M-1639.38,1948.78a4.32,4.32,0,0,1,3.38-1.63h11.81s7.59,3.42,11.63-1a5.94,5.94,0,0,1,4.65-2.24,6,6,0,0,1,6,6,6,6,0,0,1-6,6H-1636a4.33,4.33,0,0,1-4.33-4.33,4.32,4.32,0,0,1,.95-2.71"/></clipPath><clipPath id="clip-path-160"><path class="cls-1" d="M-1689.92,1808.15h-17.38l-4.4,13.06c3.86,6.67,12.13,7.87,12.13,7.87l2.33-16h7.07l.25,0a2.45,2.45,0,0,0,2.45-2.45,2.45,2.45,0,0,0-2.45-2.45"/></clipPath><clipPath id="clip-path-161"><rect class="cls-2" x="-1574.83" y="1632.87" width="51.09" height="100.04"/></clipPath><clipPath id="clip-path-162"><rect class="cls-2" x="-1525.91" y="1632.87" width="51.08" height="100.07"/></clipPath><clipPath id="clip-path-163"><path class="cls-1" d="M-1481.67,1833h-86.43s-12.88,58.1,16.62,109.36h11s-50.53-89.86,15.58-89.86,15.58,89.86,15.58,89.86h11c29.5-51.25,16.62-109.36,16.62-109.36"/></clipPath><clipPath id="clip-path-164"><path class="cls-1" d="M-1568.1,1833s-12.88,58.1,16.62,109.36h11s-50.53-89.86,15.58-89.86V1833Z"/></clipPath><clipPath id="clip-path-165"><path class="cls-1" d="M-1481.67,1833s12.88,58.1-16.62,109.36h-11s50.53-89.86-15.58-89.86V1833Z"/></clipPath><clipPath id="clip-path-166"><path class="cls-1" d="M-1537.41,1943.89a4,4,0,0,0-3.13-1.51h-10.94s-7,3.17-10.77-.93a5.5,5.5,0,0,0-4.3-2.07,5.51,5.51,0,0,0-5.51,5.51,5.51,5.51,0,0,0,5.51,5.51h26a4,4,0,0,0,4-4,4,4,0,0,0-.88-2.51"/></clipPath><clipPath id="clip-path-167"><path class="cls-1" d="M-1512.35,1943.89a4,4,0,0,1,3.13-1.51h10.94s7,3.17,10.77-.93a5.5,5.5,0,0,1,4.3-2.07,5.51,5.51,0,0,1,5.51,5.51,5.51,5.51,0,0,1-5.51,5.51h-26a4,4,0,0,1-4-4,4,4,0,0,1,.88-2.51"/></clipPath><clipPath id="clip-path-168"><path class="cls-1" d="M-1474.83,1682.91a50,50,0,0,0-50-50l-1.08,0-12.77,42.11,12.77,57.9,1.08,0a50,50,0,0,0,50-50"/></clipPath><clipPath id="clip-path-169"><path class="cls-1" d="M-1574.3,1690.22s2.48,29.87-15.26,33.89c0,0,16.48,23.8,53.78,10.8l-5.37-25.14Z"/></clipPath><clipPath id="clip-path-170"><path class="cls-1" d="M-1475.43,1690.22s-2.48,29.87,15.26,33.89c0,0-16.48,23.8-53.77,10.8l5.37-25.14Z"/></clipPath><clipPath id="clip-path-171"><path class="cls-1" d="M-1607,1775.23a51.3,51.3,0,0,0-.28,5.31,50.63,50.63,0,0,0,27.84,45.22l4.07-12.06a38.12,38.12,0,0,1-19.37-33.16,38.27,38.27,0,0,1,.38-5.31Z"/></clipPath><clipPath id="clip-path-172"><path class="cls-1" d="M-1579.57,1810.9a7.32,7.32,0,0,0-1.68-6.37c-1.68-1.73-3.37-3.54-7.15-3.06a38.28,38.28,0,0,1-8.33,9.91c-.14,2.32-1.47,6.24,0,7.73s6.54,1.21,8.81,1.21a50.77,50.77,0,0,0,8.35-9.42"/></clipPath><clipPath id="clip-path-173"><path class="cls-1" d="M-1543.06,1731.74l-2.57,12.34a38.24,38.24,0,0,1,21.69,16.93l15.18,3.06a50.73,50.73,0,0,0-34.3-32.33"/></clipPath><clipPath id="clip-path-174"><path class="cls-1" d="M-1556.62,1729.9a50.63,50.63,0,0,0-50.33,45.33h12.64a38.13,38.13,0,0,1,37.69-32.78,37.88,37.88,0,0,1,11,1.64l2.57-12.34a50.58,50.58,0,0,0-13.56-1.85"/></clipPath><clipPath id="clip-path-175"><path class="cls-1" d="M-1525.08,1737.63l19.69-11.09s19.51,69.61,23.67,106.49h-43.36Z"/></clipPath><clipPath id="clip-path-176"><path class="cls-1" d="M-1520.3,1743.84a50.56,50.56,0,0,0-8.57,13.62l10.08,9a37.87,37.87,0,0,1,8-14.48l.26-.27-11.4-2Z"/></clipPath><clipPath id="clip-path-177"><path class="cls-1" d="M-1458,1731.52c-10.6-2.55-20.79-6-31.86-4.31a50.39,50.39,0,0,0-30.27,16.42l-.19.22-1.58,5.83,11.4,2a38.32,38.32,0,0,1,30-12.44c12.51.6,23.42,6.76,36.33,4.82a50.61,50.61,0,0,0,14.37-4.41l-5.83-11.16a38.32,38.32,0,0,1-22.41,3"/></clipPath><clipPath id="clip-path-178"><path class="cls-1" d="M-1524.83,1737.63l-19.69-11.09s-19.51,69.61-23.67,106.49h43.36Z"/></clipPath><clipPath id="clip-path-179"><path class="cls-1" d="M-1540.21,1734.9h3.49l-4.44-6.46-10.8,7.68,12.54,7.72-1.74,12.72,16.32,43v-47.33c-8.51-1.86-15.38-17.32-15.38-17.32"/></clipPath><clipPath id="clip-path-180"><path class="cls-1" d="M-1509.45,1734.9h-3.49l4.44-6.46,10.8,7.68-12.54,7.72,1.74,12.72-16.32,43v-47.33c8.51-1.86,15.38-17.32,15.38-17.32"/></clipPath><clipPath id="clip-path-181"><path class="cls-1" d="M-1524.83,1734.9h-15.38s6.87,15.46,15.38,17.32c8.51-1.86,15.38-17.32,15.38-17.32Z"/></clipPath><clipPath id="clip-path-182"><path class="cls-1" d="M-1524.83,1724.11l-15.38,10.8s8.1,10.52,15.38,10.52c2.24,0,10-3.38,15.38-10.52Z"/></clipPath><clipPath id="clip-path-183"><path class="cls-1" d="M-1558.38,1692.2a6.88,6.88,0,0,0-9.74,0,6.9,6.9,0,0,0,0,9.75,6.89,6.89,0,0,0,9.74,0,6.9,6.9,0,0,0,0-9.75"/></clipPath><clipPath id="clip-path-184"><path class="cls-1" d="M-1481.54,1692.2a6.88,6.88,0,0,0-9.74,0,6.9,6.9,0,0,0,0,9.75,6.89,6.89,0,0,0,9.74,0,6.9,6.9,0,0,0,0-9.75"/></clipPath><clipPath id="clip-path-185"><path class="cls-1" d="M-1517,1737.64c10.66-3.68,21.74-9.1,26.86-19.15,3.54-6.95,3.67-15.07,3.74-22.87a105.25,105.25,0,0,0-.75-16.85,41,41,0,0,0-2-7.86,36.82,36.82,0,0,0-21-21.24,39.23,39.23,0,0,0-14.69-2.65l-6.82,59.45,6.82,32.79.51,0a24.41,24.41,0,0,0,7.29-1.65"/></clipPath><clipPath id="clip-path-186"><path class="cls-1" d="M-1540,1650.12a35.93,35.93,0,0,0-17.47,14.58c-5.3,9-5.65,20-5.6,30.41,0,9.51.45,20.08,6.58,27.9s17,12.93,26.37,15.41a22.67,22.67,0,0,0,5.47.87l-2.79-33.55,8.15-2.79-5.37-55.9a41.67,41.67,0,0,0-15.34,3.08"/></clipPath><clipPath id="clip-path-187"><path class="cls-1" d="M-1535.78,1687.32a2.9,2.9,0,0,0-2.9-2.9,2.9,2.9,0,0,0-2.9,2.9,2.9,2.9,0,0,0,2.9,2.9,2.9,2.9,0,0,0,2.9-2.9"/></clipPath><clipPath id="clip-path-188"><path class="cls-1" d="M-1506.9,1687.32a2.9,2.9,0,0,0-2.9-2.9,2.9,2.9,0,0,0-2.9,2.9,2.9,2.9,0,0,0,2.9,2.9,2.9,2.9,0,0,0,2.9-2.9"/></clipPath><clipPath id="clip-path-189"><path class="cls-1" d="M-1497.17,1700.3c0,1.78-2.85,3.22-6.37,3.22s-6.37-1.44-6.37-3.22,2.85-3.22,6.37-3.22,6.37,1.44,6.37,3.22"/></clipPath><clipPath id="clip-path-190"><path class="cls-1" d="M-1551.1,1700.3c0,1.78,2.85,3.22,6.37,3.22s6.37-1.44,6.37-3.22-2.85-3.22-6.37-3.22-6.37,1.44-6.37,3.22"/></clipPath><clipPath id="clip-path-191"><polygon class="cls-1" points="-1527.62 1705.71 -1516.15 1705.71 -1519.46 1702.94 -1527.62 1705.71"/></clipPath><clipPath id="clip-path-192"><path class="cls-1" d="M-1575.33,1813.7h16.05v4.5H-1566l-2.16,14.82s-7.64-1.1-11.2-7.27Z"/></clipPath><clipPath id="clip-path-193"><path class="cls-1" d="M-1559.28,1813.7A2.26,2.26,0,0,1-1557,1816a2.26,2.26,0,0,1-2.26,2.26,2.26,2.26,0,0,1-2.26-2.26,2.26,2.26,0,0,1,2.26-2.26"/></clipPath><clipPath id="clip-path-194"><path class="cls-1" d="M-1399.19,1684.88a10.18,10.18,0,0,0,.55-3.29,10.19,10.19,0,0,0-10.18-10.19,10.19,10.19,0,0,0-10.19,10.19,10.14,10.14,0,0,0,1.69,5.62h0l0,0,.05.08,3.61,5.35a38,38,0,0,1-9.58,26.63,37.73,37.73,0,0,1-12.36,9.18l5.83,11.16a50.43,50.43,0,0,0,15.9-12c9.07-10.2,12.72-22.32,12.21-35l2.44-7.79Z"/></clipPath><clipPath id="clip-path-195"><path class="cls-1" d="M-1416.69,1660.33a2.32,2.32,0,0,0-2.32,2.32v21.72h4.64v-21.72a2.32,2.32,0,0,0-2.32-2.32"/></clipPath><clipPath id="clip-path-196"><path class="cls-1" d="M-1405.42,1679.3h-14.15a.84.84,0,0,0-.83.66,12.17,12.17,0,0,0-.25,2.43,14.2,14.2,0,0,0,.63,4.19c.88,2.81,5.08,1.56,5.13-1.39a.84.84,0,0,1,.84-.82h8.6v0h0a2.56,2.56,0,0,0,2.8-2.5,2.58,2.58,0,0,0-2.8-2.52"/></clipPath><clipPath id="clip-path-197"><path class="cls-1" d="M-1524.83,1730.59a17.74,17.74,0,0,0,17.73-17.74h-35.46a17.74,17.74,0,0,0,17.73,17.74"/></clipPath><clipPath id="clip-path-198"><path class="cls-1" d="M-1524.29,1666.53s-12.42,16.37-47.08,26.15c0,0-8.36-55.46,47.08-49.73Z"/></clipPath><clipPath id="clip-path-199"><path class="cls-1" d="M-1525.37,1666.53s12.42,16.37,47.08,26.15c0,0,8.36-56.14-47.08-50.42Z"/></clipPath><clipPath id="clip-path-200"><path class="cls-1" d="M-835.28,1829c10,64.16-33.48,125.61-33.48,125.61S-937.07,2048-1193.9,2030V2167.3s380,70.95,471.62-212.8c17.3-53.61,22.53-99.84,19.44-139.63-14.2-183-204.34-229.5-204.34-229.5S-840.56,1795-835.28,1829Z"/></clipPath><clipPath id="clip-path-201"><path class="cls-1" d="M-1193.49,2029.13l-166.27-56-15.68,46.66,70,23.57-29.29,161.06s83,15.21,141.35-36.21Z"/></clipPath><clipPath id="clip-path-202"><path class="cls-1" d="M-1391.07,1988.73a24.74,24.74,0,0,0,15.55,31.33,24.72,24.72,0,0,0,31.31-15.56,24.74,24.74,0,0,0-15.55-31.33,24.72,24.72,0,0,0-31.31,15.56"/></clipPath><clipPath id="clip-path-203"><path class="cls-1" d="M-1305.41,2043.4-1457.15,2008l-40.35,153.46s120.38,50.91,189.46,45.13l28.61-66.14Z"/></clipPath><clipPath id="clip-path-204"><path class="cls-1" d="M-1497.5,2161.43c25.73,6.57,55.4-22.63,66.27-65.23s-1.18-82.46-26.91-89-55.4,22.63-66.27,65.23,1.18,82.46,26.91,89"/></clipPath><clipPath id="clip-path-205"><path class="cls-1" d="M-1836.26,1810c-23.52,70.42,28.9,144.55,28.9,144.55S-1739,2048-1482.22,2030V2167.3s-380,70.95-471.62-212.8c-29.51-91.45-23.89-161.44-1.8-214.55,50.43-121.26,186.7-154.58,186.7-154.58S-1827,1782.39-1836.26,1810Z"/></clipPath><clipPath id="clip-path-206"><path class="cls-1" d="M-1481.43,2031.38l175.31,6.16-1.73,49.19-73.84-2.59-29.22,161.07s-74-13.36-113-72.66c-2.31-3.5,42.52-141.17,42.52-141.17"/></clipPath><clipPath id="clip-path-207"><path class="cls-1" d="M-1282.28,2063.13a24.73,24.73,0,0,1-25.57,23.85,24.73,24.73,0,0,1-23.84-25.59,24.73,24.73,0,0,1,25.58-23.86,24.73,24.73,0,0,1,23.84,25.59"/></clipPath><clipPath id="clip-path-208"><path class="cls-1" d="M-1381.68,2084.14l154.49,20.26-16.2,157.85s-130.58,5.27-193.21-24.47l-3.52-72Z"/></clipPath><clipPath id="clip-path-209"><path class="cls-1" d="M-1243.39,2262.26c-26.4-2.91-43.9-40.69-39.09-84.39s30.1-76.77,56.5-73.86,43.9,40.69,39.09,84.39-30.1,76.77-56.5,73.87"/></clipPath><clipPath id="clip-path-210"><polygon class="cls-1" points="470.39 1987.37 470.39 2058.14 960.65 2341.19 1450.91 2058.14 1450.91 1987.37 960.65 1704.32 470.39 1987.37"/></clipPath><clipPath id="clip-path-211"><polygon class="cls-1" points="960.65 2341.19 470.39 2058.14 470.39 1987.37 960.65 2270.43 960.65 2341.19"/></clipPath><clipPath id="clip-path-212"><polygon class="cls-1" points="1205.78 2341.19 1450.91 2341.19 1450.91 1987.37 960.65 1987.37 960.65 2341.19 1205.78 2341.19"/></clipPath><clipPath id="clip-path-213"><path class="cls-1" d="M1318.06,1881.23a71.57,71.57,0,0,0-71.57,71.57h143.13a71.57,71.57,0,0,0-71.57-71.57"/></clipPath><clipPath id="clip-path-214"><path class="cls-1" d="M1270.94,1923.26a39.38,39.38,0,0,0-39.38,39.38h78.76a39.38,39.38,0,0,0-39.38-39.38"/></clipPath><clipPath id="clip-path-215"><path class="cls-1" d="M1013.09,2125.55a42.86,42.86,0,0,0-38.47,24,34.47,34.47,0,0,0-40.93-1.2,53.28,53.28,0,1,0-104.63,20.12H1056a42.9,42.9,0,0,0-42.9-42.9"/></clipPath><clipPath id="clip-path-216"><path class="cls-1" d="M581.15,1984.81H704.06a61.45,61.45,0,0,0-122.91,0Z"/></clipPath><clipPath id="clip-path-217"><path class="cls-1" d="M918.2,1850.5H749.57S724.43,1963.78,782,2063.71h21.5s-98.59-175.19,30.39-175.19,30.39,175.19,30.39,175.19h21.5c57.55-99.93,32.42-213.21,32.42-213.21"/></clipPath><clipPath id="clip-path-218"><path class="cls-1" d="M896.08,1648.92h-.19a99,99,0,0,0-93.61,66.8l.47-.1a99,99,0,0,1,93.33-66.7"/></clipPath><clipPath id="clip-path-219"><path class="cls-1" d="M900.15,1649c.9,0,1.82,0,2.72.07-.9,0-1.81,0-2.72-.07"/></clipPath><clipPath id="clip-path-220"><path class="cls-1" d="M896.14,1673.46a27.72,27.72,0,0,1,3.4.25,27.92,27.92,0,0,0-3.19-.27l-.2,0"/></clipPath><clipPath id="clip-path-221"><path class="cls-1" d="M896.32,1648.91h-.24a33.17,33.17,0,0,1,4.07.32,32.68,32.68,0,0,0-3.82-.33"/></clipPath><clipPath id="clip-path-222"><path class="cls-1" d="M900.69,1673.56c-.46,0-.93,0-1.39,0l1.39,0"/></clipPath><clipPath id="clip-path-223"><path class="cls-1" d="M832,1709.74l-29.23,5.89,0,.09,29.7-6a74.49,74.49,0,0,1,63.72-36.29h-.25a74.49,74.49,0,0,0-63.91,36.3"/></clipPath><clipPath id="clip-path-224"><path class="cls-1" d="M938.72,1658.44A98.49,98.49,0,0,0,901,1649a98.44,98.44,0,0,1,37.62,9.56Z"/></clipPath><clipPath id="clip-path-225"><path class="cls-1" d="M938.65,1658.61A98.43,98.43,0,0,0,901,1649l-.88,0c-1.35-.06-2.7-.1-4.07-.1a99,99,0,0,0-93.33,66.7l29.23-5.89a74.49,74.49,0,0,1,63.91-36.3h.44c1,0,2,0,3,.09h.45a74,74,0,0,1,29.33,7.51Z"/></clipPath><clipPath id="clip-path-226"><path class="cls-1" d="M772.2,1648.91a98.59,98.59,0,0,0-42.4,9.53l9.65,22.6a74.37,74.37,0,0,1,96.66,28.69l29.7,6a99,99,0,0,0-93.61-66.8"/></clipPath><clipPath id="clip-path-227"><path class="cls-1" d="M673.21,1747.9a99,99,0,0,0,54.44,88.39l8-23.57A74.42,74.42,0,0,1,739.45,1681l-9.65-22.6a99,99,0,0,0-56.59,89.46"/></clipPath><clipPath id="clip-path-228"><path class="cls-1" d="M749.71,1575.23s2.21,38.19,19.81,50.79l-2.84-24.39Z"/></clipPath><clipPath id="clip-path-229"><path class="cls-1" d="M919.06,1575.23s-2.21,38.19-19.81,50.79l2.84-24.39Z"/></clipPath><clipPath id="clip-path-230"><path class="cls-1" d="M834.38,1664l-38.52-21.67s-38.15,136.05-46.29,208.14h84.81Z"/></clipPath><clipPath id="clip-path-231"><path class="cls-1" d="M833.89,1664l38.52-21.67s38.15,136.05,46.29,208.14H833.89Z"/></clipPath><clipPath id="clip-path-232"><path class="cls-1" d="M834.38,1658.7H804.31s13.44,30.21,30.08,33.85c16.64-3.63,30.08-33.85,30.08-33.85Z"/></clipPath><clipPath id="clip-path-233"><path class="cls-1" d="M834.38,1637.6l-30.08,21.1s15.84,20.57,30.08,20.57c4.38,0,19.63-6.61,30.08-20.57Z"/></clipPath><clipPath id="clip-path-234"><path class="cls-1" d="M768.76,1575.23a13.47,13.47,0,1,0,0,19.05,13.47,13.47,0,0,0,0-19.05"/></clipPath><clipPath id="clip-path-235"><path class="cls-1" d="M919.06,1575.23a13.47,13.47,0,1,0,0,19.05,13.47,13.47,0,0,0,0-19.05"/></clipPath><clipPath id="clip-path-236"><path class="cls-1" d="M849.65,1664c20.85-7.2,42.52-17.78,52.53-37.43,6.92-13.58,7.17-29.46,7.31-44.7.1-11,.19-22.13-1.46-32.93a80.29,80.29,0,0,0-3.83-15.36c-6.87-18.85-22.41-34.18-41.09-41.51a76.75,76.75,0,0,0-28.73-5.17L821,1603.15l13.34,64.1c.34,0,.67,0,1,0,4.89-.12,9.63-1.63,14.25-3.23"/></clipPath><clipPath id="clip-path-237"><path class="cls-1" d="M804.78,1493c-14,5.71-26.51,15.48-34.17,28.49-10.36,17.58-11,39-11,59.44.08,18.59.89,39.25,12.88,54.53s33.31,25.28,51.57,30.12a44.34,44.34,0,0,0,10.7,1.71l-5.45-65.58,16-5.45L834.79,1487a81.54,81.54,0,0,0-30,6"/></clipPath><clipPath id="clip-path-238"><path class="cls-1" d="M813,1565.69a5.66,5.66,0,1,0-5.66,5.66,5.67,5.67,0,0,0,5.66-5.66"/></clipPath><clipPath id="clip-path-239"><path class="cls-1" d="M869.45,1565.69a5.66,5.66,0,1,0-5.66,5.66,5.66,5.66,0,0,0,5.66-5.66"/></clipPath><clipPath id="clip-path-240"><path class="cls-1" d="M888.48,1591.05c0,3.48-5.58,6.3-12.45,6.3s-12.46-2.82-12.46-6.3,5.58-6.3,12.46-6.3,12.45,2.82,12.45,6.3"/></clipPath><clipPath id="clip-path-241"><path class="cls-1" d="M783,1591.05c0,3.48,5.58,6.3,12.45,6.3s12.46-2.82,12.46-6.3-5.58-6.3-12.46-6.3-12.45,2.82-12.45,6.3"/></clipPath><clipPath id="clip-path-242"><polygon class="cls-1" points="828.93 1601.63 851.36 1601.63 844.88 1596.22 828.93 1601.63"/></clipPath><clipPath id="clip-path-243"><path class="cls-1" d="M901.08,1812.72h31.39l8,23.57c-7,12-21.91,14.2-21.91,14.2l-4.22-29H901.53a4.28,4.28,0,0,1-.45,0,4.42,4.42,0,1,1,0-8.85"/></clipPath><clipPath id="clip-path-244"><path class="cls-1" d="M867.9,1476.48v.62c-1.4,2.6-14.07,25.63-31,38.24-6.34,4.73-13.27,8-20.43,8.16h42.87c5.43.12,8.57,2.09,10.88,4.57,4.21,4.52,5.58,10.76,12.62,10.76a14.54,14.54,0,0,1,10.14,3.56c4.7,4.24,5.18,10.75,5.18,10.75v31.62H910q0-1.94,0-3.85c0-3.17,0-6.36-.06-9.56a13.39,13.39,0,0,1,7.62,2.64l1.52,1.24s0,0,0,0l.19.23a271.3,271.3,0,0,0,1.88-29.31c0-34.81-22-59.84-53.23-69.62"/></clipPath><clipPath id="clip-path-245"><path class="cls-1" d="M848.51,1470.71a138.06,138.06,0,0,0-14.41,0c-2.54.13-5.07.32-7.59.6a103.3,103.3,0,0,0-11,1.78c-.34.08-1.08.36-1.83.61l-1.93.36h0a94.08,94.08,0,0,0-16.21,4.65c-28.13,10.93-47.55,35-47.51,67.61,0,6.91.65,19.07,1.66,27.51,0,.47,0,.91,0,1.39l.15-.12c0,.17,0,.36.06.53.12-.13.21-.28.34-.41a13.25,13.25,0,0,1,8.23-3.79c.41,0,.81-.09,1.21-.07-.06,3.19-.07,6.38-.06,9.54q0,1.91,0,3.85h11.76v-31.62a19,19,0,0,1,2.07-6.71l2.45-3.36.06-.08c2.28-2.33,5.7-3.52,10.75-4.15s7-6.27,11.42-10.52a16.85,16.85,0,0,1,12.09-4.8s26.9.1,30.75,0c38.14-.86,52.93-26.84,58.65-41.11,1.27-3.17,2.1-5.77,2.64-7.38a30.64,30.64,0,0,0,1-4.3Z"/></clipPath><clipPath id="clip-path-246"><path class="cls-1" d="M898.14,1584.75c0,22.25-40.62,22.85-58.33,22.06h-10c-17.7.79-58.33.18-58.33-22.06H759.67c.21,17.55,1.68,36.45,12.85,50.68,11.91,15.18,33.31,25.28,51.57,30.12a34.37,34.37,0,0,0,21.41,0c18.25-4.84,39.66-14.95,51.57-30.12,11.17-14.23,12.63-33.13,12.84-50.68H898.14Z"/></clipPath><clipPath id="clip-path-247"><path class="cls-1" d="M834.38,1650.26a34.68,34.68,0,0,0,34.68-34.68H799.7a34.68,34.68,0,0,0,34.68,34.68"/></clipPath><clipPath id="clip-path-248"><path class="cls-1" d="M938.65,1658.61,929.07,1681a74,74,0,0,0-29.33-7.51,74.44,74.44,0,0,1,32.73,139.18l8,23.57a99,99,0,0,0-1.78-177.68"/></clipPath><clipPath id="clip-path-249"><path class="cls-1" d="M811.77,1583.43a1.7,1.7,0,1,0-1.7,1.7,1.7,1.7,0,0,0,1.7-1.7"/></clipPath><clipPath id="clip-path-250"><path class="cls-1" d="M798.15,1578a1.7,1.7,0,1,0-1.7,1.7,1.7,1.7,0,0,0,1.7-1.7"/></clipPath><clipPath id="clip-path-251"><path class="cls-1" d="M822.67,1578a1.7,1.7,0,1,0-1.7,1.7,1.7,1.7,0,0,0,1.7-1.7"/></clipPath><clipPath id="clip-path-252"><path class="cls-1" d="M800.88,1586.16a1.7,1.7,0,1,0-1.7,1.7,1.7,1.7,0,0,0,1.7-1.7"/></clipPath><clipPath id="clip-path-253"><path class="cls-1" d="M792.7,1591.61a1.7,1.7,0,1,0-1.7,1.7,1.7,1.7,0,0,0,1.7-1.7"/></clipPath><clipPath id="clip-path-254"><path class="cls-1" d="M817.22,1591.61a1.7,1.7,0,1,0-1.7,1.7,1.7,1.7,0,0,0,1.7-1.7"/></clipPath><clipPath id="clip-path-255"><path class="cls-1" d="M863.51,1583.43a1.7,1.7,0,1,1,1.7,1.7,1.7,1.7,0,0,1-1.7-1.7"/></clipPath><clipPath id="clip-path-256"><path class="cls-1" d="M877.13,1578a1.7,1.7,0,1,1,1.7,1.7,1.7,1.7,0,0,1-1.7-1.7"/></clipPath><clipPath id="clip-path-257"><path class="cls-1" d="M852.61,1578a1.7,1.7,0,1,1,1.7,1.7,1.7,1.7,0,0,1-1.7-1.7"/></clipPath><clipPath id="clip-path-258"><path class="cls-1" d="M874.4,1586.16a1.7,1.7,0,1,1,1.7,1.7,1.7,1.7,0,0,1-1.7-1.7"/></clipPath><clipPath id="clip-path-259"><path class="cls-1" d="M882.58,1591.61a1.7,1.7,0,1,1,1.7,1.7,1.7,1.7,0,0,1-1.7-1.7"/></clipPath><clipPath id="clip-path-260"><path class="cls-1" d="M858.06,1591.61a1.7,1.7,0,1,1,1.7,1.7,1.7,1.7,0,0,1-1.7-1.7"/></clipPath><clipPath id="clip-path-261"><path class="cls-1" d="M749.57,1850.5S724.44,1963.78,782,2063.71h21.5s-98.59-175.19,30.39-175.19v-38Z"/></clipPath><clipPath id="clip-path-262"><path class="cls-1" d="M918.2,1850.5s25.14,113.28-32.42,213.21h-21.5s98.59-175.19-30.39-175.19v-38Z"/></clipPath><clipPath id="clip-path-263"><path class="cls-1" d="M809.45,2066.65a7.81,7.81,0,0,0-6.11-2.94H782s-13.72,6.18-21-1.81a10.75,10.75,0,1,0-8.4,17.46h50.76a7.83,7.83,0,0,0,6.11-12.71"/></clipPath><clipPath id="clip-path-264"><path class="cls-1" d="M858.33,2066.65a7.81,7.81,0,0,1,6.11-2.94h21.35s13.72,6.18,21-1.81a10.75,10.75,0,1,1,8.4,17.46H864.45a7.83,7.83,0,0,1-6.11-12.71"/></clipPath><clipPath id="clip-path-265"><path class="cls-1" d="M767,1812.72H735.61l-8,23.57c7,12,21.91,14.2,21.91,14.2l4.22-29h12.77a4.28,4.28,0,0,0,.45,0,4.42,4.42,0,1,0,0-8.85"/></clipPath><clipPath id="clip-path-266"><rect class="cls-2" x="982.68" y="1474.59" width="95.11" height="186.11"/></clipPath><clipPath id="clip-path-267"><rect class="cls-2" x="1073.74" y="1474.59" width="95.09" height="186.16"/></clipPath><clipPath id="clip-path-268"><path class="cls-1" d="M1156.11,1846.95H995.2s-24,108.09,30.93,203.44h20.52s-94.08-167.16,29-167.16,29,167.16,29,167.16h20.52c54.92-95.35,30.93-203.44,30.93-203.44"/></clipPath><clipPath id="clip-path-269"><path class="cls-1" d="M995.2,1846.95s-24,108.09,30.93,203.44h20.52s-94.08-167.16,29-167.16v-36.28Z"/></clipPath><clipPath id="clip-path-270"><path class="cls-1" d="M1156.11,1846.95s24,108.09-30.93,203.44h-20.52s94.08-167.16-29-167.16v-36.28Z"/></clipPath><clipPath id="clip-path-271"><path class="cls-1" d="M1052.34,2053.2a7.45,7.45,0,0,0-5.83-2.81h-20.37s-13.09,5.9-20-1.73a10.26,10.26,0,1,0-8,16.66h48.43a7.47,7.47,0,0,0,5.83-12.13"/></clipPath><clipPath id="clip-path-272"><path class="cls-1" d="M1099,2053.2a7.46,7.46,0,0,1,5.83-2.81h20.37s13.09,5.9,20-1.73a10.26,10.26,0,1,1,8,16.66h-48.43a7.47,7.47,0,0,1-5.83-12.13"/></clipPath><clipPath id="clip-path-273"><path class="cls-1" d="M1168.83,1567.67a93.08,93.08,0,0,0-93.08-93.08c-.68,0-1.34,0-2,.05L1050,1553l23.77,107.71c.67,0,1.34.05,2,.05a93.08,93.08,0,0,0,93.08-93.08"/></clipPath><clipPath id="clip-path-274"><path class="cls-1" d="M983.66,1581.27s4.61,55.57-28.41,63c0,0,30.69,44.28,100.11,20.08l-10-46.77Z"/></clipPath><clipPath id="clip-path-275"><path class="cls-1" d="M1167.71,1581.27s-4.61,55.57,28.41,63c0,0-30.69,44.28-100.11,20.08l10-46.77Z"/></clipPath><clipPath id="clip-path-276"><path class="cls-1" d="M922.87,1739.42a95.37,95.37,0,0,0-.52,9.88,94.19,94.19,0,0,0,51.82,84.13l7.57-22.44a70.69,70.69,0,0,1-35.35-71.58Z"/></clipPath><clipPath id="clip-path-277"><path class="cls-1" d="M975.32,1806c.88-4.94-2.11-9.56-4.59-12.11-3.12-3.21-5.85-6.58-12.9-5.68-4.15,6.11-10.51,12.42-16.67,17.63-.26,4.31-2,12.4.76,15.17s16.44,2.47,16.44,2.47Z"/></clipPath><clipPath id="clip-path-278"><path class="cls-1" d="M1041.81,1658.52l-4.79,23a71.19,71.19,0,0,1,40.38,31.5l28.27,5.69a94.42,94.42,0,0,0-63.85-60.15"/></clipPath><clipPath id="clip-path-279"><path class="cls-1" d="M1016.57,1655.09a94.22,94.22,0,0,0-93.69,84.33H946.4a70.76,70.76,0,0,1,90.62-57.94l4.79-23a94.23,94.23,0,0,0-25.25-3.44"/></clipPath><clipPath id="clip-path-280"><path class="cls-1" d="M1075.28,1669.47l36.66-20.63s36.31,129.49,44.06,198.11h-80.72Z"/></clipPath><clipPath id="clip-path-281"><path class="cls-1" d="M1084.19,1681a94.05,94.05,0,0,0-16,25.34l18.77,16.7a70.45,70.45,0,0,1,15-26.94l.48-.51-21.22-3.75Z"/></clipPath><clipPath id="clip-path-282"><path class="cls-1" d="M1200.2,1658.1c-19.73-4.74-38.71-11.11-59.31-8a93.82,93.82,0,0,0-56.35,30.54l-.35.41-2.95,10.84,21.22,3.75a71.36,71.36,0,0,1,55.94-23.14c23.29,1.12,43.6,12.57,67.64,9a94.26,94.26,0,0,0,26.76-8.21l-10.86-20.76a71.38,71.38,0,0,1-41.73,5.63"/></clipPath><clipPath id="clip-path-283"><path class="cls-1" d="M1075.75,1669.47l-36.66-20.63s-36.31,129.49-44.06,198.11h80.72Z"/></clipPath><clipPath id="clip-path-284"><path class="cls-1" d="M1047.13,1664.4h6.5l-8.26-12-20.1,14.29,23.34,14.37-3.24,23.67,30.38,80v-88c-15.83-3.46-28.63-32.22-28.63-32.22"/></clipPath><clipPath id="clip-path-285"><path class="cls-1" d="M1104.38,1664.4h-6.5l8.26-12,20.1,14.29L1102.89,1681l3.24,23.67-30.38,80v-88c15.83-3.46,28.63-32.22,28.63-32.22"/></clipPath><clipPath id="clip-path-286"><path class="cls-1" d="M1075.75,1664.4h-28.63s12.79,28.76,28.63,32.22c15.83-3.46,28.63-32.22,28.63-32.22Z"/></clipPath><clipPath id="clip-path-287"><path class="cls-1" d="M1075.75,1644.32l-28.63,20.08s15.07,19.58,28.63,19.58c4.16,0,18.69-6.29,28.63-19.58Z"/></clipPath><clipPath id="clip-path-288"><path class="cls-1" d="M1013.29,1585a12.82,12.82,0,1,0,0,18.13,12.82,12.82,0,0,0,0-18.13"/></clipPath><clipPath id="clip-path-289"><path class="cls-1" d="M1156.35,1585a12.82,12.82,0,1,0,0,18.13,12.82,12.82,0,0,0,0-18.13"/></clipPath><clipPath id="clip-path-290"><path class="cls-1" d="M1090.28,1669.49c19.84-6.85,40.47-16.92,50-35.63,6.58-12.93,6.82-28,7-42.54.1-10.44.19-21.07-1.39-31.34a76.32,76.32,0,0,0-3.65-14.62c-6.53-17.94-21.33-32.53-39.1-39.51a73.08,73.08,0,0,0-27.34-4.92l-12.7,110.59,12.7,61c.32,0,.64,0,1,0,4.65-.11,9.17-1.56,13.57-3.08"/></clipPath><clipPath id="clip-path-291"><path class="cls-1" d="M1047.57,1506.67c-13.3,5.44-25.23,14.74-32.53,27.12-9.86,16.73-10.51,37.15-10.43,56.57.07,17.69.84,37.36,12.25,51.9s31.71,24.06,49.08,28.67a42.22,42.22,0,0,0,10.19,1.63l-5.19-62.42,15.18-5.19-10-104a77.62,77.62,0,0,0-28.56,5.72"/></clipPath><clipPath id="clip-path-292"><path class="cls-1" d="M1055.36,1575.88a5.39,5.39,0,1,0-5.39,5.39,5.39,5.39,0,0,0,5.39-5.39"/></clipPath><clipPath id="clip-path-293"><path class="cls-1" d="M1109.13,1575.88a5.39,5.39,0,1,0-5.39,5.39,5.39,5.39,0,0,0,5.39-5.39"/></clipPath><clipPath id="clip-path-294"><path class="cls-1" d="M1127.24,1600c0,3.31-5.31,6-11.85,6s-11.86-2.68-11.86-6,5.31-6,11.86-6,11.85,2.68,11.85,6"/></clipPath><clipPath id="clip-path-295"><path class="cls-1" d="M1026.85,1600c0,3.31,5.31,6,11.85,6s11.85-2.68,11.85-6-5.31-6-11.85-6-11.85,2.68-11.85,6"/></clipPath><clipPath id="clip-path-296"><polygon class="cls-1" points="1070.57 1610.08 1091.91 1610.08 1085.75 1604.93 1070.57 1610.08"/></clipPath><clipPath id="clip-path-297"><path class="cls-1" d="M981.75,1811h29.88v8.38H999l-4,27.58s-14.22-2.05-20.86-13.52Z"/></clipPath><clipPath id="clip-path-298"><path class="cls-1" d="M1011.63,1811a4.21,4.21,0,1,1-4.21,4.21,4.21,4.21,0,0,1,4.21-4.21"/></clipPath><clipPath id="clip-path-299"><path class="cls-1" d="M1309.64,1571.35a19,19,0,1,0-33.74,4.33h0l0,.07.1.14,6.73,10a70.55,70.55,0,0,1-40.84,66.63l10.86,20.76a93.87,93.87,0,0,0,29.6-22.33c16.89-19,23.68-41.53,22.72-65.06l4.54-14.5Z"/></clipPath><clipPath id="clip-path-300"><path class="cls-1" d="M1277.07,1525.67a4.32,4.32,0,0,0-4.32,4.32v40.41h8.64V1530a4.32,4.32,0,0,0-4.32-4.32"/></clipPath><clipPath id="clip-path-301"><path class="cls-1" d="M1298.06,1561h-26.34a1.56,1.56,0,0,0-1.54,1.22,22.63,22.63,0,0,0-.47,4.53,26.41,26.41,0,0,0,1.17,7.79c1.64,5.23,9.45,2.9,9.55-2.59a1.56,1.56,0,0,1,1.56-1.53h16v-.08h0c2.88,0,5.21-1.77,5.21-4.65s-2.33-4.7-5.21-4.7"/></clipPath><clipPath id="clip-path-302"><path class="cls-1" d="M1075.75,1656.37a33,33,0,0,0,33-33h-66a33,33,0,0,0,33,33"/></clipPath><clipPath id="clip-path-303"><path class="cls-1" d="M1076.76,1537.2s-23.12,30.46-87.65,48.64c0,0-15.56-103.17,87.65-92.52Z"/></clipPath><clipPath id="clip-path-304"><path class="cls-1" d="M1074.74,1537.2s23.12,30.46,87.65,48.64c0,0,15.56-104.45-87.65-93.8Z"/></clipPath><clipPath id="clip-path-305"><polygon class="cls-1" points="2745.71 1987.42 2745.71 2058.06 3235.08 2340.6 3724.45 2058.06 3724.45 1987.42 3235.08 1704.88 2745.71 1987.42"/></clipPath><clipPath id="clip-path-306"><polygon class="cls-1" points="3235.08 2340.6 2745.71 2058.06 2745.71 1987.42 3235.08 2269.96 3235.08 2340.6"/></clipPath><clipPath id="clip-path-307"><polygon class="cls-1" points="3479.77 2340.6 3724.45 2340.6 3724.45 1987.42 3235.08 1987.42 3235.08 2340.6 3479.77 2340.6"/></clipPath><clipPath id="clip-path-308"><path class="cls-1" d="M3195.82,2057.16l-165,95.17,94.05,54.3,201.18-116a53.29,53.29,0,0,0-2.91-95.35L3219,1935.16l-94.05,54.3,70.37,40.6a16.17,16.17,0,0,1,.51,27.1Z"/></clipPath><clipPath id="clip-path-309"><polygon class="cls-1" points="3080.85 2182.41 3136.99 2149.6 3127.49 2144.64 3071.58 2177.02 3080.85 2182.41"/></clipPath><clipPath id="clip-path-310"><polygon class="cls-1" points="3185.59 2118.4 3241.74 2085.59 3232.23 2080.63 3176.32 2113.01 3185.59 2118.4"/></clipPath><clipPath id="clip-path-311"><path class="cls-1" d="M3272.88,2066s19.45-13.41,26-17.76,5.11-14.73-1.54-19.13-22.3-14.76-23.14-14.35-8.4,5.49-8.4,5.49,18.78,11.38,21.21,12.79,9.57,6,2.88,10.14-26.29,17.43-26.29,17.43Z"/></clipPath><clipPath id="clip-path-312"><polyline class="cls-1" points="3226.64 1996.2 3170.5 1963.39 3180.01 1958.43 3235.92 1990.81"/></clipPath><clipPath id="clip-path-313"><polygon class="cls-1" points="3216.89 1880.96 3216.79 1628.92 3137.86 1583.35 3138 1835.35 3216.89 1880.96"/></clipPath><clipPath id="clip-path-314"><polygon class="cls-1" points="3295.73 1583.35 3216.79 1628.92 3216.89 1880.96 3295.88 1835.35 3295.73 1583.35"/></clipPath><clipPath id="clip-path-315"><polygon class="cls-1" points="3137.86 1583.35 3216.79 1537.77 3295.73 1583.35 3216.79 1628.92 3137.86 1583.35"/></clipPath><clipPath id="clip-path-316"><polygon class="cls-1" points="3177.24 1583.31 3177.24 1514.91 3216.78 1537.74 3216.78 1606.13 3177.24 1583.31"/></clipPath><clipPath id="clip-path-317"><polygon class="cls-1" points="3256.24 1514.91 3216.78 1537.74 3216.78 1606.13 3256.24 1583.31 3256.24 1514.91"/></clipPath><clipPath id="clip-path-318"><polygon class="cls-1" points="3216.78 1537.74 3256.24 1514.91 3216.78 1492.08 3177.24 1514.91 3216.78 1537.74"/></clipPath><clipPath id="clip-path-319"><polygon class="cls-1" points="3206.33 1515.56 3206.33 1427.88 3216.75 1433.89 3216.75 1521.58 3206.33 1515.56"/></clipPath><clipPath id="clip-path-320"><polygon class="cls-1" points="3227.15 1427.88 3216.75 1433.89 3216.75 1521.58 3227.15 1515.56 3227.15 1427.88"/></clipPath><clipPath id="clip-path-321"><rect class="cls-2" x="3206.33" y="1421.86" width="20.82" height="12.03"/></clipPath><clipPath id="clip-path-322"><polygon class="cls-1" points="3338 1834.55 3337.93 1664.09 3284.02 1633.27 3284.12 1803.71 3338 1834.55"/></clipPath><clipPath id="clip-path-323"><polygon class="cls-1" points="3391.84 1633.27 3337.93 1664.09 3338 1834.55 3391.94 1803.71 3391.84 1633.27"/></clipPath><clipPath id="clip-path-324"><polygon class="cls-1" points="3284.02 1633.27 3337.93 1602.44 3391.84 1633.27 3337.93 1664.09 3284.02 1633.27"/></clipPath><clipPath id="clip-path-325"><polygon class="cls-1" points="3114.83 1846.47 3114.76 1681.69 3062.78 1651.9 3062.88 1816.66 3114.83 1846.47"/></clipPath><clipPath id="clip-path-326"><polygon class="cls-1" points="3166.75 1651.9 3114.76 1681.69 3114.83 1846.47 3166.84 1816.66 3166.75 1651.9"/></clipPath><clipPath id="clip-path-327"><polygon class="cls-1" points="3062.78 1651.9 3114.76 1622.1 3166.75 1651.9 3114.76 1681.69 3062.78 1651.9"/></clipPath><clipPath id="clip-path-328"><path class="cls-1" d="M3623.45,1904.89c-26.79-16.65-113.34-38.16-234.91-38.65l-63.92-75.18a71.3,71.3,0,0,0-54-25.12l-300.07-1.22a57,57,0,0,0-40.4,16.54l-72.23,71.65a57.06,57.06,0,0,0-15.11,26.43l-10.6,41.67,213.49,100.69,598.9,2.44.33-80.61a45.23,45.23,0,0,0-21.45-38.64"/></clipPath><clipPath id="clip-path-329"><path class="cls-1" d="M3324.62,1791.05a71.29,71.29,0,0,0-54-25.12l-300.07-1.22a57,57,0,0,0-40.4,16.54L2861,1849.83l37.29.15a356.67,356.67,0,0,1,39.36,2.34l108.66,12.52,342.23,1.39Z"/></clipPath><clipPath id="clip-path-330"><path class="cls-1" d="M3302,1865.88l-236.76-1a341.94,341.94,0,0,1-37.78-2.25l-74.18-8.55a19.55,19.55,0,0,1-13-31.69l26.43-32.77a28.55,28.55,0,0,1,22.31-10.61l243.87,1a28.51,28.51,0,0,1,21.87,10.35l52.75,63.82a7.13,7.13,0,0,1-5.52,11.67"/></clipPath><clipPath id="clip-path-331"><path class="cls-1" d="M3644.86,1952.83c.12-28.52-42.55-57.21-242.18-58l-556.12-2.27a14.26,14.26,0,0,0-14.32,14.2l-.3,71.3,270.82,29.62,541.86,2.2Z"/></clipPath><clipPath id="clip-path-332"><path class="cls-1" d="M3644.69,1995.61,2976,1992.89l-126.69-28.69a14.26,14.26,0,1,0-6.29,27.81l128.22,29a14,14,0,0,0,3.09.36l670.2,2.73a14.26,14.26,0,0,0,.12-28.52"/></clipPath><clipPath id="clip-path-333"><path class="cls-1" d="M2953.33,1934.57a65.36,65.36,0,1,1-65.62,65.09,65.36,65.36,0,0,1,65.62-65.09"/></clipPath><clipPath id="clip-path-334"><path class="cls-1" d="M2953.27,1950a49.91,49.91,0,1,0,49.7,50.11,50,50,0,0,0-49.7-50.11m-.52,128.34a78.43,78.43,0,1,1,78.74-78.11,78.51,78.51,0,0,1-78.74,78.11"/></clipPath><clipPath id="clip-path-335"><path class="cls-1" d="M2953.18,1971.4a28.52,28.52,0,1,1-28.63,28.4,28.52,28.52,0,0,1,28.63-28.4"/></clipPath><clipPath id="clip-path-336"><path class="cls-1" d="M3402.38,1966.11l-342.23-1.39a14.26,14.26,0,0,1,.12-28.52l342.23,1.39a14.26,14.26,0,0,1-.12,28.52"/></clipPath><clipPath id="clip-path-337"><path class="cls-1" d="M3644.8,1967.09l-14.26-.06a14.26,14.26,0,0,1,.12-28.52l14.26.06a14.26,14.26,0,0,1-.12,28.52"/></clipPath><clipPath id="clip-path-338"><rect class="cls-2" x="3117.77" y="1808.26" width="85.56" height="28.52" transform="translate(1325.27 4975.68) rotate(-89.77)"/></clipPath><clipPath id="clip-path-339"><path class="cls-1" d="M3629.73,1910l-13.21-.05a14.26,14.26,0,0,0-.12,28.52l27.88.11a44.67,44.67,0,0,0-14.55-28.58"/></clipPath><clipPath id="clip-path-340"><path class="cls-1" d="M3324.62,1791.05a71.26,71.26,0,0,0-11.32-10.68l-23.27-.1a7.13,7.13,0,0,0-5.52,11.67l52.75,63.82a28.52,28.52,0,0,0,21.87,10.35l29.42.12Z"/></clipPath><clipPath id="clip-path-341"><polygon class="cls-1" points="3018.82 1861.67 3046.65 1779.29 3018.13 1779.17 2978.79 1857.06 3018.82 1861.67"/></clipPath><clipPath id="clip-path-342"><path class="cls-1" d="M2842.79,1879.34l-3.36,13.18,35.64.15a14.26,14.26,0,1,0,.12-28.52l-25.94-.11a56.9,56.9,0,0,0-6.46,15.3"/></clipPath><clipPath id="clip-path-343"><path class="cls-1" d="M3509.45,1936.83a65.36,65.36,0,1,1-65.62,65.09,65.36,65.36,0,0,1,65.62-65.09"/></clipPath><clipPath id="clip-path-344"><path class="cls-1" d="M3509.39,1952.28a49.91,49.91,0,1,0,49.7,50.11,50,50,0,0,0-49.7-50.11m-.52,128.34a78.43,78.43,0,1,1,78.74-78.11,78.51,78.51,0,0,1-78.74,78.11"/></clipPath><clipPath id="clip-path-345"><path class="cls-1" d="M3509.3,1973.67a28.52,28.52,0,1,1-28.63,28.4,28.52,28.52,0,0,1,28.63-28.4"/></clipPath></defs><title>ilustracoes_caixa_am5SVG</title><polygon class="cls-3" points="960 256.5 469.09 539.93 469.09 610.79 960 894.21 1450.91 610.79 1450.91 539.93 960 256.5"/><polygon class="cls-4" points="960 894.21 469.09 610.79 469.09 539.93 960 823.36 960 894.21"/><polygon class="cls-5" points="960 894.21 1450.91 610.79 1450.91 539.93 960 823.36 960 894.21"/><path class="cls-5" d="M1150,657.74c23.87-9.06,37.73-19.84,37.73-31.42,0-32.07-106.23-58.06-237.28-58.06s-237.28,26-237.28,58.06c0,11.58,13.86,22.37,37.73,31.42,42.23-16,115.83-26.64,199.55-26.64S1107.79,641.71,1150,657.74Z"/><path class="cls-6" d="M1150,657.74c-42.23-16-115.83-26.64-199.55-26.64s-157.32,10.61-199.55,26.64c42.23,16,115.83,26.64,199.55,26.64S1107.79,673.77,1150,657.74Z"/><path class="cls-6" d="M1150,657.74c-42.23-16-115.83-26.64-199.55-26.64s-157.32,10.61-199.55,26.64c42.23,16,115.83,26.64,199.55,26.64S1107.79,673.77,1150,657.74Z"/><circle class="cls-7" cx="847.07" cy="281.83" r="23.23"/><circle class="cls-7" cx="830.95" cy="273.73" r="23.23"/><circle class="cls-7" cx="843.52" cy="250.5" r="23.23"/><circle class="cls-7" cx="866.75" cy="234.27" r="23.23"/><circle class="cls-7" cx="857.19" cy="224.48" r="23.23"/><circle class="cls-7" cx="880.11" cy="207.52" r="23.23"/><circle class="cls-7" cx="825.19" cy="307.13" r="23.23"/><circle class="cls-7" cx="820.29" cy="348.12" r="23.23"/><circle class="cls-7" cx="841.27" cy="354.78" r="28.12"/><circle class="cls-7" cx="805.97" cy="364.71" r="23.23"/><circle class="cls-7" cx="859.62" cy="371.35" r="23.23"/><circle class="cls-7" cx="859.62" cy="409.99" r="23.23"/><circle class="cls-7" cx="838.52" cy="393.34" r="23.23"/><circle class="cls-7" cx="813.16" cy="332.52" r="23.23"/><circle class="cls-7" cx="813.16" cy="396.69" r="23.23"/><circle class="cls-7" cx="825.19" cy="423.61" r="23.23"/><circle class="cls-7" cx="887.42" cy="419.92" r="23.23"/><circle class="cls-8" cx="1098.21" cy="280.73" r="23.23"/><circle class="cls-8" cx="1092.84" cy="257.5" r="23.23"/><circle class="cls-8" cx="1120.08" cy="303.96" r="23.23"/><circle class="cls-8" cx="1124.99" cy="344.95" r="23.23"/><circle class="cls-8" cx="1104" cy="351.61" r="28.12"/><circle class="cls-8" cx="1139.3" cy="361.54" r="23.23"/><circle class="cls-8" cx="1085.66" cy="368.18" r="23.23"/><circle class="cls-8" cx="1085.66" cy="406.83" r="23.23"/><circle class="cls-8" cx="1106.75" cy="390.17" r="23.23"/><circle class="cls-8" cx="1132.12" cy="329.36" r="23.23"/><circle class="cls-8" cx="1124.99" cy="277.89" r="23.23"/><circle class="cls-8" cx="1066.9" cy="215.38" r="23.23"/><circle class="cls-8" cx="1090.13" cy="224.48" r="23.23"/><circle class="cls-8" cx="1069.61" cy="213.09" r="23.23"/><circle class="cls-8" cx="1113.36" cy="250.5" r="23.23"/><circle class="cls-8" cx="1132.12" cy="393.52" r="23.23"/><circle class="cls-8" cx="1120.08" cy="420.45" r="23.23"/><circle class="cls-8" cx="1057.85" cy="416.75" r="23.23"/><path class="cls-9" d="M1353.2,283.26c1.07-3.13,1.67-22.95,1.67-26.43a30.81,30.81,0,0,0-61.63,0c0,6.28,1.89,28.6,5.12,33.47h0l.08.11.16.23,10.94,16.17a114.66,114.66,0,0,1-66.37,108.29h0a116,116,0,0,1-67.81,9.14c-32.07-7.71-62.91-18.06-96.39-13a152.49,152.49,0,0,0-91.59,49.63l-.57.67L982,479.13l34.49,6.1a116,116,0,0,1,90.91-37.61c37.85,1.82,70.86,20.43,109.92,14.57a153.21,153.21,0,0,0,43.48-13.35h0a152.56,152.56,0,0,0,48.1-36.28c27.44-30.85,38.48-67.5,36.93-105.74l7.37-23.56Z"/><path class="cls-10" d="M1129.59,412.84a152.81,152.81,0,0,0-60.26.32l-1.34.31c-2,.44-4.1.9-6.15,1.43a153.69,153.69,0,0,0-114.2,136.65l41.61-20.25a115.64,115.64,0,0,1,81.86-79.49l.38-.09.28-.08c1.5-.39,3-.7,4.49-1l.69-.16a114.81,114.81,0,0,1,47-.17Z"/><path class="cls-11" d="M876,421.52a153,153,0,0,0-65.82,14.79l15,35.09a115.46,115.46,0,0,1,150.05,44.54l46.1,9.29A153.7,153.7,0,0,0,876,421.52Z"/><path class="cls-10" d="M971.79,631.34h.77V445l-.39-.22-.39.22Z"/><path class="cls-6" d="M1150,657.74c-16.38-6.22-37.5-11.61-62.09-15.9,2.12,10.42,4.12,20.7,6,30.72C1115.94,668.46,1135,663.45,1150,657.74Z"/><path class="cls-11" d="M912.77,411.34s-33.1,118-55.09,224.38c-3,14.72-5.87,29.21-8.37,43.13a890.15,890.15,0,0,0,101.16,5.53q10.78,0,21.32-.24V445l.39-.22Z"/><path class="cls-10" d="M1087.93,641.84c-22-107.89-56.34-230.51-56.34-230.51l-59.41,33.43.39.22V631.35h-.77v52.8h.77c45.36-1,87-5.18,121.34-11.56C1092.06,662.54,1090.06,652.26,1087.93,641.84Z"/><path class="cls-12" d="M785.83,647.36a115.44,115.44,0,0,1,39.36-176l-15-35.09A153.67,153.67,0,0,0,745.36,656c9.36,4.24,26.7,10.6,53.43,14.93l-.16,0q8.65,1.76,18,3.33A116.57,116.57,0,0,1,785.83,647.36Zm-34.92,10.38,1.84.68Z"/><path class="cls-7" d="M841.11,307.13s3.44,59.29,30.75,78.85l-4.41-37.86Z"/><path class="cls-8" d="M1104,307.13s-3.44,59.29-30.75,78.85l4.41-37.86Z"/><path class="cls-9" d="M972.56,436.71H925.87s20.87,46.91,46.69,52.55c25.83-5.64,46.69-52.55,46.69-52.55Z"/><path class="cls-13" d="M972.56,404l-46.69,32.76s24.58,31.93,46.69,31.93c6.79,0,30.48-10.26,46.69-31.93Z"/><circle class="cls-12" cx="855.9" cy="321.92" r="20.92" transform="translate(23.06 699.5) rotate(-45)"/><circle class="cls-9" cx="1089.23" cy="321.92" r="20.92" transform="translate(91.39 864.48) rotate(-45)"/><path class="cls-9" d="M996.26,445c32.37-11.18,66-27.6,81.55-58.11,10.74-21.08,11.13-45.73,11.35-69.39.16-17,.3-34.36-2.27-51.11a124.56,124.56,0,0,0-5.95-23.84c-10.66-29.27-34.79-53.06-63.78-64.44a119.18,119.18,0,0,0-44.6-8L951.85,350.47,972.56,450c.52,0,1,.06,1.56,0C981.72,449.84,989.08,447.49,996.26,445Z"/><path class="cls-12" d="M926.6,179.44c-21.69,8.87-41.15,24-53.05,44.23-16.08,27.29-17.15,60.6-17,92.27.12,28.86,1.38,60.94,20,84.65,18.49,23.56,51.72,39.25,80.05,46.77A68.85,68.85,0,0,0,973.19,450L964.73,348.2l24.76-8.46-16.3-169.63h0A126.58,126.58,0,0,0,926.6,179.44Z"/><circle class="cls-8" cx="930.51" cy="292.33" r="8.79"/><ellipse class="cls-13" cx="1037.21" cy="331.7" rx="19.34" ry="9.78"/><ellipse class="cls-9" cx="912.13" cy="331.7" rx="19.34" ry="9.78"/><polygon class="cls-13" points="964.1 348.12 998.91 348.12 988.87 339.72 964.1 348.12"/><path class="cls-6" d="M972.56,423.61a53.84,53.84,0,0,0,53.84-53.84H918.72A53.84,53.84,0,0,0,972.56,423.61Z"/><circle class="cls-8" cx="1018.21" cy="292.33" r="8.79"/><path class="cls-8" d="M1057.85,192.15l-82.92-3.93-60.7-2.88c-16.61,9.08-31.1,22.07-40.68,38.33-13.53,23-16.43,50.18-16.93,77.11V301l15.24-34.45h165.35l4.23-23.73,6,21.84,28.48.95,14.25,35.4V250.43Z"/><path class="cls-7" d="M914.23,185.34c-16.61,9.08-31.1,22.07-40.68,38.33-13.53,23-16.43,50.18-16.93,77.11V301l15.24-34.45H982.46l-7.53-78.35Z"/><path class="cls-11" d="M1090.13,173.75V160h0V129a29.07,29.07,0,0,0-29.07-29.07H885.32A29.07,29.07,0,0,0,856.25,129v57.15h0v15.15h233.88V173.84h0v-.09Z"/><polygon class="cls-14" points="1005.35 136.23 989.49 136.23 989.49 120.37 957.29 120.37 957.29 136.23 941.43 136.23 941.43 168.43 957.29 168.43 957.29 184.29 989.49 184.29 989.49 168.43 1005.35 168.43 1005.35 136.23"/><circle class="cls-11" cx="973.39" cy="156.56" r="9.33"/><circle class="cls-11" cx="973.39" cy="139.52" r="4.05"/><circle class="cls-11" cx="983.1" cy="143.58" r="4.05"/><circle class="cls-11" cx="963.68" cy="143.58" r="4.05"/><path class="cls-15" d="M1503.5,478.09a32,32,0,0,0-31.28-13.47c-17.43,2.69-31.6,17.34-42,29.77-18.47-9.29-32.34-27.5-41.37-54.39-9.42-28-9.75-55.38-9.75-55.65l-9.77.07a209.3,209.3,0,0,0,10.18,58.47c9.48,28.35,24.62,48.38,44.46,59.18a123.61,123.61,0,0,0-22.81,45.07,218.48,218.48,0,0,0-4.38,24l-.11.78c-1.42,10-2.76,19.42-5.74,28.85C1383,626,1363.34,655,1332.11,661c-8.3,1.58-17,2.52-25.4,3.43-20.4,2.2-41.5,4.47-60.34,16-20.68,12.67-29.3,30.76-32.33,50a124.3,124.3,0,0,0-1.39,17.88c-.06,5.71.17,11.4.56,17,.41,5.9.61,11.19.65,16,.22,28.81-5.75,38.71-11.3,44s-13.53,7.43-24.13,6.21c-7.6-.87-15.74-3.77-24.87-8.87a117.77,117.77,0,0,1-29.32-23.28l-8.67,5A132.87,132.87,0,0,0,1128,816.66a125.39,125.39,0,0,0,20.77,14.54c10.28,5.74,19.61,9,28.52,10,13.47,1.55,24.23-1.43,32-8.86,11.52-11,14.42-29.73,14.39-49.21,0-6.17-.32-12.42-.74-18.53a181.56,181.56,0,0,1-.37-22c.18-3.49.5-6.94,1-10.32,2.63-17.16,10.12-32.65,27.86-43.52,17-10.4,36.07-12.46,56.28-14.64,8.6-.93,17.49-1.88,26.19-3.54,35.46-6.76,57.52-39,66.34-66.84,3.23-10.2,4.69-20.48,6.1-30.43.39-2.77.79-5.58,1.23-8.39.8-5.14,1.74-10.31,3-15.35A114.19,114.19,0,0,1,1432.56,507l.59-.73a78,78,0,0,0,17.55,4.37c35.7,4.68,49-3.66,53.93-11.49C1508.52,492.94,1508.1,485.07,1503.5,478.09ZM1496.34,494c-1.74,2.77-10.07,11.48-44.37,7a70.54,70.54,0,0,1-12.19-2.69c9.12-10.6,20.85-22,33.94-24a22.59,22.59,0,0,1,18.12,5.25,19.22,19.22,0,0,1,3.51,3.94C1496.79,485.67,1498.85,490,1496.34,494Z"/><path class="cls-16" d="M1415.91,393.5l-17,18.65a26.74,26.74,0,0,1-42.08-3.28l-22-33.31a26.74,26.74,0,0,1,3.06-33.27h0a26.74,26.74,0,0,0,1.27-35.68c-12.82-15.38-33.07-37.12-57.07-53.77a26.73,26.73,0,0,0-34.92,3.91l-.12.13a26.74,26.74,0,0,1-31.24,6l-33.54-16.07a26.74,26.74,0,0,1-8.71-41.55l23.32-27.09a26.5,26.5,0,0,1,17.5-9.15c18.34-1.77,58,3.54,123.52,55.76,73.53,58.59,86.69,118.93,88.88,143.37a26.64,26.64,0,0,1-5.67,18.88l-4,5Q1416.54,392.81,1415.91,393.5Z"/></svg>