<svg id="Layer_1" data-name="Layer 1" xmlns="http://www.w3.org/2000/svg" xmlns:xlink="http://www.w3.org/1999/xlink" viewBox="0 0 1920 1080"><defs><style>.cls-1,.cls-2{fill:none;}.cls-1{clip-rule:evenodd;}.cls-3{fill:#ff9141;}.cls-4{fill:#ff6d00;}.cls-5{fill:#e65a00;}.cls-6{fill:#fff;}.cls-7{fill:#00a499;}.cls-8{fill:#845331;}.cls-9{fill:#ccbeb2;}.cls-10{fill:#543119;}.cls-11{fill:#eae0d6;}.cls-12{fill:#fff7ed;}.cls-13{fill:#414042;}.cls-14{fill:#2f2f30;}.cls-15{fill:#331e10;}.cls-16{fill:#500778;}.cls-17{fill:#00a79d;}.cls-18{fill:#ff6341;}.cls-19{fill:#733791;}.cls-20{fill:#ffce00;}.cls-21{fill:#41b9b4;}.cls-22{clip-path:url(#clip-path);}.cls-23{clip-path:url(#clip-path-2);}.cls-24{clip-path:url(#clip-path-3);}.cls-25{clip-path:url(#clip-path-4);}.cls-26{clip-path:url(#clip-path-5);}.cls-27{clip-path:url(#clip-path-6);}.cls-28{clip-path:url(#clip-path-7);}.cls-29{clip-path:url(#clip-path-8);}.cls-30{clip-path:url(#clip-path-9);}.cls-31{clip-path:url(#clip-path-10);}.cls-32{clip-path:url(#clip-path-11);}.cls-33{clip-path:url(#clip-path-12);}.cls-34{clip-path:url(#clip-path-13);}.cls-35{clip-path:url(#clip-path-14);}.cls-36{clip-path:url(#clip-path-15);}.cls-37{clip-path:url(#clip-path-16);}.cls-38{clip-path:url(#clip-path-17);}.cls-39{clip-path:url(#clip-path-18);}.cls-40{clip-path:url(#clip-path-19);}.cls-41{clip-path:url(#clip-path-20);}.cls-42{clip-path:url(#clip-path-21);}.cls-43{clip-path:url(#clip-path-22);}.cls-44{clip-path:url(#clip-path-23);}.cls-45{clip-path:url(#clip-path-24);}.cls-46{clip-path:url(#clip-path-25);}.cls-47{clip-path:url(#clip-path-26);}.cls-48{clip-path:url(#clip-path-27);}.cls-49{clip-path:url(#clip-path-28);}.cls-50{clip-path:url(#clip-path-29);}.cls-51{clip-path:url(#clip-path-30);}.cls-52{clip-path:url(#clip-path-31);}.cls-53{clip-path:url(#clip-path-32);}.cls-54{clip-path:url(#clip-path-33);}.cls-55{clip-path:url(#clip-path-34);}.cls-56{clip-path:url(#clip-path-35);}.cls-57{clip-path:url(#clip-path-36);}.cls-58{clip-path:url(#clip-path-37);}.cls-59{clip-path:url(#clip-path-38);}.cls-60{clip-path:url(#clip-path-39);}.cls-61{clip-path:url(#clip-path-40);}.cls-62{clip-path:url(#clip-path-41);}.cls-63{clip-path:url(#clip-path-42);}.cls-64{clip-path:url(#clip-path-43);}.cls-65{clip-path:url(#clip-path-44);}.cls-66{clip-path:url(#clip-path-45);}.cls-67{clip-path:url(#clip-path-46);}.cls-68{clip-path:url(#clip-path-47);}.cls-69{clip-path:url(#clip-path-48);}.cls-70{clip-path:url(#clip-path-49);}.cls-71{clip-path:url(#clip-path-50);}.cls-72{clip-path:url(#clip-path-51);}.cls-73{clip-path:url(#clip-path-52);}.cls-74{clip-path:url(#clip-path-53);}.cls-75{clip-path:url(#clip-path-54);}.cls-76{clip-path:url(#clip-path-55);}.cls-77{clip-path:url(#clip-path-56);}.cls-78{clip-path:url(#clip-path-57);}.cls-79{clip-path:url(#clip-path-58);}.cls-80{clip-path:url(#clip-path-59);}.cls-81{clip-path:url(#clip-path-60);}.cls-82{clip-path:url(#clip-path-61);}.cls-83{clip-path:url(#clip-path-62);}.cls-84{clip-path:url(#clip-path-63);}.cls-85{clip-path:url(#clip-path-64);}.cls-86{clip-path:url(#clip-path-65);}.cls-87{clip-path:url(#clip-path-66);}.cls-88{clip-path:url(#clip-path-67);}.cls-89{clip-path:url(#clip-path-68);}.cls-90{clip-path:url(#clip-path-69);}.cls-91{clip-path:url(#clip-path-70);}.cls-92{clip-path:url(#clip-path-71);}.cls-93{clip-path:url(#clip-path-72);}.cls-94{clip-path:url(#clip-path-73);}.cls-95{clip-path:url(#clip-path-74);}.cls-96{clip-path:url(#clip-path-75);}.cls-97{clip-path:url(#clip-path-76);}.cls-98{clip-path:url(#clip-path-77);}.cls-99{clip-path:url(#clip-path-78);}.cls-100{clip-path:url(#clip-path-79);}.cls-101{clip-path:url(#clip-path-80);}.cls-102{clip-path:url(#clip-path-81);}.cls-103{clip-path:url(#clip-path-82);}.cls-104{clip-path:url(#clip-path-83);}.cls-105{clip-path:url(#clip-path-84);}.cls-106{clip-path:url(#clip-path-85);}.cls-107{clip-path:url(#clip-path-86);}.cls-108{clip-path:url(#clip-path-87);}.cls-109{clip-path:url(#clip-path-88);}.cls-110{clip-path:url(#clip-path-89);}.cls-111{clip-path:url(#clip-path-90);}.cls-112{clip-path:url(#clip-path-91);}.cls-113{clip-path:url(#clip-path-92);}.cls-114{clip-path:url(#clip-path-93);}.cls-115{clip-path:url(#clip-path-94);}.cls-116{clip-path:url(#clip-path-95);}.cls-117{clip-path:url(#clip-path-96);}.cls-118{clip-path:url(#clip-path-97);}.cls-119{clip-path:url(#clip-path-98);}.cls-120{clip-path:url(#clip-path-99);}.cls-121{clip-path:url(#clip-path-100);}.cls-122{clip-path:url(#clip-path-101);}.cls-123{clip-path:url(#clip-path-102);}.cls-124{clip-path:url(#clip-path-103);}.cls-125{clip-path:url(#clip-path-104);}.cls-126{clip-path:url(#clip-path-105);}.cls-127{clip-path:url(#clip-path-106);}.cls-128{clip-path:url(#clip-path-107);}.cls-129{clip-path:url(#clip-path-108);}.cls-130{clip-path:url(#clip-path-109);}.cls-131{clip-path:url(#clip-path-110);}.cls-132{clip-path:url(#clip-path-111);}.cls-133{clip-path:url(#clip-path-112);}.cls-134{clip-path:url(#clip-path-113);}.cls-135{clip-path:url(#clip-path-114);}.cls-136{clip-path:url(#clip-path-115);}.cls-137{clip-path:url(#clip-path-116);}.cls-138{clip-path:url(#clip-path-117);}.cls-139{clip-path:url(#clip-path-118);}.cls-140{clip-path:url(#clip-path-119);}.cls-141{clip-path:url(#clip-path-120);}.cls-142{clip-path:url(#clip-path-121);}.cls-143{clip-path:url(#clip-path-122);}.cls-144{clip-path:url(#clip-path-123);}.cls-145{clip-path:url(#clip-path-124);}.cls-146{clip-path:url(#clip-path-125);}.cls-147{clip-path:url(#clip-path-126);}.cls-148{clip-path:url(#clip-path-127);}.cls-149{clip-path:url(#clip-path-128);}.cls-150{clip-path:url(#clip-path-129);}.cls-151{clip-path:url(#clip-path-130);}.cls-152{clip-path:url(#clip-path-131);}.cls-153{clip-path:url(#clip-path-132);}.cls-154{clip-path:url(#clip-path-133);}.cls-155{clip-path:url(#clip-path-134);}.cls-156{clip-path:url(#clip-path-135);}.cls-157{clip-path:url(#clip-path-136);}.cls-158{clip-path:url(#clip-path-137);}.cls-159{clip-path:url(#clip-path-138);}.cls-160{clip-path:url(#clip-path-139);}.cls-161{clip-path:url(#clip-path-140);}.cls-162{clip-path:url(#clip-path-141);}.cls-163{clip-path:url(#clip-path-142);}.cls-164{clip-path:url(#clip-path-143);}.cls-165{clip-path:url(#clip-path-144);}.cls-166{clip-path:url(#clip-path-145);}.cls-167{clip-path:url(#clip-path-146);}.cls-168{clip-path:url(#clip-path-147);}.cls-169{clip-path:url(#clip-path-148);}.cls-170{clip-path:url(#clip-path-149);}.cls-171{clip-path:url(#clip-path-150);}.cls-172{clip-path:url(#clip-path-151);}.cls-173{clip-path:url(#clip-path-152);}.cls-174{clip-path:url(#clip-path-153);}.cls-175{clip-path:url(#clip-path-154);}.cls-176{clip-path:url(#clip-path-155);}.cls-177{clip-path:url(#clip-path-156);}.cls-178{clip-path:url(#clip-path-157);}.cls-179{clip-path:url(#clip-path-158);}.cls-180{clip-path:url(#clip-path-159);}.cls-181{clip-path:url(#clip-path-160);}.cls-182{clip-path:url(#clip-path-161);}.cls-183{clip-path:url(#clip-path-162);}.cls-184{clip-path:url(#clip-path-163);}.cls-185{clip-path:url(#clip-path-164);}.cls-186{clip-path:url(#clip-path-165);}.cls-187{clip-path:url(#clip-path-166);}.cls-188{clip-path:url(#clip-path-167);}.cls-189{clip-path:url(#clip-path-168);}.cls-190{clip-path:url(#clip-path-169);}.cls-191{clip-path:url(#clip-path-170);}.cls-192{clip-path:url(#clip-path-171);}.cls-193{clip-path:url(#clip-path-172);}.cls-194{clip-path:url(#clip-path-173);}.cls-195{clip-path:url(#clip-path-174);}.cls-196{clip-path:url(#clip-path-175);}.cls-197{clip-path:url(#clip-path-176);}.cls-198{clip-path:url(#clip-path-177);}.cls-199{clip-path:url(#clip-path-178);}.cls-200{clip-path:url(#clip-path-179);}.cls-201{clip-path:url(#clip-path-180);}.cls-202{clip-path:url(#clip-path-181);}.cls-203{clip-path:url(#clip-path-182);}.cls-204{clip-path:url(#clip-path-183);}.cls-205{clip-path:url(#clip-path-184);}.cls-206{clip-path:url(#clip-path-185);}.cls-207{clip-path:url(#clip-path-186);}.cls-208{clip-path:url(#clip-path-187);}.cls-209{clip-path:url(#clip-path-188);}.cls-210{clip-path:url(#clip-path-189);}.cls-211{clip-path:url(#clip-path-190);}.cls-212{clip-path:url(#clip-path-191);}.cls-213{clip-path:url(#clip-path-192);}.cls-214{clip-path:url(#clip-path-193);}.cls-215{clip-path:url(#clip-path-194);}.cls-216{clip-path:url(#clip-path-195);}.cls-217{clip-path:url(#clip-path-196);}.cls-218{clip-path:url(#clip-path-197);}.cls-219{clip-path:url(#clip-path-198);}.cls-220{clip-path:url(#clip-path-199);}.cls-221{clip-path:url(#clip-path-200);}.cls-222{clip-path:url(#clip-path-201);}.cls-223{clip-path:url(#clip-path-202);}.cls-224{clip-path:url(#clip-path-203);}.cls-225{clip-path:url(#clip-path-204);}.cls-226{clip-path:url(#clip-path-205);}.cls-227{clip-path:url(#clip-path-206);}.cls-228{clip-path:url(#clip-path-207);}.cls-229{clip-path:url(#clip-path-208);}.cls-230{clip-path:url(#clip-path-209);}.cls-231{clip-path:url(#clip-path-210);}.cls-232{clip-path:url(#clip-path-211);}.cls-233{clip-path:url(#clip-path-212);}.cls-234{clip-path:url(#clip-path-213);}.cls-235{clip-path:url(#clip-path-214);}.cls-236{clip-path:url(#clip-path-215);}.cls-237{clip-path:url(#clip-path-216);}.cls-238{clip-path:url(#clip-path-217);}.cls-239{clip-path:url(#clip-path-218);}.cls-240{clip-path:url(#clip-path-219);}.cls-241{clip-path:url(#clip-path-220);}.cls-242{clip-path:url(#clip-path-221);}.cls-243{clip-path:url(#clip-path-222);}.cls-244{clip-path:url(#clip-path-223);}.cls-245{clip-path:url(#clip-path-224);}.cls-246{clip-path:url(#clip-path-225);}.cls-247{clip-path:url(#clip-path-226);}.cls-248{clip-path:url(#clip-path-227);}.cls-249{clip-path:url(#clip-path-228);}.cls-250{clip-path:url(#clip-path-229);}.cls-251{clip-path:url(#clip-path-230);}.cls-252{clip-path:url(#clip-path-231);}.cls-253{clip-path:url(#clip-path-232);}.cls-254{clip-path:url(#clip-path-233);}.cls-255{clip-path:url(#clip-path-234);}.cls-256{clip-path:url(#clip-path-235);}.cls-257{clip-path:url(#clip-path-236);}.cls-258{clip-path:url(#clip-path-237);}.cls-259{clip-path:url(#clip-path-238);}.cls-260{clip-path:url(#clip-path-239);}.cls-261{clip-path:url(#clip-path-240);}.cls-262{clip-path:url(#clip-path-241);}.cls-263{clip-path:url(#clip-path-242);}.cls-264{clip-path:url(#clip-path-243);}.cls-265{clip-path:url(#clip-path-244);}.cls-266{clip-path:url(#clip-path-245);}.cls-267{clip-path:url(#clip-path-246);}.cls-268{clip-path:url(#clip-path-247);}.cls-269{clip-path:url(#clip-path-248);}.cls-270{clip-path:url(#clip-path-249);}.cls-271{clip-path:url(#clip-path-250);}.cls-272{clip-path:url(#clip-path-251);}.cls-273{clip-path:url(#clip-path-252);}.cls-274{clip-path:url(#clip-path-253);}.cls-275{clip-path:url(#clip-path-254);}.cls-276{clip-path:url(#clip-path-255);}.cls-277{clip-path:url(#clip-path-256);}.cls-278{clip-path:url(#clip-path-257);}.cls-279{clip-path:url(#clip-path-258);}.cls-280{clip-path:url(#clip-path-259);}.cls-281{clip-path:url(#clip-path-260);}.cls-282{clip-path:url(#clip-path-261);}.cls-283{clip-path:url(#clip-path-262);}.cls-284{clip-path:url(#clip-path-263);}.cls-285{clip-path:url(#clip-path-264);}.cls-286{clip-path:url(#clip-path-265);}.cls-287{clip-path:url(#clip-path-266);}.cls-288{clip-path:url(#clip-path-267);}.cls-289{clip-path:url(#clip-path-268);}.cls-290{clip-path:url(#clip-path-269);}.cls-291{clip-path:url(#clip-path-270);}.cls-292{clip-path:url(#clip-path-271);}.cls-293{clip-path:url(#clip-path-272);}.cls-294{clip-path:url(#clip-path-273);}.cls-295{clip-path:url(#clip-path-274);}.cls-296{clip-path:url(#clip-path-275);}.cls-297{clip-path:url(#clip-path-276);}.cls-298{clip-path:url(#clip-path-277);}.cls-299{clip-path:url(#clip-path-278);}.cls-300{clip-path:url(#clip-path-279);}.cls-301{clip-path:url(#clip-path-280);}.cls-302{clip-path:url(#clip-path-281);}.cls-303{clip-path:url(#clip-path-282);}.cls-304{clip-path:url(#clip-path-283);}.cls-305{clip-path:url(#clip-path-284);}.cls-306{clip-path:url(#clip-path-285);}.cls-307{clip-path:url(#clip-path-286);}.cls-308{clip-path:url(#clip-path-287);}.cls-309{clip-path:url(#clip-path-288);}.cls-310{clip-path:url(#clip-path-289);}.cls-311{clip-path:url(#clip-path-290);}.cls-312{clip-path:url(#clip-path-291);}.cls-313{clip-path:url(#clip-path-292);}.cls-314{clip-path:url(#clip-path-293);}.cls-315{clip-path:url(#clip-path-294);}.cls-316{clip-path:url(#clip-path-295);}.cls-317{clip-path:url(#clip-path-296);}.cls-318{clip-path:url(#clip-path-297);}.cls-319{clip-path:url(#clip-path-298);}.cls-320{clip-path:url(#clip-path-299);}.cls-321{clip-path:url(#clip-path-300);}.cls-322{clip-path:url(#clip-path-301);}.cls-323{clip-path:url(#clip-path-302);}.cls-324{clip-path:url(#clip-path-303);}.cls-325{clip-path:url(#clip-path-304);}.cls-326{clip-path:url(#clip-path-305);}.cls-327{clip-path:url(#clip-path-306);}.cls-328{clip-path:url(#clip-path-307);}.cls-329{clip-path:url(#clip-path-308);}.cls-330{clip-path:url(#clip-path-309);}.cls-331{clip-path:url(#clip-path-310);}.cls-332{clip-path:url(#clip-path-311);}.cls-333{clip-path:url(#clip-path-312);}.cls-334{clip-path:url(#clip-path-313);}.cls-335{clip-path:url(#clip-path-314);}.cls-336{clip-path:url(#clip-path-315);}.cls-337{clip-path:url(#clip-path-316);}.cls-338{clip-path:url(#clip-path-317);}.cls-339{clip-path:url(#clip-path-318);}.cls-340{clip-path:url(#clip-path-319);}.cls-341{clip-path:url(#clip-path-320);}.cls-342{clip-path:url(#clip-path-321);}.cls-343{clip-path:url(#clip-path-322);}.cls-344{clip-path:url(#clip-path-323);}.cls-345{clip-path:url(#clip-path-324);}.cls-346{clip-path:url(#clip-path-325);}.cls-347{clip-path:url(#clip-path-326);}.cls-348{clip-path:url(#clip-path-327);}.cls-349{clip-path:url(#clip-path-328);}.cls-350{clip-path:url(#clip-path-329);}.cls-351{clip-path:url(#clip-path-330);}.cls-352{clip-path:url(#clip-path-331);}.cls-353{clip-path:url(#clip-path-332);}.cls-354{clip-path:url(#clip-path-333);}.cls-355{clip-path:url(#clip-path-334);}.cls-356{clip-path:url(#clip-path-335);}.cls-357{clip-path:url(#clip-path-336);}.cls-358{clip-path:url(#clip-path-337);}.cls-359{clip-path:url(#clip-path-338);}.cls-360{clip-path:url(#clip-path-339);}.cls-361{clip-path:url(#clip-path-340);}.cls-362{clip-path:url(#clip-path-341);}.cls-363{clip-path:url(#clip-path-342);}.cls-364{clip-path:url(#clip-path-343);}.cls-365{clip-path:url(#clip-path-344);}.cls-366{clip-path:url(#clip-path-345);}</style><clipPath id="clip-path"><polygon class="cls-1" points="-1875.83 1895.85 -1875.83 1966.85 -1383.96 2250.83 -892.1 1966.85 -892.1 1895.85 -1383.96 1611.87 -1875.83 1895.85"/></clipPath><clipPath id="clip-path-2"><polygon class="cls-1" points="-1383.96 2250.83 -1875.83 1966.85 -1875.83 1895.85 -1383.96 2179.83 -1383.96 2250.83"/></clipPath><clipPath id="clip-path-3"><polygon class="cls-1" points="-1138.03 2250.83 -892.1 2250.83 -892.1 1895.85 -1383.96 1895.85 -1383.96 2250.83 -1138.03 2250.83"/></clipPath><clipPath id="clip-path-4"><polygon class="cls-1" points="-1322.48 2002.34 -1568.41 1860.35 -1568.41 1647.37 -1322.48 1789.36 -1322.48 2002.34"/></clipPath><clipPath id="clip-path-5"><polygon class="cls-1" points="-1221.52 1635.14 -1322.48 1789.34 -1322.48 2002.32 -1138.03 1895.83 -1138.03 1682.87 -1221.52 1635.14"/></clipPath><clipPath id="clip-path-6"><polygon class="cls-1" points="-1585.19 1672.33 -1476.24 1487.6 -1221.52 1635.14 -1339.25 1814.32 -1585.19 1672.33"/></clipPath><clipPath id="clip-path-7"><polygon class="cls-1" points="-1261.03 1966.85 -1261.03 1824.84 -1199.51 1789.36 -1199.51 1931.33 -1261.03 1966.85"/></clipPath><clipPath id="clip-path-8"><polygon class="cls-1" points="-1414.71 1806.97 -1414.71 1877.97 -1353.22 1913.47 -1353.22 1842.47 -1414.71 1806.97"/></clipPath><clipPath id="clip-path-9"><polygon class="cls-1" points="-1537.45 1736.11 -1537.45 1807.11 -1475.96 1842.6 -1475.96 1771.61 -1537.45 1736.11"/></clipPath><clipPath id="clip-path-10"><rect class="cls-2" x="-1875.83" y="1423.18" width="983.74" height="827.65"/></clipPath><clipPath id="clip-path-11"><path class="cls-1" d="M-1619.26,1932.63h-169.19s-25.22,113.66,32.53,213.91h21.57s-98.92-175.77,30.49-175.77,30.49,175.77,30.49,175.77h21.57c57.74-100.26,32.53-213.91,32.53-213.91"/></clipPath><clipPath id="clip-path-12"><path class="cls-1" d="M-1641.45,1730.39h-.19a99.33,99.33,0,0,0-93.91,67l.47-.1a99.32,99.32,0,0,1,93.63-66.92"/></clipPath><clipPath id="clip-path-13"><path class="cls-1" d="M-1637.37,1730.49c.91,0,1.82,0,2.73.07-.9,0-1.82,0-2.73-.07"/></clipPath><clipPath id="clip-path-14"><path class="cls-1" d="M-1641.4,1755a27.82,27.82,0,0,1,3.41.25,28,28,0,0,0-3.21-.27l-.2,0"/></clipPath><clipPath id="clip-path-15"><path class="cls-1" d="M-1641.21,1730.38h-.24a33.32,33.32,0,0,1,4.08.32,32.85,32.85,0,0,0-3.83-.33"/></clipPath><clipPath id="clip-path-16"><path class="cls-1" d="M-1636.83,1755.11c-.46,0-.93,0-1.4,0l1.4,0"/></clipPath><clipPath id="clip-path-17"><path class="cls-1" d="M-1705.77,1791.41l-29.32,5.91,0,.09,29.79-6A74.73,74.73,0,0,1-1641.4,1755h-.25a74.74,74.74,0,0,0-64.12,36.42"/></clipPath><clipPath id="clip-path-18"><path class="cls-1" d="M-1598.67,1739.94a98.8,98.8,0,0,0-37.81-9.42,98.76,98.76,0,0,1,37.74,9.59Z"/></clipPath><clipPath id="clip-path-19"><path class="cls-1" d="M-1598.74,1740.11a98.76,98.76,0,0,0-37.74-9.59l-.89,0c-1.35-.06-2.71-.1-4.08-.1a99.32,99.32,0,0,0-93.63,66.92l29.32-5.91a74.73,74.73,0,0,1,64.12-36.42h.44c1,0,2,0,3,.09h.46a74.21,74.21,0,0,1,29.42,7.53Z"/></clipPath><clipPath id="clip-path-20"><path class="cls-1" d="M-1765.74,1730.38a98.91,98.91,0,0,0-42.54,9.56l9.68,22.68a74.24,74.24,0,0,1,32.86-7.63,74.73,74.73,0,0,1,64.12,36.42l29.79,6a99.33,99.33,0,0,0-93.91-67"/></clipPath><clipPath id="clip-path-21"><path class="cls-1" d="M-1865,1829.7a99.29,99.29,0,0,0,54.62,88.68l8-23.65a74.74,74.74,0,0,1-38-65,74.79,74.79,0,0,1,41.85-67.08l-9.68-22.68A99.31,99.31,0,0,0-1865,1829.7"/></clipPath><clipPath id="clip-path-22"><path class="cls-1" d="M-1788.31,1656.45s2.22,38.32,19.87,51l-2.85-24.47Z"/></clipPath><clipPath id="clip-path-23"><path class="cls-1" d="M-1618.39,1656.45s-2.22,38.32-19.87,51l2.85-24.47Z"/></clipPath><clipPath id="clip-path-24"><path class="cls-1" d="M-1703.35,1745.55-1742,1723.8s-38.28,136.5-46.45,208.83h85.09Z"/></clipPath><clipPath id="clip-path-25"><path class="cls-1" d="M-1703.85,1745.55l38.65-21.75s38.28,136.5,46.44,208.83h-85.09Z"/></clipPath><clipPath id="clip-path-26"><path class="cls-1" d="M-1703.35,1740.2h-30.18s13.48,30.31,30.18,34c16.69-3.64,30.18-34,30.18-34Z"/></clipPath><clipPath id="clip-path-27"><path class="cls-1" d="M-1703.35,1719l-30.18,21.17s15.89,20.64,30.18,20.64c4.39,0,19.7-6.63,30.18-20.64Z"/></clipPath><clipPath id="clip-path-28"><path class="cls-1" d="M-1769.19,1656.45a13.52,13.52,0,0,0-19.12,0,13.52,13.52,0,0,0,0,19.12,13.52,13.52,0,0,0,19.12,0,13.52,13.52,0,0,0,0-19.12"/></clipPath><clipPath id="clip-path-29"><path class="cls-1" d="M-1618.39,1656.45a13.52,13.52,0,0,0-19.12,0,13.52,13.52,0,0,0,0,19.12,13.52,13.52,0,0,0,19.12,0,13.52,13.52,0,0,0,0-19.12"/></clipPath><clipPath id="clip-path-30"><path class="cls-1" d="M-1688,1745.57c20.92-7.23,42.66-17.84,52.7-37.56,6.94-13.63,7.19-29.55,7.34-44.85.1-11,.2-22.2-1.46-33a80.56,80.56,0,0,0-3.84-15.41c-6.89-18.91-22.48-34.29-41.22-41.65a77,77,0,0,0-28.82-5.19l-13.38,116.58,13.38,64.31c.34,0,.67,0,1,0,4.91-.12,9.66-1.64,14.3-3.24"/></clipPath><clipPath id="clip-path-31"><path class="cls-1" d="M-1733.06,1573.93c-14,5.73-26.6,15.54-34.29,28.58-10.39,17.64-11.08,39.16-11,59.63.08,18.65.89,39.38,12.92,54.71s33.42,25.37,51.74,30.22a44.49,44.49,0,0,0,10.74,1.71l-5.47-65.8,16-5.47-10.54-109.63a81.81,81.81,0,0,0-30.11,6"/></clipPath><clipPath id="clip-path-32"><path class="cls-1" d="M-1724.85,1646.89a5.68,5.68,0,0,0-5.68-5.68,5.68,5.68,0,0,0-5.68,5.68,5.68,5.68,0,0,0,5.68,5.68,5.68,5.68,0,0,0,5.68-5.68"/></clipPath><clipPath id="clip-path-33"><path class="cls-1" d="M-1668.17,1646.89a5.68,5.68,0,0,0-5.68-5.68,5.68,5.68,0,0,0-5.68,5.68,5.68,5.68,0,0,0,5.68,5.68,5.68,5.68,0,0,0,5.68-5.68"/></clipPath><clipPath id="clip-path-34"><path class="cls-1" d="M-1649.08,1672.33c0,3.49-5.59,6.32-12.5,6.32s-12.5-2.83-12.5-6.32,5.6-6.32,12.5-6.32,12.5,2.83,12.5,6.32"/></clipPath><clipPath id="clip-path-35"><path class="cls-1" d="M-1754.9,1672.33c0,3.49,5.59,6.32,12.5,6.32s12.5-2.83,12.5-6.32-5.59-6.32-12.5-6.32-12.5,2.83-12.5,6.32"/></clipPath><clipPath id="clip-path-36"><polygon class="cls-1" points="-1708.82 1682.94 -1686.32 1682.94 -1692.82 1677.52 -1708.82 1682.94"/></clipPath><clipPath id="clip-path-37"><path class="cls-1" d="M-1636.44,1894.73h31.5l8,23.65c-7,12.09-22,14.25-22,14.25l-4.23-29.07H-1636a4.29,4.29,0,0,1-.45,0,4.44,4.44,0,0,1-4.44-4.44,4.44,4.44,0,0,1,4.44-4.44"/></clipPath><clipPath id="clip-path-38"><path class="cls-1" d="M-1669.73,1557.38v.63c-1.4,2.61-14.12,25.71-31.09,38.37-6.36,4.74-13.31,8-20.49,8.19h43c5.45.12,8.6,2.1,10.92,4.58,4.22,4.53,5.6,10.79,12.66,10.79a14.59,14.59,0,0,1,10.18,3.57c4.72,4.25,5.2,10.78,5.2,10.78V1666h11.8q0-1.94,0-3.86c0-3.18,0-6.38-.06-9.59a13.44,13.44,0,0,1,7.64,2.65l1.52,1.24s0,0,0,0l.19.23a272.17,272.17,0,0,0,1.88-29.41c0-34.92-22.12-60-53.41-69.85"/></clipPath><clipPath id="clip-path-39"><path class="cls-1" d="M-1689.18,1551.59a138.83,138.83,0,0,0-14.46,0c-2.54.13-5.09.32-7.62.6a103.49,103.49,0,0,0-11,1.79c-.34.08-1.08.36-1.84.61l-1.94.36h0a94.45,94.45,0,0,0-16.26,4.67c-28.22,11-47.71,35.09-47.66,67.84,0,6.94.65,19.13,1.67,27.6,0,.48,0,.92,0,1.4l.15-.12c0,.17,0,.37.06.53.12-.13.21-.28.34-.41a13.29,13.29,0,0,1,8.26-3.8c.41,0,.81-.09,1.22-.07-.06,3.2-.07,6.4-.06,9.57q0,1.92,0,3.86h11.8v-31.72a19.1,19.1,0,0,1,2.08-6.74l2.46-3.38.06-.08c2.29-2.34,5.72-3.53,10.78-4.16s7-6.29,11.45-10.56a16.9,16.9,0,0,1,12.13-4.82s27,.1,30.85,0c38.27-.86,53.1-26.93,58.85-41.24,1.28-3.18,2.11-5.79,2.64-7.4a30.72,30.72,0,0,0,1-4.32Z"/></clipPath><clipPath id="clip-path-40"><path class="cls-1" d="M-1639.39,1666c0,22.32-40.76,22.93-58.52,22.13H-1708c-17.76.79-58.52.18-58.52-22.13h-11.8c.21,17.61,1.68,36.57,12.89,50.84,11.95,15.23,33.42,25.37,51.74,30.22a44.44,44.44,0,0,0,10.74,1.71,44.44,44.44,0,0,0,10.74-1.71c18.31-4.86,39.79-15,51.74-30.22,11.2-14.27,12.67-33.24,12.89-50.84h-11.8Z"/></clipPath><clipPath id="clip-path-41"><path class="cls-1" d="M-1703.35,1731.73a34.8,34.8,0,0,0,34.8-34.8h-69.59a34.8,34.8,0,0,0,34.8,34.8"/></clipPath><clipPath id="clip-path-42"><path class="cls-1" d="M-1598.74,1740.11l-9.61,22.51a74.21,74.21,0,0,0-29.42-7.53,74.8,74.8,0,0,1,70.84,74.61,74.74,74.74,0,0,1-38,65l8,23.65a99.29,99.29,0,0,0,54.62-88.68,99.32,99.32,0,0,0-56.41-89.59"/></clipPath><clipPath id="clip-path-43"><path class="cls-1" d="M-1726,1664.69a1.7,1.7,0,0,0-1.71-1.7,1.7,1.7,0,0,0-1.7,1.7,1.71,1.71,0,0,0,1.7,1.7,1.71,1.71,0,0,0,1.71-1.7"/></clipPath><clipPath id="clip-path-44"><path class="cls-1" d="M-1739.7,1659.22a1.7,1.7,0,0,0-1.7-1.7,1.7,1.7,0,0,0-1.71,1.7,1.7,1.7,0,0,0,1.71,1.7,1.7,1.7,0,0,0,1.7-1.7"/></clipPath><clipPath id="clip-path-45"><path class="cls-1" d="M-1715.1,1659.22a1.7,1.7,0,0,0-1.7-1.7,1.7,1.7,0,0,0-1.71,1.7,1.7,1.7,0,0,0,1.71,1.7,1.7,1.7,0,0,0,1.7-1.7"/></clipPath><clipPath id="clip-path-46"><path class="cls-1" d="M-1737,1667.42a1.71,1.71,0,0,0-1.71-1.71,1.71,1.71,0,0,0-1.7,1.71,1.7,1.7,0,0,0,1.7,1.7,1.7,1.7,0,0,0,1.71-1.7"/></clipPath><clipPath id="clip-path-47"><path class="cls-1" d="M-1745.17,1672.89a1.71,1.71,0,0,0-1.71-1.71,1.71,1.71,0,0,0-1.7,1.71,1.7,1.7,0,0,0,1.7,1.7,1.7,1.7,0,0,0,1.71-1.7"/></clipPath><clipPath id="clip-path-48"><path class="cls-1" d="M-1720.57,1672.89a1.71,1.71,0,0,0-1.7-1.71,1.71,1.71,0,0,0-1.71,1.71,1.7,1.7,0,0,0,1.71,1.7,1.7,1.7,0,0,0,1.7-1.7"/></clipPath><clipPath id="clip-path-49"><path class="cls-1" d="M-1674.13,1664.69a1.7,1.7,0,0,1,1.7-1.7,1.7,1.7,0,0,1,1.71,1.7,1.71,1.71,0,0,1-1.71,1.7,1.71,1.71,0,0,1-1.7-1.7"/></clipPath><clipPath id="clip-path-50"><path class="cls-1" d="M-1660.47,1659.22a1.7,1.7,0,0,1,1.7-1.7,1.7,1.7,0,0,1,1.71,1.7,1.7,1.7,0,0,1-1.71,1.7,1.7,1.7,0,0,1-1.7-1.7"/></clipPath><clipPath id="clip-path-51"><path class="cls-1" d="M-1685.07,1659.22a1.7,1.7,0,0,1,1.7-1.7,1.7,1.7,0,0,1,1.71,1.7,1.7,1.7,0,0,1-1.71,1.7,1.7,1.7,0,0,1-1.7-1.7"/></clipPath><clipPath id="clip-path-52"><path class="cls-1" d="M-1663.2,1667.42a1.71,1.71,0,0,1,1.71-1.71,1.71,1.71,0,0,1,1.7,1.71,1.7,1.7,0,0,1-1.7,1.7,1.7,1.7,0,0,1-1.71-1.7"/></clipPath><clipPath id="clip-path-53"><path class="cls-1" d="M-1655,1672.89a1.71,1.71,0,0,1,1.7-1.71,1.71,1.71,0,0,1,1.71,1.71,1.7,1.7,0,0,1-1.71,1.7,1.7,1.7,0,0,1-1.7-1.7"/></clipPath><clipPath id="clip-path-54"><path class="cls-1" d="M-1679.6,1672.89a1.71,1.71,0,0,1,1.7-1.71,1.71,1.71,0,0,1,1.71,1.71,1.7,1.7,0,0,1-1.71,1.7,1.7,1.7,0,0,1-1.7-1.7"/></clipPath><clipPath id="clip-path-55"><path class="cls-1" d="M-1788.44,1932.63s-25.22,113.66,32.53,213.91h21.57s-98.92-175.77,30.49-175.77v-38.15Z"/></clipPath><clipPath id="clip-path-56"><path class="cls-1" d="M-1619.26,1932.63s25.22,113.66-32.53,213.91h-21.57s98.92-175.77-30.49-175.77v-38.15Z"/></clipPath><clipPath id="clip-path-57"><path class="cls-1" d="M-1728.37,2149.49a7.84,7.84,0,0,0-6.13-2.95h-21.42s-13.76,6.2-21.08-1.82a10.77,10.77,0,0,0-8.43-4.05,10.79,10.79,0,0,0-10.79,10.79,10.79,10.79,0,0,0,10.79,10.79h50.92a7.85,7.85,0,0,0,7.85-7.85,7.82,7.82,0,0,0-1.72-4.9"/></clipPath><clipPath id="clip-path-58"><path class="cls-1" d="M-1679.32,2149.49a7.84,7.84,0,0,1,6.13-2.95h21.42s13.76,6.2,21.08-1.82a10.77,10.77,0,0,1,8.43-4.05,10.79,10.79,0,0,1,10.79,10.79,10.79,10.79,0,0,1-10.79,10.79h-50.92a7.85,7.85,0,0,1-7.85-7.85,7.82,7.82,0,0,1,1.72-4.9"/></clipPath><clipPath id="clip-path-59"><path class="cls-1" d="M-1770.95,1894.73h-31.5l-8,23.65c7,12.09,22,14.25,22,14.25l4.23-29.07h12.82a4.29,4.29,0,0,0,.45,0,4.44,4.44,0,0,0,4.44-4.44,4.44,4.44,0,0,0-4.44-4.44"/></clipPath><clipPath id="clip-path-60"><rect class="cls-2" x="-1101.1" y="1583.35" width="92.62" height="181.23"/></clipPath><clipPath id="clip-path-61"><rect class="cls-2" x="-1012.43" y="1583.35" width="92.6" height="181.28"/></clipPath><clipPath id="clip-path-62"><path class="cls-1" d="M-932.22,1945.94H-1088.9s-23.35,105.26,30.12,198.11h20s-91.61-162.78,28.24-162.78,28.24,162.78,28.24,162.78h20c53.48-92.85,30.12-198.11,30.12-198.11"/></clipPath><clipPath id="clip-path-63"><path class="cls-1" d="M-1088.9,1945.94s-23.35,105.26,30.12,198.11h20s-91.61-162.78,28.24-162.78v-35.33Z"/></clipPath><clipPath id="clip-path-64"><path class="cls-1" d="M-932.22,1945.94s23.35,105.26-30.12,198.11h-20s91.61-162.78-28.24-162.78v-35.33Z"/></clipPath><clipPath id="clip-path-65"><path class="cls-1" d="M-1033.27,2146.78a7.26,7.26,0,0,0-5.68-2.73h-19.83s-12.75,5.74-19.52-1.68a10,10,0,0,0-7.8-3.75,10,10,0,0,0-10,10,10,10,0,0,0,10,10h47.16a7.27,7.27,0,0,0,7.27-7.27,7.24,7.24,0,0,0-1.59-4.54"/></clipPath><clipPath id="clip-path-66"><path class="cls-1" d="M-987.84,2146.78a7.26,7.26,0,0,1,5.68-2.73h19.83s12.75,5.74,19.52-1.68a10,10,0,0,1,7.8-3.75,10,10,0,0,1,10,10,10,10,0,0,1-10,10h-47.16a7.27,7.27,0,0,1-7.27-7.27,7.25,7.25,0,0,1,1.59-4.54"/></clipPath><clipPath id="clip-path-67"><path class="cls-1" d="M-919.83,1674a90.64,90.64,0,0,0-90.64-90.64c-.66,0-1.31,0-2,0l-23.15,76.29,23.15,104.88c.66,0,1.3.05,2,.05A90.64,90.64,0,0,0-919.83,1674"/></clipPath><clipPath id="clip-path-68"><path class="cls-1" d="M-1100.14,1687.23s4.49,54.11-27.67,61.4c0,0,29.88,43.12,97.48,19.56l-9.73-45.54Z"/></clipPath><clipPath id="clip-path-69"><path class="cls-1" d="M-920.92,1687.23s-4.49,54.11,27.67,61.4c0,0-29.88,43.12-97.48,19.56l9.73-45.54Z"/></clipPath><clipPath id="clip-path-70"><path class="cls-1" d="M-1159.33,1841.23a92.94,92.94,0,0,0-.51,9.62,91.72,91.72,0,0,0,50.46,81.92l7.37-21.85a69,69,0,0,1-35.11-60.07,69.21,69.21,0,0,1,.69-9.62Z"/></clipPath><clipPath id="clip-path-71"><path class="cls-1" d="M-1043.51,1762.46l-4.67,22.35a69.32,69.32,0,0,1,39.32,30.68l27.52,5.54a91.94,91.94,0,0,0-62.17-58.57"/></clipPath><clipPath id="clip-path-72"><path class="cls-1" d="M-1068.1,1759.11a91.75,91.75,0,0,0-91.24,82.12h22.91a69.11,69.11,0,0,1,68.33-59.39,68.71,68.71,0,0,1,19.92,3l4.67-22.35a91.75,91.75,0,0,0-24.58-3.35"/></clipPath><clipPath id="clip-path-73"><path class="cls-1" d="M-1010.93,1773.12l35.7-20.09s35.36,126.1,42.91,192.91h-78.61Z"/></clipPath><clipPath id="clip-path-74"><path class="cls-1" d="M-1002.25,1784.38a91.59,91.59,0,0,0-15.53,24.67l18.28,16.26a68.6,68.6,0,0,1,14.58-26.23l.47-.5-20.66-3.65Z"/></clipPath><clipPath id="clip-path-75"><path class="cls-1" d="M-889.28,1762c-19.21-4.62-37.7-10.82-57.76-7.81a91.36,91.36,0,0,0-54.88,29.74l-.34.4-2.87,10.55,20.66,3.65A69.49,69.49,0,0,1-930,1776c22.68,1.09,42.46,12.24,65.86,8.73a91.79,91.79,0,0,0,26.05-8l-10.57-20.21a69.51,69.51,0,0,1-40.63,5.48"/></clipPath><clipPath id="clip-path-76"><path class="cls-1" d="M-1010.46,1773.12l-35.7-20.09s-35.36,126.1-42.91,192.91h78.61Z"/></clipPath><clipPath id="clip-path-77"><path class="cls-1" d="M-1038.34,1768.18h6.33l-8-11.71-19.57,13.92,22.73,14-3.16,23,29.59,77.86v-85.74c-15.42-3.37-27.88-31.37-27.88-31.37"/></clipPath><clipPath id="clip-path-78"><path class="cls-1" d="M-982.59,1768.18h-6.33l8-11.71,19.57,13.92-22.73,14,3.16,23-29.59,77.86v-85.74c15.42-3.37,27.88-31.37,27.88-31.37"/></clipPath><clipPath id="clip-path-79"><path class="cls-1" d="M-1010.46,1768.18h-27.88s12.46,28,27.88,31.37c15.42-3.37,27.88-31.37,27.88-31.37Z"/></clipPath><clipPath id="clip-path-80"><path class="cls-1" d="M-1010.46,1748.63l-27.88,19.56s14.68,19.07,27.88,19.07c4.06,0,18.2-6.12,27.88-19.07Z"/></clipPath><clipPath id="clip-path-81"><path class="cls-1" d="M-1071.29,1690.82a12.49,12.49,0,0,0-17.66,0,12.49,12.49,0,0,0,0,17.66,12.49,12.49,0,0,0,17.66,0,12.49,12.49,0,0,0,0-17.66"/></clipPath><clipPath id="clip-path-82"><path class="cls-1" d="M-932,1690.82a12.49,12.49,0,0,0-17.66,0,12.49,12.49,0,0,0,0,17.66,12.49,12.49,0,0,0,17.66,0,12.49,12.49,0,0,0,0-17.66"/></clipPath><clipPath id="clip-path-83"><path class="cls-1" d="M-996.32,1773.14c19.32-6.67,39.41-16.48,48.69-34.69,6.41-12.59,6.64-27.3,6.78-41.43.1-10.17.18-20.51-1.35-30.52a74.36,74.36,0,0,0-3.55-14.23c-6.36-17.47-20.77-31.68-38.08-38.47a71.17,71.17,0,0,0-26.62-4.79l-12.36,107.69,12.36,59.41c.31,0,.62,0,.93,0,4.53-.11,8.93-1.51,13.21-3"/></clipPath><clipPath id="clip-path-84"><path class="cls-1" d="M-1037.91,1614.59c-12.95,5.3-24.57,14.35-31.67,26.4-9.6,16.29-10.24,36.18-10.16,55.09.07,17.23.82,36.38,11.93,50.54s30.88,23.43,47.79,27.92a41.13,41.13,0,0,0,9.92,1.58l-5.05-60.78,14.78-5.05-9.73-101.27a75.59,75.59,0,0,0-27.82,5.57"/></clipPath><clipPath id="clip-path-85"><path class="cls-1" d="M-1030.32,1682a5.25,5.25,0,0,0-5.25-5.25,5.25,5.25,0,0,0-5.25,5.25,5.25,5.25,0,0,0,5.25,5.25,5.25,5.25,0,0,0,5.25-5.25"/></clipPath><clipPath id="clip-path-86"><path class="cls-1" d="M-978,1682a5.25,5.25,0,0,0-5.25-5.25,5.25,5.25,0,0,0-5.25,5.25,5.25,5.25,0,0,0,5.25,5.25A5.25,5.25,0,0,0-978,1682"/></clipPath><clipPath id="clip-path-87"><path class="cls-1" d="M-960.33,1705.49c0,3.23-5.17,5.84-11.54,5.84s-11.54-2.61-11.54-5.84,5.17-5.84,11.54-5.84,11.54,2.61,11.54,5.84"/></clipPath><clipPath id="clip-path-88"><path class="cls-1" d="M-1058.09,1705.49c0,3.23,5.17,5.84,11.54,5.84s11.54-2.61,11.54-5.84-5.17-5.84-11.54-5.84-11.54,2.61-11.54,5.84"/></clipPath><clipPath id="clip-path-89"><polygon class="cls-1" points="-1015.51 1715.29 -994.73 1715.29 -1000.73 1710.28 -1015.51 1715.29"/></clipPath><clipPath id="clip-path-90"><path class="cls-1" d="M-1102,1910.93h29.1v8.16h-12.25l-3.91,26.85s-13.85-2-20.31-13.16Z"/></clipPath><clipPath id="clip-path-91"><path class="cls-1" d="M-1072.91,1910.93a4.1,4.1,0,0,1,4.1,4.1,4.1,4.1,0,0,1-4.1,4.1,4.1,4.1,0,0,1-4.1-4.1,4.1,4.1,0,0,1,4.1-4.1"/></clipPath><clipPath id="clip-path-92"><path class="cls-1" d="M-782.71,1677.57a18.41,18.41,0,0,0,1-6,18.46,18.46,0,0,0-18.46-18.46,18.46,18.46,0,0,0-18.46,18.46,18.37,18.37,0,0,0,3.07,10.18h0l0,.07.1.14,6.55,9.69a68.76,68.76,0,0,1-17.36,48.25,68.39,68.39,0,0,1-22.41,16.63l10.57,20.21A91.4,91.4,0,0,0-809.25,1755c16.44-18.49,23.06-40.44,22.13-63.35l4.42-14.12Z"/></clipPath><clipPath id="clip-path-93"><path class="cls-1" d="M-814.43,1633.09a4.21,4.21,0,0,0-4.21,4.21v39.35h8.42V1637.3a4.21,4.21,0,0,0-4.21-4.21"/></clipPath><clipPath id="clip-path-94"><path class="cls-1" d="M-794,1667.45h-25.65a1.52,1.52,0,0,0-1.5,1.19,22,22,0,0,0-.45,4.41,25.73,25.73,0,0,0,1.14,7.59c1.6,5.1,9.21,2.82,9.3-2.52a1.52,1.52,0,0,1,1.52-1.49H-794v-.08h0c2.8,0,5.08-1.73,5.08-4.53s-2.27-4.57-5.08-4.57"/></clipPath><clipPath id="clip-path-95"><path class="cls-1" d="M-1010.46,1760.36a32.14,32.14,0,0,0,32.14-32.14h-64.29a32.15,32.15,0,0,0,32.15,32.14"/></clipPath><clipPath id="clip-path-96"><path class="cls-1" d="M-1009.48,1644.32s-22.51,29.66-85.35,47.36c0,0-15.15-100.46,85.35-90.09Z"/></clipPath><clipPath id="clip-path-97"><path class="cls-1" d="M-1011.45,1644.32s22.51,29.66,85.35,47.36c0,0,15.15-101.71-85.35-91.34Z"/></clipPath><clipPath id="clip-path-98"><path class="cls-1" d="M736.12,1786.16s-71.17-123.23-201.91-52.61c-143.17,77.33-41.57,221-41.57,221S561,2048,817.78,2030V2167.3s-380,70.95-471.62-212.8c-96.89-300.22,184.9-369.12,184.9-369.12s200-50.48,317.53,134.63Z"/></clipPath><clipPath id="clip-path-99"><path class="cls-1" d="M1187.77,1786.16s71.17-123.23,201.91-52.61c143.17,77.33,41.57,221,41.57,221S1362.93,2048,1106.1,2030V2167.3s380,70.95,471.62-212.8c96.89-300.22-184.9-369.12-184.9-369.12s-200-50.48-317.53,134.63Z"/></clipPath><clipPath id="clip-path-100"><polygon class="cls-1" points="962.05 1613.57 469.93 1897.88 469.93 1968.96 962.05 2253.28 1454.18 1968.96 1454.18 1897.88 962.05 1613.57"/></clipPath><clipPath id="clip-path-101"><polygon class="cls-1" points="962.06 2253.28 469.93 1968.96 469.93 1897.88 962.06 2182.2 962.06 2253.28"/></clipPath><clipPath id="clip-path-102"><polygon class="cls-1" points="962.06 2253.28 1454.18 1968.96 1454.18 1897.88 962.06 2182.2 962.06 2253.28"/></clipPath><clipPath id="clip-path-103"><polygon class="cls-1" points="962.01 2253.69 469.39 1969.09 469.39 1897.94 962.01 2182.54 962.01 2253.69"/></clipPath><clipPath id="clip-path-104"><polygon class="cls-1" points="1208.33 2253.69 1454.64 2253.69 1454.64 1897.94 962.01 1897.94 962.01 2253.69 1208.33 2253.69"/></clipPath><clipPath id="clip-path-105"><polygon class="cls-1" points="1023.59 2004.66 777.28 1862.36 777.28 1648.9 1023.59 1791.21 1023.59 2004.66"/></clipPath><clipPath id="clip-path-106"><polygon class="cls-1" points="1124.71 1636.65 1023.59 1791.19 1023.59 2004.64 1208.33 1897.91 1208.33 1684.48 1124.71 1636.65"/></clipPath><clipPath id="clip-path-107"><polygon class="cls-1" points="760.48 1673.92 869.59 1488.78 1124.71 1636.65 1006.8 1816.23 760.48 1673.92"/></clipPath><clipPath id="clip-path-108"><polygon class="cls-1" points="1085.14 1969.09 1085.14 1826.76 1146.75 1791.21 1146.75 1933.49 1085.14 1969.09"/></clipPath><clipPath id="clip-path-109"><polygon class="cls-1" points="931.23 1808.86 931.23 1880.02 992.8 1915.59 992.8 1844.44 931.23 1808.86"/></clipPath><clipPath id="clip-path-110"><polygon class="cls-1" points="808.3 1737.84 808.3 1809 869.88 1844.57 869.88 1773.42 808.3 1737.84"/></clipPath><clipPath id="clip-path-111"><rect class="cls-2" x="469.39" y="1424.22" width="985.25" height="829.47"/></clipPath><clipPath id="clip-path-112"><path class="cls-1" d="M693.76,1829.07H600.43s-13.91,62.74,17.94,118.08h11.9s-54.57-97,16.82-97,16.82,97,16.82,97h11.9c31.85-55.34,17.94-118.08,17.94-118.08"/></clipPath><clipPath id="clip-path-113"><path class="cls-1" d="M681.52,1717.44h-.11a54.8,54.8,0,0,0-51.81,37l.26-.05a54.79,54.79,0,0,1,51.65-36.94"/></clipPath><clipPath id="clip-path-114"><path class="cls-1" d="M683.77,1717.49l1.5,0c-.5,0-1,0-1.5,0"/></clipPath><clipPath id="clip-path-115"><path class="cls-1" d="M681.55,1731a15.32,15.32,0,0,1,1.88.14,15.45,15.45,0,0,0-1.77-.15h-.11"/></clipPath><clipPath id="clip-path-116"><path class="cls-1" d="M681.65,1717.43h-.13a18.38,18.38,0,0,1,2.25.18,18.12,18.12,0,0,0-2.12-.18"/></clipPath><clipPath id="clip-path-117"><path class="cls-1" d="M684.06,1731.08l-.77,0,.77,0"/></clipPath><clipPath id="clip-path-118"><path class="cls-1" d="M646,1751.12l-16.17,3.26,0,.05,16.44-3.31a41.22,41.22,0,0,1,35.27-20.1h-.14a41.22,41.22,0,0,0-35.37,20.1"/></clipPath><clipPath id="clip-path-119"><path class="cls-1" d="M705.11,1722.71a54.47,54.47,0,0,0-20.86-5.2,54.45,54.45,0,0,1,20.82,5.29Z"/></clipPath><clipPath id="clip-path-120"><path class="cls-1" d="M705.08,1722.8a54.45,54.45,0,0,0-20.82-5.29h-.49c-.75,0-1.5-.06-2.25-.06a54.79,54.79,0,0,0-51.65,36.94l16.17-3.26a41.22,41.22,0,0,1,35.37-20.1h.24c.55,0,1.1,0,1.64,0h.25a40.91,40.91,0,0,1,16.23,4.16Z"/></clipPath><clipPath id="clip-path-121"><path class="cls-1" d="M613,1717.43a54.53,54.53,0,0,0-23.46,5.28l5.34,12.52a41.15,41.15,0,0,1,53.5,15.89l16.44,3.31a54.8,54.8,0,0,0-51.81-37"/></clipPath><clipPath id="clip-path-122"><path class="cls-1" d="M558.17,1772.25a54.81,54.81,0,0,0,30.13,49l4.4-13.06a41.23,41.23,0,0,1,2.12-72.92l-5.34-12.52a54.82,54.82,0,0,0-31.32,49.54"/></clipPath><clipPath id="clip-path-123"><path class="cls-1" d="M600.5,1676.62s1.23,21.15,11,28.13l-1.57-13.51Z"/></clipPath><clipPath id="clip-path-124"><path class="cls-1" d="M694.24,1676.62s-1.23,21.15-11,28.13l1.57-13.51Z"/></clipPath><clipPath id="clip-path-125"><path class="cls-1" d="M647.37,1725.8l-21.32-12s-21.11,75.35-25.62,115.27h46.94Z"/></clipPath><clipPath id="clip-path-126"><path class="cls-1" d="M647.09,1725.8l21.32-12s21.11,75.35,25.62,115.27H647.09Z"/></clipPath><clipPath id="clip-path-127"><path class="cls-1" d="M647.37,1722.85H630.72s7.44,16.73,16.65,18.75c9.21-2,16.65-18.75,16.65-18.75Z"/></clipPath><clipPath id="clip-path-128"><path class="cls-1" d="M647.37,1711.17l-16.65,11.69s8.76,11.39,16.65,11.39c2.42,0,10.86-3.66,16.65-11.39Z"/></clipPath><clipPath id="clip-path-129"><path class="cls-1" d="M611,1676.62a7.46,7.46,0,1,0,0,10.55,7.45,7.45,0,0,0,0-10.55"/></clipPath><clipPath id="clip-path-130"><path class="cls-1" d="M694.24,1676.62a7.46,7.46,0,1,0,0,10.55,7.45,7.45,0,0,0,0-10.55"/></clipPath><clipPath id="clip-path-131"><path class="cls-1" d="M655.82,1725.81c11.54-4,23.53-9.85,29.07-20.73,3.83-7.52,4-16.31,4-24.75a113.94,113.94,0,0,0-.81-18.24,44.5,44.5,0,0,0-2.12-8.5,39.86,39.86,0,0,0-22.74-23,42.46,42.46,0,0,0-15.9-2.86L640,1692.09l7.38,35.5.56,0a26.43,26.43,0,0,0,7.89-1.79"/></clipPath><clipPath id="clip-path-132"><path class="cls-1" d="M631,1631.07a38.89,38.89,0,0,0-18.91,15.78c-5.73,9.73-6.11,21.62-6.07,32.92,0,10.3.49,21.74,7.13,30.2s18.44,14,28.54,16.68a24.53,24.53,0,0,0,5.92.95l-3-36.32,8.83-3-5.81-60.52a45.1,45.1,0,0,0-16.61,3.33"/></clipPath><clipPath id="clip-path-133"><path class="cls-1" d="M635.51,1671.34a3.14,3.14,0,1,0-3.14,3.14,3.14,3.14,0,0,0,3.14-3.14"/></clipPath><clipPath id="clip-path-134"><path class="cls-1" d="M666.78,1671.34a3.13,3.13,0,1,0-3.14,3.14,3.14,3.14,0,0,0,3.14-3.14"/></clipPath><clipPath id="clip-path-135"><path class="cls-1" d="M677.31,1685.39c0,1.93-3.09,3.49-6.89,3.49s-6.89-1.56-6.89-3.49,3.09-3.49,6.89-3.49,6.89,1.56,6.89,3.49"/></clipPath><clipPath id="clip-path-136"><path class="cls-1" d="M618.93,1685.39c0,1.93,3.09,3.49,6.89,3.49s6.89-1.56,6.89-3.49-3.09-3.49-6.89-3.49-6.89,1.56-6.89,3.49"/></clipPath><clipPath id="clip-path-137"><polygon class="cls-1" points="644.35 1691.25 656.76 1691.25 653.18 1688.25 644.35 1691.25"/></clipPath><clipPath id="clip-path-138"><path class="cls-1" d="M684.28,1808.15h17.38l4.4,13.06c-3.86,6.67-12.13,7.87-12.13,7.87l-2.33-16h-7.07l-.25,0a2.45,2.45,0,0,1,0-4.9"/></clipPath><clipPath id="clip-path-139"><path class="cls-1" d="M665.92,1621.93v.35c-.77,1.44-7.79,14.19-17.15,21.18-3.51,2.62-7.34,4.43-11.3,4.52h23.73a7.83,7.83,0,0,1,6,2.53c2.33,2.5,3.09,6,7,6a8,8,0,0,1,5.61,2,9.82,9.82,0,0,1,2.87,6v17.51h6.51q0-1.07,0-2.13c0-1.75,0-3.52,0-5.29a7.41,7.41,0,0,1,4.22,1.46l.84.69v0l.1.13a150.36,150.36,0,0,0,1-16.23c0-19.28-12.2-33.14-29.46-38.56"/></clipPath><clipPath id="clip-path-140"><path class="cls-1" d="M655.19,1618.74a76.57,76.57,0,0,0-8,0c-1.4.07-2.81.18-4.2.33a57.15,57.15,0,0,0-6.07,1c-.19,0-.6.2-1,.34l-1.07.2h0a52,52,0,0,0-9,2.58c-15.57,6.05-26.32,19.37-26.29,37.45,0,3.83.36,10.56.92,15.24,0,.26,0,.51,0,.77l.08-.07,0,.29c.07-.07.12-.16.19-.23a7.33,7.33,0,0,1,4.55-2.1c.22,0,.45,0,.67,0,0,1.77,0,3.53,0,5.28,0,.71,0,1.42,0,2.13h6.51v-17.51a10.55,10.55,0,0,1,1.15-3.72l1.36-1.86,0,0c1.26-1.29,3.16-1.95,5.95-2.3s3.88-3.47,6.32-5.83A9.32,9.32,0,0,1,634,1648s14.89.05,17,0c21.11-.48,29.29-14.87,32.46-22.77.7-1.76,1.16-3.2,1.46-4.09a17,17,0,0,0,.54-2.38Z"/></clipPath><clipPath id="clip-path-141"><path class="cls-1" d="M682.66,1681.9c0,12.32-22.48,12.66-32.28,12.22h-5.56c-9.8.44-32.28.1-32.28-12.22H606c.12,9.72.93,20.19,7.11,28.06,6.59,8.4,18.44,14,28.54,16.68a19,19,0,0,0,11.85,0c10.1-2.68,21.95-8.28,28.54-16.68,6.18-7.88,7-18.35,7.11-28.06h-6.51Z"/></clipPath><clipPath id="clip-path-142"><path class="cls-1" d="M647.37,1718.18a19.2,19.2,0,0,0,19.2-19.21H628.17a19.2,19.2,0,0,0,19.2,19.21"/></clipPath><clipPath id="clip-path-143"><path class="cls-1" d="M705.08,1722.8l-5.3,12.43a40.91,40.91,0,0,0-16.23-4.16,41.23,41.23,0,0,1,18.11,77.08l4.4,13.06a54.84,54.84,0,0,0-1-98.4"/></clipPath><clipPath id="clip-path-144"><path class="cls-1" d="M634.86,1681.17a.94.94,0,1,0-.94.94.94.94,0,0,0,.94-.94"/></clipPath><clipPath id="clip-path-145"><path class="cls-1" d="M627.32,1678.15a.94.94,0,1,0-.94.94.94.94,0,0,0,.94-.94"/></clipPath><clipPath id="clip-path-146"><path class="cls-1" d="M640.89,1678.15a.94.94,0,1,0-.94.94.94.94,0,0,0,.94-.94"/></clipPath><clipPath id="clip-path-147"><path class="cls-1" d="M628.82,1682.68a.94.94,0,1,0-.94.94.94.94,0,0,0,.94-.94"/></clipPath><clipPath id="clip-path-148"><path class="cls-1" d="M624.3,1685.7a.94.94,0,1,0-.94.94.94.94,0,0,0,.94-.94"/></clipPath><clipPath id="clip-path-149"><path class="cls-1" d="M637.87,1685.7a.94.94,0,1,0-.94.94.94.94,0,0,0,.94-.94"/></clipPath><clipPath id="clip-path-150"><path class="cls-1" d="M663.49,1681.17a.94.94,0,1,1,.94.94.94.94,0,0,1-.94-.94"/></clipPath><clipPath id="clip-path-151"><path class="cls-1" d="M671,1678.15a.94.94,0,1,1,.94.94.94.94,0,0,1-.94-.94"/></clipPath><clipPath id="clip-path-152"><path class="cls-1" d="M657.46,1678.15a.94.94,0,1,1,.94.94.94.94,0,0,1-.94-.94"/></clipPath><clipPath id="clip-path-153"><path class="cls-1" d="M669.52,1682.68a.94.94,0,1,1,.94.94.94.94,0,0,1-.94-.94"/></clipPath><clipPath id="clip-path-154"><path class="cls-1" d="M674,1685.7a.94.94,0,1,1,.94.94.94.94,0,0,1-.94-.94"/></clipPath><clipPath id="clip-path-155"><path class="cls-1" d="M660.47,1685.7a.94.94,0,1,1,.94.94.94.94,0,0,1-.94-.94"/></clipPath><clipPath id="clip-path-156"><path class="cls-1" d="M600.43,1829.07s-13.91,62.74,17.94,118.08h11.9s-54.57-97,16.82-97v-21.06Z"/></clipPath><clipPath id="clip-path-157"><path class="cls-1" d="M693.76,1829.07s13.91,62.74-17.94,118.08h-11.9s54.57-97-16.82-97v-21.06Z"/></clipPath><clipPath id="clip-path-158"><path class="cls-1" d="M633.57,1948.78a4.32,4.32,0,0,0-3.38-1.63H618.37s-7.59,3.42-11.63-1a6,6,0,1,0-4.65,9.67h28.09a4.33,4.33,0,0,0,3.38-7"/></clipPath><clipPath id="clip-path-159"><path class="cls-1" d="M660.62,1948.78a4.32,4.32,0,0,1,3.38-1.63h11.81s7.59,3.42,11.63-1a6,6,0,1,1,4.65,9.67H664a4.34,4.34,0,0,1-3.38-7"/></clipPath><clipPath id="clip-path-160"><path class="cls-1" d="M610.08,1808.15H592.71l-4.4,13.06c3.86,6.67,12.13,7.87,12.13,7.87l2.33-16h7.07l.25,0a2.45,2.45,0,0,0,0-4.9"/></clipPath><clipPath id="clip-path-161"><rect class="cls-2" x="725.17" y="1632.87" width="51.09" height="100.04"/></clipPath><clipPath id="clip-path-162"><rect class="cls-2" x="774.09" y="1632.87" width="51.08" height="100.07"/></clipPath><clipPath id="clip-path-163"><path class="cls-1" d="M818.33,1833H731.9s-12.88,58.1,16.62,109.36h11s-50.53-89.86,15.58-89.86,15.58,89.86,15.58,89.86h11c29.5-51.25,16.62-109.36,16.62-109.36"/></clipPath><clipPath id="clip-path-164"><path class="cls-1" d="M731.9,1833s-12.88,58.1,16.62,109.36h11s-50.53-89.86,15.58-89.86V1833Z"/></clipPath><clipPath id="clip-path-165"><path class="cls-1" d="M818.33,1833s12.88,58.1-16.62,109.36h-11s50.53-89.86-15.58-89.86V1833Z"/></clipPath><clipPath id="clip-path-166"><path class="cls-1" d="M762.59,1943.89a4,4,0,0,0-3.13-1.51H748.52s-7,3.17-10.77-.93a5.51,5.51,0,1,0-4.3,9h26a4,4,0,0,0,3.13-6.52"/></clipPath><clipPath id="clip-path-167"><path class="cls-1" d="M787.65,1943.89a4,4,0,0,1,3.13-1.51h10.94s7,3.17,10.77-.93a5.51,5.51,0,1,1,4.3,9h-26a4,4,0,0,1-3.13-6.52"/></clipPath><clipPath id="clip-path-168"><path class="cls-1" d="M825.17,1682.91a50,50,0,0,0-50-50l-1.08,0L761.32,1675l12.77,57.9,1.08,0a50,50,0,0,0,50-50"/></clipPath><clipPath id="clip-path-169"><path class="cls-1" d="M725.7,1690.22s2.48,29.87-15.26,33.89c0,0,16.48,23.8,53.78,10.8l-5.37-25.14Z"/></clipPath><clipPath id="clip-path-170"><path class="cls-1" d="M824.57,1690.22s-2.48,29.87,15.26,33.89c0,0-16.48,23.8-53.77,10.8l5.37-25.14Z"/></clipPath><clipPath id="clip-path-171"><path class="cls-1" d="M693,1775.23a51.3,51.3,0,0,0-.28,5.31,50.63,50.63,0,0,0,27.84,45.22l4.07-12.06a38,38,0,0,1-19-38.47Z"/></clipPath><clipPath id="clip-path-172"><path class="cls-1" d="M720.43,1810.9a7.32,7.32,0,0,0-1.68-6.37c-1.68-1.73-3.37-3.54-7.15-3.06a38.28,38.28,0,0,1-8.33,9.91c-.14,2.32-1.47,6.24,0,7.73s6.54,1.21,8.81,1.21a50.77,50.77,0,0,0,8.35-9.42"/></clipPath><clipPath id="clip-path-173"><path class="cls-1" d="M756.94,1731.74l-2.57,12.34A38.24,38.24,0,0,1,776.05,1761l15.18,3.06a50.73,50.73,0,0,0-34.3-32.33"/></clipPath><clipPath id="clip-path-174"><path class="cls-1" d="M743.38,1729.9A50.63,50.63,0,0,0,693,1775.23h12.64a38,38,0,0,1,48.68-31.14l2.57-12.34a50.58,50.58,0,0,0-13.56-1.85"/></clipPath><clipPath id="clip-path-175"><path class="cls-1" d="M774.92,1737.63l19.69-11.09s19.51,69.61,23.67,106.49H774.92Z"/></clipPath><clipPath id="clip-path-176"><path class="cls-1" d="M779.7,1743.84a50.56,50.56,0,0,0-8.57,13.62l10.08,9a37.87,37.87,0,0,1,8-14.48l.26-.27-11.4-2Z"/></clipPath><clipPath id="clip-path-177"><path class="cls-1" d="M842,1731.52c-10.6-2.55-20.79-6-31.86-4.31a50.39,50.39,0,0,0-30.27,16.42l-.19.22-1.58,5.83,11.4,2a38.32,38.32,0,0,1,30-12.44c12.51.6,23.42,6.76,36.33,4.82a50.61,50.61,0,0,0,14.37-4.41l-5.83-11.16a38.32,38.32,0,0,1-22.41,3"/></clipPath><clipPath id="clip-path-178"><path class="cls-1" d="M775.17,1737.63l-19.69-11.09S736,1796.15,731.81,1833h43.36Z"/></clipPath><clipPath id="clip-path-179"><path class="cls-1" d="M759.79,1734.9h3.49l-4.44-6.46-10.8,7.68,12.54,7.72-1.74,12.72,16.32,43v-47.33c-8.51-1.86-15.38-17.32-15.38-17.32"/></clipPath><clipPath id="clip-path-180"><path class="cls-1" d="M790.55,1734.9h-3.49l4.44-6.46,10.8,7.68-12.54,7.72,1.74,12.72-16.32,43v-47.33c8.51-1.86,15.38-17.32,15.38-17.32"/></clipPath><clipPath id="clip-path-181"><path class="cls-1" d="M775.17,1734.9H759.79s6.87,15.46,15.38,17.32c8.51-1.86,15.38-17.32,15.38-17.32Z"/></clipPath><clipPath id="clip-path-182"><path class="cls-1" d="M775.17,1724.11l-15.38,10.8s8.1,10.52,15.38,10.52c2.24,0,10-3.38,15.38-10.52Z"/></clipPath><clipPath id="clip-path-183"><path class="cls-1" d="M741.62,1692.2a6.89,6.89,0,1,0,0,9.75,6.88,6.88,0,0,0,0-9.75"/></clipPath><clipPath id="clip-path-184"><path class="cls-1" d="M818.46,1692.2a6.89,6.89,0,1,0,0,9.75,6.88,6.88,0,0,0,0-9.75"/></clipPath><clipPath id="clip-path-185"><path class="cls-1" d="M783,1737.64c10.66-3.68,21.74-9.1,26.86-19.15,3.54-6.95,3.67-15.07,3.74-22.87a105.25,105.25,0,0,0-.75-16.85,41,41,0,0,0-2-7.86,36.82,36.82,0,0,0-21-21.24,39.23,39.23,0,0,0-14.69-2.65l-6.82,59.45,6.82,32.79.51,0a24.41,24.41,0,0,0,7.29-1.65"/></clipPath><clipPath id="clip-path-186"><path class="cls-1" d="M760,1650.12a35.93,35.93,0,0,0-17.47,14.58c-5.3,9-5.65,20-5.6,30.41,0,9.51.45,20.08,6.58,27.9s17,12.93,26.37,15.41a22.67,22.67,0,0,0,5.47.87l-2.79-33.55,8.15-2.79-5.37-55.9a41.67,41.67,0,0,0-15.34,3.08"/></clipPath><clipPath id="clip-path-187"><path class="cls-1" d="M764.22,1687.32a2.9,2.9,0,1,0-2.9,2.9,2.9,2.9,0,0,0,2.9-2.9"/></clipPath><clipPath id="clip-path-188"><path class="cls-1" d="M793.1,1687.32a2.9,2.9,0,1,0-2.9,2.9,2.9,2.9,0,0,0,2.9-2.9"/></clipPath><clipPath id="clip-path-189"><path class="cls-1" d="M802.83,1700.3c0,1.78-2.85,3.22-6.37,3.22s-6.37-1.44-6.37-3.22,2.85-3.22,6.37-3.22,6.37,1.44,6.37,3.22"/></clipPath><clipPath id="clip-path-190"><path class="cls-1" d="M748.9,1700.3c0,1.78,2.85,3.22,6.37,3.22s6.37-1.44,6.37-3.22-2.85-3.22-6.37-3.22-6.37,1.44-6.37,3.22"/></clipPath><clipPath id="clip-path-191"><polygon class="cls-1" points="772.38 1705.71 783.85 1705.71 780.54 1702.94 772.38 1705.71"/></clipPath><clipPath id="clip-path-192"><path class="cls-1" d="M724.67,1813.7h16.05v4.5H734L731.81,1833s-7.64-1.1-11.2-7.27Z"/></clipPath><clipPath id="clip-path-193"><path class="cls-1" d="M740.72,1813.7a2.26,2.26,0,1,1-2.26,2.26,2.26,2.26,0,0,1,2.26-2.26"/></clipPath><clipPath id="clip-path-194"><path class="cls-1" d="M900.81,1684.88a10.18,10.18,0,1,0-18.12,2.33h0l0,0,.05.08,3.61,5.35a37.92,37.92,0,0,1-21.94,35.82l5.83,11.16a50.43,50.43,0,0,0,15.9-12c9.07-10.2,12.72-22.32,12.21-35l2.44-7.79Z"/></clipPath><clipPath id="clip-path-195"><path class="cls-1" d="M883.31,1660.33a2.32,2.32,0,0,0-2.32,2.32v21.72h4.64v-21.72a2.32,2.32,0,0,0-2.32-2.32"/></clipPath><clipPath id="clip-path-196"><path class="cls-1" d="M894.58,1679.3H880.44a.84.84,0,0,0-.83.66,12.17,12.17,0,0,0-.25,2.43,14.2,14.2,0,0,0,.63,4.19c.88,2.81,5.08,1.56,5.13-1.39a.84.84,0,0,1,.84-.82h8.6v0h0a2.53,2.53,0,1,0,0-5"/></clipPath><clipPath id="clip-path-197"><path class="cls-1" d="M775.17,1730.59a17.74,17.74,0,0,0,17.73-17.74H757.44a17.74,17.74,0,0,0,17.73,17.74"/></clipPath><clipPath id="clip-path-198"><path class="cls-1" d="M775.71,1666.53s-12.42,16.37-47.08,26.15c0,0-8.36-55.46,47.08-49.73Z"/></clipPath><clipPath id="clip-path-199"><path class="cls-1" d="M774.63,1666.53s12.42,16.37,47.08,26.15c0,0,8.36-56.14-47.08-50.42Z"/></clipPath><clipPath id="clip-path-200"><path class="cls-1" d="M1464.72,1829c10,64.16-33.48,125.61-33.48,125.61S1362.93,2048,1106.1,2030V2167.3s380,70.95,471.62-212.8c17.3-53.61,22.53-99.84,19.44-139.63-14.2-183-204.34-229.5-204.34-229.5S1459.44,1795,1464.72,1829Z"/></clipPath><clipPath id="clip-path-201"><path class="cls-1" d="M1106.51,2029.13l-166.27-56-15.68,46.66,70,23.57L965.3,2204.45s83,15.21,141.35-36.21Z"/></clipPath><clipPath id="clip-path-202"><path class="cls-1" d="M908.93,1988.73a24.72,24.72,0,1,0,31.31-15.56,24.74,24.74,0,0,0-31.31,15.56"/></clipPath><clipPath id="clip-path-203"><path class="cls-1" d="M994.59,2043.4,842.85,2008,802.5,2161.43s120.38,50.91,189.46,45.13l28.61-66.14Z"/></clipPath><clipPath id="clip-path-204"><path class="cls-1" d="M802.5,2161.43c25.73,6.57,55.4-22.63,66.27-65.23s-1.18-82.46-26.91-89-55.4,22.63-66.27,65.23,1.18,82.46,26.91,89"/></clipPath><clipPath id="clip-path-205"><path class="cls-1" d="M463.74,1810c-23.52,70.42,28.9,144.55,28.9,144.55S561,2048,817.78,2030V2167.3s-380,70.95-471.62-212.8c-29.51-91.45-23.89-161.44-1.8-214.55,50.43-121.26,186.7-154.58,186.7-154.58S473,1782.39,463.74,1810Z"/></clipPath><clipPath id="clip-path-206"><path class="cls-1" d="M818.57,2031.38l175.31,6.16-1.73,49.19-73.84-2.59L889.1,2245.21s-74-13.36-113-72.66c-2.31-3.5,42.52-141.17,42.52-141.17"/></clipPath><clipPath id="clip-path-207"><path class="cls-1" d="M1017.72,2063.13a24.72,24.72,0,1,1-23.84-25.59,24.73,24.73,0,0,1,23.84,25.59"/></clipPath><clipPath id="clip-path-208"><path class="cls-1" d="M918.32,2084.14l154.49,20.26-16.2,157.85S926,2267.52,863.4,2237.79l-3.52-72Z"/></clipPath><clipPath id="clip-path-209"><path class="cls-1" d="M1056.61,2262.26c-26.4-2.91-43.9-40.69-39.09-84.39s30.1-76.77,56.5-73.86,43.9,40.69,39.09,84.39-30.1,76.77-56.5,73.87"/></clipPath><clipPath id="clip-path-210"><polygon class="cls-1" points="2770.39 1987.37 2770.39 2058.14 3260.65 2341.19 3750.91 2058.14 3750.91 1987.37 3260.65 1704.32 2770.39 1987.37"/></clipPath><clipPath id="clip-path-211"><polygon class="cls-1" points="3260.65 2341.19 2770.39 2058.14 2770.39 1987.37 3260.65 2270.43 3260.65 2341.19"/></clipPath><clipPath id="clip-path-212"><polygon class="cls-1" points="3505.78 2341.19 3750.91 2341.19 3750.91 1987.37 3260.65 1987.37 3260.65 2341.19 3505.78 2341.19"/></clipPath><clipPath id="clip-path-213"><path class="cls-1" d="M3618.06,1881.23a71.57,71.57,0,0,0-71.57,71.57h143.13a71.57,71.57,0,0,0-71.57-71.57"/></clipPath><clipPath id="clip-path-214"><path class="cls-1" d="M3570.94,1923.26a39.38,39.38,0,0,0-39.38,39.38h78.76a39.38,39.38,0,0,0-39.38-39.38"/></clipPath><clipPath id="clip-path-215"><path class="cls-1" d="M3313.09,2125.55a42.86,42.86,0,0,0-38.47,24,34.47,34.47,0,0,0-40.93-1.2,53.28,53.28,0,1,0-104.63,20.12H3356a42.9,42.9,0,0,0-42.9-42.9"/></clipPath><clipPath id="clip-path-216"><path class="cls-1" d="M2881.15,1984.81h122.91a61.45,61.45,0,0,0-122.91,0Z"/></clipPath><clipPath id="clip-path-217"><path class="cls-1" d="M3218.2,1850.5H3049.57s-25.14,113.28,32.42,213.21h21.5s-98.59-175.19,30.39-175.19,30.39,175.19,30.39,175.19h21.5c57.55-99.93,32.42-213.21,32.42-213.21"/></clipPath><clipPath id="clip-path-218"><path class="cls-1" d="M3196.08,1648.92h-.19a99,99,0,0,0-93.61,66.8l.47-.1a99,99,0,0,1,93.33-66.7"/></clipPath><clipPath id="clip-path-219"><path class="cls-1" d="M3200.15,1649c.9,0,1.82,0,2.72.07-.9,0-1.81,0-2.72-.07"/></clipPath><clipPath id="clip-path-220"><path class="cls-1" d="M3196.14,1673.46a27.72,27.72,0,0,1,3.4.25,27.92,27.92,0,0,0-3.19-.27l-.2,0"/></clipPath><clipPath id="clip-path-221"><path class="cls-1" d="M3196.32,1648.91h-.24a33.17,33.17,0,0,1,4.07.32,32.68,32.68,0,0,0-3.82-.33"/></clipPath><clipPath id="clip-path-222"><path class="cls-1" d="M3200.69,1673.56c-.46,0-.93,0-1.39,0l1.39,0"/></clipPath><clipPath id="clip-path-223"><path class="cls-1" d="M3132,1709.74l-29.23,5.89,0,.09,29.7-6a74.49,74.49,0,0,1,63.72-36.29h-.25a74.49,74.49,0,0,0-63.91,36.3"/></clipPath><clipPath id="clip-path-224"><path class="cls-1" d="M3238.72,1658.44A98.49,98.49,0,0,0,3201,1649a98.44,98.44,0,0,1,37.62,9.56Z"/></clipPath><clipPath id="clip-path-225"><path class="cls-1" d="M3238.65,1658.61A98.43,98.43,0,0,0,3201,1649l-.88,0c-1.35-.06-2.7-.1-4.07-.1a99,99,0,0,0-93.33,66.7l29.23-5.89a74.49,74.49,0,0,1,63.91-36.3h.44c1,0,2,0,3,.09h.45a74,74,0,0,1,29.33,7.51Z"/></clipPath><clipPath id="clip-path-226"><path class="cls-1" d="M3072.2,1648.91a98.59,98.59,0,0,0-42.4,9.53l9.65,22.6a74.37,74.37,0,0,1,96.66,28.69l29.7,6a99,99,0,0,0-93.61-66.8"/></clipPath><clipPath id="clip-path-227"><path class="cls-1" d="M2973.21,1747.9a99,99,0,0,0,54.44,88.39l8-23.57a74.42,74.42,0,0,1,3.84-131.67l-9.65-22.6a99,99,0,0,0-56.59,89.46"/></clipPath><clipPath id="clip-path-228"><path class="cls-1" d="M3049.71,1575.23s2.21,38.19,19.81,50.79l-2.84-24.39Z"/></clipPath><clipPath id="clip-path-229"><path class="cls-1" d="M3219.06,1575.23s-2.21,38.19-19.81,50.79l2.84-24.39Z"/></clipPath><clipPath id="clip-path-230"><path class="cls-1" d="M3134.38,1664l-38.52-21.67s-38.15,136.05-46.29,208.14h84.81Z"/></clipPath><clipPath id="clip-path-231"><path class="cls-1" d="M3133.89,1664l38.52-21.67s38.15,136.05,46.29,208.14h-84.81Z"/></clipPath><clipPath id="clip-path-232"><path class="cls-1" d="M3134.38,1658.7h-30.08s13.44,30.21,30.08,33.85c16.64-3.63,30.08-33.85,30.08-33.85Z"/></clipPath><clipPath id="clip-path-233"><path class="cls-1" d="M3134.38,1637.6l-30.08,21.1s15.84,20.57,30.08,20.57c4.38,0,19.63-6.61,30.08-20.57Z"/></clipPath><clipPath id="clip-path-234"><path class="cls-1" d="M3068.76,1575.23a13.47,13.47,0,1,0,0,19.05,13.47,13.47,0,0,0,0-19.05"/></clipPath><clipPath id="clip-path-235"><path class="cls-1" d="M3219.06,1575.23a13.47,13.47,0,1,0,0,19.05,13.47,13.47,0,0,0,0-19.05"/></clipPath><clipPath id="clip-path-236"><path class="cls-1" d="M3149.65,1664c20.85-7.2,42.52-17.78,52.53-37.43,6.92-13.58,7.17-29.46,7.31-44.7.1-11,.19-22.13-1.46-32.93a80.29,80.29,0,0,0-3.83-15.36c-6.87-18.85-22.41-34.18-41.09-41.51a76.75,76.75,0,0,0-28.73-5.17L3121,1603.15l13.34,64.1c.34,0,.67,0,1,0,4.89-.12,9.63-1.63,14.25-3.23"/></clipPath><clipPath id="clip-path-237"><path class="cls-1" d="M3104.78,1493c-14,5.71-26.51,15.48-34.17,28.49-10.36,17.58-11,39-11,59.44.08,18.59.89,39.25,12.88,54.53s33.31,25.28,51.57,30.12a44.34,44.34,0,0,0,10.7,1.71l-5.45-65.58,16-5.45L3134.79,1487a81.54,81.54,0,0,0-30,6"/></clipPath><clipPath id="clip-path-238"><path class="cls-1" d="M3113,1565.69a5.66,5.66,0,1,0-5.66,5.66,5.67,5.67,0,0,0,5.66-5.66"/></clipPath><clipPath id="clip-path-239"><path class="cls-1" d="M3169.45,1565.69a5.66,5.66,0,1,0-5.66,5.66,5.66,5.66,0,0,0,5.66-5.66"/></clipPath><clipPath id="clip-path-240"><path class="cls-1" d="M3188.48,1591.05c0,3.48-5.58,6.3-12.45,6.3s-12.46-2.82-12.46-6.3,5.58-6.3,12.46-6.3,12.45,2.82,12.45,6.3"/></clipPath><clipPath id="clip-path-241"><path class="cls-1" d="M3083,1591.05c0,3.48,5.58,6.3,12.45,6.3s12.46-2.82,12.46-6.3-5.58-6.3-12.46-6.3-12.45,2.82-12.45,6.3"/></clipPath><clipPath id="clip-path-242"><polygon class="cls-1" points="3128.93 1601.63 3151.36 1601.63 3144.89 1596.22 3128.93 1601.63"/></clipPath><clipPath id="clip-path-243"><path class="cls-1" d="M3201.08,1812.72h31.39l8,23.57c-7,12-21.91,14.2-21.91,14.2l-4.22-29h-12.77a4.28,4.28,0,0,1-.45,0,4.42,4.42,0,1,1,0-8.85"/></clipPath><clipPath id="clip-path-244"><path class="cls-1" d="M3167.9,1476.48v.62c-1.4,2.6-14.07,25.63-31,38.24-6.34,4.73-13.27,8-20.43,8.16h42.87c5.43.12,8.57,2.09,10.88,4.57,4.21,4.52,5.58,10.76,12.62,10.76a14.54,14.54,0,0,1,10.14,3.56c4.7,4.24,5.18,10.75,5.18,10.75v31.62H3210q0-1.94,0-3.85c0-3.17,0-6.36-.06-9.56a13.39,13.39,0,0,1,7.62,2.64l1.52,1.24s0,0,0,0l.19.23a271.3,271.3,0,0,0,1.88-29.31c0-34.81-22-59.84-53.23-69.62"/></clipPath><clipPath id="clip-path-245"><path class="cls-1" d="M3148.51,1470.71a138.06,138.06,0,0,0-14.41,0c-2.54.13-5.07.32-7.59.6a103.3,103.3,0,0,0-11,1.78c-.34.08-1.08.36-1.83.61l-1.93.36h0a94.08,94.08,0,0,0-16.21,4.65c-28.13,10.93-47.55,35-47.51,67.61,0,6.91.65,19.07,1.66,27.51,0,.47,0,.91,0,1.39l.15-.12c0,.17,0,.36.06.53.12-.13.21-.28.34-.41a13.25,13.25,0,0,1,8.23-3.79c.41,0,.81-.09,1.21-.07-.06,3.19-.07,6.38-.06,9.54q0,1.91,0,3.85h11.76v-31.62a19,19,0,0,1,2.07-6.71l2.45-3.36.06-.08c2.28-2.33,5.7-3.52,10.75-4.15s7-6.27,11.42-10.52a16.85,16.85,0,0,1,12.09-4.8s26.9.1,30.75,0c38.14-.86,52.93-26.84,58.65-41.11,1.27-3.17,2.1-5.77,2.64-7.38a30.64,30.64,0,0,0,1-4.3Z"/></clipPath><clipPath id="clip-path-246"><path class="cls-1" d="M3198.14,1584.75c0,22.25-40.62,22.85-58.33,22.06h-10c-17.7.79-58.33.18-58.33-22.06h-11.76c.21,17.55,1.68,36.45,12.85,50.68,11.91,15.18,33.31,25.28,51.57,30.12a34.37,34.37,0,0,0,21.41,0c18.25-4.84,39.66-14.95,51.57-30.12,11.17-14.23,12.63-33.13,12.84-50.68h-11.76Z"/></clipPath><clipPath id="clip-path-247"><path class="cls-1" d="M3134.38,1650.26a34.68,34.68,0,0,0,34.68-34.68H3099.7a34.68,34.68,0,0,0,34.68,34.68"/></clipPath><clipPath id="clip-path-248"><path class="cls-1" d="M3238.65,1658.61l-9.58,22.44a74,74,0,0,0-29.33-7.51,74.44,74.44,0,0,1,32.73,139.18l8,23.57a99,99,0,0,0-1.78-177.68"/></clipPath><clipPath id="clip-path-249"><path class="cls-1" d="M3111.77,1583.43a1.7,1.7,0,1,0-1.7,1.7,1.7,1.7,0,0,0,1.7-1.7"/></clipPath><clipPath id="clip-path-250"><path class="cls-1" d="M3098.15,1578a1.7,1.7,0,1,0-1.7,1.7,1.7,1.7,0,0,0,1.7-1.7"/></clipPath><clipPath id="clip-path-251"><path class="cls-1" d="M3122.67,1578a1.7,1.7,0,1,0-1.7,1.7,1.7,1.7,0,0,0,1.7-1.7"/></clipPath><clipPath id="clip-path-252"><path class="cls-1" d="M3100.88,1586.16a1.7,1.7,0,1,0-1.7,1.7,1.7,1.7,0,0,0,1.7-1.7"/></clipPath><clipPath id="clip-path-253"><path class="cls-1" d="M3092.7,1591.61a1.7,1.7,0,1,0-1.7,1.7,1.7,1.7,0,0,0,1.7-1.7"/></clipPath><clipPath id="clip-path-254"><path class="cls-1" d="M3117.22,1591.61a1.7,1.7,0,1,0-1.7,1.7,1.7,1.7,0,0,0,1.7-1.7"/></clipPath><clipPath id="clip-path-255"><path class="cls-1" d="M3163.51,1583.43a1.7,1.7,0,1,1,1.7,1.7,1.7,1.7,0,0,1-1.7-1.7"/></clipPath><clipPath id="clip-path-256"><path class="cls-1" d="M3177.13,1578a1.7,1.7,0,1,1,1.7,1.7,1.7,1.7,0,0,1-1.7-1.7"/></clipPath><clipPath id="clip-path-257"><path class="cls-1" d="M3152.61,1578a1.7,1.7,0,1,1,1.7,1.7,1.7,1.7,0,0,1-1.7-1.7"/></clipPath><clipPath id="clip-path-258"><path class="cls-1" d="M3174.4,1586.16a1.7,1.7,0,1,1,1.7,1.7,1.7,1.7,0,0,1-1.7-1.7"/></clipPath><clipPath id="clip-path-259"><path class="cls-1" d="M3182.58,1591.61a1.7,1.7,0,1,1,1.7,1.7,1.7,1.7,0,0,1-1.7-1.7"/></clipPath><clipPath id="clip-path-260"><path class="cls-1" d="M3158.06,1591.61a1.7,1.7,0,1,1,1.7,1.7,1.7,1.7,0,0,1-1.7-1.7"/></clipPath><clipPath id="clip-path-261"><path class="cls-1" d="M3049.57,1850.5s-25.14,113.28,32.42,213.21h21.5s-98.59-175.19,30.39-175.19v-38Z"/></clipPath><clipPath id="clip-path-262"><path class="cls-1" d="M3218.2,1850.5s25.14,113.28-32.42,213.21h-21.5s98.59-175.19-30.39-175.19v-38Z"/></clipPath><clipPath id="clip-path-263"><path class="cls-1" d="M3109.45,2066.65a7.81,7.81,0,0,0-6.11-2.94H3082s-13.72,6.18-21-1.81a10.75,10.75,0,1,0-8.4,17.46h50.76a7.83,7.83,0,0,0,6.11-12.71"/></clipPath><clipPath id="clip-path-264"><path class="cls-1" d="M3158.33,2066.65a7.81,7.81,0,0,1,6.11-2.94h21.35s13.72,6.18,21-1.81a10.75,10.75,0,1,1,8.4,17.46h-50.76a7.83,7.83,0,0,1-6.11-12.71"/></clipPath><clipPath id="clip-path-265"><path class="cls-1" d="M3067,1812.72h-31.39l-8,23.57c7,12,21.91,14.2,21.91,14.2l4.22-29h12.77a4.28,4.28,0,0,0,.45,0,4.42,4.42,0,1,0,0-8.85"/></clipPath><clipPath id="clip-path-266"><rect class="cls-2" x="3282.68" y="1474.59" width="95.11" height="186.11"/></clipPath><clipPath id="clip-path-267"><rect class="cls-2" x="3373.74" y="1474.59" width="95.09" height="186.16"/></clipPath><clipPath id="clip-path-268"><path class="cls-1" d="M3456.11,1846.95H3295.2s-24,108.09,30.93,203.44h20.52s-94.08-167.16,29-167.16,29,167.16,29,167.16h20.52c54.92-95.35,30.93-203.44,30.93-203.44"/></clipPath><clipPath id="clip-path-269"><path class="cls-1" d="M3295.2,1846.95s-24,108.09,30.93,203.44h20.52s-94.08-167.16,29-167.16v-36.28Z"/></clipPath><clipPath id="clip-path-270"><path class="cls-1" d="M3456.11,1846.95s24,108.09-30.93,203.44h-20.52s94.08-167.16-29-167.16v-36.28Z"/></clipPath><clipPath id="clip-path-271"><path class="cls-1" d="M3352.34,2053.2a7.45,7.45,0,0,0-5.83-2.81h-20.37s-13.09,5.9-20-1.73a10.26,10.26,0,1,0-8,16.66h48.43a7.47,7.47,0,0,0,5.83-12.13"/></clipPath><clipPath id="clip-path-272"><path class="cls-1" d="M3399,2053.2a7.46,7.46,0,0,1,5.83-2.81h20.37s13.09,5.9,20-1.73a10.26,10.26,0,1,1,8,16.66h-48.43a7.47,7.47,0,0,1-5.83-12.13"/></clipPath><clipPath id="clip-path-273"><path class="cls-1" d="M3468.83,1567.67a93.08,93.08,0,0,0-93.08-93.08c-.68,0-1.34,0-2,.05L3350,1553l23.77,107.71c.67,0,1.34.05,2,.05a93.08,93.08,0,0,0,93.08-93.08"/></clipPath><clipPath id="clip-path-274"><path class="cls-1" d="M3283.66,1581.27s4.61,55.57-28.41,63c0,0,30.69,44.28,100.11,20.08l-10-46.77Z"/></clipPath><clipPath id="clip-path-275"><path class="cls-1" d="M3467.71,1581.27s-4.61,55.57,28.41,63c0,0-30.69,44.28-100.11,20.08l10-46.77Z"/></clipPath><clipPath id="clip-path-276"><path class="cls-1" d="M3222.87,1739.42a95.37,95.37,0,0,0-.52,9.88,94.19,94.19,0,0,0,51.82,84.13l7.57-22.44a70.69,70.69,0,0,1-35.35-71.58Z"/></clipPath><clipPath id="clip-path-277"><path class="cls-1" d="M3275.32,1806c.88-4.94-2.11-9.56-4.59-12.11-3.12-3.21-5.85-6.58-12.9-5.68-4.15,6.11-10.51,12.42-16.67,17.63-.26,4.31-2,12.4.76,15.17s16.44,2.47,16.44,2.47Z"/></clipPath><clipPath id="clip-path-278"><path class="cls-1" d="M3341.81,1658.52l-4.79,23a71.19,71.19,0,0,1,40.38,31.5l28.27,5.69a94.42,94.42,0,0,0-63.85-60.15"/></clipPath><clipPath id="clip-path-279"><path class="cls-1" d="M3316.57,1655.09a94.22,94.22,0,0,0-93.69,84.33h23.53a70.76,70.76,0,0,1,90.62-57.94l4.79-23a94.23,94.23,0,0,0-25.25-3.44"/></clipPath><clipPath id="clip-path-280"><path class="cls-1" d="M3375.28,1669.47l36.66-20.63s36.31,129.49,44.06,198.11h-80.72Z"/></clipPath><clipPath id="clip-path-281"><path class="cls-1" d="M3384.19,1681a94.05,94.05,0,0,0-16,25.34l18.77,16.7a70.45,70.45,0,0,1,15-26.94l.48-.51-21.22-3.75Z"/></clipPath><clipPath id="clip-path-282"><path class="cls-1" d="M3500.2,1658.1c-19.73-4.74-38.71-11.11-59.31-8a93.82,93.82,0,0,0-56.35,30.54l-.35.41-2.95,10.84,21.22,3.75a71.36,71.36,0,0,1,55.94-23.14c23.29,1.12,43.6,12.57,67.64,9a94.26,94.26,0,0,0,26.76-8.21l-10.86-20.76a71.38,71.38,0,0,1-41.73,5.63"/></clipPath><clipPath id="clip-path-283"><path class="cls-1" d="M3375.75,1669.47l-36.66-20.63s-36.31,129.49-44.06,198.11h80.72Z"/></clipPath><clipPath id="clip-path-284"><path class="cls-1" d="M3347.13,1664.4h6.5l-8.26-12-20.1,14.29,23.34,14.37-3.24,23.67,30.38,80v-88c-15.83-3.46-28.63-32.22-28.63-32.22"/></clipPath><clipPath id="clip-path-285"><path class="cls-1" d="M3404.38,1664.4h-6.5l8.26-12,20.1,14.29L3402.89,1681l3.24,23.67-30.38,80v-88c15.83-3.46,28.63-32.22,28.63-32.22"/></clipPath><clipPath id="clip-path-286"><path class="cls-1" d="M3375.75,1664.4h-28.63s12.79,28.76,28.63,32.22c15.83-3.46,28.63-32.22,28.63-32.22Z"/></clipPath><clipPath id="clip-path-287"><path class="cls-1" d="M3375.75,1644.32l-28.63,20.08s15.07,19.58,28.63,19.58c4.16,0,18.69-6.29,28.63-19.58Z"/></clipPath><clipPath id="clip-path-288"><path class="cls-1" d="M3313.29,1585a12.82,12.82,0,1,0,0,18.13,12.82,12.82,0,0,0,0-18.13"/></clipPath><clipPath id="clip-path-289"><path class="cls-1" d="M3456.35,1585a12.82,12.82,0,1,0,0,18.13,12.82,12.82,0,0,0,0-18.13"/></clipPath><clipPath id="clip-path-290"><path class="cls-1" d="M3390.28,1669.49c19.84-6.85,40.47-16.92,50-35.63,6.58-12.93,6.82-28,7-42.54.1-10.44.19-21.07-1.39-31.34a76.32,76.32,0,0,0-3.65-14.62c-6.53-17.94-21.33-32.53-39.1-39.51a73.08,73.08,0,0,0-27.34-4.92l-12.7,110.59,12.7,61c.32,0,.64,0,1,0,4.65-.11,9.17-1.56,13.57-3.08"/></clipPath><clipPath id="clip-path-291"><path class="cls-1" d="M3347.57,1506.67c-13.3,5.44-25.23,14.74-32.53,27.12-9.86,16.73-10.51,37.15-10.43,56.57.07,17.69.84,37.36,12.25,51.9s31.71,24.06,49.08,28.67a42.22,42.22,0,0,0,10.19,1.63l-5.19-62.42,15.18-5.19-10-104a77.62,77.62,0,0,0-28.56,5.72"/></clipPath><clipPath id="clip-path-292"><path class="cls-1" d="M3355.36,1575.88a5.39,5.39,0,1,0-5.39,5.39,5.39,5.39,0,0,0,5.39-5.39"/></clipPath><clipPath id="clip-path-293"><path class="cls-1" d="M3409.13,1575.88a5.39,5.39,0,1,0-5.39,5.39,5.39,5.39,0,0,0,5.39-5.39"/></clipPath><clipPath id="clip-path-294"><path class="cls-1" d="M3427.24,1600c0,3.31-5.31,6-11.85,6s-11.86-2.68-11.86-6,5.31-6,11.86-6,11.85,2.68,11.85,6"/></clipPath><clipPath id="clip-path-295"><path class="cls-1" d="M3326.85,1600c0,3.31,5.31,6,11.85,6s11.85-2.68,11.85-6-5.31-6-11.85-6-11.85,2.68-11.85,6"/></clipPath><clipPath id="clip-path-296"><polygon class="cls-1" points="3370.57 1610.08 3391.91 1610.08 3385.75 1604.93 3370.57 1610.08"/></clipPath><clipPath id="clip-path-297"><path class="cls-1" d="M3281.75,1811h29.88v8.38H3299l-4,27.58s-14.22-2.05-20.86-13.52Z"/></clipPath><clipPath id="clip-path-298"><path class="cls-1" d="M3311.63,1811a4.21,4.21,0,1,1-4.21,4.21,4.21,4.21,0,0,1,4.21-4.21"/></clipPath><clipPath id="clip-path-299"><path class="cls-1" d="M3609.64,1571.35a19,19,0,1,0-33.74,4.33h0l0,.07.1.14,6.73,10a70.55,70.55,0,0,1-40.84,66.63l10.86,20.76a93.87,93.87,0,0,0,29.6-22.33c16.89-19,23.68-41.53,22.72-65.06l4.54-14.5Z"/></clipPath><clipPath id="clip-path-300"><path class="cls-1" d="M3577.07,1525.67a4.32,4.32,0,0,0-4.32,4.32v40.41h8.64V1530a4.32,4.32,0,0,0-4.32-4.32"/></clipPath><clipPath id="clip-path-301"><path class="cls-1" d="M3598.06,1561h-26.34a1.56,1.56,0,0,0-1.54,1.22,22.63,22.63,0,0,0-.47,4.53,26.41,26.41,0,0,0,1.17,7.79c1.64,5.23,9.45,2.9,9.55-2.59a1.56,1.56,0,0,1,1.56-1.53h16v-.08h0c2.88,0,5.21-1.77,5.21-4.65s-2.33-4.7-5.21-4.7"/></clipPath><clipPath id="clip-path-302"><path class="cls-1" d="M3375.75,1656.37a33,33,0,0,0,33-33h-66a33,33,0,0,0,33,33"/></clipPath><clipPath id="clip-path-303"><path class="cls-1" d="M3376.76,1537.2s-23.12,30.46-87.65,48.64c0,0-15.56-103.17,87.65-92.52Z"/></clipPath><clipPath id="clip-path-304"><path class="cls-1" d="M3374.74,1537.2s23.12,30.46,87.65,48.64c0,0,15.56-104.45-87.65-93.8Z"/></clipPath><clipPath id="clip-path-305"><polygon class="cls-1" points="5045.71 1987.42 5045.71 2058.06 5535.08 2340.6 6024.45 2058.06 6024.45 1987.42 5535.08 1704.88 5045.71 1987.42"/></clipPath><clipPath id="clip-path-306"><polygon class="cls-1" points="5535.08 2340.6 5045.71 2058.06 5045.71 1987.42 5535.08 2269.96 5535.08 2340.6"/></clipPath><clipPath id="clip-path-307"><polygon class="cls-1" points="5779.77 2340.6 6024.45 2340.6 6024.45 1987.42 5535.08 1987.42 5535.08 2340.6 5779.77 2340.6"/></clipPath><clipPath id="clip-path-308"><path class="cls-1" d="M5495.82,2057.16l-165,95.17,94.05,54.3,201.18-116a53.29,53.29,0,0,0-2.91-95.35L5519,1935.16l-94.05,54.3,70.37,40.6a16.17,16.17,0,0,1,.51,27.1Z"/></clipPath><clipPath id="clip-path-309"><polygon class="cls-1" points="5380.85 2182.41 5436.99 2149.6 5427.49 2144.64 5371.58 2177.02 5380.85 2182.41"/></clipPath><clipPath id="clip-path-310"><polygon class="cls-1" points="5485.59 2118.4 5541.74 2085.59 5532.23 2080.63 5476.32 2113.01 5485.59 2118.4"/></clipPath><clipPath id="clip-path-311"><path class="cls-1" d="M5572.88,2066s19.45-13.41,26-17.76,5.11-14.73-1.54-19.13-22.3-14.76-23.14-14.35-8.4,5.49-8.4,5.49,18.78,11.38,21.21,12.79,9.57,6,2.88,10.14-26.29,17.43-26.29,17.43Z"/></clipPath><clipPath id="clip-path-312"><polyline class="cls-1" points="5526.65 1996.2 5470.5 1963.39 5480.01 1958.43 5535.92 1990.81"/></clipPath><clipPath id="clip-path-313"><polygon class="cls-1" points="5516.89 1880.96 5516.79 1628.92 5437.86 1583.35 5438 1835.35 5516.89 1880.96"/></clipPath><clipPath id="clip-path-314"><polygon class="cls-1" points="5595.73 1583.35 5516.79 1628.92 5516.89 1880.96 5595.88 1835.35 5595.73 1583.35"/></clipPath><clipPath id="clip-path-315"><polygon class="cls-1" points="5437.86 1583.35 5516.79 1537.77 5595.73 1583.35 5516.79 1628.92 5437.86 1583.35"/></clipPath><clipPath id="clip-path-316"><polygon class="cls-1" points="5477.24 1583.31 5477.24 1514.91 5516.78 1537.74 5516.78 1606.13 5477.24 1583.31"/></clipPath><clipPath id="clip-path-317"><polygon class="cls-1" points="5556.24 1514.91 5516.78 1537.74 5516.78 1606.13 5556.24 1583.31 5556.24 1514.91"/></clipPath><clipPath id="clip-path-318"><polygon class="cls-1" points="5516.78 1537.74 5556.24 1514.91 5516.78 1492.08 5477.24 1514.91 5516.78 1537.74"/></clipPath><clipPath id="clip-path-319"><polygon class="cls-1" points="5506.33 1515.56 5506.33 1427.88 5516.75 1433.89 5516.75 1521.58 5506.33 1515.56"/></clipPath><clipPath id="clip-path-320"><polygon class="cls-1" points="5527.15 1427.88 5516.75 1433.89 5516.75 1521.58 5527.15 1515.56 5527.15 1427.88"/></clipPath><clipPath id="clip-path-321"><rect class="cls-2" x="5506.33" y="1421.86" width="20.82" height="12.03"/></clipPath><clipPath id="clip-path-322"><polygon class="cls-1" points="5638 1834.55 5637.93 1664.09 5584.02 1633.27 5584.12 1803.71 5638 1834.55"/></clipPath><clipPath id="clip-path-323"><polygon class="cls-1" points="5691.84 1633.27 5637.93 1664.09 5638 1834.55 5691.94 1803.71 5691.84 1633.27"/></clipPath><clipPath id="clip-path-324"><polygon class="cls-1" points="5584.02 1633.27 5637.93 1602.44 5691.84 1633.27 5637.93 1664.09 5584.02 1633.27"/></clipPath><clipPath id="clip-path-325"><polygon class="cls-1" points="5414.83 1846.47 5414.77 1681.69 5362.78 1651.9 5362.88 1816.66 5414.83 1846.47"/></clipPath><clipPath id="clip-path-326"><polygon class="cls-1" points="5466.75 1651.9 5414.77 1681.69 5414.83 1846.47 5466.84 1816.66 5466.75 1651.9"/></clipPath><clipPath id="clip-path-327"><polygon class="cls-1" points="5362.78 1651.9 5414.76 1622.1 5466.75 1651.9 5414.76 1681.69 5362.78 1651.9"/></clipPath><clipPath id="clip-path-328"><path class="cls-1" d="M5923.45,1904.89c-26.79-16.65-113.34-38.16-234.91-38.65l-63.92-75.18a71.3,71.3,0,0,0-54-25.12l-300.07-1.22a57,57,0,0,0-40.4,16.54l-72.23,71.65a57.06,57.06,0,0,0-15.11,26.43l-10.6,41.67,213.49,100.69,598.9,2.44.33-80.61a45.23,45.23,0,0,0-21.45-38.64"/></clipPath><clipPath id="clip-path-329"><path class="cls-1" d="M5624.62,1791.05a71.29,71.29,0,0,0-54-25.12l-300.07-1.22a57,57,0,0,0-40.4,16.54L5161,1849.83l37.29.15a356.67,356.67,0,0,1,39.36,2.34l108.66,12.52,342.23,1.39Z"/></clipPath><clipPath id="clip-path-330"><path class="cls-1" d="M5602,1865.88l-236.76-1a341.94,341.94,0,0,1-37.78-2.25l-74.18-8.55a19.55,19.55,0,0,1-13-31.69l26.43-32.77a28.55,28.55,0,0,1,22.31-10.61l243.87,1a28.51,28.51,0,0,1,21.87,10.35l52.75,63.82a7.13,7.13,0,0,1-5.52,11.67"/></clipPath><clipPath id="clip-path-331"><path class="cls-1" d="M5944.86,1952.83c.12-28.52-42.55-57.21-242.18-58l-556.12-2.27a14.26,14.26,0,0,0-14.32,14.2l-.3,71.3,270.82,29.62,541.86,2.2Z"/></clipPath><clipPath id="clip-path-332"><path class="cls-1" d="M5944.69,1995.61,5276,1992.89l-126.69-28.69a14.26,14.26,0,1,0-6.29,27.81l128.22,29a14,14,0,0,0,3.09.36l670.2,2.73a14.26,14.26,0,0,0,.12-28.52"/></clipPath><clipPath id="clip-path-333"><path class="cls-1" d="M5253.33,1934.57a65.36,65.36,0,1,1-65.62,65.09,65.36,65.36,0,0,1,65.62-65.09"/></clipPath><clipPath id="clip-path-334"><path class="cls-1" d="M5253.27,1950a49.91,49.91,0,1,0,49.7,50.11,50,50,0,0,0-49.7-50.11m-.52,128.34a78.43,78.43,0,1,1,78.74-78.11,78.51,78.51,0,0,1-78.74,78.11"/></clipPath><clipPath id="clip-path-335"><path class="cls-1" d="M5253.18,1971.4a28.52,28.52,0,1,1-28.63,28.4,28.52,28.52,0,0,1,28.63-28.4"/></clipPath><clipPath id="clip-path-336"><path class="cls-1" d="M5702.38,1966.11l-342.23-1.39a14.26,14.26,0,0,1,.12-28.52l342.23,1.39a14.26,14.26,0,0,1-.12,28.52"/></clipPath><clipPath id="clip-path-337"><path class="cls-1" d="M5944.8,1967.09l-14.26-.06a14.26,14.26,0,0,1,.12-28.52l14.26.06a14.26,14.26,0,0,1-.12,28.52"/></clipPath><clipPath id="clip-path-338"><rect class="cls-2" x="5417.77" y="1808.26" width="85.56" height="28.52" transform="translate(3615.97 7275.66) rotate(-89.77)"/></clipPath><clipPath id="clip-path-339"><path class="cls-1" d="M5929.73,1910l-13.21-.05a14.26,14.26,0,0,0-.12,28.52l27.88.11a44.67,44.67,0,0,0-14.55-28.58"/></clipPath><clipPath id="clip-path-340"><path class="cls-1" d="M5624.62,1791.05a71.26,71.26,0,0,0-11.32-10.68l-23.27-.1a7.13,7.13,0,0,0-5.52,11.67l52.75,63.82a28.52,28.52,0,0,0,21.87,10.35l29.42.12Z"/></clipPath><clipPath id="clip-path-341"><polygon class="cls-1" points="5318.82 1861.67 5346.65 1779.29 5318.13 1779.17 5278.79 1857.06 5318.82 1861.67"/></clipPath><clipPath id="clip-path-342"><path class="cls-1" d="M5142.79,1879.34l-3.36,13.18,35.64.15a14.26,14.26,0,1,0,.12-28.52l-25.94-.11a56.9,56.9,0,0,0-6.46,15.3"/></clipPath><clipPath id="clip-path-343"><path class="cls-1" d="M5809.45,1936.83a65.36,65.36,0,1,1-65.62,65.09,65.36,65.36,0,0,1,65.62-65.09"/></clipPath><clipPath id="clip-path-344"><path class="cls-1" d="M5809.39,1952.28a49.91,49.91,0,1,0,49.7,50.11,50,50,0,0,0-49.7-50.11m-.52,128.34a78.43,78.43,0,1,1,78.74-78.11,78.51,78.51,0,0,1-78.74,78.11"/></clipPath><clipPath id="clip-path-345"><path class="cls-1" d="M5809.3,1973.67a28.52,28.52,0,1,1-28.63,28.4,28.52,28.52,0,0,1,28.63-28.4"/></clipPath></defs><title>ilustracoes_caixa_am5SVG</title><polygon class="cls-3" points="960 256.5 469.09 539.93 469.09 610.79 960 894.21 1450.91 610.79 1450.91 539.93 960 256.5"/><polygon class="cls-4" points="960 894.21 469.09 610.79 469.09 539.93 960 823.36 960 894.21"/><polygon class="cls-5" points="960 894.21 1450.91 610.79 1450.91 539.93 960 823.36 960 894.21"/><path class="cls-5" d="M887.51,633.68c7.76-7.16,12.25-15.66,12.25-24.77,0-25.51-35.19-46.19-78.59-46.19s-78.59,20.68-78.59,46.19c0,9.12,4.49,17.62,12.25,24.77,13.95-9.73,38.44-16.19,66.34-16.19S873.56,623.95,887.51,633.68Z"/><path class="cls-6" d="M887.51,633.68c-13.95-9.73-38.44-16.19-66.34-16.19s-52.39,6.46-66.34,16.19c13.95,12.88,38.44,21.42,66.34,21.42S873.56,646.56,887.51,633.68Z"/><path class="cls-5" d="M1175.9,633.68c7.76-7.16,12.25-15.66,12.25-24.77,0-25.51-35.19-46.19-78.59-46.19S1031,583.4,1031,608.91c0,9.12,4.49,17.62,12.25,24.77,13.95-9.73,38.44-16.19,66.34-16.19S1162,623.95,1175.9,633.68Z"/><path class="cls-7" d="M1070.26,602.38s37.62-20.56,81,0L1142.69,625h-41.6Z"/><path class="cls-6" d="M1175.9,633.68c-8.17-5.7-19.95-10.27-33.91-13.09V651C1156,647.27,1167.74,641.22,1175.9,633.68Z"/><path class="cls-6" d="M1043.23,633.68c8.63,8,21.29,14.27,36.3,17.92V620.14C1064.52,622.9,1051.85,627.66,1043.23,633.68Z"/><path class="cls-8" d="M1079.52,558.34V651.6A130.34,130.34,0,0,0,1142,651V558.34Z"/><ellipse class="cls-9" cx="1110.76" cy="568.9" rx="48.2" ry="21.77"/><path class="cls-8" d="M1208.34,415.06c.73-112.68-98.78-106.83-98.78-106.83s-99.51-5.85-98.78,106.83c0,0,1.46,39.51,20.49,83.41s10.24,57.8,10.24,57.8-4.39,26.34,18.66,22,34.76-24.35,49.39-24.35,26.34,20,49.39,24.35,18.66-22,18.66-22-8.78-13.9,10.24-57.8S1208.34,415.06,1208.34,415.06Z"/><path class="cls-10" d="M1159,578.23c23.05,4.39,18.66-22,18.66-22s-8.78-13.9,10.24-57.8,20.49-83.41,20.49-83.41c.73-112.68-98.78-106.83-98.78-106.83h0v252.7C1124.2,560.93,1135.91,573.84,1159,578.23Z"/><path class="cls-11" d="M1178.15,526.36s-4.76-48.38-40.61-77.65-15.34-140-15.34-140a86.74,86.74,0,0,0-12.64-.51V546.77h0V568c14.63,0,26.34,5.85,49.39,10.24s18.66-22,18.66-22S1172.73,548.53,1178.15,526.36Z"/><path class="cls-12" d="M1096.92,308.74s20.51,110.71-15.34,140S1041,526.36,1041,526.36c5.42,22.17.54,29.91.54,29.91s-4.39,26.34,18.66,22S1094.93,568,1109.56,568V308.23A86.76,86.76,0,0,0,1096.92,308.74Z"/><path class="cls-13" d="M1089.63,512c-17.32.79-11.71,16.1-11.71,16.1,5.12-1.46,11,6.22,11,6.22,8.78,16.09,20.66,12.44,20.66,12.44v-35C1105.19,511.65,1098.42,511.61,1089.63,512Z"/><path class="cls-14" d="M1109.56,546.77s11.88,3.66,20.66-12.44c0,0,5.85-7.68,11-6.22,0,0,5.61-15.31-11.71-16.1-8.8-.4-15.56-.37-19.93-.25h0v35Z"/><circle class="cls-14" cx="1050.49" cy="432.99" r="12.07"/><circle class="cls-14" cx="1166.08" cy="432.99" r="12.07"/><path class="cls-10" d="M1032.05,342c-8.49-2.5-22.48-.47-39.56,25.15-28.54,42.8-40.61,56.52-40.61,56.52S919,443.41,931.58,492.8s50.49,80.12,50.49,80.12,26.89,29.63,37.32-9.33c6.34-23.7,6-59.36,4.73-83.67-12.25-35.89-13.33-64.86-13.33-64.86C1010.56,381,1019.49,357.82,1032.05,342Z"/><path class="cls-15" d="M1187.12,342c8.49-2.5,22.48-.47,39.56,25.15,9.14,13.71,18.46,27.33,28.24,40.6s24.06,23.37,30.62,38.56c6.35,14.69,6,31.23,2,46.51-12.62,49.39-50.49,80.12-50.49,80.12s-26.89,29.63-37.32-9.33c-6.34-23.7-6-59.36-4.73-83.67,12.25-35.89,13.33-64.86,13.33-64.86C1208.61,381,1199.68,357.82,1187.12,342Z"/><path class="cls-16" d="M780,602.38s37.62-20.56,81,0L852.47,625h-41.6Z"/><path class="cls-6" d="M887.51,633.68c-8.35-5.82-20.47-10.47-34.84-13.27v30.83C867,647.54,879.16,641.39,887.51,633.68Z"/><path class="cls-6" d="M754.83,633.68c8.45,7.8,20.77,14,35.37,17.69V620.31C775.6,623.1,763.28,627.79,754.83,633.68Z"/><path class="cls-3" d="M790.2,573.87v77.5a130.35,130.35,0,0,0,62.47-.13V573.87Z"/><path class="cls-12" d="M932.93,307.43s-9.72-12.5-26.39,8.33-27.78,44.45-27.78,44.45l-63.9,15.36L795.4,360.22H762.06s-11.11-23.62-27.78-44.45-26.39-8.33-26.39-8.33c-30.56,72.24-18.06,163.92,0,226.43S820.4,591.47,820.4,591.47s94.46,4.9,112.52-57.61a491.68,491.68,0,0,0,12.9-57.47C948.32,461,926.17,445,927,428.72,929.08,387.57,948.78,344.9,932.93,307.43Z"/><path class="cls-11" d="M932.93,533.86a491.68,491.68,0,0,0,12.9-57.47c2.64-16.29-18.6-33.33-17.85-50.6,1.74-40.23,20.42-81.79,4.95-118.36,0,0-9.72-12.5-26.39,8.33s-27.78,44.45-27.78,44.45L820.4,375.57v215.9S914.87,596.37,932.93,533.86Z"/><path class="cls-13" d="M932.93,307.43s-9.72-12.5-26.39,8.33-27.78,44.45-27.78,44.45H860.69s-27.07,5.16-40.29,36.12c-4.58,10.74-10,27.08.06,36.51,14.18,13.28,33.08,2.51,49.28,1.4,16.62-1.14,26.11,11.51,29.15,26.69,7.63,38.15,46.83,15.52,46.93,15.46C954.6,422.17,955,359.71,932.93,307.43Z"/><circle class="cls-17" cx="762.51" cy="510.26" r="11.16"/><circle class="cls-17" cx="874.49" cy="510.26" r="11.16"/><path class="cls-3" d="M721.77,465.79c24.31,3.47,29.17-5.56,34-25s10.42-41,31.26-42.37,83.35,16,77.79-38.2H762.06s-11.11-23.62-27.78-44.45-26.39-8.33-26.39-8.33c-24.76,58.53-21.25,129.82-9.42,188C698.45,495.16,697.57,462.34,721.77,465.79Z"/><path class="cls-18" d="M745.22,380.36c16.84-31.26-37.33-72.93-37.33-72.93-11.89,28.11-17.25,59.16-18.31,90.29C689.62,397.74,728.39,411.6,745.22,380.36Z"/><path class="cls-18" d="M896,380.36c15.88,29.46,51.25,18.81,55.26,17.49-1-31.09-6.38-62.1-18.22-90.19C929,310.83,879.81,350.38,896,380.36Z"/><polygon class="cls-3" points="820.4 537.9 788.14 537.9 820.4 558.34 852.67 537.9 820.4 537.9"/><polygon class="cls-18" points="820.4 537.9 820.4 558.34 852.67 537.9 820.4 537.9"/><path class="cls-2" d="M861,630.09l-8.56,4.44A66.35,66.35,0,0,0,861,630.09Z"/><path class="cls-19" d="M780,602.38v27.71h0s37.47,19.47,72.43,4.44l8.56-4.44V602.38C823.93,625.19,780,602.38,780,602.38Z"/><circle class="cls-20" cx="820.54" cy="640.23" r="20.09"/><path class="cls-2" d="M1151.25,630.09l-8.56,4.44A66.35,66.35,0,0,0,1151.25,630.09Z"/><path class="cls-21" d="M1070.26,602.38v27.71h0s37.47,19.47,72.43,4.44l8.56-4.44V602.38C1114.15,625.19,1070.26,602.38,1070.26,602.38Z"/><circle class="cls-20" cx="1110.76" cy="640.23" r="20.09"/><path class="cls-19" d="M1222.19,794q0-17.9,4.77-30.43t16.11-23.27q16.7-16.11,30.73-28T1298,689.89a116,116,0,0,0,15.81-19.69,36.56,36.56,0,0,0,5.67-19.39q0-19.69-12.23-30.73t-30.73-11q-28.05,0-42.66,15.51t-16.41,37.59l-91.88-6q6.56-63.23,46.54-96.36t102.62-33.11a174.22,174.22,0,0,1,51.61,7.46A127,127,0,0,1,1369,556.55a107.08,107.08,0,0,1,29.24,37q10.74,22.08,10.74,50.71a126.68,126.68,0,0,1-3.58,31.32,97.14,97.14,0,0,1-12.23,27.74,161.74,161.74,0,0,1-22.67,27.74,383.56,383.56,0,0,1-35.5,30.73q-13.73,10.74-18.5,20.88a47.22,47.22,0,0,0-4.77,20.29v17.3h-89.5ZM1212,908.56a55.85,55.85,0,0,1,4.18-21.48,52.76,52.76,0,0,1,29.24-29.24,57.33,57.33,0,0,1,43,0,52.76,52.76,0,0,1,29.24,29.24,57.32,57.32,0,0,1,0,43,52.76,52.76,0,0,1-29.24,29.24,57.32,57.32,0,0,1-43,0A52.76,52.76,0,0,1,1216.22,930,55.78,55.78,0,0,1,1212,908.56Z"/></svg>