<svg id="Layer_1" data-name="Layer 1" xmlns="http://www.w3.org/2000/svg" xmlns:xlink="http://www.w3.org/1999/xlink" viewBox="0 0 1920 1080"><defs><style>.cls-1{fill:none;}.cls-2{fill:#3c9344;}.cls-3{fill:#347534;}.cls-4{fill:#00652e;}.cls-5{fill:#775020;}.cls-6{fill:#99bf19;}.cls-7{fill:#733791;}.cls-8{fill:#500778;}.cls-9{fill:#ff9141;}.cls-10{fill:#00a499;}.cls-11{fill:#64c8c3;}.cls-12{fill:#420768;}.cls-13{fill:#ff6d00;}.cls-14{clip-path:url(#clip-path);}.cls-15{fill:#e1e1e1;}.cls-16{fill:#fff;}.cls-17{fill:#898d8d;}.cls-18{fill:#b9b9b9;}.cls-19{fill:#e65a00;}.cls-20{fill:#414042;}.cls-21{fill:#58595b;}</style><clipPath id="clip-path"><rect class="cls-1" x="574.78" y="555.93" width="325" height="322.29"/></clipPath></defs><title>ilustracoes_caixa_am5SVG</title><polygon class="cls-2" points="960 256.5 469.09 539.93 469.09 610.79 960 894.21 1450.91 610.79 1450.91 539.93 960 256.5"/><polygon class="cls-3" points="960 894.21 469.09 610.79 469.09 539.93 960 823.36 960 894.21"/><polygon class="cls-4" points="960 894.21 1450.91 610.79 1450.91 539.93 960 823.36 960 894.21"/><rect class="cls-5" x="598.16" y="423.62" width="11.63" height="145.59"/><circle class="cls-6" cx="603.97" cy="423.62" r="69.06"/><path class="cls-4" d="M1337,444.13a76.33,76.33,0,0,0-76.33,76.33h152.66A76.33,76.33,0,0,0,1337,444.13Z"/><path class="cls-6" d="M1291.05,487.45a42,42,0,0,0-42,42h84A42,42,0,0,0,1291.05,487.45Z"/><polygon class="cls-7" points="975.46 688.44 713.87 537.41 713.87 310.86 975.46 461.89 975.46 688.44"/><polygon class="cls-8" points="1082.85 297.85 975.46 461.87 975.46 688.42 1171.66 575.14 1171.66 348.62 1082.85 297.85"/><polygon class="cls-9" points="696.03 337.41 811.91 140.92 1082.85 297.85 957.62 488.44 696.03 337.41"/><polygon class="cls-10" points="1040.82 650.68 1040.82 499.63 1106.26 461.89 1106.26 612.9 1040.82 650.68"/><polygon class="cls-11" points="877.36 480.63 877.36 556.15 942.76 593.9 942.76 518.39 877.36 480.63"/><polygon class="cls-11" points="746.81 405.25 746.81 480.77 812.21 518.53 812.21 443.01 746.81 405.25"/><polygon class="cls-7" points="889.44 369.61 889.44 293.66 841.81 266.16 841.81 342.11 889.44 369.61"/><polygon class="cls-8" points="937.07 266.62 889.44 293.66 889.44 369.61 937.07 297.2 937.07 266.62"/><polygon class="cls-12" points="841.81 266.16 889.44 293.66 937.07 266.62 889.32 238.73 841.81 266.16"/><polygon class="cls-9" points="1106.26 612.9 1040.82 650.68 1171.66 726.2 1215.59 675.92 1106.26 612.9"/><polygon class="cls-13" points="1150.16 784.51 1150.16 713.7 1215.59 675.92 1215.59 746.77 1150.16 784.51"/><g class="cls-14"><path class="cls-15" d="M810.2,762.31,693.39,645.5a5.08,5.08,0,0,0-7.18,0l-19.15,19.15a5.08,5.08,0,0,0,0,7.18L783.87,788.64a5.08,5.08,0,0,0,7.18,0l19.15-19.15a5.08,5.08,0,0,0,0-7.18Z"/><path class="cls-15" d="M710.62,601.46l-44-44a5.08,5.08,0,0,0-7.18,0l-19.15,19.15a5.08,5.08,0,0,0,0,7.18L673,616.54,638.1,651.49,605.3,618.69a5.08,5.08,0,0,0-7.18,0L579,637.84a5.08,5.08,0,0,0,0,7.18l44,44a5.08,5.08,0,0,0,3.59,1.49l.46,0,42.13-3.83a5.08,5.08,0,0,0,3.13-1.47l34.47-34.47a5.08,5.08,0,0,0,1.47-3.13l3.83-42.13a5.08,5.08,0,0,0-1.47-4Z"/><path class="cls-16" d="M680.89,603.16a5.06,5.06,0,0,1-3.59-1.49l-13.54-13.54a5.08,5.08,0,1,1,7.18-7.18l13.54,13.54a5.08,5.08,0,0,1-3.59,8.67Z"/><path class="cls-15" d="M898.29,789.12l-44-44a5.08,5.08,0,0,0-4.05-1.47l-42.13,3.83a5.07,5.07,0,0,0-3.13,1.47l-34.47,34.47a5.08,5.08,0,0,0-1.47,3.13l-3.83,42.13a5.08,5.08,0,0,0,1.47,4l44,44a5.08,5.08,0,0,0,7.18,0L837,857.58a5.08,5.08,0,0,0,0-7.18l-32.79-32.79,34.95-34.95L872,815.45a5.08,5.08,0,0,0,7.18,0l19.15-19.15a5.08,5.08,0,0,0,0-7.18Z"/></g><path class="cls-17" d="M677,654.75l-9.9,9.9a5.08,5.08,0,0,0,0,7.18L783.87,788.64a5.08,5.08,0,0,0,7.18,0l9.9-9.9-124-124Z"/><path class="cls-18" d="M655.9,633.69l-17.8,17.8L605.3,618.69a5.08,5.08,0,0,0-7.18,0L579,637.84a5.08,5.08,0,0,0,0,7.18l44,44a5.08,5.08,0,0,0,3.59,1.49l.46,0,42.13-3.83a5.08,5.08,0,0,0,3.13-1.47l17.56-17.56-34-34Z"/><path class="cls-18" d="M770.47,783.38a5.08,5.08,0,0,0-1.47,3.13l-3.83,42.13a5.08,5.08,0,0,0,1.47,4l44,44a5.08,5.08,0,0,0,7.18,0L837,857.58a5.08,5.08,0,0,0,0-7.18l-32.79-32.79,17.8-17.8-34-34-17.56,17.56Z"/><path class="cls-15" d="M805.58,646.91l-15.32-15.32a5.08,5.08,0,0,0-7.18,0L681.59,733.08a5.08,5.08,0,0,0,0,7.18l15.32,15.32a5.08,5.08,0,0,0,7.18,0L805.58,654.09a5.08,5.08,0,0,0,0-7.18Z"/><path class="cls-15" d="M868.77,583.71l-15.32-15.32a5.08,5.08,0,0,0-5.69-1l-42.13,19.15a5.06,5.06,0,0,0-1.49,1L771.59,620.1a5.08,5.08,0,0,0,0,7.18l38.3,38.3a5.08,5.08,0,0,0,7.18,0L849.62,633a5.07,5.07,0,0,0,1-1.49L869.8,589.4a5.07,5.07,0,0,0-1-5.69Z"/><path class="cls-19" d="M702.17,784.78,652.38,735a5.08,5.08,0,0,0-7.18,0l-59.36,59.36a5.08,5.08,0,0,0,0,7.18l49.79,49.79a5.08,5.08,0,0,0,7.18,0L702.17,792a5.08,5.08,0,0,0,0-7.18Z"/><path class="cls-13" d="M652.38,735a5.08,5.08,0,0,0-7.18,0l-59.36,59.36a5.08,5.08,0,0,0,0,7.18l24.68,24.69,66.54-66.54L652.38,735Z"/><polygon class="cls-20" points="673.68 756.29 680.86 763.48 614.32 830.02 607.14 822.84 673.68 756.29 673.68 756.29"/><polygon class="cls-20" points="687.09 769.7 694.27 776.88 629.64 841.51 622.46 834.33 687.09 769.7 687.09 769.7"/><polygon class="cls-21" points="660.28 742.89 667.46 750.08 602.84 814.7 595.65 807.52 660.28 742.89 660.28 742.89"/><polygon class="cls-21" points="607.14 822.84 673.68 756.29 677.06 759.67 610.52 826.22 607.14 822.84 607.14 822.84"/><path class="cls-17" d="M797.71,639,689,747.71l7.87,7.87a5.08,5.08,0,0,0,7.18,0L805.58,654.09a5.08,5.08,0,0,0,0-7.18L797.71,639Z"/><g class="cls-14"><path class="cls-18" d="M860.9,575.84l-70.37,70.37,19.36,19.36a5.08,5.08,0,0,0,7.18,0L849.62,633a5.07,5.07,0,0,0,1-1.49L869.8,589.4a5.08,5.08,0,0,0-1-5.69l-7.87-7.87Z"/><path class="cls-13" d="M622,862.39a5.06,5.06,0,0,0,2.46-.64l17.23-9.57L585,795.48l-9.57,17.23a5.08,5.08,0,0,0,.85,6.06l42.13,42.13a5.07,5.07,0,0,0,3.59,1.49Z"/><path class="cls-9" d="M585,795.48l-9.57,17.23a5.08,5.08,0,0,0,.85,6.06l20.86,20.86,16-16L585,795.48Z"/></g><path class="cls-13" d="M679.19,723.5a5.08,5.08,0,0,0-5.59-1.08l-26.81,11.49,56.46,56.46,11.49-26.81a5.08,5.08,0,0,0-1.08-5.59L679.19,723.5Z"/><path class="cls-9" d="M679.19,723.5a5.08,5.08,0,0,0-5.59-1.08l-26.81,11.49,28,28,21.41-21.41-17-17Z"/><path class="cls-16" d="M799.21,629.07a5.08,5.08,0,0,1-3.59-8.67l16.25-16.25a5.08,5.08,0,1,1,7.18,7.18L802.8,627.58a5.06,5.06,0,0,1-3.59,1.49Z"/></svg>