<svg id="Layer_1" data-name="Layer 1" xmlns="http://www.w3.org/2000/svg" viewBox="0 0 1920 1080"><defs><style>.cls-1{fill:#733791;}.cls-2{fill:#500778;}.cls-3{fill:#400666;}.cls-4{fill:#754c29;}.cls-5{fill:#ffbc00;}.cls-6{fill:#ffce00;}.cls-7{fill:#fa0;}.cls-8{fill:#ff9141;}.cls-9{fill:#00a499;}.cls-10{fill:#64c8c3;}.cls-11{fill:#420768;}.cls-12{fill:#a97c50;}.cls-13{fill:#8b5e3c;}</style></defs><title>ilustracoes_caixa_am5SVG</title><polygon class="cls-1" points="960 256.5 469.09 539.93 469.09 610.79 960 894.21 1450.91 610.79 1450.91 539.93 960 256.5"/><polygon class="cls-2" points="960 894.21 469.09 610.79 469.09 539.93 960 823.36 960 894.21"/><polygon class="cls-3" points="960 894.21 1450.91 610.79 1450.91 539.93 960 823.36 960 894.21"/><polygon class="cls-4" points="714.43 327.5 960 469.14 1205.57 327.5 960 185.72 714.43 327.5"/><circle class="cls-5" cx="766.98" cy="247.79" r="33.62"/><circle class="cls-6" cx="766.98" cy="247.79" r="23.77"/><circle class="cls-5" cx="1124.06" cy="170.71" r="33.62"/><circle class="cls-6" cx="1124.06" cy="170.71" r="23.77"/><path class="cls-7" d="M1279.79,536.9c-6.06-4.41-16.22-7.31-27.73-7.31s-21.67,2.9-27.73,7.31h-5.89v9.5c0,9.28,15.05,16.81,33.62,16.81s33.62-7.53,33.62-16.81v-9.5Z"/><ellipse class="cls-5" cx="1252.06" cy="536.9" rx="33.62" ry="16.81"/><ellipse class="cls-6" cx="1252.06" cy="536.9" rx="23.77" ry="11.89"/><path class="cls-7" d="M1233.19,592.17c-6.06-4.41-16.22-7.31-27.73-7.31s-21.67,2.9-27.73,7.31h-5.89v9.5c0,9.28,15.05,16.81,33.62,16.81s33.62-7.53,33.62-16.81v-9.5Z"/><ellipse class="cls-5" cx="1205.45" cy="592.17" rx="33.62" ry="16.81"/><ellipse class="cls-6" cx="1205.45" cy="592.17" rx="23.77" ry="11.89"/><path class="cls-7" d="M1289.64,520.26c-6.06-4.41-16.22-7.31-27.73-7.31s-21.67,2.9-27.73,7.31h-5.89v9.5c0,9.28,15.05,16.81,33.62,16.81s33.62-7.53,33.62-16.81v-9.5Z"/><ellipse class="cls-5" cx="1261.91" cy="520.26" rx="33.62" ry="16.81"/><ellipse class="cls-6" cx="1261.91" cy="520.26" rx="23.77" ry="11.89"/><path class="cls-7" d="M1135.42,664.25c-6.06-4.41-16.22-7.31-27.73-7.31s-21.67,2.9-27.73,7.31h-5.89v9.5c0,9.28,15.05,16.81,33.62,16.81s33.62-7.53,33.62-16.81v-9.5Z"/><ellipse class="cls-5" cx="1107.68" cy="664.25" rx="33.62" ry="16.81"/><ellipse class="cls-6" cx="1107.68" cy="664.25" rx="23.77" ry="11.89"/><circle class="cls-5" cx="834.22" cy="113.32" r="33.62"/><circle class="cls-6" cx="834.22" cy="113.32" r="23.77"/><circle class="cls-5" cx="1005.55" cy="89.54" r="23.16"/><circle class="cls-6" cx="1005.55" cy="89.54" r="16.38"/><circle class="cls-5" cx="1074.07" cy="247.79" r="23.16"/><circle class="cls-6" cx="1074.07" cy="247.79" r="16.38"/><circle class="cls-5" cx="810.45" cy="333.97" r="23.16"/><circle class="cls-6" cx="810.45" cy="333.97" r="16.38"/><polygon class="cls-1" points="938.42 487.81 806.56 336.2 855.58 193.7 987.45 345.31 938.42 487.81"/><polygon class="cls-2" points="1090.49 265.36 987.45 345.29 938.43 487.79 1086.35 459 1135.37 316.51 1090.49 265.36"/><polygon class="cls-8" points="838.62 206.54 954.02 108.02 1090.49 265.36 970.48 358.15 838.62 206.54"/><polygon class="cls-9" points="987.71 478.2 1020.39 383.19 1069.72 373.61 1037.04 468.6 987.71 478.2"/><polygon class="cls-10" points="921.69 335.87 905.35 383.37 938.31 421.27 954.65 373.77 921.69 335.87"/><polygon class="cls-10" points="855.88 260.2 839.54 307.7 872.5 345.61 888.84 298.11 855.88 260.2"/><polygon class="cls-1" points="953.3 268.65 969.74 220.87 945.73 193.27 929.3 241.04 953.3 268.65"/><polygon class="cls-2" points="1005.55 214.17 969.74 220.87 953.3 268.65 998.93 233.41 1005.55 214.17"/><polygon class="cls-11" points="945.73 193.27 969.74 220.87 1005.55 214.17 981.55 186.3 945.73 193.27"/><polygon class="cls-12" points="960 681.71 714.43 539.93 714.43 327.5 960 469.14 960 681.71"/><polygon class="cls-13" points="960 681.71 1205.57 539.93 1205.57 327.5 960 469.14 960 681.71"/><polygon class="cls-13" points="960 469.14 898.75 575.36 653.12 433.68 714.43 327.5 960 469.14"/><circle class="cls-5" cx="1021.93" cy="310.81" r="33.62"/><circle class="cls-6" cx="1021.93" cy="310.81" r="23.77"/><circle class="cls-5" cx="1171.95" cy="271.56" r="23.77"/><circle class="cls-6" cx="1171.95" cy="271.56" r="16.81"/><path class="cls-7" d="M761.09,561.61c-6.06-4.41-16.22-7.31-27.73-7.31s-21.67,2.9-27.73,7.31h-5.89v9.5c0,9.28,15.05,16.81,33.62,16.81S767,580.39,767,571.11v-9.5Z"/><ellipse class="cls-5" cx="733.36" cy="561.61" rx="33.62" ry="16.81"/><ellipse class="cls-6" cx="733.36" cy="561.61" rx="23.77" ry="11.89"/><path class="cls-7" d="M730.61,535.6c-7.48-.54-17.63,2.38-27.4,8.47S686.35,558,683.55,564.94l-5,3.11,5,8.06c4.91,7.88,21.66,6.3,37.42-3.52s24.55-24.17,19.64-32l-5-8.06Z"/><ellipse class="cls-5" cx="707.08" cy="550.27" rx="33.62" ry="16.81" transform="translate(-184.06 457.38) rotate(-31.94)"/><ellipse class="cls-6" cx="707.08" cy="550.27" rx="23.77" ry="11.89" transform="translate(-184.06 457.38) rotate(-31.94)"/><path class="cls-7" d="M1114.77,667.58c-7.22-2-17.75-1.19-28.54,2.83s-19.3,10.28-23.44,16.53l-5.52,2.05,3.32,8.9c3.24,8.7,20,10.5,37.37,4s28.88-18.79,25.64-27.48l-3.32-8.9Z"/><ellipse class="cls-5" cx="1088.79" cy="677.26" rx="33.62" ry="16.81" transform="translate(-167.91 422.58) rotate(-20.43)"/><ellipse class="cls-6" cx="1088.79" cy="677.26" rx="23.77" ry="11.89" transform="translate(-167.91 422.58) rotate(-20.43)"/></svg>