<svg id="Layer_1" data-name="Layer 1" xmlns="http://www.w3.org/2000/svg" xmlns:xlink="http://www.w3.org/1999/xlink" viewBox="0 0 1920 1080"><defs><style>.cls-1{fill:#232323;}.cls-2{fill:#b9b9b9;}.cls-3{fill:#898d8d;}.cls-4{fill:#757777;}.cls-5{fill:#353535;}.cls-6{fill:#444;}.cls-7{fill:#555656;}.cls-8{fill:#434444;}.cls-10,.cls-9{fill:#ffe161;}.cls-10{opacity:0.5;}.cls-11{fill:#ffce00;}.cls-12{fill:#ffa57d;}.cls-13{fill:#f99067;}.cls-14{fill:#ffb692;}.cls-15{fill:none;}.cls-16{fill:#b5802c;opacity:0.2;}.cls-17{fill:#231f20;}.cls-18{clip-path:url(#clip-path);}.cls-19{fill:#fff;}.cls-20{fill:#e1e1e1;}</style><clipPath id="clip-path"><path class="cls-1" d="M974.09,299.48a22.8,22.8,0,0,0-2.86-7.33A33.39,33.39,0,0,1,930,311.6a22.9,22.9,0,0,0,3.09,5.88,33.36,33.36,0,0,0,41-18Z"/></clipPath></defs><title>ilustracoes_caixa_am5SVG</title><polygon class="cls-2" points="960 255.88 469.09 539.31 469.09 610.17 960 893.6 1450.91 610.17 1450.91 539.31 960 255.88"/><polygon class="cls-3" points="960 893.6 469.09 610.17 469.09 539.31 960 822.74 960 893.6"/><polygon class="cls-4" points="960 893.6 1450.91 610.17 1450.91 539.31 960 822.74 960 893.6"/><polygon class="cls-3" points="932.3 806.82 622.35 627.97 1097.88 335.49 1421.72 522.53 932.3 806.82"/><path class="cls-5" d="M1075.21,482.76q-.5-.11-1-.25l.52.59.37-.22Z"/><path class="cls-1" d="M600.23,509.65V530.4c0,9.8,18,17.75,40.13,17.75s40.13-7.95,40.13-17.75V509.65Z"/><ellipse class="cls-5" cx="640.36" cy="509.65" rx="40.13" ry="17.75"/><path class="cls-6" d="M997.12,116.69H978.84v-5.58h0V88.23H717.57v0a90,90,0,0,0-88.65,90V507.65c0,2.9,5.12,5.25,11.44,5.25s11.44-2.35,11.44-5.25V178.74l.15-.07c0-.15,0-.29,0-.44a67,67,0,0,1,65.74-66.94c0-.06,0-.12,0-.18H954.22v5.58H917.75V132h97.56V116.69Z"/><polygon class="cls-7" points="653.24 645.63 653.24 628.24 622.35 610.37 622.35 627.97 653.24 645.63"/><polygon class="cls-8" points="653.24 645.63 653.24 628.24 1144.47 344.63 1144.47 362.02 653.24 645.63"/><polygon class="cls-4" points="622.59 610.44 653 628.17 1144.47 344.63 1113.06 326.71 622.59 610.44"/><polygon class="cls-7" points="933.49 806.82 933.49 789.42 902.6 771.55 902.6 789.15 933.49 806.82"/><polygon class="cls-8" points="933.49 806.82 933.49 789.42 1424.72 505.81 1424.72 523.21 933.49 806.82"/><polygon class="cls-4" points="902.84 771.62 933.25 789.35 1424.72 505.81 1393.31 487.9 902.84 771.62"/><polygon class="cls-4" points="653.24 645.63 653.24 716.45 902.84 860.04 902.84 789.18 653.24 645.63"/><polygon class="cls-2" points="764.57 709.66 867.66 650.41 895.08 664.94 790.34 724.48 764.57 709.66"/><polygon class="cls-2" points="933.49 611.19 1057.37 540 1084.79 554.53 962.06 624.29 933.49 611.19"/><polygon class="cls-2" points="1123.2 500.78 1247.07 429.59 1274.49 444.12 1151.76 513.88 1123.2 500.78"/><ellipse class="cls-9" cx="971.85" cy="616.97" rx="125.63" ry="34.48"/><polygon class="cls-10" points="991.01 139.76 967.6 139.76 966.99 139.76 943.58 139.76 846.22 616.97 1097.47 616.97 991.01 139.76"/><path class="cls-11" d="M966.18,151.78c21.47,0,38.88-8.84,38.88-19.75H927.31C927.31,142.94,944.71,151.78,966.18,151.78Z"/><path class="cls-5" d="M1149.69,410.39l-94.91,48.53-1.42.88a9,9,0,0,1-11.64-12.69l-.08-.12-.14.25,10.11-17.51,20.4-35.34h0a22.13,22.13,0,0,0-17.45-34c-.4,0-.8,0-1.2,0a22,22,0,0,0-12.09,3.6l-53.17,30.7,6.54,11.33,36.7-21.19,10.16-5.86,7.41-4.28,0,0a9,9,0,0,1,12.49,11.72l.05.07,0-.08-10.47,18.13-21,36.29,0,0a22.1,22.1,0,0,0-1.89,4.36h0l0,.1a22,22,0,0,0-.91,4.75,53.17,53.17,0,0,0,1.06,18.87h0a52.82,52.82,0,0,0,3.7,11.18h0s14.9,42.32,50.6,53.18c28.12,11.47,82.07,21.11,154.56-22.76Z"/><path class="cls-6" d="M988.95,426.73A52.54,52.54,0,0,0,972.31,403v-3.65l-20.4-11.48s-.48,1.7-1.29,4.69a52.42,52.42,0,0,0-34.83,98c3.69,6.38,11.61,7.52,11.61,7.52s-13.31,60,17.17,112.92h0s-7.27,3.27-11.13-1c-1.78-2.22-5.17-3.08-8.39-.78a1.78,1.78,0,0,0-.41.41c-3.28,4.63,0,9.62,4.35,9.62h28.87c2.66-2.33,2.59-5.06,1.25-6.73a4.14,4.14,0,0,0-3.24-1.56h.08s-52.22-92.78,16.1-92.78V498.11h.26v-76c.31.48.62,1,.91,1.44Zm-69,51.37a39.43,39.43,0,0,1,27.26-73c-4.83,18.37-12.3,48.17-16.81,73Z"/><path class="cls-5" d="M975.51,374.49a52.33,52.33,0,0,0,5.79,20.42L972,400.12V518.25c64.68,0,21.3,83.95,16.51,92.78h-.33a4.15,4.15,0,1,0,0,8.29h26.88a5.69,5.69,0,1,0-4.45-9.25c-3.36,3.69-9.3,1.68-10.78,1.1,30-52.77,17.09-112.3,17.09-112.3h0c-1.48-13.08-4.82-30.13-8.58-46.9l-17.62-72.75Z"/><path class="cls-1" d="M927.46,352.33s1.17,20.23,10.49,26.9l-1.51-12.92Z"/><path class="cls-1" d="M1017.15,352.33s-1.17,20.23-10.49,26.9l1.51-12.92Z"/><path class="cls-12" d="M972.31,396.54H956.38s7.12,16,15.93,17.93c8.81-1.92,15.93-17.93,15.93-17.93Z"/><path class="cls-13" d="M972.31,385.36l-15.93,11.18s8.39,10.89,15.93,10.89c2.32,0,10.4-3.5,15.93-10.89Z"/><circle class="cls-14" cx="932.5" cy="357.37" r="7.14" transform="translate(20.42 764.05) rotate(-45)"/><circle class="cls-12" cx="1012.11" cy="357.37" r="7.14" transform="translate(43.73 820.33) rotate(-45)"/><path class="cls-12" d="M980.39,399.37c11-3.81,22.52-9.42,27.82-19.83,3.66-7.19,3.8-15.6,3.87-23.67a108.86,108.86,0,0,0-.77-17.44,42.49,42.49,0,0,0-2-8.13,38.13,38.13,0,0,0-21.76-22,40.66,40.66,0,0,0-15.21-2.74l-7.07,61.54,7.07,33.95.53,0A25.31,25.31,0,0,0,980.39,399.37Z"/><path class="cls-14" d="M956.63,308.77a37.21,37.21,0,0,0-18.1,15.09c-5.49,9.31-5.85,20.67-5.81,31.48,0,9.85.47,20.79,6.82,28.88s17.64,13.39,27.31,16a23.49,23.49,0,0,0,5.67.9l-2.89-34.73,8.45-2.89-5.56-57.87h0A43.18,43.18,0,0,0,956.63,308.77Z"/><polygon class="cls-13" points="969.42 366.31 981.29 366.31 977.87 363.45 969.42 366.31"/><path class="cls-15" d="M1199.24,194.32a16.25,16.25,0,0,1-.52,2.28A10.07,10.07,0,0,0,1199.24,194.32Z"/><path class="cls-1" d="M990.06,300v.33c-.74,1.38-7.45,13.57-16.41,20.25-3.36,2.5-7,4.24-10.82,4.32h22.71a7.5,7.5,0,0,1,5.76,2.42c2.23,2.39,3,5.7,6.68,5.7a7.7,7.7,0,0,1,5.37,1.89,9.38,9.38,0,0,1,2.75,5.69v16.75h6.23q0-1,0-2c0-1.68,0-3.37,0-5.06a7.09,7.09,0,0,1,4,1.4l.8.66v0l.1.12a143.64,143.64,0,0,0,1-15.53C1018.27,318.47,1006.57,305.21,990.06,300Z"/><path class="cls-1" d="M979.78,297a73.25,73.25,0,0,0-7.63,0c-1.34.07-2.68.17-4,.32a54.63,54.63,0,0,0-5.81.94c-.18,0-.57.19-1,.32l-1,.19h0a49.84,49.84,0,0,0-8.58,2.46c-14.9,5.79-25.18,18.52-25.16,35.81,0,3.66.34,10.1.88,14.57,0,.25,0,.48,0,.74l.08-.06,0,.28c.06-.07.11-.15.18-.22a7,7,0,0,1,4.36-2c.21,0,.43,0,.64,0,0,1.69,0,3.38,0,5.05q0,1,0,2H939V340.63a10.08,10.08,0,0,1,1.1-3.56l1.3-1.78,0,0c1.21-1.23,3-1.86,5.69-2.2s3.71-3.32,6-5.57a8.92,8.92,0,0,1,6.4-2.54s14.25.05,16.28,0c20.2-.46,28-14.22,31.06-21.77.67-1.68,1.11-3.06,1.4-3.91a16.25,16.25,0,0,0,.52-2.28Z"/><path class="cls-16" d="M1006.07,357.37c0,11.78-21.52,12.1-30.89,11.68h-5.32c-9.38.42-30.89.1-30.89-11.68h-6.23c.11,9.29.89,19.3,6.8,26.84,6.31,8,17.64,13.39,27.31,16a18.2,18.2,0,0,0,11.34,0c9.67-2.56,21-7.92,27.31-16,5.91-7.54,6.69-17.54,6.8-26.84h-6.23Z"/><path class="cls-17" d="M974.09,299.48a22.8,22.8,0,0,0-2.86-7.33A33.39,33.39,0,0,1,930,311.6a22.9,22.9,0,0,0,3.09,5.88,33.36,33.36,0,0,0,41-18Z"/><path class="cls-1" d="M974.09,299.48a22.8,22.8,0,0,0-2.86-7.33A33.39,33.39,0,0,1,930,311.6a22.9,22.9,0,0,0,3.09,5.88,33.36,33.36,0,0,0,41-18Z"/><g class="cls-18"><path class="cls-5" d="M939.41,329c-7.74-24.78-7.72-24.89-7.68-25.2l2,.3-1-.15,1-.19c.18.76,4.65,15.15,7.62,24.65Z"/><path class="cls-5" d="M944.89,328.42c-7.74-24.78-7.72-24.89-7.68-25.2l2,.29-1-.15,1-.19c.18.75,4.65,15.15,7.62,24.65Z"/><path class="cls-5" d="M950.36,327.84c-7.74-24.78-7.72-24.89-7.68-25.2l2,.3-1-.15,1-.19c.18.76,4.65,15.15,7.62,24.65Z"/><path class="cls-5" d="M955.84,327.25c-7.74-24.78-7.72-24.89-7.68-25.2l2,.29-1-.15,1-.19c.18.75,4.65,15.15,7.62,24.65Z"/><path class="cls-5" d="M961.32,326.67c-7.74-24.78-7.72-24.89-7.68-25.2l2,.3-1-.15,1-.19c.18.76,4.65,15.15,7.62,24.65Z"/><path class="cls-5" d="M966.8,326.09c-7.74-24.78-7.72-24.89-7.68-25.2l2,.29-1-.15,1-.19c.18.75,4.65,15.15,7.62,24.65Z"/><path class="cls-5" d="M970.28,318.25c-7.74-24.78-7.72-24.89-7.68-25.2l2,.29-1-.15,1-.19c.18.75,4.65,15.15,7.62,24.65Z"/><path class="cls-5" d="M974.79,314.88c-7.74-24.78-7.72-24.89-7.68-25.2l2,.3-1-.15,1-.19c.18.76,4.65,15.15,7.62,24.65Z"/></g><path class="cls-1" d="M971.23,292.16s-19.69-.21-41.21,19.45l7.53,4.14,11.69-1.66s8.73-4.81,8.8-4.56,6.75-5,6.75-5l4.4-6.24Z"/><path class="cls-5" d="M952.58,285a19.42,19.42,0,0,0-19.41,25.81,28.29,28.29,0,0,0,34.93-16.48A19.39,19.39,0,0,0,952.58,285Z"/><path class="cls-5" d="M1018.24,336.71H926.58c0,.1,0,.21,0,.31,0,3.66.34,10.1.88,14.57,0,.25,0,.48,0,.74l.08-.06c0,.09,0,.19,0,.28.06-.07.11-.15.18-.22a7,7,0,0,1,4.36-2c.21,0,.43,0,.64,0,0,1,0,2,0,3h79.6c0-1,0-2,0-3.06a7.09,7.09,0,0,1,4,1.4l.8.66v0l.1.12a143.6,143.6,0,0,0,1-15.53C1018.25,336.84,1018.24,336.77,1018.24,336.71Z"/><path class="cls-19" d="M989.08,347.46a4.06,4.06,0,0,0,2.06-5.34l-7.56,3.72A4.06,4.06,0,0,0,989.08,347.46Z"/><path class="cls-19" d="M958.81,347.46a4.06,4.06,0,0,1-2.06-5.34l7.56,3.72A4.06,4.06,0,0,1,958.81,347.46Z"/><path class="cls-14" d="M1319.46,448.56l-104.31-7a15.26,15.26,0,0,1-14.22-16.25l6.1-90.82-28.85-33c-3.94-1.64-5.74-14-5.71-8.69l-6.55,101.23c0,.68.07,1.36.07,2l-16.3,14.26,87.55,100.09,22.58-19.75a49.7,49.7,0,0,0,59.64-42.17Zm0,0"/><polygon class="cls-12" points="1298.51 365.43 1200.81 312.91 1167.2 430.4 1213.8 483.69 1338.59 449.59 1298.51 365.43"/><path class="cls-14" d="M1357.19,281a23.26,23.26,0,1,0,2.88-43.24Zm0,0"/><path class="cls-14" d="M1354.06,327.94a23.26,23.26,0,1,0,2.88-43.24Zm0,0"/><path class="cls-14" d="M1350.92,374.85a23.26,23.26,0,1,0,2.88-43.24Zm0,0"/><path class="cls-14" d="M1347.79,421.76a23.26,23.26,0,1,0,2.88-43.24Zm0,0"/><path class="cls-5" d="M1362.09,207.74l-146-9.75-4.75,71.24a19.86,19.86,0,0,1,1.82,1.69L1257,321a23.26,23.26,0,1,1-35,30.62L1207,334.5l-4,59.64L1349,403.9Zm0,0"/><path class="cls-20" d="M1362.09,207.74l1.38-20.8a15.23,15.23,0,0,0-14.21-16.25L1233.78,163a15.23,15.23,0,0,0-16.25,14.21l-1.4,20.8Zm0,0"/><path class="cls-20" d="M1346.9,435.1l2.08-31.2L1203,394.14l-2.09,31.2a15.26,15.26,0,0,0,14.22,16.25l115.49,7.72a15.26,15.26,0,0,0,16.25-14.22Zm0,0"/><path class="cls-2" d="M1285.1,428.85a13.3,13.3,0,1,1,1.26-18.79,13.28,13.28,0,0,1-1.26,18.79Zm0,0"/><path class="cls-5" d="M1277.32,192.74a6.66,6.66,0,0,1,5.45-11l18.76,1.28a6.63,6.63,0,1,1-.88,13.24L1281.89,195a6.63,6.63,0,0,1-4.57-2.25Zm0,0"/><path class="cls-14" d="M1222,351.58l-43.77-50a23.26,23.26,0,1,1,35-30.62L1257,321a23.26,23.26,0,1,1-35,30.62Zm0,0"/><polygon class="cls-3" points="764.53 709.7 764.57 730.29 790.34 745.1 790.34 724.51 764.53 709.7"/></svg>