<svg id="Layer_1" data-name="Layer 1" xmlns="http://www.w3.org/2000/svg" xmlns:xlink="http://www.w3.org/1999/xlink" viewBox="0 0 1920 1080"><defs><style>.cls-1{fill:none;}.cls-2{fill:#733791;}.cls-3{fill:#500778;}.cls-4{fill:#400666;}.cls-5{fill:#fff;}.cls-6{fill:#ff6d00;}.cls-7{fill:#64c8c3;}.cls-8{fill:#00a499;}.cls-9{fill:#41b9b4;}.cls-10{fill:#231f20;opacity:0.2;}.cls-11{fill:#0039ba;}.cls-12{fill:#005fc8;}.cls-13{fill:#212a2d;}.cls-14{clip-path:url(#clip-path);}.cls-15{fill:#2e373a;}.cls-16{fill:#e65a00;}.cls-17{fill:#a2b3bf;}.cls-18{fill:#cad3d9;}.cls-19{clip-path:url(#clip-path-2);}.cls-20{fill:#e1e1e1;}.cls-21{fill:#898d8d;}.cls-22{fill:#b9b9b9;}.cls-23{fill:#414042;}.cls-24{fill:#58595b;}.cls-25{fill:#ff9141;}</style><clipPath id="clip-path"><rect class="cls-1" x="898.35" y="472.26" width="300.74" height="177.65"/></clipPath><clipPath id="clip-path-2"><rect class="cls-1" x="543" y="199.83" width="325" height="322.29"/></clipPath></defs><title>ilustracoes_caixa_am5SVG</title><polygon class="cls-2" points="959.33 256.36 468.42 539.78 468.42 610.64 959.33 894.07 1450.24 610.64 1450.24 539.78 959.33 256.36"/><polygon class="cls-3" points="960.38 894.21 469.47 610.79 469.47 539.93 960.38 823.36 960.38 894.21"/><polygon class="cls-4" points="960 894.21 1450.91 610.79 1450.91 539.93 960 823.36 960 894.21"/><polygon class="cls-5" points="518.43 639.28 543 653.54 534.38 662.91 514 647.54 518.43 639.28"/><polygon class="cls-5" points="1433.13 483.8 1405.84 513.81 1433.13 529.57 1439.13 499.8 1433.13 483.8"/><path class="cls-4" d="M1044.64,403.93c9.9-9.13,15.63-20,15.63-31.61,0-32.55-44.89-58.94-100.27-58.94s-100.27,26.39-100.27,58.94c0,11.63,5.74,22.48,15.63,31.61,17.8-12.42,49.05-20.66,84.64-20.66S1026.85,391.51,1044.64,403.93Z"/><path class="cls-5" d="M919.88,387c-18.36,3.57-33.86,9.51-44.52,16.95,10.66,9.84,26.16,17.7,44.52,22.42V387Z"/><path class="cls-5" d="M1002.58,425.69c17.29-4.77,31.88-12.36,42.06-21.76-10.18-7.11-24.78-12.84-42.06-16.45v38.21Z"/><path class="cls-6" d="M1181,94.57c0-.13,0-.26-.07-.39H969.53c0,.13,0,.26-.07.39a56.14,56.14,0,0,0-49.58,55.75v276a165.9,165.9,0,0,0,82.7-.66V194.05a17.18,17.18,0,0,1,17.18-17.18h110.9a17.18,17.18,0,0,1,17.18,17.18V316.25l82.7,1.41V150.32A56.14,56.14,0,0,0,1181,94.57Z"/><polygon class="cls-7" points="1434.92 549.23 1434.93 549.24 1434.93 549.23 1434.92 549.23"/><polygon class="cls-8" points="1109.54 736.87 1046.33 773.32 1046.02 773.5 1046.02 773.69 1334.25 607.28 1109.54 736.87"/><polygon class="cls-8" points="1434.93 549.24 1434.92 549.23 1402.04 568.19 1363.85 590.21 1338.28 604.96 1334.25 607.28 1046.02 773.69 1046.1 844.5 1434.93 620.01 1434.93 582.26 1434.93 549.24"/><path class="cls-7" d="M1397.1,524.48a41.29,41.29,0,0,0-40.45,33h-.07c0,.2,0,.39,0,.58-.23,1.23-.41,2.48-.53,3.75a17.48,17.48,0,0,1-30.87,6.28q-1.23-2.36-2.54-4.67-.23-.65-.42-1.31l-.26.11c-31.7-54.74-99.43-92.55-177.88-92.55-89.71,0-165.4,49.45-189.22,117.1h0l-.07.31q-.83,2.38-1.58,4.78a26.3,26.3,0,0,1-48.1.06q-.19-.43-.37-.87a26.08,26.08,0,0,1-1.57-5.69c-4.79-30.67-38.79-44.17-65.45-40.67-38.44,5-69.9,33.16-69.9,63.34,0,26.1,23.5,47.91,54.91,53.34,2.73.47,5.52.83,8.35,1l.15,0a39.2,39.2,0,0,1,18.35,66c-.57.46-1.11.93-1.66,1.41q-1.11,1-2.18,1.93a80,80,0,0,0-14.32,17.3l97.91,56.53c15-12.81,24.21-29.5,25.77-45.69l.35-.11a25.58,25.58,0,0,1,40-21q2.57,2.44,5.27,4.79.44.53.86,1.09l.28-.09a197.47,197.47,0,0,0,44.57,28.72l63.21-36.45L1338.28,605l25.57-14.75,38.19-22,32.88-19A41.28,41.28,0,0,0,1397.1,524.48Z"/><path class="cls-9" d="M831.34,749.07v47h.05a2.92,2.92,0,0,0,2,3.35,2.93,2.93,0,0,0,.92.16,2.94,2.94,0,0,0,2.91-3.51h.06V782.49a6.55,6.55,0,1,1,13.1,0V816a7,7,0,0,0,.26,1.86,14.24,14.24,0,0,0,28.24-2.53h0V797.71a5.43,5.43,0,0,1,10.87,0v30.72a7.54,7.54,0,0,0,15.09,0V809.85a2.57,2.57,0,0,1,5.14,0c0,.34.12,0,0,.34l-.19,22.12v.24a9.73,9.73,0,1,0,19.46,0V805.6Z"/><rect class="cls-10" x="881.54" y="637.9" width="279.12" height="24.02" rx="8.33" ry="8.33"/><path class="cls-11" d="M1074.87,519.18l-6.41-20.46a37.57,37.57,0,0,0-36-26.46h-55.6a10,10,0,0,0-10,10v39.92a10,10,0,0,0,10,10h88.49a10,10,0,0,0,9.52-13Z"/><path class="cls-12" d="M1046.91,475.11a37.86,37.86,0,0,0-14.45-2.85h-55.6a10,10,0,0,0-10,10v39.92a10,10,0,0,0,10,10h70.05v-57Z"/><path class="cls-13" d="M1159.37,550.46l-54.26-36.17a71.69,71.69,0,0,0-39.89-12.08H966.88v56.55a10,10,0,0,0,10,10h176.69a10.23,10.23,0,0,0,9.47-6,10,10,0,0,0-3.64-12.24Z"/><g class="cls-14"><path class="cls-15" d="M1046.91,502.21h-80v56.55a10,10,0,0,0,10,10h70.05V502.21Z"/><path class="cls-16" d="M1189.1,548.78H941.59a10,10,0,0,0-9.24,6.2l-33.27,81.17a10,10,0,0,0,9.24,13.76h199.6a91.26,91.26,0,0,0,91.15-91.15,10,10,0,0,0-10-10Z"/><path class="cls-6" d="M1046.91,548.78H941.59a10,10,0,0,0-9.24,6.2l-33.27,81.17a10,10,0,0,0,9.24,13.76h138.58V548.78Z"/></g><path class="cls-17" d="M1059.62,609.33h-24.69a10,10,0,1,1,0-20h24.69a10,10,0,0,1,0,20Z"/><path class="cls-18" d="M1047.28,609.33h-12.34a10,10,0,1,1,0-20h12.34v20Z"/><path class="cls-17" d="M1123.13,609.33h-24.69a10,10,0,0,1,0-20h24.69a10,10,0,0,1,0,20Z"/><path class="cls-18" d="M1110.78,609.33h-12.34a10,10,0,0,1,0-20h12.34v20Z"/><path class="cls-17" d="M995.38,609.33H970.69a10,10,0,0,1,0-20h24.69a10,10,0,0,1,0,20Z"/><path class="cls-18" d="M983,609.33H970.69a10,10,0,0,1,0-20H983v20Z"/><g class="cls-19"><path class="cls-20" d="M778.42,406.22,661.61,289.41a5.08,5.08,0,0,0-7.18,0l-19.15,19.15a5.08,5.08,0,0,0,0,7.18L752.09,432.55a5.08,5.08,0,0,0,7.18,0l19.15-19.15a5.08,5.08,0,0,0,0-7.18Z"/><path class="cls-20" d="M678.84,245.36l-44-44a5.08,5.08,0,0,0-7.18,0l-19.15,19.15a5.08,5.08,0,0,0,0,7.18l32.79,32.79-34.95,34.95L573.52,262.6a5.08,5.08,0,0,0-7.18,0l-19.15,19.15a5.08,5.08,0,0,0,0,7.18l44,44a5.08,5.08,0,0,0,3.59,1.49l.46,0,42.13-3.83a5.08,5.08,0,0,0,3.13-1.47L675,294.67a5.08,5.08,0,0,0,1.47-3.13l3.83-42.13a5.08,5.08,0,0,0-1.47-4Z"/><path class="cls-5" d="M649.11,247.06a5.06,5.06,0,0,1-3.59-1.49L632,232a5.08,5.08,0,0,1,7.18-7.18l13.54,13.54a5.08,5.08,0,0,1-3.59,8.67Z"/><path class="cls-20" d="M866.51,433l-44-44a5.08,5.08,0,0,0-4.05-1.47l-42.13,3.83a5.07,5.07,0,0,0-3.13,1.47l-34.47,34.47a5.08,5.08,0,0,0-1.47,3.13l-3.83,42.13a5.08,5.08,0,0,0,1.47,4l44,44a5.08,5.08,0,0,0,7.18,0l19.15-19.15a5.08,5.08,0,0,0,0-7.18l-32.79-32.79,34.95-34.95,32.79,32.79a5.08,5.08,0,0,0,7.18,0l19.15-19.15a5.08,5.08,0,0,0,0-7.18Z"/></g><path class="cls-21" d="M645.18,298.66l-9.9,9.9a5.08,5.08,0,0,0,0,7.18L752.09,432.55a5.08,5.08,0,0,0,7.18,0l9.9-9.9-124-124Z"/><path class="cls-22" d="M624.12,277.59l-17.8,17.8L573.52,262.6a5.08,5.08,0,0,0-7.18,0l-19.15,19.15a5.08,5.08,0,0,0,0,7.18l44,44a5.08,5.08,0,0,0,3.59,1.49l.46,0,42.13-3.83a5.08,5.08,0,0,0,3.13-1.47l17.56-17.56-34-34Z"/><path class="cls-22" d="M738.69,427.28a5.08,5.08,0,0,0-1.47,3.13l-3.83,42.13a5.08,5.08,0,0,0,1.47,4l44,44a5.08,5.08,0,0,0,7.18,0l19.15-19.15a5.08,5.08,0,0,0,0-7.18l-32.79-32.79,17.8-17.8-34-34-17.56,17.56Z"/><path class="cls-20" d="M773.8,290.81l-15.32-15.32a5.08,5.08,0,0,0-7.18,0L649.81,377a5.08,5.08,0,0,0,0,7.18l15.32,15.32a5.08,5.08,0,0,0,7.18,0L773.8,298a5.08,5.08,0,0,0,0-7.18Z"/><path class="cls-20" d="M837,227.62,821.67,212.3a5.08,5.08,0,0,0-5.69-1l-42.13,19.15a5.06,5.06,0,0,0-1.49,1L739.81,264a5.08,5.08,0,0,0,0,7.18l38.3,38.3a5.08,5.08,0,0,0,7.18,0l32.55-32.55a5.07,5.07,0,0,0,1-1.49L838,233.31a5.07,5.07,0,0,0-1-5.69Z"/><path class="cls-16" d="M670.39,428.69,620.6,378.9a5.08,5.08,0,0,0-7.18,0l-59.36,59.36a5.08,5.08,0,0,0,0,7.18l49.79,49.79a5.08,5.08,0,0,0,7.18,0l59.36-59.36a5.08,5.08,0,0,0,0-7.18Z"/><path class="cls-6" d="M620.6,378.9a5.08,5.08,0,0,0-7.18,0l-59.36,59.36a5.08,5.08,0,0,0,0,7.18l24.68,24.69,66.54-66.54L620.6,378.9Z"/><polygon class="cls-23" points="641.9 400.2 649.09 407.38 582.54 473.92 575.36 466.74 641.9 400.2 641.9 400.2"/><polygon class="cls-23" points="655.31 413.6 662.49 420.79 597.86 485.41 590.68 478.23 655.31 413.6 655.31 413.6"/><polygon class="cls-24" points="628.5 386.8 635.68 393.98 571.06 458.61 563.88 451.43 628.5 386.8 628.5 386.8"/><polygon class="cls-24" points="575.36 466.74 641.9 400.2 645.28 403.58 578.74 470.12 575.36 466.74 575.36 466.74"/><path class="cls-21" d="M765.93,282.94,657.26,391.61l7.87,7.87a5.08,5.08,0,0,0,7.18,0L773.8,298a5.08,5.08,0,0,0,0-7.18l-7.87-7.87Z"/><g class="cls-19"><path class="cls-22" d="M829.12,219.75l-70.37,70.37,19.36,19.36a5.08,5.08,0,0,0,7.18,0l32.55-32.55a5.07,5.07,0,0,0,1-1.49L838,233.31a5.08,5.08,0,0,0-1-5.69l-7.87-7.87Z"/><path class="cls-6" d="M590.2,506.29a5.06,5.06,0,0,0,2.46-.64l17.23-9.57-56.69-56.69-9.57,17.23a5.08,5.08,0,0,0,.85,6.06l42.13,42.13a5.07,5.07,0,0,0,3.59,1.49Z"/><path class="cls-25" d="M553.21,439.39l-9.57,17.23a5.08,5.08,0,0,0,.85,6.06l20.86,20.86,16-16-28.14-28.14Z"/></g><path class="cls-6" d="M647.41,367.41a5.08,5.08,0,0,0-5.59-1.08L615,377.82l56.46,56.46L683,407.47a5.08,5.08,0,0,0-1.08-5.59l-34.47-34.47Z"/><path class="cls-25" d="M647.41,367.41a5.08,5.08,0,0,0-5.59-1.08L615,377.82l28,28,21.41-21.41-17-17Z"/><path class="cls-5" d="M767.43,273a5.08,5.08,0,0,1-3.59-8.67l16.25-16.25a5.08,5.08,0,0,1,7.18,7.18L771,271.49a5.06,5.06,0,0,1-3.59,1.49Z"/><ellipse class="cls-16" cx="1189.19" cy="316.25" rx="41.35" ry="14.43"/><path class="cls-9" d="M1221.22,403.78h0l-31-61.82-31,61.82h0a34.88,34.88,0,1,0,62,0Z"/><polygon class="cls-9" points="831.42 749.07 831.34 819.66 929.38 876.63 929.12 805.61 831.42 749.07"/></svg>