<svg id="Layer_1" data-name="Layer 1" xmlns="http://www.w3.org/2000/svg" xmlns:xlink="http://www.w3.org/1999/xlink" viewBox="0 0 1920 1080"><defs><style>.cls-1,.cls-13{fill:none;}.cls-2{fill:#ff9141;}.cls-3{fill:#ff6d00;}.cls-4{fill:#e65a00;}.cls-5{fill:#4187d7;}.cls-6{fill:#005caf;}.cls-7{fill:#005fc8;}.cls-8{fill:#54a1ed;}.cls-9{fill:#500778;}.cls-10{fill:#64c8c3;}.cls-11{fill:#733791;}.cls-12{fill:#8c5fa5;}.cls-13{stroke:#ef3916;stroke-miterlimit:10;}.cls-14{fill:#a65a3a;}.cls-15{fill:#d3754f;}.cls-16{fill:#41b9b4;}.cls-17{fill:#00a499;}.cls-18{clip-path:url(#clip-path);}.cls-19{fill:#e1e1e1;}.cls-20{fill:#fff;}.cls-21{fill:#898d8d;}.cls-22{fill:#b9b9b9;}.cls-23{fill:#414042;}.cls-24{fill:#58595b;}.cls-25{fill:#ffffdc;}.cls-26{fill:#feffe9;}.cls-27{fill:#312f34;}.cls-28{fill:#4d4a51;}</style><clipPath id="clip-path"><rect class="cls-1" x="574.78" y="555.93" width="325" height="322.29"/></clipPath></defs><title>ilustracoes_caixa_am5SVG</title><polygon class="cls-2" points="960.9 256.5 469.99 539.93 469.99 610.79 960.9 894.21 1451.81 610.79 1451.81 539.93 960.9 256.5"/><polygon class="cls-3" points="960 894.21 469.09 610.79 469.09 539.93 960 823.36 960 894.21"/><polygon class="cls-4" points="960 894.21 1450.91 610.79 1450.91 539.93 960 823.36 960 894.21"/><polygon class="cls-5" points="1140.29 645.91 999.08 565.12 998.8 159.57 1139.49 240.63 1140.29 645.91"/><polygon class="cls-6" points="1128.07 351.2 1121.2 351.2 1100.34 279.5 1107.21 279.5 1127.95 291.45 1128.07 351.2"/><polygon class="cls-7" points="1140.29 645.91 1279.89 565.12 1280.16 159.57 1139.49 240.63 1140.29 645.91"/><polygon class="cls-8" points="998.8 159.57 1140.29 78.81 1280.16 159.57 1139.49 240.63 998.8 159.57"/><polygon class="cls-8" points="998.8 321.69 1139.48 402.91 1139.48 395.51 998.8 315.35 998.8 321.69"/><polygon class="cls-7" points="1121.2 351.2 1100.38 339.29 1100.34 279.5 1121.08 291.45 1121.2 351.2"/><polygon class="cls-6" points="1128.07 489.19 1121.2 489.19 1100.34 417.49 1107.21 417.49 1127.95 429.44 1128.07 489.19"/><polygon class="cls-7" points="1121.2 489.19 1100.38 477.28 1100.34 417.49 1121.08 429.44 1121.2 489.19"/><polygon class="cls-9" points="775.91 645.91 960 540 960.02 327.95 776.13 433.91 775.91 645.91"/><polygon class="cls-10" points="803.13 598.89 932.78 524.3 932.79 374.97 803.29 449.59 803.13 598.89"/><polygon class="cls-9" points="821.67 476.89 914.25 423.62 914.26 406.98 821.78 460.27 821.67 476.89"/><polygon class="cls-11" points="591.7 539.93 775.91 645.91 776.13 433.91 591.82 327.95 591.7 539.93"/><polygon class="cls-12" points="960.02 327.95 776.13 221.27 591.82 327.95 776.13 433.91 960.02 327.95"/><ellipse class="cls-9" cx="708.51" cy="327.29" rx="28.18" ry="35.56" transform="translate(49.52 745.43) rotate(-57.19)"/><ellipse class="cls-13" cx="708.51" cy="327.29" rx="20.92" ry="26.4" transform="translate(49.52 745.43) rotate(-57.19)"/><ellipse class="cls-13" cx="708.51" cy="327.29" rx="24.04" ry="30.34" transform="translate(49.52 745.43) rotate(-57.19)"/><ellipse class="cls-13" cx="708.51" cy="327.29" rx="27.17" ry="34.29" transform="translate(49.52 745.43) rotate(-57.19)"/><ellipse class="cls-13" cx="708.51" cy="327.29" rx="17.79" ry="22.45" transform="translate(49.52 745.43) rotate(-57.19)"/><ellipse class="cls-13" cx="708.51" cy="327.29" rx="14.51" ry="18.32" transform="translate(49.52 745.43) rotate(-57.19)"/><ellipse class="cls-13" cx="708.51" cy="327.29" rx="11.31" ry="14.28" transform="translate(49.52 745.43) rotate(-57.19)"/><ellipse class="cls-9" cx="788.08" cy="282.05" rx="28.18" ry="35.56" transform="translate(124 791.58) rotate(-57.19)"/><ellipse class="cls-9" cx="776.51" cy="373.29" rx="28.18" ry="35.56" transform="translate(42.01 823.65) rotate(-57.19)"/><ellipse class="cls-9" cx="856.08" cy="328.05" rx="28.18" ry="35.56" transform="translate(116.49 869.81) rotate(-57.19)"/><polygon class="cls-14" points="718.07 243.16 718.07 263.46 701.15 263.46 707.92 243.16 718.07 243.16 718.07 243.16"/><polygon class="cls-15" points="697.77 243.16 707.92 243.16 707.92 263.46 697.77 263.46 697.77 243.16 697.77 243.16"/><path class="cls-16" d="M741.75,256.7H731.6l10.15,16.92H751.9v-6.77a10.18,10.18,0,0,0-10.15-10.15Z"/><path class="cls-10" d="M741.75,266.85v6.77H663.94v-6.77a10.18,10.18,0,0,1,10.15-10.15H731.6a10.18,10.18,0,0,1,10.15,10.15Z"/><path class="cls-15" d="M640.26,273.61l6.77,6.77-6.77,6.77H604.74a6.77,6.77,0,0,1,0-13.53Z"/><polygon class="cls-14" points="650.41 273.61 660.56 287.14 640.26 287.14 640.26 273.61 650.41 273.61 650.41 273.61"/><polygon class="cls-10" points="663.94 273.61 650.41 273.61 650.41 290.53 677.47 290.53 663.94 273.61 663.94 273.61"/><path class="cls-17" d="M741.75,273.61,731.6,341.27h10.15a10.18,10.18,0,0,0,10.15-10.15V273.61Z"/><path class="cls-16" d="M741.75,273.61v57.51a10.18,10.18,0,0,1-10.15,10.15H674.09a10.18,10.18,0,0,1-10.15-10.15V273.61Z"/><path class="cls-14" d="M721.45,245.7H694.39a2.54,2.54,0,0,1,0-5.07h27.06a2.54,2.54,0,1,1,0,5.07Z"/><g class="cls-18"><path class="cls-19" d="M810.2,762.31,693.39,645.5a5.08,5.08,0,0,0-7.18,0l-19.15,19.15a5.08,5.08,0,0,0,0,7.18L783.87,788.64a5.08,5.08,0,0,0,7.18,0l19.15-19.15a5.08,5.08,0,0,0,0-7.18Z"/><path class="cls-19" d="M710.62,601.46l-44-44a5.08,5.08,0,0,0-7.18,0l-19.15,19.15a5.08,5.08,0,0,0,0,7.18L673,616.54,638.1,651.49,605.3,618.69a5.08,5.08,0,0,0-7.18,0L579,637.84a5.08,5.08,0,0,0,0,7.18l44,44a5.08,5.08,0,0,0,3.59,1.49l.46,0,42.13-3.83a5.08,5.08,0,0,0,3.13-1.47l34.47-34.47a5.08,5.08,0,0,0,1.47-3.13l3.83-42.13a5.08,5.08,0,0,0-1.47-4Z"/><path class="cls-20" d="M680.89,603.16a5.06,5.06,0,0,1-3.59-1.49l-13.54-13.54a5.08,5.08,0,1,1,7.18-7.18l13.54,13.54a5.08,5.08,0,0,1-3.59,8.67Z"/><path class="cls-19" d="M898.29,789.12l-44-44a5.08,5.08,0,0,0-4.05-1.47l-42.13,3.83a5.07,5.07,0,0,0-3.13,1.47l-34.47,34.47a5.08,5.08,0,0,0-1.47,3.13l-3.83,42.13a5.08,5.08,0,0,0,1.47,4l44,44a5.08,5.08,0,0,0,7.18,0L837,857.58a5.08,5.08,0,0,0,0-7.18l-32.79-32.79,34.95-34.95L872,815.45a5.08,5.08,0,0,0,7.18,0l19.15-19.15a5.08,5.08,0,0,0,0-7.18Z"/></g><path class="cls-21" d="M677,654.75l-9.9,9.9a5.08,5.08,0,0,0,0,7.18L783.87,788.64a5.08,5.08,0,0,0,7.18,0l9.9-9.9-124-124Z"/><path class="cls-22" d="M655.9,633.69l-17.8,17.8L605.3,618.69a5.08,5.08,0,0,0-7.18,0L579,637.84a5.08,5.08,0,0,0,0,7.18l44,44a5.08,5.08,0,0,0,3.59,1.49l.46,0,42.13-3.83a5.08,5.08,0,0,0,3.13-1.47l17.56-17.56-34-34Z"/><path class="cls-22" d="M770.47,783.38a5.08,5.08,0,0,0-1.47,3.13l-3.83,42.13a5.08,5.08,0,0,0,1.47,4l44,44a5.08,5.08,0,0,0,7.18,0L837,857.58a5.08,5.08,0,0,0,0-7.18l-32.79-32.79,17.8-17.8-34-34-17.56,17.56Z"/><path class="cls-19" d="M805.58,646.91l-15.32-15.32a5.08,5.08,0,0,0-7.18,0L681.59,733.08a5.08,5.08,0,0,0,0,7.18l15.32,15.32a5.08,5.08,0,0,0,7.18,0L805.58,654.09a5.08,5.08,0,0,0,0-7.18Z"/><path class="cls-19" d="M868.77,583.71l-15.32-15.32a5.08,5.08,0,0,0-5.69-1l-42.13,19.15a5.06,5.06,0,0,0-1.49,1L771.59,620.1a5.08,5.08,0,0,0,0,7.18l38.3,38.3a5.08,5.08,0,0,0,7.18,0L849.62,633a5.07,5.07,0,0,0,1-1.49L869.8,589.4a5.07,5.07,0,0,0-1-5.69Z"/><path class="cls-4" d="M702.17,784.78,652.38,735a5.08,5.08,0,0,0-7.18,0l-59.36,59.36a5.08,5.08,0,0,0,0,7.18l49.79,49.79a5.08,5.08,0,0,0,7.18,0L702.17,792a5.08,5.08,0,0,0,0-7.18Z"/><path class="cls-3" d="M652.38,735a5.08,5.08,0,0,0-7.18,0l-59.36,59.36a5.08,5.08,0,0,0,0,7.18l24.68,24.69,66.54-66.54L652.38,735Z"/><polygon class="cls-23" points="673.68 756.29 680.86 763.48 614.32 830.02 607.14 822.84 673.68 756.29 673.68 756.29"/><polygon class="cls-23" points="687.09 769.7 694.27 776.88 629.64 841.51 622.46 834.33 687.09 769.7 687.09 769.7"/><polygon class="cls-24" points="660.28 742.89 667.46 750.08 602.84 814.7 595.65 807.52 660.28 742.89 660.28 742.89"/><polygon class="cls-24" points="607.14 822.84 673.68 756.29 677.06 759.67 610.52 826.22 607.14 822.84 607.14 822.84"/><path class="cls-21" d="M797.71,639,689,747.71l7.87,7.87a5.08,5.08,0,0,0,7.18,0L805.58,654.09a5.08,5.08,0,0,0,0-7.18L797.71,639Z"/><g class="cls-18"><path class="cls-22" d="M860.9,575.84l-70.37,70.37,19.36,19.36a5.08,5.08,0,0,0,7.18,0L849.62,633a5.07,5.07,0,0,0,1-1.49L869.8,589.4a5.08,5.08,0,0,0-1-5.69l-7.87-7.87Z"/><path class="cls-3" d="M622,862.39a5.06,5.06,0,0,0,2.46-.64l17.23-9.57L585,795.48l-9.57,17.23a5.08,5.08,0,0,0,.85,6.06l42.13,42.13a5.07,5.07,0,0,0,3.59,1.49Z"/><path class="cls-2" d="M585,795.48l-9.57,17.23a5.08,5.08,0,0,0,.85,6.06l20.86,20.86,16-16L585,795.48Z"/></g><path class="cls-3" d="M679.19,723.5a5.08,5.08,0,0,0-5.59-1.08l-26.81,11.49,56.46,56.46,11.49-26.81a5.08,5.08,0,0,0-1.08-5.59L679.19,723.5Z"/><path class="cls-2" d="M679.19,723.5a5.08,5.08,0,0,0-5.59-1.08l-26.81,11.49,28,28,21.41-21.41-17-17Z"/><path class="cls-20" d="M799.21,629.07a5.08,5.08,0,0,1-3.59-8.67l16.25-16.25a5.08,5.08,0,1,1,7.18,7.18L802.8,627.58a5.06,5.06,0,0,1-3.59,1.49Z"/><path class="cls-25" d="M1176.62,95.62l-4.07,61.09a28,28,0,0,1-55.8,0l-4.07-61.09a17.44,17.44,0,0,1,17.44-17.44h29.06a17.44,17.44,0,0,1,17.44,17.44Zm0,0"/><path class="cls-2" d="M1173.71,177.61v2.3a2.91,2.91,0,0,1-2.91,2.91h-52.32a2.91,2.91,0,0,1-2.91-2.91v-2.3a5.81,5.81,0,0,1,6.39-5.78l22.67,2.27,22.67-2.27a5.81,5.81,0,0,1,6.39,5.78Zm0,0"/><path class="cls-3" d="M1173.71,177.61v2.3a2.91,2.91,0,0,1-2.91,2.91h-52.32a2.91,2.91,0,0,1-2.91-2.91v-2.3a5.81,5.81,0,0,1,.29-1.82,5.2,5.2,0,0,0,4.91,3.5h47.72a5.2,5.2,0,0,0,4.91-3.5,5.81,5.81,0,0,1,.29,1.82Zm0,0"/><path class="cls-26" d="M1176.62,95.62l-1.85,27.79a43.63,43.63,0,0,1-11,26.42c-5.6,6.18-12.12,9.73-19.07,9.73s-13.48-3.55-19.07-9.73a43.64,43.64,0,0,1-11-26.42l-1.85-27.79a17.44,17.44,0,0,1,17.44-17.44h29.06a17.44,17.44,0,0,1,17.44,17.44Zm0,0"/><path class="cls-20" d="M1175.92,90.73a34.89,34.89,0,0,1-62.54,0,17.44,17.44,0,0,1,16.74-12.55h29.06a17.44,17.44,0,0,1,16.74,12.55Zm0,0"/><path class="cls-27" d="M1159.18,63.65V81.09h-29.06V63.65a14.53,14.53,0,1,1,29.06,0Zm0,0"/><path class="cls-2" d="M1168.17,80.68a34.86,34.86,0,0,1-47,0,17.33,17.33,0,0,1,9-2.5h14.53a5.81,5.81,0,0,0,5.81-5.81,8.72,8.72,0,0,1,8.72-8.72V78.18a17.33,17.33,0,0,1,9,2.5Zm0,0"/><path class="cls-3" d="M1159.18,63.65V67a8.72,8.72,0,0,0-6.08,8.31,5.81,5.81,0,0,1-5.81,5.81h-14.53a17.34,17.34,0,0,0-8.44,2.18,35.19,35.19,0,0,1-3.19-2.59,17.33,17.33,0,0,1,9-2.5h14.53a5.81,5.81,0,0,0,5.81-5.81,8.72,8.72,0,0,1,8.72-8.72Zm0,0"/><path class="cls-2" d="M1104.49,68.3a3.12,3.12,0,0,1,2.36-4.86l32-2.28a5.41,5.41,0,0,1,5.51,7.14Zm0,0"/><path class="cls-3" d="M1138.85,72l-32-2.28a3.12,3.12,0,0,1-2.9-3.11h40.69a5.41,5.41,0,0,1-5.8,5.4Zm0,0"/><path class="cls-27" d="M1130.11,78.18V130.5a17.44,17.44,0,0,1-17.44,17.44V95.62a17.44,17.44,0,0,1,17.44-17.44Zm0,0"/><path class="cls-28" d="M1124.3,79.18v39.69a17.41,17.41,0,0,1-7,14,2.9,2.9,0,0,1-4.62-2.35V95.37a17.12,17.12,0,0,1,11.63-16.19Zm0,0"/><path class="cls-27" d="M1159.18,78.18V130.5a17.44,17.44,0,0,0,17.44,17.44V95.62a17.44,17.44,0,0,0-17.44-17.44Zm0,0"/><path class="cls-28" d="M1165,79.18v39.69a17.41,17.41,0,0,0,7,14,2.9,2.9,0,0,0,4.62-2.35V95.31A17,17,0,0,0,1165,79.18Zm0,0"/><path class="cls-28" d="M1153.36,56.38A4.36,4.36,0,1,1,1149,52a4.36,4.36,0,0,1,4.36,4.36Zm0,0"/></svg>