<svg id="Layer_1" data-name="Layer 1" xmlns="http://www.w3.org/2000/svg" viewBox="0 0 1920 1080"><defs><style>.cls-1{fill:#3c9344;}.cls-2{fill:#fff;}.cls-3{fill:#347534;}.cls-4{fill:#00652e;}.cls-5{fill:#775020;}.cls-6{fill:#99bf19;}.cls-7{fill:#00a499;}.cls-8{fill:#64c8c3;}.cls-9{fill:#ff6d00;}.cls-10{fill:#733791;}.cls-11{fill:#500778;}.cls-12{fill:#ff9141;}.cls-13{fill:#420768;}</style></defs><title>ilustracoes_caixa_am5SVG</title><polygon class="cls-1" points="960 256.5 469.09 539.93 469.09 610.79 960 894.21 1450.91 610.79 1450.91 539.93 960 256.5"/><polygon class="cls-2" points="518.43 639.28 543 653.54 534.38 662.91 514 647.54 518.43 639.28"/><polygon class="cls-3" points="960 894.21 469.09 610.79 469.09 539.93 960 823.36 960 894.21"/><polygon class="cls-4" points="960 894.21 1450.91 610.79 1450.91 539.93 960 823.36 960 894.21"/><rect class="cls-5" x="598.16" y="423.62" width="11.63" height="145.59"/><circle class="cls-6" cx="603.97" cy="423.62" r="69.06"/><path class="cls-4" d="M1337,444.13a76.33,76.33,0,0,0-76.33,76.33h152.66A76.33,76.33,0,0,0,1337,444.13Z"/><path class="cls-6" d="M1291.05,487.45a42,42,0,0,0-42,42h84A42,42,0,0,0,1291.05,487.45Z"/><polygon class="cls-7" points="1171.62 575.36 910.03 424.33 910.03 197.78 1171.62 348.81 1171.62 575.36"/><polygon class="cls-8" points="821.5 146.7 714.11 310.72 714.11 537.27 910.31 423.99 910.31 197.47 821.5 146.7"/><polygon class="cls-9" points="1082.85 189.85 1164.62 308.44 903.03 157.41 811.91 32.92 1082.85 189.85"/><polygon class="cls-10" points="975.46 688.44 713.87 537.41 713.87 310.86 975.46 461.89 975.46 688.44"/><polygon class="cls-11" points="1082.85 297.85 975.46 461.87 975.46 688.42 1171.66 575.14 1171.66 348.62 1082.85 297.85"/><polygon class="cls-12" points="696.03 229.41 811.91 32.92 1082.85 189.85 957.62 380.44 696.03 229.41"/><polygon class="cls-7" points="1040.82 650.68 1040.82 499.63 1106.26 461.89 1106.26 612.9 1040.82 650.68"/><polygon class="cls-8" points="877.36 480.63 877.36 556.15 942.76 593.9 942.76 518.39 877.36 480.63"/><polygon class="cls-8" points="746.81 405.25 746.81 480.77 812.21 518.53 812.21 443.01 746.81 405.25"/><polygon class="cls-10" points="889.44 261.61 889.44 185.66 841.81 158.16 841.81 234.11 889.44 261.61"/><polygon class="cls-11" points="937.07 158.62 889.44 185.66 889.44 261.61 937.07 189.2 937.07 158.62"/><polygon class="cls-13" points="841.81 158.16 889.44 185.66 937.07 158.62 889.32 130.73 841.81 158.16"/><polygon class="cls-12" points="1106.26 612.9 1040.82 650.68 1171.66 726.2 1215.59 675.92 1106.26 612.9"/><polygon class="cls-9" points="1150.16 784.51 1150.16 713.7 1215.59 675.92 1215.59 746.77 1150.16 784.51"/></svg>