<svg id="Layer_1" data-name="Layer 1" xmlns="http://www.w3.org/2000/svg" viewBox="0 0 1920 1080"><defs><style>.cls-1{fill:#733791;}.cls-2{fill:#500778;}.cls-3{fill:#420768;}.cls-4{fill:#ff9141;}.cls-5{fill:#00a499;}.cls-6{fill:#64c8c3;}.cls-7{fill:#ff6d00;}.cls-8{fill:#41b9b4;}.cls-9{fill:#008c7e;}</style></defs><title>ilustracoes_caixa_am5SVG</title><polygon class="cls-1" points="960 256.5 469.09 539.93 469.09 610.79 960 894.21 1450.91 610.79 1450.91 539.93 960 256.5"/><polygon class="cls-2" points="960 894.21 469.09 610.79 469.09 539.93 960 823.36 960 894.21"/><polygon class="cls-3" points="960 894.21 1450.91 610.79 1450.91 539.93 960 823.36 960 894.21"/><polygon class="cls-1" points="781.22 615.89 586.46 503.45 586.46 334.78 781.22 447.22 781.22 615.89"/><polygon class="cls-2" points="861.17 325.1 781.22 447.21 781.22 615.87 927.29 531.54 927.29 362.89 861.17 325.1"/><polygon class="cls-4" points="573.18 354.55 659.45 208.26 861.17 325.1 767.94 466.99 573.18 354.55"/><polygon class="cls-5" points="829.88 587.78 829.88 475.32 878.6 447.22 878.6 559.65 829.88 587.78"/><polygon class="cls-6" points="708.19 461.18 708.19 517.4 756.88 545.51 756.88 489.29 708.19 461.18"/><polygon class="cls-6" points="610.99 405.06 610.99 461.28 659.68 489.39 659.68 433.17 610.99 405.06"/><polygon class="cls-1" points="717.18 378.52 717.18 321.97 681.72 301.5 681.72 358.05 717.18 378.52"/><polygon class="cls-2" points="752.64 301.84 717.18 321.97 717.18 378.52 752.64 324.61 752.64 301.84"/><polygon class="cls-3" points="681.72 301.5 717.18 321.97 752.64 301.84 717.09 281.08 681.72 301.5"/><polygon class="cls-4" points="878.6 559.65 829.88 587.78 1113.52 754.51 1146.23 717.07 878.6 559.65"/><polygon class="cls-7" points="1097.51 814.84 1097.51 745.2 1146.23 717.07 1146.23 786.75 1097.51 814.84"/><path class="cls-4" d="M1211.41,252.66c-13.67-20-25.8-23-41-21.5-5.5.54-10.54,3.44-15,8.37a50.53,50.53,0,0,0-7.09,10.36c-12.19,23-17.77,65.34-12.75,116.48,7.48,76.07,33.87,125.24,60.2,122.65,13.72-1.35,29.53-3.83,39.24-29.11,8.93-23.24,12.5-67.76,8.92-104.19C1240,315.85,1226.46,274.67,1211.41,252.66ZM1190,477c-22,2.16-44.83-47.53-51.07-111-4.48-45.54.82-85.79,12.29-105.69a33.72,33.72,0,0,1,7.38-9.2,16.22,16.22,0,0,1,8.81-3.93c22-2.16,44.83,47.53,51.07,111S1211.94,474.88,1190,477Z"/><path class="cls-4" d="M1301.19,503.28c-1.26-12.86-5.67-26.7-11-34.43-4.58-6.69-9.35-9.13-16.46-8.44a11.22,11.22,0,0,0-7.18,3.87,19.82,19.82,0,0,0-2.79,4.06c-4.45,8.4-6.07,22.64-4.46,39.06,2.51,25.57,11.35,42.32,22.16,42.31.34,0,.69,0,1-.05,4-.4,11.56-1.14,15.58-11.63C1301.12,530.25,1302.4,515.64,1301.19,503.28ZM1280,538.37c-1,.1-3.54-1.89-6.18-7.62-2.89-6.28-5-14.87-5.9-24.19-1.29-13.15,0-25.42,3.41-31.26a7,7,0,0,1,1.48-1.9,1.6,1.6,0,0,1,.76-.39h.07c1,0,3.53,2,6.11,7.63,2.89,6.28,5,14.87,5.9,24.19s.54,18.16-1.08,24.88c-1.47,6.14-3.59,8.58-4.58,8.68Z"/><polygon class="cls-8" points="1061.9 398.09 1174.07 132.19 1159.91 124.02 1027.85 200.06 1027.85 407.97 1053.1 422 1142.57 474.16 1274.51 398.04 1274.51 380.43 1061.9 398.09"/><polygon class="cls-5" points="1042.18 208.34 1042.18 398.09 1174.09 321.95 1174.07 132.19 1042.18 208.34"/><polygon class="cls-5" points="1189.54 398.09 1142.62 456.58 1142.57 474.16 1274.51 398.04 1274.51 380.43 1189.54 398.09"/><polygon class="cls-6" points="1042.18 398.09 1174.09 321.95 1274.51 380.43 1142.62 456.58 1042.18 398.09"/><polygon class="cls-5" points="1042.18 328.35 1042.18 321.95 1145.57 378.88 1143.75 553.27 1137.1 549.58 1136.8 382.87 1042.18 328.35"/><polygon class="cls-8" points="1042.18 321.95 1064.34 309.16 1165.58 367.33 1165.61 443.69 1143.75 456.58 1143.42 380.12 1042.18 321.95"/><polygon class="cls-9" points="1143.42 380.12 1165.58 367.33 1165.61 540.38 1143.75 553.27 1143.42 380.12"/><polygon class="cls-5" points="1151.18 264.98 1151.18 258.58 1254.57 315.51 1252.75 499.57 1246.1 495.89 1245.8 319.5 1151.18 264.98"/><polygon class="cls-8" points="1151.18 258.58 1173.34 245.79 1274.58 303.96 1274.61 380.33 1252.75 393.21 1252.42 316.75 1151.18 258.58"/><polygon class="cls-9" points="1252.42 316.75 1274.58 303.96 1274.61 486.69 1252.75 499.57 1252.42 316.75"/><path class="cls-4" d="M1070.84,333.7c-13.67-20-25.8-23-41-21.5-5.5.54-10.54,3.44-15,8.37a50.53,50.53,0,0,0-7.09,10.36C995.58,354,990,396.28,995,447.41c7.48,76.07,33.87,125.24,60.2,122.65,13.72-1.35,29.53-3.83,39.24-29.11,8.93-23.24,12.5-67.76,8.92-104.19C1099.47,396.89,1085.9,355.71,1070.84,333.7Zm-21.44,224.38c-22,2.16-44.83-47.53-51.07-111-4.48-45.54.82-85.79,12.29-105.69a33.72,33.72,0,0,1,7.38-9.2,16.22,16.22,0,0,1,8.81-3.93c22-2.16,44.83,47.53,51.07,111S1071.37,555.92,1049.41,558.08Z"/><polygon class="cls-8" points="1143.42 552.88 1143.42 541.86 1311.76 487.45 1311.76 498.46 1180.74 574.52 1143.42 552.88"/><polygon class="cls-5" points="1217.47 527.7 1180.74 563.5 1180.74 574.52 1311.76 498.46 1311.76 487.45 1217.47 527.7"/><polygon class="cls-6" points="1143.42 541.86 1274.61 466.09 1311.76 487.45 1180.74 563.5 1143.42 541.86"/><path class="cls-4" d="M1164.42,573.9c-1.26-12.86-5.67-26.7-11-34.43-4.58-6.69-9.35-9.13-16.46-8.44a11.22,11.22,0,0,0-7.18,3.87A19.82,19.82,0,0,0,1127,539c-4.45,8.4-6.07,22.64-4.46,39.06,2.51,25.57,11.35,42.32,22.16,42.31.34,0,.69,0,1-.05,4-.4,11.56-1.14,15.58-11.63C1164.35,600.87,1165.64,586.26,1164.42,573.9ZM1143.19,609c-1,.1-3.54-1.89-6.18-7.62-2.89-6.28-5-14.87-5.9-24.19-1.29-13.15,0-25.42,3.41-31.26A7,7,0,0,1,1136,544a1.6,1.6,0,0,1,.76-.39h.07c1,0,3.53,2,6.11,7.63,2.89,6.28,5,14.87,5.9,24.19s.54,18.16-1.08,24.88c-1.47,6.14-3.59,8.58-4.58,8.68Z"/><polygon class="cls-6" points="1042.18 208.34 1027.85 200.06 1159.91 124.02 1174.07 132.19 1042.18 208.34"/></svg>