<svg id="Layer_1" data-name="Layer 1" xmlns="http://www.w3.org/2000/svg" xmlns:xlink="http://www.w3.org/1999/xlink" viewBox="0 0 1920 1080"><defs><style>.cls-1,.cls-2,.cls-3{fill:none;}.cls-1{clip-rule:evenodd;}.cls-2{fill-rule:evenodd;}.cls-4{fill:#4187d7;}.cls-5{fill:#005fc8;}.cls-6{fill:#0039ba;}.cls-7{fill:#500778;}.cls-8{fill:#e65a00;}.cls-9{fill:#41b9b4;}.cls-10{fill:#ff9141;}.cls-11{fill:#64c8c3;}.cls-12{fill:#733791;}.cls-13{fill:#ff6d00;}.cls-14{clip-path:url(#clip-path);}.cls-15{clip-path:url(#clip-path-2);}.cls-16{clip-path:url(#clip-path-3);}.cls-17{clip-path:url(#clip-path-4);}.cls-18{clip-path:url(#clip-path-5);}.cls-19{clip-path:url(#clip-path-6);}.cls-20{clip-path:url(#clip-path-7);}.cls-21{clip-path:url(#clip-path-8);}.cls-22{clip-path:url(#clip-path-9);}.cls-23{clip-path:url(#clip-path-10);}.cls-24{clip-path:url(#clip-path-11);}.cls-25{clip-path:url(#clip-path-12);}.cls-26{clip-path:url(#clip-path-13);}.cls-27{clip-path:url(#clip-path-14);}.cls-28{clip-path:url(#clip-path-15);}.cls-29{clip-path:url(#clip-path-16);}.cls-30{clip-path:url(#clip-path-17);}.cls-31{clip-path:url(#clip-path-18);}.cls-32{clip-path:url(#clip-path-19);}.cls-33{clip-path:url(#clip-path-20);}.cls-34{clip-path:url(#clip-path-21);}.cls-35{clip-path:url(#clip-path-22);}.cls-36{clip-path:url(#clip-path-23);}.cls-37{clip-path:url(#clip-path-24);}.cls-38{clip-path:url(#clip-path-25);}.cls-39{clip-path:url(#clip-path-26);}.cls-40{clip-path:url(#clip-path-27);}.cls-41{clip-path:url(#clip-path-28);}.cls-42{clip-path:url(#clip-path-29);}.cls-43{clip-path:url(#clip-path-30);}.cls-44{clip-path:url(#clip-path-31);}.cls-45{clip-path:url(#clip-path-32);}.cls-46{clip-path:url(#clip-path-33);}.cls-47{clip-path:url(#clip-path-34);}.cls-48{clip-path:url(#clip-path-35);}.cls-49{clip-path:url(#clip-path-36);}.cls-50{clip-path:url(#clip-path-37);}.cls-51{clip-path:url(#clip-path-38);}.cls-52{clip-path:url(#clip-path-39);}.cls-53{clip-path:url(#clip-path-40);}.cls-54{clip-path:url(#clip-path-41);}.cls-55{clip-path:url(#clip-path-42);}.cls-56{clip-path:url(#clip-path-43);}.cls-57{clip-path:url(#clip-path-44);}.cls-58{clip-path:url(#clip-path-45);}.cls-59{clip-path:url(#clip-path-46);}.cls-60{clip-path:url(#clip-path-47);}.cls-61{clip-path:url(#clip-path-48);}.cls-62{clip-path:url(#clip-path-49);}.cls-63{clip-path:url(#clip-path-50);}.cls-64{clip-path:url(#clip-path-51);}.cls-65{clip-path:url(#clip-path-52);}.cls-66{clip-path:url(#clip-path-53);}.cls-67{clip-path:url(#clip-path-54);}.cls-68{clip-path:url(#clip-path-55);}.cls-69{clip-path:url(#clip-path-56);}.cls-70{clip-path:url(#clip-path-57);}.cls-71{clip-path:url(#clip-path-58);}.cls-72{clip-path:url(#clip-path-59);}.cls-73{clip-path:url(#clip-path-60);}.cls-74{clip-path:url(#clip-path-61);}.cls-75{clip-path:url(#clip-path-62);}.cls-76{clip-path:url(#clip-path-81);}.cls-77{clip-path:url(#clip-path-82);}.cls-78{clip-path:url(#clip-path-83);}.cls-79{clip-path:url(#clip-path-84);}.cls-80{clip-path:url(#clip-path-85);}.cls-81{clip-path:url(#clip-path-86);}.cls-82{clip-path:url(#clip-path-87);}.cls-83{clip-path:url(#clip-path-88);}.cls-84{clip-path:url(#clip-path-89);}.cls-85{clip-path:url(#clip-path-90);}.cls-86{clip-path:url(#clip-path-91);}.cls-87{clip-path:url(#clip-path-92);}.cls-88{clip-path:url(#clip-path-93);}.cls-89{clip-path:url(#clip-path-94);}.cls-90{clip-path:url(#clip-path-95);}.cls-91{clip-path:url(#clip-path-96);}.cls-92{clip-path:url(#clip-path-97);}.cls-93{clip-path:url(#clip-path-98);}</style><clipPath id="clip-path"><polygon class="cls-1" points="474.31 2008.44 474.31 2078.92 962.61 2360.84 1450.91 2078.92 1450.91 2008.44 962.61 1726.52 474.31 2008.44"/></clipPath><clipPath id="clip-path-2"><polygon class="cls-1" points="962.61 2360.84 474.31 2078.92 474.31 2008.44 962.61 2290.36 962.61 2360.84"/></clipPath><clipPath id="clip-path-3"><polygon class="cls-1" points="1206.76 2360.84 1450.91 2360.84 1450.91 2008.44 962.61 2008.44 962.61 2360.84 1206.76 2360.84"/></clipPath><clipPath id="clip-path-4"><path class="cls-1" d="M1012.37,1959l-89.14-1.55c-4.86-.07-44.92,30.09-45,35l-.26,17.7a8.87,8.87,0,0,0,8.72,9l9.29.14,70.78,1c28.76.43,57.73,1.08,71.67,1.06l8.85.13a8.87,8.87,0,0,0,9-8.72l.27-17.7c.07-4.86-39.29-36-44.15-36.05"/></clipPath><clipPath id="clip-path-5"><path class="cls-1" d="M1159.67,1783.34a17.21,17.21,0,1,1-24.33-.36,17.36,17.36,0,0,1,24.33.36m-50.51-25.09a17.21,17.21,0,1,1-24.33-.36,17.36,17.36,0,0,1,24.33.36M834.91,1752a17.21,17.21,0,1,1-.36,24.33,17.16,17.16,0,0,1,.36-24.33M808,1775.9a17.21,17.21,0,1,1-24.34-.36,17.36,17.36,0,0,1,24.34.36"/></clipPath><clipPath id="clip-path-6"><path class="cls-1" d="M1014.88,1730.3l-87.59-1.3c-9.74-.14-194,83.62-194.1,93.36l-.52,34.95A17.37,17.37,0,0,0,749.89,1875l219.82-22.84,218.38,29.57a17.37,17.37,0,0,0,17.73-17.22l.52-34.95c.14-9.74-181.72-99.17-191.45-99.31"/></clipPath><clipPath id="clip-path-7"><path class="cls-1" d="M973.77,1548.71c-24.33-.36-44.41,40.49-45.06,69.47l-4.48,316.09c-.44,29.2,17.77,114.43,42.1,114.79s45.06-84.29,45.49-113.49l4.92-316.09c.44-29.2-18.64-70.41-43-70.77"/></clipPath><clipPath id="clip-path-8"><path class="cls-1" d="M990.38,1935l4.7-315.87c.37-24.78-13.29-58.16-32-68a27.37,27.37,0,0,1,10.88-2.72c24.33.37,43.19,41.8,42.75,71l-4.7,315.87c-.43,29.2-21.38,113.62-45.49,113.49-3.54-.05-7.27-2.1-10.76-5.69,19.09-19,34.21-83.34,34.57-108.12"/></clipPath><clipPath id="clip-path-9"><path class="cls-1" d="M1056.48,1863.89l-44.38-6.19,1.9-127.85,1.33,0c2.65,0,20,7.6,43.09,18.34Z"/></clipPath><clipPath id="clip-path-10"><path class="cls-1" d="M925.39,1856.85l-175.28,18.41a17.63,17.63,0,0,1-17-15.74L925.64,1840Zm87.85-15.51,192.09,26.31a17.51,17.51,0,0,1-17.24,14.12l-174.87-23.84Z"/></clipPath><clipPath id="clip-path-11"><path class="cls-1" d="M1195.5,1974.87a19.59,19.59,0,1,0-19.59,19.59,19.59,19.59,0,0,0,19.59-19.59"/></clipPath><clipPath id="clip-path-12"><path class="cls-1" d="M1269.63,1975.93a18.53,18.53,0,1,0-18.53,18.53,18.53,18.53,0,0,0,18.53-18.53"/></clipPath><clipPath id="clip-path-13"><path class="cls-1" d="M1238.22,1950.76a31.15,31.15,0,1,0-31.15,31.15,31.15,31.15,0,0,0,31.15-31.15"/></clipPath><clipPath id="clip-path-14"><polygon class="cls-1" points="1238.22 1950.76 1237.51 1974.87 1253.57 1978.39 1253.57 1994.45 1175.92 1994.45 1175.92 1966.7 1238.22 1950.76"/></clipPath><clipPath id="clip-path-15"><path class="cls-1" d="M781.07,2006.93a30.36,30.36,0,1,1,30.36,30.78,30.57,30.57,0,0,1-30.36-30.78"/></clipPath><clipPath id="clip-path-16"><path class="cls-1" d="M666.18,2008.6a28.72,28.72,0,1,1,28.72,29.11,28.92,28.92,0,0,1-28.72-29.11"/></clipPath><clipPath id="clip-path-17"><path class="cls-1" d="M714.86,1969.06c0-27,21.62-49,48.29-49s48.29,21.92,48.29,49-21.62,49-48.29,49-48.29-21.92-48.29-49"/></clipPath><clipPath id="clip-path-18"><polygon class="cls-1" points="714.86 1969.06 715.97 2006.93 691.07 2012.47 691.07 2037.71 811.43 2037.71 811.43 1994.11 714.86 1969.06"/></clipPath><clipPath id="clip-path-19"><path class="cls-1" d="M940.32,2135.49a15.46,15.46,0,1,0-15.46,15.46,15.46,15.46,0,0,0,15.46-15.46"/></clipPath><clipPath id="clip-path-20"><path class="cls-1" d="M1008.63,2141.18a9.47,9.47,0,1,0-9.47,9.47,9.47,9.47,0,0,0,9.47-9.47"/></clipPath><clipPath id="clip-path-21"><path class="cls-1" d="M991.15,2131.7a15.46,15.46,0,1,0-15.46,15.46,15.46,15.46,0,0,0,15.46-15.46"/></clipPath><clipPath id="clip-path-22"><path class="cls-1" d="M973.9,2128.49a22.16,22.16,0,1,0-22.16,22.16,22.16,22.16,0,0,0,22.16-22.16"/></clipPath><clipPath id="clip-path-23"><polygon class="cls-1" points="991.15 2131.7 991.15 2141.18 999.16 2141.18 999.16 2150.65 924.86 2150.65 924.86 2138.96 962.01 2138.96 991.15 2131.7"/></clipPath><clipPath id="clip-path-24"><path class="cls-1" d="M1068.4,1882a17.9,17.9,0,1,1,17.9,17.9,17.9,17.9,0,0,1-17.9-17.9"/></clipPath><clipPath id="clip-path-25"><path class="cls-1" d="M989.28,1888.6a11,11,0,1,1,11,11,11,11,0,0,1-11-11"/></clipPath><clipPath id="clip-path-26"><path class="cls-1" d="M1009.52,1877.63a17.9,17.9,0,1,1,17.9,17.9,17.9,17.9,0,0,1-17.9-17.9"/></clipPath><clipPath id="clip-path-27"><path class="cls-1" d="M1029.5,1873.9a25.67,25.67,0,1,1,25.67,25.67,25.67,25.67,0,0,1-25.67-25.67"/></clipPath><clipPath id="clip-path-28"><polygon class="cls-1" points="1009.52 1877.63 1009.52 1888.6 1000.25 1888.6 1000.25 1899.57 1086.3 1899.57 1086.3 1886.03 1043.28 1886.03 1009.52 1877.63"/></clipPath><clipPath id="clip-path-29"><rect class="cls-3" x="3635" y="1733.69" width="10.8" height="135.33" transform="translate(-323.82 916.87) rotate(-13.75)"/></clipPath><clipPath id="clip-path-30"><path class="cls-1" d="M3686.65,1720.37a64.15,64.15,0,1,0-47.07,77.61,64.14,64.14,0,0,0,47.07-77.61"/></clipPath><clipPath id="clip-path-31"><path class="cls-1" d="M3644.9,1991.07a94.25,94.25,0,0,0-94.21,94.29h188.42a94.25,94.25,0,0,0-94.21-94.29"/></clipPath><clipPath id="clip-path-32"><path class="cls-1" d="M3582.87,2046.45a51.86,51.86,0,0,0-51.84,51.88h103.68a51.86,51.86,0,0,0-51.84-51.88"/></clipPath><clipPath id="clip-path-33"><path class="cls-1" d="M3243.43,2313a56.42,56.42,0,0,0-50.64,31.6,45.35,45.35,0,0,0-53.89-1.58,70.14,70.14,0,1,0-137.74,26.51h298.74a56.5,56.5,0,0,0-56.48-56.53"/></clipPath><clipPath id="clip-path-34"><polygon class="cls-1" points="3255.07 2270.73 2932.37 2084.3 3174.39 1944.46 3497.09 2130.89 3255.07 2270.73"/></clipPath><clipPath id="clip-path-35"><polygon class="cls-1" points="3264.97 2095.99 3060.53 1860.75 3136.54 1639.64 3340.98 1874.88 3264.97 2095.99"/></clipPath><clipPath id="clip-path-36"><polygon class="cls-1" points="3500.74 1750.83 3340.99 1874.86 3264.98 2095.97 3494.32 2051.29 3570.32 1830.2 3500.74 1750.83"/></clipPath><clipPath id="clip-path-37"><polygon class="cls-1" points="3110.23 1659.57 3289.16 1506.69 3500.74 1750.83 3314.67 1894.81 3110.23 1659.57"/></clipPath><clipPath id="clip-path-38"><polygon class="cls-1" points="3341.38 2081.09 3392.06 1933.66 3468.54 1918.8 3417.88 2066.18 3341.38 2081.09"/></clipPath><clipPath id="clip-path-39"><polygon class="cls-1" points="3239.03 1860.23 3213.69 1933.94 3264.8 1992.75 3290.14 1919.05 3239.03 1860.23"/></clipPath><clipPath id="clip-path-40"><polygon class="cls-1" points="3136.99 1742.83 3111.66 1816.54 3162.77 1875.35 3188.1 1801.64 3136.99 1742.83"/></clipPath><clipPath id="clip-path-41"><polygon class="cls-1" points="3288.05 1755.93 3313.53 1681.8 3276.3 1638.97 3250.82 1713.1 3288.05 1755.93"/></clipPath><clipPath id="clip-path-42"><polygon class="cls-1" points="3369.05 1671.4 3313.53 1681.8 3288.05 1755.93 3358.79 1701.25 3369.05 1671.4"/></clipPath><clipPath id="clip-path-43"><polygon class="cls-1" points="3276.31 1638.97 3313.53 1681.8 3369.05 1671.4 3331.84 1628.15 3276.31 1638.97"/></clipPath><clipPath id="clip-path-44"><path class="cls-1" d="M2976.06,2077.07a80.93,80.93,0,0,0-80.9,81H3057a80.93,80.93,0,0,0-80.9-81"/></clipPath><clipPath id="clip-path-45"><path class="cls-1" d="M2925.71,1591.09c1.81-5.44,3.09-9.39,3.09-9.39s6.34-12.19-8.44-17.25l-18.29-6.27s-1.58-2.18-18.23,2.45a109.54,109.54,0,0,0-21.06,6.4c-6.58,2.88-12.67,6.78-14.73,11.79-5.18,12.59-2.78,22.11,4.57,29.85,1.74,1.83,5.14,3.79,9.31,5.72,4.58,2.11,10.09,4.19,15.37,6,10.26,3.53,19.66,6.08,19.66,6.08s15.2,2.6,19.45-8.56c2.57-6.74,6.55-18.54,9.31-26.83"/></clipPath><clipPath id="clip-path-46"><path class="cls-1" d="M2877.08,1651.9l-15,56.19,16.73,5.73,14.08-36.87,2.83-11.29c-9.68-3.61-15.36-8.67-18.65-13.76"/></clipPath><clipPath id="clip-path-47"><path class="cls-1" d="M2980.92,1703.1a25.64,25.64,0,0,1-5.12,2.35l-2.22,6.48a2.06,2.06,0,1,1-3.89-1.33l1.39-4.06a25.3,25.3,0,0,1-6.73,0l-2,5.71a2,2,0,0,1-.9,1.09l-9.53,25.57,15.18,5.2,17.22-31.27,2.21-6.45a20.65,20.65,0,0,1-5.66-3.27"/></clipPath><clipPath id="clip-path-48"><path class="cls-1" d="M3007.32,1619.06l-81.61-28c-2.75,8.3-6.74,20.1-9.31,26.83-4.25,11.16-19.45,8.56-19.45,8.56s-9.39-2.56-19.66-6.08l-3.93,11.49a27,27,0,0,0,3.71,20c3.29,5.1,9,10.15,18.65,13.76l-2.83,11.29-9.63,38.39,16.17,5.54,20.09-47.29,22.76,7.8,27.58,9.45,3.75,1.28a22.88,22.88,0,0,0,7.3,11,20.61,20.61,0,0,0,5.66,3.27l-2.21,6.45L2973,1746.1l15.57,5.34,20.47-38.24,17.72-51.8s12.87-31.27-19.43-42.34"/></clipPath><clipPath id="clip-path-49"><path class="cls-1" d="M2973.62,1692.14l-3.75-1.29-27.58-9.45a25.49,25.49,0,0,0,1.38,8.07l-2.2,6.44a2.06,2.06,0,1,0,3.89,1.33l.84-2.46a25.52,25.52,0,0,0,4.47,5.35l-1.7,5a2.06,2.06,0,1,0,3.89,1.33l1.26-3.69a25.5,25.5,0,0,0,5.41,2.61l.79.25-1.81,5.28a2,2,0,0,0,3,2.43,2,2,0,0,0,.9-1.1l2-5.71a25.31,25.31,0,0,0,6.73,0l-1.39,4.06a2.06,2.06,0,1,0,3.89,1.33l2.22-6.48a25.61,25.61,0,0,0,5.12-2.35,22.89,22.89,0,0,1-7.3-11"/></clipPath><clipPath id="clip-path-50"><path class="cls-1" d="M2903.6,1574.37a2.47,2.47,0,0,1,1.39-4.74c.61.14,15.21,3.42,18.87-11.58a2.47,2.47,0,1,1,4.79,1.17c-4.84,19.84-24.63,15.26-24.83,15.21l-.22-.06"/></clipPath><clipPath id="clip-path-51"><path class="cls-1" d="M2936.53,1658.76a12.77,12.77,0,0,0-16.58,15l20.49,7a12.78,12.78,0,0,0-3.92-22"/></clipPath><clipPath id="clip-path-52"><path class="cls-1" d="M2902.35,1699a12.75,12.75,0,0,0-10.77-16.86l-6.15,24.54c.23.09.45.2.69.28a12.78,12.78,0,0,0,16.23-8"/></clipPath><clipPath id="clip-path-53"><path class="cls-1" d="M3015.19,1666.64a18,18,0,1,0-2.12,34.73l10-29.33a18,18,0,0,0-7.91-5.4"/></clipPath><clipPath id="clip-path-54"><path class="cls-1" d="M2965.5,1646a31.29,31.29,0,0,0,41.29-27.09l-57.33-19.65a31.32,31.32,0,0,0,16,46.74"/></clipPath><clipPath id="clip-path-55"><path class="cls-1" d="M2916.41,1617.92c1-2.53,2.13-5.77,3.35-9.27a18.1,18.1,0,0,0-32.82,14.89c5.83,1.81,10,2.94,10,2.94s15.2,2.6,19.45-8.56"/></clipPath><clipPath id="clip-path-56"><path class="cls-1" d="M2877.4,1572.05a18,18,0,0,0,.48-10.07,101,101,0,0,0-15.11,5.06c-6.58,2.88-12.67,6.78-14.73,11.79-.07.17-.13.34-.2.52a18.09,18.09,0,0,0,29.56-7.29"/></clipPath><clipPath id="clip-path-57"><path class="cls-1" d="M2862.77,1567c-6.58,2.88-12.67,6.78-14.73,11.79-5.18,12.59-2.78,22.11,4.57,29.85,1.74,1.83,5.14,3.79,9.31,5.72,12.91-24.75,6.6-39.92.85-47.36"/></clipPath><clipPath id="clip-path-58"><path class="cls-1" d="M2893.13,1579.92a4.29,4.29,0,1,0-5.45,2.67,4.3,4.3,0,0,0,5.45-2.67"/></clipPath><clipPath id="clip-path-59"><path class="cls-1" d="M2883,1684.61a14.25,14.25,0,0,0-8.85-18.09c-.31-.11-.63-.19-.94-.27l-7.34,27.49a14.22,14.22,0,0,0,17.13-9.13"/></clipPath><clipPath id="clip-path-60"><path class="cls-1" d="M2956.85,1725.79l-4.88,13.1,13.23,4.54a14,14,0,0,0-8.35-17.64"/></clipPath><clipPath id="clip-path-61"><path class="cls-1" d="M3017.12,1639.16l.33-6.58c.61,0,15,.42,20.72-16.34l6.23,2.13c-3.83,11.2-11,16.27-16.32,18.55a26.9,26.9,0,0,1-11,2.24"/></clipPath><clipPath id="clip-path-62"><path class="cls-1" d="M3039.31,1623.06h0c-3.17-1.09-5.11-3.8-4.33-6.07l3.86-11.27c.77-2.27,4-3.22,7.14-2.14s5.11,3.8,4.33,6.07l-3.86,11.27c-.78,2.27-4,3.22-7.14,2.14"/></clipPath><clipPath id="clip-path-81"><path class="cls-1" d="M2910.87,1794.77c-119.68,0-216.69,25.69-216.69,57.39a16.86,16.86,0,0,0,1.87,7.54h0l.09.14a22.79,22.79,0,0,0,1.57,2.65l40.56,68.33c-8.2.42-14.18,4-14.18,16.5,0,24,28.43,40.57,40.38,45.92,4.6,2.07,9.36,3.94,14.22,5.67l107.94,181.82a41.85,41.85,0,0,0-4,3.28,29.45,29.45,0,0,0-53,25.44,39.79,39.79,0,0,0-20.55,18.09,29.44,29.44,0,0,0-46.92,19.71h291a29.46,29.46,0,0,0-35.07-25.05,43,43,0,0,0-48.74-28.09c0-.26,0-.51,0-.77a21.26,21.26,0,0,0-21.25-21.27,21,21,0,0,0-9.11,2.07l46.18-77.88c4.26-1.53,8.43-3.2,12.48-5,11.09-5,37.47-20.31,37.47-42.62,0-11.31-5.31-14.76-12.66-15.27l100.33-169.21a23,23,0,0,0,3.62-6.11,16.27,16.27,0,0,0,1.12-5.87c0-31.69-97-57.39-216.69-57.39"/></clipPath><clipPath id="clip-path-82"><path class="cls-1" d="M2696,1859.7l.27.45c-.08-.15-.17-.3-.24-.45Z"/></clipPath><clipPath id="clip-path-83"><path class="cls-1" d="M2700.16,1863.88l-4-4a37.6,37.6,0,0,0,4,4"/></clipPath><clipPath id="clip-path-84"><path class="cls-1" d="M3122.82,1864.13a22.66,22.66,0,0,0,4-6.11Z"/></clipPath><clipPath id="clip-path-85"><path class="cls-1" d="M2910.87,1794.77c-119.68,0-216.69,25.69-216.69,57.39a16.86,16.86,0,0,0,1.87,7.54l.08.15,1.57,2.65c18.38,26.76,106.83,47,213.18,47,104.16,0,191.15-19.46,212-45.41l3.62-6.11a16.28,16.28,0,0,0,1.12-5.87c0-31.69-97-57.39-216.69-57.39"/></clipPath><clipPath id="clip-path-86"><path class="cls-1" d="M2697.69,1862.49l213.18,359.1V1909.54c-106.35,0-194.8-20.29-213.18-47"/></clipPath><clipPath id="clip-path-87"><path class="cls-1" d="M2910.87,1909.54v312.05l212-357.46c-20.81,25.94-107.79,45.41-212,45.41"/></clipPath><clipPath id="clip-path-88"><path class="cls-1" d="M2761.33,1857.4l.19.31-.17-.31Z"/></clipPath><clipPath id="clip-path-89"><path class="cls-1" d="M2764.74,1861.54l-3.36-4a35.2,35.2,0,0,0,3.36,4"/></clipPath><clipPath id="clip-path-90"><path class="cls-1" d="M3058.41,1860.49a16.69,16.69,0,0,0,4-4.25Z"/></clipPath><clipPath id="clip-path-91"><path class="cls-1" d="M2910.87,1812.21c-83.31,0-150.84,17.88-150.84,39.95a11.74,11.74,0,0,0,1.3,5.25l.05.1,1.09,1.84c12.79,18.63,74.36,32.75,148.39,32.75,72.51,0,133.05-13.55,147.54-31.61l2.52-4.25a11.33,11.33,0,0,0,.78-4.08c0-22.06-67.53-39.95-150.84-39.95"/></clipPath><clipPath id="clip-path-92"><path class="cls-1" d="M2831.36,1854.94l.1.17-.08-.17Z"/></clipPath><clipPath id="clip-path-93"><path class="cls-1" d="M2833.17,1858l-1.78-3a25.87,25.87,0,0,0,1.78,3"/></clipPath><clipPath id="clip-path-94"><path class="cls-1" d="M2989.32,1858.36a16.14,16.14,0,0,0,4-4Z"/></clipPath><clipPath id="clip-path-95"><path class="cls-1" d="M2910.87,1830.91c-44.29,0-80.2,9.51-80.2,21.24a6.24,6.24,0,0,0,.69,2.79l0,.05.58,1c6.8,9.9,39.54,17.41,78.9,17.41,38.55,0,70.75-7.2,78.45-16.81l1.34-2.26a6,6,0,0,0,.41-2.17c0-11.73-35.91-21.24-80.2-21.24"/></clipPath><clipPath id="clip-path-96"><path class="cls-1" d="M2738.25,1930.81,2752,1954c18.68,17.3,44.73,24.59,69.45,31.38,33,9.06,67.57,10.07,101.77,10.17-12.32,11.17-29.55,15.19-46.14,16.31-36.83,2.49-78.62-3.36-112.63-18.61-12-5.36-40.38-21.89-40.38-45.92,0-12.47,6-16.08,14.18-16.5"/></clipPath><clipPath id="clip-path-97"><path class="cls-1" d="M3022,2033.3l-12.76,21.49c-17.33,16.05-41.5,22.82-64.45,29.12-30.6,8.4-62.71,9.35-94.44,9.44,11.43,10.37,27.42,14.1,42.82,15.14,34.18,2.31,73-3.11,104.52-17.27,11.09-5,37.47-20.31,37.47-42.62,0-11.57-5.55-14.92-13.16-15.31"/></clipPath><clipPath id="clip-path-98"><path class="cls-1" d="M3024,2221.59a29.6,29.6,0,0,0-5.88.59,43,43,0,0,0-48.74-28.09c0-.26,0-.51,0-.77a21.23,21.23,0,0,0-36.9-14.36,41.62,41.62,0,0,0-49.9,5,29.45,29.45,0,0,0-53,25.44,39.79,39.79,0,0,0-20.55,18.09,29.44,29.44,0,0,0-46.92,19.71h291a29.46,29.46,0,0,0-29.19-25.64"/></clipPath></defs><title>ilustracoes_caixa_am5SVG</title><polygon class="cls-4" points="960 256.5 469.09 539.93 469.09 610.79 960 894.21 1450.91 610.79 1450.91 539.93 960 256.5"/><polygon class="cls-5" points="960 894.21 469.09 610.79 469.09 539.93 960 823.36 960 894.21"/><polygon class="cls-6" points="960 894.21 1450.91 610.79 1450.91 539.93 960 823.36 960 894.21"/><rect class="cls-7" x="962.32" y="424.41" width="8.91" height="55.92" transform="translate(144.16 -227.77) rotate(14.51)"/><rect class="cls-8" x="954.07" y="420.13" width="44.37" height="6.82"/><rect class="cls-9" x="858.84" y="388.48" width="15.25" height="188.05" transform="translate(304.87 1299.93) rotate(-84.62)"/><path class="cls-10" d="M776.82,342.17A131.84,131.84,0,1,0,908.65,474,131.83,131.83,0,0,0,776.82,342.17Zm0,249.78A117.94,117.94,0,1,1,894.76,474,117.94,117.94,0,0,1,776.82,592Z"/><path class="cls-7" d="M776.82,334.9A139.11,139.11,0,1,0,915.93,474,139.11,139.11,0,0,0,776.82,334.9Zm0,265.83A126.72,126.72,0,1,1,903.54,474,126.72,126.72,0,0,1,776.82,600.73Z"/><path class="cls-10" d="M1202.33,342.17A131.84,131.84,0,1,0,1334.16,474,131.83,131.83,0,0,0,1202.33,342.17Zm0,249.78A117.94,117.94,0,1,1,1320.27,474,117.94,117.94,0,0,1,1202.33,592Z"/><path class="cls-7" d="M1202.33,334.9A139.11,139.11,0,1,0,1341.44,474,139.11,139.11,0,0,0,1202.33,334.9Zm0,265.83A126.72,126.72,0,1,1,1329,474,126.72,126.72,0,0,1,1202.33,600.73Z"/><rect class="cls-11" x="836.72" y="257.01" width="15.25" height="242.76" transform="translate(363.78 -412.28) rotate(34.57)"/><rect class="cls-11" x="1006.51" y="161" width="15.25" height="221.65" transform="matrix(0.08, 1, -1, 0.08, 1205.71, -760.48)"/><rect class="cls-11" x="915.13" y="196.75" width="15.25" height="310.26" transform="translate(-51.58 190.71) rotate(-11.48)"/><rect class="cls-11" x="1037.15" y="260.34" width="15.25" height="275.9" transform="translate(1549.21 1396.14) rotate(-137.69)"/><path class="cls-12" d="M937.29,209.66H880c-36.71,0-48.66-31.27-49.15-32.61A10.23,10.23,0,0,1,850,169.91a32.06,32.06,0,0,0,30,19.29h57.28a10.23,10.23,0,1,1,0,20.46Z"/><circle class="cls-7" cx="956.74" cy="491.64" r="23.53"/><path class="cls-13" d="M956.43,532.42a39.74,39.74,0,1,1,39.74-39.74A39.78,39.78,0,0,1,956.43,532.42Zm0-75.38a35.64,35.64,0,1,0,35.65,35.64A35.68,35.68,0,0,0,956.43,457Z"/><path class="cls-13" d="M952,532.16a2,2,0,0,1-.42,0L770.49,494.69a2,2,0,1,1,.83-4l181.11,37.42a2,2,0,0,1-.41,4Z"/><path class="cls-13" d="M956.39,457.15h0L776.82,457a2,2,0,0,1,0-4.09h0l179.57.1a2,2,0,0,1,0,4.09Z"/><circle class="cls-7" cx="776.82" cy="474.01" r="21.82"/><rect class="cls-7" x="939.23" y="504.44" width="8.91" height="55.92" transform="translate(1723.9 1284.23) rotate(-165.49)"/><rect class="cls-8" x="912.02" y="557.81" width="44.37" height="6.82" transform="translate(1868.42 1122.44) rotate(180)"/><path class="cls-11" d="M1201.18,469l-83-258.14,29.19.46-1.19-15.2-40.48-.64h-.75v0a6,6,0,0,0-5.09,8.15h0l86.89,270.22a7.76,7.76,0,1,0,14.45-4.87Z"/><path class="cls-12" d="M1167.44,284.66a10.23,10.23,0,0,1,0-20.46c25.81,0,40.46-2.86,46.11-9,4-4.4,5.25-12.36,4-26.61-.68-8.06-12-15-20.83-15h-50a10.23,10.23,0,0,1,0-20.46h50a45.8,45.8,0,0,1,25.83,8.57c9.1,6.47,14.56,15.39,15.39,25.14,1.22,14.48,1.07,30.82-9.37,42.18C1218.41,280.14,1200.69,284.66,1167.44,284.66Z"/><path class="cls-9" d="M1222.18,794q0-17.9,4.77-30.43t16.11-23.27q16.7-16.11,30.73-28T1298,689.89a116,116,0,0,0,15.81-19.69,36.56,36.56,0,0,0,5.67-19.39q0-19.69-12.23-30.73t-30.73-11q-28.05,0-42.66,15.51t-16.41,37.59l-91.88-6q6.56-63.23,46.54-96.36t102.62-33.11a174.22,174.22,0,0,1,51.61,7.46A127,127,0,0,1,1369,556.55a107.08,107.08,0,0,1,29.24,37q10.74,22.08,10.74,50.71a126.68,126.68,0,0,1-3.58,31.32,97.14,97.14,0,0,1-12.23,27.74,161.74,161.74,0,0,1-22.67,27.74,383.56,383.56,0,0,1-35.5,30.73q-13.73,10.74-18.5,20.88a47.22,47.22,0,0,0-4.77,20.29v17.3h-89.5ZM1212,908.56a55.85,55.85,0,0,1,4.18-21.48,52.76,52.76,0,0,1,29.24-29.24,57.33,57.33,0,0,1,43,0,52.76,52.76,0,0,1,29.24,29.24,57.32,57.32,0,0,1,0,43,52.76,52.76,0,0,1-29.24,29.24,57.32,57.32,0,0,1-43,0A52.76,52.76,0,0,1,1216.22,930,55.78,55.78,0,0,1,1212,908.56Z"/></svg>