<svg xmlns="http://www.w3.org/2000/svg" xmlns:xlink="http://www.w3.org/1999/xlink" viewBox="0 0 1920 1080"><defs><style>.cls-1{fill:none;}.cls-2{isolation:isolate;}.cls-3{fill:#64c8c3;}.cls-4{fill:#fff;}.cls-5{fill:#41b9b4;}.cls-6{fill:#00a499;}.cls-7{fill:#4187d7;opacity:0.6;mix-blend-mode:multiply;}.cls-8{fill:#500778;}.cls-9{fill:#8c5fa5;}.cls-10{fill:#733791;}.cls-11{clip-path:url(#clip-path);}.cls-12{fill:#e1e1e1;}.cls-13{fill:#898d8d;}.cls-14{fill:#b9b9b9;}.cls-15{fill:#e65a00;}.cls-16{fill:#ff6d00;}.cls-17{fill:#414042;}.cls-18{fill:#58595b;}.cls-19{fill:#ff9141;}</style><clipPath id="clip-path"><rect class="cls-1" x="543" y="199.83" width="325" height="322.29"/></clipPath></defs><title>ilustracoes_caixa_am5SVG</title><g class="cls-2"><g id="Layer_1" data-name="Layer 1"><polygon class="cls-3" points="960.9 256.5 469.99 539.93 469.99 610.79 960.9 894.21 1451.81 610.79 1451.81 539.93 960.9 256.5"/><polygon class="cls-4" points="518.43 639.28 543 653.54 534.38 662.91 514 647.54 518.43 639.28"/><polygon class="cls-4" points="1433.13 483.8 1405.84 513.81 1433.13 529.57 1439.13 499.8 1433.13 483.8"/><polygon class="cls-5" points="960 894.21 469.09 610.79 469.09 539.93 960 823.36 960 894.21"/><polygon class="cls-6" points="960 894.21 1450.91 610.79 1450.91 539.93 960 823.36 960 894.21"/><polygon class="cls-5" points="967.37 748.82 538.28 500.45 575.39 479.02 1003.86 727.04 967.37 748.82"/><polygon class="cls-5" points="1203.09 612.06 774.65 364.06 811.76 342.64 1240.23 590.66 1203.09 612.06"/><polygon class="cls-5" points="1099.25 671.05 673.49 421.56 682.88 416.13 1108.66 665.63 1099.25 671.05"/><polygon class="cls-5" points="718.04 577.95 949.94 443.24 942.46 438.83 710.53 573.61 718.04 577.95"/><path class="cls-7" d="M1221.75,416.13l-42.28,67.67-24.61-115.32-30.89,81-19.48-81-75-7.51,94.5-78h-52.5l5.33-46C1028.16,263.27,986,286.36,986,286.36V711.09L1221.75,577.7s.54-82.86.9-174.59Z"/><polygon class="cls-8" points="1203.94 569.43 1190.77 562.72 1190.77 181.36 1203.27 167.54 1203.94 569.43"/><polygon class="cls-8" points="967.58 748.19 954.22 741.48 954.22 268.58 967.58 275.91 967.58 748.19"/><polygon class="cls-9" points="954.22 268.58 967.58 275.91 1240.23 117.86 1227.05 111.14 954.22 268.58"/><polygon class="cls-9" points="983.53 681.39 996.89 688.72 1203.94 569.43 1190.77 562.72 983.53 681.39"/><polygon class="cls-10" points="967.58 748.19 967.58 705.5 1240.15 548.62 1240.08 590.67 967.58 748.19"/><polygon class="cls-10" points="967.58 519.16 967.58 506.65 1240.15 349.77 1240.08 361.64 967.58 519.16"/><polygon class="cls-10" points="1203.27 146.98 1240.23 147.34 1240.19 590.55 1203.83 610.8 1203.27 146.98"/><polygon class="cls-10" points="1098.72 202.56 1109.02 212.86 1108.98 656.07 1099.27 666.37 1098.72 202.56"/><polygon class="cls-10" points="967.58 318.61 967.58 275.91 1240.23 117.86 1240.15 159.91 967.58 318.61"/><polygon class="cls-10" points="967.67 275.91 1004.63 296.46 1003.78 718.13 967.42 738.37 967.67 275.91"/><g class="cls-11"><path class="cls-12" d="M778.42,406.22,661.61,289.41a5.08,5.08,0,0,0-7.18,0l-19.15,19.15a5.08,5.08,0,0,0,0,7.18L752.09,432.55a5.08,5.08,0,0,0,7.18,0l19.15-19.15a5.08,5.08,0,0,0,0-7.18Z"/><path class="cls-12" d="M678.84,245.36l-44-44a5.08,5.08,0,0,0-7.18,0l-19.15,19.15a5.08,5.08,0,0,0,0,7.18l32.79,32.79-34.95,34.95L573.52,262.6a5.08,5.08,0,0,0-7.18,0l-19.15,19.15a5.08,5.08,0,0,0,0,7.18l44,44a5.08,5.08,0,0,0,3.59,1.49l.46,0,42.13-3.83a5.08,5.08,0,0,0,3.13-1.47L675,294.67a5.08,5.08,0,0,0,1.47-3.13l3.83-42.13a5.08,5.08,0,0,0-1.47-4Z"/><path class="cls-4" d="M649.11,247.06a5.06,5.06,0,0,1-3.59-1.49L632,232a5.08,5.08,0,0,1,7.18-7.18l13.54,13.54a5.08,5.08,0,0,1-3.59,8.67Z"/><path class="cls-12" d="M866.51,433l-44-44a5.08,5.08,0,0,0-4.05-1.47l-42.13,3.83a5.07,5.07,0,0,0-3.13,1.47l-34.47,34.47a5.08,5.08,0,0,0-1.47,3.13l-3.83,42.13a5.08,5.08,0,0,0,1.47,4l44,44a5.08,5.08,0,0,0,7.18,0l19.15-19.15a5.08,5.08,0,0,0,0-7.18l-32.79-32.79,34.95-34.95,32.79,32.79a5.08,5.08,0,0,0,7.18,0l19.15-19.15a5.08,5.08,0,0,0,0-7.18Z"/></g><path class="cls-13" d="M645.18,298.66l-9.9,9.9a5.08,5.08,0,0,0,0,7.18L752.09,432.55a5.08,5.08,0,0,0,7.18,0l9.9-9.9-124-124Z"/><path class="cls-14" d="M624.12,277.59l-17.8,17.8L573.52,262.6a5.08,5.08,0,0,0-7.18,0l-19.15,19.15a5.08,5.08,0,0,0,0,7.18l44,44a5.08,5.08,0,0,0,3.59,1.49l.46,0,42.13-3.83a5.08,5.08,0,0,0,3.13-1.47l17.56-17.56-34-34Z"/><path class="cls-14" d="M738.69,427.28a5.08,5.08,0,0,0-1.47,3.13l-3.83,42.13a5.08,5.08,0,0,0,1.47,4l44,44a5.08,5.08,0,0,0,7.18,0l19.15-19.15a5.08,5.08,0,0,0,0-7.18l-32.79-32.79,17.8-17.8-34-34-17.56,17.56Z"/><path class="cls-12" d="M773.8,290.81l-15.32-15.32a5.08,5.08,0,0,0-7.18,0L649.81,377a5.08,5.08,0,0,0,0,7.18l15.32,15.32a5.08,5.08,0,0,0,7.18,0L773.8,298a5.08,5.08,0,0,0,0-7.18Z"/><path class="cls-12" d="M837,227.62,821.67,212.3a5.08,5.08,0,0,0-5.69-1l-42.13,19.15a5.06,5.06,0,0,0-1.49,1L739.81,264a5.08,5.08,0,0,0,0,7.18l38.3,38.3a5.08,5.08,0,0,0,7.18,0l32.55-32.55a5.07,5.07,0,0,0,1-1.49L838,233.31a5.07,5.07,0,0,0-1-5.69Z"/><path class="cls-15" d="M670.39,428.69,620.6,378.9a5.08,5.08,0,0,0-7.18,0l-59.36,59.36a5.08,5.08,0,0,0,0,7.18l49.79,49.79a5.08,5.08,0,0,0,7.18,0l59.36-59.36a5.08,5.08,0,0,0,0-7.18Z"/><path class="cls-16" d="M620.6,378.9a5.08,5.08,0,0,0-7.18,0l-59.36,59.36a5.08,5.08,0,0,0,0,7.18l24.68,24.69,66.54-66.54L620.6,378.9Z"/><polygon class="cls-17" points="641.9 400.2 649.09 407.38 582.54 473.92 575.36 466.74 641.9 400.2 641.9 400.2"/><polygon class="cls-17" points="655.31 413.6 662.49 420.79 597.86 485.41 590.68 478.23 655.31 413.6 655.31 413.6"/><polygon class="cls-18" points="628.5 386.8 635.68 393.98 571.06 458.61 563.88 451.43 628.5 386.8 628.5 386.8"/><polygon class="cls-18" points="575.36 466.74 641.9 400.2 645.28 403.58 578.74 470.12 575.36 466.74 575.36 466.74"/><path class="cls-13" d="M765.93,282.94,657.26,391.61l7.87,7.87a5.08,5.08,0,0,0,7.18,0L773.8,298a5.08,5.08,0,0,0,0-7.18l-7.87-7.87Z"/><g class="cls-11"><path class="cls-14" d="M829.12,219.75l-70.37,70.37,19.36,19.36a5.08,5.08,0,0,0,7.18,0l32.55-32.55a5.07,5.07,0,0,0,1-1.49L838,233.31a5.08,5.08,0,0,0-1-5.69l-7.87-7.87Z"/><path class="cls-16" d="M590.2,506.29a5.06,5.06,0,0,0,2.46-.64l17.23-9.57-56.69-56.69-9.57,17.23a5.08,5.08,0,0,0,.85,6.06l42.13,42.13a5.07,5.07,0,0,0,3.59,1.49Z"/><path class="cls-19" d="M553.21,439.39l-9.57,17.23a5.08,5.08,0,0,0,.85,6.06l20.86,20.86,16-16-28.14-28.14Z"/></g><path class="cls-16" d="M647.41,367.41a5.08,5.08,0,0,0-5.59-1.08L615,377.82l56.46,56.46L683,407.47a5.08,5.08,0,0,0-1.08-5.59l-34.47-34.47Z"/><path class="cls-19" d="M647.41,367.41a5.08,5.08,0,0,0-5.59-1.08L615,377.82l28,28,21.41-21.41-17-17Z"/><path class="cls-4" d="M767.43,273a5.08,5.08,0,0,1-3.59-8.67l16.25-16.25a5.08,5.08,0,0,1,7.18,7.18L771,271.49a5.06,5.06,0,0,1-3.59,1.49Z"/></g></g></svg>