<svg id="Layer_1" data-name="Layer 1" xmlns="http://www.w3.org/2000/svg" viewBox="0 0 1920 1080"><defs><style>.cls-1{fill:#733791;}.cls-2{fill:#500778;}.cls-3{fill:#400666;}.cls-4{fill:#ff9141;}.cls-5{fill:#00a499;}.cls-6{fill:#64c8c3;}.cls-7{fill:#420768;}.cls-8{fill:#ff6d00;}</style></defs><title>ilustracoes_caixa_am5SVG</title><polygon class="cls-1" points="960 256.5 469.09 539.93 469.09 610.79 960 894.21 1450.91 610.79 1450.91 539.93 960 256.5"/><polygon class="cls-2" points="960 894.21 469.09 610.79 469.09 539.93 960 823.36 960 894.21"/><polygon class="cls-3" points="960 894.21 1450.91 610.79 1450.91 539.93 960 823.36 960 894.21"/><polygon class="cls-1" points="975.46 688.44 713.87 537.41 713.87 310.86 975.46 461.89 975.46 688.44"/><polygon class="cls-2" points="1082.85 297.85 975.46 461.87 975.46 688.42 1171.66 575.14 1171.66 348.62 1082.85 297.85"/><polygon class="cls-4" points="696.03 337.41 811.91 140.92 1082.85 297.85 957.62 488.44 696.03 337.41"/><polygon class="cls-5" points="1040.82 650.68 1040.82 499.63 1106.26 461.89 1106.26 612.9 1040.82 650.68"/><polygon class="cls-6" points="877.36 480.63 877.36 556.15 942.76 593.9 942.76 518.39 877.36 480.63"/><polygon class="cls-6" points="746.81 405.25 746.81 480.77 812.21 518.53 812.21 443.01 746.81 405.25"/><polygon class="cls-1" points="889.44 369.61 889.44 293.66 841.81 266.16 841.81 342.11 889.44 369.61"/><polygon class="cls-2" points="937.07 266.62 889.44 293.66 889.44 369.61 937.07 297.2 937.07 266.62"/><polygon class="cls-7" points="841.81 266.16 889.44 293.66 937.07 266.62 889.32 238.73 841.81 266.16"/><polygon class="cls-4" points="1106.26 612.9 1040.82 650.68 1171.66 726.2 1215.59 675.92 1106.26 612.9"/><polygon class="cls-8" points="1150.16 784.51 1150.16 713.7 1215.59 675.92 1215.59 746.77 1150.16 784.51"/><path class="cls-6" d="M695.56,571.23a44.59,44.59,0,0,0-21.32-12.34,45.83,45.83,0,0,0-22.39.74,42.3,42.3,0,0,0-18.69,10.8,44.46,44.46,0,0,0-.81,62.73l84.86,86.95-11.6,11.33-84.86-87.22a60.26,60.26,0,0,1,1.35-85.33c8.16-8.23,18.42-12.68,29.21-15V361.51a44.79,44.79,0,1,0-89.58,0V677.4c0,10.32,4,19.76,10.25,27.46L727.74,910.4v73.29A497.21,497.21,0,0,0,881.6,1034.6V762Z"/><path class="cls-6" d="M1360.94,704.86c6.27-7.69,10.25-17.14,10.25-27.46V361.51a44.79,44.79,0,1,0-89.58,0V543.84c10.79,2.36,21,6.81,29.21,15a60.26,60.26,0,0,1,1.35,85.33l-84.86,87.22-11.6-11.33,84.86-86.95a44.71,44.71,0,0,0-.81-62.94,43.92,43.92,0,0,0-18.68-10.59,45.84,45.84,0,0,0-22.4-.74,44.59,44.59,0,0,0-21.32,12.34L1051.32,762v270.4a497.32,497.32,0,0,0,153.87-55.73V910.4Z"/></svg>