<svg id="Layer_1" data-name="Layer 1" xmlns="http://www.w3.org/2000/svg" xmlns:xlink="http://www.w3.org/1999/xlink" viewBox="0 0 1920 1080"><defs><style>.cls-1,.cls-2,.cls-3{fill:none;}.cls-2{clip-rule:evenodd;}.cls-3{fill-rule:evenodd;}.cls-4{fill:#4187d7;}.cls-5{fill:#005fc8;}.cls-6{fill:#0039ba;}.cls-7{fill:#500778;}.cls-8{fill:#e65a00;}.cls-9{fill:#41b9b4;}.cls-10{fill:#ff9141;}.cls-11{fill:#64c8c3;}.cls-12{fill:#733791;}.cls-13{fill:#ff6d00;}.cls-14{clip-path:url(#clip-path);}.cls-15{fill:#e1e1e1;}.cls-16{fill:#fff;}.cls-17{fill:#898d8d;}.cls-18{fill:#b9b9b9;}.cls-19{fill:#414042;}.cls-20{fill:#58595b;}.cls-21{clip-path:url(#clip-path-3);}.cls-22{clip-path:url(#clip-path-4);}.cls-23{clip-path:url(#clip-path-5);}.cls-24{clip-path:url(#clip-path-6);}.cls-25{clip-path:url(#clip-path-7);}.cls-26{clip-path:url(#clip-path-8);}.cls-27{clip-path:url(#clip-path-9);}.cls-28{clip-path:url(#clip-path-10);}.cls-29{clip-path:url(#clip-path-11);}.cls-30{clip-path:url(#clip-path-12);}.cls-31{clip-path:url(#clip-path-13);}.cls-32{clip-path:url(#clip-path-14);}.cls-33{clip-path:url(#clip-path-15);}.cls-34{clip-path:url(#clip-path-16);}.cls-35{clip-path:url(#clip-path-17);}.cls-36{clip-path:url(#clip-path-18);}.cls-37{clip-path:url(#clip-path-19);}.cls-38{clip-path:url(#clip-path-20);}.cls-39{clip-path:url(#clip-path-21);}.cls-40{clip-path:url(#clip-path-22);}.cls-41{clip-path:url(#clip-path-23);}.cls-42{clip-path:url(#clip-path-24);}.cls-43{clip-path:url(#clip-path-25);}.cls-44{clip-path:url(#clip-path-26);}.cls-45{clip-path:url(#clip-path-27);}.cls-46{clip-path:url(#clip-path-28);}.cls-47{clip-path:url(#clip-path-29);}.cls-48{clip-path:url(#clip-path-30);}.cls-49{clip-path:url(#clip-path-31);}.cls-50{clip-path:url(#clip-path-32);}.cls-51{clip-path:url(#clip-path-33);}.cls-52{clip-path:url(#clip-path-34);}.cls-53{clip-path:url(#clip-path-35);}.cls-54{clip-path:url(#clip-path-36);}.cls-55{clip-path:url(#clip-path-37);}.cls-56{clip-path:url(#clip-path-38);}.cls-57{clip-path:url(#clip-path-39);}.cls-58{clip-path:url(#clip-path-40);}.cls-59{clip-path:url(#clip-path-41);}.cls-60{clip-path:url(#clip-path-42);}.cls-61{clip-path:url(#clip-path-43);}.cls-62{clip-path:url(#clip-path-44);}.cls-63{clip-path:url(#clip-path-45);}.cls-64{clip-path:url(#clip-path-46);}.cls-65{clip-path:url(#clip-path-47);}.cls-66{clip-path:url(#clip-path-48);}.cls-67{clip-path:url(#clip-path-49);}.cls-68{clip-path:url(#clip-path-50);}.cls-69{clip-path:url(#clip-path-51);}.cls-70{clip-path:url(#clip-path-52);}.cls-71{clip-path:url(#clip-path-53);}.cls-72{clip-path:url(#clip-path-54);}.cls-73{clip-path:url(#clip-path-55);}.cls-74{clip-path:url(#clip-path-56);}.cls-75{clip-path:url(#clip-path-57);}.cls-76{clip-path:url(#clip-path-58);}.cls-77{clip-path:url(#clip-path-59);}.cls-78{clip-path:url(#clip-path-60);}.cls-79{clip-path:url(#clip-path-61);}.cls-80{clip-path:url(#clip-path-62);}.cls-81{clip-path:url(#clip-path-63);}.cls-82{clip-path:url(#clip-path-64);}.cls-83{clip-path:url(#clip-path-65);}.cls-84{clip-path:url(#clip-path-66);}.cls-85{clip-path:url(#clip-path-67);}.cls-86{clip-path:url(#clip-path-68);}.cls-87{clip-path:url(#clip-path-69);}.cls-88{clip-path:url(#clip-path-70);}.cls-89{clip-path:url(#clip-path-71);}.cls-90{clip-path:url(#clip-path-72);}.cls-91{clip-path:url(#clip-path-73);}.cls-92{clip-path:url(#clip-path-74);}.cls-93{clip-path:url(#clip-path-75);}.cls-94{clip-path:url(#clip-path-76);}.cls-95{clip-path:url(#clip-path-77);}.cls-96{clip-path:url(#clip-path-78);}.cls-97{clip-path:url(#clip-path-79);}.cls-98{clip-path:url(#clip-path-80);}.cls-99{clip-path:url(#clip-path-81);}.cls-100{clip-path:url(#clip-path-82);}.cls-101{clip-path:url(#clip-path-83);}.cls-102{clip-path:url(#clip-path-84);}.cls-103{clip-path:url(#clip-path-85);}.cls-104{clip-path:url(#clip-path-86);}.cls-105{clip-path:url(#clip-path-87);}.cls-106{clip-path:url(#clip-path-88);}.cls-107{clip-path:url(#clip-path-89);}.cls-108{clip-path:url(#clip-path-90);}.cls-109{clip-path:url(#clip-path-91);}.cls-110{clip-path:url(#clip-path-92);}.cls-111{clip-path:url(#clip-path-93);}.cls-112{clip-path:url(#clip-path-94);}.cls-113{clip-path:url(#clip-path-95);}.cls-114{clip-path:url(#clip-path-96);}.cls-115{clip-path:url(#clip-path-97);}.cls-116{clip-path:url(#clip-path-98);}.cls-117{clip-path:url(#clip-path-99);}.cls-118{clip-path:url(#clip-path-100);}.cls-119{clip-path:url(#clip-path-101);}.cls-120{clip-path:url(#clip-path-102);}.cls-121{clip-path:url(#clip-path-103);}.cls-122{clip-path:url(#clip-path-104);}.cls-123{clip-path:url(#clip-path-105);}.cls-124{clip-path:url(#clip-path-106);}.cls-125{clip-path:url(#clip-path-107);}.cls-126{clip-path:url(#clip-path-108);}.cls-127{clip-path:url(#clip-path-109);}.cls-128{clip-path:url(#clip-path-110);}.cls-129{clip-path:url(#clip-path-111);}.cls-130{clip-path:url(#clip-path-112);}.cls-131{clip-path:url(#clip-path-113);}.cls-132{clip-path:url(#clip-path-114);}.cls-133{clip-path:url(#clip-path-115);}.cls-134{clip-path:url(#clip-path-116);}.cls-135{clip-path:url(#clip-path-117);}.cls-136{clip-path:url(#clip-path-118);}.cls-137{clip-path:url(#clip-path-119);}.cls-138{clip-path:url(#clip-path-120);}.cls-139{clip-path:url(#clip-path-121);}.cls-140{clip-path:url(#clip-path-122);}.cls-141{clip-path:url(#clip-path-123);}.cls-142{clip-path:url(#clip-path-124);}.cls-143{clip-path:url(#clip-path-125);}.cls-144{clip-path:url(#clip-path-126);}.cls-145{clip-path:url(#clip-path-127);}.cls-146{clip-path:url(#clip-path-128);}.cls-147{clip-path:url(#clip-path-129);}.cls-148{clip-path:url(#clip-path-130);}.cls-149{clip-path:url(#clip-path-131);}.cls-150{clip-path:url(#clip-path-132);}.cls-151{clip-path:url(#clip-path-133);}.cls-152{clip-path:url(#clip-path-134);}.cls-153{clip-path:url(#clip-path-135);}.cls-154{clip-path:url(#clip-path-136);}.cls-155{clip-path:url(#clip-path-137);}.cls-156{clip-path:url(#clip-path-138);}.cls-157{clip-path:url(#clip-path-139);}.cls-158{clip-path:url(#clip-path-140);}.cls-159{clip-path:url(#clip-path-141);}.cls-160{clip-path:url(#clip-path-142);}.cls-161{clip-path:url(#clip-path-143);}.cls-162{clip-path:url(#clip-path-144);}.cls-163{clip-path:url(#clip-path-145);}.cls-164{clip-path:url(#clip-path-146);}.cls-165{clip-path:url(#clip-path-147);}.cls-166{clip-path:url(#clip-path-148);}.cls-167{clip-path:url(#clip-path-149);}.cls-168{clip-path:url(#clip-path-150);}.cls-169{clip-path:url(#clip-path-151);}.cls-170{clip-path:url(#clip-path-152);}.cls-171{clip-path:url(#clip-path-153);}.cls-172{clip-path:url(#clip-path-154);}.cls-173{clip-path:url(#clip-path-155);}.cls-174{clip-path:url(#clip-path-156);}.cls-175{clip-path:url(#clip-path-157);}.cls-176{clip-path:url(#clip-path-158);}.cls-177{clip-path:url(#clip-path-159);}.cls-178{clip-path:url(#clip-path-160);}.cls-179{clip-path:url(#clip-path-161);}.cls-180{clip-path:url(#clip-path-162);}.cls-181{clip-path:url(#clip-path-163);}.cls-182{clip-path:url(#clip-path-164);}.cls-183{clip-path:url(#clip-path-165);}.cls-184{clip-path:url(#clip-path-166);}.cls-185{clip-path:url(#clip-path-167);}.cls-186{clip-path:url(#clip-path-168);}.cls-187{clip-path:url(#clip-path-169);}.cls-188{clip-path:url(#clip-path-170);}.cls-189{clip-path:url(#clip-path-171);}.cls-190{clip-path:url(#clip-path-172);}.cls-191{clip-path:url(#clip-path-173);}.cls-192{clip-path:url(#clip-path-174);}.cls-193{clip-path:url(#clip-path-175);}.cls-194{clip-path:url(#clip-path-176);}.cls-195{clip-path:url(#clip-path-177);}.cls-196{clip-path:url(#clip-path-178);}.cls-197{clip-path:url(#clip-path-179);}.cls-198{clip-path:url(#clip-path-180);}.cls-199{clip-path:url(#clip-path-181);}.cls-200{clip-path:url(#clip-path-182);}.cls-201{clip-path:url(#clip-path-183);}.cls-202{clip-path:url(#clip-path-184);}.cls-203{clip-path:url(#clip-path-185);}.cls-204{clip-path:url(#clip-path-186);}.cls-205{clip-path:url(#clip-path-187);}.cls-206{clip-path:url(#clip-path-188);}.cls-207{clip-path:url(#clip-path-189);}.cls-208{clip-path:url(#clip-path-190);}.cls-209{clip-path:url(#clip-path-191);}.cls-210{clip-path:url(#clip-path-192);}.cls-211{clip-path:url(#clip-path-193);}.cls-212{clip-path:url(#clip-path-194);}.cls-213{clip-path:url(#clip-path-195);}.cls-214{clip-path:url(#clip-path-196);}.cls-215{clip-path:url(#clip-path-197);}.cls-216{clip-path:url(#clip-path-198);}.cls-217{clip-path:url(#clip-path-199);}.cls-218{clip-path:url(#clip-path-200);}.cls-219{clip-path:url(#clip-path-201);}.cls-220{clip-path:url(#clip-path-202);}.cls-221{clip-path:url(#clip-path-203);}.cls-222{clip-path:url(#clip-path-204);}.cls-223{clip-path:url(#clip-path-205);}.cls-224{clip-path:url(#clip-path-206);}.cls-225{clip-path:url(#clip-path-207);}.cls-226{clip-path:url(#clip-path-208);}.cls-227{clip-path:url(#clip-path-209);}.cls-228{clip-path:url(#clip-path-210);}.cls-229{clip-path:url(#clip-path-211);}.cls-230{clip-path:url(#clip-path-212);}.cls-231{clip-path:url(#clip-path-213);}.cls-232{clip-path:url(#clip-path-214);}.cls-233{clip-path:url(#clip-path-215);}.cls-234{clip-path:url(#clip-path-216);}.cls-235{clip-path:url(#clip-path-217);}.cls-236{clip-path:url(#clip-path-218);}.cls-237{clip-path:url(#clip-path-219);}.cls-238{clip-path:url(#clip-path-220);}.cls-239{clip-path:url(#clip-path-221);}.cls-240{clip-path:url(#clip-path-222);}.cls-241{clip-path:url(#clip-path-223);}.cls-242{clip-path:url(#clip-path-224);}.cls-243{clip-path:url(#clip-path-225);}.cls-244{clip-path:url(#clip-path-226);}.cls-245{clip-path:url(#clip-path-227);}.cls-246{clip-path:url(#clip-path-228);}.cls-247{clip-path:url(#clip-path-229);}.cls-248{clip-path:url(#clip-path-230);}.cls-249{clip-path:url(#clip-path-231);}.cls-250{clip-path:url(#clip-path-232);}.cls-251{clip-path:url(#clip-path-233);}.cls-252{clip-path:url(#clip-path-234);}.cls-253{clip-path:url(#clip-path-235);}.cls-254{clip-path:url(#clip-path-236);}.cls-255{clip-path:url(#clip-path-237);}.cls-256{clip-path:url(#clip-path-238);}.cls-257{clip-path:url(#clip-path-239);}.cls-258{clip-path:url(#clip-path-240);}.cls-259{clip-path:url(#clip-path-241);}.cls-260{clip-path:url(#clip-path-242);}.cls-261{clip-path:url(#clip-path-243);}.cls-262{clip-path:url(#clip-path-244);}.cls-263{clip-path:url(#clip-path-245);}.cls-264{clip-path:url(#clip-path-246);}.cls-265{clip-path:url(#clip-path-247);}.cls-266{clip-path:url(#clip-path-248);}.cls-267{clip-path:url(#clip-path-249);}.cls-268{clip-path:url(#clip-path-250);}.cls-269{clip-path:url(#clip-path-251);}.cls-270{clip-path:url(#clip-path-252);}.cls-271{clip-path:url(#clip-path-253);}.cls-272{clip-path:url(#clip-path-254);}.cls-273{clip-path:url(#clip-path-255);}.cls-274{clip-path:url(#clip-path-256);}.cls-275{clip-path:url(#clip-path-257);}.cls-276{clip-path:url(#clip-path-258);}.cls-277{clip-path:url(#clip-path-259);}.cls-278{clip-path:url(#clip-path-260);}.cls-279{clip-path:url(#clip-path-261);}.cls-280{clip-path:url(#clip-path-262);}.cls-281{clip-path:url(#clip-path-263);}.cls-282{clip-path:url(#clip-path-264);}.cls-283{clip-path:url(#clip-path-265);}.cls-284{clip-path:url(#clip-path-266);}.cls-285{clip-path:url(#clip-path-267);}.cls-286{clip-path:url(#clip-path-268);}.cls-287{clip-path:url(#clip-path-269);}.cls-288{clip-path:url(#clip-path-270);}.cls-289{clip-path:url(#clip-path-271);}.cls-290{clip-path:url(#clip-path-272);}.cls-291{clip-path:url(#clip-path-273);}.cls-292{clip-path:url(#clip-path-292);}.cls-293{clip-path:url(#clip-path-293);}.cls-294{clip-path:url(#clip-path-294);}.cls-295{clip-path:url(#clip-path-295);}.cls-296{clip-path:url(#clip-path-296);}.cls-297{clip-path:url(#clip-path-297);}.cls-298{clip-path:url(#clip-path-298);}.cls-299{clip-path:url(#clip-path-299);}.cls-300{clip-path:url(#clip-path-300);}.cls-301{clip-path:url(#clip-path-301);}.cls-302{clip-path:url(#clip-path-302);}.cls-303{clip-path:url(#clip-path-303);}.cls-304{clip-path:url(#clip-path-304);}.cls-305{clip-path:url(#clip-path-305);}.cls-306{clip-path:url(#clip-path-306);}.cls-307{clip-path:url(#clip-path-307);}.cls-308{clip-path:url(#clip-path-308);}.cls-309{clip-path:url(#clip-path-309);}.cls-310{clip-path:url(#clip-path-310);}.cls-311{clip-path:url(#clip-path-311);}.cls-312{clip-path:url(#clip-path-312);}.cls-313{clip-path:url(#clip-path-313);}.cls-314{clip-path:url(#clip-path-314);}.cls-315{clip-path:url(#clip-path-315);}.cls-316{clip-path:url(#clip-path-316);}.cls-317{clip-path:url(#clip-path-317);}.cls-318{clip-path:url(#clip-path-318);}.cls-319{clip-path:url(#clip-path-319);}.cls-320{clip-path:url(#clip-path-320);}.cls-321{clip-path:url(#clip-path-321);}.cls-322{clip-path:url(#clip-path-322);}.cls-323{clip-path:url(#clip-path-323);}.cls-324{clip-path:url(#clip-path-324);}.cls-325{clip-path:url(#clip-path-325);}.cls-326{clip-path:url(#clip-path-326);}.cls-327{clip-path:url(#clip-path-327);}.cls-328{clip-path:url(#clip-path-328);}</style><clipPath id="clip-path"><rect class="cls-1" x="574.78" y="555.93" width="325" height="322.29"/></clipPath><clipPath id="clip-path-3"><polygon class="cls-2" points="2752.91 540.53 2752.91 611.53 3244.78 895.51 3736.65 611.53 3736.65 540.53 3244.78 256.55 2752.91 540.53"/></clipPath><clipPath id="clip-path-4"><polygon class="cls-2" points="3244.78 895.51 2752.91 611.53 2752.91 540.53 3244.78 824.51 3244.78 895.51"/></clipPath><clipPath id="clip-path-5"><polygon class="cls-2" points="3490.72 895.51 3736.65 895.51 3736.65 540.53 3244.78 540.53 3244.78 895.51 3490.72 895.51"/></clipPath><clipPath id="clip-path-6"><polygon class="cls-2" points="3306.27 647.02 3060.33 505.03 3060.33 292.05 3306.27 434.04 3306.27 647.02"/></clipPath><clipPath id="clip-path-7"><polygon class="cls-2" points="3407.22 279.82 3306.27 434.02 3306.27 647 3490.72 540.51 3490.72 327.55 3407.22 279.82"/></clipPath><clipPath id="clip-path-8"><polygon class="cls-2" points="3043.56 317.01 3152.5 132.28 3407.22 279.82 3289.49 459 3043.56 317.01"/></clipPath><clipPath id="clip-path-9"><polygon class="cls-2" points="3367.71 611.53 3367.71 469.52 3429.23 434.04 3429.23 576.01 3367.71 611.53"/></clipPath><clipPath id="clip-path-10"><polygon class="cls-2" points="3214.04 451.66 3214.04 522.65 3275.52 558.15 3275.52 487.15 3214.04 451.66"/></clipPath><clipPath id="clip-path-11"><polygon class="cls-2" points="3091.3 380.79 3091.3 451.79 3152.78 487.29 3152.78 416.29 3091.3 380.79"/></clipPath><clipPath id="clip-path-12"><rect class="cls-1" x="2752.91" y="67.86" width="983.74" height="827.65"/></clipPath><clipPath id="clip-path-13"><path class="cls-2" d="M3009.49,577.31H2840.3S2815.08,691,2872.83,791.22h21.57s-98.92-175.77,30.49-175.77,30.49,175.77,30.49,175.77H2977c57.74-100.26,32.53-213.91,32.53-213.91"/></clipPath><clipPath id="clip-path-14"><path class="cls-2" d="M2987.29,375.07h-.19a99.33,99.33,0,0,0-93.91,67l.47-.1a99.32,99.32,0,0,1,93.63-66.92"/></clipPath><clipPath id="clip-path-15"><path class="cls-2" d="M2991.37,375.17c.91,0,1.82,0,2.73.07-.9,0-1.82,0-2.73-.07"/></clipPath><clipPath id="clip-path-16"><path class="cls-2" d="M2987.35,399.69a27.82,27.82,0,0,1,3.41.25,28,28,0,0,0-3.21-.27l-.2,0"/></clipPath><clipPath id="clip-path-17"><path class="cls-2" d="M2987.54,375.07h-.24a33.32,33.32,0,0,1,4.08.32,32.85,32.85,0,0,0-3.83-.33"/></clipPath><clipPath id="clip-path-18"><path class="cls-2" d="M2991.91,399.8c-.46,0-.93,0-1.4,0l1.4,0"/></clipPath><clipPath id="clip-path-19"><path class="cls-2" d="M2923,436.09,2893.66,442l0,.09,29.79-6a74.73,74.73,0,0,1,63.93-36.41h-.25A74.74,74.74,0,0,0,2923,436.09"/></clipPath><clipPath id="clip-path-20"><path class="cls-2" d="M3030.07,384.62a98.8,98.8,0,0,0-37.81-9.42,98.76,98.76,0,0,1,37.74,9.59Z"/></clipPath><clipPath id="clip-path-21"><path class="cls-2" d="M3030,384.79a98.76,98.76,0,0,0-37.74-9.59l-.89,0c-1.35-.06-2.71-.1-4.08-.1A99.32,99.32,0,0,0,2893.66,442l29.32-5.91a74.73,74.73,0,0,1,64.12-36.42h.44c1,0,2,0,3,.09h.46a74.21,74.21,0,0,1,29.42,7.53Z"/></clipPath><clipPath id="clip-path-22"><path class="cls-2" d="M2863,375.07a98.91,98.91,0,0,0-42.54,9.56l9.68,22.68a74.62,74.62,0,0,1,97,28.79l29.79,6a99.33,99.33,0,0,0-93.91-67"/></clipPath><clipPath id="clip-path-23"><path class="cls-2" d="M2763.7,474.38a99.29,99.29,0,0,0,54.62,88.68l8-23.65a74.66,74.66,0,0,1,3.85-132.11l-9.68-22.68a99.31,99.31,0,0,0-56.78,89.75"/></clipPath><clipPath id="clip-path-24"><path class="cls-2" d="M2840.44,301.13s2.22,38.32,19.87,51l-2.85-24.47Z"/></clipPath><clipPath id="clip-path-25"><path class="cls-2" d="M3010.35,301.13s-2.22,38.32-19.87,51l2.85-24.47Z"/></clipPath><clipPath id="clip-path-26"><path class="cls-2" d="M2925.39,390.23l-38.65-21.75S2848.47,505,2840.3,577.31h85.09Z"/></clipPath><clipPath id="clip-path-27"><path class="cls-2" d="M2924.89,390.23l38.65-21.75S3001.82,505,3010,577.31h-85.09Z"/></clipPath><clipPath id="clip-path-28"><path class="cls-2" d="M2925.39,384.88h-30.18s13.48,30.31,30.18,34c16.69-3.64,30.18-34,30.18-34Z"/></clipPath><clipPath id="clip-path-29"><path class="cls-2" d="M2925.39,363.71l-30.18,21.17s15.89,20.64,30.18,20.64c4.39,0,19.7-6.63,30.18-20.64Z"/></clipPath><clipPath id="clip-path-30"><path class="cls-2" d="M2859.55,301.13a13.52,13.52,0,1,0,0,19.12,13.52,13.52,0,0,0,0-19.12"/></clipPath><clipPath id="clip-path-31"><path class="cls-2" d="M3010.35,301.13a13.52,13.52,0,1,0,0,19.12,13.52,13.52,0,0,0,0-19.12"/></clipPath><clipPath id="clip-path-32"><path class="cls-2" d="M2940.71,390.25c20.92-7.23,42.66-17.84,52.7-37.56,6.94-13.63,7.19-29.55,7.34-44.85.1-11,.2-22.2-1.46-33a80.56,80.56,0,0,0-3.84-15.41c-6.89-18.91-22.48-34.29-41.22-41.65a77,77,0,0,0-28.82-5.19L2912,329.15l13.38,64.31c.34,0,.67,0,1,0,4.91-.12,9.66-1.64,14.3-3.24"/></clipPath><clipPath id="clip-path-33"><path class="cls-2" d="M2895.69,218.61c-14,5.73-26.6,15.54-34.29,28.58-10.39,17.64-11.08,39.16-11,59.63.08,18.65.89,39.38,12.92,54.71s33.42,25.37,51.74,30.22a44.49,44.49,0,0,0,10.74,1.71l-5.47-65.8,16-5.47L2925.8,212.58a81.81,81.81,0,0,0-30.11,6"/></clipPath><clipPath id="clip-path-34"><path class="cls-2" d="M2903.9,291.57a5.68,5.68,0,1,0-5.68,5.68,5.68,5.68,0,0,0,5.68-5.68"/></clipPath><clipPath id="clip-path-35"><path class="cls-2" d="M2960.58,291.57a5.68,5.68,0,1,0-5.68,5.68,5.68,5.68,0,0,0,5.68-5.68"/></clipPath><clipPath id="clip-path-36"><path class="cls-2" d="M2979.67,317c0,3.49-5.59,6.32-12.5,6.32s-12.5-2.83-12.5-6.32,5.6-6.32,12.5-6.32,12.5,2.83,12.5,6.32"/></clipPath><clipPath id="clip-path-37"><path class="cls-2" d="M2873.84,317c0,3.49,5.59,6.32,12.5,6.32s12.5-2.83,12.5-6.32-5.59-6.32-12.5-6.32-12.5,2.83-12.5,6.32"/></clipPath><clipPath id="clip-path-38"><polygon class="cls-2" points="2919.93 327.63 2942.42 327.63 2935.93 322.2 2919.93 327.63"/></clipPath><clipPath id="clip-path-39"><path class="cls-2" d="M2992.31,539.41h31.5l8,23.65c-7,12.09-22,14.25-22,14.25l-4.23-29.07h-12.82a4.29,4.29,0,0,1-.45,0,4.44,4.44,0,1,1,0-8.88"/></clipPath><clipPath id="clip-path-40"><path class="cls-2" d="M2959,202.06v.63c-1.4,2.61-14.12,25.71-31.09,38.37-6.36,4.74-13.31,8-20.49,8.19h43c5.45.12,8.6,2.1,10.92,4.58,4.22,4.53,5.6,10.79,12.66,10.79a14.59,14.59,0,0,1,10.18,3.57c4.72,4.25,5.2,10.78,5.2,10.78v31.72h11.8q0-1.94,0-3.86c0-3.18,0-6.38-.06-9.59a13.44,13.44,0,0,1,7.64,2.65l1.52,1.24s0,0,0,0l.19.23a272.17,272.17,0,0,0,1.88-29.41c0-34.92-22.12-60-53.41-69.85"/></clipPath><clipPath id="clip-path-41"><path class="cls-2" d="M2939.56,196.27a138.83,138.83,0,0,0-14.46,0c-2.54.13-5.09.32-7.62.6a103.49,103.49,0,0,0-11,1.79c-.34.08-1.08.36-1.84.61l-1.94.36h0a94.45,94.45,0,0,0-16.26,4.67c-28.22,11-47.71,35.09-47.66,67.84,0,6.94.65,19.13,1.67,27.6,0,.48,0,.92,0,1.4l.15-.12c0,.17,0,.37.06.53.12-.13.21-.28.34-.41a13.29,13.29,0,0,1,8.26-3.8c.41,0,.81-.09,1.22-.07-.06,3.2-.07,6.4-.06,9.57q0,1.92,0,3.86h11.8V279a19.1,19.1,0,0,1,2.08-6.74l2.46-3.38.06-.08c2.29-2.34,5.72-3.53,10.78-4.16s7-6.29,11.45-10.56a16.9,16.9,0,0,1,12.13-4.82s27,.1,30.85,0c38.27-.86,53.1-26.93,58.85-41.24,1.28-3.18,2.11-5.79,2.64-7.4a30.72,30.72,0,0,0,1-4.32Z"/></clipPath><clipPath id="clip-path-42"><path class="cls-2" d="M2989.36,310.69c0,22.32-40.76,22.93-58.52,22.13h-10.08c-17.76.79-58.52.18-58.52-22.13h-11.8c.21,17.61,1.68,36.57,12.89,50.84,11.95,15.23,33.42,25.37,51.74,30.22a34.48,34.48,0,0,0,21.48,0c18.31-4.86,39.79-15,51.74-30.22,11.2-14.27,12.67-33.24,12.89-50.84h-11.8Z"/></clipPath><clipPath id="clip-path-43"><path class="cls-2" d="M2925.39,376.41a34.8,34.8,0,0,0,34.8-34.8H2890.6a34.8,34.8,0,0,0,34.8,34.8"/></clipPath><clipPath id="clip-path-44"><path class="cls-2" d="M3030,384.79l-9.61,22.51a74.21,74.21,0,0,0-29.42-7.53,74.68,74.68,0,0,1,32.83,139.64l8,23.65A99.32,99.32,0,0,0,3030,384.79"/></clipPath><clipPath id="clip-path-45"><path class="cls-2" d="M2902.71,309.37a1.7,1.7,0,1,0-1.71,1.7,1.7,1.7,0,0,0,1.71-1.7"/></clipPath><clipPath id="clip-path-46"><path class="cls-2" d="M2889,303.9a1.7,1.7,0,1,0-1.7,1.7,1.7,1.7,0,0,0,1.7-1.7"/></clipPath><clipPath id="clip-path-47"><path class="cls-2" d="M2913.65,303.9a1.7,1.7,0,1,0-1.7,1.7,1.7,1.7,0,0,0,1.7-1.7"/></clipPath><clipPath id="clip-path-48"><path class="cls-2" d="M2891.78,312.1a1.7,1.7,0,1,0-1.71,1.7,1.71,1.71,0,0,0,1.71-1.7"/></clipPath><clipPath id="clip-path-49"><path class="cls-2" d="M2883.57,317.57a1.7,1.7,0,1,0-1.71,1.7,1.71,1.71,0,0,0,1.71-1.7"/></clipPath><clipPath id="clip-path-50"><path class="cls-2" d="M2908.18,317.57a1.7,1.7,0,1,0-1.7,1.7,1.71,1.71,0,0,0,1.7-1.7"/></clipPath><clipPath id="clip-path-51"><path class="cls-2" d="M2954.61,309.37a1.7,1.7,0,1,1,1.7,1.7,1.7,1.7,0,0,1-1.7-1.7"/></clipPath><clipPath id="clip-path-52"><path class="cls-2" d="M2968.28,303.9a1.7,1.7,0,1,1,1.7,1.7,1.7,1.7,0,0,1-1.7-1.7"/></clipPath><clipPath id="clip-path-53"><path class="cls-2" d="M2943.68,303.9a1.7,1.7,0,1,1,1.7,1.7,1.7,1.7,0,0,1-1.7-1.7"/></clipPath><clipPath id="clip-path-54"><path class="cls-2" d="M2965.55,312.1a1.7,1.7,0,1,1,1.71,1.7,1.71,1.71,0,0,1-1.71-1.7"/></clipPath><clipPath id="clip-path-55"><path class="cls-2" d="M2973.75,317.57a1.7,1.7,0,1,1,1.7,1.7,1.71,1.71,0,0,1-1.7-1.7"/></clipPath><clipPath id="clip-path-56"><path class="cls-2" d="M2949.14,317.57a1.7,1.7,0,1,1,1.7,1.7,1.71,1.71,0,0,1-1.7-1.7"/></clipPath><clipPath id="clip-path-57"><path class="cls-2" d="M2840.3,577.31S2815.08,691,2872.83,791.22h21.57s-98.92-175.77,30.49-175.77V577.31Z"/></clipPath><clipPath id="clip-path-58"><path class="cls-2" d="M3009.49,577.31S3034.71,691,2977,791.22h-21.57s98.92-175.77-30.49-175.77V577.31Z"/></clipPath><clipPath id="clip-path-59"><path class="cls-2" d="M2900.38,794.17a7.84,7.84,0,0,0-6.13-2.95h-21.42s-13.76,6.2-21.08-1.82a10.79,10.79,0,1,0-8.43,17.52h50.92a7.85,7.85,0,0,0,6.13-12.76"/></clipPath><clipPath id="clip-path-60"><path class="cls-2" d="M2949.42,794.17a7.84,7.84,0,0,1,6.13-2.95H2977s13.76,6.2,21.08-1.82a10.79,10.79,0,1,1,8.43,17.52h-50.92a7.85,7.85,0,0,1-6.13-12.76"/></clipPath><clipPath id="clip-path-61"><path class="cls-2" d="M2857.8,539.41h-31.5l-8,23.65c7,12.09,22,14.25,22,14.25l4.23-29.07h12.82a4.29,4.29,0,0,0,.45,0,4.44,4.44,0,1,0,0-8.88"/></clipPath><clipPath id="clip-path-62"><rect class="cls-1" x="3527.65" y="228.03" width="92.62" height="181.23"/></clipPath><clipPath id="clip-path-63"><rect class="cls-1" x="3616.32" y="228.03" width="92.6" height="181.28"/></clipPath><clipPath id="clip-path-64"><path class="cls-2" d="M3696.53,590.62H3539.84S3516.49,695.88,3570,788.73h20S3498.34,626,3618.19,626s28.24,162.78,28.24,162.78h20c53.48-92.85,30.12-198.11,30.12-198.11"/></clipPath><clipPath id="clip-path-65"><path class="cls-2" d="M3539.84,590.62S3516.49,695.88,3570,788.73h20S3498.34,626,3618.19,626V590.62Z"/></clipPath><clipPath id="clip-path-66"><path class="cls-2" d="M3696.53,590.62s23.35,105.26-30.12,198.11h-20S3738,626,3618.19,626V590.62Z"/></clipPath><clipPath id="clip-path-67"><path class="cls-2" d="M3595.48,791.46a7.26,7.26,0,0,0-5.68-2.73H3570s-12.75,5.74-19.52-1.68a10,10,0,1,0-7.8,16.23h47.16a7.27,7.27,0,0,0,5.68-11.81"/></clipPath><clipPath id="clip-path-68"><path class="cls-2" d="M3640.9,791.46a7.26,7.26,0,0,1,5.68-2.73h19.83s12.75,5.74,19.52-1.68a10,10,0,1,1,7.8,16.23h-47.16a7.27,7.27,0,0,1-5.68-11.81"/></clipPath><clipPath id="clip-path-69"><path class="cls-2" d="M3708.92,318.67A90.64,90.64,0,0,0,3618.28,228c-.66,0-1.31,0-2,0l-23.15,76.29,23.15,104.88c.66,0,1.3.05,2,.05a90.64,90.64,0,0,0,90.64-90.64"/></clipPath><clipPath id="clip-path-70"><path class="cls-2" d="M3528.61,331.91s4.49,54.11-27.67,61.4c0,0,29.88,43.12,97.48,19.56l-9.73-45.54Z"/></clipPath><clipPath id="clip-path-71"><path class="cls-2" d="M3707.83,331.91s-4.49,54.11,27.67,61.4c0,0-29.88,43.12-97.48,19.56l9.73-45.54Z"/></clipPath><clipPath id="clip-path-72"><path class="cls-2" d="M3469.41,485.91a92.94,92.94,0,0,0-.51,9.62,91.72,91.72,0,0,0,50.46,81.92l7.37-21.85a68.84,68.84,0,0,1-34.42-69.7Z"/></clipPath><clipPath id="clip-path-73"><path class="cls-2" d="M3585.23,407.14l-4.67,22.35a69.32,69.32,0,0,1,39.32,30.68l27.52,5.54a91.94,91.94,0,0,0-62.17-58.57"/></clipPath><clipPath id="clip-path-74"><path class="cls-2" d="M3560.65,403.79a91.75,91.75,0,0,0-91.24,82.12h22.91a68.9,68.9,0,0,1,88.24-56.42l4.67-22.35a91.75,91.75,0,0,0-24.58-3.35"/></clipPath><clipPath id="clip-path-75"><path class="cls-2" d="M3617.82,417.8l35.7-20.09s35.36,126.1,42.91,192.91h-78.61Z"/></clipPath><clipPath id="clip-path-76"><path class="cls-2" d="M3626.49,429.06A91.59,91.59,0,0,0,3611,453.73L3629.24,470a68.6,68.6,0,0,1,14.58-26.23l.47-.5-20.66-3.65Z"/></clipPath><clipPath id="clip-path-77"><path class="cls-2" d="M3739.47,406.73c-19.21-4.62-37.7-10.82-57.76-7.81a91.36,91.36,0,0,0-54.88,29.74l-.34.4-2.87,10.55,20.66,3.65a69.49,69.49,0,0,1,54.47-22.54c22.68,1.09,42.46,12.24,65.86,8.73a91.79,91.79,0,0,0,26.05-8l-10.57-20.21a69.51,69.51,0,0,1-40.63,5.48"/></clipPath><clipPath id="clip-path-78"><path class="cls-2" d="M3618.28,417.8l-35.7-20.09s-35.36,126.1-42.91,192.91h78.61Z"/></clipPath><clipPath id="clip-path-79"><path class="cls-2" d="M3590.41,412.87h6.33l-8-11.71-19.57,13.92,22.73,14-3.16,23L3618.28,530V444.24c-15.42-3.37-27.88-31.37-27.88-31.37"/></clipPath><clipPath id="clip-path-80"><path class="cls-2" d="M3646.16,412.87h-6.33l8-11.71,19.57,13.92-22.73,14,3.16,23L3618.28,530V444.24c15.42-3.37,27.88-31.37,27.88-31.37"/></clipPath><clipPath id="clip-path-81"><path class="cls-2" d="M3618.28,412.87h-27.88s12.46,28,27.88,31.37c15.42-3.37,27.88-31.37,27.88-31.37Z"/></clipPath><clipPath id="clip-path-82"><path class="cls-2" d="M3618.28,393.31l-27.88,19.56s14.68,19.07,27.88,19.07c4.06,0,18.2-6.12,27.88-19.07Z"/></clipPath><clipPath id="clip-path-83"><path class="cls-2" d="M3557.46,335.5a12.49,12.49,0,1,0,0,17.66,12.49,12.49,0,0,0,0-17.66"/></clipPath><clipPath id="clip-path-84"><path class="cls-2" d="M3696.76,335.5a12.49,12.49,0,1,0,0,17.66,12.49,12.49,0,0,0,0-17.66"/></clipPath><clipPath id="clip-path-85"><path class="cls-2" d="M3632.43,417.82c19.32-6.67,39.41-16.48,48.69-34.69,6.41-12.59,6.64-27.3,6.78-41.43.1-10.17.18-20.51-1.35-30.52a74.36,74.36,0,0,0-3.55-14.23c-6.36-17.47-20.77-31.68-38.08-38.47a71.17,71.17,0,0,0-26.62-4.79l-12.36,107.69,12.36,59.41c.31,0,.62,0,.93,0,4.53-.11,8.93-1.51,13.21-3"/></clipPath><clipPath id="clip-path-86"><path class="cls-2" d="M3590.84,259.27c-12.95,5.3-24.57,14.35-31.67,26.4-9.6,16.29-10.24,36.18-10.16,55.09.07,17.23.82,36.38,11.93,50.54s30.88,23.43,47.79,27.92a41.13,41.13,0,0,0,9.92,1.58L3613.61,360l14.78-5.05-9.73-101.27a75.59,75.59,0,0,0-27.82,5.57"/></clipPath><clipPath id="clip-path-87"><path class="cls-2" d="M3598.42,326.66a5.25,5.25,0,1,0-5.25,5.25,5.25,5.25,0,0,0,5.25-5.25"/></clipPath><clipPath id="clip-path-88"><path class="cls-2" d="M3650.78,326.66a5.25,5.25,0,1,0-5.25,5.25,5.25,5.25,0,0,0,5.25-5.25"/></clipPath><clipPath id="clip-path-89"><path class="cls-2" d="M3668.42,350.17c0,3.23-5.17,5.84-11.54,5.84s-11.54-2.61-11.54-5.84,5.17-5.84,11.54-5.84,11.54,2.61,11.54,5.84"/></clipPath><clipPath id="clip-path-90"><path class="cls-2" d="M3570.66,350.17c0,3.23,5.17,5.84,11.54,5.84s11.54-2.61,11.54-5.84-5.17-5.84-11.54-5.84-11.54,2.61-11.54,5.84"/></clipPath><clipPath id="clip-path-91"><polygon class="cls-2" points="3613.23 359.97 3634.01 359.97 3628.02 354.96 3613.23 359.97"/></clipPath><clipPath id="clip-path-92"><path class="cls-2" d="M3526.74,555.61h29.1v8.16h-12.25l-3.91,26.85s-13.85-2-20.31-13.16Z"/></clipPath><clipPath id="clip-path-93"><path class="cls-2" d="M3555.84,555.61a4.1,4.1,0,1,1-4.1,4.1,4.1,4.1,0,0,1,4.1-4.1"/></clipPath><clipPath id="clip-path-94"><path class="cls-2" d="M3846,322.25a18.46,18.46,0,1,0-32.86,4.22h0l0,.07.1.14,6.55,9.69a68.7,68.7,0,0,1-39.77,64.88l10.57,20.21a91.4,91.4,0,0,0,28.82-21.74c16.44-18.49,23.06-40.44,22.13-63.35l4.42-14.12Z"/></clipPath><clipPath id="clip-path-95"><path class="cls-2" d="M3814.32,277.77a4.21,4.21,0,0,0-4.21,4.21v39.35h8.42V282a4.21,4.21,0,0,0-4.21-4.21"/></clipPath><clipPath id="clip-path-96"><path class="cls-2" d="M3834.75,312.13h-25.65a1.52,1.52,0,0,0-1.5,1.19,22,22,0,0,0-.45,4.41,25.73,25.73,0,0,0,1.14,7.59c1.6,5.1,9.21,2.82,9.3-2.52a1.52,1.52,0,0,1,1.52-1.49h15.6v-.08h0c2.8,0,5.08-1.73,5.08-4.53s-2.27-4.57-5.08-4.57"/></clipPath><clipPath id="clip-path-97"><path class="cls-2" d="M3618.28,405a32.14,32.14,0,0,0,32.14-32.14h-64.29A32.15,32.15,0,0,0,3618.28,405"/></clipPath><clipPath id="clip-path-98"><path class="cls-2" d="M3619.26,289s-22.51,29.66-85.35,47.36c0,0-15.15-100.46,85.35-90.09Z"/></clipPath><clipPath id="clip-path-99"><path class="cls-2" d="M3617.3,289s22.51,29.66,85.35,47.36c0,0,15.15-101.71-85.35-91.34Z"/></clipPath><clipPath id="clip-path-100"><path class="cls-2" d="M5364.86,430.84S5293.7,307.61,5163,378.23c-143.17,77.33-41.57,221-41.57,221s68.32,93.48,325.14,75.44V812s-380,70.95-471.62-212.8C4878,299,5159.8,230.06,5159.8,230.06s200-50.48,317.53,134.63Z"/></clipPath><clipPath id="clip-path-101"><path class="cls-2" d="M5816.51,430.84s71.17-123.23,201.91-52.61c143.17,77.33,41.57,221,41.57,221s-68.32,93.48-325.14,75.44V812s380,70.95,471.62-212.8c96.89-300.22-184.9-369.12-184.9-369.12s-200-50.48-317.53,134.63Z"/></clipPath><clipPath id="clip-path-102"><polygon class="cls-2" points="5590.8 258.25 5098.68 542.56 5098.68 613.64 5590.8 897.96 6082.93 613.64 6082.93 542.56 5590.8 258.25"/></clipPath><clipPath id="clip-path-103"><polygon class="cls-2" points="5590.8 897.96 5098.68 613.64 5098.68 542.56 5590.8 826.88 5590.8 897.96"/></clipPath><clipPath id="clip-path-104"><polygon class="cls-2" points="5590.8 897.96 6082.93 613.64 6082.93 542.56 5590.8 826.88 5590.8 897.96"/></clipPath><clipPath id="clip-path-105"><polygon class="cls-2" points="5590.76 898.37 5098.14 613.77 5098.14 542.62 5590.76 827.22 5590.76 898.37"/></clipPath><clipPath id="clip-path-106"><polygon class="cls-2" points="5837.07 898.37 6083.39 898.37 6083.39 542.62 5590.76 542.62 5590.76 898.37 5837.07 898.37"/></clipPath><clipPath id="clip-path-107"><polygon class="cls-2" points="5652.34 649.34 5406.03 507.04 5406.03 293.58 5652.34 435.89 5652.34 649.34"/></clipPath><clipPath id="clip-path-108"><polygon class="cls-2" points="5753.45 281.33 5652.34 435.87 5652.34 649.32 5837.07 542.6 5837.07 329.16 5753.45 281.33"/></clipPath><clipPath id="clip-path-109"><polygon class="cls-2" points="5389.23 318.6 5498.34 133.46 5753.45 281.33 5635.54 460.91 5389.23 318.6"/></clipPath><clipPath id="clip-path-110"><polygon class="cls-2" points="5713.88 613.77 5713.88 471.44 5775.5 435.89 5775.5 578.17 5713.88 613.77"/></clipPath><clipPath id="clip-path-111"><polygon class="cls-2" points="5559.97 453.55 5559.97 524.7 5621.55 560.27 5621.55 489.12 5559.97 453.55"/></clipPath><clipPath id="clip-path-112"><polygon class="cls-2" points="5437.04 382.52 5437.04 453.68 5498.62 489.25 5498.62 418.1 5437.04 382.52"/></clipPath><clipPath id="clip-path-113"><rect class="cls-1" x="5098.14" y="68.9" width="985.25" height="829.47"/></clipPath><clipPath id="clip-path-114"><path class="cls-2" d="M5322.51,473.75h-93.33s-13.91,62.74,17.94,118.08H5259s-54.57-97,16.82-97,16.82,97,16.82,97h11.9c31.85-55.34,17.94-118.08,17.94-118.08"/></clipPath><clipPath id="clip-path-115"><path class="cls-2" d="M5310.26,362.12h-.11a54.8,54.8,0,0,0-51.81,37l.26-.05a54.79,54.79,0,0,1,51.65-36.94"/></clipPath><clipPath id="clip-path-116"><path class="cls-2" d="M5312.51,362.17l1.5,0c-.5,0-1,0-1.5,0"/></clipPath><clipPath id="clip-path-117"><path class="cls-2" d="M5310.29,375.71a15.32,15.32,0,0,1,1.88.14,15.45,15.45,0,0,0-1.77-.15h-.11"/></clipPath><clipPath id="clip-path-118"><path class="cls-2" d="M5310.4,362.11h-.13a18.38,18.38,0,0,1,2.25.18,18.12,18.12,0,0,0-2.12-.18"/></clipPath><clipPath id="clip-path-119"><path class="cls-2" d="M5312.81,375.77l-.77,0,.77,0"/></clipPath><clipPath id="clip-path-120"><path class="cls-2" d="M5274.78,395.8l-16.17,3.26,0,.05L5275,395.8a41.22,41.22,0,0,1,35.27-20.1h-.14a41.22,41.22,0,0,0-35.37,20.1"/></clipPath><clipPath id="clip-path-121"><path class="cls-2" d="M5333.86,367.39a54.47,54.47,0,0,0-20.86-5.2,54.45,54.45,0,0,1,20.82,5.29Z"/></clipPath><clipPath id="clip-path-122"><path class="cls-2" d="M5333.82,367.48a54.45,54.45,0,0,0-20.82-5.29h-.49c-.75,0-1.5-.06-2.25-.06a54.79,54.79,0,0,0-51.65,36.94l16.17-3.26a41.22,41.22,0,0,1,35.37-20.1h.24c.55,0,1.1,0,1.64,0h.25a40.91,40.91,0,0,1,16.23,4.16Z"/></clipPath><clipPath id="clip-path-123"><path class="cls-2" d="M5241.7,362.11a54.53,54.53,0,0,0-23.46,5.28l5.34,12.52a41.15,41.15,0,0,1,53.5,15.89l16.44,3.31a54.8,54.8,0,0,0-51.81-37"/></clipPath><clipPath id="clip-path-124"><path class="cls-2" d="M5186.92,416.93a54.81,54.81,0,0,0,30.13,49l4.4-13.06a41.23,41.23,0,0,1,2.12-72.92l-5.34-12.52a54.82,54.82,0,0,0-31.32,49.54"/></clipPath><clipPath id="clip-path-125"><path class="cls-2" d="M5229.25,321.3s1.23,21.15,11,28.13l-1.57-13.51Z"/></clipPath><clipPath id="clip-path-126"><path class="cls-2" d="M5323,321.3s-1.23,21.15-11,28.13l1.57-13.51Z"/></clipPath><clipPath id="clip-path-127"><path class="cls-2" d="M5276.12,370.48l-21.32-12s-21.11,75.35-25.62,115.27h46.94Z"/></clipPath><clipPath id="clip-path-128"><path class="cls-2" d="M5275.84,370.48l21.32-12s21.11,75.35,25.62,115.27h-46.94Z"/></clipPath><clipPath id="clip-path-129"><path class="cls-2" d="M5276.12,367.53h-16.65s7.44,16.73,16.65,18.75c9.21-2,16.65-18.75,16.65-18.75Z"/></clipPath><clipPath id="clip-path-130"><path class="cls-2" d="M5276.12,355.85l-16.65,11.69s8.76,11.39,16.65,11.39c2.42,0,10.86-3.66,16.65-11.39Z"/></clipPath><clipPath id="clip-path-131"><path class="cls-2" d="M5239.8,321.3a7.46,7.46,0,1,0,0,10.55,7.45,7.45,0,0,0,0-10.55"/></clipPath><clipPath id="clip-path-132"><path class="cls-2" d="M5323,321.3a7.46,7.46,0,1,0,0,10.55,7.45,7.45,0,0,0,0-10.55"/></clipPath><clipPath id="clip-path-133"><path class="cls-2" d="M5284.56,370.49c11.54-4,23.53-9.85,29.07-20.73,3.83-7.52,4-16.31,4-24.75a113.94,113.94,0,0,0-.81-18.24,44.5,44.5,0,0,0-2.12-8.5,39.86,39.86,0,0,0-22.74-23,42.46,42.46,0,0,0-15.9-2.86l-7.38,64.35,7.38,35.5.56,0a26.43,26.43,0,0,0,7.89-1.79"/></clipPath><clipPath id="clip-path-134"><path class="cls-2" d="M5259.73,275.75a38.89,38.89,0,0,0-18.91,15.78c-5.73,9.73-6.11,21.62-6.07,32.92,0,10.3.49,21.74,7.13,30.2s18.44,14,28.54,16.68a24.53,24.53,0,0,0,5.92.95l-3-36.32,8.83-3-5.81-60.52a45.1,45.1,0,0,0-16.61,3.33"/></clipPath><clipPath id="clip-path-135"><path class="cls-2" d="M5264.26,316a3.14,3.14,0,1,0-3.14,3.14,3.14,3.14,0,0,0,3.14-3.14"/></clipPath><clipPath id="clip-path-136"><path class="cls-2" d="M5295.52,316a3.13,3.13,0,1,0-3.14,3.14,3.14,3.14,0,0,0,3.14-3.14"/></clipPath><clipPath id="clip-path-137"><path class="cls-2" d="M5306.06,330.07c0,1.93-3.09,3.49-6.89,3.49s-6.89-1.56-6.89-3.49,3.09-3.49,6.89-3.49,6.89,1.56,6.89,3.49"/></clipPath><clipPath id="clip-path-138"><path class="cls-2" d="M5247.68,330.07c0,1.93,3.09,3.49,6.89,3.49s6.89-1.56,6.89-3.49-3.09-3.49-6.89-3.49-6.89,1.56-6.89,3.49"/></clipPath><clipPath id="clip-path-139"><polygon class="cls-2" points="5273.1 335.93 5285.51 335.93 5281.93 332.93 5273.1 335.93"/></clipPath><clipPath id="clip-path-140"><path class="cls-2" d="M5313,452.83h17.38l4.4,13.06c-3.86,6.67-12.13,7.87-12.13,7.87l-2.33-16h-7.07l-.25,0a2.45,2.45,0,0,1,0-4.9"/></clipPath><clipPath id="clip-path-141"><path class="cls-2" d="M5294.66,266.61V267c-.77,1.44-7.79,14.19-17.15,21.18-3.51,2.62-7.34,4.43-11.3,4.52h23.73a7.83,7.83,0,0,1,6,2.53c2.33,2.5,3.09,6,7,6a8,8,0,0,1,5.61,2,9.82,9.82,0,0,1,2.87,6v17.51h6.51q0-1.07,0-2.13c0-1.75,0-3.52,0-5.29a7.41,7.41,0,0,1,4.22,1.46l.84.69v0l.1.13a150.36,150.36,0,0,0,1-16.23c0-19.28-12.2-33.14-29.46-38.56"/></clipPath><clipPath id="clip-path-142"><path class="cls-2" d="M5283.93,263.42a76.57,76.57,0,0,0-8,0c-1.4.07-2.81.18-4.2.33a57.15,57.15,0,0,0-6.07,1c-.19,0-.6.2-1,.34l-1.07.2h0a52,52,0,0,0-9,2.58c-15.57,6.05-26.32,19.37-26.29,37.45,0,3.83.36,10.56.92,15.24,0,.26,0,.51,0,.77l.08-.07,0,.29c.07-.07.12-.16.19-.23a7.33,7.33,0,0,1,4.55-2.1c.22,0,.45,0,.67,0,0,1.77,0,3.53,0,5.28,0,.71,0,1.42,0,2.13h6.51V309.07a10.55,10.55,0,0,1,1.15-3.72l1.36-1.86,0,0c1.26-1.29,3.16-1.95,5.95-2.3s3.88-3.47,6.32-5.83a9.32,9.32,0,0,1,6.69-2.66s14.89.05,17,0c21.11-.48,29.29-14.87,32.46-22.77.7-1.76,1.16-3.2,1.46-4.09a17,17,0,0,0,.54-2.38Z"/></clipPath><clipPath id="clip-path-143"><path class="cls-2" d="M5311.4,326.58c0,12.32-22.48,12.66-32.28,12.22h-5.56c-9.8.44-32.28.1-32.28-12.22h-6.51c.12,9.72.93,20.19,7.11,28.06,6.59,8.4,18.44,14,28.54,16.68a19,19,0,0,0,11.85,0c10.1-2.68,21.95-8.28,28.54-16.68,6.18-7.88,7-18.35,7.11-28.06h-6.51Z"/></clipPath><clipPath id="clip-path-144"><path class="cls-2" d="M5276.12,362.86a19.2,19.2,0,0,0,19.2-19.21h-38.39a19.2,19.2,0,0,0,19.2,19.21"/></clipPath><clipPath id="clip-path-145"><path class="cls-2" d="M5333.82,367.48l-5.3,12.43a40.91,40.91,0,0,0-16.23-4.16,41.23,41.23,0,0,1,18.11,77.08l4.4,13.06a54.84,54.84,0,0,0-1-98.4"/></clipPath><clipPath id="clip-path-146"><path class="cls-2" d="M5263.6,325.85a.94.94,0,1,0-.94.94.94.94,0,0,0,.94-.94"/></clipPath><clipPath id="clip-path-147"><path class="cls-2" d="M5256.06,322.83a.94.94,0,1,0-.94.94.94.94,0,0,0,.94-.94"/></clipPath><clipPath id="clip-path-148"><path class="cls-2" d="M5269.63,322.83a.94.94,0,1,0-.94.94.94.94,0,0,0,.94-.94"/></clipPath><clipPath id="clip-path-149"><path class="cls-2" d="M5257.57,327.36a.94.94,0,1,0-.94.94.94.94,0,0,0,.94-.94"/></clipPath><clipPath id="clip-path-150"><path class="cls-2" d="M5253,330.38a.94.94,0,1,0-.94.94.94.94,0,0,0,.94-.94"/></clipPath><clipPath id="clip-path-151"><path class="cls-2" d="M5266.62,330.38a.94.94,0,1,0-.94.94.94.94,0,0,0,.94-.94"/></clipPath><clipPath id="clip-path-152"><path class="cls-2" d="M5292.23,325.85a.94.94,0,1,1,.94.94.94.94,0,0,1-.94-.94"/></clipPath><clipPath id="clip-path-153"><path class="cls-2" d="M5299.77,322.83a.94.94,0,1,1,.94.94.94.94,0,0,1-.94-.94"/></clipPath><clipPath id="clip-path-154"><path class="cls-2" d="M5286.2,322.83a.94.94,0,1,1,.94.94.94.94,0,0,1-.94-.94"/></clipPath><clipPath id="clip-path-155"><path class="cls-2" d="M5298.27,327.36a.94.94,0,1,1,.94.94.94.94,0,0,1-.94-.94"/></clipPath><clipPath id="clip-path-156"><path class="cls-2" d="M5302.79,330.38a.94.94,0,1,1,.94.94.94.94,0,0,1-.94-.94"/></clipPath><clipPath id="clip-path-157"><path class="cls-2" d="M5289.22,330.38a.94.94,0,1,1,.94.94.94.94,0,0,1-.94-.94"/></clipPath><clipPath id="clip-path-158"><path class="cls-2" d="M5229.18,473.75s-13.91,62.74,17.94,118.08H5259s-54.57-97,16.82-97V473.75Z"/></clipPath><clipPath id="clip-path-159"><path class="cls-2" d="M5322.5,473.75s13.91,62.74-17.94,118.08h-11.9s54.57-97-16.82-97V473.75Z"/></clipPath><clipPath id="clip-path-160"><path class="cls-2" d="M5262.32,593.46a4.32,4.32,0,0,0-3.38-1.63h-11.81s-7.59,3.42-11.63-1a6,6,0,1,0-4.65,9.67h28.09a4.33,4.33,0,0,0,3.38-7"/></clipPath><clipPath id="clip-path-161"><path class="cls-2" d="M5289.37,593.46a4.32,4.32,0,0,1,3.38-1.63h11.81s7.59,3.42,11.63-1a6,6,0,1,1,4.65,9.67h-28.09a4.34,4.34,0,0,1-3.38-7"/></clipPath><clipPath id="clip-path-162"><path class="cls-2" d="M5238.83,452.83h-17.38l-4.4,13.06c3.86,6.67,12.13,7.87,12.13,7.87l2.33-16h7.07l.25,0a2.45,2.45,0,0,0,0-4.9"/></clipPath><clipPath id="clip-path-163"><rect class="cls-1" x="5353.92" y="277.56" width="51.09" height="100.04"/></clipPath><clipPath id="clip-path-164"><rect class="cls-1" x="5402.83" y="277.56" width="51.08" height="100.07"/></clipPath><clipPath id="clip-path-165"><path class="cls-2" d="M5447.08,477.71h-86.43s-12.88,58.1,16.62,109.36h11s-50.53-89.86,15.58-89.86,15.58,89.86,15.58,89.86h11c29.5-51.25,16.62-109.36,16.62-109.36"/></clipPath><clipPath id="clip-path-166"><path class="cls-2" d="M5360.65,477.71s-12.88,58.1,16.62,109.36h11s-50.53-89.86,15.58-89.86v-19.5Z"/></clipPath><clipPath id="clip-path-167"><path class="cls-2" d="M5447.08,477.71s12.88,58.1-16.62,109.36h-11s50.53-89.86-15.58-89.86v-19.5Z"/></clipPath><clipPath id="clip-path-168"><path class="cls-2" d="M5391.34,588.57a4,4,0,0,0-3.13-1.51h-10.94s-7,3.17-10.77-.93a5.51,5.51,0,1,0-4.3,9h26a4,4,0,0,0,3.13-6.52"/></clipPath><clipPath id="clip-path-169"><path class="cls-2" d="M5416.39,588.57a4,4,0,0,1,3.13-1.51h10.94s7,3.17,10.77-.93a5.51,5.51,0,1,1,4.3,9h-26a4,4,0,0,1-3.13-6.52"/></clipPath><clipPath id="clip-path-170"><path class="cls-2" d="M5453.92,327.59a50,50,0,0,0-50-50l-1.08,0-12.77,42.11,12.77,57.9,1.08,0a50,50,0,0,0,50-50"/></clipPath><clipPath id="clip-path-171"><path class="cls-2" d="M5354.45,334.9s2.48,29.87-15.26,33.89c0,0,16.48,23.8,53.78,10.8l-5.37-25.14Z"/></clipPath><clipPath id="clip-path-172"><path class="cls-2" d="M5453.31,334.9s-2.48,29.87,15.26,33.89c0,0-16.48,23.8-53.77,10.8l5.37-25.14Z"/></clipPath><clipPath id="clip-path-173"><path class="cls-2" d="M5321.79,419.91a51.3,51.3,0,0,0-.28,5.31,50.63,50.63,0,0,0,27.84,45.22l4.07-12.06a38,38,0,0,1-19-38.47Z"/></clipPath><clipPath id="clip-path-174"><path class="cls-2" d="M5349.18,455.58a7.32,7.32,0,0,0-1.68-6.37c-1.68-1.73-3.37-3.54-7.15-3.06a38.28,38.28,0,0,1-8.33,9.91c-.14,2.32-1.47,6.24,0,7.73s6.54,1.21,8.81,1.21a50.77,50.77,0,0,0,8.35-9.42"/></clipPath><clipPath id="clip-path-175"><path class="cls-2" d="M5385.69,376.43l-2.57,12.34a38.24,38.24,0,0,1,21.69,16.93l15.18,3.06a50.73,50.73,0,0,0-34.3-32.33"/></clipPath><clipPath id="clip-path-176"><path class="cls-2" d="M5372.12,374.58a50.63,50.63,0,0,0-50.33,45.33h12.64a38,38,0,0,1,48.68-31.14l2.57-12.34a50.58,50.58,0,0,0-13.56-1.85"/></clipPath><clipPath id="clip-path-177"><path class="cls-2" d="M5403.66,382.31l19.69-11.09s19.51,69.61,23.67,106.49h-43.36Z"/></clipPath><clipPath id="clip-path-178"><path class="cls-2" d="M5408.45,388.53a50.56,50.56,0,0,0-8.57,13.62l10.08,9a37.87,37.87,0,0,1,8-14.48l.26-.27-11.4-2Z"/></clipPath><clipPath id="clip-path-179"><path class="cls-2" d="M5470.77,376.2c-10.6-2.55-20.79-6-31.86-4.31a50.39,50.39,0,0,0-30.27,16.42l-.19.22-1.58,5.83,11.4,2a38.32,38.32,0,0,1,30-12.44c12.51.6,23.42,6.76,36.33,4.82a50.61,50.61,0,0,0,14.37-4.41l-5.83-11.16a38.32,38.32,0,0,1-22.41,3"/></clipPath><clipPath id="clip-path-180"><path class="cls-2" d="M5403.92,382.31l-19.69-11.09s-19.51,69.61-23.67,106.49h43.36Z"/></clipPath><clipPath id="clip-path-181"><path class="cls-2" d="M5388.54,379.59H5392l-4.44-6.46-10.8,7.68,12.54,7.72-1.74,12.72,16.32,43V396.9c-8.51-1.86-15.38-17.32-15.38-17.32"/></clipPath><clipPath id="clip-path-182"><path class="cls-2" d="M5419.29,379.59h-3.49l4.44-6.46,10.8,7.68-12.54,7.72,1.74,12.72-16.32,43V396.9c8.51-1.86,15.38-17.32,15.38-17.32"/></clipPath><clipPath id="clip-path-183"><path class="cls-2" d="M5403.92,379.59h-15.38s6.87,15.46,15.38,17.32c8.51-1.86,15.38-17.32,15.38-17.32Z"/></clipPath><clipPath id="clip-path-184"><path class="cls-2" d="M5403.92,368.79l-15.38,10.8s8.1,10.52,15.38,10.52c2.24,0,10-3.38,15.38-10.52Z"/></clipPath><clipPath id="clip-path-185"><path class="cls-2" d="M5370.36,336.88a6.89,6.89,0,1,0,0,9.75,6.88,6.88,0,0,0,0-9.75"/></clipPath><clipPath id="clip-path-186"><path class="cls-2" d="M5447.21,336.88a6.89,6.89,0,1,0,0,9.75,6.88,6.88,0,0,0,0-9.75"/></clipPath><clipPath id="clip-path-187"><path class="cls-2" d="M5411.72,382.32c10.66-3.68,21.74-9.1,26.86-19.15,3.54-6.95,3.67-15.07,3.74-22.87a105.25,105.25,0,0,0-.75-16.85,41,41,0,0,0-2-7.86,36.82,36.82,0,0,0-21-21.24,39.23,39.23,0,0,0-14.69-2.65l-6.82,59.45,6.82,32.79.51,0a24.41,24.41,0,0,0,7.29-1.65"/></clipPath><clipPath id="clip-path-188"><path class="cls-2" d="M5388.78,294.8a35.93,35.93,0,0,0-17.47,14.58c-5.3,9-5.65,20-5.6,30.41,0,9.51.45,20.08,6.58,27.9s17,12.93,26.37,15.41a22.67,22.67,0,0,0,5.47.87l-2.79-33.55,8.15-2.79-5.37-55.9a41.67,41.67,0,0,0-15.34,3.08"/></clipPath><clipPath id="clip-path-189"><path class="cls-2" d="M5393,332a2.9,2.9,0,1,0-2.9,2.9,2.9,2.9,0,0,0,2.9-2.9"/></clipPath><clipPath id="clip-path-190"><path class="cls-2" d="M5421.85,332a2.9,2.9,0,1,0-2.9,2.9,2.9,2.9,0,0,0,2.9-2.9"/></clipPath><clipPath id="clip-path-191"><path class="cls-2" d="M5431.57,345c0,1.78-2.85,3.22-6.37,3.22s-6.37-1.44-6.37-3.22,2.85-3.22,6.37-3.22,6.37,1.44,6.37,3.22"/></clipPath><clipPath id="clip-path-192"><path class="cls-2" d="M5377.65,345c0,1.78,2.85,3.22,6.37,3.22s6.37-1.44,6.37-3.22-2.85-3.22-6.37-3.22-6.37,1.44-6.37,3.22"/></clipPath><clipPath id="clip-path-193"><polygon class="cls-2" points="5401.13 350.39 5412.59 350.39 5409.29 347.62 5401.13 350.39"/></clipPath><clipPath id="clip-path-194"><path class="cls-2" d="M5353.42,458.38h16.05v4.5h-6.76l-2.16,14.82s-7.64-1.1-11.2-7.27Z"/></clipPath><clipPath id="clip-path-195"><path class="cls-2" d="M5369.47,458.38a2.26,2.26,0,1,1-2.26,2.26,2.26,2.26,0,0,1,2.26-2.26"/></clipPath><clipPath id="clip-path-196"><path class="cls-2" d="M5529.55,329.57a10.18,10.18,0,1,0-18.12,2.33h0l0,0,.05.08,3.61,5.35a37.92,37.92,0,0,1-21.94,35.82l5.83,11.16a50.43,50.43,0,0,0,15.9-12c9.07-10.2,12.72-22.32,12.21-35l2.44-7.79Z"/></clipPath><clipPath id="clip-path-197"><path class="cls-2" d="M5512.06,305a2.32,2.32,0,0,0-2.32,2.32v21.72h4.64V307.34a2.32,2.32,0,0,0-2.32-2.32"/></clipPath><clipPath id="clip-path-198"><path class="cls-2" d="M5523.33,324h-14.15a.84.84,0,0,0-.83.66,12.17,12.17,0,0,0-.25,2.43,14.2,14.2,0,0,0,.63,4.19c.88,2.81,5.08,1.56,5.13-1.39a.84.84,0,0,1,.84-.82h8.6v0h0a2.53,2.53,0,1,0,0-5"/></clipPath><clipPath id="clip-path-199"><path class="cls-2" d="M5403.92,375.27a17.74,17.74,0,0,0,17.73-17.74h-35.46a17.74,17.74,0,0,0,17.73,17.74"/></clipPath><clipPath id="clip-path-200"><path class="cls-2" d="M5404.46,311.21s-12.42,16.37-47.08,26.15c0,0-8.36-55.46,47.08-49.73Z"/></clipPath><clipPath id="clip-path-201"><path class="cls-2" d="M5403.38,311.21s12.42,16.37,47.08,26.15c0,0,8.36-56.14-47.08-50.42Z"/></clipPath><clipPath id="clip-path-202"><path class="cls-2" d="M6093.47,473.63c10,64.16-33.48,125.61-33.48,125.61s-68.32,93.48-325.14,75.44V812s380,70.95,471.62-212.8c17.3-53.61,22.53-99.84,19.44-139.63-14.2-183-204.34-229.5-204.34-229.5S6088.19,439.69,6093.47,473.63Z"/></clipPath><clipPath id="clip-path-203"><path class="cls-2" d="M5735.25,673.81l-166.27-56-15.68,46.66,70,23.57L5594,849.13s83,15.21,141.35-36.21Z"/></clipPath><clipPath id="clip-path-204"><path class="cls-2" d="M5537.68,633.41A24.72,24.72,0,1,0,5569,617.85a24.74,24.74,0,0,0-31.31,15.56"/></clipPath><clipPath id="clip-path-205"><path class="cls-2" d="M5623.33,688.08,5471.6,652.65l-40.35,153.46s120.38,50.91,189.46,45.13l28.61-66.14Z"/></clipPath><clipPath id="clip-path-206"><path class="cls-2" d="M5431.25,806.11c25.73,6.57,55.4-22.63,66.27-65.23s-1.18-82.46-26.91-89-55.4,22.63-66.27,65.23,1.18,82.46,26.91,89"/></clipPath><clipPath id="clip-path-207"><path class="cls-2" d="M5092.49,454.7c-23.52,70.42,28.9,144.55,28.9,144.55s68.32,93.48,325.14,75.44V812s-380,70.95-471.62-212.8c-29.51-91.45-23.89-161.44-1.8-214.55,50.43-121.26,186.7-154.58,186.7-154.58S5101.71,427.07,5092.49,454.7Z"/></clipPath><clipPath id="clip-path-208"><path class="cls-2" d="M5447.32,676.06l175.31,6.16-1.73,49.19-73.84-2.59-29.22,161.07s-74-13.36-113-72.66c-2.31-3.5,42.52-141.17,42.52-141.17"/></clipPath><clipPath id="clip-path-209"><path class="cls-2" d="M5646.47,707.81a24.72,24.72,0,1,1-23.84-25.59,24.73,24.73,0,0,1,23.84,25.59"/></clipPath><clipPath id="clip-path-210"><path class="cls-2" d="M5547.06,728.82l154.49,20.26-16.2,157.85s-130.58,5.27-193.21-24.47l-3.52-72Z"/></clipPath><clipPath id="clip-path-211"><path class="cls-2" d="M5685.36,906.94c-26.4-2.91-43.9-40.69-39.09-84.39s30.1-76.77,56.5-73.86,43.9,40.69,39.09,84.39-30.1,76.77-56.5,73.87"/></clipPath><clipPath id="clip-path-212"><polygon class="cls-2" points="-1782.09 2008.44 -1782.09 2078.92 -1293.79 2360.84 -805.49 2078.92 -805.49 2008.44 -1293.79 1726.52 -1782.09 2008.44"/></clipPath><clipPath id="clip-path-213"><polygon class="cls-2" points="-1293.79 2360.84 -1782.09 2078.92 -1782.09 2008.44 -1293.79 2290.36 -1293.79 2360.84"/></clipPath><clipPath id="clip-path-214"><polygon class="cls-2" points="-1049.64 2360.84 -805.49 2360.84 -805.49 2008.44 -1293.79 2008.44 -1293.79 2360.84 -1049.64 2360.84"/></clipPath><clipPath id="clip-path-215"><path class="cls-2" d="M-1244,1959l-89.14-1.55c-4.86-.07-44.92,30.09-45,35l-.26,17.7a8.87,8.87,0,0,0,8.72,9l9.29.14,70.78,1c28.76.43,57.73,1.08,71.67,1.06l8.85.13a8.87,8.87,0,0,0,9-8.72l.27-17.7c.07-4.86-39.29-36-44.15-36.05"/></clipPath><clipPath id="clip-path-216"><path class="cls-2" d="M-1096.72,1783.34a17.36,17.36,0,0,1-.36,24.34,17.36,17.36,0,0,1-24.33-.37,17.36,17.36,0,0,1,.36-24.33,17.36,17.36,0,0,1,24.33.36m-50.51-25.09a17.36,17.36,0,0,1-.36,24.33,17.36,17.36,0,0,1-24.34-.36,17.36,17.36,0,0,1,.37-24.33,17.36,17.36,0,0,1,24.33.36m-274.25-6.29a17.36,17.36,0,0,1,24.33.36,17.37,17.37,0,0,1-.36,24.34,17.36,17.36,0,0,1-24.33-.36,17.16,17.16,0,0,1,.36-24.33m-26.9,23.94a17.36,17.36,0,0,1-.37,24.33,17.36,17.36,0,0,1-24.33-.36,17.36,17.36,0,0,1,.36-24.33,17.36,17.36,0,0,1,24.34.36"/></clipPath><clipPath id="clip-path-217"><path class="cls-2" d="M-1241.52,1730.3l-87.59-1.3c-9.74-.14-194,83.62-194.1,93.36l-.52,34.95a17.37,17.37,0,0,0,17.21,17.73l219.82-22.84,218.38,29.57a17.37,17.37,0,0,0,17.73-17.22l.52-34.95c.14-9.74-181.72-99.17-191.45-99.31"/></clipPath><clipPath id="clip-path-218"><path class="cls-2" d="M-1282.62,1548.71c-24.33-.36-44.41,40.49-45.06,69.47l-4.48,316.09c-.44,29.2,17.77,114.43,42.1,114.79s45.06-84.29,45.49-113.49l4.92-316.09c.44-29.2-18.64-70.41-43-70.77"/></clipPath><clipPath id="clip-path-219"><path class="cls-2" d="M-1266,1935l4.7-315.87c.37-24.78-13.29-58.16-32-68a27.37,27.37,0,0,1,10.88-2.72c24.33.37,43.19,41.8,42.75,71l-4.7,315.87c-.43,29.2-21.38,113.62-45.49,113.49-3.54-.05-7.27-2.1-10.76-5.69,19.09-19,34.21-83.34,34.57-108.12"/></clipPath><clipPath id="clip-path-220"><path class="cls-2" d="M-1199.92,1863.89l-44.38-6.19,1.9-127.85,1.33,0c2.65,0,20,7.6,43.09,18.34Z"/></clipPath><clipPath id="clip-path-221"><path class="cls-2" d="M-1331,1856.85l-175.28,18.41a17.63,17.63,0,0,1-17-15.74l192.55-19.48Zm87.85-15.51,192.09,26.31a17.51,17.51,0,0,1-17.24,14.12l-174.87-23.84Z"/></clipPath><clipPath id="clip-path-222"><path class="cls-2" d="M-1060.9,1974.87a19.59,19.59,0,0,0-19.59-19.59,19.59,19.59,0,0,0-19.59,19.59,19.59,19.59,0,0,0,19.59,19.59,19.59,19.59,0,0,0,19.59-19.59"/></clipPath><clipPath id="clip-path-223"><path class="cls-2" d="M-986.77,1975.93a18.53,18.53,0,0,0-18.53-18.53,18.53,18.53,0,0,0-18.53,18.53,18.53,18.53,0,0,0,18.53,18.53,18.53,18.53,0,0,0,18.53-18.53"/></clipPath><clipPath id="clip-path-224"><path class="cls-2" d="M-1018.18,1950.76a31.15,31.15,0,0,0-31.15-31.15,31.15,31.15,0,0,0-31.15,31.15,31.15,31.15,0,0,0,31.15,31.15,31.15,31.15,0,0,0,31.15-31.15"/></clipPath><clipPath id="clip-path-225"><polygon class="cls-2" points="-1018.18 1950.76 -1018.89 1974.87 -1002.83 1978.39 -1002.83 1994.45 -1080.48 1994.45 -1080.48 1966.7 -1018.18 1950.76"/></clipPath><clipPath id="clip-path-226"><path class="cls-2" d="M-1475.32,2006.93a30.57,30.57,0,0,1,30.36-30.78,30.57,30.57,0,0,1,30.36,30.78,30.57,30.57,0,0,1-30.36,30.78,30.57,30.57,0,0,1-30.36-30.78"/></clipPath><clipPath id="clip-path-227"><path class="cls-2" d="M-1590.22,2008.6a28.92,28.92,0,0,1,28.72-29.11,28.92,28.92,0,0,1,28.72,29.11,28.92,28.92,0,0,1-28.72,29.11,28.92,28.92,0,0,1-28.72-29.11"/></clipPath><clipPath id="clip-path-228"><path class="cls-2" d="M-1541.54,1969.06c0-27,21.62-49,48.29-49s48.29,21.92,48.29,49-21.62,49-48.29,49-48.29-21.92-48.29-49"/></clipPath><clipPath id="clip-path-229"><polygon class="cls-2" points="-1541.54 1969.06 -1540.43 2006.93 -1565.33 2012.47 -1565.33 2037.71 -1444.96 2037.71 -1444.96 1994.11 -1541.54 1969.06"/></clipPath><clipPath id="clip-path-230"><path class="cls-2" d="M-1316.08,2135.49a15.46,15.46,0,0,0-15.46-15.46,15.46,15.46,0,0,0-15.46,15.46,15.46,15.46,0,0,0,15.46,15.46,15.46,15.46,0,0,0,15.46-15.46"/></clipPath><clipPath id="clip-path-231"><path class="cls-2" d="M-1247.77,2141.18a9.47,9.47,0,0,0-9.47-9.47,9.47,9.47,0,0,0-9.47,9.47,9.47,9.47,0,0,0,9.47,9.47,9.47,9.47,0,0,0,9.47-9.47"/></clipPath><clipPath id="clip-path-232"><path class="cls-2" d="M-1265.25,2131.7a15.46,15.46,0,0,0-15.46-15.46,15.46,15.46,0,0,0-15.46,15.46,15.46,15.46,0,0,0,15.46,15.46,15.46,15.46,0,0,0,15.46-15.46"/></clipPath><clipPath id="clip-path-233"><path class="cls-2" d="M-1282.5,2128.49a22.16,22.16,0,0,0-22.16-22.16,22.16,22.16,0,0,0-22.16,22.16,22.16,22.16,0,0,0,22.16,22.16,22.16,22.16,0,0,0,22.16-22.16"/></clipPath><clipPath id="clip-path-234"><polygon class="cls-2" points="-1265.25 2131.7 -1265.25 2141.18 -1257.24 2141.18 -1257.24 2150.65 -1331.54 2150.65 -1331.54 2138.96 -1294.39 2138.96 -1265.25 2131.7"/></clipPath><clipPath id="clip-path-235"><path class="cls-2" d="M-1188,1882a17.9,17.9,0,0,1,17.9-17.9,17.9,17.9,0,0,1,17.9,17.9,17.9,17.9,0,0,1-17.9,17.9A17.9,17.9,0,0,1-1188,1882"/></clipPath><clipPath id="clip-path-236"><path class="cls-2" d="M-1267.12,1888.6a11,11,0,0,1,11-11,11,11,0,0,1,11,11,11,11,0,0,1-11,11,11,11,0,0,1-11-11"/></clipPath><clipPath id="clip-path-237"><path class="cls-2" d="M-1246.87,1877.63a17.9,17.9,0,0,1,17.9-17.9,17.9,17.9,0,0,1,17.9,17.9,17.9,17.9,0,0,1-17.9,17.9,17.9,17.9,0,0,1-17.9-17.9"/></clipPath><clipPath id="clip-path-238"><path class="cls-2" d="M-1226.9,1873.9a25.67,25.67,0,0,1,25.67-25.67,25.67,25.67,0,0,1,25.67,25.67,25.67,25.67,0,0,1-25.67,25.67,25.67,25.67,0,0,1-25.67-25.67"/></clipPath><clipPath id="clip-path-239"><polygon class="cls-2" points="-1246.87 1877.63 -1246.87 1888.6 -1256.15 1888.6 -1256.15 1899.57 -1170.09 1899.57 -1170.09 1886.03 -1213.12 1886.03 -1246.87 1877.63"/></clipPath><clipPath id="clip-path-240"><rect class="cls-1" x="1378.61" y="1733.69" width="10.8" height="135.33" transform="translate(-388.48 380.57) rotate(-13.75)"/></clipPath><clipPath id="clip-path-241"><path class="cls-2" d="M1430.25,1720.37a64.15,64.15,0,1,0-47.07,77.61,64.14,64.14,0,0,0,47.07-77.61"/></clipPath><clipPath id="clip-path-242"><path class="cls-2" d="M1388.5,1991.07a94.25,94.25,0,0,0-94.21,94.29h188.42a94.25,94.25,0,0,0-94.21-94.29"/></clipPath><clipPath id="clip-path-243"><path class="cls-2" d="M1326.47,2046.45a51.86,51.86,0,0,0-51.84,51.88h103.68a51.86,51.86,0,0,0-51.84-51.88"/></clipPath><clipPath id="clip-path-244"><path class="cls-2" d="M987,2313a56.42,56.42,0,0,0-50.64,31.6,45.35,45.35,0,0,0-53.89-1.58,70.14,70.14,0,1,0-137.74,26.51h298.74A56.5,56.5,0,0,0,987,2313"/></clipPath><clipPath id="clip-path-245"><polygon class="cls-2" points="998.67 2270.73 675.97 2084.3 917.99 1944.46 1240.69 2130.89 998.67 2270.73"/></clipPath><clipPath id="clip-path-246"><polygon class="cls-2" points="1008.58 2095.99 804.13 1860.75 880.14 1639.64 1084.58 1874.88 1008.58 2095.99"/></clipPath><clipPath id="clip-path-247"><polygon class="cls-2" points="1244.34 1750.83 1084.59 1874.86 1008.59 2095.97 1237.92 2051.29 1313.92 1830.2 1244.34 1750.83"/></clipPath><clipPath id="clip-path-248"><polygon class="cls-2" points="853.83 1659.57 1032.76 1506.69 1244.34 1750.83 1058.28 1894.81 853.83 1659.57"/></clipPath><clipPath id="clip-path-249"><polygon class="cls-2" points="1084.98 2081.09 1135.66 1933.66 1212.14 1918.8 1161.48 2066.18 1084.98 2081.09"/></clipPath><clipPath id="clip-path-250"><polygon class="cls-2" points="982.63 1860.23 957.29 1933.94 1008.4 1992.75 1033.74 1919.05 982.63 1860.23"/></clipPath><clipPath id="clip-path-251"><polygon class="cls-2" points="880.59 1742.83 855.26 1816.54 906.37 1875.35 931.71 1801.64 880.59 1742.83"/></clipPath><clipPath id="clip-path-252"><polygon class="cls-2" points="1031.65 1755.93 1057.13 1681.8 1019.91 1638.97 994.42 1713.1 1031.65 1755.93"/></clipPath><clipPath id="clip-path-253"><polygon class="cls-2" points="1112.65 1671.4 1057.13 1681.8 1031.65 1755.93 1102.39 1701.25 1112.65 1671.4"/></clipPath><clipPath id="clip-path-254"><polygon class="cls-2" points="1019.91 1638.97 1057.13 1681.8 1112.65 1671.4 1075.44 1628.15 1019.91 1638.97"/></clipPath><clipPath id="clip-path-255"><path class="cls-2" d="M719.66,2077.07a80.93,80.93,0,0,0-80.9,81h161.8a80.93,80.93,0,0,0-80.9-81"/></clipPath><clipPath id="clip-path-256"><path class="cls-2" d="M669.31,1591.09c1.81-5.44,3.09-9.39,3.09-9.39s6.34-12.19-8.44-17.25l-18.29-6.27s-1.58-2.18-18.23,2.45a109.54,109.54,0,0,0-21.06,6.4c-6.58,2.88-12.67,6.78-14.73,11.79-5.18,12.59-2.78,22.11,4.57,29.85,1.74,1.83,5.14,3.79,9.31,5.72,4.58,2.11,10.09,4.19,15.37,6,10.26,3.53,19.66,6.08,19.66,6.08s15.2,2.6,19.45-8.56c2.57-6.74,6.55-18.54,9.31-26.83"/></clipPath><clipPath id="clip-path-257"><path class="cls-2" d="M620.68,1651.9l-15,56.19,16.73,5.73L636.49,1677l2.83-11.29c-9.68-3.61-15.36-8.67-18.65-13.76"/></clipPath><clipPath id="clip-path-258"><path class="cls-2" d="M724.52,1703.1a25.64,25.64,0,0,1-5.12,2.35l-2.22,6.48a2.06,2.06,0,1,1-3.89-1.33l1.39-4.06a25.3,25.3,0,0,1-6.73,0l-2,5.71a2,2,0,0,1-.9,1.09l-9.53,25.57,15.18,5.2L728,1712.82l2.21-6.45a20.65,20.65,0,0,1-5.66-3.27"/></clipPath><clipPath id="clip-path-259"><path class="cls-2" d="M750.92,1619.06l-81.61-28c-2.75,8.3-6.74,20.1-9.31,26.83-4.25,11.16-19.45,8.56-19.45,8.56s-9.39-2.56-19.66-6.08L617,1631.89a27,27,0,0,0,3.71,20c3.29,5.1,9,10.15,18.65,13.76L636.49,1677l-9.63,38.39,16.17,5.54,20.09-47.29,22.76,7.8,27.58,9.45,3.75,1.28a22.88,22.88,0,0,0,7.3,11,20.61,20.61,0,0,0,5.66,3.27l-2.21,6.45-11.39,33.27,15.57,5.34,20.47-38.24,17.72-51.8s12.87-31.27-19.43-42.34"/></clipPath><clipPath id="clip-path-260"><path class="cls-2" d="M717.22,1692.14l-3.75-1.29-27.58-9.45a25.49,25.49,0,0,0,1.38,8.07l-2.2,6.44a2.06,2.06,0,1,0,3.89,1.33l.84-2.46a25.52,25.52,0,0,0,4.47,5.35l-1.7,5a2.06,2.06,0,1,0,3.89,1.33l1.26-3.69a25.5,25.5,0,0,0,5.41,2.61l.79.25-1.81,5.28a2,2,0,0,0,3,2.43,2,2,0,0,0,.9-1.1l2-5.71a25.31,25.31,0,0,0,6.73,0l-1.39,4.06a2.06,2.06,0,1,0,3.89,1.33l2.22-6.48a25.61,25.61,0,0,0,5.12-2.35,22.89,22.89,0,0,1-7.3-11"/></clipPath><clipPath id="clip-path-261"><path class="cls-2" d="M647.2,1574.37a2.47,2.47,0,0,1,1.39-4.74c.61.14,15.21,3.42,18.87-11.58a2.47,2.47,0,1,1,4.79,1.17c-4.84,19.84-24.63,15.26-24.83,15.21l-.22-.06"/></clipPath><clipPath id="clip-path-262"><path class="cls-2" d="M680.13,1658.76a12.77,12.77,0,0,0-16.58,15l20.49,7a12.78,12.78,0,0,0-3.92-22"/></clipPath><clipPath id="clip-path-263"><path class="cls-2" d="M646,1699a12.75,12.75,0,0,0-10.77-16.86L629,1706.71c.23.09.45.2.69.28a12.78,12.78,0,0,0,16.23-8"/></clipPath><clipPath id="clip-path-264"><path class="cls-2" d="M758.8,1666.64a18,18,0,1,0-2.12,34.73l10-29.33a18,18,0,0,0-7.91-5.4"/></clipPath><clipPath id="clip-path-265"><path class="cls-2" d="M709.11,1646a31.29,31.29,0,0,0,41.29-27.09l-57.33-19.65a31.32,31.32,0,0,0,16,46.74"/></clipPath><clipPath id="clip-path-266"><path class="cls-2" d="M660,1617.92c1-2.53,2.13-5.77,3.35-9.27a18.1,18.1,0,0,0-32.82,14.89c5.83,1.81,10,2.94,10,2.94s15.2,2.6,19.45-8.56"/></clipPath><clipPath id="clip-path-267"><path class="cls-2" d="M621,1572.05a18,18,0,0,0,.48-10.07,101,101,0,0,0-15.11,5.06c-6.58,2.88-12.67,6.78-14.73,11.79-.07.17-.13.34-.2.52a18.09,18.09,0,0,0,29.56-7.29"/></clipPath><clipPath id="clip-path-268"><path class="cls-2" d="M606.37,1567c-6.58,2.88-12.67,6.78-14.73,11.79-5.18,12.59-2.78,22.11,4.57,29.85,1.74,1.83,5.14,3.79,9.31,5.72,12.91-24.75,6.6-39.92.85-47.36"/></clipPath><clipPath id="clip-path-269"><path class="cls-2" d="M636.73,1579.92a4.29,4.29,0,1,0-5.45,2.67,4.3,4.3,0,0,0,5.45-2.67"/></clipPath><clipPath id="clip-path-270"><path class="cls-2" d="M626.64,1684.61a14.25,14.25,0,0,0-8.85-18.09c-.31-.11-.63-.19-.94-.27l-7.34,27.49a14.22,14.22,0,0,0,17.13-9.13"/></clipPath><clipPath id="clip-path-271"><path class="cls-2" d="M700.45,1725.79l-4.88,13.1,13.23,4.54a14,14,0,0,0-8.35-17.64"/></clipPath><clipPath id="clip-path-272"><path class="cls-2" d="M760.72,1639.16l.33-6.58c.61,0,15,.42,20.72-16.34l6.23,2.13c-3.83,11.2-11,16.27-16.32,18.55a26.9,26.9,0,0,1-11,2.24"/></clipPath><clipPath id="clip-path-273"><path class="cls-2" d="M782.91,1623.06h0c-3.17-1.09-5.11-3.8-4.33-6.07l3.86-11.27c.77-2.27,4-3.22,7.14-2.14s5.11,3.8,4.33,6.07l-3.86,11.27c-.78,2.27-4,3.22-7.14,2.14"/></clipPath><clipPath id="clip-path-292"><path class="cls-2" d="M654.47,1794.77c-119.68,0-216.69,25.69-216.69,57.39a16.86,16.86,0,0,0,1.87,7.54h0l.09.14a22.79,22.79,0,0,0,1.57,2.65l40.56,68.33c-8.2.42-14.18,4-14.18,16.5,0,24,28.43,40.57,40.38,45.92,4.6,2.07,9.36,3.94,14.22,5.67l107.94,181.82a41.85,41.85,0,0,0-4,3.28,29.45,29.45,0,0,0-53,25.44,39.79,39.79,0,0,0-20.55,18.09,29.44,29.44,0,0,0-46.92,19.71h291a29.46,29.46,0,0,0-35.07-25.05A43,43,0,0,0,713,2194.08c0-.26,0-.51,0-.77A21.26,21.26,0,0,0,691.74,2172a21,21,0,0,0-9.11,2.07l46.18-77.88c4.26-1.53,8.43-3.2,12.48-5,11.09-5,37.47-20.31,37.47-42.62,0-11.31-5.31-14.76-12.66-15.27l100.33-169.21A23,23,0,0,0,870,1858a16.27,16.27,0,0,0,1.12-5.87c0-31.69-97-57.39-216.69-57.39"/></clipPath><clipPath id="clip-path-293"><path class="cls-2" d="M439.64,1859.7l.27.45c-.08-.15-.17-.3-.24-.45Z"/></clipPath><clipPath id="clip-path-294"><path class="cls-2" d="M443.76,1863.88l-4-4a37.6,37.6,0,0,0,4,4"/></clipPath><clipPath id="clip-path-295"><path class="cls-2" d="M866.43,1864.13a22.66,22.66,0,0,0,4-6.11Z"/></clipPath><clipPath id="clip-path-296"><path class="cls-2" d="M654.48,1794.77c-119.68,0-216.69,25.69-216.69,57.39a16.86,16.86,0,0,0,1.87,7.54l.08.15,1.57,2.65c18.38,26.76,106.83,47,213.18,47,104.16,0,191.15-19.46,212-45.41l3.62-6.11a16.28,16.28,0,0,0,1.12-5.87c0-31.69-97-57.39-216.69-57.39"/></clipPath><clipPath id="clip-path-297"><path class="cls-2" d="M441.3,1862.49l213.18,359.1V1909.54c-106.35,0-194.8-20.29-213.18-47"/></clipPath><clipPath id="clip-path-298"><path class="cls-2" d="M654.48,1909.54v312.05l212-357.46c-20.81,25.94-107.79,45.41-212,45.41"/></clipPath><clipPath id="clip-path-299"><path class="cls-2" d="M504.93,1857.4l.19.31-.17-.31Z"/></clipPath><clipPath id="clip-path-300"><path class="cls-2" d="M508.35,1861.54l-3.36-4a35.2,35.2,0,0,0,3.36,4"/></clipPath><clipPath id="clip-path-301"><path class="cls-2" d="M802,1860.49a16.69,16.69,0,0,0,4-4.25Z"/></clipPath><clipPath id="clip-path-302"><path class="cls-2" d="M654.48,1812.21c-83.31,0-150.84,17.88-150.84,39.95a11.74,11.74,0,0,0,1.3,5.25l.05.1,1.09,1.84c12.79,18.63,74.36,32.75,148.39,32.75,72.51,0,133.05-13.55,147.54-31.61l2.52-4.25a11.33,11.33,0,0,0,.78-4.08c0-22.06-67.53-39.95-150.84-39.95"/></clipPath><clipPath id="clip-path-303"><path class="cls-2" d="M575,1854.94l.1.17-.08-.17Z"/></clipPath><clipPath id="clip-path-304"><path class="cls-2" d="M576.78,1858l-1.78-3a25.87,25.87,0,0,0,1.78,3"/></clipPath><clipPath id="clip-path-305"><path class="cls-2" d="M732.92,1858.36a16.14,16.14,0,0,0,4-4Z"/></clipPath><clipPath id="clip-path-306"><path class="cls-2" d="M654.48,1830.91c-44.29,0-80.2,9.51-80.2,21.24a6.24,6.24,0,0,0,.69,2.79l0,.05.58,1c6.8,9.9,39.54,17.41,78.9,17.41,38.55,0,70.75-7.2,78.45-16.81l1.34-2.26a6,6,0,0,0,.41-2.17c0-11.73-35.91-21.24-80.2-21.24"/></clipPath><clipPath id="clip-path-307"><path class="cls-2" d="M481.86,1930.81,495.61,1954c18.68,17.3,44.73,24.59,69.45,31.38,33,9.06,67.57,10.07,101.77,10.17-12.32,11.17-29.55,15.19-46.14,16.31-36.83,2.49-78.62-3.36-112.63-18.61-12-5.36-40.38-21.89-40.38-45.92,0-12.47,6-16.08,14.18-16.5"/></clipPath><clipPath id="clip-path-308"><path class="cls-2" d="M765.59,2033.3l-12.76,21.49c-17.33,16.05-41.5,22.82-64.45,29.12-30.6,8.4-62.71,9.35-94.44,9.44,11.43,10.37,27.42,14.1,42.82,15.14,34.18,2.31,73-3.11,104.52-17.27,11.09-5,37.47-20.31,37.47-42.62,0-11.57-5.55-14.92-13.16-15.31"/></clipPath><clipPath id="clip-path-309"><path class="cls-2" d="M767.57,2221.59a29.6,29.6,0,0,0-5.88.59A43,43,0,0,0,713,2194.08c0-.26,0-.51,0-.77a21.23,21.23,0,0,0-36.9-14.36,41.62,41.62,0,0,0-49.9,5,29.45,29.45,0,0,0-53,25.44,39.79,39.79,0,0,0-20.55,18.09,29.44,29.44,0,0,0-46.92,19.71h291a29.46,29.46,0,0,0-29.19-25.64"/></clipPath><clipPath id="clip-path-310"><polyline class="cls-2" points="2791.47 1781.54 2791.32 1961.19 2869.01 2006.04 2869.01 2006.23 2869.18 2006.13 2869.34 2006.23 2869.34 2006.04 2947.03 1961.19 2946.88 1781.54 2869.41 1826.36"/></clipPath><clipPath id="clip-path-311"><polygon class="cls-2" points="2791.47 1781.54 2868.94 1826.36 2869.34 2006.23 2791.32 1961.19 2791.47 1781.54"/></clipPath><clipPath id="clip-path-312"><polygon class="cls-2" points="2946.88 1781.54 2869.41 1826.36 2869.01 2006.23 2947.03 1961.19 2946.88 1781.54"/></clipPath><clipPath id="clip-path-313"><polygon class="cls-2" points="3092.86 2102.22 3092.86 1778.01 3373.69 1615.9 3373.69 1940.11 3092.86 2102.22"/></clipPath><clipPath id="clip-path-314"><polygon class="cls-2" points="3387.78 1927.78 3093.72 1871.3 3093.56 1967.81 3139.85 2087.46 3387.78 1927.78"/></clipPath><clipPath id="clip-path-315"><polygon class="cls-2" points="3371.47 1633.02 3036.78 1633.02 2869.09 1729.96 3120.31 1778.01 3371.47 1633.02"/></clipPath><clipPath id="clip-path-316"><polygon class="cls-2" points="3248.46 1764.11 2951.96 1781.96 2958.44 1843.73 3234.97 1923.15 3248.46 1764.11"/></clipPath><clipPath id="clip-path-317"><path class="cls-2" d="M3291.62,1845.79c-1.84,44.11-25.41,79-52.64,77.82s-47.81-37.82-46-81.94,25.41-79,52.64-77.81,47.81,37.82,46,81.93"/></clipPath><clipPath id="clip-path-318"><polygon class="cls-2" points="3120.32 1778.17 2869.17 1729.96 2869.01 1826.47 3120.32 2067.97 3120.32 1778.17"/></clipPath><clipPath id="clip-path-319"><polygon class="cls-2" points="3420.01 1583.58 3387.78 1564.93 3075.53 1745.17 3107.76 1763.83 3420.01 1583.58"/></clipPath><clipPath id="clip-path-320"><polygon class="cls-2" points="3420.01 1902.85 3387.78 1884.2 3075.53 2064.45 3107.76 2083.1 3420.01 1902.85"/></clipPath><clipPath id="clip-path-321"><polygon class="cls-2" points="3075.53 2105.67 3107.76 2124.33 3107.76 1763.83 3075.53 1745.18 3075.53 2105.67"/></clipPath><clipPath id="clip-path-322"><polygon class="cls-2" points="3355.55 1902.67 3387.78 1921.33 3387.78 1622.7 3355.55 1634.58 3355.55 1902.67"/></clipPath><clipPath id="clip-path-323"><path class="cls-2" d="M3420,1625.12V1584l-.13.07V1584l-32.1,18.53v.07l-247.93,143.12v-.37l-32.1,18.53v360.49l280-161.65v.16l32.1-18.57v-.11l.13-.07v-41.16l-.13.07V1625.2Zm-32.23,296.4-247.93,143.12V1786.85l247.93-143.12Z"/></clipPath><clipPath id="clip-path-324"><polygon class="cls-2" points="3037.18 1632.94 2925.09 1568.36 2757.11 1665.32 2869.09 1729.96 3037.18 1632.94"/></clipPath><clipPath id="clip-path-325"><polygon class="cls-2" points="2757.22 1665.66 2869.16 1729.99 2869.34 1826.47 2757 1762.12 2757.22 1665.66"/></clipPath><clipPath id="clip-path-326"><polygon class="cls-2" points="3552.89 1847.54 3554.58 1783.66 3459.74 1840.41 3461.71 1765.81 3603.47 1699.56 3602.01 1754.58 3734.05 1703 3552.89 1847.54"/></clipPath><clipPath id="clip-path-327"><polygon class="cls-2" points="3299.68 2133.83 3363.57 2135.51 3306.81 2040.69 3381.43 2042.66 3447.69 2184.4 3392.66 2182.95 3444.24 2314.96 3299.68 2133.83"/></clipPath><clipPath id="clip-path-328"><polygon class="cls-2" points="3552.89 1937.64 3554.58 2001.52 3459.74 1944.76 3461.71 2019.37 3603.47 2085.62 3602.01 2030.6 3734.05 2082.18 3552.89 1937.64"/></clipPath></defs><title>ilustracoes_caixa_am5SVG</title><polygon class="cls-4" points="960 256.5 469.09 539.93 469.09 610.79 960 894.21 1450.91 610.79 1450.91 539.93 960 256.5"/><polygon class="cls-5" points="960 894.21 469.09 610.79 469.09 539.93 960 823.36 960 894.21"/><polygon class="cls-6" points="960 894.21 1450.91 610.79 1450.91 539.93 960 823.36 960 894.21"/><rect class="cls-7" x="962.32" y="424.41" width="8.91" height="55.92" transform="translate(144.16 -227.77) rotate(14.51)"/><rect class="cls-8" x="954.07" y="420.13" width="44.37" height="6.82"/><rect class="cls-9" x="858.84" y="388.48" width="15.25" height="188.05" transform="translate(304.87 1299.93) rotate(-84.62)"/><path class="cls-10" d="M776.82,342.17A131.84,131.84,0,1,0,908.65,474,131.83,131.83,0,0,0,776.82,342.17Zm0,249.78A117.94,117.94,0,1,1,894.76,474,117.94,117.94,0,0,1,776.82,592Z"/><path class="cls-7" d="M776.82,334.9A139.11,139.11,0,1,0,915.93,474,139.11,139.11,0,0,0,776.82,334.9Zm0,265.83A126.72,126.72,0,1,1,903.54,474,126.72,126.72,0,0,1,776.82,600.73Z"/><path class="cls-10" d="M1202.33,342.17A131.84,131.84,0,1,0,1334.16,474,131.83,131.83,0,0,0,1202.33,342.17Zm0,249.78A117.94,117.94,0,1,1,1320.27,474,117.94,117.94,0,0,1,1202.33,592Z"/><path class="cls-7" d="M1202.33,334.9A139.11,139.11,0,1,0,1341.44,474,139.11,139.11,0,0,0,1202.33,334.9Zm0,265.83A126.72,126.72,0,1,1,1329,474,126.72,126.72,0,0,1,1202.33,600.73Z"/><rect class="cls-11" x="836.72" y="257.01" width="15.25" height="242.76" transform="translate(363.78 -412.28) rotate(34.57)"/><rect class="cls-11" x="1006.51" y="161" width="15.25" height="221.65" transform="matrix(0.08, 1, -1, 0.08, 1205.71, -760.48)"/><rect class="cls-11" x="915.13" y="196.75" width="15.25" height="310.26" transform="translate(-51.58 190.71) rotate(-11.48)"/><rect class="cls-11" x="1037.15" y="260.34" width="15.25" height="275.9" transform="translate(1549.21 1396.14) rotate(-137.69)"/><path class="cls-12" d="M937.29,209.66H880c-36.71,0-48.66-31.27-49.15-32.61A10.23,10.23,0,0,1,850,169.91a32.06,32.06,0,0,0,30,19.29h57.28a10.23,10.23,0,1,1,0,20.46Z"/><circle class="cls-7" cx="956.74" cy="491.64" r="23.53"/><path class="cls-13" d="M956.43,532.42a39.74,39.74,0,1,1,39.74-39.74A39.78,39.78,0,0,1,956.43,532.42Zm0-75.38a35.64,35.64,0,1,0,35.65,35.64A35.68,35.68,0,0,0,956.43,457Z"/><path class="cls-13" d="M952,532.16a2,2,0,0,1-.42,0L770.49,494.69a2,2,0,1,1,.83-4l181.11,37.42a2,2,0,0,1-.41,4Z"/><path class="cls-13" d="M956.39,457.15h0L776.82,457a2,2,0,0,1,0-4.09h0l179.57.1a2,2,0,0,1,0,4.09Z"/><circle class="cls-7" cx="776.82" cy="474.01" r="21.82"/><rect class="cls-7" x="939.23" y="504.44" width="8.91" height="55.92" transform="translate(1723.9 1284.23) rotate(-165.49)"/><rect class="cls-8" x="912.02" y="557.81" width="44.37" height="6.82" transform="translate(1868.42 1122.44) rotate(180)"/><path class="cls-11" d="M1201.18,469l-83-258.14,29.19.46-1.19-15.2-40.48-.64h-.75v0a6,6,0,0,0-5.09,8.15h0l86.89,270.22a7.76,7.76,0,1,0,14.45-4.87Z"/><path class="cls-12" d="M1167.44,284.66a10.23,10.23,0,0,1,0-20.46c25.81,0,40.46-2.86,46.11-9,4-4.4,5.25-12.36,4-26.61-.68-8.06-12-15-20.83-15h-50a10.23,10.23,0,0,1,0-20.46h50a45.8,45.8,0,0,1,25.83,8.57c9.1,6.47,14.56,15.39,15.39,25.14,1.22,14.48,1.07,30.82-9.37,42.18C1218.41,280.14,1200.69,284.66,1167.44,284.66Z"/><g class="cls-14"><path class="cls-15" d="M810.2,762.31,693.39,645.5a5.08,5.08,0,0,0-7.18,0l-19.15,19.15a5.08,5.08,0,0,0,0,7.18L783.87,788.64a5.08,5.08,0,0,0,7.18,0l19.15-19.15a5.08,5.08,0,0,0,0-7.18Z"/><path class="cls-15" d="M710.62,601.46l-44-44a5.08,5.08,0,0,0-7.18,0l-19.15,19.15a5.08,5.08,0,0,0,0,7.18L673,616.54,638.1,651.49,605.3,618.69a5.08,5.08,0,0,0-7.18,0L579,637.84a5.08,5.08,0,0,0,0,7.18l44,44a5.08,5.08,0,0,0,3.59,1.49l.46,0,42.13-3.83a5.08,5.08,0,0,0,3.13-1.47l34.47-34.47a5.08,5.08,0,0,0,1.47-3.13l3.83-42.13a5.08,5.08,0,0,0-1.47-4Z"/><path class="cls-16" d="M680.89,603.16a5.06,5.06,0,0,1-3.59-1.49l-13.54-13.54a5.08,5.08,0,1,1,7.18-7.18l13.54,13.54a5.08,5.08,0,0,1-3.59,8.67Z"/><path class="cls-15" d="M898.29,789.12l-44-44a5.08,5.08,0,0,0-4.05-1.47l-42.13,3.83a5.07,5.07,0,0,0-3.13,1.47l-34.47,34.47a5.08,5.08,0,0,0-1.47,3.13l-3.83,42.13a5.08,5.08,0,0,0,1.47,4l44,44a5.08,5.08,0,0,0,7.18,0L837,857.58a5.08,5.08,0,0,0,0-7.18l-32.79-32.79,34.95-34.95L872,815.45a5.08,5.08,0,0,0,7.18,0l19.15-19.15a5.08,5.08,0,0,0,0-7.18Z"/></g><path class="cls-17" d="M677,654.75l-9.9,9.9a5.08,5.08,0,0,0,0,7.18L783.87,788.64a5.08,5.08,0,0,0,7.18,0l9.9-9.9-124-124Z"/><path class="cls-18" d="M655.9,633.69l-17.8,17.8L605.3,618.69a5.08,5.08,0,0,0-7.18,0L579,637.84a5.08,5.08,0,0,0,0,7.18l44,44a5.08,5.08,0,0,0,3.59,1.49l.46,0,42.13-3.83a5.08,5.08,0,0,0,3.13-1.47l17.56-17.56-34-34Z"/><path class="cls-18" d="M770.47,783.38a5.08,5.08,0,0,0-1.47,3.13l-3.83,42.13a5.08,5.08,0,0,0,1.47,4l44,44a5.08,5.08,0,0,0,7.18,0L837,857.58a5.08,5.08,0,0,0,0-7.18l-32.79-32.79,17.8-17.8-34-34-17.56,17.56Z"/><path class="cls-15" d="M805.58,646.91l-15.32-15.32a5.08,5.08,0,0,0-7.18,0L681.59,733.08a5.08,5.08,0,0,0,0,7.18l15.32,15.32a5.08,5.08,0,0,0,7.18,0L805.58,654.09a5.08,5.08,0,0,0,0-7.18Z"/><path class="cls-15" d="M868.77,583.71l-15.32-15.32a5.08,5.08,0,0,0-5.69-1l-42.13,19.15a5.06,5.06,0,0,0-1.49,1L771.59,620.1a5.08,5.08,0,0,0,0,7.18l38.3,38.3a5.08,5.08,0,0,0,7.18,0L849.62,633a5.07,5.07,0,0,0,1-1.49L869.8,589.4a5.07,5.07,0,0,0-1-5.69Z"/><path class="cls-8" d="M702.17,784.78,652.38,735a5.08,5.08,0,0,0-7.18,0l-59.36,59.36a5.08,5.08,0,0,0,0,7.18l49.79,49.79a5.08,5.08,0,0,0,7.18,0L702.17,792a5.08,5.08,0,0,0,0-7.18Z"/><path class="cls-13" d="M652.38,735a5.08,5.08,0,0,0-7.18,0l-59.36,59.36a5.08,5.08,0,0,0,0,7.18l24.68,24.69,66.54-66.54L652.38,735Z"/><polygon class="cls-19" points="673.68 756.29 680.86 763.48 614.32 830.02 607.14 822.84 673.68 756.29 673.68 756.29"/><polygon class="cls-19" points="687.09 769.7 694.27 776.88 629.64 841.51 622.46 834.33 687.09 769.7 687.09 769.7"/><polygon class="cls-20" points="660.28 742.89 667.46 750.08 602.84 814.7 595.65 807.52 660.28 742.89 660.28 742.89"/><polygon class="cls-20" points="607.14 822.84 673.68 756.29 677.06 759.67 610.52 826.22 607.14 822.84 607.14 822.84"/><path class="cls-17" d="M797.71,639,689,747.71l7.87,7.87a5.08,5.08,0,0,0,7.18,0L805.58,654.09a5.08,5.08,0,0,0,0-7.18L797.71,639Z"/><g class="cls-14"><path class="cls-18" d="M860.9,575.84l-70.37,70.37,19.36,19.36a5.08,5.08,0,0,0,7.18,0L849.62,633a5.07,5.07,0,0,0,1-1.49L869.8,589.4a5.08,5.08,0,0,0-1-5.69l-7.87-7.87Z"/><path class="cls-13" d="M622,862.39a5.06,5.06,0,0,0,2.46-.64l17.23-9.57L585,795.48l-9.57,17.23a5.08,5.08,0,0,0,.85,6.06l42.13,42.13a5.07,5.07,0,0,0,3.59,1.49Z"/><path class="cls-10" d="M585,795.48l-9.57,17.23a5.08,5.08,0,0,0,.85,6.06l20.86,20.86,16-16L585,795.48Z"/></g><path class="cls-13" d="M679.19,723.5a5.08,5.08,0,0,0-5.59-1.08l-26.81,11.49,56.46,56.46,11.49-26.81a5.08,5.08,0,0,0-1.08-5.59L679.19,723.5Z"/><path class="cls-10" d="M679.19,723.5a5.08,5.08,0,0,0-5.59-1.08l-26.81,11.49,28,28,21.41-21.41-17-17Z"/><path class="cls-16" d="M799.21,629.07a5.08,5.08,0,0,1-3.59-8.67l16.25-16.25a5.08,5.08,0,1,1,7.18,7.18L802.8,627.58a5.06,5.06,0,0,1-3.59,1.49Z"/></svg>