<svg id="Layer_1" data-name="Layer 1" xmlns="http://www.w3.org/2000/svg" xmlns:xlink="http://www.w3.org/1999/xlink" viewBox="0 0 1920 1080"><defs><style>.cls-1,.cls-2{fill:none;}.cls-2{clip-rule:evenodd;}.cls-3{fill:#733791;}.cls-4{fill:#500778;}.cls-5{fill:#400666;}.cls-6{fill:#939598;}.cls-7{fill:#6d6e71;}.cls-8{fill:#005fc8;}.cls-9{fill:#ffa57d;}.cls-10{fill:#4187d7;}.cls-11{fill:#ffb692;}.cls-12{clip-path:url(#clip-path);}.cls-13{fill:#00377d;}.cls-14{fill:#00a499;}.cls-15{fill:#f99067;}.cls-16{fill:#231f20;}.cls-17{fill:#fff;}.cls-18{fill:#41b9b4;}.cls-19{fill:#754c29;}.cls-20{fill:#ff9141;}.cls-21{clip-path:url(#clip-path-2);}.cls-22{clip-path:url(#clip-path-3);}.cls-23{clip-path:url(#clip-path-4);}.cls-24{clip-path:url(#clip-path-5);}.cls-25{clip-path:url(#clip-path-6);}.cls-26{clip-path:url(#clip-path-7);}.cls-27{clip-path:url(#clip-path-8);}.cls-28{clip-path:url(#clip-path-9);}.cls-29{clip-path:url(#clip-path-10);}.cls-30{clip-path:url(#clip-path-11);}.cls-31{clip-path:url(#clip-path-12);}.cls-32{clip-path:url(#clip-path-13);}.cls-33{clip-path:url(#clip-path-14);}.cls-34{clip-path:url(#clip-path-15);}.cls-35{clip-path:url(#clip-path-16);}.cls-36{clip-path:url(#clip-path-17);}.cls-37{clip-path:url(#clip-path-18);}.cls-38{clip-path:url(#clip-path-19);}.cls-39{clip-path:url(#clip-path-20);}.cls-40{clip-path:url(#clip-path-21);}.cls-41{clip-path:url(#clip-path-22);}.cls-42{clip-path:url(#clip-path-23);}.cls-43{clip-path:url(#clip-path-24);}.cls-44{clip-path:url(#clip-path-25);}.cls-45{clip-path:url(#clip-path-26);}.cls-46{clip-path:url(#clip-path-27);}.cls-47{clip-path:url(#clip-path-28);}.cls-48{clip-path:url(#clip-path-29);}.cls-49{clip-path:url(#clip-path-30);}.cls-50{clip-path:url(#clip-path-31);}.cls-51{clip-path:url(#clip-path-32);}.cls-52{clip-path:url(#clip-path-33);}.cls-53{clip-path:url(#clip-path-34);}.cls-54{clip-path:url(#clip-path-35);}.cls-55{clip-path:url(#clip-path-36);}.cls-56{clip-path:url(#clip-path-37);}.cls-57{clip-path:url(#clip-path-38);}.cls-58{clip-path:url(#clip-path-39);}.cls-59{clip-path:url(#clip-path-40);}.cls-60{clip-path:url(#clip-path-41);}.cls-61{clip-path:url(#clip-path-42);}.cls-62{clip-path:url(#clip-path-43);}.cls-63{clip-path:url(#clip-path-44);}.cls-64{clip-path:url(#clip-path-45);}.cls-65{clip-path:url(#clip-path-46);}.cls-66{clip-path:url(#clip-path-47);}.cls-67{clip-path:url(#clip-path-48);}.cls-68{clip-path:url(#clip-path-49);}.cls-69{clip-path:url(#clip-path-50);}.cls-70{clip-path:url(#clip-path-51);}.cls-71{clip-path:url(#clip-path-52);}.cls-72{clip-path:url(#clip-path-53);}.cls-73{clip-path:url(#clip-path-54);}.cls-74{clip-path:url(#clip-path-55);}.cls-75{clip-path:url(#clip-path-56);}.cls-76{clip-path:url(#clip-path-57);}.cls-77{clip-path:url(#clip-path-58);}.cls-78{clip-path:url(#clip-path-59);}.cls-79{clip-path:url(#clip-path-60);}.cls-80{clip-path:url(#clip-path-61);}.cls-81{clip-path:url(#clip-path-62);}.cls-82{clip-path:url(#clip-path-63);}.cls-83{clip-path:url(#clip-path-64);}.cls-84{clip-path:url(#clip-path-65);}.cls-85{clip-path:url(#clip-path-66);}.cls-86{clip-path:url(#clip-path-67);}.cls-87{clip-path:url(#clip-path-68);}.cls-88{clip-path:url(#clip-path-69);}.cls-89{clip-path:url(#clip-path-70);}.cls-90{clip-path:url(#clip-path-71);}.cls-91{clip-path:url(#clip-path-72);}.cls-92{clip-path:url(#clip-path-73);}.cls-93{clip-path:url(#clip-path-74);}.cls-94{clip-path:url(#clip-path-75);}.cls-95{clip-path:url(#clip-path-76);}.cls-96{clip-path:url(#clip-path-77);}.cls-97{clip-path:url(#clip-path-78);}.cls-98{clip-path:url(#clip-path-79);}.cls-99{clip-path:url(#clip-path-80);}.cls-100{clip-path:url(#clip-path-81);}.cls-101{clip-path:url(#clip-path-82);}.cls-102{clip-path:url(#clip-path-83);}.cls-103{clip-path:url(#clip-path-84);}.cls-104{clip-path:url(#clip-path-85);}.cls-105{clip-path:url(#clip-path-86);}.cls-106{clip-path:url(#clip-path-87);}.cls-107{clip-path:url(#clip-path-88);}.cls-108{clip-path:url(#clip-path-89);}.cls-109{clip-path:url(#clip-path-90);}.cls-110{clip-path:url(#clip-path-91);}.cls-111{clip-path:url(#clip-path-92);}.cls-112{clip-path:url(#clip-path-93);}.cls-113{clip-path:url(#clip-path-94);}.cls-114{clip-path:url(#clip-path-95);}.cls-115{clip-path:url(#clip-path-96);}.cls-116{clip-path:url(#clip-path-97);}.cls-117{clip-path:url(#clip-path-98);}.cls-118{clip-path:url(#clip-path-99);}.cls-119{clip-path:url(#clip-path-100);}.cls-120{clip-path:url(#clip-path-101);}.cls-121{clip-path:url(#clip-path-102);}.cls-122{clip-path:url(#clip-path-103);}.cls-123{clip-path:url(#clip-path-104);}.cls-124{clip-path:url(#clip-path-105);}.cls-125{clip-path:url(#clip-path-106);}.cls-126{clip-path:url(#clip-path-107);}.cls-127{clip-path:url(#clip-path-108);}.cls-128{clip-path:url(#clip-path-109);}.cls-129{clip-path:url(#clip-path-110);}.cls-130{clip-path:url(#clip-path-111);}.cls-131{clip-path:url(#clip-path-112);}.cls-132{clip-path:url(#clip-path-113);}.cls-133{clip-path:url(#clip-path-114);}.cls-134{clip-path:url(#clip-path-115);}.cls-135{clip-path:url(#clip-path-116);}.cls-136{clip-path:url(#clip-path-117);}.cls-137{clip-path:url(#clip-path-118);}.cls-138{clip-path:url(#clip-path-119);}.cls-139{clip-path:url(#clip-path-120);}.cls-140{clip-path:url(#clip-path-121);}.cls-141{clip-path:url(#clip-path-122);}.cls-142{clip-path:url(#clip-path-123);}.cls-143{clip-path:url(#clip-path-124);}.cls-144{clip-path:url(#clip-path-125);}.cls-145{clip-path:url(#clip-path-126);}.cls-146{clip-path:url(#clip-path-127);}.cls-147{clip-path:url(#clip-path-128);}.cls-148{clip-path:url(#clip-path-129);}.cls-149{clip-path:url(#clip-path-130);}.cls-150{clip-path:url(#clip-path-131);}.cls-151{clip-path:url(#clip-path-132);}.cls-152{clip-path:url(#clip-path-133);}.cls-153{clip-path:url(#clip-path-134);}.cls-154{clip-path:url(#clip-path-135);}.cls-155{clip-path:url(#clip-path-136);}.cls-156{clip-path:url(#clip-path-137);}.cls-157{clip-path:url(#clip-path-138);}.cls-158{clip-path:url(#clip-path-139);}.cls-159{clip-path:url(#clip-path-140);}.cls-160{clip-path:url(#clip-path-141);}.cls-161{clip-path:url(#clip-path-142);}.cls-162{clip-path:url(#clip-path-143);}.cls-163{clip-path:url(#clip-path-144);}.cls-164{clip-path:url(#clip-path-145);}.cls-165{clip-path:url(#clip-path-146);}.cls-166{clip-path:url(#clip-path-147);}.cls-167{clip-path:url(#clip-path-148);}.cls-168{clip-path:url(#clip-path-149);}.cls-169{clip-path:url(#clip-path-150);}.cls-170{clip-path:url(#clip-path-151);}.cls-171{clip-path:url(#clip-path-152);}.cls-172{clip-path:url(#clip-path-153);}.cls-173{clip-path:url(#clip-path-154);}.cls-174{clip-path:url(#clip-path-155);}.cls-175{clip-path:url(#clip-path-156);}.cls-176{clip-path:url(#clip-path-157);}.cls-177{clip-path:url(#clip-path-158);}.cls-178{clip-path:url(#clip-path-159);}.cls-179{clip-path:url(#clip-path-160);}.cls-180{clip-path:url(#clip-path-161);}.cls-181{clip-path:url(#clip-path-162);}.cls-182{clip-path:url(#clip-path-163);}.cls-183{clip-path:url(#clip-path-164);}.cls-184{clip-path:url(#clip-path-165);}.cls-185{clip-path:url(#clip-path-166);}.cls-186{clip-path:url(#clip-path-167);}.cls-187{clip-path:url(#clip-path-168);}.cls-188{clip-path:url(#clip-path-169);}.cls-189{clip-path:url(#clip-path-170);}.cls-190{clip-path:url(#clip-path-171);}.cls-191{clip-path:url(#clip-path-172);}.cls-192{clip-path:url(#clip-path-173);}.cls-193{clip-path:url(#clip-path-174);}.cls-194{clip-path:url(#clip-path-175);}.cls-195{clip-path:url(#clip-path-176);}.cls-196{clip-path:url(#clip-path-177);}.cls-197{clip-path:url(#clip-path-178);}.cls-198{clip-path:url(#clip-path-179);}.cls-199{clip-path:url(#clip-path-180);}.cls-200{clip-path:url(#clip-path-181);}.cls-201{clip-path:url(#clip-path-182);}.cls-202{clip-path:url(#clip-path-183);}.cls-203{clip-path:url(#clip-path-184);}.cls-204{clip-path:url(#clip-path-185);}.cls-205{clip-path:url(#clip-path-186);}.cls-206{clip-path:url(#clip-path-187);}.cls-207{clip-path:url(#clip-path-188);}.cls-208{clip-path:url(#clip-path-189);}.cls-209{clip-path:url(#clip-path-190);}.cls-210{clip-path:url(#clip-path-191);}.cls-211{clip-path:url(#clip-path-192);}.cls-212{clip-path:url(#clip-path-193);}.cls-213{clip-path:url(#clip-path-194);}.cls-214{clip-path:url(#clip-path-195);}.cls-215{clip-path:url(#clip-path-196);}.cls-216{clip-path:url(#clip-path-197);}.cls-217{clip-path:url(#clip-path-198);}.cls-218{clip-path:url(#clip-path-199);}.cls-219{clip-path:url(#clip-path-200);}.cls-220{clip-path:url(#clip-path-201);}.cls-221{clip-path:url(#clip-path-202);}.cls-222{clip-path:url(#clip-path-203);}.cls-223{clip-path:url(#clip-path-204);}.cls-224{clip-path:url(#clip-path-205);}.cls-225{clip-path:url(#clip-path-206);}.cls-226{clip-path:url(#clip-path-207);}.cls-227{clip-path:url(#clip-path-208);}.cls-228{clip-path:url(#clip-path-209);}.cls-229{clip-path:url(#clip-path-210);}.cls-230{clip-path:url(#clip-path-211);}.cls-231{clip-path:url(#clip-path-212);}.cls-232{clip-path:url(#clip-path-213);}.cls-233{clip-path:url(#clip-path-214);}.cls-234{clip-path:url(#clip-path-215);}.cls-235{clip-path:url(#clip-path-216);}.cls-236{clip-path:url(#clip-path-217);}.cls-237{clip-path:url(#clip-path-218);}.cls-238{clip-path:url(#clip-path-219);}.cls-239{clip-path:url(#clip-path-220);}.cls-240{clip-path:url(#clip-path-221);}.cls-241{clip-path:url(#clip-path-222);}.cls-242{clip-path:url(#clip-path-223);}.cls-243{clip-path:url(#clip-path-224);}.cls-244{clip-path:url(#clip-path-225);}.cls-245{clip-path:url(#clip-path-226);}.cls-246{clip-path:url(#clip-path-227);}.cls-247{clip-path:url(#clip-path-228);}.cls-248{clip-path:url(#clip-path-229);}.cls-249{clip-path:url(#clip-path-230);}.cls-250{clip-path:url(#clip-path-231);}.cls-251{clip-path:url(#clip-path-232);}.cls-252{clip-path:url(#clip-path-233);}.cls-253{clip-path:url(#clip-path-234);}.cls-254{clip-path:url(#clip-path-235);}.cls-255{clip-path:url(#clip-path-236);}.cls-256{clip-path:url(#clip-path-237);}.cls-257{clip-path:url(#clip-path-238);}</style><clipPath id="clip-path"><path class="cls-1" d="M1062.15,257.28,1072.94,232a110.76,110.76,0,0,0-67.69-8.78c-1-3.59-1.54-5.57-1.54-5.57l-24.85,14a110.46,110.46,0,0,0-14.72,8.28l-3.24,1.82L918.1,217.64s-.94,3.35-2.56,9.28a110.8,110.8,0,0,0-68.08,8.71l10.79,25.28a83.19,83.19,0,0,1,50.17-7.4c-13.15,50-35.76,140.81-42.1,196.95H1055.5c-6.5-57.56-30.1-151.56-43.08-200.66a83.1,83.1,0,0,1,49.73,7.47Z"/></clipPath><clipPath id="clip-path-2"><polygon class="cls-2" points="2752.91 1895.85 2752.91 1966.85 3244.78 2250.83 3736.65 1966.85 3736.65 1895.85 3244.78 1611.87 2752.91 1895.85"/></clipPath><clipPath id="clip-path-3"><polygon class="cls-2" points="3244.78 2250.83 2752.91 1966.85 2752.91 1895.85 3244.78 2179.83 3244.78 2250.83"/></clipPath><clipPath id="clip-path-4"><polygon class="cls-2" points="3490.72 2250.83 3736.65 2250.83 3736.65 1895.85 3244.78 1895.85 3244.78 2250.83 3490.72 2250.83"/></clipPath><clipPath id="clip-path-5"><polygon class="cls-2" points="3306.27 2002.34 3060.33 1860.35 3060.33 1647.37 3306.27 1789.36 3306.27 2002.34"/></clipPath><clipPath id="clip-path-6"><polygon class="cls-2" points="3407.22 1635.14 3306.27 1789.34 3306.27 2002.32 3490.72 1895.83 3490.72 1682.87 3407.22 1635.14"/></clipPath><clipPath id="clip-path-7"><polygon class="cls-2" points="3043.56 1672.33 3152.5 1487.6 3407.22 1635.14 3289.49 1814.32 3043.56 1672.33"/></clipPath><clipPath id="clip-path-8"><polygon class="cls-2" points="3367.71 1966.85 3367.71 1824.84 3429.23 1789.36 3429.23 1931.33 3367.71 1966.85"/></clipPath><clipPath id="clip-path-9"><polygon class="cls-2" points="3214.04 1806.97 3214.04 1877.97 3275.52 1913.47 3275.52 1842.47 3214.04 1806.97"/></clipPath><clipPath id="clip-path-10"><polygon class="cls-2" points="3091.3 1736.11 3091.3 1807.11 3152.78 1842.6 3152.78 1771.61 3091.3 1736.11"/></clipPath><clipPath id="clip-path-11"><rect class="cls-1" x="2752.91" y="1423.18" width="983.74" height="827.65"/></clipPath><clipPath id="clip-path-12"><path class="cls-2" d="M3009.49,1932.63H2840.3s-25.22,113.66,32.53,213.91h21.57s-98.92-175.77,30.49-175.77,30.49,175.77,30.49,175.77H2977c57.74-100.26,32.53-213.91,32.53-213.91"/></clipPath><clipPath id="clip-path-13"><path class="cls-2" d="M2987.29,1730.39h-.19a99.33,99.33,0,0,0-93.91,67l.47-.1a99.32,99.32,0,0,1,93.63-66.92"/></clipPath><clipPath id="clip-path-14"><path class="cls-2" d="M2991.37,1730.49c.91,0,1.82,0,2.73.07-.9,0-1.82,0-2.73-.07"/></clipPath><clipPath id="clip-path-15"><path class="cls-2" d="M2987.35,1755a27.82,27.82,0,0,1,3.41.25,28,28,0,0,0-3.21-.27l-.2,0"/></clipPath><clipPath id="clip-path-16"><path class="cls-2" d="M2987.54,1730.38h-.24a33.32,33.32,0,0,1,4.08.32,32.85,32.85,0,0,0-3.83-.33"/></clipPath><clipPath id="clip-path-17"><path class="cls-2" d="M2991.91,1755.11c-.46,0-.93,0-1.4,0l1.4,0"/></clipPath><clipPath id="clip-path-18"><path class="cls-2" d="M2923,1791.41l-29.32,5.91,0,.09,29.79-6a74.73,74.73,0,0,1,63.93-36.41h-.25a74.74,74.74,0,0,0-64.12,36.42"/></clipPath><clipPath id="clip-path-19"><path class="cls-2" d="M3030.07,1739.94a98.8,98.8,0,0,0-37.81-9.42,98.76,98.76,0,0,1,37.74,9.59Z"/></clipPath><clipPath id="clip-path-20"><path class="cls-2" d="M3030,1740.11a98.76,98.76,0,0,0-37.74-9.59l-.89,0c-1.35-.06-2.71-.1-4.08-.1a99.32,99.32,0,0,0-93.63,66.92l29.32-5.91A74.73,74.73,0,0,1,2987.1,1755h.44c1,0,2,0,3,.09h.46a74.21,74.21,0,0,1,29.42,7.53Z"/></clipPath><clipPath id="clip-path-21"><path class="cls-2" d="M2863,1730.38a98.91,98.91,0,0,0-42.54,9.56l9.68,22.68a74.62,74.62,0,0,1,97,28.79l29.79,6a99.33,99.33,0,0,0-93.91-67"/></clipPath><clipPath id="clip-path-22"><path class="cls-2" d="M2763.7,1829.7a99.29,99.29,0,0,0,54.62,88.68l8-23.65a74.66,74.66,0,0,1,3.85-132.11l-9.68-22.68a99.31,99.31,0,0,0-56.78,89.75"/></clipPath><clipPath id="clip-path-23"><path class="cls-2" d="M2840.44,1656.45s2.22,38.32,19.87,51l-2.85-24.47Z"/></clipPath><clipPath id="clip-path-24"><path class="cls-2" d="M3010.35,1656.45s-2.22,38.32-19.87,51l2.85-24.47Z"/></clipPath><clipPath id="clip-path-25"><path class="cls-2" d="M2925.39,1745.55l-38.65-21.75s-38.28,136.5-46.45,208.83h85.09Z"/></clipPath><clipPath id="clip-path-26"><path class="cls-2" d="M2924.89,1745.55l38.65-21.75s38.28,136.5,46.44,208.83h-85.09Z"/></clipPath><clipPath id="clip-path-27"><path class="cls-2" d="M2925.39,1740.2h-30.18s13.48,30.31,30.18,34c16.69-3.64,30.18-34,30.18-34Z"/></clipPath><clipPath id="clip-path-28"><path class="cls-2" d="M2925.39,1719l-30.18,21.17s15.89,20.64,30.18,20.64c4.39,0,19.7-6.63,30.18-20.64Z"/></clipPath><clipPath id="clip-path-29"><path class="cls-2" d="M2859.55,1656.45a13.52,13.52,0,1,0,0,19.12,13.52,13.52,0,0,0,0-19.12"/></clipPath><clipPath id="clip-path-30"><path class="cls-2" d="M3010.35,1656.45a13.52,13.52,0,1,0,0,19.12,13.52,13.52,0,0,0,0-19.12"/></clipPath><clipPath id="clip-path-31"><path class="cls-2" d="M2940.71,1745.57c20.92-7.23,42.66-17.84,52.7-37.56,6.94-13.63,7.19-29.55,7.34-44.85.1-11,.2-22.2-1.46-33a80.56,80.56,0,0,0-3.84-15.41c-6.89-18.91-22.48-34.29-41.22-41.65a77,77,0,0,0-28.82-5.19L2912,1684.47l13.38,64.31c.34,0,.67,0,1,0,4.91-.12,9.66-1.64,14.3-3.24"/></clipPath><clipPath id="clip-path-32"><path class="cls-2" d="M2895.69,1573.93c-14,5.73-26.6,15.54-34.29,28.58-10.39,17.64-11.08,39.16-11,59.63.08,18.65.89,39.38,12.92,54.71s33.42,25.37,51.74,30.22a44.49,44.49,0,0,0,10.74,1.71l-5.47-65.8,16-5.47L2925.8,1567.9a81.81,81.81,0,0,0-30.11,6"/></clipPath><clipPath id="clip-path-33"><path class="cls-2" d="M2903.9,1646.89a5.68,5.68,0,1,0-5.68,5.68,5.68,5.68,0,0,0,5.68-5.68"/></clipPath><clipPath id="clip-path-34"><path class="cls-2" d="M2960.58,1646.89a5.68,5.68,0,1,0-5.68,5.68,5.68,5.68,0,0,0,5.68-5.68"/></clipPath><clipPath id="clip-path-35"><path class="cls-2" d="M2979.67,1672.33c0,3.49-5.59,6.32-12.5,6.32s-12.5-2.83-12.5-6.32,5.6-6.32,12.5-6.32,12.5,2.83,12.5,6.32"/></clipPath><clipPath id="clip-path-36"><path class="cls-2" d="M2873.84,1672.33c0,3.49,5.59,6.32,12.5,6.32s12.5-2.83,12.5-6.32-5.59-6.32-12.5-6.32-12.5,2.83-12.5,6.32"/></clipPath><clipPath id="clip-path-37"><polygon class="cls-2" points="2919.93 1682.94 2942.42 1682.94 2935.93 1677.52 2919.93 1682.94"/></clipPath><clipPath id="clip-path-38"><path class="cls-2" d="M2992.31,1894.73h31.5l8,23.65c-7,12.09-22,14.25-22,14.25l-4.23-29.07h-12.82a4.29,4.29,0,0,1-.45,0,4.44,4.44,0,1,1,0-8.88"/></clipPath><clipPath id="clip-path-39"><path class="cls-2" d="M2959,1557.38v.63c-1.4,2.61-14.12,25.71-31.09,38.37-6.36,4.74-13.31,8-20.49,8.19h43c5.45.12,8.6,2.1,10.92,4.58,4.22,4.53,5.6,10.79,12.66,10.79a14.59,14.59,0,0,1,10.18,3.57c4.72,4.25,5.2,10.78,5.2,10.78V1666h11.8q0-1.94,0-3.86c0-3.18,0-6.38-.06-9.59a13.44,13.44,0,0,1,7.64,2.65l1.52,1.24s0,0,0,0l.19.23a272.17,272.17,0,0,0,1.88-29.41c0-34.92-22.12-60-53.41-69.85"/></clipPath><clipPath id="clip-path-40"><path class="cls-2" d="M2939.56,1551.59a138.83,138.83,0,0,0-14.46,0c-2.54.13-5.09.32-7.62.6a103.49,103.49,0,0,0-11,1.79c-.34.08-1.08.36-1.84.61l-1.94.36h0a94.45,94.45,0,0,0-16.26,4.67c-28.22,11-47.71,35.09-47.66,67.84,0,6.94.65,19.13,1.67,27.6,0,.48,0,.92,0,1.4l.15-.12c0,.17,0,.37.06.53.12-.13.21-.28.34-.41a13.29,13.29,0,0,1,8.26-3.8c.41,0,.81-.09,1.22-.07-.06,3.2-.07,6.4-.06,9.57q0,1.92,0,3.86h11.8v-31.72a19.1,19.1,0,0,1,2.08-6.74l2.46-3.38.06-.08c2.29-2.34,5.72-3.53,10.78-4.16s7-6.29,11.45-10.56a16.9,16.9,0,0,1,12.13-4.82s27,.1,30.85,0c38.27-.86,53.1-26.93,58.85-41.24,1.28-3.18,2.11-5.79,2.64-7.4a30.72,30.72,0,0,0,1-4.32Z"/></clipPath><clipPath id="clip-path-41"><path class="cls-2" d="M2989.36,1666c0,22.32-40.76,22.93-58.52,22.13h-10.08c-17.76.79-58.52.18-58.52-22.13h-11.8c.21,17.61,1.68,36.57,12.89,50.84,11.95,15.23,33.42,25.37,51.74,30.22a34.48,34.48,0,0,0,21.48,0c18.31-4.86,39.79-15,51.74-30.22,11.2-14.27,12.67-33.24,12.89-50.84h-11.8Z"/></clipPath><clipPath id="clip-path-42"><path class="cls-2" d="M2925.39,1731.73a34.8,34.8,0,0,0,34.8-34.8H2890.6a34.8,34.8,0,0,0,34.8,34.8"/></clipPath><clipPath id="clip-path-43"><path class="cls-2" d="M3030,1740.11l-9.61,22.51a74.21,74.21,0,0,0-29.42-7.53,74.68,74.68,0,0,1,32.83,139.64l8,23.65a99.32,99.32,0,0,0-1.79-178.27"/></clipPath><clipPath id="clip-path-44"><path class="cls-2" d="M2902.71,1664.69a1.7,1.7,0,1,0-1.71,1.7,1.7,1.7,0,0,0,1.71-1.7"/></clipPath><clipPath id="clip-path-45"><path class="cls-2" d="M2889,1659.22a1.7,1.7,0,1,0-1.7,1.7,1.7,1.7,0,0,0,1.7-1.7"/></clipPath><clipPath id="clip-path-46"><path class="cls-2" d="M2913.65,1659.22a1.7,1.7,0,1,0-1.7,1.7,1.7,1.7,0,0,0,1.7-1.7"/></clipPath><clipPath id="clip-path-47"><path class="cls-2" d="M2891.78,1667.42a1.7,1.7,0,1,0-1.71,1.7,1.71,1.71,0,0,0,1.71-1.7"/></clipPath><clipPath id="clip-path-48"><path class="cls-2" d="M2883.57,1672.89a1.7,1.7,0,1,0-1.71,1.7,1.71,1.71,0,0,0,1.71-1.7"/></clipPath><clipPath id="clip-path-49"><path class="cls-2" d="M2908.18,1672.89a1.7,1.7,0,1,0-1.7,1.7,1.71,1.71,0,0,0,1.7-1.7"/></clipPath><clipPath id="clip-path-50"><path class="cls-2" d="M2954.61,1664.69a1.7,1.7,0,1,1,1.7,1.7,1.7,1.7,0,0,1-1.7-1.7"/></clipPath><clipPath id="clip-path-51"><path class="cls-2" d="M2968.28,1659.22a1.7,1.7,0,1,1,1.7,1.7,1.7,1.7,0,0,1-1.7-1.7"/></clipPath><clipPath id="clip-path-52"><path class="cls-2" d="M2943.68,1659.22a1.7,1.7,0,1,1,1.7,1.7,1.7,1.7,0,0,1-1.7-1.7"/></clipPath><clipPath id="clip-path-53"><path class="cls-2" d="M2965.55,1667.42a1.7,1.7,0,1,1,1.71,1.7,1.71,1.71,0,0,1-1.71-1.7"/></clipPath><clipPath id="clip-path-54"><path class="cls-2" d="M2973.75,1672.89a1.7,1.7,0,1,1,1.7,1.7,1.71,1.71,0,0,1-1.7-1.7"/></clipPath><clipPath id="clip-path-55"><path class="cls-2" d="M2949.14,1672.89a1.7,1.7,0,1,1,1.7,1.7,1.71,1.71,0,0,1-1.7-1.7"/></clipPath><clipPath id="clip-path-56"><path class="cls-2" d="M2840.3,1932.63s-25.22,113.66,32.53,213.91h21.57s-98.92-175.77,30.49-175.77v-38.15Z"/></clipPath><clipPath id="clip-path-57"><path class="cls-2" d="M3009.49,1932.63s25.22,113.66-32.53,213.91h-21.57s98.92-175.77-30.49-175.77v-38.15Z"/></clipPath><clipPath id="clip-path-58"><path class="cls-2" d="M2900.38,2149.49a7.84,7.84,0,0,0-6.13-2.95h-21.42s-13.76,6.2-21.08-1.82a10.79,10.79,0,1,0-8.43,17.52h50.92a7.85,7.85,0,0,0,6.13-12.76"/></clipPath><clipPath id="clip-path-59"><path class="cls-2" d="M2949.42,2149.49a7.84,7.84,0,0,1,6.13-2.95H2977s13.76,6.2,21.08-1.82a10.79,10.79,0,1,1,8.43,17.52h-50.92a7.85,7.85,0,0,1-6.13-12.76"/></clipPath><clipPath id="clip-path-60"><path class="cls-2" d="M2857.8,1894.73h-31.5l-8,23.65c7,12.09,22,14.25,22,14.25l4.23-29.07h12.82a4.29,4.29,0,0,0,.45,0,4.44,4.44,0,1,0,0-8.88"/></clipPath><clipPath id="clip-path-61"><rect class="cls-1" x="3527.65" y="1583.35" width="92.62" height="181.23"/></clipPath><clipPath id="clip-path-62"><rect class="cls-1" x="3616.32" y="1583.35" width="92.6" height="181.28"/></clipPath><clipPath id="clip-path-63"><path class="cls-2" d="M3696.53,1945.94H3539.84s-23.35,105.26,30.12,198.11h20s-91.61-162.78,28.24-162.78,28.24,162.78,28.24,162.78h20c53.48-92.85,30.12-198.11,30.12-198.11"/></clipPath><clipPath id="clip-path-64"><path class="cls-2" d="M3539.84,1945.94s-23.35,105.26,30.12,198.11h20s-91.61-162.78,28.24-162.78v-35.33Z"/></clipPath><clipPath id="clip-path-65"><path class="cls-2" d="M3696.53,1945.94s23.35,105.26-30.12,198.11h-20s91.61-162.78-28.24-162.78v-35.33Z"/></clipPath><clipPath id="clip-path-66"><path class="cls-2" d="M3595.48,2146.78a7.26,7.26,0,0,0-5.68-2.73H3570s-12.75,5.74-19.52-1.68a10,10,0,1,0-7.8,16.23h47.16a7.27,7.27,0,0,0,5.68-11.81"/></clipPath><clipPath id="clip-path-67"><path class="cls-2" d="M3640.9,2146.78a7.26,7.26,0,0,1,5.68-2.73h19.83s12.75,5.74,19.52-1.68a10,10,0,1,1,7.8,16.23h-47.16a7.27,7.27,0,0,1-5.68-11.81"/></clipPath><clipPath id="clip-path-68"><path class="cls-2" d="M3708.92,1674a90.64,90.64,0,0,0-90.64-90.64c-.66,0-1.31,0-2,0l-23.15,76.29,23.15,104.88c.66,0,1.3.05,2,.05a90.64,90.64,0,0,0,90.64-90.64"/></clipPath><clipPath id="clip-path-69"><path class="cls-2" d="M3528.61,1687.23s4.49,54.11-27.67,61.4c0,0,29.88,43.12,97.48,19.56l-9.73-45.54Z"/></clipPath><clipPath id="clip-path-70"><path class="cls-2" d="M3707.83,1687.23s-4.49,54.11,27.67,61.4c0,0-29.88,43.12-97.48,19.56l9.73-45.54Z"/></clipPath><clipPath id="clip-path-71"><path class="cls-2" d="M3469.41,1841.23a92.94,92.94,0,0,0-.51,9.62,91.72,91.72,0,0,0,50.46,81.92l7.37-21.85a68.84,68.84,0,0,1-34.42-69.7Z"/></clipPath><clipPath id="clip-path-72"><path class="cls-2" d="M3585.23,1762.46l-4.67,22.35a69.32,69.32,0,0,1,39.32,30.68l27.52,5.54a91.94,91.94,0,0,0-62.17-58.57"/></clipPath><clipPath id="clip-path-73"><path class="cls-2" d="M3560.65,1759.11a91.75,91.75,0,0,0-91.24,82.12h22.91a68.9,68.9,0,0,1,88.24-56.42l4.67-22.35a91.75,91.75,0,0,0-24.58-3.35"/></clipPath><clipPath id="clip-path-74"><path class="cls-2" d="M3617.82,1773.12l35.7-20.09s35.36,126.1,42.91,192.91h-78.61Z"/></clipPath><clipPath id="clip-path-75"><path class="cls-2" d="M3626.49,1784.38a91.59,91.59,0,0,0-15.53,24.67l18.28,16.26a68.6,68.6,0,0,1,14.58-26.23l.47-.5-20.66-3.65Z"/></clipPath><clipPath id="clip-path-76"><path class="cls-2" d="M3739.47,1762c-19.21-4.62-37.7-10.82-57.76-7.81a91.36,91.36,0,0,0-54.88,29.74l-.34.4-2.87,10.55,20.66,3.65a69.49,69.49,0,0,1,54.47-22.54c22.68,1.09,42.46,12.24,65.86,8.73a91.79,91.79,0,0,0,26.05-8l-10.57-20.21a69.51,69.51,0,0,1-40.63,5.48"/></clipPath><clipPath id="clip-path-77"><path class="cls-2" d="M3618.28,1773.12l-35.7-20.09s-35.36,126.1-42.91,192.91h78.61Z"/></clipPath><clipPath id="clip-path-78"><path class="cls-2" d="M3590.41,1768.18h6.33l-8-11.71-19.57,13.92,22.73,14-3.16,23,29.59,77.86v-85.74c-15.42-3.37-27.88-31.37-27.88-31.37"/></clipPath><clipPath id="clip-path-79"><path class="cls-2" d="M3646.16,1768.18h-6.33l8-11.71,19.57,13.92-22.73,14,3.16,23-29.59,77.86v-85.74c15.42-3.37,27.88-31.37,27.88-31.37"/></clipPath><clipPath id="clip-path-80"><path class="cls-2" d="M3618.28,1768.18h-27.88s12.46,28,27.88,31.37c15.42-3.37,27.88-31.37,27.88-31.37Z"/></clipPath><clipPath id="clip-path-81"><path class="cls-2" d="M3618.28,1748.63l-27.88,19.56s14.68,19.07,27.88,19.07c4.06,0,18.2-6.12,27.88-19.07Z"/></clipPath><clipPath id="clip-path-82"><path class="cls-2" d="M3557.46,1690.82a12.49,12.49,0,1,0,0,17.66,12.49,12.49,0,0,0,0-17.66"/></clipPath><clipPath id="clip-path-83"><path class="cls-2" d="M3696.76,1690.82a12.49,12.49,0,1,0,0,17.66,12.49,12.49,0,0,0,0-17.66"/></clipPath><clipPath id="clip-path-84"><path class="cls-2" d="M3632.43,1773.14c19.32-6.67,39.41-16.48,48.69-34.69,6.41-12.59,6.64-27.3,6.78-41.43.1-10.17.18-20.51-1.35-30.52a74.36,74.36,0,0,0-3.55-14.23c-6.36-17.47-20.77-31.68-38.08-38.47a71.17,71.17,0,0,0-26.62-4.79l-12.36,107.69,12.36,59.41c.31,0,.62,0,.93,0,4.53-.11,8.93-1.51,13.21-3"/></clipPath><clipPath id="clip-path-85"><path class="cls-2" d="M3590.84,1614.59c-12.95,5.3-24.57,14.35-31.67,26.4-9.6,16.29-10.24,36.18-10.16,55.09.07,17.23.82,36.38,11.93,50.54s30.88,23.43,47.79,27.92a41.13,41.13,0,0,0,9.92,1.58l-5.05-60.78,14.78-5.05L3618.66,1609a75.59,75.59,0,0,0-27.82,5.57"/></clipPath><clipPath id="clip-path-86"><path class="cls-2" d="M3598.42,1682a5.25,5.25,0,1,0-5.25,5.25,5.25,5.25,0,0,0,5.25-5.25"/></clipPath><clipPath id="clip-path-87"><path class="cls-2" d="M3650.78,1682a5.25,5.25,0,1,0-5.25,5.25,5.25,5.25,0,0,0,5.25-5.25"/></clipPath><clipPath id="clip-path-88"><path class="cls-2" d="M3668.42,1705.49c0,3.23-5.17,5.84-11.54,5.84s-11.54-2.61-11.54-5.84,5.17-5.84,11.54-5.84,11.54,2.61,11.54,5.84"/></clipPath><clipPath id="clip-path-89"><path class="cls-2" d="M3570.66,1705.49c0,3.23,5.17,5.84,11.54,5.84s11.54-2.61,11.54-5.84-5.17-5.84-11.54-5.84-11.54,2.61-11.54,5.84"/></clipPath><clipPath id="clip-path-90"><polygon class="cls-2" points="3613.23 1715.29 3634.01 1715.29 3628.02 1710.28 3613.23 1715.29"/></clipPath><clipPath id="clip-path-91"><path class="cls-2" d="M3526.74,1910.93h29.1v8.16h-12.25l-3.91,26.85s-13.85-2-20.31-13.16Z"/></clipPath><clipPath id="clip-path-92"><path class="cls-2" d="M3555.84,1910.93a4.1,4.1,0,1,1-4.1,4.1,4.1,4.1,0,0,1,4.1-4.1"/></clipPath><clipPath id="clip-path-93"><path class="cls-2" d="M3846,1677.57a18.46,18.46,0,1,0-32.86,4.22h0l0,.07.1.14,6.55,9.69a68.7,68.7,0,0,1-39.77,64.88l10.57,20.21a91.4,91.4,0,0,0,28.82-21.74c16.44-18.49,23.06-40.44,22.13-63.35l4.42-14.12Z"/></clipPath><clipPath id="clip-path-94"><path class="cls-2" d="M3814.32,1633.09a4.21,4.21,0,0,0-4.21,4.21v39.35h8.42V1637.3a4.21,4.21,0,0,0-4.21-4.21"/></clipPath><clipPath id="clip-path-95"><path class="cls-2" d="M3834.75,1667.45h-25.65a1.52,1.52,0,0,0-1.5,1.19,22,22,0,0,0-.45,4.41,25.73,25.73,0,0,0,1.14,7.59c1.6,5.1,9.21,2.82,9.3-2.52a1.52,1.52,0,0,1,1.52-1.49h15.6v-.08h0c2.8,0,5.08-1.73,5.08-4.53s-2.27-4.57-5.08-4.57"/></clipPath><clipPath id="clip-path-96"><path class="cls-2" d="M3618.28,1760.36a32.14,32.14,0,0,0,32.14-32.14h-64.29a32.15,32.15,0,0,0,32.15,32.14"/></clipPath><clipPath id="clip-path-97"><path class="cls-2" d="M3619.26,1644.32s-22.51,29.66-85.35,47.36c0,0-15.15-100.46,85.35-90.09Z"/></clipPath><clipPath id="clip-path-98"><path class="cls-2" d="M3617.3,1644.32s22.51,29.66,85.35,47.36c0,0,15.15-101.71-85.35-91.34Z"/></clipPath><clipPath id="clip-path-99"><path class="cls-2" d="M5364.86,1786.16s-71.17-123.23-201.91-52.61c-143.17,77.33-41.57,221-41.57,221S5189.7,2048,5446.52,2030V2167.3s-380,70.95-471.62-212.8c-96.89-300.22,184.9-369.12,184.9-369.12s200-50.48,317.53,134.63Z"/></clipPath><clipPath id="clip-path-100"><path class="cls-2" d="M5816.51,1786.16s71.17-123.23,201.91-52.61c143.17,77.33,41.57,221,41.57,221S5991.67,2048,5734.85,2030V2167.3s380,70.95,471.62-212.8c96.89-300.22-184.9-369.12-184.9-369.12S5821.57,1534.9,5704,1720Z"/></clipPath><clipPath id="clip-path-101"><polygon class="cls-2" points="5590.8 1613.57 5098.68 1897.88 5098.68 1968.96 5590.8 2253.28 6082.93 1968.96 6082.93 1897.88 5590.8 1613.57"/></clipPath><clipPath id="clip-path-102"><polygon class="cls-2" points="5590.8 2253.28 5098.68 1968.96 5098.68 1897.88 5590.8 2182.2 5590.8 2253.28"/></clipPath><clipPath id="clip-path-103"><polygon class="cls-2" points="5590.8 2253.28 6082.93 1968.96 6082.93 1897.88 5590.8 2182.2 5590.8 2253.28"/></clipPath><clipPath id="clip-path-104"><polygon class="cls-2" points="5590.76 2253.69 5098.14 1969.09 5098.14 1897.94 5590.76 2182.54 5590.76 2253.69"/></clipPath><clipPath id="clip-path-105"><polygon class="cls-2" points="5837.07 2253.69 6083.39 2253.69 6083.39 1897.94 5590.76 1897.94 5590.76 2253.69 5837.07 2253.69"/></clipPath><clipPath id="clip-path-106"><polygon class="cls-2" points="5652.34 2004.66 5406.03 1862.36 5406.03 1648.9 5652.34 1791.21 5652.34 2004.66"/></clipPath><clipPath id="clip-path-107"><polygon class="cls-2" points="5753.45 1636.65 5652.34 1791.19 5652.34 2004.64 5837.07 1897.91 5837.07 1684.48 5753.45 1636.65"/></clipPath><clipPath id="clip-path-108"><polygon class="cls-2" points="5389.23 1673.92 5498.34 1488.78 5753.45 1636.65 5635.54 1816.23 5389.23 1673.92"/></clipPath><clipPath id="clip-path-109"><polygon class="cls-2" points="5713.88 1969.09 5713.88 1826.76 5775.5 1791.21 5775.5 1933.49 5713.88 1969.09"/></clipPath><clipPath id="clip-path-110"><polygon class="cls-2" points="5559.97 1808.86 5559.97 1880.02 5621.55 1915.59 5621.55 1844.44 5559.97 1808.86"/></clipPath><clipPath id="clip-path-111"><polygon class="cls-2" points="5437.04 1737.84 5437.04 1809 5498.62 1844.57 5498.62 1773.42 5437.04 1737.84"/></clipPath><clipPath id="clip-path-112"><rect class="cls-1" x="5098.14" y="1424.22" width="985.25" height="829.47"/></clipPath><clipPath id="clip-path-113"><path class="cls-2" d="M5322.51,1829.07h-93.33s-13.91,62.74,17.94,118.08H5259s-54.57-97,16.82-97,16.82,97,16.82,97h11.9c31.85-55.34,17.94-118.08,17.94-118.08"/></clipPath><clipPath id="clip-path-114"><path class="cls-2" d="M5310.26,1717.44h-.11a54.8,54.8,0,0,0-51.81,37l.26-.05a54.79,54.79,0,0,1,51.65-36.94"/></clipPath><clipPath id="clip-path-115"><path class="cls-2" d="M5312.51,1717.49l1.5,0c-.5,0-1,0-1.5,0"/></clipPath><clipPath id="clip-path-116"><path class="cls-2" d="M5310.29,1731a15.32,15.32,0,0,1,1.88.14,15.45,15.45,0,0,0-1.77-.15h-.11"/></clipPath><clipPath id="clip-path-117"><path class="cls-2" d="M5310.4,1717.43h-.13a18.38,18.38,0,0,1,2.25.18,18.12,18.12,0,0,0-2.12-.18"/></clipPath><clipPath id="clip-path-118"><path class="cls-2" d="M5312.81,1731.08l-.77,0,.77,0"/></clipPath><clipPath id="clip-path-119"><path class="cls-2" d="M5274.78,1751.12l-16.17,3.26,0,.05,16.44-3.31a41.22,41.22,0,0,1,35.27-20.1h-.14a41.22,41.22,0,0,0-35.37,20.1"/></clipPath><clipPath id="clip-path-120"><path class="cls-2" d="M5333.86,1722.71a54.47,54.47,0,0,0-20.86-5.2,54.45,54.45,0,0,1,20.82,5.29Z"/></clipPath><clipPath id="clip-path-121"><path class="cls-2" d="M5333.82,1722.8a54.45,54.45,0,0,0-20.82-5.29h-.49c-.75,0-1.5-.06-2.25-.06a54.79,54.79,0,0,0-51.65,36.94l16.17-3.26a41.22,41.22,0,0,1,35.37-20.1h.24c.55,0,1.1,0,1.64,0h.25a40.91,40.91,0,0,1,16.23,4.16Z"/></clipPath><clipPath id="clip-path-122"><path class="cls-2" d="M5241.7,1717.43a54.53,54.53,0,0,0-23.46,5.28l5.34,12.52a41.15,41.15,0,0,1,53.5,15.89l16.44,3.31a54.8,54.8,0,0,0-51.81-37"/></clipPath><clipPath id="clip-path-123"><path class="cls-2" d="M5186.92,1772.25a54.81,54.81,0,0,0,30.13,49l4.4-13.06a41.23,41.23,0,0,1,2.12-72.92l-5.34-12.52a54.82,54.82,0,0,0-31.32,49.54"/></clipPath><clipPath id="clip-path-124"><path class="cls-2" d="M5229.25,1676.62s1.23,21.15,11,28.13l-1.57-13.51Z"/></clipPath><clipPath id="clip-path-125"><path class="cls-2" d="M5323,1676.62s-1.23,21.15-11,28.13l1.57-13.51Z"/></clipPath><clipPath id="clip-path-126"><path class="cls-2" d="M5276.12,1725.8l-21.32-12s-21.11,75.35-25.62,115.27h46.94Z"/></clipPath><clipPath id="clip-path-127"><path class="cls-2" d="M5275.84,1725.8l21.32-12s21.11,75.35,25.62,115.27h-46.94Z"/></clipPath><clipPath id="clip-path-128"><path class="cls-2" d="M5276.12,1722.85h-16.65s7.44,16.73,16.65,18.75c9.21-2,16.65-18.75,16.65-18.75Z"/></clipPath><clipPath id="clip-path-129"><path class="cls-2" d="M5276.12,1711.17l-16.65,11.69s8.76,11.39,16.65,11.39c2.42,0,10.86-3.66,16.65-11.39Z"/></clipPath><clipPath id="clip-path-130"><path class="cls-2" d="M5239.8,1676.62a7.46,7.46,0,1,0,0,10.55,7.45,7.45,0,0,0,0-10.55"/></clipPath><clipPath id="clip-path-131"><path class="cls-2" d="M5323,1676.62a7.46,7.46,0,1,0,0,10.55,7.45,7.45,0,0,0,0-10.55"/></clipPath><clipPath id="clip-path-132"><path class="cls-2" d="M5284.56,1725.81c11.54-4,23.53-9.85,29.07-20.73,3.83-7.52,4-16.31,4-24.75a113.94,113.94,0,0,0-.81-18.24,44.5,44.5,0,0,0-2.12-8.5,39.86,39.86,0,0,0-22.74-23,42.46,42.46,0,0,0-15.9-2.86l-7.38,64.35,7.38,35.5.56,0a26.43,26.43,0,0,0,7.89-1.79"/></clipPath><clipPath id="clip-path-133"><path class="cls-2" d="M5259.73,1631.07a38.89,38.89,0,0,0-18.91,15.78c-5.73,9.73-6.11,21.62-6.07,32.92,0,10.3.49,21.74,7.13,30.2s18.44,14,28.54,16.68a24.53,24.53,0,0,0,5.92.95l-3-36.32,8.83-3-5.81-60.52a45.1,45.1,0,0,0-16.61,3.33"/></clipPath><clipPath id="clip-path-134"><path class="cls-2" d="M5264.26,1671.34a3.14,3.14,0,1,0-3.14,3.14,3.14,3.14,0,0,0,3.14-3.14"/></clipPath><clipPath id="clip-path-135"><path class="cls-2" d="M5295.52,1671.34a3.13,3.13,0,1,0-3.14,3.14,3.14,3.14,0,0,0,3.14-3.14"/></clipPath><clipPath id="clip-path-136"><path class="cls-2" d="M5306.06,1685.39c0,1.93-3.09,3.49-6.89,3.49s-6.89-1.56-6.89-3.49,3.09-3.49,6.89-3.49,6.89,1.56,6.89,3.49"/></clipPath><clipPath id="clip-path-137"><path class="cls-2" d="M5247.68,1685.39c0,1.93,3.09,3.49,6.89,3.49s6.89-1.56,6.89-3.49-3.09-3.49-6.89-3.49-6.89,1.56-6.89,3.49"/></clipPath><clipPath id="clip-path-138"><polygon class="cls-2" points="5273.1 1691.25 5285.51 1691.25 5281.93 1688.25 5273.1 1691.25"/></clipPath><clipPath id="clip-path-139"><path class="cls-2" d="M5313,1808.15h17.38l4.4,13.06c-3.86,6.67-12.13,7.87-12.13,7.87l-2.33-16h-7.07l-.25,0a2.45,2.45,0,0,1,0-4.9"/></clipPath><clipPath id="clip-path-140"><path class="cls-2" d="M5294.66,1621.93v.35c-.77,1.44-7.79,14.19-17.15,21.18-3.51,2.62-7.34,4.43-11.3,4.52h23.73a7.83,7.83,0,0,1,6,2.53c2.33,2.5,3.09,6,7,6a8,8,0,0,1,5.61,2,9.82,9.82,0,0,1,2.87,6v17.51h6.51q0-1.07,0-2.13c0-1.75,0-3.52,0-5.29a7.41,7.41,0,0,1,4.22,1.46l.84.69v0l.1.13a150.36,150.36,0,0,0,1-16.23c0-19.28-12.2-33.14-29.46-38.56"/></clipPath><clipPath id="clip-path-141"><path class="cls-2" d="M5283.93,1618.74a76.57,76.57,0,0,0-8,0c-1.4.07-2.81.18-4.2.33a57.15,57.15,0,0,0-6.07,1c-.19,0-.6.2-1,.34l-1.07.2h0a52,52,0,0,0-9,2.58c-15.57,6.05-26.32,19.37-26.29,37.45,0,3.83.36,10.56.92,15.24,0,.26,0,.51,0,.77l.08-.07,0,.29c.07-.07.12-.16.19-.23a7.33,7.33,0,0,1,4.55-2.1c.22,0,.45,0,.67,0,0,1.77,0,3.53,0,5.28,0,.71,0,1.42,0,2.13h6.51v-17.51a10.55,10.55,0,0,1,1.15-3.72l1.36-1.86,0,0c1.26-1.29,3.16-1.95,5.95-2.3s3.88-3.47,6.32-5.83a9.32,9.32,0,0,1,6.69-2.66s14.89.05,17,0c21.11-.48,29.29-14.87,32.46-22.77.7-1.76,1.16-3.2,1.46-4.09a17,17,0,0,0,.54-2.38Z"/></clipPath><clipPath id="clip-path-142"><path class="cls-2" d="M5311.4,1681.9c0,12.32-22.48,12.66-32.28,12.22h-5.56c-9.8.44-32.28.1-32.28-12.22h-6.51c.12,9.72.93,20.19,7.11,28.06,6.59,8.4,18.44,14,28.54,16.68a19,19,0,0,0,11.85,0c10.1-2.68,21.95-8.28,28.54-16.68,6.18-7.88,7-18.35,7.11-28.06h-6.51Z"/></clipPath><clipPath id="clip-path-143"><path class="cls-2" d="M5276.12,1718.18a19.2,19.2,0,0,0,19.2-19.21h-38.39a19.2,19.2,0,0,0,19.2,19.21"/></clipPath><clipPath id="clip-path-144"><path class="cls-2" d="M5333.82,1722.8l-5.3,12.43a40.91,40.91,0,0,0-16.23-4.16,41.23,41.23,0,0,1,18.11,77.08l4.4,13.06a54.84,54.84,0,0,0-1-98.4"/></clipPath><clipPath id="clip-path-145"><path class="cls-2" d="M5263.6,1681.17a.94.94,0,1,0-.94.94.94.94,0,0,0,.94-.94"/></clipPath><clipPath id="clip-path-146"><path class="cls-2" d="M5256.06,1678.15a.94.94,0,1,0-.94.94.94.94,0,0,0,.94-.94"/></clipPath><clipPath id="clip-path-147"><path class="cls-2" d="M5269.63,1678.15a.94.94,0,1,0-.94.94.94.94,0,0,0,.94-.94"/></clipPath><clipPath id="clip-path-148"><path class="cls-2" d="M5257.57,1682.68a.94.94,0,1,0-.94.94.94.94,0,0,0,.94-.94"/></clipPath><clipPath id="clip-path-149"><path class="cls-2" d="M5253,1685.7a.94.94,0,1,0-.94.94.94.94,0,0,0,.94-.94"/></clipPath><clipPath id="clip-path-150"><path class="cls-2" d="M5266.62,1685.7a.94.94,0,1,0-.94.94.94.94,0,0,0,.94-.94"/></clipPath><clipPath id="clip-path-151"><path class="cls-2" d="M5292.23,1681.17a.94.94,0,1,1,.94.94.94.94,0,0,1-.94-.94"/></clipPath><clipPath id="clip-path-152"><path class="cls-2" d="M5299.77,1678.15a.94.94,0,1,1,.94.94.94.94,0,0,1-.94-.94"/></clipPath><clipPath id="clip-path-153"><path class="cls-2" d="M5286.2,1678.15a.94.94,0,1,1,.94.94.94.94,0,0,1-.94-.94"/></clipPath><clipPath id="clip-path-154"><path class="cls-2" d="M5298.27,1682.68a.94.94,0,1,1,.94.94.94.94,0,0,1-.94-.94"/></clipPath><clipPath id="clip-path-155"><path class="cls-2" d="M5302.79,1685.7a.94.94,0,1,1,.94.94.94.94,0,0,1-.94-.94"/></clipPath><clipPath id="clip-path-156"><path class="cls-2" d="M5289.22,1685.7a.94.94,0,1,1,.94.94.94.94,0,0,1-.94-.94"/></clipPath><clipPath id="clip-path-157"><path class="cls-2" d="M5229.18,1829.07s-13.91,62.74,17.94,118.08H5259s-54.57-97,16.82-97v-21.06Z"/></clipPath><clipPath id="clip-path-158"><path class="cls-2" d="M5322.5,1829.07s13.91,62.74-17.94,118.08h-11.9s54.57-97-16.82-97v-21.06Z"/></clipPath><clipPath id="clip-path-159"><path class="cls-2" d="M5262.32,1948.78a4.32,4.32,0,0,0-3.38-1.63h-11.81s-7.59,3.42-11.63-1a6,6,0,1,0-4.65,9.67h28.09a4.33,4.33,0,0,0,3.38-7"/></clipPath><clipPath id="clip-path-160"><path class="cls-2" d="M5289.37,1948.78a4.32,4.32,0,0,1,3.38-1.63h11.81s7.59,3.42,11.63-1a6,6,0,1,1,4.65,9.67h-28.09a4.34,4.34,0,0,1-3.38-7"/></clipPath><clipPath id="clip-path-161"><path class="cls-2" d="M5238.83,1808.15h-17.38l-4.4,13.06c3.86,6.67,12.13,7.87,12.13,7.87l2.33-16h7.07l.25,0a2.45,2.45,0,0,0,0-4.9"/></clipPath><clipPath id="clip-path-162"><rect class="cls-1" x="5353.92" y="1632.87" width="51.09" height="100.04"/></clipPath><clipPath id="clip-path-163"><rect class="cls-1" x="5402.83" y="1632.87" width="51.08" height="100.07"/></clipPath><clipPath id="clip-path-164"><path class="cls-2" d="M5447.08,1833h-86.43s-12.88,58.1,16.62,109.36h11s-50.53-89.86,15.58-89.86,15.58,89.86,15.58,89.86h11c29.5-51.25,16.62-109.36,16.62-109.36"/></clipPath><clipPath id="clip-path-165"><path class="cls-2" d="M5360.65,1833s-12.88,58.1,16.62,109.36h11s-50.53-89.86,15.58-89.86V1833Z"/></clipPath><clipPath id="clip-path-166"><path class="cls-2" d="M5447.08,1833s12.88,58.1-16.62,109.36h-11s50.53-89.86-15.58-89.86V1833Z"/></clipPath><clipPath id="clip-path-167"><path class="cls-2" d="M5391.34,1943.89a4,4,0,0,0-3.13-1.51h-10.94s-7,3.17-10.77-.93a5.51,5.51,0,1,0-4.3,9h26a4,4,0,0,0,3.13-6.52"/></clipPath><clipPath id="clip-path-168"><path class="cls-2" d="M5416.39,1943.89a4,4,0,0,1,3.13-1.51h10.94s7,3.17,10.77-.93a5.51,5.51,0,1,1,4.3,9h-26a4,4,0,0,1-3.13-6.52"/></clipPath><clipPath id="clip-path-169"><path class="cls-2" d="M5453.92,1682.91a50,50,0,0,0-50-50l-1.08,0L5390.07,1675l12.77,57.9,1.08,0a50,50,0,0,0,50-50"/></clipPath><clipPath id="clip-path-170"><path class="cls-2" d="M5354.45,1690.22s2.48,29.87-15.26,33.89c0,0,16.48,23.8,53.78,10.8l-5.37-25.14Z"/></clipPath><clipPath id="clip-path-171"><path class="cls-2" d="M5453.31,1690.22s-2.48,29.87,15.26,33.89c0,0-16.48,23.8-53.77,10.8l5.37-25.14Z"/></clipPath><clipPath id="clip-path-172"><path class="cls-2" d="M5321.79,1775.23a51.3,51.3,0,0,0-.28,5.31,50.63,50.63,0,0,0,27.84,45.22l4.07-12.06a38,38,0,0,1-19-38.47Z"/></clipPath><clipPath id="clip-path-173"><path class="cls-2" d="M5349.18,1810.9a7.32,7.32,0,0,0-1.68-6.37c-1.68-1.73-3.37-3.54-7.15-3.06a38.28,38.28,0,0,1-8.33,9.91c-.14,2.32-1.47,6.24,0,7.73s6.54,1.21,8.81,1.21a50.77,50.77,0,0,0,8.35-9.42"/></clipPath><clipPath id="clip-path-174"><path class="cls-2" d="M5385.69,1731.74l-2.57,12.34A38.24,38.24,0,0,1,5404.8,1761l15.18,3.06a50.73,50.73,0,0,0-34.3-32.33"/></clipPath><clipPath id="clip-path-175"><path class="cls-2" d="M5372.12,1729.9a50.63,50.63,0,0,0-50.33,45.33h12.64a38,38,0,0,1,48.68-31.14l2.57-12.34a50.58,50.58,0,0,0-13.56-1.85"/></clipPath><clipPath id="clip-path-176"><path class="cls-2" d="M5403.66,1737.63l19.69-11.09s19.51,69.61,23.67,106.49h-43.36Z"/></clipPath><clipPath id="clip-path-177"><path class="cls-2" d="M5408.45,1743.84a50.56,50.56,0,0,0-8.57,13.62l10.08,9a37.87,37.87,0,0,1,8-14.48l.26-.27-11.4-2Z"/></clipPath><clipPath id="clip-path-178"><path class="cls-2" d="M5470.77,1731.52c-10.6-2.55-20.79-6-31.86-4.31a50.39,50.39,0,0,0-30.27,16.42l-.19.22-1.58,5.83,11.4,2a38.32,38.32,0,0,1,30-12.44c12.51.6,23.42,6.76,36.33,4.82a50.61,50.61,0,0,0,14.37-4.41l-5.83-11.16a38.32,38.32,0,0,1-22.41,3"/></clipPath><clipPath id="clip-path-179"><path class="cls-2" d="M5403.92,1737.63l-19.69-11.09s-19.51,69.61-23.67,106.49h43.36Z"/></clipPath><clipPath id="clip-path-180"><path class="cls-2" d="M5388.54,1734.9H5392l-4.44-6.46-10.8,7.68,12.54,7.72-1.74,12.72,16.32,43v-47.33c-8.51-1.86-15.38-17.32-15.38-17.32"/></clipPath><clipPath id="clip-path-181"><path class="cls-2" d="M5419.29,1734.9h-3.49l4.44-6.46,10.8,7.68-12.54,7.72,1.74,12.72-16.32,43v-47.33c8.51-1.86,15.38-17.32,15.38-17.32"/></clipPath><clipPath id="clip-path-182"><path class="cls-2" d="M5403.92,1734.9h-15.38s6.87,15.46,15.38,17.32c8.51-1.86,15.38-17.32,15.38-17.32Z"/></clipPath><clipPath id="clip-path-183"><path class="cls-2" d="M5403.92,1724.11l-15.38,10.8s8.1,10.52,15.38,10.52c2.24,0,10-3.38,15.38-10.52Z"/></clipPath><clipPath id="clip-path-184"><path class="cls-2" d="M5370.36,1692.2a6.89,6.89,0,1,0,0,9.75,6.88,6.88,0,0,0,0-9.75"/></clipPath><clipPath id="clip-path-185"><path class="cls-2" d="M5447.21,1692.2a6.89,6.89,0,1,0,0,9.75,6.88,6.88,0,0,0,0-9.75"/></clipPath><clipPath id="clip-path-186"><path class="cls-2" d="M5411.72,1737.64c10.66-3.68,21.74-9.1,26.86-19.15,3.54-6.95,3.67-15.07,3.74-22.87a105.25,105.25,0,0,0-.75-16.85,41,41,0,0,0-2-7.86,36.82,36.82,0,0,0-21-21.24,39.23,39.23,0,0,0-14.69-2.65l-6.82,59.45,6.82,32.79.51,0a24.41,24.41,0,0,0,7.29-1.65"/></clipPath><clipPath id="clip-path-187"><path class="cls-2" d="M5388.78,1650.12a35.93,35.93,0,0,0-17.47,14.58c-5.3,9-5.65,20-5.6,30.41,0,9.51.45,20.08,6.58,27.9s17,12.93,26.37,15.41a22.67,22.67,0,0,0,5.47.87l-2.79-33.55,8.15-2.79-5.37-55.9a41.67,41.67,0,0,0-15.34,3.08"/></clipPath><clipPath id="clip-path-188"><path class="cls-2" d="M5393,1687.32a2.9,2.9,0,1,0-2.9,2.9,2.9,2.9,0,0,0,2.9-2.9"/></clipPath><clipPath id="clip-path-189"><path class="cls-2" d="M5421.85,1687.32a2.9,2.9,0,1,0-2.9,2.9,2.9,2.9,0,0,0,2.9-2.9"/></clipPath><clipPath id="clip-path-190"><path class="cls-2" d="M5431.57,1700.3c0,1.78-2.85,3.22-6.37,3.22s-6.37-1.44-6.37-3.22,2.85-3.22,6.37-3.22,6.37,1.44,6.37,3.22"/></clipPath><clipPath id="clip-path-191"><path class="cls-2" d="M5377.65,1700.3c0,1.78,2.85,3.22,6.37,3.22s6.37-1.44,6.37-3.22-2.85-3.22-6.37-3.22-6.37,1.44-6.37,3.22"/></clipPath><clipPath id="clip-path-192"><polygon class="cls-2" points="5401.13 1705.71 5412.59 1705.71 5409.29 1702.94 5401.13 1705.71"/></clipPath><clipPath id="clip-path-193"><path class="cls-2" d="M5353.42,1813.7h16.05v4.5h-6.76l-2.16,14.82s-7.64-1.1-11.2-7.27Z"/></clipPath><clipPath id="clip-path-194"><path class="cls-2" d="M5369.47,1813.7a2.26,2.26,0,1,1-2.26,2.26,2.26,2.26,0,0,1,2.26-2.26"/></clipPath><clipPath id="clip-path-195"><path class="cls-2" d="M5529.55,1684.88a10.18,10.18,0,1,0-18.12,2.33h0l0,0,.05.08,3.61,5.35a37.92,37.92,0,0,1-21.94,35.82l5.83,11.16a50.43,50.43,0,0,0,15.9-12c9.07-10.2,12.72-22.32,12.21-35l2.44-7.79Z"/></clipPath><clipPath id="clip-path-196"><path class="cls-2" d="M5512.06,1660.33a2.32,2.32,0,0,0-2.32,2.32v21.72h4.64v-21.72a2.32,2.32,0,0,0-2.32-2.32"/></clipPath><clipPath id="clip-path-197"><path class="cls-2" d="M5523.33,1679.3h-14.15a.84.84,0,0,0-.83.66,12.17,12.17,0,0,0-.25,2.43,14.2,14.2,0,0,0,.63,4.19c.88,2.81,5.08,1.56,5.13-1.39a.84.84,0,0,1,.84-.82h8.6v0h0a2.53,2.53,0,1,0,0-5"/></clipPath><clipPath id="clip-path-198"><path class="cls-2" d="M5403.92,1730.59a17.74,17.74,0,0,0,17.73-17.74h-35.46a17.74,17.74,0,0,0,17.73,17.74"/></clipPath><clipPath id="clip-path-199"><path class="cls-2" d="M5404.46,1666.53s-12.42,16.37-47.08,26.15c0,0-8.36-55.46,47.08-49.73Z"/></clipPath><clipPath id="clip-path-200"><path class="cls-2" d="M5403.38,1666.53s12.42,16.37,47.08,26.15c0,0,8.36-56.14-47.08-50.42Z"/></clipPath><clipPath id="clip-path-201"><path class="cls-2" d="M6093.47,1829c10,64.16-33.48,125.61-33.48,125.61S5991.67,2048,5734.85,2030V2167.3s380,70.95,471.62-212.8c17.3-53.61,22.53-99.84,19.44-139.63-14.2-183-204.34-229.5-204.34-229.5S6088.19,1795,6093.47,1829Z"/></clipPath><clipPath id="clip-path-202"><path class="cls-2" d="M5735.25,2029.13l-166.27-56-15.68,46.66,70,23.57L5594,2204.45s83,15.21,141.35-36.21Z"/></clipPath><clipPath id="clip-path-203"><path class="cls-2" d="M5537.68,1988.73a24.72,24.72,0,1,0,31.31-15.56,24.74,24.74,0,0,0-31.31,15.56"/></clipPath><clipPath id="clip-path-204"><path class="cls-2" d="M5623.33,2043.4,5471.6,2008l-40.35,153.46s120.38,50.91,189.46,45.13l28.61-66.14Z"/></clipPath><clipPath id="clip-path-205"><path class="cls-2" d="M5431.25,2161.43c25.73,6.57,55.4-22.63,66.27-65.23s-1.18-82.46-26.91-89-55.4,22.63-66.27,65.23,1.18,82.46,26.91,89"/></clipPath><clipPath id="clip-path-206"><path class="cls-2" d="M5092.49,1810c-23.52,70.42,28.9,144.55,28.9,144.55S5189.7,2048,5446.52,2030V2167.3s-380,70.95-471.62-212.8c-29.51-91.45-23.89-161.44-1.8-214.55,50.43-121.26,186.7-154.58,186.7-154.58S5101.71,1782.39,5092.49,1810Z"/></clipPath><clipPath id="clip-path-207"><path class="cls-2" d="M5447.32,2031.38l175.31,6.16-1.73,49.19-73.84-2.59-29.22,161.07s-74-13.36-113-72.66c-2.31-3.5,42.52-141.17,42.52-141.17"/></clipPath><clipPath id="clip-path-208"><path class="cls-2" d="M5646.47,2063.13a24.72,24.72,0,1,1-23.84-25.59,24.73,24.73,0,0,1,23.84,25.59"/></clipPath><clipPath id="clip-path-209"><path class="cls-2" d="M5547.06,2084.14l154.49,20.26-16.2,157.85s-130.58,5.27-193.21-24.47l-3.52-72Z"/></clipPath><clipPath id="clip-path-210"><path class="cls-2" d="M5685.36,2262.26c-26.4-2.91-43.9-40.69-39.09-84.39s30.1-76.77,56.5-73.86,43.9,40.69,39.09,84.39-30.1,76.77-56.5,73.87"/></clipPath><clipPath id="clip-path-211"><polygon class="cls-2" points="-1782.09 3363.76 -1782.09 3434.24 -1293.79 3716.16 -805.49 3434.24 -805.49 3363.76 -1293.79 3081.84 -1782.09 3363.76"/></clipPath><clipPath id="clip-path-212"><polygon class="cls-2" points="-1293.79 3716.16 -1782.09 3434.24 -1782.09 3363.76 -1293.79 3645.68 -1293.79 3716.16"/></clipPath><clipPath id="clip-path-213"><polygon class="cls-2" points="-1049.64 3716.16 -805.49 3716.16 -805.49 3363.76 -1293.79 3363.76 -1293.79 3716.16 -1049.64 3716.16"/></clipPath><clipPath id="clip-path-214"><path class="cls-2" d="M-1244,3314.35l-89.14-1.55c-4.86-.07-44.92,30.09-45,35l-.26,17.7a8.87,8.87,0,0,0,8.72,9l9.29.14,70.78,1c28.76.43,57.73,1.08,71.67,1.06l8.85.13a8.87,8.87,0,0,0,9-8.72l.27-17.7c.07-4.86-39.29-36-44.15-36.05"/></clipPath><clipPath id="clip-path-215"><path class="cls-2" d="M-1096.72,3138.65a17.36,17.36,0,0,1-.36,24.34,17.36,17.36,0,0,1-24.33-.37,17.36,17.36,0,0,1,.36-24.33,17.36,17.36,0,0,1,24.33.36m-50.51-25.09a17.36,17.36,0,0,1-.36,24.33,17.36,17.36,0,0,1-24.34-.36,17.36,17.36,0,0,1,.37-24.33,17.36,17.36,0,0,1,24.33.36m-274.25-6.29a17.36,17.36,0,0,1,24.33.36,17.37,17.37,0,0,1-.36,24.34,17.36,17.36,0,0,1-24.33-.36,17.16,17.16,0,0,1,.36-24.33m-26.9,23.94a17.36,17.36,0,0,1-.37,24.33,17.36,17.36,0,0,1-24.33-.36,17.36,17.36,0,0,1,.36-24.33,17.36,17.36,0,0,1,24.34.36"/></clipPath><clipPath id="clip-path-216"><path class="cls-2" d="M-1241.52,3085.62l-87.59-1.3c-9.74-.14-194,83.62-194.1,93.36l-.52,34.95a17.37,17.37,0,0,0,17.21,17.73l219.82-22.84,218.38,29.57a17.37,17.37,0,0,0,17.73-17.22l.52-34.95c.14-9.74-181.72-99.17-191.45-99.31"/></clipPath><clipPath id="clip-path-217"><path class="cls-2" d="M-1282.62,2904c-24.33-.36-44.41,40.49-45.06,69.47l-4.48,316.09c-.44,29.2,17.77,114.43,42.1,114.79s45.06-84.29,45.49-113.49l4.92-316.09c.44-29.2-18.64-70.41-43-70.77"/></clipPath><clipPath id="clip-path-218"><path class="cls-2" d="M-1266,3290.35l4.7-315.87c.37-24.78-13.29-58.16-32-68a27.37,27.37,0,0,1,10.88-2.72c24.33.37,43.19,41.8,42.75,71l-4.7,315.87c-.43,29.2-21.38,113.62-45.49,113.49-3.54-.05-7.27-2.1-10.76-5.69,19.09-19,34.21-83.34,34.57-108.12"/></clipPath><clipPath id="clip-path-219"><path class="cls-2" d="M-1199.92,3219.21l-44.38-6.19,1.9-127.85,1.33,0c2.65,0,20,7.6,43.09,18.34Z"/></clipPath><clipPath id="clip-path-220"><path class="cls-2" d="M-1331,3212.17l-175.28,18.41a17.63,17.63,0,0,1-17-15.74l192.55-19.48Zm87.85-15.51,192.09,26.31a17.51,17.51,0,0,1-17.24,14.12l-174.87-23.84Z"/></clipPath><clipPath id="clip-path-221"><path class="cls-2" d="M-1060.9,3330.19a19.59,19.59,0,0,0-19.59-19.59,19.59,19.59,0,0,0-19.59,19.59,19.59,19.59,0,0,0,19.59,19.59,19.59,19.59,0,0,0,19.59-19.59"/></clipPath><clipPath id="clip-path-222"><path class="cls-2" d="M-986.77,3331.24a18.53,18.53,0,0,0-18.53-18.53,18.53,18.53,0,0,0-18.53,18.53,18.53,18.53,0,0,0,18.53,18.53,18.53,18.53,0,0,0,18.53-18.53"/></clipPath><clipPath id="clip-path-223"><path class="cls-2" d="M-1018.18,3306.08a31.15,31.15,0,0,0-31.15-31.15,31.15,31.15,0,0,0-31.15,31.15,31.15,31.15,0,0,0,31.15,31.15,31.15,31.15,0,0,0,31.15-31.15"/></clipPath><clipPath id="clip-path-224"><polygon class="cls-2" points="-1018.18 3306.08 -1018.89 3330.18 -1002.83 3333.71 -1002.83 3349.77 -1080.48 3349.77 -1080.48 3322.02 -1018.18 3306.08"/></clipPath><clipPath id="clip-path-225"><path class="cls-2" d="M-1475.32,3362.25a30.57,30.57,0,0,1,30.36-30.78,30.57,30.57,0,0,1,30.36,30.78A30.57,30.57,0,0,1-1445,3393a30.57,30.57,0,0,1-30.36-30.78"/></clipPath><clipPath id="clip-path-226"><path class="cls-2" d="M-1590.22,3363.92a28.92,28.92,0,0,1,28.72-29.11,28.92,28.92,0,0,1,28.72,29.11,28.92,28.92,0,0,1-28.72,29.11,28.92,28.92,0,0,1-28.72-29.11"/></clipPath><clipPath id="clip-path-227"><path class="cls-2" d="M-1541.54,3324.37c0-27,21.62-49,48.29-49s48.29,21.92,48.29,49-21.62,49-48.29,49-48.29-21.92-48.29-49"/></clipPath><clipPath id="clip-path-228"><polygon class="cls-2" points="-1541.54 3324.37 -1540.43 3362.25 -1565.33 3367.79 -1565.33 3393.03 -1444.96 3393.03 -1444.96 3349.42 -1541.54 3324.37"/></clipPath><clipPath id="clip-path-229"><path class="cls-2" d="M-1316.08,3490.81a15.46,15.46,0,0,0-15.46-15.46,15.46,15.46,0,0,0-15.46,15.46,15.46,15.46,0,0,0,15.46,15.46,15.46,15.46,0,0,0,15.46-15.46"/></clipPath><clipPath id="clip-path-230"><path class="cls-2" d="M-1247.77,3496.49a9.47,9.47,0,0,0-9.47-9.47,9.47,9.47,0,0,0-9.47,9.47,9.47,9.47,0,0,0,9.47,9.47,9.47,9.47,0,0,0,9.47-9.47"/></clipPath><clipPath id="clip-path-231"><path class="cls-2" d="M-1265.25,3487a15.46,15.46,0,0,0-15.46-15.46,15.46,15.46,0,0,0-15.46,15.46,15.46,15.46,0,0,0,15.46,15.46,15.46,15.46,0,0,0,15.46-15.46"/></clipPath><clipPath id="clip-path-232"><path class="cls-2" d="M-1282.5,3483.8a22.16,22.16,0,0,0-22.16-22.16,22.16,22.16,0,0,0-22.16,22.16,22.16,22.16,0,0,0,22.16,22.16,22.16,22.16,0,0,0,22.16-22.16"/></clipPath><clipPath id="clip-path-233"><polygon class="cls-2" points="-1265.25 3487.02 -1265.25 3496.49 -1257.24 3496.49 -1257.24 3505.97 -1331.54 3505.97 -1331.54 3494.28 -1294.39 3494.28 -1265.25 3487.02"/></clipPath><clipPath id="clip-path-234"><path class="cls-2" d="M-1188,3237.33a17.9,17.9,0,0,1,17.9-17.9,17.9,17.9,0,0,1,17.9,17.9,17.9,17.9,0,0,1-17.9,17.9,17.9,17.9,0,0,1-17.9-17.9"/></clipPath><clipPath id="clip-path-235"><path class="cls-2" d="M-1267.12,3243.91a11,11,0,0,1,11-11,11,11,0,0,1,11,11,11,11,0,0,1-11,11,11,11,0,0,1-11-11"/></clipPath><clipPath id="clip-path-236"><path class="cls-2" d="M-1246.87,3232.94A17.9,17.9,0,0,1-1229,3215a17.9,17.9,0,0,1,17.9,17.9,17.9,17.9,0,0,1-17.9,17.9,17.9,17.9,0,0,1-17.9-17.9"/></clipPath><clipPath id="clip-path-237"><path class="cls-2" d="M-1226.9,3229.22a25.67,25.67,0,0,1,25.67-25.67,25.67,25.67,0,0,1,25.67,25.67,25.67,25.67,0,0,1-25.67,25.67,25.67,25.67,0,0,1-25.67-25.67"/></clipPath><clipPath id="clip-path-238"><polygon class="cls-2" points="-1246.87 3232.95 -1246.87 3243.91 -1256.15 3243.91 -1256.15 3254.89 -1170.09 3254.89 -1170.09 3241.34 -1213.12 3241.34 -1246.87 3232.95"/></clipPath></defs><title>ilustracoes_caixa_am5SVG</title><polygon class="cls-3" points="960 256.5 469.09 539.93 469.09 610.79 960 894.21 1450.91 610.79 1450.91 539.93 960 256.5"/><polygon class="cls-4" points="960 894.21 469.09 610.79 469.09 539.93 960 823.36 960 894.21"/><polygon class="cls-5" points="960 894.21 1450.91 610.79 1450.91 539.93 960 823.36 960 894.21"/><path class="cls-6" d="M891.87,79.21s-36.09.32-40.6,41.52,32.9,75.56,32.9,75.56l1.28-58.54Z"/><path class="cls-7" d="M1030.37,79.21s36.09.32,40.6,41.52-32.9,75.56-32.9,75.56l-1.28-58.54Z"/><path class="cls-8" d="M1025.52,221.34A110.27,110.27,0,0,1,1072.94,232l-10.79,25.28A83.19,83.19,0,0,0,954,289.37l-33.22,6.69A110.75,110.75,0,0,1,1025.52,221.34Z"/><path class="cls-9" d="M1136.24,332.06a110.7,110.7,0,0,1-60.9,98.87l-8.9-26.37a83.24,83.24,0,0,0-4.29-147.29L1072.94,232A110.72,110.72,0,0,1,1136.24,332.06Z"/><path class="cls-7" d="M978.75,48c-17.42-14.44-33.29-.62-34,0l-1.33-1.49c.18-.16,17.81-15.58,36.57,0Z"/><path class="cls-10" d="M894.88,225a110.27,110.27,0,0,0-47.42,10.66l10.79,25.28A83.19,83.19,0,0,1,966.37,293l33.22,6.69A110.75,110.75,0,0,0,894.88,225Z"/><path class="cls-11" d="M784.15,335.71a110.7,110.7,0,0,0,60.9,98.87l8.9-26.37a83.24,83.24,0,0,1,4.29-147.29l-10.79-25.28A110.72,110.72,0,0,0,784.15,335.71Z"/><path class="cls-10" d="M961.18,241.89,918.1,217.64s-42.68,152.18-51.78,232.82h94.87Z"/><path class="cls-8" d="M960.63,241.89l43.09-24.24s42.67,152.18,51.78,232.82H960.63Z"/><g class="cls-12"><rect class="cls-13" x="855.64" y="177.39" width="5.74" height="348.43"/><rect class="cls-13" x="881.31" y="177.39" width="5.74" height="348.43"/><rect class="cls-13" x="906.98" y="177.39" width="5.74" height="348.43"/><rect class="cls-13" x="932.65" y="177.39" width="5.74" height="348.43"/><rect class="cls-13" x="958.32" y="177.39" width="5.74" height="348.43"/><rect class="cls-13" x="983.99" y="177.39" width="5.74" height="348.43"/><rect class="cls-13" x="1009.66" y="177.39" width="5.74" height="348.43"/><rect class="cls-13" x="1035.33" y="177.39" width="5.74" height="348.43"/><rect class="cls-13" x="1061" y="177.39" width="5.74" height="348.43"/><polygon class="cls-13" points="925.48 217.64 899.63 235.93 924.07 258.94 922.39 281.46 961.18 273.79 953.2 261.7 925.48 217.64"/><polygon class="cls-13" points="996.89 217.64 1022.74 235.93 998.29 258.94 999.98 281.46 961.18 273.79 969.16 261.7 996.89 217.64"/></g><path class="cls-14" d="M1054.94,450.46H866.31S838.2,577.18,902.58,689h24.05s-110.29-196,34-196,34,196,34,196h24.05C1083.06,577.18,1054.94,450.46,1054.94,450.46Z"/><path class="cls-9" d="M961.18,235.93H927.54s15,33.8,33.64,37.86c18.61-4.06,33.64-37.86,33.64-37.86Z"/><path class="cls-15" d="M961.18,212.33l-33.64,23.6s17.71,23,33.65,23c4.89,0,22-7.39,33.64-23Z"/><circle class="cls-11" cx="877.12" cy="153.21" r="15.07" transform="translate(148.57 665.09) rotate(-45)"/><circle class="cls-9" cx="1045.25" cy="153.21" r="15.07" transform="translate(197.8 783.97) rotate(-45)"/><path class="cls-9" d="M978.25,241.91c23.32-8.06,47.56-19.89,58.76-41.87,7.74-15.19,8-33,8.18-50,.11-12.27.22-24.76-1.63-36.83A89.75,89.75,0,0,0,1039.28,96c-7.68-21.09-25.07-38.24-46-46.43a85.87,85.87,0,0,0-32.13-5.78l-14.92,130,14.92,71.7c.38,0,.75,0,1.13,0C967.78,245.39,973.08,243.69,978.25,241.91Z"/><path class="cls-11" d="M928.06,50.55c-15.63,6.39-29.65,17.32-38.23,31.87-11.59,19.66-12.36,43.66-12.26,66.49.09,20.8,1,43.91,14.4,61s37.26,28.28,57.68,33.7a49.61,49.61,0,0,0,12,1.91l-6.1-73.36,17.84-6.1L961.63,43.83h0A91.2,91.2,0,0,0,928.06,50.55Z"/><circle class="cls-16" cx="930.88" cy="131.89" r="6.34"/><ellipse class="cls-15" cx="1007.76" cy="160.26" rx="13.93" ry="7.05"/><ellipse class="cls-9" cx="917.64" cy="160.26" rx="13.93" ry="7.05"/><polygon class="cls-15" points="955.09 172.09 980.17 172.09 972.93 166.04 955.09 172.09"/><path class="cls-17" d="M961.18,226.49a38.8,38.8,0,0,0,38.8-38.8H922.39A38.8,38.8,0,0,0,961.18,226.49Z"/><path class="cls-18" d="M866.31,450.46S838.2,577.18,902.58,689h24.05s-110.29-196,34-196V450.46Z"/><path class="cls-9" d="M933.29,692.25a8.74,8.74,0,0,0-6.84-3.29H902.58s-15.35,6.91-23.5-2a12,12,0,1,0-9.39,19.54h56.77a8.76,8.76,0,0,0,6.84-14.22Z"/><path class="cls-9" d="M988,692.25a8.74,8.74,0,0,1,6.84-3.29h23.88s15.35,6.91,23.5-2a12,12,0,1,1,9.39,19.54H994.81A8.76,8.76,0,0,1,988,692.25Z"/><circle class="cls-16" cx="994.07" cy="131.89" r="6.34"/><path class="cls-11" d="M889.07,408.21H854l-8.9,26.37a33.62,33.62,0,0,0,21.47,15.84l3-32.23,19-.13a4.88,4.88,0,0,0,.5.05,4.95,4.95,0,1,0,0-9.9Z"/><path class="cls-6" d="M866.46,142.55s-13.18-61.74,25.41-63.35c0,0-17.61,40.6-1.1,74H877.61S878,135,866.46,142.55Z"/><path class="cls-7" d="M1056.08,142.55s13.18-61.74-25.41-63.35c0,0,17.61,40.6,1.1,74h13.16S1044.54,135,1056.08,142.55Z"/><ellipse class="cls-9" cx="909.25" cy="87.68" rx="13.13" ry="5.36"/><ellipse class="cls-9" cx="910.76" cy="67.45" rx="6.1" ry="2.49"/><ellipse class="cls-15" cx="1012.74" cy="76.85" rx="9.87" ry="4.03"/><ellipse class="cls-15" cx="983.44" cy="57" rx="6.1" ry="2.49"/><ellipse class="cls-9" cx="935.84" cy="69.44" rx="10.32" ry="4.21"/><path class="cls-7" d="M987,70.21c-26-21.52-50.27-.24-50.52,0l-1.33-1.49c.26-.23,25.86-22.63,53.13,0Z"/><path class="cls-7" d="M980.93,57.77c-19.69-16.33-38.14-.19-38.33,0l-1.33-1.49c.2-.18,19.93-17.44,40.94,0Z"/><path class="cls-19" d="M1069.2,393.54A27.71,27.71,0,0,0,1039,421.13c0,.58.05,1.16.09,1.73h11.08a15.74,15.74,0,0,1,1.49-8.59,16.89,16.89,0,0,1,14.84-9.76,16.62,16.62,0,0,1,16.83,16.62,16.83,16.83,0,0,1-.09,1.73h.09V728.52h11.08V421.75C1094.39,407.31,1083.58,394.81,1069.2,393.54Z"/><path class="cls-9" d="M1031.33,404.56h35.12l8.9,26.37a33.62,33.62,0,0,1-21.47,15.84l-3-32.23-19-.13a4.88,4.88,0,0,1-.5.05,4.95,4.95,0,1,1,0-9.9Z"/><path class="cls-4" d="M895.1,701.83l-17.19-22.46h0a21.3,21.3,0,1,0-17.7,33.15h78v-10.7Z"/><path class="cls-4" d="M1025.36,701.83l17.19-22.46h0a21.3,21.3,0,1,1,17.7,33.15h-78v-10.7Z"/><path class="cls-7" d="M930.88,168a11.62,11.62,0,1,1,11.62-11.62A11.63,11.63,0,0,1,930.88,168Zm0-21.23a9.62,9.62,0,1,0,9.62,9.62A9.63,9.63,0,0,0,930.88,146.74Z"/><path class="cls-7" d="M994.07,168a11.62,11.62,0,1,1,11.62-11.62A11.63,11.63,0,0,1,994.07,168Zm0-21.23a9.62,9.62,0,1,0,9.62,9.62A9.63,9.63,0,0,0,994.07,146.74Z"/><path class="cls-7" d="M942.09,157.16l-1.18-1.61c.24-.18,24.61-17.68,43.24.08l-1.38,1.45c-7.28-6.94-16.31-9.06-26.82-6.29A46,46,0,0,0,942.09,157.16Z"/><path class="cls-20" d="M1222.19,794q0-17.9,4.77-30.43t16.11-23.27q16.7-16.11,30.73-28T1298,689.89a116,116,0,0,0,15.81-19.69,36.56,36.56,0,0,0,5.67-19.39q0-19.69-12.23-30.73t-30.73-11q-28.05,0-42.66,15.51t-16.41,37.59l-91.88-6q6.56-63.23,46.54-96.36t102.62-33.11a174.22,174.22,0,0,1,51.61,7.46A127,127,0,0,1,1369,556.55a107.08,107.08,0,0,1,29.24,37q10.74,22.08,10.74,50.71a126.68,126.68,0,0,1-3.58,31.32,97.14,97.14,0,0,1-12.23,27.74,161.74,161.74,0,0,1-22.67,27.74,383.56,383.56,0,0,1-35.5,30.73q-13.73,10.74-18.5,20.88a47.22,47.22,0,0,0-4.77,20.29v17.3h-89.5ZM1212,908.56a55.85,55.85,0,0,1,4.18-21.48,52.76,52.76,0,0,1,29.24-29.24,57.33,57.33,0,0,1,43,0,52.76,52.76,0,0,1,29.24,29.24,57.32,57.32,0,0,1,0,43,52.76,52.76,0,0,1-29.24,29.24,57.32,57.32,0,0,1-43,0A52.76,52.76,0,0,1,1216.22,930,55.78,55.78,0,0,1,1212,908.56Z"/></svg>