<svg id="Layer_1" data-name="Layer 1" xmlns="http://www.w3.org/2000/svg" xmlns:xlink="http://www.w3.org/1999/xlink" viewBox="0 0 1920 1080"><defs><style>.cls-1,.cls-14{fill:none;}.cls-2{fill:#733791;}.cls-3{fill:#500778;}.cls-4{fill:#400666;}.cls-5{fill:#ff9141;}.cls-6{fill:#00a499;}.cls-7{fill:#64c8c3;}.cls-8{fill:#420768;}.cls-9{fill:#ff6d00;}.cls-10{fill:#939598;}.cls-11{fill:#6d6e71;}.cls-12{fill:#005fc8;}.cls-13{fill:#ffa57d;}.cls-14{stroke:#6d6e71;stroke-miterlimit:10;stroke-width:2px;}.cls-15{fill:#4187d7;}.cls-16{fill:#ffb692;}.cls-17{clip-path:url(#clip-path);}.cls-18{fill:#00377d;}.cls-19{fill:#f99067;}.cls-20{fill:#231f20;}.cls-21{fill:#fff;}.cls-22{fill:#41b9b4;}.cls-23{fill:#754c29;}</style><clipPath id="clip-path"><path class="cls-1" d="M1183.14,251.83l8.73-20.44a89.56,89.56,0,0,0-54.73-7.1c-.8-2.9-1.25-4.5-1.25-4.5l-20.1,11.31a89.32,89.32,0,0,0-11.9,6.7l-2.62,1.47-34.62-19.48s-.76,2.71-2.07,7.51a89.59,89.59,0,0,0-55.05,7l8.73,20.44a67.27,67.27,0,0,1,40.57-6c-10.64,40.43-28.92,113.86-34,159.25h153c-5.26-46.54-24.34-122.55-34.84-162.25a67.2,67.2,0,0,1,40.21,6Z"/></clipPath></defs><title>ilustracoes_caixa_am5SVG</title><polygon class="cls-2" points="960 256.5 469.09 539.93 469.09 610.79 960 894.21 1450.91 610.79 1450.91 539.93 960 256.5"/><polygon class="cls-3" points="960 894.21 469.09 610.79 469.09 539.93 960 823.36 960 894.21"/><polygon class="cls-4" points="960 894.21 1450.91 610.79 1450.91 539.93 960 823.36 960 894.21"/><polygon class="cls-2" points="781.22 615.89 586.46 503.45 586.46 334.78 781.22 447.22 781.22 615.89"/><polygon class="cls-3" points="861.17 325.1 781.22 447.21 781.22 615.87 927.29 531.54 927.29 362.89 861.17 325.1"/><polygon class="cls-5" points="573.18 354.55 659.45 208.26 861.17 325.1 767.94 466.99 573.18 354.55"/><polygon class="cls-6" points="829.88 587.78 829.88 475.32 878.6 447.22 878.6 559.65 829.88 587.78"/><polygon class="cls-7" points="708.19 461.18 708.19 517.4 756.88 545.51 756.88 489.29 708.19 461.18"/><polygon class="cls-7" points="610.99 405.06 610.99 461.28 659.68 489.39 659.68 433.17 610.99 405.06"/><polygon class="cls-2" points="717.18 378.52 717.18 321.97 681.72 301.5 681.72 358.05 717.18 378.52"/><polygon class="cls-3" points="752.64 301.84 717.18 321.97 717.18 378.52 752.64 324.61 752.64 301.84"/><polygon class="cls-8" points="681.72 301.5 717.18 321.97 752.64 301.84 717.09 281.08 681.72 301.5"/><polygon class="cls-5" points="878.6 559.65 829.88 587.78 1113.52 754.51 1146.23 717.07 878.6 559.65"/><polygon class="cls-9" points="1097.51 814.84 1097.51 745.2 1146.23 717.07 1146.23 786.75 1097.51 814.84"/><path class="cls-10" d="M1045.45,107.84s-29.18.26-32.83,33.58,26.6,61.1,26.6,61.1l1-47.34Z"/><path class="cls-11" d="M1157.45,107.84s29.18.26,32.83,33.58-26.6,61.1-26.6,61.1l-1-47.34Z"/><path class="cls-12" d="M1153.52,222.77a89.17,89.17,0,0,1,38.35,8.62l-8.73,20.44a67.27,67.27,0,0,0-87.43,26l-26.86,5.41A89.55,89.55,0,0,1,1153.52,222.77Z"/><path class="cls-13" d="M1243.06,312.3a89.51,89.51,0,0,1-49.24,79.95l-7.2-21.32a67.31,67.31,0,0,0-3.47-119.1l8.73-20.44A89.53,89.53,0,0,1,1243.06,312.3Z"/><path class="cls-14" d="M1087.7,82s13.71-12.28,28.52,0"/><path class="cls-15" d="M1047.89,225.72a89.17,89.17,0,0,0-38.35,8.62l8.73,20.44a67.27,67.27,0,0,1,87.43,26l26.86,5.41A89.55,89.55,0,0,0,1047.89,225.72Z"/><path class="cls-16" d="M958.35,315.25a89.51,89.51,0,0,0,49.24,79.95l7.2-21.32a67.31,67.31,0,0,1,3.47-119.1l-8.73-20.44A89.53,89.53,0,0,0,958.35,315.25Z"/><path class="cls-15" d="M1101.5,239.39l-34.84-19.6S1032.15,342.84,1024.79,408h76.71Z"/><path class="cls-12" d="M1101.05,239.39l34.84-19.6S1170.4,342.84,1177.76,408h-76.71Z"/><g class="cls-17"><rect class="cls-18" x="1016.15" y="187.23" width="4.64" height="281.74"/><rect class="cls-18" x="1036.91" y="187.23" width="4.64" height="281.74"/><rect class="cls-18" x="1057.67" y="187.23" width="4.64" height="281.74"/><rect class="cls-18" x="1078.43" y="187.23" width="4.64" height="281.74"/><rect class="cls-18" x="1099.18" y="187.23" width="4.64" height="281.74"/><rect class="cls-18" x="1119.94" y="187.23" width="4.64" height="281.74"/><rect class="cls-18" x="1140.7" y="187.23" width="4.64" height="281.74"/><rect class="cls-18" x="1161.45" y="187.23" width="4.64" height="281.74"/><rect class="cls-18" x="1182.21" y="187.23" width="4.64" height="281.74"/><polygon class="cls-18" points="1072.63 219.78 1051.73 234.57 1071.49 253.18 1070.13 271.39 1101.5 265.19 1095.05 255.41 1072.63 219.78"/><polygon class="cls-18" points="1130.38 219.78 1151.27 234.57 1131.51 253.18 1132.87 271.39 1101.5 265.19 1107.95 255.41 1130.38 219.78"/></g><path class="cls-6" d="M1177.31,408H1024.79s-22.74,102.47,29.32,192.85h19.45s-89.18-158.46,27.49-158.46,27.49,158.46,27.49,158.46H1148C1200,510.51,1177.31,408,1177.31,408Z"/><path class="cls-13" d="M1101.5,234.57H1074.3s12.16,27.33,27.21,30.62c15-3.29,27.21-30.62,27.21-30.62Z"/><path class="cls-19" d="M1101.5,215.49l-27.21,19.09s14.32,18.61,27.21,18.61c4,0,17.76-6,27.2-18.61Z"/><circle class="cls-16" cx="1033.53" cy="167.68" r="12.19" transform="translate(184.14 779.93) rotate(-45)"/><circle class="cls-13" cx="1169.48" cy="167.68" r="12.19" transform="translate(223.95 876.05) rotate(-45)"/><path class="cls-13" d="M1115.31,239.41c18.86-6.51,38.46-16.08,47.51-33.86,6.26-12.28,6.48-26.64,6.61-40.43.09-9.92.18-20-1.32-29.78a72.57,72.57,0,0,0-3.46-13.89c-6.21-17.05-20.27-30.92-37.16-37.55a69.44,69.44,0,0,0-26-4.68l-12.07,105.1,12.07,58c.3,0,.61,0,.91,0C1106.84,242.22,1111.12,240.85,1115.31,239.41Z"/><path class="cls-16" d="M1074.72,84.67c-12.64,5.17-24,14-30.91,25.77-9.37,15.9-10,35.31-9.91,53.76.07,16.82.8,35.5,11.65,49.32s30.13,22.87,46.64,27.25a40.11,40.11,0,0,0,9.68,1.55L1096.94,183l14.43-4.93-9.5-98.83h0A73.75,73.75,0,0,0,1074.72,84.67Z"/><circle class="cls-20" cx="1077" cy="150.44" r="5.12"/><ellipse class="cls-19" cx="1139.17" cy="173.38" rx="11.27" ry="5.7"/><ellipse class="cls-13" cx="1066.29" cy="173.38" rx="11.27" ry="5.7"/><polygon class="cls-19" points="1096.57 182.95 1116.85 182.95 1111 178.06 1096.57 182.95"/><path class="cls-21" d="M1101.5,226.94a31.37,31.37,0,0,0,31.37-31.37h-62.74A31.37,31.37,0,0,0,1101.5,226.94Z"/><path class="cls-22" d="M1024.79,408s-22.73,102.47,29.32,192.85h19.45s-89.18-158.46,27.49-158.46V408Z"/><path class="cls-13" d="M1078.95,603.56a7.07,7.07,0,0,0-5.53-2.66h-19.31s-12.41,5.59-19-1.64a9.73,9.73,0,1,0-7.6,15.8h45.91a7.08,7.08,0,0,0,5.53-11.5Z"/><path class="cls-13" d="M1123.16,603.56a7.07,7.07,0,0,1,5.53-2.66H1148s12.41,5.59,19-1.64a9.73,9.73,0,1,1,7.6,15.8h-45.91a7.08,7.08,0,0,1-5.53-11.5Z"/><circle class="cls-20" cx="1128.1" cy="150.44" r="5.12"/><path class="cls-16" d="M1043.19,373.88h-28.4l-7.2,21.32A27.19,27.19,0,0,0,1025,408l2.46-26.06,15.37-.1a3.94,3.94,0,0,0,.41,0,4,4,0,1,0,0-8Z"/><path class="cls-10" d="M1024.91,159.07s-10.66-49.92,20.54-51.22c0,0-14.24,32.83-.89,59.84h-10.64S1034.24,152.94,1024.91,159.07Z"/><path class="cls-11" d="M1178.24,159.07s10.66-49.92-20.54-51.22c0,0,14.24,32.83.89,59.84h10.64S1168.9,152.94,1178.24,159.07Z"/><ellipse class="cls-13" cx="1059.51" cy="114.7" rx="10.62" ry="4.34"/><ellipse class="cls-13" cx="1060.73" cy="98.34" rx="4.93" ry="2.01"/><ellipse class="cls-19" cx="1143.19" cy="105.94" rx="7.98" ry="3.26"/><ellipse class="cls-19" cx="1119.5" cy="89.89" rx="4.93" ry="2.01"/><ellipse class="cls-13" cx="1081.01" cy="99.95" rx="8.34" ry="3.41"/><path class="cls-14" d="M1081,99.95s20.14-18,41.9,0"/><path class="cls-14" d="M1085.94,89.89s15.4-13.8,32,0"/><path class="cls-23" d="M1188.84,362a22.4,22.4,0,0,0-24.44,22.31c0,.47,0,.93.07,1.4h9a12.72,12.72,0,0,1,1.2-6.95,13.66,13.66,0,0,1,12-7.89,13.44,13.44,0,0,1,13.61,13.44,13.61,13.61,0,0,1-.07,1.4h.07V632.89h9V384.83C1209.21,373.15,1200.48,363,1188.84,362Z"/><path class="cls-13" d="M1158.22,370.93h28.4l7.2,21.32a27.19,27.19,0,0,1-17.36,12.81L1174,379l-15.37-.1a3.94,3.94,0,0,1-.41,0,4,4,0,1,1,0-8Z"/><path class="cls-3" d="M1048.06,611.31l-13.9-18.16h0A17.23,17.23,0,1,0,1019.85,620h63.06v-8.65Z"/><path class="cls-3" d="M1153.39,611.31l13.9-18.16h0A17.23,17.23,0,1,1,1181.61,620h-63.06v-8.65Z"/><circle class="cls-14" cx="1077" cy="170.22" r="8.58"/><circle class="cls-14" cx="1128.1" cy="170.22" r="8.58"/><path class="cls-14" d="M1085.58,170.22s19.18-14.06,33.93,0"/></svg>