<svg id="Layer_1" data-name="Layer 1" xmlns="http://www.w3.org/2000/svg" xmlns:xlink="http://www.w3.org/1999/xlink" viewBox="0 0 1920 1080"><defs><style>.cls-1,.cls-2{fill:none;}.cls-1{clip-rule:evenodd;}.cls-3{clip-path:url(#clip-path);}.cls-4{clip-path:url(#clip-path-2);}.cls-5{clip-path:url(#clip-path-3);}.cls-6{clip-path:url(#clip-path-4);}.cls-7{clip-path:url(#clip-path-5);}.cls-8{clip-path:url(#clip-path-6);}.cls-9{clip-path:url(#clip-path-7);}.cls-10{clip-path:url(#clip-path-8);}.cls-11{clip-path:url(#clip-path-9);}.cls-12{clip-path:url(#clip-path-10);}.cls-13{clip-path:url(#clip-path-11);}.cls-14{clip-path:url(#clip-path-12);}.cls-15{clip-path:url(#clip-path-13);}.cls-16{clip-path:url(#clip-path-14);}.cls-17{clip-path:url(#clip-path-15);}.cls-18{clip-path:url(#clip-path-16);}.cls-19{clip-path:url(#clip-path-17);}.cls-20{clip-path:url(#clip-path-18);}.cls-21{clip-path:url(#clip-path-19);}.cls-22{clip-path:url(#clip-path-20);}.cls-23{clip-path:url(#clip-path-21);}.cls-24{clip-path:url(#clip-path-22);}.cls-25{clip-path:url(#clip-path-23);}.cls-26{clip-path:url(#clip-path-24);}.cls-27{clip-path:url(#clip-path-25);}.cls-28{clip-path:url(#clip-path-26);}.cls-29{clip-path:url(#clip-path-27);}.cls-30{clip-path:url(#clip-path-28);}.cls-31{clip-path:url(#clip-path-29);}.cls-32{clip-path:url(#clip-path-30);}.cls-33{clip-path:url(#clip-path-31);}.cls-34{clip-path:url(#clip-path-32);}.cls-35{clip-path:url(#clip-path-33);}.cls-36{clip-path:url(#clip-path-34);}.cls-37{clip-path:url(#clip-path-35);}.cls-38{clip-path:url(#clip-path-36);}.cls-39{clip-path:url(#clip-path-37);}.cls-40{clip-path:url(#clip-path-38);}.cls-41{clip-path:url(#clip-path-39);}.cls-42{clip-path:url(#clip-path-40);}.cls-43{clip-path:url(#clip-path-41);}.cls-44{clip-path:url(#clip-path-42);}.cls-45{clip-path:url(#clip-path-43);}.cls-46{clip-path:url(#clip-path-44);}.cls-47{clip-path:url(#clip-path-45);}.cls-48{clip-path:url(#clip-path-46);}.cls-49{clip-path:url(#clip-path-47);}.cls-50{clip-path:url(#clip-path-48);}.cls-51{clip-path:url(#clip-path-49);}.cls-52{clip-path:url(#clip-path-50);}.cls-53{clip-path:url(#clip-path-51);}.cls-54{clip-path:url(#clip-path-52);}.cls-55{clip-path:url(#clip-path-53);}.cls-56{clip-path:url(#clip-path-54);}.cls-57{clip-path:url(#clip-path-55);}.cls-58{clip-path:url(#clip-path-56);}.cls-59{clip-path:url(#clip-path-57);}.cls-60{clip-path:url(#clip-path-58);}.cls-61{clip-path:url(#clip-path-59);}.cls-62{clip-path:url(#clip-path-60);}.cls-63{clip-path:url(#clip-path-61);}.cls-64{clip-path:url(#clip-path-62);}.cls-65{clip-path:url(#clip-path-63);}.cls-66{clip-path:url(#clip-path-64);}.cls-67{clip-path:url(#clip-path-65);}.cls-68{clip-path:url(#clip-path-66);}.cls-69{clip-path:url(#clip-path-67);}.cls-70{clip-path:url(#clip-path-68);}.cls-71{clip-path:url(#clip-path-69);}.cls-72{clip-path:url(#clip-path-70);}.cls-73{clip-path:url(#clip-path-71);}.cls-74{clip-path:url(#clip-path-72);}.cls-75{clip-path:url(#clip-path-73);}.cls-76{clip-path:url(#clip-path-74);}.cls-77{clip-path:url(#clip-path-75);}.cls-78{clip-path:url(#clip-path-76);}.cls-79{clip-path:url(#clip-path-77);}.cls-80{clip-path:url(#clip-path-78);}.cls-81{clip-path:url(#clip-path-79);}.cls-82{clip-path:url(#clip-path-80);}.cls-83{clip-path:url(#clip-path-81);}.cls-84{clip-path:url(#clip-path-82);}.cls-85{clip-path:url(#clip-path-83);}.cls-86{clip-path:url(#clip-path-84);}.cls-87{clip-path:url(#clip-path-85);}.cls-88{clip-path:url(#clip-path-86);}.cls-89{clip-path:url(#clip-path-87);}.cls-90{clip-path:url(#clip-path-88);}.cls-91{clip-path:url(#clip-path-89);}.cls-92{clip-path:url(#clip-path-90);}.cls-93{clip-path:url(#clip-path-91);}.cls-94{clip-path:url(#clip-path-92);}.cls-95{clip-path:url(#clip-path-93);}.cls-96{clip-path:url(#clip-path-94);}.cls-97{clip-path:url(#clip-path-95);}.cls-98{clip-path:url(#clip-path-96);}.cls-99{clip-path:url(#clip-path-97);}.cls-100{clip-path:url(#clip-path-98);}.cls-101{clip-path:url(#clip-path-99);}.cls-102{clip-path:url(#clip-path-100);}.cls-103{clip-path:url(#clip-path-101);}.cls-104{clip-path:url(#clip-path-102);}.cls-105{clip-path:url(#clip-path-103);}.cls-106{clip-path:url(#clip-path-104);}.cls-107{clip-path:url(#clip-path-105);}.cls-108{clip-path:url(#clip-path-106);}.cls-109{clip-path:url(#clip-path-107);}.cls-110{clip-path:url(#clip-path-108);}.cls-111{clip-path:url(#clip-path-109);}.cls-112{clip-path:url(#clip-path-110);}.cls-113{clip-path:url(#clip-path-111);}.cls-114{clip-path:url(#clip-path-112);}.cls-115{clip-path:url(#clip-path-113);}.cls-116{clip-path:url(#clip-path-114);}.cls-117{clip-path:url(#clip-path-115);}.cls-118{clip-path:url(#clip-path-116);}.cls-119{clip-path:url(#clip-path-117);}.cls-120{clip-path:url(#clip-path-118);}.cls-121{clip-path:url(#clip-path-119);}.cls-122{clip-path:url(#clip-path-120);}.cls-123{clip-path:url(#clip-path-121);}.cls-124{clip-path:url(#clip-path-122);}.cls-125{clip-path:url(#clip-path-123);}.cls-126{clip-path:url(#clip-path-124);}.cls-127{clip-path:url(#clip-path-125);}.cls-128{clip-path:url(#clip-path-126);}.cls-129{clip-path:url(#clip-path-127);}.cls-130{clip-path:url(#clip-path-128);}.cls-131{clip-path:url(#clip-path-129);}.cls-132{clip-path:url(#clip-path-130);}.cls-133{clip-path:url(#clip-path-131);}.cls-134{clip-path:url(#clip-path-132);}.cls-135{clip-path:url(#clip-path-133);}.cls-136{clip-path:url(#clip-path-134);}.cls-137{clip-path:url(#clip-path-135);}.cls-138{clip-path:url(#clip-path-136);}.cls-139{clip-path:url(#clip-path-137);}.cls-140{clip-path:url(#clip-path-138);}.cls-141{clip-path:url(#clip-path-139);}.cls-142{clip-path:url(#clip-path-140);}.cls-143{clip-path:url(#clip-path-141);}.cls-144{clip-path:url(#clip-path-142);}.cls-145{clip-path:url(#clip-path-143);}.cls-146{clip-path:url(#clip-path-144);}.cls-147{clip-path:url(#clip-path-145);}.cls-148{clip-path:url(#clip-path-146);}.cls-149{clip-path:url(#clip-path-147);}.cls-150{clip-path:url(#clip-path-148);}.cls-151{clip-path:url(#clip-path-149);}.cls-152{clip-path:url(#clip-path-150);}.cls-153{clip-path:url(#clip-path-151);}.cls-154{clip-path:url(#clip-path-152);}.cls-155{clip-path:url(#clip-path-153);}.cls-156{clip-path:url(#clip-path-154);}.cls-157{clip-path:url(#clip-path-155);}.cls-158{clip-path:url(#clip-path-156);}.cls-159{clip-path:url(#clip-path-157);}.cls-160{clip-path:url(#clip-path-158);}.cls-161{clip-path:url(#clip-path-159);}.cls-162{clip-path:url(#clip-path-160);}.cls-163{clip-path:url(#clip-path-161);}.cls-164{clip-path:url(#clip-path-162);}.cls-165{clip-path:url(#clip-path-163);}.cls-166{clip-path:url(#clip-path-164);}.cls-167{clip-path:url(#clip-path-165);}.cls-168{clip-path:url(#clip-path-166);}.cls-169{clip-path:url(#clip-path-167);}.cls-170{clip-path:url(#clip-path-168);}.cls-171{clip-path:url(#clip-path-169);}.cls-172{clip-path:url(#clip-path-170);}.cls-173{clip-path:url(#clip-path-171);}.cls-174{clip-path:url(#clip-path-172);}.cls-175{clip-path:url(#clip-path-173);}.cls-176{clip-path:url(#clip-path-174);}.cls-177{clip-path:url(#clip-path-175);}.cls-178{clip-path:url(#clip-path-176);}.cls-179{clip-path:url(#clip-path-177);}.cls-180{clip-path:url(#clip-path-178);}.cls-181{clip-path:url(#clip-path-179);}.cls-182{clip-path:url(#clip-path-180);}.cls-183{clip-path:url(#clip-path-181);}.cls-184{clip-path:url(#clip-path-182);}.cls-185{clip-path:url(#clip-path-183);}.cls-186{clip-path:url(#clip-path-184);}.cls-187{clip-path:url(#clip-path-185);}.cls-188{clip-path:url(#clip-path-186);}.cls-189{clip-path:url(#clip-path-187);}.cls-190{clip-path:url(#clip-path-188);}.cls-191{clip-path:url(#clip-path-189);}.cls-192{clip-path:url(#clip-path-190);}.cls-193{clip-path:url(#clip-path-191);}.cls-194{clip-path:url(#clip-path-192);}.cls-195{clip-path:url(#clip-path-193);}.cls-196{clip-path:url(#clip-path-194);}.cls-197{clip-path:url(#clip-path-195);}.cls-198{clip-path:url(#clip-path-196);}.cls-199{clip-path:url(#clip-path-197);}.cls-200{clip-path:url(#clip-path-198);}.cls-201{clip-path:url(#clip-path-199);}.cls-202{clip-path:url(#clip-path-200);}.cls-203{clip-path:url(#clip-path-201);}.cls-204{clip-path:url(#clip-path-202);}.cls-205{clip-path:url(#clip-path-203);}.cls-206{clip-path:url(#clip-path-204);}.cls-207{clip-path:url(#clip-path-205);}.cls-208{clip-path:url(#clip-path-206);}.cls-209{clip-path:url(#clip-path-207);}.cls-210{clip-path:url(#clip-path-208);}.cls-211{clip-path:url(#clip-path-209);}.cls-212{clip-path:url(#clip-path-210);}.cls-213{clip-path:url(#clip-path-211);}.cls-214{fill:#3c9344;}.cls-215{clip-path:url(#clip-path-212);}.cls-216{fill:#347534;}.cls-217{clip-path:url(#clip-path-214);}.cls-218{isolation:isolate;}.cls-219{clip-path:url(#clip-path-216);}.cls-220{clip-path:url(#clip-path-217);}.cls-221{fill:#00652e;}.cls-222{clip-path:url(#clip-path-219);}.cls-223{clip-path:url(#clip-path-221);}.cls-224{fill:#99bf19;}.cls-225{clip-path:url(#clip-path-223);}.cls-226{clip-path:url(#clip-path-225);}.cls-227{fill:#4ca92c;}.cls-228{clip-path:url(#clip-path-227);}.cls-229{fill:#2c346e;}.cls-230{clip-path:url(#clip-path-229);}.cls-231{fill:#13b9b0;}.cls-232{clip-path:url(#clip-path-231);}.cls-233{clip-path:url(#clip-path-233);}.cls-234{clip-path:url(#clip-path-235);}.cls-235{clip-path:url(#clip-path-237);}.cls-236{clip-path:url(#clip-path-239);}.cls-237{clip-path:url(#clip-path-241);}.cls-238{clip-path:url(#clip-path-243);}.cls-239{fill:#ff6d00;}.cls-240{clip-path:url(#clip-path-245);}.cls-241{fill:#ff9141;}.cls-242{clip-path:url(#clip-path-247);}.cls-243{fill:#ffb692;}.cls-244{clip-path:url(#clip-path-249);}.cls-245{fill:#b5802c;}.cls-246{clip-path:url(#clip-path-251);}.cls-247{fill:#96631a;}.cls-248{clip-path:url(#clip-path-253);}.cls-249{clip-path:url(#clip-path-255);}.cls-250{clip-path:url(#clip-path-257);}.cls-251{fill:#ffa57d;}.cls-252{clip-path:url(#clip-path-259);}.cls-253{fill:#f99067;}.cls-254{clip-path:url(#clip-path-261);}.cls-255{clip-path:url(#clip-path-263);}.cls-256{clip-path:url(#clip-path-265);}.cls-257{clip-path:url(#clip-path-267);}.cls-258{clip-path:url(#clip-path-269);}.cls-259{fill:#59a352;}.cls-260{clip-path:url(#clip-path-271);}.cls-261{clip-path:url(#clip-path-273);}.cls-262{clip-path:url(#clip-path-275);}.cls-263{clip-path:url(#clip-path-277);}.cls-264{clip-path:url(#clip-path-279);}.cls-265{clip-path:url(#clip-path-281);}.cls-266{clip-path:url(#clip-path-283);}.cls-267{clip-path:url(#clip-path-285);}.cls-268{clip-path:url(#clip-path-287);}.cls-269{fill:#fff;}.cls-270{clip-path:url(#clip-path-289);}.cls-271{clip-path:url(#clip-path-291);}.cls-272{clip-path:url(#clip-path-293);}.cls-273{clip-path:url(#clip-path-295);}.cls-274{clip-path:url(#clip-path-297);}.cls-275{clip-path:url(#clip-path-299);}.cls-276{clip-path:url(#clip-path-301);}.cls-277{clip-path:url(#clip-path-303);}.cls-278{fill:#e57857;}.cls-279{clip-path:url(#clip-path-305);}.cls-280{clip-path:url(#clip-path-307);}.cls-281{clip-path:url(#clip-path-309);}.cls-282{clip-path:url(#clip-path-311);}.cls-283{clip-path:url(#clip-path-313);}.cls-284{clip-path:url(#clip-path-315);}.cls-285{fill:#2c446e;}.cls-286{clip-path:url(#clip-path-317);}.cls-287{clip-path:url(#clip-path-319);}.cls-288{fill:#a55c25;}.cls-289{clip-path:url(#clip-path-321);}.cls-290{fill:#8c491c;}.cls-291{clip-path:url(#clip-path-323);}.cls-292{clip-path:url(#clip-path-325);}.cls-293{clip-path:url(#clip-path-327);}.cls-294{clip-path:url(#clip-path-328);}.cls-295{fill:#633220;}.cls-296{clip-path:url(#clip-path-330);}.cls-297{clip-path:url(#clip-path-332);}.cls-298{clip-path:url(#clip-path-333);}.cls-299{fill:#4c2218;}.cls-300{clip-path:url(#clip-path-335);}.cls-301{clip-path:url(#clip-path-337);}.cls-302{fill:#2d2a2b;}.cls-303{clip-path:url(#clip-path-339);}.cls-304{fill:#231f20;}.cls-305{clip-path:url(#clip-path-341);}.cls-306{clip-path:url(#clip-path-343);}.cls-307{clip-path:url(#clip-path-345);}.cls-308{clip-path:url(#clip-path-347);}.cls-309{clip-path:url(#clip-path-349);}.cls-310{clip-path:url(#clip-path-351);}.cls-311{fill:#bf7c5e;}.cls-312{clip-path:url(#clip-path-353);}.cls-313{clip-path:url(#clip-path-355);}.cls-314{clip-path:url(#clip-path-357);}.cls-315{fill:#8a397e;}.cls-316{clip-path:url(#clip-path-359);}.cls-317{fill:#772a70;}.cls-318{clip-path:url(#clip-path-361);}.cls-319{clip-path:url(#clip-path-363);}.cls-320{clip-path:url(#clip-path-365);}.cls-321{clip-path:url(#clip-path-367);}.cls-322{clip-path:url(#clip-path-369);}.cls-323{fill:#681964;}.cls-324{clip-path:url(#clip-path-371);}.cls-325{fill:#ad6b51;}.cls-326{clip-path:url(#clip-path-373);}.cls-327{fill:#9b5942;}.cls-328{clip-path:url(#clip-path-375);}.cls-329{clip-path:url(#clip-path-377);}.cls-330{clip-path:url(#clip-path-379);}.cls-331{clip-path:url(#clip-path-381);}.cls-332{clip-path:url(#clip-path-383);}.cls-333{clip-path:url(#clip-path-385);}.cls-334{clip-path:url(#clip-path-387);}.cls-335{clip-path:url(#clip-path-389);}.cls-336{clip-path:url(#clip-path-391);}.cls-337{clip-path:url(#clip-path-393);}.cls-338{clip-path:url(#clip-path-395);}.cls-339{clip-path:url(#clip-path-397);}.cls-340{clip-path:url(#clip-path-399);}.cls-341{clip-path:url(#clip-path-401);}.cls-342{clip-path:url(#clip-path-403);}.cls-343{clip-path:url(#clip-path-405);}.cls-344{clip-path:url(#clip-path-407);}.cls-345{clip-path:url(#clip-path-409);}.cls-346{clip-path:url(#clip-path-410);}.cls-347{clip-path:url(#clip-path-411);}.cls-348{clip-path:url(#clip-path-412);}.cls-349{clip-path:url(#clip-path-413);}.cls-350{clip-path:url(#clip-path-414);}.cls-351{clip-path:url(#clip-path-415);}.cls-352{clip-path:url(#clip-path-416);}.cls-353{clip-path:url(#clip-path-417);}.cls-354{clip-path:url(#clip-path-418);}.cls-355{clip-path:url(#clip-path-419);}.cls-356{clip-path:url(#clip-path-420);}.cls-357{clip-path:url(#clip-path-421);}.cls-358{clip-path:url(#clip-path-422);}.cls-359{clip-path:url(#clip-path-423);}.cls-360{clip-path:url(#clip-path-424);}.cls-361{clip-path:url(#clip-path-425);}.cls-362{clip-path:url(#clip-path-426);}.cls-363{clip-path:url(#clip-path-427);}.cls-364{clip-path:url(#clip-path-428);}.cls-365{clip-path:url(#clip-path-429);}.cls-366{clip-path:url(#clip-path-430);}.cls-367{clip-path:url(#clip-path-431);}.cls-368{clip-path:url(#clip-path-432);}.cls-369{clip-path:url(#clip-path-433);}.cls-370{clip-path:url(#clip-path-434);}.cls-371{clip-path:url(#clip-path-435);}.cls-372{clip-path:url(#clip-path-436);}.cls-373{clip-path:url(#clip-path-437);}.cls-374{clip-path:url(#clip-path-438);}.cls-375{clip-path:url(#clip-path-439);}.cls-376{clip-path:url(#clip-path-440);}.cls-377{clip-path:url(#clip-path-441);}.cls-378{clip-path:url(#clip-path-442);}.cls-379{clip-path:url(#clip-path-443);}.cls-380{clip-path:url(#clip-path-444);}.cls-381{clip-path:url(#clip-path-445);}.cls-382{clip-path:url(#clip-path-446);}.cls-383{clip-path:url(#clip-path-447);}.cls-384{clip-path:url(#clip-path-448);}.cls-385{clip-path:url(#clip-path-449);}</style><clipPath id="clip-path"><polygon class="cls-1" points="-4175.83 540.53 -4175.83 611.53 -3683.97 895.51 -3192.09 611.53 -3192.09 540.53 -3683.97 256.55 -4175.83 540.53"/></clipPath><clipPath id="clip-path-2"><polygon class="cls-1" points="-3683.96 895.51 -4175.83 611.53 -4175.83 540.53 -3683.96 824.51 -3683.96 895.51"/></clipPath><clipPath id="clip-path-3"><polygon class="cls-1" points="-3438.03 895.51 -3192.09 895.51 -3192.09 540.53 -3683.96 540.53 -3683.96 895.51 -3438.03 895.51"/></clipPath><clipPath id="clip-path-4"><polygon class="cls-1" points="-3622.48 647.02 -3868.41 505.03 -3868.41 292.05 -3622.48 434.04 -3622.48 647.02"/></clipPath><clipPath id="clip-path-5"><polygon class="cls-1" points="-3521.52 279.82 -3622.48 434.02 -3622.48 647 -3438.03 540.51 -3438.03 327.55 -3521.52 279.82"/></clipPath><clipPath id="clip-path-6"><polygon class="cls-1" points="-3885.19 317.01 -3776.24 132.28 -3521.52 279.82 -3639.25 459 -3885.19 317.01"/></clipPath><clipPath id="clip-path-7"><polygon class="cls-1" points="-3561.03 611.53 -3561.03 469.52 -3499.51 434.04 -3499.51 576.01 -3561.03 611.53"/></clipPath><clipPath id="clip-path-8"><polygon class="cls-1" points="-3714.71 451.66 -3714.71 522.65 -3653.22 558.15 -3653.22 487.15 -3714.71 451.66"/></clipPath><clipPath id="clip-path-9"><polygon class="cls-1" points="-3837.45 380.79 -3837.45 451.79 -3775.96 487.29 -3775.96 416.29 -3837.45 380.79"/></clipPath><clipPath id="clip-path-10"><rect class="cls-2" x="-4175.83" y="67.86" width="983.74" height="827.65"/></clipPath><clipPath id="clip-path-11"><path class="cls-1" d="M-3919.26,577.31h-169.19s-25.22,113.66,32.53,213.91h21.57s-98.92-175.77,30.49-175.77,30.49,175.77,30.49,175.77h21.57c57.74-100.26,32.53-213.91,32.53-213.91"/></clipPath><clipPath id="clip-path-12"><path class="cls-1" d="M-3941.45,375.07h-.19a99.33,99.33,0,0,0-93.91,67l.47-.1a99.32,99.32,0,0,1,93.63-66.92"/></clipPath><clipPath id="clip-path-13"><path class="cls-1" d="M-3937.37,375.17c.91,0,1.82,0,2.73.07-.9,0-1.82,0-2.73-.07"/></clipPath><clipPath id="clip-path-14"><path class="cls-1" d="M-3941.4,399.69a27.82,27.82,0,0,1,3.41.25,28,28,0,0,0-3.21-.27l-.2,0"/></clipPath><clipPath id="clip-path-15"><path class="cls-1" d="M-3941.21,375.07h-.24a33.32,33.32,0,0,1,4.08.32,32.85,32.85,0,0,0-3.83-.33"/></clipPath><clipPath id="clip-path-16"><path class="cls-1" d="M-3936.83,399.8c-.46,0-.93,0-1.4,0l1.4,0"/></clipPath><clipPath id="clip-path-17"><path class="cls-1" d="M-4005.77,436.09l-29.32,5.91,0,.09,29.79-6a74.73,74.73,0,0,1,63.93-36.41h-.25a74.74,74.74,0,0,0-64.12,36.42"/></clipPath><clipPath id="clip-path-18"><path class="cls-1" d="M-3898.67,384.62a98.8,98.8,0,0,0-37.81-9.42,98.76,98.76,0,0,1,37.74,9.59Z"/></clipPath><clipPath id="clip-path-19"><path class="cls-1" d="M-3898.74,384.79a98.76,98.76,0,0,0-37.74-9.59l-.89,0c-1.35-.06-2.71-.1-4.08-.1A99.32,99.32,0,0,0-4035.09,442l29.32-5.91a74.73,74.73,0,0,1,64.12-36.42h.44c1,0,2,0,3,.09h.46a74.21,74.21,0,0,1,29.42,7.53Z"/></clipPath><clipPath id="clip-path-20"><path class="cls-1" d="M-4065.74,375.07a98.91,98.91,0,0,0-42.54,9.56l9.68,22.68a74.24,74.24,0,0,1,32.86-7.63,74.73,74.73,0,0,1,64.12,36.42l29.79,6a99.33,99.33,0,0,0-93.91-67"/></clipPath><clipPath id="clip-path-21"><path class="cls-1" d="M-4165,474.38a99.29,99.29,0,0,0,54.62,88.68l8-23.65a74.74,74.74,0,0,1-38-65,74.79,74.79,0,0,1,41.85-67.08l-9.68-22.68A99.31,99.31,0,0,0-4165,474.38"/></clipPath><clipPath id="clip-path-22"><path class="cls-1" d="M-4088.31,301.13s2.22,38.32,19.87,51l-2.85-24.47Z"/></clipPath><clipPath id="clip-path-23"><path class="cls-1" d="M-3918.39,301.13s-2.22,38.32-19.87,51l2.85-24.47Z"/></clipPath><clipPath id="clip-path-24"><path class="cls-1" d="M-4003.35,390.23-4042,368.48s-38.28,136.5-46.45,208.83h85.09Z"/></clipPath><clipPath id="clip-path-25"><path class="cls-1" d="M-4003.85,390.23l38.65-21.75s38.28,136.5,46.44,208.83h-85.09Z"/></clipPath><clipPath id="clip-path-26"><path class="cls-1" d="M-4003.35,384.88h-30.18s13.48,30.31,30.18,34c16.69-3.64,30.18-34,30.18-34Z"/></clipPath><clipPath id="clip-path-27"><path class="cls-1" d="M-4003.35,363.71l-30.18,21.17s15.89,20.64,30.18,20.64c4.39,0,19.7-6.63,30.18-20.64Z"/></clipPath><clipPath id="clip-path-28"><path class="cls-1" d="M-4069.19,301.13a13.52,13.52,0,0,0-19.12,0,13.52,13.52,0,0,0,0,19.12,13.52,13.52,0,0,0,19.12,0,13.52,13.52,0,0,0,0-19.12"/></clipPath><clipPath id="clip-path-29"><path class="cls-1" d="M-3918.39,301.13a13.52,13.52,0,0,0-19.12,0,13.52,13.52,0,0,0,0,19.12,13.52,13.52,0,0,0,19.12,0,13.52,13.52,0,0,0,0-19.12"/></clipPath><clipPath id="clip-path-30"><path class="cls-1" d="M-3988,390.25c20.92-7.23,42.66-17.84,52.7-37.56,6.94-13.63,7.19-29.55,7.34-44.85.1-11,.2-22.2-1.46-33a80.56,80.56,0,0,0-3.84-15.41c-6.89-18.91-22.48-34.29-41.22-41.65a77,77,0,0,0-28.82-5.19l-13.38,116.58,13.38,64.31c.34,0,.67,0,1,0,4.91-.12,9.66-1.64,14.3-3.24"/></clipPath><clipPath id="clip-path-31"><path class="cls-1" d="M-4033.06,218.61c-14,5.73-26.6,15.54-34.29,28.58-10.39,17.64-11.08,39.16-11,59.63.08,18.65.89,39.38,12.92,54.71s33.42,25.37,51.74,30.22a44.49,44.49,0,0,0,10.74,1.71l-5.47-65.8,16-5.47-10.54-109.63a81.81,81.81,0,0,0-30.11,6"/></clipPath><clipPath id="clip-path-32"><path class="cls-1" d="M-4024.85,291.57a5.68,5.68,0,0,0-5.68-5.68,5.68,5.68,0,0,0-5.68,5.68,5.68,5.68,0,0,0,5.68,5.68,5.68,5.68,0,0,0,5.68-5.68"/></clipPath><clipPath id="clip-path-33"><path class="cls-1" d="M-3968.17,291.57a5.68,5.68,0,0,0-5.68-5.68,5.68,5.68,0,0,0-5.68,5.68,5.68,5.68,0,0,0,5.68,5.68,5.68,5.68,0,0,0,5.68-5.68"/></clipPath><clipPath id="clip-path-34"><path class="cls-1" d="M-3949.08,317c0,3.49-5.59,6.32-12.5,6.32s-12.5-2.83-12.5-6.32,5.6-6.32,12.5-6.32,12.5,2.83,12.5,6.32"/></clipPath><clipPath id="clip-path-35"><path class="cls-1" d="M-4054.9,317c0,3.49,5.59,6.32,12.5,6.32s12.5-2.83,12.5-6.32-5.59-6.32-12.5-6.32-12.5,2.83-12.5,6.32"/></clipPath><clipPath id="clip-path-36"><polygon class="cls-1" points="-4008.82 327.63 -3986.32 327.63 -3992.82 322.2 -4008.82 327.63"/></clipPath><clipPath id="clip-path-37"><path class="cls-1" d="M-3936.44,539.41h31.5l8,23.65c-7,12.09-22,14.25-22,14.25l-4.23-29.07H-3936a4.29,4.29,0,0,1-.45,0,4.44,4.44,0,0,1-4.44-4.44,4.44,4.44,0,0,1,4.44-4.44"/></clipPath><clipPath id="clip-path-38"><path class="cls-1" d="M-3969.73,202.06v.63c-1.4,2.61-14.12,25.71-31.09,38.37-6.36,4.74-13.31,8-20.49,8.19h43c5.45.12,8.6,2.1,10.92,4.58,4.22,4.53,5.6,10.79,12.66,10.79a14.59,14.59,0,0,1,10.18,3.57c4.72,4.25,5.2,10.78,5.2,10.78v31.72h11.8q0-1.94,0-3.86c0-3.18,0-6.38-.06-9.59a13.44,13.44,0,0,1,7.64,2.65l1.52,1.24s0,0,0,0l.19.23a272.17,272.17,0,0,0,1.88-29.41c0-34.92-22.12-60-53.41-69.85"/></clipPath><clipPath id="clip-path-39"><path class="cls-1" d="M-3989.18,196.27a138.83,138.83,0,0,0-14.46,0c-2.54.13-5.09.32-7.62.6a103.49,103.49,0,0,0-11,1.79c-.34.08-1.08.36-1.84.61l-1.94.36h0a94.45,94.45,0,0,0-16.26,4.67c-28.22,11-47.71,35.09-47.66,67.84,0,6.94.65,19.13,1.67,27.6,0,.48,0,.92,0,1.4l.15-.12c0,.17,0,.37.06.53.12-.13.21-.28.34-.41a13.29,13.29,0,0,1,8.26-3.8c.41,0,.81-.09,1.22-.07-.06,3.2-.07,6.4-.06,9.57q0,1.92,0,3.86h11.8V279a19.1,19.1,0,0,1,2.08-6.74l2.46-3.38.06-.08c2.29-2.34,5.72-3.53,10.78-4.16s7-6.29,11.45-10.56a16.9,16.9,0,0,1,12.13-4.82s27,.1,30.85,0c38.27-.86,53.1-26.93,58.85-41.24,1.28-3.18,2.11-5.79,2.64-7.4a30.72,30.72,0,0,0,1-4.32Z"/></clipPath><clipPath id="clip-path-40"><path class="cls-1" d="M-3939.39,310.69c0,22.32-40.76,22.93-58.52,22.13H-4008c-17.76.79-58.52.18-58.52-22.13h-11.8c.21,17.61,1.68,36.57,12.89,50.84,11.95,15.23,33.42,25.37,51.74,30.22a44.44,44.44,0,0,0,10.74,1.71,44.44,44.44,0,0,0,10.74-1.71c18.31-4.86,39.79-15,51.74-30.22,11.2-14.27,12.67-33.24,12.89-50.84h-11.8Z"/></clipPath><clipPath id="clip-path-41"><path class="cls-1" d="M-4003.35,376.41a34.8,34.8,0,0,0,34.8-34.8h-69.59a34.8,34.8,0,0,0,34.8,34.8"/></clipPath><clipPath id="clip-path-42"><path class="cls-1" d="M-3898.74,384.79l-9.61,22.51a74.21,74.21,0,0,0-29.42-7.53,74.8,74.8,0,0,1,70.84,74.61,74.74,74.74,0,0,1-38,65l8,23.65a99.29,99.29,0,0,0,54.62-88.68,99.32,99.32,0,0,0-56.41-89.59"/></clipPath><clipPath id="clip-path-43"><path class="cls-1" d="M-4026,309.37a1.7,1.7,0,0,0-1.71-1.7,1.7,1.7,0,0,0-1.7,1.7,1.71,1.71,0,0,0,1.7,1.7,1.71,1.71,0,0,0,1.71-1.7"/></clipPath><clipPath id="clip-path-44"><path class="cls-1" d="M-4039.7,303.9a1.7,1.7,0,0,0-1.7-1.7,1.7,1.7,0,0,0-1.71,1.7,1.7,1.7,0,0,0,1.71,1.7,1.7,1.7,0,0,0,1.7-1.7"/></clipPath><clipPath id="clip-path-45"><path class="cls-1" d="M-4015.1,303.9a1.7,1.7,0,0,0-1.7-1.7,1.7,1.7,0,0,0-1.71,1.7,1.7,1.7,0,0,0,1.71,1.7,1.7,1.7,0,0,0,1.7-1.7"/></clipPath><clipPath id="clip-path-46"><path class="cls-1" d="M-4037,312.1a1.71,1.71,0,0,0-1.71-1.71,1.71,1.71,0,0,0-1.7,1.71,1.7,1.7,0,0,0,1.7,1.7,1.7,1.7,0,0,0,1.71-1.7"/></clipPath><clipPath id="clip-path-47"><path class="cls-1" d="M-4045.17,317.57a1.71,1.71,0,0,0-1.71-1.71,1.71,1.71,0,0,0-1.7,1.71,1.7,1.7,0,0,0,1.7,1.7,1.7,1.7,0,0,0,1.71-1.7"/></clipPath><clipPath id="clip-path-48"><path class="cls-1" d="M-4020.57,317.57a1.71,1.71,0,0,0-1.7-1.71,1.71,1.71,0,0,0-1.71,1.71,1.7,1.7,0,0,0,1.71,1.7,1.7,1.7,0,0,0,1.7-1.7"/></clipPath><clipPath id="clip-path-49"><path class="cls-1" d="M-3974.13,309.37a1.7,1.7,0,0,1,1.7-1.7,1.7,1.7,0,0,1,1.71,1.7,1.71,1.71,0,0,1-1.71,1.7,1.71,1.71,0,0,1-1.7-1.7"/></clipPath><clipPath id="clip-path-50"><path class="cls-1" d="M-3960.47,303.9a1.7,1.7,0,0,1,1.7-1.7,1.7,1.7,0,0,1,1.71,1.7,1.7,1.7,0,0,1-1.71,1.7,1.7,1.7,0,0,1-1.7-1.7"/></clipPath><clipPath id="clip-path-51"><path class="cls-1" d="M-3985.07,303.9a1.7,1.7,0,0,1,1.7-1.7,1.7,1.7,0,0,1,1.71,1.7,1.7,1.7,0,0,1-1.71,1.7,1.7,1.7,0,0,1-1.7-1.7"/></clipPath><clipPath id="clip-path-52"><path class="cls-1" d="M-3963.2,312.1a1.71,1.71,0,0,1,1.71-1.71,1.71,1.71,0,0,1,1.7,1.71,1.7,1.7,0,0,1-1.7,1.7,1.7,1.7,0,0,1-1.71-1.7"/></clipPath><clipPath id="clip-path-53"><path class="cls-1" d="M-3955,317.57a1.71,1.71,0,0,1,1.7-1.71,1.71,1.71,0,0,1,1.71,1.71,1.7,1.7,0,0,1-1.71,1.7,1.7,1.7,0,0,1-1.7-1.7"/></clipPath><clipPath id="clip-path-54"><path class="cls-1" d="M-3979.6,317.57a1.71,1.71,0,0,1,1.7-1.71,1.71,1.71,0,0,1,1.71,1.71,1.7,1.7,0,0,1-1.71,1.7,1.7,1.7,0,0,1-1.7-1.7"/></clipPath><clipPath id="clip-path-55"><path class="cls-1" d="M-4088.44,577.31s-25.22,113.66,32.53,213.91h21.57s-98.92-175.77,30.49-175.77V577.31Z"/></clipPath><clipPath id="clip-path-56"><path class="cls-1" d="M-3919.26,577.31S-3894,691-3951.78,791.22h-21.57s98.92-175.77-30.49-175.77V577.31Z"/></clipPath><clipPath id="clip-path-57"><path class="cls-1" d="M-4028.37,794.17a7.84,7.84,0,0,0-6.13-2.95h-21.42s-13.76,6.2-21.08-1.82a10.77,10.77,0,0,0-8.43-4.05,10.79,10.79,0,0,0-10.79,10.79,10.79,10.79,0,0,0,10.79,10.79h50.92a7.85,7.85,0,0,0,7.85-7.85,7.82,7.82,0,0,0-1.72-4.9"/></clipPath><clipPath id="clip-path-58"><path class="cls-1" d="M-3979.32,794.17a7.84,7.84,0,0,1,6.13-2.95h21.42s13.76,6.2,21.08-1.82a10.77,10.77,0,0,1,8.43-4.05,10.79,10.79,0,0,1,10.79,10.79,10.79,10.79,0,0,1-10.79,10.79h-50.92a7.85,7.85,0,0,1-7.85-7.85,7.82,7.82,0,0,1,1.72-4.9"/></clipPath><clipPath id="clip-path-59"><path class="cls-1" d="M-4070.95,539.41h-31.5l-8,23.65c7,12.09,22,14.25,22,14.25l4.23-29.07h12.82a4.29,4.29,0,0,0,.45,0,4.44,4.44,0,0,0,4.44-4.44,4.44,4.44,0,0,0-4.44-4.44"/></clipPath><clipPath id="clip-path-60"><rect class="cls-2" x="-3401.1" y="228.03" width="92.62" height="181.23"/></clipPath><clipPath id="clip-path-61"><rect class="cls-2" x="-3312.43" y="228.03" width="92.6" height="181.28"/></clipPath><clipPath id="clip-path-62"><path class="cls-1" d="M-3232.22,590.62H-3388.9s-23.35,105.26,30.12,198.11h20S-3430.41,626-3310.56,626s28.24,162.78,28.24,162.78h20c53.48-92.85,30.12-198.11,30.12-198.11"/></clipPath><clipPath id="clip-path-63"><path class="cls-1" d="M-3388.9,590.62s-23.35,105.26,30.12,198.11h20S-3430.41,626-3310.56,626V590.62Z"/></clipPath><clipPath id="clip-path-64"><path class="cls-1" d="M-3232.22,590.62s23.35,105.26-30.12,198.11h-20S-3190.71,626-3310.56,626V590.62Z"/></clipPath><clipPath id="clip-path-65"><path class="cls-1" d="M-3333.27,791.46a7.26,7.26,0,0,0-5.68-2.73h-19.83s-12.75,5.74-19.52-1.68a10,10,0,0,0-7.8-3.75,10,10,0,0,0-10,10,10,10,0,0,0,10,10h47.16a7.27,7.27,0,0,0,7.27-7.27,7.24,7.24,0,0,0-1.59-4.54"/></clipPath><clipPath id="clip-path-66"><path class="cls-1" d="M-3287.84,791.46a7.26,7.26,0,0,1,5.68-2.73h19.83s12.75,5.74,19.52-1.68a10,10,0,0,1,7.8-3.75,10,10,0,0,1,10,10,10,10,0,0,1-10,10h-47.16a7.27,7.27,0,0,1-7.27-7.27,7.25,7.25,0,0,1,1.59-4.54"/></clipPath><clipPath id="clip-path-67"><path class="cls-1" d="M-3219.83,318.67A90.64,90.64,0,0,0-3310.46,228c-.66,0-1.31,0-2,0l-23.15,76.29,23.15,104.88c.66,0,1.3.05,2,.05a90.64,90.64,0,0,0,90.64-90.64"/></clipPath><clipPath id="clip-path-68"><path class="cls-1" d="M-3400.14,331.91s4.49,54.11-27.67,61.4c0,0,29.88,43.12,97.48,19.56l-9.73-45.54Z"/></clipPath><clipPath id="clip-path-69"><path class="cls-1" d="M-3220.92,331.91s-4.49,54.11,27.67,61.4c0,0-29.88,43.12-97.48,19.56l9.73-45.54Z"/></clipPath><clipPath id="clip-path-70"><path class="cls-1" d="M-3459.33,485.91a92.94,92.94,0,0,0-.51,9.62,91.72,91.72,0,0,0,50.46,81.92l7.37-21.85a69,69,0,0,1-35.11-60.07,69.21,69.21,0,0,1,.69-9.62Z"/></clipPath><clipPath id="clip-path-71"><path class="cls-1" d="M-3343.51,407.14l-4.67,22.35a69.32,69.32,0,0,1,39.32,30.68l27.52,5.54a91.94,91.94,0,0,0-62.17-58.57"/></clipPath><clipPath id="clip-path-72"><path class="cls-1" d="M-3368.1,403.79a91.75,91.75,0,0,0-91.24,82.12h22.91a69.11,69.11,0,0,1,68.33-59.39,68.71,68.71,0,0,1,19.92,3l4.67-22.35a91.75,91.75,0,0,0-24.58-3.35"/></clipPath><clipPath id="clip-path-73"><path class="cls-1" d="M-3310.93,417.8l35.7-20.09s35.36,126.1,42.91,192.91h-78.61Z"/></clipPath><clipPath id="clip-path-74"><path class="cls-1" d="M-3302.25,429.06a91.59,91.59,0,0,0-15.53,24.67l18.28,16.26a68.6,68.6,0,0,1,14.58-26.23l.47-.5-20.66-3.65Z"/></clipPath><clipPath id="clip-path-75"><path class="cls-1" d="M-3189.28,406.73c-19.21-4.62-37.7-10.82-57.76-7.81a91.36,91.36,0,0,0-54.88,29.74l-.34.4-2.87,10.55,20.66,3.65A69.49,69.49,0,0,1-3230,420.73c22.68,1.09,42.46,12.24,65.86,8.73a91.79,91.79,0,0,0,26.05-8l-10.57-20.21a69.51,69.51,0,0,1-40.63,5.48"/></clipPath><clipPath id="clip-path-76"><path class="cls-1" d="M-3310.46,417.8l-35.7-20.09s-35.36,126.1-42.91,192.91h78.61Z"/></clipPath><clipPath id="clip-path-77"><path class="cls-1" d="M-3338.34,412.87h6.33l-8-11.71-19.57,13.92,22.73,14-3.16,23,29.59,77.86V444.24c-15.42-3.37-27.88-31.37-27.88-31.37"/></clipPath><clipPath id="clip-path-78"><path class="cls-1" d="M-3282.59,412.87h-6.33l8-11.71,19.57,13.92-22.73,14,3.16,23L-3310.46,530V444.24c15.42-3.37,27.88-31.37,27.88-31.37"/></clipPath><clipPath id="clip-path-79"><path class="cls-1" d="M-3310.46,412.87h-27.88s12.46,28,27.88,31.37c15.42-3.37,27.88-31.37,27.88-31.37Z"/></clipPath><clipPath id="clip-path-80"><path class="cls-1" d="M-3310.46,393.31l-27.88,19.56s14.68,19.07,27.88,19.07c4.06,0,18.2-6.12,27.88-19.07Z"/></clipPath><clipPath id="clip-path-81"><path class="cls-1" d="M-3371.29,335.5a12.49,12.49,0,0,0-17.66,0,12.49,12.49,0,0,0,0,17.66,12.49,12.49,0,0,0,17.66,0,12.49,12.49,0,0,0,0-17.66"/></clipPath><clipPath id="clip-path-82"><path class="cls-1" d="M-3232,335.5a12.49,12.49,0,0,0-17.66,0,12.49,12.49,0,0,0,0,17.66,12.49,12.49,0,0,0,17.66,0,12.49,12.49,0,0,0,0-17.66"/></clipPath><clipPath id="clip-path-83"><path class="cls-1" d="M-3296.32,417.82c19.32-6.67,39.41-16.48,48.69-34.69,6.41-12.59,6.64-27.3,6.78-41.43.1-10.17.18-20.51-1.35-30.52a74.36,74.36,0,0,0-3.55-14.23c-6.36-17.47-20.77-31.68-38.08-38.47a71.17,71.17,0,0,0-26.62-4.79l-12.36,107.69,12.36,59.41c.31,0,.62,0,.93,0,4.53-.11,8.93-1.51,13.21-3"/></clipPath><clipPath id="clip-path-84"><path class="cls-1" d="M-3337.91,259.27c-12.95,5.3-24.57,14.35-31.67,26.4-9.6,16.29-10.24,36.18-10.16,55.09.07,17.23.82,36.38,11.93,50.54s30.88,23.43,47.79,27.92a41.13,41.13,0,0,0,9.92,1.58l-5.05-60.78,14.78-5.05-9.73-101.27a75.59,75.59,0,0,0-27.82,5.57"/></clipPath><clipPath id="clip-path-85"><path class="cls-1" d="M-3330.32,326.66a5.25,5.25,0,0,0-5.25-5.25,5.25,5.25,0,0,0-5.25,5.25,5.25,5.25,0,0,0,5.25,5.25,5.25,5.25,0,0,0,5.25-5.25"/></clipPath><clipPath id="clip-path-86"><path class="cls-1" d="M-3278,326.66a5.25,5.25,0,0,0-5.25-5.25,5.25,5.25,0,0,0-5.25,5.25,5.25,5.25,0,0,0,5.25,5.25,5.25,5.25,0,0,0,5.25-5.25"/></clipPath><clipPath id="clip-path-87"><path class="cls-1" d="M-3260.33,350.17c0,3.23-5.17,5.84-11.54,5.84s-11.54-2.61-11.54-5.84,5.17-5.84,11.54-5.84,11.54,2.61,11.54,5.84"/></clipPath><clipPath id="clip-path-88"><path class="cls-1" d="M-3358.09,350.17c0,3.23,5.17,5.84,11.54,5.84s11.54-2.61,11.54-5.84-5.17-5.84-11.54-5.84-11.54,2.61-11.54,5.84"/></clipPath><clipPath id="clip-path-89"><polygon class="cls-1" points="-3315.51 359.97 -3294.73 359.97 -3300.73 354.96 -3315.51 359.97"/></clipPath><clipPath id="clip-path-90"><path class="cls-1" d="M-3402,555.61h29.1v8.16h-12.25l-3.91,26.85s-13.85-2-20.31-13.16Z"/></clipPath><clipPath id="clip-path-91"><path class="cls-1" d="M-3372.91,555.61a4.1,4.1,0,0,1,4.1,4.1,4.1,4.1,0,0,1-4.1,4.1,4.1,4.1,0,0,1-4.1-4.1,4.1,4.1,0,0,1,4.1-4.1"/></clipPath><clipPath id="clip-path-92"><path class="cls-1" d="M-3082.71,322.25a18.41,18.41,0,0,0,1-6,18.46,18.46,0,0,0-18.46-18.46,18.46,18.46,0,0,0-18.46,18.46,18.37,18.37,0,0,0,3.07,10.18h0l0,.07.1.14,6.55,9.69a68.76,68.76,0,0,1-17.36,48.25,68.39,68.39,0,0,1-22.41,16.63l10.57,20.21a91.4,91.4,0,0,0,28.82-21.74c16.44-18.49,23.06-40.44,22.13-63.35l4.42-14.12Z"/></clipPath><clipPath id="clip-path-93"><path class="cls-1" d="M-3114.43,277.77a4.21,4.21,0,0,0-4.21,4.21v39.35h8.42V282a4.21,4.21,0,0,0-4.21-4.21"/></clipPath><clipPath id="clip-path-94"><path class="cls-1" d="M-3094,312.13h-25.65a1.52,1.52,0,0,0-1.5,1.19,22,22,0,0,0-.45,4.41,25.73,25.73,0,0,0,1.14,7.59c1.6,5.1,9.21,2.82,9.3-2.52a1.52,1.52,0,0,1,1.52-1.49h15.6v-.08h0c2.8,0,5.08-1.73,5.08-4.53s-2.27-4.57-5.08-4.57"/></clipPath><clipPath id="clip-path-95"><path class="cls-1" d="M-3310.46,405a32.14,32.14,0,0,0,32.14-32.14h-64.29A32.15,32.15,0,0,0-3310.46,405"/></clipPath><clipPath id="clip-path-96"><path class="cls-1" d="M-3309.48,289s-22.51,29.66-85.35,47.36c0,0-15.15-100.46,85.35-90.09Z"/></clipPath><clipPath id="clip-path-97"><path class="cls-1" d="M-3311.45,289s22.51,29.66,85.35,47.36c0,0,15.15-101.71-85.35-91.34Z"/></clipPath><clipPath id="clip-path-98"><path class="cls-1" d="M-1563.88,430.84s-71.17-123.23-201.91-52.61c-143.17,77.33-41.57,221-41.57,221s68.32,93.48,325.14,75.44V812s-380,70.95-471.62-212.8c-96.89-300.22,184.9-369.12,184.9-369.12s200-50.48,317.53,134.63Z"/></clipPath><clipPath id="clip-path-99"><path class="cls-1" d="M-1112.23,430.84s71.17-123.23,201.91-52.61c143.17,77.33,41.57,221,41.57,221s-68.32,93.48-325.14,75.44V812s380,70.95,471.62-212.8c96.89-300.22-184.9-369.12-184.9-369.12s-200-50.48-317.53,134.63Z"/></clipPath><clipPath id="clip-path-100"><polygon class="cls-1" points="-1337.94 258.25 -1830.07 542.56 -1830.07 613.64 -1337.94 897.96 -845.82 613.64 -845.82 542.56 -1337.94 258.25"/></clipPath><clipPath id="clip-path-101"><polygon class="cls-1" points="-1337.94 897.96 -1830.07 613.64 -1830.07 542.56 -1337.94 826.88 -1337.94 897.96"/></clipPath><clipPath id="clip-path-102"><polygon class="cls-1" points="-1337.94 897.96 -845.82 613.64 -845.82 542.56 -1337.94 826.88 -1337.94 897.96"/></clipPath><clipPath id="clip-path-103"><polygon class="cls-1" points="-1337.98 898.37 -1830.61 613.77 -1830.61 542.62 -1337.98 827.22 -1337.98 898.37"/></clipPath><clipPath id="clip-path-104"><polygon class="cls-1" points="-1091.67 898.37 -845.36 898.37 -845.36 542.62 -1337.98 542.62 -1337.98 898.37 -1091.67 898.37"/></clipPath><clipPath id="clip-path-105"><polygon class="cls-1" points="-1276.41 649.34 -1522.72 507.04 -1522.72 293.58 -1276.41 435.89 -1276.41 649.34"/></clipPath><clipPath id="clip-path-106"><polygon class="cls-1" points="-1175.29 281.33 -1276.41 435.87 -1276.41 649.32 -1091.67 542.6 -1091.67 329.16 -1175.29 281.33"/></clipPath><clipPath id="clip-path-107"><polygon class="cls-1" points="-1539.52 318.6 -1430.41 133.46 -1175.29 281.33 -1293.2 460.91 -1539.52 318.6"/></clipPath><clipPath id="clip-path-108"><polygon class="cls-1" points="-1214.86 613.77 -1214.86 471.44 -1153.25 435.89 -1153.25 578.17 -1214.86 613.77"/></clipPath><clipPath id="clip-path-109"><polygon class="cls-1" points="-1368.78 453.55 -1368.78 524.7 -1307.2 560.27 -1307.19 489.12 -1368.78 453.55"/></clipPath><clipPath id="clip-path-110"><polygon class="cls-1" points="-1491.7 382.52 -1491.7 453.68 -1430.12 489.25 -1430.12 418.1 -1491.7 382.52"/></clipPath><clipPath id="clip-path-111"><rect class="cls-2" x="-1830.61" y="68.9" width="985.25" height="829.47"/></clipPath><clipPath id="clip-path-112"><path class="cls-1" d="M-1606.24,473.75h-93.33s-13.91,62.74,17.94,118.08h11.9s-54.57-97,16.82-97,16.82,97,16.82,97h11.9c31.85-55.34,17.94-118.08,17.94-118.08"/></clipPath><clipPath id="clip-path-113"><path class="cls-1" d="M-1618.48,362.12h-.11a54.8,54.8,0,0,0-51.81,37l.26-.05a54.79,54.79,0,0,1,51.65-36.94"/></clipPath><clipPath id="clip-path-114"><path class="cls-1" d="M-1616.23,362.17l1.5,0c-.5,0-1,0-1.5,0"/></clipPath><clipPath id="clip-path-115"><path class="cls-1" d="M-1618.45,375.71a15.32,15.32,0,0,1,1.88.14,15.45,15.45,0,0,0-1.77-.15h-.11"/></clipPath><clipPath id="clip-path-116"><path class="cls-1" d="M-1618.35,362.11h-.13a18.38,18.38,0,0,1,2.25.18,18.12,18.12,0,0,0-2.12-.18"/></clipPath><clipPath id="clip-path-117"><path class="cls-1" d="M-1615.94,375.77l-.77,0,.77,0"/></clipPath><clipPath id="clip-path-118"><path class="cls-1" d="M-1654,395.8l-16.17,3.26,0,.05,16.44-3.31a41.22,41.22,0,0,1,35.27-20.1h-.14A41.22,41.22,0,0,0-1654,395.8"/></clipPath><clipPath id="clip-path-119"><path class="cls-1" d="M-1594.89,367.39a54.47,54.47,0,0,0-20.86-5.2,54.45,54.45,0,0,1,20.82,5.29Z"/></clipPath><clipPath id="clip-path-120"><path class="cls-1" d="M-1594.92,367.48a54.45,54.45,0,0,0-20.82-5.29h-.49c-.75,0-1.5-.06-2.25-.06a54.79,54.79,0,0,0-51.65,36.94l16.17-3.26a41.22,41.22,0,0,1,35.37-20.1h.24c.55,0,1.1,0,1.64,0h.25a40.91,40.91,0,0,1,16.23,4.16Z"/></clipPath><clipPath id="clip-path-121"><path class="cls-1" d="M-1687,362.11a54.53,54.53,0,0,0-23.46,5.28l5.34,12.52A40.93,40.93,0,0,1-1687,375.7a41.22,41.22,0,0,1,35.37,20.1l16.44,3.31a54.8,54.8,0,0,0-51.81-37"/></clipPath><clipPath id="clip-path-122"><path class="cls-1" d="M-1741.83,416.93a54.81,54.81,0,0,0,30.13,49l4.4-13.06a41.26,41.26,0,0,1-21-35.9,41.29,41.29,0,0,1,23.09-37l-5.34-12.52a54.82,54.82,0,0,0-31.32,49.54"/></clipPath><clipPath id="clip-path-123"><path class="cls-1" d="M-1699.5,321.3s1.23,21.15,11,28.13l-1.57-13.51Z"/></clipPath><clipPath id="clip-path-124"><path class="cls-1" d="M-1605.76,321.3s-1.23,21.15-11,28.13l1.57-13.51Z"/></clipPath><clipPath id="clip-path-125"><path class="cls-1" d="M-1652.63,370.48l-21.32-12s-21.11,75.35-25.62,115.27h46.94Z"/></clipPath><clipPath id="clip-path-126"><path class="cls-1" d="M-1652.91,370.48l21.32-12s21.11,75.35,25.62,115.27h-46.94Z"/></clipPath><clipPath id="clip-path-127"><path class="cls-1" d="M-1652.63,367.53h-16.65s7.44,16.73,16.65,18.75c9.21-2,16.65-18.75,16.65-18.75Z"/></clipPath><clipPath id="clip-path-128"><path class="cls-1" d="M-1652.63,355.85l-16.65,11.69s8.76,11.39,16.65,11.39c2.42,0,10.86-3.66,16.65-11.39Z"/></clipPath><clipPath id="clip-path-129"><path class="cls-1" d="M-1689,321.3a7.45,7.45,0,0,0-10.55,0,7.46,7.46,0,0,0,0,10.55,7.45,7.45,0,0,0,10.55,0,7.47,7.47,0,0,0,0-10.55"/></clipPath><clipPath id="clip-path-130"><path class="cls-1" d="M-1605.76,321.3a7.45,7.45,0,0,0-10.55,0,7.47,7.47,0,0,0,0,10.55,7.45,7.45,0,0,0,10.55,0,7.47,7.47,0,0,0,0-10.55"/></clipPath><clipPath id="clip-path-131"><path class="cls-1" d="M-1644.18,370.49c11.54-4,23.53-9.85,29.07-20.73,3.83-7.52,4-16.31,4-24.75a113.94,113.94,0,0,0-.81-18.24,44.5,44.5,0,0,0-2.12-8.5,39.86,39.86,0,0,0-22.74-23,42.46,42.46,0,0,0-15.9-2.86l-7.38,64.35,7.38,35.5.56,0a26.43,26.43,0,0,0,7.89-1.79"/></clipPath><clipPath id="clip-path-132"><path class="cls-1" d="M-1669,275.75a38.89,38.89,0,0,0-18.91,15.78c-5.73,9.73-6.11,21.62-6.07,32.92,0,10.3.49,21.74,7.13,30.2s18.44,14,28.54,16.68a24.53,24.53,0,0,0,5.92.95l-3-36.32,8.83-3-5.81-60.52a45.1,45.1,0,0,0-16.61,3.33"/></clipPath><clipPath id="clip-path-133"><path class="cls-1" d="M-1664.49,316a3.14,3.14,0,0,0-3.14-3.14,3.14,3.14,0,0,0-3.14,3.14,3.14,3.14,0,0,0,3.14,3.14,3.14,3.14,0,0,0,3.14-3.14"/></clipPath><clipPath id="clip-path-134"><path class="cls-1" d="M-1633.22,316a3.14,3.14,0,0,0-3.14-3.14,3.14,3.14,0,0,0-3.13,3.14,3.14,3.14,0,0,0,3.13,3.14,3.14,3.14,0,0,0,3.14-3.14"/></clipPath><clipPath id="clip-path-135"><path class="cls-1" d="M-1622.69,330.07c0,1.93-3.09,3.49-6.89,3.49s-6.89-1.56-6.89-3.49,3.09-3.49,6.89-3.49,6.89,1.56,6.89,3.49"/></clipPath><clipPath id="clip-path-136"><path class="cls-1" d="M-1681.07,330.07c0,1.93,3.09,3.49,6.89,3.49s6.89-1.56,6.89-3.49-3.09-3.49-6.89-3.49-6.89,1.56-6.89,3.49"/></clipPath><clipPath id="clip-path-137"><polygon class="cls-1" points="-1655.65 335.93 -1643.24 335.93 -1646.82 332.93 -1655.65 335.93"/></clipPath><clipPath id="clip-path-138"><path class="cls-1" d="M-1615.72,452.83h17.38l4.4,13.06c-3.86,6.67-12.13,7.87-12.13,7.87l-2.33-16h-7.07l-.25,0a2.45,2.45,0,0,1-2.45-2.45,2.45,2.45,0,0,1,2.45-2.45"/></clipPath><clipPath id="clip-path-139"><path class="cls-1" d="M-1634.08,266.61V267c-.77,1.44-7.79,14.19-17.15,21.18-3.51,2.62-7.34,4.43-11.3,4.52h23.73a7.83,7.83,0,0,1,6,2.53c2.33,2.5,3.09,6,7,6a8,8,0,0,1,5.61,2,9.82,9.82,0,0,1,2.87,6v17.51h6.51q0-1.07,0-2.13c0-1.75,0-3.52,0-5.29a7.41,7.41,0,0,1,4.22,1.46l.84.69v0l.1.13a150.36,150.36,0,0,0,1-16.23c0-19.28-12.2-33.14-29.46-38.56"/></clipPath><clipPath id="clip-path-140"><path class="cls-1" d="M-1644.81,263.42a76.57,76.57,0,0,0-8,0c-1.4.07-2.81.18-4.2.33a57.15,57.15,0,0,0-6.07,1c-.19,0-.6.2-1,.34l-1.07.2h0a52,52,0,0,0-9,2.58c-15.57,6.05-26.32,19.37-26.29,37.45,0,3.83.36,10.56.92,15.24,0,.26,0,.51,0,.77l.08-.07,0,.29c.07-.07.12-.16.19-.23a7.33,7.33,0,0,1,4.55-2.1c.22,0,.45,0,.67,0,0,1.77,0,3.53,0,5.28,0,.71,0,1.42,0,2.13h6.51V309.07a10.55,10.55,0,0,1,1.15-3.72l1.36-1.86,0,0c1.26-1.29,3.16-1.95,5.95-2.3s3.88-3.47,6.32-5.83a9.32,9.32,0,0,1,6.69-2.66s14.89.05,17,0c21.11-.48,29.29-14.87,32.46-22.77.7-1.76,1.16-3.2,1.46-4.09a17,17,0,0,0,.54-2.38Z"/></clipPath><clipPath id="clip-path-141"><path class="cls-1" d="M-1617.34,326.58c0,12.32-22.48,12.66-32.28,12.22h-5.56c-9.8.44-32.28.1-32.28-12.22H-1694c.12,9.72.93,20.19,7.11,28.06,6.59,8.4,18.44,14,28.54,16.68a24.5,24.5,0,0,0,5.92.95,24.5,24.5,0,0,0,5.92-.95c10.1-2.68,21.95-8.28,28.54-16.68,6.18-7.88,7-18.35,7.11-28.06h-6.51Z"/></clipPath><clipPath id="clip-path-142"><path class="cls-1" d="M-1652.63,362.86a19.2,19.2,0,0,0,19.2-19.21h-38.39a19.2,19.2,0,0,0,19.2,19.21"/></clipPath><clipPath id="clip-path-143"><path class="cls-1" d="M-1594.92,367.48l-5.3,12.43a40.91,40.91,0,0,0-16.23-4.16,41.28,41.28,0,0,1,39.08,41.18,41.26,41.26,0,0,1-21,35.9l4.4,13.06a54.81,54.81,0,0,0,30.13-49,54.83,54.83,0,0,0-31.12-49.45"/></clipPath><clipPath id="clip-path-144"><path class="cls-1" d="M-1665.14,325.85a.94.94,0,0,0-.94-.94.94.94,0,0,0-.94.94.94.94,0,0,0,.94.94.94.94,0,0,0,.94-.94"/></clipPath><clipPath id="clip-path-145"><path class="cls-1" d="M-1672.68,322.83a.94.94,0,0,0-.94-.94.94.94,0,0,0-.94.94.94.94,0,0,0,.94.94.94.94,0,0,0,.94-.94"/></clipPath><clipPath id="clip-path-146"><path class="cls-1" d="M-1659.11,322.83a.94.94,0,0,0-.94-.94.94.94,0,0,0-.94.94.94.94,0,0,0,.94.94.94.94,0,0,0,.94-.94"/></clipPath><clipPath id="clip-path-147"><path class="cls-1" d="M-1671.18,327.36a.94.94,0,0,0-.94-.94.94.94,0,0,0-.94.94.94.94,0,0,0,.94.94.94.94,0,0,0,.94-.94"/></clipPath><clipPath id="clip-path-148"><path class="cls-1" d="M-1675.7,330.38a.94.94,0,0,0-.94-.94.94.94,0,0,0-.94.94.94.94,0,0,0,.94.94.94.94,0,0,0,.94-.94"/></clipPath><clipPath id="clip-path-149"><path class="cls-1" d="M-1662.13,330.38a.94.94,0,0,0-.94-.94.94.94,0,0,0-.94.94.94.94,0,0,0,.94.94.94.94,0,0,0,.94-.94"/></clipPath><clipPath id="clip-path-150"><path class="cls-1" d="M-1636.51,325.85a.94.94,0,0,1,.94-.94.94.94,0,0,1,.94.94.94.94,0,0,1-.94.94.94.94,0,0,1-.94-.94"/></clipPath><clipPath id="clip-path-151"><path class="cls-1" d="M-1629,322.83a.94.94,0,0,1,.94-.94.94.94,0,0,1,.94.94.94.94,0,0,1-.94.94.94.94,0,0,1-.94-.94"/></clipPath><clipPath id="clip-path-152"><path class="cls-1" d="M-1642.54,322.83a.94.94,0,0,1,.94-.94.94.94,0,0,1,.94.94.94.94,0,0,1-.94.94.94.94,0,0,1-.94-.94"/></clipPath><clipPath id="clip-path-153"><path class="cls-1" d="M-1630.48,327.36a.94.94,0,0,1,.94-.94.94.94,0,0,1,.94.94.94.94,0,0,1-.94.94.94.94,0,0,1-.94-.94"/></clipPath><clipPath id="clip-path-154"><path class="cls-1" d="M-1626,330.38a.94.94,0,0,1,.94-.94.94.94,0,0,1,.94.94.94.94,0,0,1-.94.94.94.94,0,0,1-.94-.94"/></clipPath><clipPath id="clip-path-155"><path class="cls-1" d="M-1639.53,330.38a.94.94,0,0,1,.94-.94.94.94,0,0,1,.94.94.94.94,0,0,1-.94.94.94.94,0,0,1-.94-.94"/></clipPath><clipPath id="clip-path-156"><path class="cls-1" d="M-1699.57,473.75s-13.91,62.74,17.94,118.08h11.9s-54.57-97,16.82-97V473.75Z"/></clipPath><clipPath id="clip-path-157"><path class="cls-1" d="M-1606.24,473.75s13.91,62.74-17.94,118.08h-11.9s54.57-97-16.82-97V473.75Z"/></clipPath><clipPath id="clip-path-158"><path class="cls-1" d="M-1666.43,593.46a4.32,4.32,0,0,0-3.38-1.63h-11.81s-7.59,3.42-11.63-1a5.94,5.94,0,0,0-4.65-2.24,6,6,0,0,0-6,6,6,6,0,0,0,6,6h28.09a4.33,4.33,0,0,0,4.33-4.33,4.32,4.32,0,0,0-.95-2.71"/></clipPath><clipPath id="clip-path-159"><path class="cls-1" d="M-1639.38,593.46a4.32,4.32,0,0,1,3.38-1.63h11.81s7.59,3.42,11.63-1a5.94,5.94,0,0,1,4.65-2.24,6,6,0,0,1,6,6,6,6,0,0,1-6,6H-1636a4.33,4.33,0,0,1-4.33-4.33,4.32,4.32,0,0,1,.95-2.71"/></clipPath><clipPath id="clip-path-160"><path class="cls-1" d="M-1689.92,452.83h-17.38l-4.4,13.06c3.86,6.67,12.13,7.87,12.13,7.87l2.33-16h7.07l.25,0a2.45,2.45,0,0,0,2.45-2.45,2.45,2.45,0,0,0-2.45-2.45"/></clipPath><clipPath id="clip-path-161"><rect class="cls-2" x="-1574.83" y="277.56" width="51.09" height="100.04"/></clipPath><clipPath id="clip-path-162"><rect class="cls-2" x="-1525.91" y="277.56" width="51.08" height="100.07"/></clipPath><clipPath id="clip-path-163"><path class="cls-1" d="M-1481.67,477.71h-86.43s-12.88,58.1,16.62,109.36h11s-50.53-89.86,15.58-89.86,15.58,89.86,15.58,89.86h11c29.5-51.25,16.62-109.36,16.62-109.36"/></clipPath><clipPath id="clip-path-164"><path class="cls-1" d="M-1568.1,477.71s-12.88,58.1,16.62,109.36h11s-50.53-89.86,15.58-89.86v-19.5Z"/></clipPath><clipPath id="clip-path-165"><path class="cls-1" d="M-1481.67,477.71s12.88,58.1-16.62,109.36h-11s50.53-89.86-15.58-89.86v-19.5Z"/></clipPath><clipPath id="clip-path-166"><path class="cls-1" d="M-1537.41,588.57a4,4,0,0,0-3.13-1.51h-10.94s-7,3.17-10.77-.93a5.5,5.5,0,0,0-4.3-2.07,5.51,5.51,0,0,0-5.51,5.51,5.51,5.51,0,0,0,5.51,5.51h26a4,4,0,0,0,4-4,4,4,0,0,0-.88-2.51"/></clipPath><clipPath id="clip-path-167"><path class="cls-1" d="M-1512.35,588.57a4,4,0,0,1,3.13-1.51h10.94s7,3.17,10.77-.93a5.5,5.5,0,0,1,4.3-2.07,5.51,5.51,0,0,1,5.51,5.51,5.51,5.51,0,0,1-5.51,5.51h-26a4,4,0,0,1-4-4,4,4,0,0,1,.88-2.51"/></clipPath><clipPath id="clip-path-168"><path class="cls-1" d="M-1474.83,327.59a50,50,0,0,0-50-50l-1.08,0-12.77,42.11,12.77,57.9,1.08,0a50,50,0,0,0,50-50"/></clipPath><clipPath id="clip-path-169"><path class="cls-1" d="M-1574.3,334.9s2.48,29.87-15.26,33.89c0,0,16.48,23.8,53.78,10.8l-5.37-25.14Z"/></clipPath><clipPath id="clip-path-170"><path class="cls-1" d="M-1475.43,334.9s-2.48,29.87,15.26,33.89c0,0-16.48,23.8-53.77,10.8l5.37-25.14Z"/></clipPath><clipPath id="clip-path-171"><path class="cls-1" d="M-1607,419.91a51.3,51.3,0,0,0-.28,5.31,50.63,50.63,0,0,0,27.84,45.22l4.07-12.06a38.12,38.12,0,0,1-19.37-33.16,38.27,38.27,0,0,1,.38-5.31Z"/></clipPath><clipPath id="clip-path-172"><path class="cls-1" d="M-1579.57,455.58a7.32,7.32,0,0,0-1.68-6.37c-1.68-1.73-3.37-3.54-7.15-3.06a38.28,38.28,0,0,1-8.33,9.91c-.14,2.32-1.47,6.24,0,7.73s6.54,1.21,8.81,1.21a50.77,50.77,0,0,0,8.35-9.42"/></clipPath><clipPath id="clip-path-173"><path class="cls-1" d="M-1543.06,376.43l-2.57,12.34a38.24,38.24,0,0,1,21.69,16.93l15.18,3.06a50.73,50.73,0,0,0-34.3-32.33"/></clipPath><clipPath id="clip-path-174"><path class="cls-1" d="M-1556.62,374.58A50.63,50.63,0,0,0-1607,419.91h12.64a38.13,38.13,0,0,1,37.69-32.78,37.88,37.88,0,0,1,11,1.64l2.57-12.34a50.58,50.58,0,0,0-13.56-1.85"/></clipPath><clipPath id="clip-path-175"><path class="cls-1" d="M-1525.08,382.31l19.69-11.09s19.51,69.61,23.67,106.49h-43.36Z"/></clipPath><clipPath id="clip-path-176"><path class="cls-1" d="M-1520.3,388.53a50.56,50.56,0,0,0-8.57,13.62l10.08,9a37.87,37.87,0,0,1,8-14.48l.26-.27-11.4-2Z"/></clipPath><clipPath id="clip-path-177"><path class="cls-1" d="M-1458,376.2c-10.6-2.55-20.79-6-31.86-4.31a50.39,50.39,0,0,0-30.27,16.42l-.19.22-1.58,5.83,11.4,2a38.32,38.32,0,0,1,30-12.44c12.51.6,23.42,6.76,36.33,4.82a50.61,50.61,0,0,0,14.37-4.41l-5.83-11.16a38.32,38.32,0,0,1-22.41,3"/></clipPath><clipPath id="clip-path-178"><path class="cls-1" d="M-1524.83,382.31l-19.69-11.09s-19.51,69.61-23.67,106.49h43.36Z"/></clipPath><clipPath id="clip-path-179"><path class="cls-1" d="M-1540.21,379.59h3.49l-4.44-6.46-10.8,7.68,12.54,7.72-1.74,12.72,16.32,43V396.9c-8.51-1.86-15.38-17.32-15.38-17.32"/></clipPath><clipPath id="clip-path-180"><path class="cls-1" d="M-1509.45,379.59h-3.49l4.44-6.46,10.8,7.68-12.54,7.72,1.74,12.72-16.32,43V396.9c8.51-1.86,15.38-17.32,15.38-17.32"/></clipPath><clipPath id="clip-path-181"><path class="cls-1" d="M-1524.83,379.59h-15.38s6.87,15.46,15.38,17.32c8.51-1.86,15.38-17.32,15.38-17.32Z"/></clipPath><clipPath id="clip-path-182"><path class="cls-1" d="M-1524.83,368.79l-15.38,10.8s8.1,10.52,15.38,10.52c2.24,0,10-3.38,15.38-10.52Z"/></clipPath><clipPath id="clip-path-183"><path class="cls-1" d="M-1558.38,336.88a6.88,6.88,0,0,0-9.74,0,6.9,6.9,0,0,0,0,9.75,6.89,6.89,0,0,0,9.74,0,6.9,6.9,0,0,0,0-9.75"/></clipPath><clipPath id="clip-path-184"><path class="cls-1" d="M-1481.54,336.88a6.88,6.88,0,0,0-9.74,0,6.9,6.9,0,0,0,0,9.75,6.89,6.89,0,0,0,9.74,0,6.9,6.9,0,0,0,0-9.75"/></clipPath><clipPath id="clip-path-185"><path class="cls-1" d="M-1517,382.32c10.66-3.68,21.74-9.1,26.86-19.15,3.54-6.95,3.67-15.07,3.74-22.87a105.25,105.25,0,0,0-.75-16.85,41,41,0,0,0-2-7.86,36.82,36.82,0,0,0-21-21.24,39.23,39.23,0,0,0-14.69-2.65l-6.82,59.45,6.82,32.79.51,0a24.41,24.41,0,0,0,7.29-1.65"/></clipPath><clipPath id="clip-path-186"><path class="cls-1" d="M-1540,294.8a35.93,35.93,0,0,0-17.47,14.58c-5.3,9-5.65,20-5.6,30.41,0,9.51.45,20.08,6.58,27.9s17,12.93,26.37,15.41a22.67,22.67,0,0,0,5.47.87l-2.79-33.55,8.15-2.79-5.37-55.9A41.67,41.67,0,0,0-1540,294.8"/></clipPath><clipPath id="clip-path-187"><path class="cls-1" d="M-1535.78,332a2.9,2.9,0,0,0-2.9-2.9,2.9,2.9,0,0,0-2.9,2.9,2.9,2.9,0,0,0,2.9,2.9,2.9,2.9,0,0,0,2.9-2.9"/></clipPath><clipPath id="clip-path-188"><path class="cls-1" d="M-1506.9,332a2.9,2.9,0,0,0-2.9-2.9,2.9,2.9,0,0,0-2.9,2.9,2.9,2.9,0,0,0,2.9,2.9,2.9,2.9,0,0,0,2.9-2.9"/></clipPath><clipPath id="clip-path-189"><path class="cls-1" d="M-1497.17,345c0,1.78-2.85,3.22-6.37,3.22s-6.37-1.44-6.37-3.22,2.85-3.22,6.37-3.22,6.37,1.44,6.37,3.22"/></clipPath><clipPath id="clip-path-190"><path class="cls-1" d="M-1551.1,345c0,1.78,2.85,3.22,6.37,3.22s6.37-1.44,6.37-3.22-2.85-3.22-6.37-3.22-6.37,1.44-6.37,3.22"/></clipPath><clipPath id="clip-path-191"><polygon class="cls-1" points="-1527.62 350.39 -1516.15 350.39 -1519.46 347.62 -1527.62 350.39"/></clipPath><clipPath id="clip-path-192"><path class="cls-1" d="M-1575.33,458.38h16.05v4.5H-1566l-2.16,14.82s-7.64-1.1-11.2-7.27Z"/></clipPath><clipPath id="clip-path-193"><path class="cls-1" d="M-1559.28,458.38a2.26,2.26,0,0,1,2.26,2.26,2.26,2.26,0,0,1-2.26,2.26,2.26,2.26,0,0,1-2.26-2.26,2.26,2.26,0,0,1,2.26-2.26"/></clipPath><clipPath id="clip-path-194"><path class="cls-1" d="M-1399.19,329.57a10.18,10.18,0,0,0,.55-3.29,10.19,10.19,0,0,0-10.18-10.19A10.19,10.19,0,0,0-1419,326.27a10.14,10.14,0,0,0,1.69,5.62h0l0,0,.05.08,3.61,5.35A38,38,0,0,1-1423.2,364a37.73,37.73,0,0,1-12.36,9.18l5.83,11.16a50.43,50.43,0,0,0,15.9-12c9.07-10.2,12.72-22.32,12.21-35l2.44-7.79Z"/></clipPath><clipPath id="clip-path-195"><path class="cls-1" d="M-1416.69,305a2.32,2.32,0,0,0-2.32,2.32v21.72h4.64V307.34a2.32,2.32,0,0,0-2.32-2.32"/></clipPath><clipPath id="clip-path-196"><path class="cls-1" d="M-1405.42,324h-14.15a.84.84,0,0,0-.83.66,12.17,12.17,0,0,0-.25,2.43,14.2,14.2,0,0,0,.63,4.19c.88,2.81,5.08,1.56,5.13-1.39a.84.84,0,0,1,.84-.82h8.6v0h0a2.56,2.56,0,0,0,2.8-2.5,2.58,2.58,0,0,0-2.8-2.52"/></clipPath><clipPath id="clip-path-197"><path class="cls-1" d="M-1524.83,375.27a17.74,17.74,0,0,0,17.73-17.74h-35.46a17.74,17.74,0,0,0,17.73,17.74"/></clipPath><clipPath id="clip-path-198"><path class="cls-1" d="M-1524.29,311.21s-12.42,16.37-47.08,26.15c0,0-8.36-55.46,47.08-49.73Z"/></clipPath><clipPath id="clip-path-199"><path class="cls-1" d="M-1525.37,311.21s12.42,16.37,47.08,26.15c0,0,8.36-56.14-47.08-50.42Z"/></clipPath><clipPath id="clip-path-200"><path class="cls-1" d="M-835.28,473.63c10,64.16-33.48,125.61-33.48,125.61s-68.32,93.48-325.14,75.44V812s380,70.95,471.62-212.8c17.3-53.61,22.53-99.84,19.44-139.63-14.2-183-204.34-229.5-204.34-229.5S-840.56,439.69-835.28,473.63Z"/></clipPath><clipPath id="clip-path-201"><path class="cls-1" d="M-1193.49,673.81l-166.27-56-15.68,46.66,70,23.57-29.29,161.06s83,15.21,141.35-36.21Z"/></clipPath><clipPath id="clip-path-202"><path class="cls-1" d="M-1391.07,633.41a24.74,24.74,0,0,0,15.55,31.33,24.72,24.72,0,0,0,31.31-15.56,24.74,24.74,0,0,0-15.55-31.33,24.72,24.72,0,0,0-31.31,15.56"/></clipPath><clipPath id="clip-path-203"><path class="cls-1" d="M-1305.41,688.08l-151.74-35.43-40.35,153.46S-1377.12,857-1308,851.23l28.61-66.14Z"/></clipPath><clipPath id="clip-path-204"><path class="cls-1" d="M-1497.5,806.11c25.73,6.57,55.4-22.63,66.27-65.23s-1.18-82.46-26.91-89-55.4,22.63-66.27,65.23,1.18,82.46,26.91,89"/></clipPath><clipPath id="clip-path-205"><path class="cls-1" d="M-1836.26,454.7c-23.52,70.42,28.9,144.55,28.9,144.55s68.32,93.48,325.14,75.44V812s-380,70.95-471.62-212.8c-29.51-91.45-23.89-161.44-1.8-214.55,50.43-121.26,186.7-154.58,186.7-154.58S-1827,427.07-1836.26,454.7Z"/></clipPath><clipPath id="clip-path-206"><path class="cls-1" d="M-1481.43,676.06l175.31,6.16-1.73,49.19-73.84-2.59-29.22,161.07s-74-13.36-113-72.66c-2.31-3.5,42.52-141.17,42.52-141.17"/></clipPath><clipPath id="clip-path-207"><path class="cls-1" d="M-1282.28,707.81a24.73,24.73,0,0,1-25.57,23.85,24.73,24.73,0,0,1-23.84-25.59,24.73,24.73,0,0,1,25.58-23.86,24.73,24.73,0,0,1,23.84,25.59"/></clipPath><clipPath id="clip-path-208"><path class="cls-1" d="M-1381.68,728.82l154.49,20.26-16.2,157.85S-1374,912.2-1436.6,882.47l-3.52-72Z"/></clipPath><clipPath id="clip-path-209"><path class="cls-1" d="M-1243.39,906.94c-26.4-2.91-43.9-40.69-39.09-84.39s30.1-76.77,56.5-73.86,43.9,40.69,39.09,84.39-30.1,76.77-56.5,73.87"/></clipPath><clipPath id="clip-path-210"><polygon class="cls-1" points="470.39 632.05 470.39 702.82 960.65 985.87 1450.91 702.82 1450.91 632.05 960.65 349 470.39 632.05"/></clipPath><clipPath id="clip-path-211"><rect class="cls-2" x="-899.57" y="-3722.59" width="7461.9" height="6709.88"/></clipPath><clipPath id="clip-path-212"><polygon class="cls-1" points="960.65 985.87 470.39 702.82 470.39 632.05 960.65 915.11 960.65 985.87"/></clipPath><clipPath id="clip-path-214"><polygon class="cls-1" points="1205.78 985.87 1450.91 985.87 1450.91 632.05 960.65 632.05 960.65 985.87 1205.78 985.87"/></clipPath><clipPath id="clip-path-216"><rect class="cls-2" x="960.08" y="626.3" width="495.52" height="361.44"/></clipPath><clipPath id="clip-path-217"><polygon class="cls-1" points="960.65 985.87 1450.91 702.82 1450.91 632.05 960.65 915.11 960.65 985.87"/></clipPath><clipPath id="clip-path-219"><path class="cls-1" d="M1318.06,525.91a71.57,71.57,0,0,0-71.57,71.57h143.13a71.57,71.57,0,0,0-71.57-71.57"/></clipPath><clipPath id="clip-path-221"><path class="cls-1" d="M1270.94,567.95a39.38,39.38,0,0,0-39.38,39.38h78.76a39.38,39.38,0,0,0-39.38-39.38"/></clipPath><clipPath id="clip-path-223"><path class="cls-1" d="M1013.09,770.23a42.86,42.86,0,0,0-38.47,24,34.47,34.47,0,0,0-40.93-1.2,53.28,53.28,0,1,0-104.63,20.12H1056a42.9,42.9,0,0,0-42.9-42.9"/></clipPath><clipPath id="clip-path-225"><path class="cls-1" d="M581.15,629.49H704.06a61.45,61.45,0,0,0-122.91,0Z"/></clipPath><clipPath id="clip-path-227"><path class="cls-1" d="M918.2,495.18H749.57S724.43,608.46,782,708.39h21.5S704.9,533.2,833.89,533.2s30.39,175.19,30.39,175.19h21.5c57.55-99.93,32.42-213.21,32.42-213.21"/></clipPath><clipPath id="clip-path-229"><path class="cls-1" d="M896.08,293.6h-.19a99,99,0,0,0-93.61,66.8l.47-.1a99,99,0,0,1,93.33-66.7"/></clipPath><clipPath id="clip-path-231"><path class="cls-1" d="M900.15,293.7c.9,0,1.82,0,2.72.07-.9,0-1.81,0-2.72-.07"/></clipPath><clipPath id="clip-path-233"><path class="cls-1" d="M896.14,318.14a27.72,27.72,0,0,1,3.4.25,27.92,27.92,0,0,0-3.19-.27l-.2,0"/></clipPath><clipPath id="clip-path-235"><path class="cls-1" d="M896.32,293.6h-.24a33.17,33.17,0,0,1,4.07.32,32.68,32.68,0,0,0-3.82-.33"/></clipPath><clipPath id="clip-path-237"><path class="cls-1" d="M900.69,318.25c-.46,0-.93,0-1.39,0l1.39,0"/></clipPath><clipPath id="clip-path-239"><path class="cls-1" d="M832,354.42l-29.23,5.89,0,.09,29.7-6a74.49,74.49,0,0,1,63.72-36.29h-.25A74.49,74.49,0,0,0,832,354.42"/></clipPath><clipPath id="clip-path-241"><path class="cls-1" d="M938.72,303.12A98.49,98.49,0,0,0,901,293.73a98.44,98.44,0,0,1,37.62,9.56Z"/></clipPath><clipPath id="clip-path-243"><path class="cls-1" d="M938.65,303.29A98.43,98.43,0,0,0,901,293.73l-.88,0c-1.35-.06-2.7-.1-4.07-.1a99,99,0,0,0-93.33,66.7L832,354.42a74.49,74.49,0,0,1,63.91-36.3h.44c1,0,2,0,3,.09h.45a74,74,0,0,1,29.33,7.51Z"/></clipPath><clipPath id="clip-path-245"><path class="cls-1" d="M772.2,293.6a98.59,98.59,0,0,0-42.4,9.53l9.65,22.6a74.37,74.37,0,0,1,96.66,28.69l29.7,6a99,99,0,0,0-93.61-66.8"/></clipPath><clipPath id="clip-path-247"><path class="cls-1" d="M673.21,392.58A99,99,0,0,0,727.66,481l8-23.57a74.42,74.42,0,0,1,3.84-131.67l-9.65-22.6a99,99,0,0,0-56.59,89.46"/></clipPath><clipPath id="clip-path-249"><path class="cls-1" d="M749.71,219.91s2.21,38.19,19.81,50.79l-2.84-24.39Z"/></clipPath><clipPath id="clip-path-251"><path class="cls-1" d="M919.06,219.91s-2.21,38.19-19.81,50.79l2.84-24.39Z"/></clipPath><clipPath id="clip-path-253"><path class="cls-1" d="M834.38,308.71,795.86,287s-38.15,136.05-46.29,208.14h84.81Z"/></clipPath><clipPath id="clip-path-255"><path class="cls-1" d="M833.89,308.71,872.41,287s38.15,136.05,46.29,208.14H833.89Z"/></clipPath><clipPath id="clip-path-257"><path class="cls-1" d="M834.38,303.38H804.31s13.44,30.21,30.08,33.85c16.64-3.63,30.08-33.85,30.08-33.85Z"/></clipPath><clipPath id="clip-path-259"><path class="cls-1" d="M834.38,282.28l-30.08,21.1S820.14,324,834.39,324c4.38,0,19.63-6.61,30.08-20.57Z"/></clipPath><clipPath id="clip-path-261"><path class="cls-1" d="M768.76,219.91a13.47,13.47,0,1,0,0,19.05,13.47,13.47,0,0,0,0-19.05"/></clipPath><clipPath id="clip-path-263"><path class="cls-1" d="M919.06,219.91a13.47,13.47,0,1,0,0,19.05,13.47,13.47,0,0,0,0-19.05"/></clipPath><clipPath id="clip-path-265"><path class="cls-1" d="M849.65,308.73c20.85-7.2,42.52-17.78,52.53-37.43,6.92-13.58,7.17-29.46,7.31-44.7.1-11,.19-22.13-1.46-32.93a80.29,80.29,0,0,0-3.83-15.36c-6.87-18.85-22.41-34.18-41.09-41.51a76.75,76.75,0,0,0-28.73-5.17L821,247.83l13.34,64.1c.34,0,.67,0,1,0,4.89-.12,9.63-1.63,14.25-3.23"/></clipPath><clipPath id="clip-path-267"><path class="cls-1" d="M804.78,137.66c-14,5.71-26.51,15.48-34.17,28.49-10.36,17.58-11,39-11,59.44.08,18.59.89,39.25,12.88,54.53s33.31,25.28,51.57,30.12a44.34,44.34,0,0,0,10.7,1.71l-5.45-65.58,16-5.45-10.5-109.27a81.54,81.54,0,0,0-30,6"/></clipPath><clipPath id="clip-path-269"><path class="cls-1" d="M813,210.37a5.66,5.66,0,1,0-5.66,5.66,5.67,5.67,0,0,0,5.66-5.66"/></clipPath><clipPath id="clip-path-271"><path class="cls-1" d="M869.45,210.37a5.66,5.66,0,1,0-5.66,5.66,5.66,5.66,0,0,0,5.66-5.66"/></clipPath><clipPath id="clip-path-273"><path class="cls-1" d="M888.48,235.73c0,3.48-5.58,6.3-12.45,6.3s-12.46-2.82-12.46-6.3,5.58-6.3,12.46-6.3,12.45,2.82,12.45,6.3"/></clipPath><clipPath id="clip-path-275"><path class="cls-1" d="M783,235.73c0,3.48,5.58,6.3,12.45,6.3s12.46-2.82,12.46-6.3-5.58-6.3-12.46-6.3S783,232.25,783,235.73"/></clipPath><clipPath id="clip-path-277"><polygon class="cls-1" points="828.93 246.31 851.36 246.31 844.88 240.9 828.93 246.31"/></clipPath><clipPath id="clip-path-279"><path class="cls-1" d="M901.08,457.4h31.39l8,23.57c-7,12-21.91,14.2-21.91,14.2l-4.22-29H901.53a4.28,4.28,0,0,1-.45,0,4.42,4.42,0,1,1,0-8.85"/></clipPath><clipPath id="clip-path-281"><path class="cls-1" d="M867.9,121.16v.62c-1.4,2.6-14.07,25.63-31,38.24-6.34,4.73-13.27,8-20.43,8.16h42.87c5.43.12,8.57,2.09,10.88,4.57,4.21,4.52,5.58,10.76,12.62,10.76A14.54,14.54,0,0,1,893,187.07c4.7,4.24,5.18,10.75,5.18,10.75v31.62H910q0-1.94,0-3.85c0-3.17,0-6.36-.06-9.56a13.39,13.39,0,0,1,7.62,2.64l1.52,1.24s0,0,0,0l.19.23a271.3,271.3,0,0,0,1.88-29.31c0-34.81-22-59.84-53.23-69.62"/></clipPath><clipPath id="clip-path-283"><path class="cls-1" d="M848.51,115.39a138.06,138.06,0,0,0-14.41,0c-2.54.13-5.07.32-7.59.6a103.3,103.3,0,0,0-11,1.78c-.34.08-1.08.36-1.83.61l-1.93.36h0a94.08,94.08,0,0,0-16.21,4.65C767.42,134.32,748,158.37,748,191c0,6.91.65,19.07,1.66,27.51,0,.47,0,.91,0,1.39l.15-.12c0,.17,0,.36.06.53.12-.13.21-.28.34-.41a13.25,13.25,0,0,1,8.23-3.79c.41,0,.81-.09,1.21-.07-.06,3.19-.07,6.38-.06,9.54q0,1.91,0,3.85h11.76V197.81a19,19,0,0,1,2.07-6.71l2.45-3.36.06-.08c2.28-2.33,5.7-3.52,10.75-4.15s7-6.27,11.42-10.52a16.85,16.85,0,0,1,12.09-4.8s26.9.1,30.75,0c38.14-.86,52.93-26.84,58.65-41.11,1.27-3.17,2.1-5.77,2.64-7.38a30.64,30.64,0,0,0,1-4.3Z"/></clipPath><clipPath id="clip-path-285"><path class="cls-1" d="M898.14,229.43c0,22.25-40.62,22.85-58.33,22.06h-10c-17.7.79-58.33.18-58.33-22.06H759.67c.21,17.55,1.68,36.45,12.85,50.68,11.91,15.18,33.31,25.28,51.57,30.12a34.37,34.37,0,0,0,21.41,0c18.25-4.84,39.66-14.95,51.57-30.12,11.17-14.23,12.63-33.13,12.84-50.68H898.14Z"/></clipPath><clipPath id="clip-path-287"><path class="cls-1" d="M834.38,294.94a34.68,34.68,0,0,0,34.68-34.68H799.7a34.68,34.68,0,0,0,34.68,34.68"/></clipPath><clipPath id="clip-path-289"><path class="cls-1" d="M938.65,303.29l-9.58,22.44a74,74,0,0,0-29.33-7.51A74.44,74.44,0,0,1,932.47,457.4l8,23.57a99,99,0,0,0-1.78-177.68"/></clipPath><clipPath id="clip-path-291"><path class="cls-1" d="M811.77,228.11a1.7,1.7,0,1,0-1.7,1.7,1.7,1.7,0,0,0,1.7-1.7"/></clipPath><clipPath id="clip-path-293"><path class="cls-1" d="M798.15,222.66a1.7,1.7,0,1,0-1.7,1.7,1.7,1.7,0,0,0,1.7-1.7"/></clipPath><clipPath id="clip-path-295"><path class="cls-1" d="M822.67,222.66a1.7,1.7,0,1,0-1.7,1.7,1.7,1.7,0,0,0,1.7-1.7"/></clipPath><clipPath id="clip-path-297"><path class="cls-1" d="M800.88,230.84a1.7,1.7,0,1,0-1.7,1.7,1.7,1.7,0,0,0,1.7-1.7"/></clipPath><clipPath id="clip-path-299"><path class="cls-1" d="M792.7,236.29A1.7,1.7,0,1,0,791,238a1.7,1.7,0,0,0,1.7-1.7"/></clipPath><clipPath id="clip-path-301"><path class="cls-1" d="M817.22,236.29a1.7,1.7,0,1,0-1.7,1.7,1.7,1.7,0,0,0,1.7-1.7"/></clipPath><clipPath id="clip-path-303"><path class="cls-1" d="M863.51,228.11a1.7,1.7,0,1,1,1.7,1.7,1.7,1.7,0,0,1-1.7-1.7"/></clipPath><clipPath id="clip-path-305"><path class="cls-1" d="M877.13,222.66a1.7,1.7,0,1,1,1.7,1.7,1.7,1.7,0,0,1-1.7-1.7"/></clipPath><clipPath id="clip-path-307"><path class="cls-1" d="M852.61,222.66a1.7,1.7,0,1,1,1.7,1.7,1.7,1.7,0,0,1-1.7-1.7"/></clipPath><clipPath id="clip-path-309"><path class="cls-1" d="M874.4,230.84a1.7,1.7,0,1,1,1.7,1.7,1.7,1.7,0,0,1-1.7-1.7"/></clipPath><clipPath id="clip-path-311"><path class="cls-1" d="M882.58,236.29a1.7,1.7,0,1,1,1.7,1.7,1.7,1.7,0,0,1-1.7-1.7"/></clipPath><clipPath id="clip-path-313"><path class="cls-1" d="M858.06,236.29a1.7,1.7,0,1,1,1.7,1.7,1.7,1.7,0,0,1-1.7-1.7"/></clipPath><clipPath id="clip-path-315"><path class="cls-1" d="M749.57,495.18S724.44,608.46,782,708.39h21.5S704.9,533.2,833.89,533.2v-38Z"/></clipPath><clipPath id="clip-path-317"><path class="cls-1" d="M918.2,495.18s25.14,113.28-32.42,213.21h-21.5S962.87,533.2,833.89,533.2v-38Z"/></clipPath><clipPath id="clip-path-319"><path class="cls-1" d="M809.45,711.33a7.81,7.81,0,0,0-6.11-2.94H782s-13.72,6.18-21-1.81a10.75,10.75,0,1,0-8.4,17.46h50.76a7.83,7.83,0,0,0,6.11-12.71"/></clipPath><clipPath id="clip-path-321"><path class="cls-1" d="M858.33,711.33a7.81,7.81,0,0,1,6.11-2.94h21.35s13.72,6.18,21-1.81A10.75,10.75,0,1,1,915.2,724H864.45a7.83,7.83,0,0,1-6.11-12.71"/></clipPath><clipPath id="clip-path-323"><path class="cls-1" d="M767,457.4H735.61l-8,23.57c7,12,21.91,14.2,21.91,14.2l4.22-29h12.77a4.28,4.28,0,0,0,.45,0,4.42,4.42,0,1,0,0-8.85"/></clipPath><clipPath id="clip-path-325"><rect class="cls-2" x="982.68" y="119.27" width="95.11" height="186.11"/></clipPath><clipPath id="clip-path-327"><rect class="cls-2" x="977.56" y="119.12" width="104.93" height="186.55"/></clipPath><clipPath id="clip-path-328"><path class="cls-1" d="M982.68,212.35a93.06,93.06,0,0,0,91.06,93l4.05-167.44-2.59-18.67-1.46.06a93.06,93.06,0,0,0-91.06,93"/></clipPath><clipPath id="clip-path-330"><rect class="cls-2" x="1073.74" y="119.27" width="95.09" height="186.16"/></clipPath><clipPath id="clip-path-332"><rect class="cls-2" x="1070.84" y="119.12" width="99.1" height="186.55"/></clipPath><clipPath id="clip-path-333"><path class="cls-1" d="M1168.83,212.35a93.08,93.08,0,0,0-93.08-93.08c-.68,0-.34,0-1,0V138l-1,59.67V305.38c.67,0,1.34.05,2,.05a93.08,93.08,0,0,0,93.08-93.08"/></clipPath><clipPath id="clip-path-335"><path class="cls-1" d="M1156.11,491.63H995.2s-24,108.09,30.93,203.44h20.52s-94.08-167.16,29-167.16,29,167.16,29,167.16h20.52c54.92-95.35,30.93-203.44,30.93-203.44"/></clipPath><clipPath id="clip-path-337"><path class="cls-1" d="M995.2,491.63s-24,108.09,30.93,203.44h20.52s-94.08-167.16,29-167.16V491.63Z"/></clipPath><clipPath id="clip-path-339"><path class="cls-1" d="M1156.11,491.63s24,108.09-30.93,203.44h-20.52s94.08-167.16-29-167.16V491.63Z"/></clipPath><clipPath id="clip-path-341"><path class="cls-1" d="M1052.34,697.88a7.45,7.45,0,0,0-5.83-2.81h-20.37s-13.09,5.9-20-1.73a10.26,10.26,0,1,0-8,16.66h48.43a7.47,7.47,0,0,0,5.83-12.13"/></clipPath><clipPath id="clip-path-343"><path class="cls-1" d="M1099,697.88a7.46,7.46,0,0,1,5.83-2.81h20.37s13.09,5.9,20-1.73a10.26,10.26,0,1,1,8,16.66h-48.43a7.47,7.47,0,0,1-5.83-12.13"/></clipPath><clipPath id="clip-path-345"><path class="cls-1" d="M1168.83,212.35a93.08,93.08,0,0,0-93.08-93.08c-.68,0-1.34,0-2,.05L1050,197.67l23.77,107.71c.67,0,1.34.05,2,.05a93.08,93.08,0,0,0,93.08-93.08"/></clipPath><clipPath id="clip-path-347"><path class="cls-1" d="M983.66,226s4.61,55.57-28.41,63c0,0,30.69,44.28,100.11,20.08l-10-46.77Z"/></clipPath><clipPath id="clip-path-349"><path class="cls-1" d="M1167.71,226s-4.61,55.57,28.41,63c0,0-30.69,44.28-100.11,20.08l10-46.77Z"/></clipPath><clipPath id="clip-path-351"><path class="cls-1" d="M922.87,384.1a95.37,95.37,0,0,0-.52,9.88,94.19,94.19,0,0,0,51.82,84.13l7.57-22.44A70.69,70.69,0,0,1,946.4,384.1Z"/></clipPath><clipPath id="clip-path-353"><path class="cls-1" d="M975.32,450.73c.88-4.94-2.11-9.56-4.59-12.11-3.12-3.21-5.85-6.58-12.9-5.68-4.15,6.11-10.51,12.42-16.67,17.63-.26,4.31-2,12.4.76,15.17s16.44,2.47,16.44,2.47Z"/></clipPath><clipPath id="clip-path-355"><path class="cls-1" d="M1041.81,303.2l-4.79,23a71.19,71.19,0,0,1,40.38,31.5l28.27,5.69a94.42,94.42,0,0,0-63.85-60.15"/></clipPath><clipPath id="clip-path-357"><path class="cls-1" d="M1016.57,299.77a94.22,94.22,0,0,0-93.69,84.33H946.4A70.76,70.76,0,0,1,1037,326.16l4.79-23a94.23,94.23,0,0,0-25.25-3.44"/></clipPath><clipPath id="clip-path-359"><path class="cls-1" d="M1075.28,314.15l36.66-20.63S1148.25,423,1156,491.63h-80.72Z"/></clipPath><clipPath id="clip-path-361"><path class="cls-1" d="M1084.19,325.71a94.05,94.05,0,0,0-16,25.34l18.77,16.7a70.45,70.45,0,0,1,15-26.94l.48-.51-21.22-3.75Z"/></clipPath><clipPath id="clip-path-363"><path class="cls-1" d="M1200.2,302.78c-19.73-4.74-38.71-11.11-59.31-8a93.82,93.82,0,0,0-56.35,30.54l-.35.41-2.95,10.84,21.22,3.75a71.36,71.36,0,0,1,55.94-23.14c23.29,1.12,43.6,12.57,67.64,9a94.26,94.26,0,0,0,26.76-8.21l-10.86-20.76a71.38,71.38,0,0,1-41.73,5.63"/></clipPath><clipPath id="clip-path-365"><path class="cls-1" d="M1075.75,314.15l-36.66-20.63S1002.78,423,995,491.63h80.72Z"/></clipPath><clipPath id="clip-path-367"><path class="cls-1" d="M1047.13,309.08h6.5l-8.26-12-20.1,14.29,23.34,14.37-3.24,23.67,30.38,80v-88c-15.83-3.46-28.63-32.22-28.63-32.22"/></clipPath><clipPath id="clip-path-369"><path class="cls-1" d="M1104.38,309.08h-6.5l8.26-12,20.1,14.29-23.34,14.37,3.24,23.67-30.38,80v-88c15.83-3.46,28.63-32.22,28.63-32.22"/></clipPath><clipPath id="clip-path-371"><path class="cls-1" d="M1075.75,309.08h-28.63s12.79,28.76,28.63,32.22c15.83-3.46,28.63-32.22,28.63-32.22Z"/></clipPath><clipPath id="clip-path-373"><path class="cls-1" d="M1075.75,289l-28.63,20.08s15.07,19.58,28.63,19.58c4.16,0,18.69-6.29,28.63-19.58Z"/></clipPath><clipPath id="clip-path-375"><path class="cls-1" d="M1013.29,229.63a12.82,12.82,0,1,0,0,18.13,12.82,12.82,0,0,0,0-18.13"/></clipPath><clipPath id="clip-path-377"><path class="cls-1" d="M1156.35,229.63a12.82,12.82,0,1,0,0,18.13,12.82,12.82,0,0,0,0-18.13"/></clipPath><clipPath id="clip-path-379"><path class="cls-1" d="M1090.28,314.17c19.84-6.85,40.47-16.92,50-35.63,6.58-12.93,6.82-28,7-42.54.1-10.44.19-21.07-1.39-31.34A76.32,76.32,0,0,0,1142.2,190c-6.53-17.94-21.33-32.53-39.1-39.51a73.08,73.08,0,0,0-27.34-4.92l-12.7,110.59,12.7,61c.32,0,.64,0,1,0,4.65-.11,9.17-1.56,13.57-3.08"/></clipPath><clipPath id="clip-path-381"><path class="cls-1" d="M1047.57,151.35c-13.3,5.44-25.23,14.74-32.53,27.12-9.86,16.73-10.51,37.15-10.43,56.57.07,17.69.84,37.36,12.25,51.9S1048.58,311,1066,315.61a42.22,42.22,0,0,0,10.19,1.63L1071,254.81l15.18-5.19-10-104a77.62,77.62,0,0,0-28.56,5.72"/></clipPath><clipPath id="clip-path-383"><path class="cls-1" d="M1055.36,220.56A5.39,5.39,0,1,0,1050,226a5.39,5.39,0,0,0,5.39-5.39"/></clipPath><clipPath id="clip-path-385"><path class="cls-1" d="M1109.13,220.56a5.39,5.39,0,1,0-5.39,5.39,5.39,5.39,0,0,0,5.39-5.39"/></clipPath><clipPath id="clip-path-387"><path class="cls-1" d="M1127.24,244.7c0,3.31-5.31,6-11.85,6s-11.86-2.68-11.86-6,5.31-6,11.86-6,11.85,2.68,11.85,6"/></clipPath><clipPath id="clip-path-389"><path class="cls-1" d="M1026.85,244.7c0,3.31,5.31,6,11.85,6s11.85-2.68,11.85-6-5.31-6-11.85-6-11.85,2.68-11.85,6"/></clipPath><clipPath id="clip-path-391"><polygon class="cls-1" points="1070.57 254.76 1091.91 254.76 1085.75 249.62 1070.57 254.76"/></clipPath><clipPath id="clip-path-393"><path class="cls-1" d="M981.75,455.67h29.88v8.38H999l-4,27.58s-14.22-2.05-20.86-13.52Z"/></clipPath><clipPath id="clip-path-395"><path class="cls-1" d="M1011.63,455.67a4.21,4.21,0,1,1-4.21,4.21,4.21,4.21,0,0,1,4.21-4.21"/></clipPath><clipPath id="clip-path-397"><path class="cls-1" d="M1309.64,216a19,19,0,1,0-33.74,4.33h0l0,.07.1.14,6.73,10a70.55,70.55,0,0,1-40.84,66.63l10.86,20.76a93.87,93.87,0,0,0,29.6-22.33c16.89-19,23.68-41.53,22.72-65.06l4.54-14.5Z"/></clipPath><clipPath id="clip-path-399"><path class="cls-1" d="M1277.07,170.35a4.32,4.32,0,0,0-4.32,4.32v40.41h8.64V174.68a4.32,4.32,0,0,0-4.32-4.32"/></clipPath><clipPath id="clip-path-401"><path class="cls-1" d="M1298.06,205.64h-26.34a1.56,1.56,0,0,0-1.54,1.22,22.63,22.63,0,0,0-.47,4.53,26.41,26.41,0,0,0,1.17,7.79c1.64,5.23,9.45,2.9,9.55-2.59a1.56,1.56,0,0,1,1.56-1.53h16V215h0c2.88,0,5.21-1.77,5.21-4.65s-2.33-4.7-5.21-4.7"/></clipPath><clipPath id="clip-path-403"><path class="cls-1" d="M1075.75,301a33,33,0,0,0,33-33h-66a33,33,0,0,0,33,33"/></clipPath><clipPath id="clip-path-405"><path class="cls-1" d="M1076.76,181.88s-23.12,30.46-87.65,48.64c0,0-15.56-103.17,87.65-92.52Z"/></clipPath><clipPath id="clip-path-407"><path class="cls-1" d="M1074.74,181.88s23.12,30.46,87.65,48.64c0,0,15.56-104.45-87.65-93.8Z"/></clipPath><clipPath id="clip-path-409"><polygon class="cls-1" points="2745.71 632.1 2745.71 702.74 3235.08 985.28 3724.45 702.74 3724.45 632.1 3235.08 349.56 2745.71 632.1"/></clipPath><clipPath id="clip-path-410"><polygon class="cls-1" points="3235.08 985.28 2745.71 702.74 2745.71 632.1 3235.08 914.64 3235.08 985.28"/></clipPath><clipPath id="clip-path-411"><polygon class="cls-1" points="3479.77 985.28 3724.45 985.28 3724.45 632.1 3235.08 632.1 3235.08 985.28 3479.77 985.28"/></clipPath><clipPath id="clip-path-412"><path class="cls-1" d="M3195.82,701.84l-165,95.17,94.05,54.3,201.18-116a53.29,53.29,0,0,0-2.91-95.35L3219,579.84l-94.05,54.3,70.37,40.6a16.17,16.17,0,0,1,.51,27.1Z"/></clipPath><clipPath id="clip-path-413"><polygon class="cls-1" points="3080.85 827.09 3136.99 794.28 3127.49 789.32 3071.58 821.7 3080.85 827.09"/></clipPath><clipPath id="clip-path-414"><polygon class="cls-1" points="3185.59 763.08 3241.74 730.27 3232.23 725.31 3176.32 757.69 3185.59 763.08"/></clipPath><clipPath id="clip-path-415"><path class="cls-1" d="M3272.88,710.71s19.45-13.41,26-17.76,5.11-14.73-1.54-19.13-22.3-14.76-23.14-14.35-8.4,5.49-8.4,5.49,18.78,11.38,21.21,12.79,9.57,6,2.88,10.14-26.29,17.43-26.29,17.43Z"/></clipPath><clipPath id="clip-path-416"><polyline class="cls-1" points="3226.64 640.88 3170.5 608.07 3180.01 603.11 3235.92 635.49"/></clipPath><clipPath id="clip-path-417"><polygon class="cls-1" points="3216.89 525.64 3216.79 273.6 3137.86 228.03 3138 480.04 3216.89 525.64"/></clipPath><clipPath id="clip-path-418"><polygon class="cls-1" points="3295.73 228.03 3216.79 273.6 3216.89 525.64 3295.88 480.04 3295.73 228.03"/></clipPath><clipPath id="clip-path-419"><polygon class="cls-1" points="3137.86 228.03 3216.79 182.46 3295.73 228.03 3216.79 273.6 3137.86 228.03"/></clipPath><clipPath id="clip-path-420"><polygon class="cls-1" points="3177.24 227.99 3177.24 159.59 3216.78 182.42 3216.78 250.81 3177.24 227.99"/></clipPath><clipPath id="clip-path-421"><polygon class="cls-1" points="3256.24 159.59 3216.78 182.42 3216.78 250.81 3256.24 227.99 3256.24 159.59"/></clipPath><clipPath id="clip-path-422"><polygon class="cls-1" points="3216.78 182.42 3256.24 159.59 3216.78 136.76 3177.24 159.59 3216.78 182.42"/></clipPath><clipPath id="clip-path-423"><polygon class="cls-1" points="3206.33 160.24 3206.33 72.56 3216.75 78.58 3216.75 166.25 3206.33 160.24"/></clipPath><clipPath id="clip-path-424"><polygon class="cls-1" points="3227.15 72.56 3216.75 78.58 3216.75 166.25 3227.15 160.24 3227.15 72.56"/></clipPath><clipPath id="clip-path-425"><rect class="cls-2" x="3206.33" y="66.54" width="20.82" height="12.03"/></clipPath><clipPath id="clip-path-426"><polygon class="cls-1" points="3338 479.23 3337.93 308.77 3284.02 277.95 3284.12 448.39 3338 479.23"/></clipPath><clipPath id="clip-path-427"><polygon class="cls-1" points="3391.84 277.95 3337.93 308.77 3338 479.23 3391.94 448.39 3391.84 277.95"/></clipPath><clipPath id="clip-path-428"><polygon class="cls-1" points="3284.02 277.95 3337.93 247.13 3391.84 277.95 3337.93 308.77 3284.02 277.95"/></clipPath><clipPath id="clip-path-429"><polygon class="cls-1" points="3114.83 491.15 3114.76 326.38 3062.78 296.58 3062.88 461.34 3114.83 491.15"/></clipPath><clipPath id="clip-path-430"><polygon class="cls-1" points="3166.75 296.58 3114.76 326.38 3114.83 491.15 3166.84 461.34 3166.75 296.58"/></clipPath><clipPath id="clip-path-431"><polygon class="cls-1" points="3062.78 296.58 3114.76 266.79 3166.75 296.58 3114.76 326.38 3062.78 296.58"/></clipPath><clipPath id="clip-path-432"><path class="cls-1" d="M3623.45,549.57c-26.79-16.65-113.34-38.16-234.91-38.65l-63.92-75.18a71.3,71.3,0,0,0-54-25.12l-300.07-1.22a57,57,0,0,0-40.4,16.54l-72.23,71.65A57.06,57.06,0,0,0,2842.79,524l-10.6,41.67,213.49,100.69,598.9,2.44.33-80.61a45.23,45.23,0,0,0-21.45-38.64"/></clipPath><clipPath id="clip-path-433"><path class="cls-1" d="M3324.62,435.73a71.29,71.29,0,0,0-54-25.12l-300.07-1.22a57,57,0,0,0-40.4,16.54L2861,494.51l37.29.15a356.67,356.67,0,0,1,39.36,2.34l108.66,12.52,342.23,1.39Z"/></clipPath><clipPath id="clip-path-434"><path class="cls-1" d="M3302,510.56l-236.76-1a341.94,341.94,0,0,1-37.78-2.25l-74.18-8.55a19.55,19.55,0,0,1-13-31.69l26.43-32.77a28.55,28.55,0,0,1,22.31-10.61l243.87,1a28.51,28.51,0,0,1,21.87,10.35l52.75,63.82a7.13,7.13,0,0,1-5.52,11.67"/></clipPath><clipPath id="clip-path-435"><path class="cls-1" d="M3644.86,597.51c.12-28.52-42.55-57.21-242.18-58l-556.12-2.27a14.26,14.26,0,0,0-14.32,14.2l-.3,71.3,270.82,29.62,541.86,2.2Z"/></clipPath><clipPath id="clip-path-436"><path class="cls-1" d="M3644.69,640.29,2976,637.57l-126.69-28.69a14.26,14.26,0,1,0-6.29,27.81l128.22,29a14,14,0,0,0,3.09.36l670.2,2.73a14.26,14.26,0,0,0,.12-28.52"/></clipPath><clipPath id="clip-path-437"><path class="cls-1" d="M2953.33,579.25a65.36,65.36,0,1,1-65.62,65.09,65.36,65.36,0,0,1,65.62-65.09"/></clipPath><clipPath id="clip-path-438"><path class="cls-1" d="M2953.27,594.7a49.91,49.91,0,1,0,49.7,50.11,50,50,0,0,0-49.7-50.11M2952.75,723a78.43,78.43,0,1,1,78.74-78.11A78.51,78.51,0,0,1,2952.75,723"/></clipPath><clipPath id="clip-path-439"><path class="cls-1" d="M2953.18,616.09a28.52,28.52,0,1,1-28.63,28.4,28.52,28.52,0,0,1,28.63-28.4"/></clipPath><clipPath id="clip-path-440"><path class="cls-1" d="M3402.38,610.79l-342.23-1.39a14.26,14.26,0,0,1,.12-28.52l342.23,1.39a14.26,14.26,0,0,1-.12,28.52"/></clipPath><clipPath id="clip-path-441"><path class="cls-1" d="M3644.8,611.78l-14.26-.06a14.26,14.26,0,0,1,.12-28.52l14.26.06a14.26,14.26,0,0,1-.12,28.52"/></clipPath><clipPath id="clip-path-442"><rect class="cls-2" x="3117.77" y="452.94" width="85.56" height="28.52" transform="translate(2680.58 3625.84) rotate(-89.77)"/></clipPath><clipPath id="clip-path-443"><path class="cls-1" d="M3629.73,554.67l-13.21-.05a14.26,14.26,0,0,0-.12,28.52l27.88.11a44.67,44.67,0,0,0-14.55-28.58"/></clipPath><clipPath id="clip-path-444"><path class="cls-1" d="M3324.62,435.73a71.26,71.26,0,0,0-11.32-10.68L3290,425a7.13,7.13,0,0,0-5.52,11.67l52.75,63.82a28.52,28.52,0,0,0,21.87,10.35l29.42.12Z"/></clipPath><clipPath id="clip-path-445"><polygon class="cls-1" points="3018.82 506.35 3046.65 423.97 3018.13 423.85 2978.79 501.74 3018.82 506.35"/></clipPath><clipPath id="clip-path-446"><path class="cls-1" d="M2842.79,524l-3.36,13.18,35.64.15a14.26,14.26,0,1,0,.12-28.52l-25.94-.11a56.9,56.9,0,0,0-6.46,15.3"/></clipPath><clipPath id="clip-path-447"><path class="cls-1" d="M3509.45,581.51a65.36,65.36,0,1,1-65.62,65.09,65.36,65.36,0,0,1,65.62-65.09"/></clipPath><clipPath id="clip-path-448"><path class="cls-1" d="M3509.39,597a49.91,49.91,0,1,0,49.7,50.11,50,50,0,0,0-49.7-50.11m-.52,128.34a78.43,78.43,0,1,1,78.74-78.11,78.51,78.51,0,0,1-78.74,78.11"/></clipPath><clipPath id="clip-path-449"><path class="cls-1" d="M3509.3,618.35a28.52,28.52,0,1,1-28.63,28.4,28.52,28.52,0,0,1,28.63-28.4"/></clipPath></defs><title>ilustracoes_caixa_am5SVG</title><g class="cls-212"><g class="cls-213"><rect class="cls-214" x="441.24" y="319.86" width="1038.82" height="695.16"/></g></g><g class="cls-215"><g class="cls-213"><rect class="cls-216" x="441.24" y="602.91" width="548.56" height="412.11"/></g></g><g class="cls-217"><g class="cls-213"><g class="cls-218"><g class="cls-219"><g class="cls-220"><g class="cls-219"><rect class="cls-221" x="931.5" y="602.91" width="548.56" height="412.11"/></g></g></g></g></g></g><g class="cls-222"><g class="cls-213"><rect class="cls-221" x="1217.35" y="496.76" width="201.43" height="129.86"/></g></g><g class="cls-223"><g class="cls-213"><rect class="cls-224" x="1202.41" y="538.8" width="137.06" height="97.68"/></g></g><g class="cls-225"><g class="cls-213"><rect class="cls-221" x="798.88" y="720.3" width="286.26" height="121.98"/></g></g><g class="cls-226"><g class="cls-213"><rect class="cls-227" x="552" y="538.89" width="181.2" height="119.75"/></g></g><g class="cls-228"><g class="cls-213"><rect class="cls-229" x="714.96" y="466.03" width="237.85" height="271.51"/></g></g><g class="cls-230"><g class="cls-213"><rect class="cls-231" x="773.13" y="264.45" width="152.1" height="125.1"/></g></g><g class="cls-232"><g class="cls-213"><rect class="cls-231" x="871" y="264.56" width="61.01" height="58.37"/></g></g><g class="cls-233"><g class="cls-213"><rect class="cls-231" x="866.99" y="288.97" width="61.69" height="58.56"/></g></g><g class="cls-234"><g class="cls-213"><rect class="cls-231" x="866.93" y="264.45" width="62.36" height="58.63"/></g></g><g class="cls-235"><g class="cls-213"><rect class="cls-231" x="870.14" y="289.06" width="59.69" height="58.34"/></g></g><g class="cls-236"><g class="cls-213"><rect class="cls-231" x="773.57" y="288.97" width="151.71" height="100.58"/></g></g><g class="cls-237"><g class="cls-213"><rect class="cls-231" x="871.88" y="264.58" width="95.99" height="67.86"/></g></g><g class="cls-238"><g class="cls-213"><rect class="cls-239" x="773.6" y="264.45" width="194.19" height="125"/></g></g><g class="cls-240"><g class="cls-213"><rect class="cls-241" x="700.66" y="264.45" width="194.3" height="125.1"/></g></g><g class="cls-242"><g class="cls-213"><rect class="cls-243" x="644.07" y="273.97" width="124.53" height="236.15"/></g></g><g class="cls-244"><g class="cls-213"><rect class="cls-245" x="720.56" y="190.76" width="78.1" height="109.09"/></g></g><g class="cls-246"><g class="cls-213"><rect class="cls-247" x="870.11" y="190.76" width="78.1" height="109.09"/></g></g><g class="cls-248"><g class="cls-213"><rect class="cls-241" x="720.42" y="257.89" width="143.11" height="266.44"/></g></g><g class="cls-249"><g class="cls-213"><rect class="cls-239" x="804.74" y="257.89" width="143.11" height="266.44"/></g></g><g class="cls-250"><g class="cls-213"><rect class="cls-251" x="775.16" y="274.23" width="118.45" height="92.14"/></g></g><g class="cls-252"><g class="cls-213"><rect class="cls-253" x="775.16" y="253.13" width="118.45" height="99.97"/></g></g><g class="cls-254"><g class="cls-213"><rect class="cls-243" x="716.61" y="186.81" width="85.24" height="85.24"/></g></g><g class="cls-255"><g class="cls-213"><rect class="cls-251" x="866.92" y="186.81" width="85.24" height="85.24"/></g></g><g class="cls-256"><g class="cls-213"><rect class="cls-251" x="791.9" y="102.48" width="146.79" height="238.63"/></g></g><g class="cls-257"><g class="cls-213"><rect class="cls-243" x="730.49" y="102.5" width="143.95" height="238.6"/></g></g><g class="cls-258"><g class="cls-213"><rect class="cls-259" x="772.48" y="175.56" width="69.63" height="69.63"/></g></g><g class="cls-260"><g class="cls-213"><rect class="cls-259" x="828.97" y="175.56" width="69.62" height="69.63"/></g></g><g class="cls-261"><g class="cls-213"><rect class="cls-253" x="834.42" y="200.29" width="83.21" height="70.9"/></g></g><g class="cls-262"><g class="cls-213"><rect class="cls-251" x="753.85" y="200.29" width="83.21" height="70.9"/></g></g><g class="cls-263"><g class="cls-213"><rect class="cls-253" x="799.79" y="211.75" width="80.72" height="63.71"/></g></g><g class="cls-264"><g class="cls-213"><rect class="cls-243" x="867.51" y="428.25" width="102.07" height="96.07"/></g></g><g class="cls-265"><g class="cls-213"><rect class="cls-247" x="787.34" y="92.01" width="162.94" height="166.57"/></g></g><g class="cls-266"><g class="cls-213"><rect class="cls-245" x="718.89" y="86.05" width="213.53" height="172.53"/></g></g><g class="cls-267"><g class="cls-213"><rect class="cls-245" x="730.52" y="200.29" width="208.53" height="140.81"/></g></g><g class="cls-268"><g class="cls-213"><rect class="cls-269" x="770.55" y="231.11" width="127.66" height="92.98"/></g></g><g class="cls-270"><g class="cls-213"><rect class="cls-243" x="870.6" y="274.14" width="153.42" height="235.98"/></g></g><g class="cls-271"><g class="cls-213"><rect class="cls-253" x="779.23" y="197.27" width="61.69" height="61.69"/></g></g><g class="cls-272"><g class="cls-213"><rect class="cls-253" x="765.6" y="191.82" width="61.69" height="61.69"/></g></g><g class="cls-273"><g class="cls-213"><rect class="cls-253" x="790.13" y="191.82" width="61.69" height="61.69"/></g></g><g class="cls-274"><g class="cls-213"><rect class="cls-253" x="768.33" y="199.99" width="61.69" height="61.69"/></g></g><g class="cls-275"><g class="cls-213"><rect class="cls-253" x="760.16" y="205.44" width="61.69" height="61.69"/></g></g><g class="cls-276"><g class="cls-213"><rect class="cls-253" x="784.68" y="205.44" width="61.69" height="61.69"/></g></g><g class="cls-277"><g class="cls-213"><rect class="cls-278" x="834.36" y="197.27" width="61.69" height="61.69"/></g></g><g class="cls-279"><g class="cls-213"><rect class="cls-278" x="847.98" y="191.82" width="61.69" height="61.69"/></g></g><g class="cls-280"><g class="cls-213"><rect class="cls-278" x="823.46" y="191.82" width="61.69" height="61.69"/></g></g><g class="cls-281"><g class="cls-213"><rect class="cls-278" x="845.26" y="199.99" width="61.69" height="61.69"/></g></g><g class="cls-282"><g class="cls-213"><rect class="cls-278" x="853.43" y="205.44" width="61.69" height="61.69"/></g></g><g class="cls-283"><g class="cls-213"><rect class="cls-278" x="828.91" y="205.44" width="61.69" height="61.69"/></g></g><g class="cls-284"><g class="cls-213"><rect class="cls-285" x="714.96" y="466.03" width="148.08" height="271.51"/></g></g><g class="cls-286"><g class="cls-213"><rect class="cls-229" x="804.74" y="466.03" width="148.08" height="271.51"/></g></g><g class="cls-287"><g class="cls-213"><rect class="cls-288" x="712.68" y="673.39" width="127.63" height="79.8"/></g></g><g class="cls-289"><g class="cls-213"><rect class="cls-290" x="827.47" y="673.39" width="127.63" height="79.8"/></g></g><g class="cls-291"><g class="cls-213"><rect class="cls-243" x="698.51" y="428.25" width="102.07" height="96.07"/></g></g><g class="cls-292"><g class="cls-213"><g class="cls-218"><g class="cls-293"><g class="cls-294"><g class="cls-293"><rect class="cls-295" x="953.53" y="90.12" width="153.41" height="244.41"/></g></g></g></g></g></g><g class="cls-296"><g class="cls-213"><g class="cls-218"><g class="cls-297"><g class="cls-298"><g class="cls-297"><rect class="cls-299" x="1044.59" y="90.12" width="153.39" height="244.46"/></g></g></g></g></g></g><g class="cls-300"><g class="cls-213"><rect class="cls-229" x="960.84" y="462.48" width="229.63" height="261.74"/></g></g><g class="cls-301"><g class="cls-213"><rect class="cls-302" x="960.84" y="462.48" width="143.96" height="261.74"/></g></g><g class="cls-303"><g class="cls-213"><rect class="cls-304" x="1046.51" y="462.48" width="143.96" height="261.74"/></g></g><g class="cls-305"><g class="cls-213"><rect class="cls-288" x="958.67" y="660.34" width="124.45" height="78.81"/></g></g><g class="cls-306"><g class="cls-213"><rect class="cls-290" x="1068.2" y="660.34" width="124.45" height="78.81"/></g></g><g class="cls-307"><g class="cls-213"><rect class="cls-299" x="1020.82" y="90.13" width="177.16" height="244.45"/></g></g><g class="cls-308"><g class="cls-213"><rect class="cls-295" x="926.1" y="196.8" width="158.4" height="148.66"/></g></g><g class="cls-309"><g class="cls-213"><rect class="cls-299" x="1066.87" y="196.8" width="158.4" height="148.66"/></g></g><g class="cls-310"><g class="cls-213"><rect class="cls-311" x="893.21" y="354.95" width="117.69" height="152.31"/></g></g><g class="cls-312"><g class="cls-213"><rect class="cls-243" x="911.25" y="403.64" width="93.38" height="93.73"/></g></g><g class="cls-313"><g class="cls-213"><rect class="cls-243" x="1007.87" y="274.06" width="126.94" height="118.44"/></g></g><g class="cls-314"><g class="cls-213"><rect class="cls-315" x="893.73" y="270.62" width="177.24" height="142.62"/></g></g><g class="cls-316"><g class="cls-213"><rect class="cls-317" x="1046.13" y="264.38" width="139.02" height="256.4"/></g></g><g class="cls-318"><g class="cls-213"><rect class="cls-243" x="1039.08" y="296.57" width="92.52" height="100.33"/></g></g><g class="cls-319"><g class="cls-213"><rect class="cls-317" x="1052.09" y="264.8" width="229.85" height="104.65"/></g></g><g class="cls-320"><g class="cls-213"><rect class="cls-315" x="965.88" y="264.38" width="139.02" height="256.4"/></g></g><g class="cls-321"><g class="cls-213"><rect class="cls-317" x="996.12" y="267.91" width="108.78" height="190.58"/></g></g><g class="cls-322"><g class="cls-213"><rect class="cls-323" x="1046.61" y="267.91" width="108.78" height="190.58"/></g></g><g class="cls-324"><g class="cls-213"><rect class="cls-325" x="1017.98" y="279.94" width="115.55" height="90.51"/></g></g><g class="cls-326"><g class="cls-213"><rect class="cls-327" x="1017.98" y="259.85" width="115.55" height="97.96"/></g></g><g class="cls-328"><g class="cls-213"><rect class="cls-311" x="962.25" y="196.73" width="83.94" height="83.94"/></g></g><g class="cls-329"><g class="cls-213"><rect class="cls-325" x="1105.31" y="196.73" width="83.94" height="83.94"/></g></g><g class="cls-330"><g class="cls-213"><rect class="cls-325" x="1033.91" y="116.46" width="142.52" height="229.93"/></g></g><g class="cls-331"><g class="cls-213"><rect class="cls-311" x="975.46" y="116.48" width="139.82" height="229.9"/></g></g><g class="cls-332"><g class="cls-213"><rect class="cls-299" x="1015.43" y="186.02" width="69.08" height="69.08"/></g></g><g class="cls-333"><g class="cls-213"><rect class="cls-299" x="1069.2" y="186.02" width="69.08" height="69.08"/></g></g><g class="cls-334"><g class="cls-213"><rect class="cls-327" x="1074.38" y="209.55" width="82.01" height="70.29"/></g></g><g class="cls-335"><g class="cls-213"><rect class="cls-325" x="997.7" y="209.55" width="82.01" height="70.29"/></g></g><g class="cls-336"><g class="cls-213"><rect class="cls-327" x="1041.42" y="220.47" width="79.64" height="63.45"/></g></g><g class="cls-337"><g class="cls-213"><rect class="cls-311" x="945.02" y="426.52" width="95.75" height="94.25"/></g></g><g class="cls-338"><g class="cls-213"><rect class="cls-311" x="978.27" y="426.52" width="66.72" height="66.72"/></g></g><g class="cls-339"><g class="cls-213"><rect class="cls-311" x="1212.78" y="161.79" width="127.04" height="185.26"/></g></g><g class="cls-340"><g class="cls-213"><rect class="cls-311" x="1243.6" y="141.21" width="66.94" height="103.03"/></g></g><g class="cls-341"><g class="cls-213"><rect class="cls-325" x="1240.56" y="176.49" width="91.85" height="74.77"/></g></g><g class="cls-342"><g class="cls-213"><rect class="cls-269" x="1013.59" y="238.89" width="124.32" height="91.31"/></g></g><g class="cls-343"><g class="cls-213"><rect class="cls-295" x="959.13" y="108.09" width="146.78" height="151.59"/></g></g><g class="cls-344"><g class="cls-213"><rect class="cls-299" x="1045.6" y="106.82" width="146.78" height="152.86"/></g></g></svg>