<svg id="Layer_1" data-name="Layer 1" xmlns="http://www.w3.org/2000/svg" xmlns:xlink="http://www.w3.org/1999/xlink" viewBox="0 0 1920 1080"><defs><style>.cls-1,.cls-2{fill:none;}.cls-1{clip-rule:evenodd;}.cls-3{fill:#733791;}.cls-4{fill:#500778;}.cls-5{fill:#400666;}.cls-6{fill:#41b9b4;}.cls-7{fill:#ffce00;}.cls-8{fill:#414042;}.cls-9{fill:#00a499;}.cls-10{fill:#64c8c3;}.cls-11{fill:#fa0;}.cls-12{fill:#ffbc00;}.cls-13{fill:#ff6d00;}.cls-14{clip-path:url(#clip-path);}.cls-15{clip-path:url(#clip-path-2);}.cls-16{clip-path:url(#clip-path-3);}.cls-17{clip-path:url(#clip-path-4);}.cls-18{clip-path:url(#clip-path-5);}.cls-19{clip-path:url(#clip-path-6);}.cls-20{clip-path:url(#clip-path-7);}.cls-21{clip-path:url(#clip-path-8);}.cls-22{clip-path:url(#clip-path-9);}.cls-23{clip-path:url(#clip-path-10);}.cls-24{clip-path:url(#clip-path-11);}.cls-25{clip-path:url(#clip-path-12);}.cls-26{clip-path:url(#clip-path-13);}.cls-27{clip-path:url(#clip-path-14);}.cls-28{clip-path:url(#clip-path-15);}.cls-29{clip-path:url(#clip-path-16);}.cls-30{clip-path:url(#clip-path-17);}.cls-31{clip-path:url(#clip-path-18);}.cls-32{clip-path:url(#clip-path-19);}.cls-33{clip-path:url(#clip-path-20);}.cls-34{clip-path:url(#clip-path-21);}.cls-35{clip-path:url(#clip-path-22);}.cls-36{clip-path:url(#clip-path-23);}.cls-37{clip-path:url(#clip-path-24);}.cls-38{clip-path:url(#clip-path-25);}.cls-39{clip-path:url(#clip-path-26);}.cls-40{clip-path:url(#clip-path-27);}.cls-41{clip-path:url(#clip-path-28);}.cls-42{clip-path:url(#clip-path-29);}.cls-43{clip-path:url(#clip-path-30);}.cls-44{clip-path:url(#clip-path-31);}.cls-45{clip-path:url(#clip-path-32);}.cls-46{clip-path:url(#clip-path-33);}.cls-47{clip-path:url(#clip-path-34);}.cls-48{clip-path:url(#clip-path-35);}.cls-49{clip-path:url(#clip-path-36);}.cls-50{clip-path:url(#clip-path-37);}.cls-51{clip-path:url(#clip-path-38);}.cls-52{clip-path:url(#clip-path-39);}.cls-53{clip-path:url(#clip-path-40);}.cls-54{clip-path:url(#clip-path-41);}.cls-55{clip-path:url(#clip-path-42);}.cls-56{clip-path:url(#clip-path-43);}.cls-57{clip-path:url(#clip-path-44);}.cls-58{clip-path:url(#clip-path-45);}.cls-59{clip-path:url(#clip-path-46);}.cls-60{clip-path:url(#clip-path-47);}.cls-61{clip-path:url(#clip-path-48);}.cls-62{clip-path:url(#clip-path-49);}.cls-63{clip-path:url(#clip-path-50);}.cls-64{clip-path:url(#clip-path-51);}.cls-65{clip-path:url(#clip-path-52);}.cls-66{clip-path:url(#clip-path-53);}.cls-67{clip-path:url(#clip-path-54);}.cls-68{clip-path:url(#clip-path-55);}.cls-69{clip-path:url(#clip-path-56);}.cls-70{clip-path:url(#clip-path-57);}.cls-71{clip-path:url(#clip-path-58);}.cls-72{clip-path:url(#clip-path-59);}.cls-73{clip-path:url(#clip-path-60);}.cls-74{clip-path:url(#clip-path-61);}.cls-75{clip-path:url(#clip-path-62);}.cls-76{clip-path:url(#clip-path-63);}.cls-77{clip-path:url(#clip-path-64);}.cls-78{clip-path:url(#clip-path-65);}.cls-79{clip-path:url(#clip-path-66);}.cls-80{clip-path:url(#clip-path-67);}.cls-81{clip-path:url(#clip-path-68);}.cls-82{clip-path:url(#clip-path-69);}.cls-83{clip-path:url(#clip-path-70);}.cls-84{clip-path:url(#clip-path-71);}.cls-85{clip-path:url(#clip-path-72);}.cls-86{clip-path:url(#clip-path-73);}.cls-87{clip-path:url(#clip-path-74);}.cls-88{clip-path:url(#clip-path-75);}.cls-89{clip-path:url(#clip-path-76);}.cls-90{clip-path:url(#clip-path-77);}.cls-91{clip-path:url(#clip-path-78);}.cls-92{clip-path:url(#clip-path-79);}.cls-93{clip-path:url(#clip-path-80);}.cls-94{clip-path:url(#clip-path-81);}.cls-95{clip-path:url(#clip-path-82);}.cls-96{clip-path:url(#clip-path-83);}.cls-97{clip-path:url(#clip-path-84);}.cls-98{clip-path:url(#clip-path-85);}.cls-99{clip-path:url(#clip-path-86);}.cls-100{clip-path:url(#clip-path-87);}.cls-101{clip-path:url(#clip-path-88);}.cls-102{clip-path:url(#clip-path-89);}.cls-103{clip-path:url(#clip-path-90);}.cls-104{clip-path:url(#clip-path-91);}.cls-105{clip-path:url(#clip-path-92);}.cls-106{clip-path:url(#clip-path-93);}.cls-107{clip-path:url(#clip-path-94);}.cls-108{clip-path:url(#clip-path-95);}.cls-109{clip-path:url(#clip-path-96);}.cls-110{clip-path:url(#clip-path-97);}.cls-111{clip-path:url(#clip-path-98);}.cls-112{clip-path:url(#clip-path-99);}.cls-113{clip-path:url(#clip-path-100);}.cls-114{clip-path:url(#clip-path-101);}.cls-115{clip-path:url(#clip-path-102);}.cls-116{clip-path:url(#clip-path-103);}.cls-117{clip-path:url(#clip-path-104);}.cls-118{clip-path:url(#clip-path-105);}.cls-119{clip-path:url(#clip-path-106);}.cls-120{clip-path:url(#clip-path-107);}.cls-121{clip-path:url(#clip-path-108);}.cls-122{clip-path:url(#clip-path-109);}.cls-123{clip-path:url(#clip-path-110);}.cls-124{clip-path:url(#clip-path-111);}.cls-125{clip-path:url(#clip-path-112);}.cls-126{clip-path:url(#clip-path-113);}.cls-127{clip-path:url(#clip-path-114);}.cls-128{clip-path:url(#clip-path-115);}.cls-129{clip-path:url(#clip-path-116);}.cls-130{clip-path:url(#clip-path-117);}.cls-131{clip-path:url(#clip-path-118);}.cls-132{clip-path:url(#clip-path-119);}.cls-133{clip-path:url(#clip-path-120);}.cls-134{clip-path:url(#clip-path-121);}.cls-135{clip-path:url(#clip-path-122);}.cls-136{clip-path:url(#clip-path-123);}.cls-137{clip-path:url(#clip-path-124);}.cls-138{clip-path:url(#clip-path-125);}.cls-139{clip-path:url(#clip-path-126);}.cls-140{clip-path:url(#clip-path-127);}.cls-141{clip-path:url(#clip-path-128);}.cls-142{clip-path:url(#clip-path-129);}.cls-143{clip-path:url(#clip-path-130);}.cls-144{clip-path:url(#clip-path-131);}.cls-145{clip-path:url(#clip-path-132);}.cls-146{clip-path:url(#clip-path-133);}.cls-147{clip-path:url(#clip-path-134);}.cls-148{clip-path:url(#clip-path-135);}.cls-149{clip-path:url(#clip-path-136);}</style><clipPath id="clip-path"><polygon class="cls-1" points="2770.39 4771.4 2770.39 4842.16 3260.65 5125.21 3750.91 4842.16 3750.91 4771.4 3260.65 4488.35 2770.39 4771.4"/></clipPath><clipPath id="clip-path-2"><polygon class="cls-1" points="3260.65 5125.21 2770.39 4842.16 2770.39 4771.4 3260.65 5054.45 3260.65 5125.21"/></clipPath><clipPath id="clip-path-3"><polygon class="cls-1" points="3505.78 5125.21 3750.91 5125.21 3750.91 4771.4 3260.65 4771.4 3260.65 5125.21 3505.78 5125.21"/></clipPath><clipPath id="clip-path-4"><path class="cls-1" d="M3618.06,4665.25a71.57,71.57,0,0,0-71.57,71.57h143.13a71.57,71.57,0,0,0-71.57-71.57"/></clipPath><clipPath id="clip-path-5"><path class="cls-1" d="M3570.94,4707.29a39.38,39.38,0,0,0-39.38,39.38h78.76a39.38,39.38,0,0,0-39.38-39.38"/></clipPath><clipPath id="clip-path-6"><path class="cls-1" d="M3313.09,4909.57a42.86,42.86,0,0,0-38.47,24,34.47,34.47,0,0,0-40.93-1.2,53.28,53.28,0,1,0-104.63,20.12H3356a42.9,42.9,0,0,0-42.9-42.9"/></clipPath><clipPath id="clip-path-7"><path class="cls-1" d="M2881.15,4768.83h122.91a61.45,61.45,0,0,0-122.91,0Z"/></clipPath><clipPath id="clip-path-8"><path class="cls-1" d="M3218.2,4634.52H3049.57s-25.14,113.28,32.42,213.21h21.5s-98.59-175.19,30.39-175.19,30.39,175.19,30.39,175.19h21.5c57.55-99.93,32.42-213.21,32.42-213.21"/></clipPath><clipPath id="clip-path-9"><path class="cls-1" d="M3196.08,4432.94h-.19a99,99,0,0,0-93.61,66.8l.47-.1a99,99,0,0,1,93.33-66.7"/></clipPath><clipPath id="clip-path-10"><path class="cls-1" d="M3200.15,4433c.9,0,1.82,0,2.72.07-.9,0-1.81,0-2.72-.07"/></clipPath><clipPath id="clip-path-11"><path class="cls-1" d="M3196.14,4457.48a27.72,27.72,0,0,1,3.4.25,27.92,27.92,0,0,0-3.19-.27l-.2,0"/></clipPath><clipPath id="clip-path-12"><path class="cls-1" d="M3196.32,4432.94h-.24a33.17,33.17,0,0,1,4.07.32,32.68,32.68,0,0,0-3.82-.33"/></clipPath><clipPath id="clip-path-13"><path class="cls-1" d="M3200.69,4457.59c-.46,0-.93,0-1.39,0l1.39,0"/></clipPath><clipPath id="clip-path-14"><path class="cls-1" d="M3132,4493.76l-29.23,5.89,0,.09,29.7-6a74.49,74.49,0,0,1,63.72-36.29h-.25a74.49,74.49,0,0,0-63.91,36.3"/></clipPath><clipPath id="clip-path-15"><path class="cls-1" d="M3238.72,4442.47a98.49,98.49,0,0,0-37.69-9.39,98.44,98.44,0,0,1,37.62,9.56Z"/></clipPath><clipPath id="clip-path-16"><path class="cls-1" d="M3238.65,4442.63a98.43,98.43,0,0,0-37.62-9.56l-.88,0c-1.35-.06-2.7-.1-4.07-.1a99,99,0,0,0-93.33,66.7l29.23-5.89a74.49,74.49,0,0,1,63.91-36.3h.44c1,0,2,0,3,.09h.45a74,74,0,0,1,29.33,7.51Z"/></clipPath><clipPath id="clip-path-17"><path class="cls-1" d="M3072.2,4432.94a98.59,98.59,0,0,0-42.4,9.53l9.65,22.6a74.37,74.37,0,0,1,96.66,28.69l29.7,6a99,99,0,0,0-93.61-66.8"/></clipPath><clipPath id="clip-path-18"><path class="cls-1" d="M2973.21,4531.93a99,99,0,0,0,54.44,88.39l8-23.57a74.42,74.42,0,0,1,3.84-131.67l-9.65-22.6a99,99,0,0,0-56.59,89.46"/></clipPath><clipPath id="clip-path-19"><path class="cls-1" d="M3049.71,4359.25s2.21,38.19,19.81,50.79l-2.84-24.39Z"/></clipPath><clipPath id="clip-path-20"><path class="cls-1" d="M3219.06,4359.25s-2.21,38.19-19.81,50.79l2.84-24.39Z"/></clipPath><clipPath id="clip-path-21"><path class="cls-1" d="M3134.38,4448.05l-38.52-21.67s-38.15,136.05-46.29,208.14h84.81Z"/></clipPath><clipPath id="clip-path-22"><path class="cls-1" d="M3133.89,4448.05l38.52-21.67s38.15,136.05,46.29,208.14h-84.81Z"/></clipPath><clipPath id="clip-path-23"><path class="cls-1" d="M3134.38,4442.73h-30.08s13.44,30.21,30.08,33.85c16.64-3.63,30.08-33.85,30.08-33.85Z"/></clipPath><clipPath id="clip-path-24"><path class="cls-1" d="M3134.38,4421.62l-30.08,21.1s15.84,20.57,30.08,20.57c4.38,0,19.63-6.61,30.08-20.57Z"/></clipPath><clipPath id="clip-path-25"><path class="cls-1" d="M3068.76,4359.25a13.47,13.47,0,1,0,0,19.05,13.47,13.47,0,0,0,0-19.05"/></clipPath><clipPath id="clip-path-26"><path class="cls-1" d="M3219.06,4359.25a13.47,13.47,0,1,0,0,19.05,13.47,13.47,0,0,0,0-19.05"/></clipPath><clipPath id="clip-path-27"><path class="cls-1" d="M3149.65,4448.07c20.85-7.2,42.52-17.78,52.53-37.43,6.92-13.58,7.17-29.46,7.31-44.7.1-11,.19-22.13-1.46-32.93a80.29,80.29,0,0,0-3.83-15.36c-6.87-18.85-22.41-34.18-41.09-41.51a76.75,76.75,0,0,0-28.73-5.17L3121,4387.17l13.34,64.1c.34,0,.67,0,1,0,4.89-.12,9.63-1.63,14.25-3.23"/></clipPath><clipPath id="clip-path-28"><path class="cls-1" d="M3104.78,4277c-14,5.71-26.51,15.48-34.17,28.49-10.36,17.58-11,39-11,59.44.08,18.59.89,39.25,12.88,54.53s33.31,25.28,51.57,30.12a44.34,44.34,0,0,0,10.7,1.71l-5.45-65.58,16-5.45L3134.79,4271a81.54,81.54,0,0,0-30,6"/></clipPath><clipPath id="clip-path-29"><path class="cls-1" d="M3113,4349.72a5.66,5.66,0,1,0-5.66,5.66,5.67,5.67,0,0,0,5.66-5.66"/></clipPath><clipPath id="clip-path-30"><path class="cls-1" d="M3169.45,4349.72a5.66,5.66,0,1,0-5.66,5.66,5.66,5.66,0,0,0,5.66-5.66"/></clipPath><clipPath id="clip-path-31"><path class="cls-1" d="M3188.48,4375.08c0,3.48-5.58,6.3-12.45,6.3s-12.46-2.82-12.46-6.3,5.58-6.3,12.46-6.3,12.45,2.82,12.45,6.3"/></clipPath><clipPath id="clip-path-32"><path class="cls-1" d="M3083,4375.08c0,3.48,5.58,6.3,12.45,6.3s12.46-2.82,12.46-6.3-5.58-6.3-12.46-6.3-12.45,2.82-12.45,6.3"/></clipPath><clipPath id="clip-path-33"><polygon class="cls-1" points="3128.93 4385.65 3151.36 4385.65 3144.89 4380.24 3128.93 4385.65"/></clipPath><clipPath id="clip-path-34"><path class="cls-1" d="M3201.08,4596.74h31.39l8,23.57c-7,12-21.91,14.2-21.91,14.2l-4.22-29h-12.77a4.28,4.28,0,0,1-.45,0,4.42,4.42,0,1,1,0-8.85"/></clipPath><clipPath id="clip-path-35"><path class="cls-1" d="M3167.9,4260.5v.62c-1.4,2.6-14.07,25.63-31,38.24-6.34,4.73-13.27,8-20.43,8.16h42.87c5.43.12,8.57,2.09,10.88,4.57,4.21,4.52,5.58,10.76,12.62,10.76a14.54,14.54,0,0,1,10.14,3.56c4.7,4.24,5.18,10.75,5.18,10.75v31.62H3210q0-1.94,0-3.85c0-3.17,0-6.36-.06-9.56a13.39,13.39,0,0,1,7.62,2.64l1.52,1.24s0,0,0,0l.19.23a271.3,271.3,0,0,0,1.88-29.31c0-34.81-22-59.84-53.23-69.62"/></clipPath><clipPath id="clip-path-36"><path class="cls-1" d="M3148.51,4254.73a138.06,138.06,0,0,0-14.41,0c-2.54.13-5.07.32-7.59.6a103.3,103.3,0,0,0-11,1.78c-.34.08-1.08.36-1.83.61l-1.93.36h0a94.08,94.08,0,0,0-16.21,4.65c-28.13,10.93-47.55,35-47.51,67.61,0,6.91.65,19.07,1.66,27.51,0,.47,0,.91,0,1.39l.15-.12c0,.17,0,.36.06.53.12-.13.21-.28.34-.41a13.25,13.25,0,0,1,8.23-3.79c.41,0,.81-.09,1.21-.07-.06,3.19-.07,6.38-.06,9.54q0,1.91,0,3.85h11.76v-31.62a19,19,0,0,1,2.07-6.71l2.45-3.36.06-.08c2.28-2.33,5.7-3.52,10.75-4.15s7-6.27,11.42-10.52a16.85,16.85,0,0,1,12.09-4.8s26.9.1,30.75,0c38.14-.86,52.93-26.84,58.65-41.11,1.27-3.17,2.1-5.77,2.64-7.38a30.64,30.64,0,0,0,1-4.3Z"/></clipPath><clipPath id="clip-path-37"><path class="cls-1" d="M3198.14,4368.78c0,22.25-40.62,22.85-58.33,22.06h-10c-17.7.79-58.33.18-58.33-22.06h-11.76c.21,17.55,1.68,36.45,12.85,50.68,11.91,15.18,33.31,25.28,51.57,30.12a34.37,34.37,0,0,0,21.41,0c18.25-4.84,39.66-14.95,51.57-30.12,11.17-14.23,12.63-33.13,12.84-50.68h-11.76Z"/></clipPath><clipPath id="clip-path-38"><path class="cls-1" d="M3134.38,4434.28a34.68,34.68,0,0,0,34.68-34.68H3099.7a34.68,34.68,0,0,0,34.68,34.68"/></clipPath><clipPath id="clip-path-39"><path class="cls-1" d="M3238.65,4442.63l-9.58,22.44a74,74,0,0,0-29.33-7.51,74.44,74.44,0,0,1,32.73,139.18l8,23.57a99,99,0,0,0-1.78-177.68"/></clipPath><clipPath id="clip-path-40"><path class="cls-1" d="M3111.77,4367.46a1.7,1.7,0,1,0-1.7,1.7,1.7,1.7,0,0,0,1.7-1.7"/></clipPath><clipPath id="clip-path-41"><path class="cls-1" d="M3098.15,4362a1.7,1.7,0,1,0-1.7,1.7,1.7,1.7,0,0,0,1.7-1.7"/></clipPath><clipPath id="clip-path-42"><path class="cls-1" d="M3122.67,4362a1.7,1.7,0,1,0-1.7,1.7,1.7,1.7,0,0,0,1.7-1.7"/></clipPath><clipPath id="clip-path-43"><path class="cls-1" d="M3100.88,4370.18a1.7,1.7,0,1,0-1.7,1.7,1.7,1.7,0,0,0,1.7-1.7"/></clipPath><clipPath id="clip-path-44"><path class="cls-1" d="M3092.7,4375.63a1.7,1.7,0,1,0-1.7,1.7,1.7,1.7,0,0,0,1.7-1.7"/></clipPath><clipPath id="clip-path-45"><path class="cls-1" d="M3117.22,4375.63a1.7,1.7,0,1,0-1.7,1.7,1.7,1.7,0,0,0,1.7-1.7"/></clipPath><clipPath id="clip-path-46"><path class="cls-1" d="M3163.51,4367.46a1.7,1.7,0,1,1,1.7,1.7,1.7,1.7,0,0,1-1.7-1.7"/></clipPath><clipPath id="clip-path-47"><path class="cls-1" d="M3177.13,4362a1.7,1.7,0,1,1,1.7,1.7,1.7,1.7,0,0,1-1.7-1.7"/></clipPath><clipPath id="clip-path-48"><path class="cls-1" d="M3152.61,4362a1.7,1.7,0,1,1,1.7,1.7,1.7,1.7,0,0,1-1.7-1.7"/></clipPath><clipPath id="clip-path-49"><path class="cls-1" d="M3174.4,4370.18a1.7,1.7,0,1,1,1.7,1.7,1.7,1.7,0,0,1-1.7-1.7"/></clipPath><clipPath id="clip-path-50"><path class="cls-1" d="M3182.58,4375.63a1.7,1.7,0,1,1,1.7,1.7,1.7,1.7,0,0,1-1.7-1.7"/></clipPath><clipPath id="clip-path-51"><path class="cls-1" d="M3158.06,4375.63a1.7,1.7,0,1,1,1.7,1.7,1.7,1.7,0,0,1-1.7-1.7"/></clipPath><clipPath id="clip-path-52"><path class="cls-1" d="M3049.57,4634.52s-25.14,113.28,32.42,213.21h21.5s-98.59-175.19,30.39-175.19v-38Z"/></clipPath><clipPath id="clip-path-53"><path class="cls-1" d="M3218.2,4634.52s25.14,113.28-32.42,213.21h-21.5s98.59-175.19-30.39-175.19v-38Z"/></clipPath><clipPath id="clip-path-54"><path class="cls-1" d="M3109.45,4850.67a7.81,7.81,0,0,0-6.11-2.94H3082s-13.72,6.18-21-1.81a10.75,10.75,0,1,0-8.4,17.46h50.76a7.83,7.83,0,0,0,6.11-12.71"/></clipPath><clipPath id="clip-path-55"><path class="cls-1" d="M3158.33,4850.67a7.81,7.81,0,0,1,6.11-2.94h21.35s13.72,6.18,21-1.81a10.75,10.75,0,1,1,8.4,17.46h-50.76a7.83,7.83,0,0,1-6.11-12.71"/></clipPath><clipPath id="clip-path-56"><path class="cls-1" d="M3067,4596.74h-31.39l-8,23.57c7,12,21.91,14.2,21.91,14.2l4.22-29h12.77a4.28,4.28,0,0,0,.45,0,4.42,4.42,0,1,0,0-8.85"/></clipPath><clipPath id="clip-path-57"><rect class="cls-2" x="3282.68" y="4258.61" width="95.11" height="186.11"/></clipPath><clipPath id="clip-path-58"><rect class="cls-2" x="3373.74" y="4258.61" width="95.09" height="186.16"/></clipPath><clipPath id="clip-path-59"><path class="cls-1" d="M3456.11,4631H3295.2s-24,108.09,30.93,203.44h20.52s-94.08-167.16,29-167.16,29,167.16,29,167.16h20.52c54.92-95.35,30.93-203.44,30.93-203.44"/></clipPath><clipPath id="clip-path-60"><path class="cls-1" d="M3295.2,4631s-24,108.09,30.93,203.44h20.52s-94.08-167.16,29-167.16V4631Z"/></clipPath><clipPath id="clip-path-61"><path class="cls-1" d="M3456.11,4631s24,108.09-30.93,203.44h-20.52s94.08-167.16-29-167.16V4631Z"/></clipPath><clipPath id="clip-path-62"><path class="cls-1" d="M3352.34,4837.22a7.45,7.45,0,0,0-5.83-2.81h-20.37s-13.09,5.9-20-1.73a10.26,10.26,0,1,0-8,16.66h48.43a7.47,7.47,0,0,0,5.83-12.13"/></clipPath><clipPath id="clip-path-63"><path class="cls-1" d="M3399,4837.22a7.46,7.46,0,0,1,5.83-2.81h20.37s13.09,5.9,20-1.73a10.26,10.26,0,1,1,8,16.66h-48.43a7.47,7.47,0,0,1-5.83-12.13"/></clipPath><clipPath id="clip-path-64"><path class="cls-1" d="M3468.83,4351.7a93.08,93.08,0,0,0-93.08-93.08c-.68,0-1.34,0-2,.05L3350,4337l23.77,107.71c.67,0,1.34.05,2,.05a93.08,93.08,0,0,0,93.08-93.08"/></clipPath><clipPath id="clip-path-65"><path class="cls-1" d="M3283.66,4365.3s4.61,55.57-28.41,63c0,0,30.69,44.28,100.11,20.08l-10-46.77Z"/></clipPath><clipPath id="clip-path-66"><path class="cls-1" d="M3467.71,4365.3s-4.61,55.57,28.41,63c0,0-30.69,44.28-100.11,20.08l10-46.77Z"/></clipPath><clipPath id="clip-path-67"><path class="cls-1" d="M3222.87,4523.44a95.37,95.37,0,0,0-.52,9.88,94.19,94.19,0,0,0,51.82,84.13l7.57-22.44a70.69,70.69,0,0,1-35.35-71.58Z"/></clipPath><clipPath id="clip-path-68"><path class="cls-1" d="M3275.32,4590.07c.88-4.94-2.11-9.56-4.59-12.11-3.12-3.21-5.85-6.58-12.9-5.68-4.15,6.11-10.51,12.42-16.67,17.63-.26,4.31-2,12.4.76,15.17s16.44,2.47,16.44,2.47Z"/></clipPath><clipPath id="clip-path-69"><path class="cls-1" d="M3341.81,4442.55l-4.79,23a71.19,71.19,0,0,1,40.38,31.5l28.27,5.69a94.42,94.42,0,0,0-63.85-60.15"/></clipPath><clipPath id="clip-path-70"><path class="cls-1" d="M3316.57,4439.11a94.22,94.22,0,0,0-93.69,84.33h23.53A70.76,70.76,0,0,1,3337,4465.5l4.79-23a94.23,94.23,0,0,0-25.25-3.44"/></clipPath><clipPath id="clip-path-71"><path class="cls-1" d="M3375.28,4453.5l36.66-20.63S3448.25,4562.36,3456,4631h-80.72Z"/></clipPath><clipPath id="clip-path-72"><path class="cls-1" d="M3384.19,4465.06a94.05,94.05,0,0,0-16,25.34l18.77,16.7a70.45,70.45,0,0,1,15-26.94l.48-.51-21.22-3.75Z"/></clipPath><clipPath id="clip-path-73"><path class="cls-1" d="M3500.2,4442.12c-19.73-4.74-38.71-11.11-59.31-8a93.82,93.82,0,0,0-56.35,30.54l-.35.41-2.95,10.84,21.22,3.75a71.36,71.36,0,0,1,55.94-23.14c23.29,1.12,43.6,12.57,67.64,9a94.26,94.26,0,0,0,26.76-8.21l-10.86-20.76a71.38,71.38,0,0,1-41.73,5.63"/></clipPath><clipPath id="clip-path-74"><path class="cls-1" d="M3375.75,4453.5l-36.66-20.63S3302.78,4562.36,3295,4631h80.72Z"/></clipPath><clipPath id="clip-path-75"><path class="cls-1" d="M3347.13,4448.43h6.5l-8.26-12-20.1,14.29,23.34,14.37-3.24,23.67,30.38,80v-88c-15.83-3.46-28.63-32.22-28.63-32.22"/></clipPath><clipPath id="clip-path-76"><path class="cls-1" d="M3404.38,4448.43h-6.5l8.26-12,20.1,14.29-23.34,14.37,3.24,23.67-30.38,80v-88c15.83-3.46,28.63-32.22,28.63-32.22"/></clipPath><clipPath id="clip-path-77"><path class="cls-1" d="M3375.75,4448.43h-28.63s12.79,28.76,28.63,32.22c15.83-3.46,28.63-32.22,28.63-32.22Z"/></clipPath><clipPath id="clip-path-78"><path class="cls-1" d="M3375.75,4428.34l-28.63,20.08s15.07,19.58,28.63,19.58c4.16,0,18.69-6.29,28.63-19.58Z"/></clipPath><clipPath id="clip-path-79"><path class="cls-1" d="M3313.29,4369a12.82,12.82,0,1,0,0,18.13,12.82,12.82,0,0,0,0-18.13"/></clipPath><clipPath id="clip-path-80"><path class="cls-1" d="M3456.35,4369a12.82,12.82,0,1,0,0,18.13,12.82,12.82,0,0,0,0-18.13"/></clipPath><clipPath id="clip-path-81"><path class="cls-1" d="M3390.28,4453.51c19.84-6.85,40.47-16.92,50-35.63,6.58-12.93,6.82-28,7-42.54.1-10.44.19-21.07-1.39-31.34a76.32,76.32,0,0,0-3.65-14.62c-6.53-17.94-21.33-32.53-39.1-39.51a73.08,73.08,0,0,0-27.34-4.92l-12.7,110.59,12.7,61c.32,0,.64,0,1,0,4.65-.11,9.17-1.56,13.57-3.08"/></clipPath><clipPath id="clip-path-82"><path class="cls-1" d="M3347.57,4290.69c-13.3,5.44-25.23,14.74-32.53,27.12-9.86,16.73-10.51,37.15-10.43,56.57.07,17.69.84,37.36,12.25,51.9s31.71,24.06,49.08,28.67a42.22,42.22,0,0,0,10.19,1.63l-5.19-62.42,15.18-5.19-10-104a77.62,77.62,0,0,0-28.56,5.72"/></clipPath><clipPath id="clip-path-83"><path class="cls-1" d="M3355.36,4359.9a5.39,5.39,0,1,0-5.39,5.39,5.39,5.39,0,0,0,5.39-5.39"/></clipPath><clipPath id="clip-path-84"><path class="cls-1" d="M3409.13,4359.9a5.39,5.39,0,1,0-5.39,5.39,5.39,5.39,0,0,0,5.39-5.39"/></clipPath><clipPath id="clip-path-85"><path class="cls-1" d="M3427.24,4384c0,3.31-5.31,6-11.85,6s-11.86-2.68-11.86-6,5.31-6,11.86-6,11.85,2.68,11.85,6"/></clipPath><clipPath id="clip-path-86"><path class="cls-1" d="M3326.85,4384c0,3.31,5.31,6,11.85,6s11.85-2.68,11.85-6-5.31-6-11.85-6-11.85,2.68-11.85,6"/></clipPath><clipPath id="clip-path-87"><polygon class="cls-1" points="3370.57 4394.11 3391.91 4394.11 3385.75 4388.96 3370.57 4394.11"/></clipPath><clipPath id="clip-path-88"><path class="cls-1" d="M3281.75,4595h29.88v8.38H3299l-4,27.58s-14.22-2.05-20.86-13.52Z"/></clipPath><clipPath id="clip-path-89"><path class="cls-1" d="M3311.63,4595a4.21,4.21,0,1,1-4.21,4.21,4.21,4.21,0,0,1,4.21-4.21"/></clipPath><clipPath id="clip-path-90"><path class="cls-1" d="M3609.64,4355.37a19,19,0,1,0-33.74,4.33h0l0,.07.1.14,6.73,10a70.55,70.55,0,0,1-40.84,66.63l10.86,20.76a93.87,93.87,0,0,0,29.6-22.33c16.89-19,23.68-41.53,22.72-65.06l4.54-14.5Z"/></clipPath><clipPath id="clip-path-91"><path class="cls-1" d="M3577.07,4309.7a4.32,4.32,0,0,0-4.32,4.32v40.41h8.64V4314a4.32,4.32,0,0,0-4.32-4.32"/></clipPath><clipPath id="clip-path-92"><path class="cls-1" d="M3598.06,4345h-26.34a1.56,1.56,0,0,0-1.54,1.22,22.63,22.63,0,0,0-.47,4.53,26.41,26.41,0,0,0,1.17,7.79c1.64,5.23,9.45,2.9,9.55-2.59a1.56,1.56,0,0,1,1.56-1.53h16v-.08h0c2.88,0,5.21-1.77,5.21-4.65s-2.33-4.7-5.21-4.7"/></clipPath><clipPath id="clip-path-93"><path class="cls-1" d="M3375.75,4440.39a33,33,0,0,0,33-33h-66a33,33,0,0,0,33,33"/></clipPath><clipPath id="clip-path-94"><path class="cls-1" d="M3376.76,4321.23s-23.12,30.46-87.65,48.64c0,0-15.56-103.17,87.65-92.52Z"/></clipPath><clipPath id="clip-path-95"><path class="cls-1" d="M3374.74,4321.23s23.12,30.46,87.65,48.64c0,0,15.56-104.45-87.65-93.8Z"/></clipPath><clipPath id="clip-path-96"><polygon class="cls-1" points="5045.71 4771.45 5045.71 4842.08 5535.08 5124.62 6024.45 4842.08 6024.45 4771.45 5535.08 4488.91 5045.71 4771.45"/></clipPath><clipPath id="clip-path-97"><polygon class="cls-1" points="5535.08 5124.62 5045.71 4842.08 5045.71 4771.45 5535.08 5053.98 5535.08 5124.62"/></clipPath><clipPath id="clip-path-98"><polygon class="cls-1" points="5779.77 5124.62 6024.45 5124.62 6024.45 4771.45 5535.08 4771.45 5535.08 5124.62 5779.77 5124.62"/></clipPath><clipPath id="clip-path-99"><path class="cls-1" d="M5495.82,4841.18l-165,95.17,94.05,54.3,201.18-116a53.29,53.29,0,0,0-2.91-95.35L5519,4719.18l-94.05,54.3,70.37,40.6a16.17,16.17,0,0,1,.51,27.1Z"/></clipPath><clipPath id="clip-path-100"><polygon class="cls-1" points="5380.85 4966.43 5436.99 4933.62 5427.49 4928.67 5371.58 4961.04 5380.85 4966.43"/></clipPath><clipPath id="clip-path-101"><polygon class="cls-1" points="5485.59 4902.42 5541.74 4869.61 5532.23 4864.66 5476.32 4897.03 5485.59 4902.42"/></clipPath><clipPath id="clip-path-102"><path class="cls-1" d="M5572.88,4850s19.45-13.41,26-17.76,5.11-14.73-1.54-19.13-22.3-14.76-23.14-14.35-8.4,5.49-8.4,5.49,18.78,11.38,21.21,12.79,9.57,6,2.88,10.14-26.29,17.43-26.29,17.43Z"/></clipPath><clipPath id="clip-path-103"><polyline class="cls-1" points="5526.65 4780.22 5470.5 4747.41 5480.01 4742.46 5535.92 4774.83"/></clipPath><clipPath id="clip-path-104"><polygon class="cls-1" points="5516.89 4664.98 5516.79 4412.95 5437.86 4367.37 5438 4619.38 5516.89 4664.98"/></clipPath><clipPath id="clip-path-105"><polygon class="cls-1" points="5595.73 4367.37 5516.79 4412.94 5516.89 4664.98 5595.88 4619.38 5595.73 4367.37"/></clipPath><clipPath id="clip-path-106"><polygon class="cls-1" points="5437.86 4367.37 5516.79 4321.8 5595.73 4367.37 5516.79 4412.94 5437.86 4367.37"/></clipPath><clipPath id="clip-path-107"><polygon class="cls-1" points="5477.24 4367.33 5477.24 4298.94 5516.78 4321.76 5516.78 4390.16 5477.24 4367.33"/></clipPath><clipPath id="clip-path-108"><polygon class="cls-1" points="5556.24 4298.94 5516.78 4321.76 5516.78 4390.16 5556.24 4367.33 5556.24 4298.94"/></clipPath><clipPath id="clip-path-109"><polygon class="cls-1" points="5516.78 4321.76 5556.24 4298.94 5516.78 4276.11 5477.24 4298.94 5516.78 4321.76"/></clipPath><clipPath id="clip-path-110"><polygon class="cls-1" points="5506.33 4299.58 5506.33 4211.9 5516.75 4217.92 5516.75 4305.6 5506.33 4299.58"/></clipPath><clipPath id="clip-path-111"><polygon class="cls-1" points="5527.15 4211.9 5516.75 4217.92 5516.75 4305.6 5527.15 4299.58 5527.15 4211.9"/></clipPath><clipPath id="clip-path-112"><rect class="cls-2" x="5506.33" y="4205.89" width="20.82" height="12.03"/></clipPath><clipPath id="clip-path-113"><polygon class="cls-1" points="5638 4618.57 5637.93 4448.11 5584.02 4417.29 5584.12 4587.73 5638 4618.57"/></clipPath><clipPath id="clip-path-114"><polygon class="cls-1" points="5691.84 4417.29 5637.93 4448.11 5638 4618.57 5691.94 4587.73 5691.84 4417.29"/></clipPath><clipPath id="clip-path-115"><polygon class="cls-1" points="5584.02 4417.29 5637.93 4386.47 5691.84 4417.29 5637.93 4448.11 5584.02 4417.29"/></clipPath><clipPath id="clip-path-116"><polygon class="cls-1" points="5414.83 4630.5 5414.77 4465.72 5362.78 4435.92 5362.88 4600.68 5414.83 4630.5"/></clipPath><clipPath id="clip-path-117"><polygon class="cls-1" points="5466.75 4435.92 5414.77 4465.72 5414.83 4630.5 5466.84 4600.68 5466.75 4435.92"/></clipPath><clipPath id="clip-path-118"><polygon class="cls-1" points="5362.78 4435.92 5414.76 4406.13 5466.75 4435.92 5414.76 4465.72 5362.78 4435.92"/></clipPath><clipPath id="clip-path-119"><path class="cls-1" d="M5923.45,4688.91c-26.79-16.65-113.34-38.16-234.91-38.65l-63.92-75.18a71.3,71.3,0,0,0-54-25.12l-300.07-1.22a57,57,0,0,0-40.4,16.54l-72.23,71.65a57.06,57.06,0,0,0-15.11,26.43l-10.6,41.67,213.49,100.69,598.9,2.44.33-80.61a45.23,45.23,0,0,0-21.45-38.64"/></clipPath><clipPath id="clip-path-120"><path class="cls-1" d="M5624.62,4575.08a71.29,71.29,0,0,0-54-25.12l-300.07-1.22a57,57,0,0,0-40.4,16.54L5161,4633.85l37.29.15a356.67,356.67,0,0,1,39.36,2.34l108.66,12.52,342.23,1.39Z"/></clipPath><clipPath id="clip-path-121"><path class="cls-1" d="M5602,4649.91l-236.76-1a341.94,341.94,0,0,1-37.78-2.25l-74.18-8.55a19.55,19.55,0,0,1-13-31.69l26.43-32.77a28.55,28.55,0,0,1,22.31-10.61l243.87,1a28.51,28.51,0,0,1,21.87,10.35l52.75,63.82a7.13,7.13,0,0,1-5.52,11.67"/></clipPath><clipPath id="clip-path-122"><path class="cls-1" d="M5944.86,4736.86c.12-28.52-42.55-57.21-242.18-58l-556.12-2.27a14.26,14.26,0,0,0-14.32,14.2l-.3,71.3,270.82,29.62,541.86,2.2Z"/></clipPath><clipPath id="clip-path-123"><path class="cls-1" d="M5944.69,4779.64,5276,4776.92l-126.69-28.69a14.26,14.26,0,1,0-6.29,27.81l128.22,29a14,14,0,0,0,3.09.36l670.2,2.73a14.26,14.26,0,0,0,.12-28.52"/></clipPath><clipPath id="clip-path-124"><path class="cls-1" d="M5253.33,4718.59a65.36,65.36,0,1,1-65.62,65.09,65.36,65.36,0,0,1,65.62-65.09"/></clipPath><clipPath id="clip-path-125"><path class="cls-1" d="M5253.27,4734a49.91,49.91,0,1,0,49.7,50.11,50,50,0,0,0-49.7-50.11m-.52,128.34a78.43,78.43,0,1,1,78.74-78.11,78.51,78.51,0,0,1-78.74,78.11"/></clipPath><clipPath id="clip-path-126"><path class="cls-1" d="M5253.18,4755.43a28.52,28.52,0,1,1-28.63,28.4,28.52,28.52,0,0,1,28.63-28.4"/></clipPath><clipPath id="clip-path-127"><path class="cls-1" d="M5702.38,4750.13l-342.23-1.39a14.26,14.26,0,0,1,.12-28.52l342.23,1.39a14.26,14.26,0,0,1-.12,28.52"/></clipPath><clipPath id="clip-path-128"><path class="cls-1" d="M5944.8,4751.12l-14.26-.06a14.26,14.26,0,0,1,.12-28.52l14.26.06a14.26,14.26,0,0,1-.12,28.52"/></clipPath><clipPath id="clip-path-129"><rect class="cls-2" x="5417.77" y="4592.29" width="85.56" height="28.52" transform="translate(831.97 10048.43) rotate(-89.77)"/></clipPath><clipPath id="clip-path-130"><path class="cls-1" d="M5929.73,4694l-13.21-.05a14.26,14.26,0,0,0-.12,28.52l27.88.11a44.67,44.67,0,0,0-14.55-28.58"/></clipPath><clipPath id="clip-path-131"><path class="cls-1" d="M5624.62,4575.08a71.26,71.26,0,0,0-11.32-10.68l-23.27-.1a7.13,7.13,0,0,0-5.52,11.67l52.75,63.82a28.52,28.52,0,0,0,21.87,10.35l29.42.12Z"/></clipPath><clipPath id="clip-path-132"><polygon class="cls-1" points="5318.82 4645.7 5346.65 4563.31 5318.13 4563.19 5278.79 4641.09 5318.82 4645.7"/></clipPath><clipPath id="clip-path-133"><path class="cls-1" d="M5142.79,4663.36l-3.36,13.18,35.64.15a14.26,14.26,0,1,0,.12-28.52l-25.94-.11a56.9,56.9,0,0,0-6.46,15.3"/></clipPath><clipPath id="clip-path-134"><path class="cls-1" d="M5809.45,4720.86a65.36,65.36,0,1,1-65.62,65.09,65.36,65.36,0,0,1,65.62-65.09"/></clipPath><clipPath id="clip-path-135"><path class="cls-1" d="M5809.39,4736.31a49.91,49.91,0,1,0,49.7,50.11,50,50,0,0,0-49.7-50.11m-.52,128.34a78.43,78.43,0,1,1,78.74-78.11,78.51,78.51,0,0,1-78.74,78.11"/></clipPath><clipPath id="clip-path-136"><path class="cls-1" d="M5809.3,4757.69a28.52,28.52,0,1,1-28.63,28.4,28.52,28.52,0,0,1,28.63-28.4"/></clipPath></defs><title>ilustracoes_caixa_am5SVG</title><polygon class="cls-3" points="960 256.5 469.09 539.93 469.09 610.79 960 894.21 1450.91 610.79 1450.91 539.93 960 256.5"/><polygon class="cls-4" points="960 894.21 469.09 610.79 469.09 539.93 960 823.36 960 894.21"/><polygon class="cls-5" points="960 894.21 1450.91 610.79 1450.91 539.93 960 823.36 960 894.21"/><polygon class="cls-6" points="1257.49 608.46 888.5 395.46 888.92 112.33 1257.15 324.93 1257.49 608.46"/><polygon class="cls-7" points="1226.99 553.67 1188.32 531.73 1188.59 477.09 1226.77 498.78 1226.99 553.67"/><polygon class="cls-8" points="1257.49 437.46 888.5 224.46 888.92 157.33 1257.15 369.93 1257.49 437.46"/><polygon class="cls-8" points="1015.08 346.46 915.09 288.75 915.21 270.56 1014.98 328.17 1015.08 346.46"/><polygon class="cls-8" points="1015.08 377.46 915.09 319.75 915.21 301.56 1014.98 359.17 1015.08 377.46"/><polygon class="cls-8" points="965.13 379.66 915.09 350.75 915.21 332.56 965.04 361.36 965.13 379.66"/><polygon class="cls-9" points="1278.49 595.8 1257.49 608.46 1257.15 324.93 1278.49 313.32 1278.49 595.8"/><polygon class="cls-10" points="888.92 112.33 910.05 100.6 1278.49 313.32 1257.15 324.93 888.92 112.33"/><path class="cls-11" d="M844.72,449.82C828.37,437.91,801,430.1,769.89,430.1s-58.48,7.81-74.83,19.72H679.18v25.63c0,25,40.61,45.35,90.71,45.35s90.71-20.31,90.71-45.35V449.82Z"/><ellipse class="cls-12" cx="769.89" cy="449.82" rx="90.71" ry="45.36"/><ellipse class="cls-7" cx="769.89" cy="449.82" rx="64.14" ry="32.07"/><path class="cls-11" d="M857.83,404.93C841.48,393,814.07,385.21,783,385.21s-58.48,7.81-74.83,19.72H692.29v25.63c0,25,40.61,45.35,90.71,45.35s90.71-20.31,90.71-45.35V404.93Z"/><ellipse class="cls-12" cx="783" cy="404.93" rx="90.71" ry="45.36"/><ellipse class="cls-7" cx="783" cy="404.93" rx="64.14" ry="32.07"/><path class="cls-11" d="M1018.87,488.25c-16.35-11.91-43.76-19.72-74.83-19.72s-58.48,7.81-74.83,19.72H853.33v25.63c0,25,40.61,45.35,90.71,45.35s90.71-20.31,90.71-45.35V488.25Z"/><ellipse class="cls-12" cx="944.04" cy="488.25" rx="90.71" ry="45.36"/><ellipse class="cls-7" cx="944.04" cy="488.25" rx="64.14" ry="32.07"/><path class="cls-11" d="M1000.17,443.36c-16.35-11.91-43.76-19.72-74.83-19.72s-58.48,7.81-74.83,19.72H834.63V469c0,25,40.61,45.35,90.71,45.35S1016.05,494,1016.05,469V443.36Z"/><ellipse class="cls-12" cx="925.34" cy="443.36" rx="90.71" ry="45.36"/><ellipse class="cls-7" cx="925.34" cy="443.36" rx="64.14" ry="32.07"/><path class="cls-11" d="M844.72,348.82C828.37,336.92,801,329.1,769.89,329.1s-58.48,7.81-74.83,19.72H679.18v25.63c0,25,40.61,45.35,90.71,45.35s90.71-20.31,90.71-45.35V348.82Z"/><ellipse class="cls-12" cx="769.89" cy="348.82" rx="90.71" ry="45.36"/><ellipse class="cls-7" cx="769.89" cy="348.82" rx="64.14" ry="32.07"/><path class="cls-11" d="M871.29,303.94c-16.35-11.91-43.76-19.72-74.83-19.72S738,292,721.63,303.94H705.75v25.63c0,25,40.61,45.35,90.71,45.35s90.71-20.31,90.71-45.35V303.94Z"/><ellipse class="cls-12" cx="796.46" cy="303.94" rx="90.71" ry="45.36"/><ellipse class="cls-7" cx="796.46" cy="303.94" rx="64.14" ry="32.07"/><path class="cls-11" d="M918.81,581.68C902.46,569.77,875,562,844,562s-58.48,7.81-74.83,19.72H753.27v25.63c0,25,40.61,45.35,90.71,45.35s90.71-20.31,90.71-45.35V581.68Z"/><ellipse class="cls-12" cx="843.98" cy="581.68" rx="90.71" ry="45.36"/><ellipse class="cls-7" cx="843.98" cy="581.68" rx="64.14" ry="32.07"/><path class="cls-11" d="M846.59,539.21c-19.31-6-47.77-4.63-77.2,5.34s-52.88,26.17-64.54,42.69l-15,5.1L698,616.61c8,23.72,53,29.92,100.47,13.84s79.39-48.35,71.36-72.07l-8.23-24.28Z"/><ellipse class="cls-12" cx="775.72" cy="563.22" rx="90.71" ry="45.36" transform="translate(-139.73 278.77) rotate(-18.72)"/><ellipse class="cls-7" cx="775.72" cy="563.22" rx="64.14" ry="32.07" transform="translate(-139.73 278.77) rotate(-18.72)"/><path class="cls-13" d="M1101,515.63c-132.87,0-240.59,107.71-240.59,240.59S968.08,996.81,1101,996.81s240.59-107.71,240.59-240.59S1233.82,515.63,1101,515.63ZM912.69,756.22C912.69,652.25,997,568,1101,568a187.4,187.4,0,0,1,111.1,36.28L953,872.64A187.45,187.45,0,0,1,912.69,756.22ZM1101,944.48a187.4,187.4,0,0,1-109.83-35.35L1249.87,641a187.43,187.43,0,0,1,39.35,115.18C1289.21,860.2,1204.92,944.48,1101,944.48Z"/></svg>