<svg id="Layer_1" data-name="Layer 1" xmlns="http://www.w3.org/2000/svg" viewBox="0 0 1920 1080"><defs><style>.cls-1{fill:#ff9141;}.cls-2{fill:#ff6d00;}.cls-3{fill:#e65a00;}.cls-4{fill:#00a499;}.cls-5{fill:#005fc8;}.cls-6{fill:#0039ba;}.cls-7{fill:#500778;}.cls-8{fill:#733791;}.cls-9{fill:#41b9b4;}</style></defs><title>ilustracoes_caixa_am5SVG</title><polygon class="cls-1" points="960 256.5 469.09 539.93 469.09 610.79 960 894.21 1450.91 610.79 1450.91 539.93 960 256.5"/><polygon class="cls-2" points="960 894.21 469.09 610.79 469.09 539.93 960 823.36 960 894.21"/><polygon class="cls-3" points="960 894.21 1450.91 610.79 1450.91 539.93 960 823.36 960 894.21"/><path class="cls-4" d="M878.61,563.61v71.12a14,14,0,0,1-13.95,13.95H748.91l53-99h62.75a14,14,0,0,1,13.95,13.95Z"/><path class="cls-5" d="M1014.57,155.7H910.68a13.5,13.5,0,0,0-11.85,7L842.35,267.27c-3.49,7-.7,16,6.28,18.83l65.54,30a14.46,14.46,0,0,0,18.13-6.28l26.5-50.2h0l55.78-103.89Z"/><path class="cls-6" d="M1147.06,330,1119.17,436.7a13.52,13.52,0,0,1-16.73,9.76L995.75,417.88a13.74,13.74,0,0,1-3.49-25.1L1020.85,376l-3.49-5.58L958.1,260.29l55.78-104.59,92,170.13L1126.84,314c10.46-6.28,23.71,3.49,20.22,16Z"/><path class="cls-7" d="M1226.55,549.66H1114.28l-23.71-43.93a14.51,14.51,0,0,1,4.88-18.83l61.36-36.26a13.19,13.19,0,0,1,18.83,5.58l50.9,93.43Z"/><path class="cls-8" d="M1226.55,549.66l-55.08,92c-2.79,4.18-7,7-11.85,7H1013.88v28.59A13.74,13.74,0,0,1,990.17,687l-78.09-78.09a13.48,13.48,0,0,1,0-19.52l78.09-78.09c8.37-9.06,23.71-2.79,23.71,9.76v28.59Z"/><path class="cls-9" d="M889.06,465.29,856.29,450,802.6,549.66l-53.69,99-55.08-92c-2.79-4.18-2.79-9.06,0-13.95l72.52-134.57-18.83-8.37c-11.16-4.88-10.46-20.92.7-25.8l103.2-38.35A13.92,13.92,0,0,1,869.54,344l38.35,103.2c4.18,11.85-7.67,23-18.83,18.13Z"/></svg>