<svg id="Layer_1" data-name="Layer 1" xmlns="http://www.w3.org/2000/svg" viewBox="0 0 1920 1080"><defs><style>.cls-1{fill:#733791;}.cls-2{fill:#500778;}.cls-3{fill:#400666;}.cls-4{opacity:0.48;}.cls-5{fill:#64c8c3;}.cls-6{fill:#00a499;}.cls-7{fill:#ffce00;}.cls-8{fill:#ff9141;}</style></defs><title>ilustracoes_caixa_am5SVG</title><polygon class="cls-1" points="959.48 256.84 468.57 540.27 468.57 611.13 959.48 894.55 1450.38 611.13 1450.38 540.27 959.48 256.84"/><polygon class="cls-2" points="960 894.21 469.09 610.79 469.09 539.93 960 823.36 960 894.21"/><polygon class="cls-3" points="960 894.21 1450.91 610.79 1450.91 539.93 960 823.36 960 894.21"/><path class="cls-3" d="M841.71,531.9v49.36c0,30.32,53,54.9,118.29,54.9s118.29-24.58,118.29-54.9V531.9Z"/><ellipse class="cls-2" cx="960" cy="522.9" rx="118.29" ry="54.9"/><g class="cls-4"><polygon class="cls-5" points="1074.48 208.27 960 208.27 845.52 208.27 764.71 309.28 960 538.24 1155.29 309.28 1074.48 208.27"/></g><path class="cls-6" d="M848.08,223.26l-3.43-9.89-6.54,8.18-3.9-3.12,9.37-11.71a2.5,2.5,0,0,1,4.31.74l4.92,14.17Z"/><rect class="cls-6" x="788.56" y="256.28" width="33.12" height="5" transform="translate(100.09 725.8) rotate(-51.34)"/><path class="cls-6" d="M779.71,311.78h-15a2.5,2.5,0,0,1-2-4.06L772.13,296l3.9,3.12-6.12,7.65h9.8Z"/><rect class="cls-6" x="808.33" y="306.78" width="28.62" height="5"/><path class="cls-6" d="M880.56,311.78h-15v-5h11.49l-3.76-10.85,4.72-1.64,4.92,14.17a2.5,2.5,0,0,1-2.36,3.32Z"/><rect class="cls-6" x="860.54" y="245.96" width="5" height="25.64" transform="translate(-37.14 297.16) rotate(-19.13)"/><path class="cls-6" d="M1054.43,311.78h-15a2.5,2.5,0,0,1-2.36-3.32l4.92-14.17,4.72,1.64-3.76,10.85h11.49Z"/><rect class="cls-6" x="1083.05" y="306.78" width="28.62" height="5"/><path class="cls-6" d="M1155.29,311.78h-15v-5h9.8l-6.12-7.65,3.9-3.12,9.37,11.71a2.5,2.5,0,0,1-2,4.06Z"/><rect class="cls-6" x="1112.38" y="242.22" width="5" height="33.12" transform="translate(82.66 753.18) rotate(-38.66)"/><path class="cls-6" d="M1071.92,223.26l-4.72-1.64,4.92-14.17a2.5,2.5,0,0,1,4.31-.74l9.37,11.71-3.9,3.12-6.54-8.18Z"/><rect class="cls-6" x="1044.14" y="256.28" width="25.64" height="5" transform="translate(466.01 1172.51) rotate(-70.87)"/><path class="cls-6" d="M1039.43,311.78h-15v-5h9.85l-6.09-7.75,3.93-3.09,9.27,11.79a2.5,2.5,0,0,1-2,4Z"/><rect class="cls-6" x="997.22" y="242.36" width="5" height="32.83" transform="translate(53.91 673.33) rotate(-38.18)"/><path class="cls-6" d="M967.31,221.61,960,212.32l-7.31,9.29-3.93-3.09L958,206.73a2.5,2.5,0,0,1,3.93,0l9.27,11.79Z"/><rect class="cls-6" x="903.86" y="256.28" width="32.83" height="5" transform="translate(148.01 822.24) rotate(-51.82)"/><path class="cls-6" d="M895.56,311.78h-15a2.5,2.5,0,0,1-2-4l9.27-11.79L891.8,299l-6.09,7.75h9.85Z"/><path class="cls-6" d="M998.66,311.78H972.89v-5h25.77Zm-51.55,0H921.34v-5h25.77Z"/><path class="cls-6" d="M952.69,221.61l-3.93-3.09,6.09-7.75H945v-5h15a2.5,2.5,0,0,1,2,4Z"/><rect class="cls-6" x="888.68" y="205.77" width="28.16" height="5"/><path class="cls-6" d="M848.08,223.26l-4.92-14.17a2.5,2.5,0,0,1,2.36-3.32h15v5H849l3.76,10.85Z"/><rect class="cls-6" x="860.54" y="245.96" width="5" height="25.64" transform="translate(-37.14 297.17) rotate(-19.13)"/><path class="cls-6" d="M880.56,311.78a2.5,2.5,0,0,1-2.36-1.68l-4.92-14.17,4.72-1.64,3.42,9.85,6.44-8.19L891.8,299l-9.27,11.79A2.5,2.5,0,0,1,880.56,311.78Z"/><rect class="cls-6" x="903.86" y="256.28" width="32.83" height="5" transform="translate(148.01 822.24) rotate(-51.82)"/><path class="cls-6" d="M1071.92,223.26l-4.72-1.64,3.77-10.85h-11.49v-5h15a2.5,2.5,0,0,1,2.36,3.32Z"/><rect class="cls-6" x="1003.16" y="205.77" width="28.16" height="5"/><path class="cls-6" d="M967.31,221.61,958,209.82a2.5,2.5,0,0,1,2-4h15v5h-9.85l6.09,7.75Z"/><rect class="cls-6" x="997.22" y="242.36" width="5" height="32.83" transform="translate(53.91 673.33) rotate(-38.18)"/><path class="cls-6" d="M1039.43,311.78a2.5,2.5,0,0,1-2-1L1028.19,299l3.93-3.09,6.44,8.2,3.42-9.85,4.72,1.64-4.92,14.17a2.5,2.5,0,0,1-2.36,1.68Z"/><rect class="cls-6" x="1044.14" y="256.28" width="25.64" height="5" transform="translate(466.01 1172.51) rotate(-70.87)"/><path class="cls-6" d="M883.12,324.27,878.2,310.1a2.5,2.5,0,0,1,2.36-3.32h15v5H884.08l3.76,10.85Z"/><path class="cls-6" d="M942.78,496.23l-9.94-28.66,4.72-1.64,9.94,28.66Zm-19.89-57.32-9.94-28.66,4.72-1.64,9.94,28.66ZM903,381.59l-9.94-28.66,4.72-1.64L907.73,380Z"/><path class="cls-6" d="M960,540.74a2.5,2.5,0,0,1-2.36-1.68l-4.92-14.17,4.72-1.64,2.55,7.36,2.55-7.36,4.72,1.64-4.92,14.17A2.5,2.5,0,0,1,960,540.74Z"/><path class="cls-6" d="M977.22,496.23l-4.72-1.64,9.94-28.66,4.72,1.64Zm19.89-57.32-4.72-1.64,9.94-28.66,4.72,1.64ZM1017,381.59l-4.72-1.64,9.94-28.66,4.72,1.64Z"/><path class="cls-6" d="M1036.88,324.27l-4.72-1.64,3.76-10.85h-11.49v-5h15a2.5,2.5,0,0,1,2.36,3.32Z"/><path class="cls-6" d="M998.66,311.78H972.89v-5h25.77Zm-51.55,0H921.34v-5h25.77Z"/><path class="cls-6" d="M772.54,322.32l-9.73-11.41a2.5,2.5,0,0,1,1.9-4.12h15v5h-9.58l6.22,7.29Z"/><path class="cls-6" d="M928.83,505.55l-19.54-22.9,3.8-3.24,19.54,22.9Zm-39.07-45.81-19.54-22.9,3.8-3.24,19.54,22.9Zm-39.07-45.81L831.15,391l3.8-3.24,19.54,22.9Zm-39.07-45.81-19.54-22.9,3.8-3.24,19.54,22.9Z"/><path class="cls-6" d="M960,540.74a2.5,2.5,0,0,1-1.9-.88l-9.73-11.41,3.8-3.24,1.12,1.31-.56-1.63,4.72-1.64,4.92,14.17a2.5,2.5,0,0,1-2.36,3.32Z"/><path class="cls-6" d="M942.78,496.23l-9.94-28.66,4.72-1.64,9.94,28.66Zm-19.89-57.32-9.94-28.66,4.72-1.64,9.94,28.66ZM903,381.59l-9.94-28.66,4.72-1.64L907.73,380Z"/><path class="cls-6" d="M883.12,324.27l-4.33-12.49H865.56v-5h15a2.5,2.5,0,0,1,2.36,1.68l4.92,14.17Z"/><rect class="cls-6" x="808.33" y="306.78" width="28.62" height="5"/><path class="cls-6" d="M1036.88,324.27l-4.72-1.64,4.92-14.17a2.5,2.5,0,0,1,2.36-1.68h15v5h-13.22Z"/><path class="cls-6" d="M977.22,496.23l-4.72-1.64,9.94-28.66,4.72,1.64Zm19.89-57.32-4.72-1.64,9.94-28.66,4.72,1.64ZM1017,381.59l-4.72-1.64,9.94-28.66,4.72,1.64Z"/><path class="cls-6" d="M960,540.74a2.5,2.5,0,0,1-2.36-3.32l4.92-14.17,4.72,1.64-.57,1.63,1.12-1.31,3.8,3.24-9.73,11.41A2.5,2.5,0,0,1,960,540.74Z"/><path class="cls-6" d="M991.17,505.55l-3.8-3.24,19.54-22.9,3.8,3.24Zm39.07-45.81-3.8-3.24,19.54-22.9,3.8,3.24Zm39.07-45.81-3.8-3.24,19.54-22.9,3.8,3.24Zm39.07-45.81-3.8-3.24,19.54-22.9,3.8,3.24Z"/><path class="cls-6" d="M1147.46,322.32l-3.8-3.24,6.22-7.29h-9.58v-5h15a2.5,2.5,0,0,1,1.9,4.12Z"/><rect class="cls-6" x="1083.05" y="306.78" width="28.62" height="5"/><rect class="cls-7" x="955.5" y="600.52" width="9" height="75.3"/><rect class="cls-7" x="955.5" y="51.41" width="9" height="75.3"/><rect class="cls-7" x="647.79" y="359.12" width="75.3" height="9"/><rect class="cls-7" x="1196.91" y="359.12" width="75.3" height="9"/><rect class="cls-7" x="728.21" y="553.26" width="75.3" height="9" transform="translate(-170.08 704.94) rotate(-45)"/><rect class="cls-7" x="1116.49" y="164.98" width="75.3" height="9" transform="translate(218.21 865.76) rotate(-45)"/><rect class="cls-7" x="761.36" y="131.83" width="9" height="75.3" transform="translate(104.48 591.18) rotate(-45)"/><rect class="cls-7" x="1149.64" y="520.11" width="9" height="75.3" transform="translate(-56.36 979.46) rotate(-45)"/><rect class="cls-7" x="666.82" y="459.55" width="75.3" height="9" transform="translate(-120.92 289.84) rotate(-21.46)"/><rect class="cls-7" x="1177.88" y="258.69" width="75.3" height="9" transform="translate(-12.04 462.86) rotate(-21.46)"/><rect class="cls-7" x="703.25" y="217.56" width="9" height="75.3" transform="translate(193.83 804.69) rotate(-66.74)"/><rect class="cls-7" x="1207.75" y="434.37" width="9" height="75.3" transform="translate(299.94 1399.41) rotate(-66.74)"/><rect class="cls-7" x="817.94" y="613.05" width="75.3" height="9" transform="translate(-40.91 1174.05) rotate(-67.65)"/><rect class="cls-7" x="1026.76" y="105.19" width="75.3" height="9" transform="translate(558.19 1052.42) rotate(-67.65)"/><rect class="cls-7" x="854.11" y="70.82" width="9" height="75.3" transform="translate(20.63 324.74) rotate(-21.67)"/><rect class="cls-7" x="1056.89" y="581.12" width="9" height="75.3" transform="translate(-153.48 435.7) rotate(-21.67)"/><path class="cls-8" d="M1222.19,794q0-17.9,4.77-30.43t16.11-23.27q16.7-16.11,30.73-28T1298,689.89a116,116,0,0,0,15.81-19.69,36.56,36.56,0,0,0,5.67-19.39q0-19.69-12.23-30.73t-30.73-11q-28.05,0-42.66,15.51t-16.41,37.59l-91.88-6q6.56-63.23,46.54-96.36t102.62-33.11a174.22,174.22,0,0,1,51.61,7.46A127,127,0,0,1,1369,556.54a107.08,107.08,0,0,1,29.24,37q10.74,22.08,10.74,50.71a126.68,126.68,0,0,1-3.58,31.32,97.14,97.14,0,0,1-12.23,27.74,161.74,161.74,0,0,1-22.67,27.74,383.56,383.56,0,0,1-35.5,30.73q-13.73,10.74-18.5,20.88a47.22,47.22,0,0,0-4.77,20.29v17.3h-89.5ZM1212,908.56a55.85,55.85,0,0,1,4.18-21.48,52.76,52.76,0,0,1,29.24-29.24,57.33,57.33,0,0,1,43,0,52.76,52.76,0,0,1,29.24,29.24,57.32,57.32,0,0,1,0,43,52.76,52.76,0,0,1-29.24,29.24,57.32,57.32,0,0,1-43,0A52.76,52.76,0,0,1,1216.22,930,55.78,55.78,0,0,1,1212,908.56Z"/></svg>