<svg id="Layer_1" data-name="Layer 1" xmlns="http://www.w3.org/2000/svg" viewBox="0 0 1920 1080"><defs><style>.cls-1{fill:#64c8c3;}.cls-2{fill:#41b9b4;}.cls-3{fill:#00a499;}.cls-4{fill:#ffa57d;}.cls-5{fill:#2c346e;}.cls-6{fill:#2c446e;}.cls-7{fill:#ffb692;}.cls-8{fill:#a97c50;}.cls-14,.cls-9{fill:#b5802c;}.cls-10{fill:#96631a;}.cls-11{fill:#f99067;}.cls-12{fill:#59a352;}.cls-13,.cls-23{fill:none;}.cls-14{opacity:0.2;}.cls-15{fill:#fff;}.cls-16{fill:#e57857;}.cls-17{fill:#c49a6c;}.cls-18{fill:#a55c25;}.cls-19{fill:#8c491c;}.cls-20{fill:#ffce00;}.cls-21{fill:#414042;}.cls-22{fill:#e1e1e1;}.cls-23{stroke:#b9b9b9;stroke-miterlimit:10;}.cls-24{fill:#b9b9b9;}.cls-25{fill:#603913;}.cls-26{fill:#754c29;}.cls-27{fill:#733791;}.cls-28{fill:#8c5fa5;}.cls-29{fill:#500778;}.cls-30{fill:#ffb600;}.cls-31{fill:#005fc8;}.cls-32{fill:#ff6d00;}.cls-33{fill:#0039ba;}.cls-34{fill:#845331;}.cls-35{fill:#ccbeb2;}.cls-36{fill:#543119;}.cls-37{fill:#eae0d6;}.cls-38{fill:#fff7ed;}.cls-39{fill:#2f2f30;}.cls-40{fill:#331e10;}</style></defs><title>ilustracoes_caixa_am5SVG</title><polygon class="cls-1" points="960 256.5 469.09 539.93 469.09 610.79 960 894.21 1450.91 610.79 1450.91 539.93 960 256.5"/><polygon class="cls-2" points="960 894.21 469.09 610.79 469.09 539.93 960 823.36 960 894.21"/><polygon class="cls-3" points="960 894.21 1450.91 610.79 1450.91 539.93 960 823.36 960 894.21"/><path class="cls-4" d="M1052.41,193.4c.6-1.75.94-12.84.94-14.79a17.24,17.24,0,0,0-34.49,0c0,3.52,1.06,16,2.86,18.73h0l0,.06.09.13,6.12,9.05a64.17,64.17,0,0,1-37.14,60.6h0a64.92,64.92,0,0,1-37.95,5.12c-17.95-4.32-35.21-10.1-53.94-7.29a85.34,85.34,0,0,0-51.25,27.77l-.32.38L844.68,303l19.3,3.41a64.9,64.9,0,0,1,50.87-21c21.18,1,39.65,11.43,61.51,8.15a85.74,85.74,0,0,0,24.33-7.47h0a85.37,85.37,0,0,0,26.92-20.31c15.36-17.27,21.54-37.77,20.67-59.17l4.13-13.18Z"/><path class="cls-5" d="M927.27,265.91a85.52,85.52,0,0,0-33.72.18l-.75.17c-1.15.25-2.29.51-3.44.8a86,86,0,0,0-63.91,76.47l23.29-11.33a64.71,64.71,0,0,1,45.81-44.48l.21,0,.16,0c.84-.22,1.68-.39,2.51-.58l.38-.09a64.25,64.25,0,0,1,26.3-.09Z"/><path class="cls-6" d="M785.37,270.77A85.64,85.64,0,0,0,748.54,279l8.38,19.64a64.61,64.61,0,0,1,84,24.93l25.8,5.2A86,86,0,0,0,785.37,270.77Z"/><path class="cls-7" d="M699.38,356.76a86,86,0,0,0,47.3,76.79l6.91-20.48a64.65,64.65,0,0,1,3.34-114.39L748.54,279A86,86,0,0,0,699.38,356.76Z"/><path class="cls-6" d="M839.39,283.9l-33.46-18.83s-33.14,118.2-40.22,180.83h73.68Z"/><path class="cls-5" d="M839,283.9l33.46-18.83s33.14,118.2,40.22,180.83H839Z"/><path class="cls-8" d="M912.21,445.89H765.71s-21.84,98.42,28.16,185.23h18.68S726.9,478.93,839,478.93s26.4,152.2,26.4,152.2H884C934,544.31,912.21,445.89,912.21,445.89Z"/><path class="cls-9" d="M765.83,206.75s1.92,33.18,17.21,44.13l-2.47-21.19Z"/><path class="cls-10" d="M913,206.75s-1.92,33.18-17.21,44.13l2.47-21.19Z"/><path class="cls-4" d="M839.39,279.27H813.26s11.68,26.25,26.13,29.41c14.45-3.16,26.13-29.41,26.13-29.41Z"/><path class="cls-11" d="M839.39,260.94l-26.13,18.33s13.76,17.87,26.13,17.87c3.8,0,17.06-5.74,26.13-17.87Z"/><circle class="cls-7" cx="774.1" cy="215.03" r="11.7" transform="translate(74.68 610.36) rotate(-45)"/><circle class="cls-4" cx="904.68" cy="215.03" r="11.71" transform="translate(112.92 702.68) rotate(-45)"/><path class="cls-4" d="M852.65,283.92c18.11-6.26,36.94-15.45,45.64-32.52,6-11.8,6.23-25.59,6.35-38.83.09-9.53.17-19.23-1.27-28.6A69.71,69.71,0,0,0,900,170.62c-6-16.38-19.47-29.7-35.69-36.06a66.69,66.69,0,0,0-25-4.49L827.8,231l11.59,55.69c.29,0,.58,0,.88,0C844.52,286.62,848.64,285.3,852.65,283.92Z"/><path class="cls-7" d="M813.67,135.3c-12.14,5-23,13.45-29.69,24.75-9,15.27-9.6,33.91-9.52,51.64.07,16.15.77,34.1,11.19,47.37s28.94,22,44.8,26.17a38.53,38.53,0,0,0,9.3,1.48l-4.73-57L848.87,225l-9.12-94.93h0A70.83,70.83,0,0,0,813.67,135.3Z"/><circle class="cls-12" cx="815.86" cy="198.47" r="4.92"/><ellipse class="cls-11" cx="875.57" cy="220.5" rx="10.82" ry="5.47"/><ellipse class="cls-4" cx="805.58" cy="220.5" rx="10.82" ry="5.47"/><polygon class="cls-11" points="834.66 229.69 854.14 229.69 848.52 224.99 834.66 229.69"/><path class="cls-13" d="M877.94,123.05a26.66,26.66,0,0,1-.85,3.74A16.51,16.51,0,0,0,877.94,123.05Z"/><path class="cls-10" d="M868.51,121v.54c-1.22,2.26-12.22,22.27-26.92,33.22-5.51,4.11-11.53,6.95-17.75,7.09h37.25c4.72.1,7.45,1.82,9.45,4,3.65,3.93,4.85,9.35,11,9.35a12.63,12.63,0,0,1,8.81,3.09c4.08,3.68,4.5,9.33,4.5,9.33V215H905q0-1.68,0-3.34c0-2.75,0-5.53,0-8.3a11.64,11.64,0,0,1,6.62,2.3l1.32,1.08v0l.16.2a235.63,235.63,0,0,0,1.63-25.47C914.8,151.21,895.6,129.46,868.51,121Z"/><path class="cls-9" d="M851.66,116a120.15,120.15,0,0,0-12.52,0c-2.2.12-4.4.28-6.6.52A89.61,89.61,0,0,0,823,118c-.29.06-.94.31-1.59.53l-1.68.31h0a81.75,81.75,0,0,0-14.08,4c-24.44,9.5-41.31,30.39-41.27,58.74,0,6,.57,16.57,1.44,23.9,0,.41,0,.79,0,1.21l.13-.11c0,.15,0,.32.06.46.11-.11.18-.25.29-.36a11.51,11.51,0,0,1,7.15-3.29c.35,0,.7-.08,1.05-.06,0,2.77-.06,5.54,0,8.28q0,1.66,0,3.34h10.22V187.56a16.53,16.53,0,0,1,1.8-5.83l2.13-2.92.05-.07c2-2,5-3.05,9.34-3.6s6.09-5.45,9.92-9.14a14.63,14.63,0,0,1,10.5-4.17s23.37.09,26.71,0c33.13-.75,46-23.32,51-35.71,1.11-2.75,1.83-5,2.29-6.41a26.66,26.66,0,0,0,.85-3.74Z"/><path class="cls-14" d="M894.78,215c0,19.32-35.29,19.85-50.67,19.17h-8.73c-15.38.69-50.67.16-50.67-19.17H774.49c.18,15.25,1.46,31.66,11.16,44,10.35,13.18,28.94,22,44.8,26.17a29.86,29.86,0,0,0,18.6,0c15.86-4.2,34.45-13,44.8-26.17,9.7-12.36,11-28.78,11.16-44H894.78Z"/><path class="cls-15" d="M839.39,271.94a30.13,30.13,0,0,0,30.13-30.13H809.26A30.13,30.13,0,0,0,839.39,271.94Z"/><circle class="cls-11" cx="818.25" cy="213.86" r="1.46"/><circle class="cls-11" cx="806.42" cy="209.13" r="1.46"/><circle class="cls-11" cx="827.72" cy="209.13" r="1.46"/><circle class="cls-11" cx="808.79" cy="216.23" r="1.46"/><circle class="cls-11" cx="801.68" cy="220.96" r="1.46"/><circle class="cls-11" cx="822.99" cy="220.96" r="1.46"/><circle class="cls-16" cx="866.15" cy="213.86" r="1.46"/><circle class="cls-16" cx="877.98" cy="209.13" r="1.46"/><circle class="cls-16" cx="856.68" cy="209.13" r="1.46"/><circle class="cls-16" cx="875.62" cy="216.23" r="1.46"/><circle class="cls-16" cx="882.72" cy="220.96" r="1.46"/><circle class="cls-16" cx="861.41" cy="220.96" r="1.46"/><path class="cls-17" d="M765.71,445.89s-21.84,98.42,28.16,185.23h18.68S726.9,478.93,839,478.93v-33Z"/><path class="cls-18" d="M817.73,633.68a6.79,6.79,0,0,0-5.31-2.55H793.88s-11.92,5.37-18.25-1.57a9.34,9.34,0,1,0-7.3,15.17h44.09a6.8,6.8,0,0,0,5.31-11Z"/><path class="cls-19" d="M860.2,633.68a6.79,6.79,0,0,1,5.31-2.55h18.54s11.92,5.37,18.25-1.57a9.34,9.34,0,1,1,7.3,15.17H865.51a6.8,6.8,0,0,1-5.31-11Z"/><path class="cls-5" d="M888.92,91.66H790.57a16.27,16.27,0,0,0-16.27,16.27v32H905.19v-32A16.27,16.27,0,0,0,888.92,91.66Z"/><rect class="cls-20" x="774.3" y="125.33" width="130.88" height="7.67"/><path class="cls-5" d="M774.3,148.39s57.51,58.36,130.88,0Z"/><rect class="cls-21" x="774.3" y="133.05" width="130.88" height="15.34"/><circle class="cls-20" cx="839.74" cy="109.28" r="9.12"/><rect class="cls-22" x="986.99" y="126.34" width="106.05" height="58.77" transform="translate(-9.41 223.47) rotate(-12.21)"/><line class="cls-23" x1="994.41" y1="195.65" x2="1065.19" y2="133.69"/><polygon class="cls-24" points="1085.63 115.79 1041.92 164.52 981.98 138.22 1085.63 115.79"/><line class="cls-23" x1="1098.06" y1="173.23" x2="1017.67" y2="148.98"/><rect class="cls-15" x="1067.6" y="148.28" width="17.83" height="20.16" transform="translate(-9.14 231.24) rotate(-12.21)"/><rect class="cls-1" x="1070.54" y="151.61" width="11.95" height="13.52" transform="translate(-9.14 231.24) rotate(-12.21)"/><path class="cls-11" d="M1041.87,183.95h-24a1.42,1.42,0,0,0-1.4,1.11,20.56,20.56,0,0,0-.43,4.12,24,24,0,0,0,1.06,7.08c1.5,4.76,8.6,2.63,8.69-2.36h0a1.42,1.42,0,0,1,1.42-1.39h14.57v-.07h0c2.62,0,4.74-1.61,4.74-4.23S1044.49,183.95,1041.87,183.95Z"/><circle class="cls-12" cx="864.94" cy="198.47" r="4.92"/><polygon class="cls-22" points="747.44 635.38 757.65 636.22 784.71 313.86 774.49 313.02 747.44 635.38"/><rect class="cls-21" x="747.04" y="635.79" width="10.25" height="9.34" transform="translate(54.92 -59.39) rotate(4.69)"/><rect class="cls-21" x="764.4" y="294.34" width="28.68" height="28.68" rx="11.62" ry="11.62"/><path class="cls-7" d="M780.86,413.08H753.59l-6.91,20.48a26.11,26.11,0,0,0,16.68,12.3l2.36-25,14.76-.1a3.79,3.79,0,0,0,.39,0,3.84,3.84,0,1,0,0-7.69Z"/><path class="cls-13" d="M920.5,618h0Z"/><path class="cls-15" d="M922.32,617.39l-.9.3h0l-.92.3h0l-13.15,4.3,0-.06a3.65,3.65,0,0,1-4.15-4.73c0-.07,0-.11,0-.11l.05-.08a3.69,3.69,0,0,1,.79-1.27c10.24-17.21,18.24-61.22,18.24-61.22H884.15c-5,43.38-11.77,53.89-25.33,71.21-13.78,17.59-5,25-5,25H931C950.94,643.65,942.5,610.48,922.32,617.39Z"/><path class="cls-15" d="M921.42,617.69h0l-.91.3Z"/><rect class="cls-15" x="782.47" y="157.76" width="13.33" height="38.87" transform="translate(356.43 -506.11) rotate(45)"/><rect class="cls-15" x="782.47" y="157.76" width="13.33" height="38.87" transform="translate(1472.44 -255.51) rotate(135)"/><polygon class="cls-25" points="1171.48 286.1 1171.48 477.6 1149.08 464.67 1149.08 273.16 1171.48 286.1"/><polygon class="cls-26" points="1171.48 286.1 1171.48 477.6 1193.88 464.67 1193.88 273.16 1171.48 286.1"/><polygon class="cls-27" points="1139.11 347.31 1236.12 291.72 1236.12 217.28 1171 180.01 1074.58 235.68 1074.58 310.12 1139.11 347.31"/><polygon class="cls-28" points="1139.44 273.16 1236.12 217.28 1171 180.01 1074.58 235.68 1139.44 273.16"/><polygon class="cls-29" points="1139.11 347.31 1139.44 273.16 1074.58 235.68 1074.58 310.12 1139.11 347.31"/><path class="cls-20" d="M1144.77,219.51h0l21.94-12.44,4-2.32v74.64L1155.67,288v-50l-5.06,2.14a6.19,6.19,0,0,1-1.22.52h0a5.67,5.67,0,0,1-1.58.22c-4.34,0-7.86-5-7.86-11.15C1139.95,225.16,1141.94,221.19,1144.77,219.51Z"/><path class="cls-30" d="M1129.2,301.9c2.32,0,4.2,2.5,4.2,5.59s-1.88,5.59-4.2,5.59H1125V301.9Z"/><ellipse class="cls-20" cx="1125" cy="307.49" rx="4.2" ry="5.59"/><circle class="cls-31" cx="1192.05" cy="701.02" r="160.01"/><path class="cls-32" d="M1182.9,512.13c-102.92,0-186.36,83.44-186.36,186.36S1080,884.84,1182.9,884.84s186.36-83.44,186.36-186.36S1285.83,512.13,1182.9,512.13ZM1037.08,698.49A145.83,145.83,0,0,1,1269,580.76L1068.3,788.67A145.2,145.2,0,0,1,1037.08,698.49ZM1182.9,844.31a145.16,145.16,0,0,1-85.07-27.38l200.42-207.66a145.82,145.82,0,0,1-115.35,235Z"/><path class="cls-33" d="M1232.81,819.63c6-5.51,9.43-12.05,9.43-19.07,0-19.64-27.08-35.56-60.49-35.56s-60.49,15.92-60.49,35.56c0,7,3.46,13.56,9.43,19.07,10.74-7.49,29.59-12.46,51.06-12.46S1222.07,812.14,1232.81,819.63Z"/><path class="cls-3" d="M1151.5,795.54s29-15.82,62.34,0L1207.25,813h-32Z"/><path class="cls-15" d="M1232.81,819.63c-6.28-4.39-15.36-7.91-26.1-10.07V833C1217.45,830.09,1226.52,825.43,1232.81,819.63Z"/><path class="cls-15" d="M1130.69,819.63c6.64,6.13,16.39,11,27.94,13.79V809.2C1147.07,811.33,1137.33,815,1130.69,819.63Z"/><path class="cls-34" d="M1158.62,761.63v71.79a100.32,100.32,0,0,0,48.08-.47V761.63Z"/><ellipse class="cls-35" cx="1182.67" cy="769.76" rx="37.1" ry="16.76"/><path class="cls-34" d="M1257.78,651.35c.56-86.73-76-82.23-76-82.23s-76.6-4.51-76,82.23c0,0,1.13,30.41,15.77,64.2s7.89,44.49,7.89,44.49-3.38,20.28,14.36,16.9,26.75-18.74,38-18.74,20.28,15.36,38,18.74,14.36-16.9,14.36-16.9-6.76-10.7,7.88-44.49S1257.78,651.35,1257.78,651.35Z"/><path class="cls-36" d="M1219.76,776.95c17.74,3.38,14.36-16.9,14.36-16.9s-6.76-10.7,7.88-44.49,15.77-64.2,15.77-64.2c.56-86.73-76-82.23-76-82.23h0V763.63C1193,763.63,1202,773.57,1219.76,776.95Z"/><path class="cls-37" d="M1234.54,737s-3.66-37.24-31.26-59.76-11.81-107.74-11.81-107.74a66.76,66.76,0,0,0-9.73-.39v183.6h0v16.33c11.26,0,20.28,4.51,38,7.88s14.36-16.9,14.36-16.9S1230.37,754.09,1234.54,737Z"/><path class="cls-38" d="M1172,569.52s15.79,85.21-11.81,107.74S1129,737,1129,737c4.17,17.06.41,23,.41,23s-3.38,20.28,14.36,16.9,26.75-7.88,38-7.88V569.13A66.78,66.78,0,0,0,1172,569.52Z"/><path class="cls-21" d="M1166.41,726c-13.33.61-9,12.39-9,12.39,3.94-1.13,8.45,4.79,8.45,4.79,6.76,12.39,15.9,9.58,15.91,9.57V725.78C1178.38,725.7,1173.17,725.67,1166.41,726Z"/><path class="cls-39" d="M1181.75,752.73s9.15,2.82,15.9-9.57c0,0,4.51-5.91,8.45-4.79,0,0,4.32-11.78-9-12.39-6.77-.31-12-.28-15.34-.19h0v26.95Z"/><circle class="cls-39" cx="1136.27" cy="665.15" r="9.29"/><circle class="cls-39" cx="1225.25" cy="665.15" r="9.29"/><path class="cls-36" d="M1122.09,595.11c-6.53-1.92-17.3-.36-30.45,19.36-22,32.95-31.26,43.51-31.26,43.51s-25.34,15.21-15.63,53.22,38.86,61.67,38.86,61.67,20.7,22.81,28.72-7.18c4.88-18.24,4.61-45.69,3.64-64.41-9.43-27.62-10.26-49.92-10.26-49.92C1105.55,625.16,1112.42,607.3,1122.09,595.11Z"/><path class="cls-40" d="M1241.44,595.11c6.53-1.92,17.3-.36,30.45,19.36,7,10.56,14.21,21,21.74,31.25s18.52,18,23.57,29.68c4.89,11.31,4.58,24,1.58,35.8-9.72,38-38.86,61.67-38.86,61.67s-20.7,22.81-28.72-7.18c-4.88-18.24-4.61-45.69-3.64-64.41,9.43-27.62,10.26-49.92,10.26-49.92C1258,625.16,1251.11,607.3,1241.44,595.11Z"/><path class="cls-13" d="M1213.83,816.87l-6.59,3.42A51.07,51.07,0,0,0,1213.83,816.87Z"/><path class="cls-2" d="M1151.5,795.54v21.33h0s28.84,15,55.75,3.42l6.59-3.42V795.54C1185.28,813.09,1151.5,795.54,1151.5,795.54Z"/><circle class="cls-20" cx="1182.67" cy="824.67" r="15.47"/></svg>