<svg xmlns="http://www.w3.org/2000/svg" viewBox="0 0 1920 1080"><defs><style>.cls-1{isolation:isolate;}.cls-2,.cls-7{fill:#64c8c3;}.cls-3{fill:#41b9b4;}.cls-4{fill:#00a499;}.cls-5{fill:#733791;}.cls-6{fill:#efefef;}.cls-7{opacity:0.6;mix-blend-mode:multiply;}.cls-8{fill:#d8d8d8;}.cls-9{fill:#ff9141;}.cls-10{fill:#e5e5e5;}.cls-11{fill:#c6c6c6;}.cls-12{fill:#ff9a55;}.cls-13{fill:#ff6f27;}.cls-14{fill:#ff8939;}.cls-15{fill:#ffa96e;}</style></defs><title>ilustracoes_caixa_am5SVG</title><g class="cls-1"><g id="Layer_1" data-name="Layer 1"><polygon class="cls-2" points="960 256.5 469.09 539.93 469.09 610.79 960 894.21 1450.91 610.79 1450.91 539.93 960 256.5"/><polygon class="cls-3" points="960 894.21 469.09 610.79 469.09 539.93 960 823.36 960 894.21"/><polygon class="cls-4" points="960 894.21 1450.91 610.79 1450.91 539.93 960 823.36 960 894.21"/><polygon class="cls-5" points="809.6 640.95 966.22 550.44 1070.75 610.85 914.03 701.3 809.6 640.95"/><polygon class="cls-6" points="940.17 512.23 791.06 427.21 641.94 512.23 791.06 598.71 940.17 512.23"/><polygon class="cls-7" points="651.64 485.76 781.36 410.53 781.36 112.17 651.64 186.73 651.64 485.76"/><path class="cls-8" d="M641.94,169.94V513.69l149.12-86.48v-343Zm9.7,16.78,129.72-74.56V410.53L651.64,485.76Z"/><polygon class="cls-9" points="930.47 485.76 800.76 410.53 800.76 112.17 930.47 186.73 930.47 485.76"/><path class="cls-10" d="M791.06,84.23v343l149.12,86.48V169.94ZM930.47,485.76,800.76,410.53V112.17l129.72,74.56Z"/><polygon class="cls-8" points="791.06 625.87 791.06 598.71 641.94 512.23 641.94 539.78 791.06 625.87"/><polygon class="cls-11" points="791.06 625.87 791.06 598.71 940.17 512.23 940.17 539.78 791.06 625.87"/><polygon class="cls-7" points="881.68 523.84 930.47 495.55 930.47 197.19 881.68 224.81 881.68 523.84"/><path class="cls-8" d="M791.06,255V598.71l149.12-86.48v-343Zm9.7,16.78,129.72-74.56V495.55L800.76,570.78Z"/><path class="cls-11" d="M770,202.57c1.77,10.82,15.68,19.25,32.59,19.25,18.1,0,32.78-9.66,32.78-21.59l-37.37,13Z"/><path class="cls-11" d="M802.63,178.65c-13.27,0-24.68,5.19-29.84,12.66h59.69C827.31,183.84,815.89,178.65,802.63,178.65Z"/><path class="cls-11" d="M769.84,202.5l.19.07a14.45,14.45,0,0,1-.19-2.34Z"/><path class="cls-11" d="M769.84,191.31v8.93a15.6,15.6,0,0,1,2.94-8.93Z"/><path class="cls-11" d="M832.47,191.31a15.6,15.6,0,0,1,2.94,8.93v-8.93Z"/><path class="cls-11" d="M772.78,191.31a15.6,15.6,0,0,0-2.94,8.93,14.45,14.45,0,0,0,.19,2.34l28,10.69,37.37-13a15.6,15.6,0,0,0-2.94-8.93Z"/><ellipse class="cls-6" cx="802.63" cy="192.63" rx="32.78" ry="21.59"/><polygon class="cls-11" points="802.26 194.93 802.26 187.19 844.7 162.58 844.7 170.42 802.26 194.93"/><polygon class="cls-6" points="836.27 157.7 844.7 162.58 802.26 187.19 793.81 182.34 836.27 157.7"/><polygon class="cls-10" points="793.81 182.34 793.81 190.07 802.26 194.93 802.26 187.19 793.81 182.34"/><polygon class="cls-8" points="881.68 219.35 881.68 533.95 870.77 536.98 870.77 219.35 881.68 219.35"/><path class="cls-10" d="M781.36,570.78,651.64,495.55V197.19l129.72,74.56ZM641.94,169.25v343l149.12,86.48V255Z"/><polygon class="cls-7" points="752.79 401.95 728.55 441.16 728.55 378.17 693.39 365.58 728.55 315.87 701.88 307.38 728.55 284.35 701.88 284.35 722.49 238.28 724.19 238.88 651.64 197.19 651.64 495.55 781.36 570.78 781.36 452.48 762.49 485.76 752.79 401.95"/><polygon class="cls-12" points="1089.06 397.3 1087.54 442.86 1137.47 414.19 1137.47 369.71 1089.06 397.3"/><polygon class="cls-13" points="1183.6 440.85 1137.47 414.19 1099.69 435.89 1162.25 474.06 1183.6 440.85"/><polygon class="cls-12" points="1164.04 601.25 1164.04 471.81 1203.32 449.24 1203.32 578.5 1164.04 601.25"/><polygon class="cls-14" points="1164.04 601.25 1164.04 471.81 1124.76 449.24 1124.76 578.5 1164.04 601.25"/><polygon class="cls-13" points="1164.77 456.21 1164.77 500.77 1061.2 440.99 1061.2 396.51 1164.77 456.21"/><polygon class="cls-14" points="1242.1 430.17 1183.08 440.63 1137.47 414.19 1137.47 369.71 1242.1 430.17"/><polygon class="cls-13" points="1241.05 382.58 1241.05 429.49 1137.47 369.71 1137.47 322.87 1241.05 382.58"/><polygon class="cls-14" points="1164.77 456.21 1164.77 500.77 1255.42 448.64 1255.42 404.16 1164.77 456.21"/><polygon class="cls-14" points="1241.05 382.58 1241.05 429.49 1255.42 420.73 1255.42 373.89 1241.05 382.58"/><polygon class="cls-15" points="1255.42 373.89 1241.05 382.58 1137.47 322.81 1151.85 314.12 1255.42 373.89"/><polygon class="cls-15" points="1241.05 412.33 1226.1 420.91 1122.92 361.36 1137.47 352.57 1241.05 412.33"/><polygon class="cls-15" points="1179.15 447.85 1164.77 456.54 1061.2 396.78 1075.58 388.09 1179.15 447.85"/><polygon class="cls-15" points="1151.96 446.69 1166.34 455.38 1241.05 412.33 1221.87 406.63 1151.96 446.69"/><polygon class="cls-15" points="1067.67 392.63 1082.05 401.32 1152.15 361.37 1137.58 352.57 1067.67 392.63"/><polygon class="cls-11" points="1159.42 387.87 1159.42 381.23 1191.15 363.16 1191.15 369.9 1159.42 387.87"/><polygon class="cls-6" points="1183.9 358.97 1191.15 363.16 1159.42 381.23 1152.15 377.06 1183.9 358.97"/><polygon class="cls-10" points="1152.15 377.06 1152.15 383.7 1159.42 387.87 1159.42 381.23 1152.15 377.06"/><path class="cls-5" d="M1151.53,91.79V264.94l103.57,59.78V151.49Zm7.88,13.31,87.81,50.62V310.28l-87.81-50.68Z"/><polygon class="cls-7" points="1247.23 310.28 1159.42 259.6 1159.42 105.09 1247.23 155.71 1247.23 310.28"/></g></g></svg>