<svg id="Layer_1" data-name="Layer 1" xmlns="http://www.w3.org/2000/svg" viewBox="0 0 1920 1080"><defs><style>.cls-1{fill:#4187d7;}.cls-2{fill:#005fc8;}.cls-3{fill:#0039ba;}.cls-4{fill:#ffbc00;}.cls-5{fill:#ffce00;}.cls-6{fill:#500778;}.cls-7{fill:#733791;}.cls-8{fill:#8c5fa5;}.cls-9{fill:#ff6d00;}.cls-10{fill:#ff9141;}.cls-11{fill:#64c8c3;}.cls-12{fill:#007062;}.cls-13{fill:#41b9b4;}.cls-14{fill:#025b4e;}.cls-15{fill:#00a499;}</style></defs><title>ilustracoes_caixa_am5SVG</title><polygon class="cls-1" points="960.94 257.15 469.28 539.27 469.09 610.13 959.25 894.85 1450.91 612.73 1451.09 541.87 960.94 257.15"/><polygon class="cls-2" points="960 894.21 469.09 610.79 469.09 539.93 960 823.36 960 894.21"/><polygon class="cls-3" points="960 894.21 1450.91 610.79 1450.91 539.93 960 823.36 960 894.21"/><polyline class="cls-4" points="707.69 394.5 707.58 536.21 768.85 571.59 768.85 571.74 768.98 571.66 769.11 571.74 769.11 571.59 830.38 536.21 830.26 394.5 769.17 429.86"/><polygon class="cls-5" points="707.69 394.5 768.79 429.86 769.11 571.74 707.58 536.21 707.69 394.5"/><polygon class="cls-4" points="830.26 394.5 769.17 429.86 768.85 571.74 830.38 536.21 830.26 394.5"/><polygon class="cls-6" points="945.4 647.46 945.4 391.71 1166.88 263.84 1166.88 519.59 945.4 647.46"/><polygon class="cls-7" points="1178 509.86 946.07 465.3 945.95 541.43 982.46 635.82 1178 509.86"/><polygon class="cls-8" points="1165.13 277.35 901.17 277.35 768.91 353.82 967.04 391.71 1165.13 277.35"/><polygon class="cls-9" points="1068.12 380.75 834.27 394.83 839.38 443.56 1057.48 506.21 1068.12 380.75"/><ellipse class="cls-10" cx="1063.28" cy="443.56" rx="63.06" ry="38.92" transform="translate(575.71 1487.39) rotate(-87.61)"/><polygon class="cls-7" points="967.05 391.84 768.98 353.82 768.85 429.94 967.05 620.44 967.05 391.84"/><polygon class="cls-11" points="1203.41 238.35 1178 223.63 931.73 365.82 957.14 380.53 1203.41 238.35"/><polygon class="cls-12" points="1203.41 490.19 1178 475.48 931.73 617.66 957.14 632.38 1203.41 490.19"/><polygon class="cls-13" points="931.73 650.18 957.14 664.9 957.14 380.53 931.73 365.82 931.73 650.18"/><polygon class="cls-14" points="1152.58 490.05 1178 504.77 1178 269.21 1152.58 278.57 1152.58 490.05"/><path class="cls-15" d="M1203.41,271.12V238.65l-.1.06v-.06L1178,253.26v.06L982.46,366.22v-.29l-25.32,14.62V664.9L1178,537.39v.12l25.32-14.65v-.09l.1-.06V490.25l-.1.06V271.18ZM1178,504.92,982.46,617.81V398.69L1178,285.79Z"/><polygon class="cls-7" points="901.48 277.28 813.07 226.34 680.59 302.82 768.91 353.82 901.48 277.28"/><polygon class="cls-6" points="680.68 303.1 768.97 353.84 769.11 429.94 680.51 379.18 680.68 303.1"/><polygon class="cls-5" points="1308.22 446.56 1309.55 396.17 1234.75 440.94 1236.3 382.09 1348.11 329.83 1346.96 373.23 1451.09 332.55 1308.22 446.56 1308.22 446.56"/><polygon class="cls-5" points="1108.52 672.39 1158.91 673.72 1114.13 598.93 1172.98 600.48 1225.25 712.28 1181.84 711.14 1222.53 815.27 1108.52 672.39 1108.52 672.39"/><polygon class="cls-5" points="1308.22 517.63 1309.55 568.02 1234.75 523.25 1236.3 582.1 1348.11 634.37 1346.96 590.96 1451.09 631.65 1308.22 517.63 1308.22 517.63"/></svg>