<svg id="Layer_1" data-name="Layer 1" xmlns="http://www.w3.org/2000/svg" xmlns:xlink="http://www.w3.org/1999/xlink" viewBox="0 0 1920 1080"><defs><style>.cls-1,.cls-10{fill:none;}.cls-2{fill:#733791;}.cls-3{fill:#500778;}.cls-4{fill:#400666;}.cls-5{fill:#ff9141;}.cls-6{fill:#00a499;}.cls-7{fill:#64c8c3;}.cls-8{fill:#420768;}.cls-9{fill:#ff6d00;}.cls-10{stroke:#500778;stroke-miterlimit:10;stroke-width:2px;}.cls-11{fill:#633220;}.cls-12{fill:#4c2218;}.cls-13{fill:#a97c50;}.cls-14{fill:#8b5e3c;}.cls-15{fill:#13b9b0;}.cls-16{fill:#005fc8;}.cls-17{fill:#4187d7;}.cls-18{fill:#754c29;}.cls-19{fill:#603913;}.cls-20{fill:#261b0e;}.cls-21{fill:#fff;}.cls-22{fill:#3c2415;}.cls-23{fill:#c49a6c;}.cls-24{fill:#3a2712;}.cls-25{fill:#f2a786;}.cls-26{fill:#c12121;}.cls-27{fill:#ffb692;}.cls-28{fill:#e59173;}.cls-29{fill:#a55c25;}.cls-30{fill:#8c491c;}.cls-31{fill:#ed2b2b;}.cls-32{fill:#ff4d4d;}.cls-33{clip-path:url(#clip-path);}.cls-34{fill:#ffe133;}.cls-35{fill:#e8c82d;}.cls-36{fill:#d17e65;}</style><clipPath id="clip-path"><path class="cls-1" d="M1088.78,259.23l-20.44,11.5h14.85S1073.73,292,1062,294.55c-11.7-2.56-21.16-23.81-21.16-23.81h14.5l-20.44-11.5s-51.84,173.94-34.14,249.15c77-17.31,122,.46,122.13,0C1140.74,433.18,1088.78,259.23,1088.78,259.23Z"/></clipPath></defs><title>ilustracoes_caixa_am5SVG</title><polygon class="cls-2" points="960 256.5 469.09 539.93 469.09 610.79 960 894.21 1450.91 610.79 1450.91 539.93 960 256.5"/><polygon class="cls-3" points="960 894.21 469.09 610.79 469.09 539.93 960 823.36 960 894.21"/><polygon class="cls-4" points="960 894.21 1450.91 610.79 1450.91 539.93 960 823.36 960 894.21"/><polygon class="cls-2" points="781.22 615.89 586.46 503.45 586.46 334.78 781.22 447.22 781.22 615.89"/><polygon class="cls-3" points="861.17 325.1 781.22 447.21 781.22 615.87 927.29 531.54 927.29 362.89 861.17 325.1"/><polygon class="cls-5" points="573.18 354.55 659.45 208.26 861.17 325.1 767.94 466.99 573.18 354.55"/><polygon class="cls-6" points="829.88 587.78 829.88 475.32 878.6 447.22 878.6 559.65 829.88 587.78"/><polygon class="cls-7" points="708.19 461.18 708.19 517.4 756.88 545.51 756.88 489.29 708.19 461.18"/><polygon class="cls-7" points="610.99 405.06 610.99 461.28 659.68 489.39 659.68 433.17 610.99 405.06"/><polygon class="cls-2" points="717.18 378.52 717.18 321.97 681.72 301.5 681.72 358.05 717.18 378.52"/><polygon class="cls-3" points="752.64 301.84 717.18 321.97 717.18 378.52 752.64 324.61 752.64 301.84"/><polygon class="cls-8" points="681.72 301.5 717.18 321.97 752.64 301.84 717.09 281.08 681.72 301.5"/><polygon class="cls-5" points="878.6 559.65 829.88 587.78 1113.52 754.51 1146.23 717.07 878.6 559.65"/><polygon class="cls-9" points="1097.51 814.84 1097.51 745.2 1146.23 717.07 1146.23 786.75 1097.51 814.84"/><line class="cls-10" x1="1289.96" y1="405.72" x2="1289.96" y2="115.34"/><path class="cls-11" d="M1277.33,181.75a68.35,68.35,0,1,0-14.09,113l-7.87-83Z"/><path class="cls-12" d="M1301.14,233.58a68.19,68.19,0,0,0-23.81-51.82l-22,30,7.87,83A68.35,68.35,0,0,0,1301.14,233.58Z"/><path class="cls-13" d="M1174.07,493.22s9.56,6.84,30.4,0l-12.24-10.14Z"/><path class="cls-14" d="M1259.56,493.22s9.56,6.84,30.4,0l-12.24-10.14Z"/><path class="cls-15" d="M1270.18,301.75h-.12a60.75,60.75,0,0,0-57.44,41l.29-.06A60.75,60.75,0,0,1,1270.18,301.75Z"/><path class="cls-15" d="M1272.67,301.82l.54,0Z"/><path class="cls-15" d="M1270.21,316.8c.65,0,1.29,0,1.94,0-.61,0-1.21-.05-1.82-.05Z"/><path class="cls-15" d="M1270.33,301.75h-.15c.84,0,1.67,0,2.49.06C1271.89,301.79,1271.11,301.75,1270.33,301.75Z"/><path class="cls-15" d="M1272.43,316.86h0Z"/><path class="cls-15" d="M1230.84,339.07l-17.93,3.61,0,.06,18.22-3.67a45.71,45.71,0,0,1,39.1-22.27h-.15A45.71,45.71,0,0,0,1230.84,339.07Z"/><path class="cls-15" d="M1296.34,307.6a60.43,60.43,0,0,0-23.13-5.76,60.4,60.4,0,0,1,23.08,5.87Z"/><path class="cls-16" d="M1296.3,307.7a60.4,60.4,0,0,0-23.08-5.87l-.54,0c-.83,0-1.66-.06-2.49-.06a60.75,60.75,0,0,0-57.27,40.93l17.93-3.61a45.71,45.71,0,0,1,39.22-22.27h.27c.61,0,1.22,0,1.82.05h.28a45.38,45.38,0,0,1,18,4.61Z"/><path class="cls-17" d="M1194.16,301.75a60.49,60.49,0,0,0-26,5.85l5.92,13.87a45.64,45.64,0,0,1,59.31,17.61l18.22,3.67A60.75,60.75,0,0,0,1194.16,301.75Z"/><path class="cls-14" d="M1133.42,362.49a60.72,60.72,0,0,0,33.41,54.24l4.88-14.47a45.66,45.66,0,0,1,2.36-80.8l-5.92-13.87A60.74,60.74,0,0,0,1133.42,362.49Z"/><path class="cls-11" d="M1180.36,256.53s1.36,23.44,12.15,31.17l-1.74-15Z"/><path class="cls-12" d="M1284.28,256.53s-1.36,23.44-12.15,31.17l1.74-15Z"/><path class="cls-17" d="M1232.32,311l-23.64-13.3s-23.41,83.48-28.41,127.72h52Z"/><path class="cls-16" d="M1232,311l23.64-13.3s23.41,83.48,28.41,127.72h-52Z"/><path class="cls-18" d="M1232.32,307.76h-18.46s8.25,18.54,18.46,20.77c10.21-2.23,18.46-20.77,18.46-20.77Z"/><path class="cls-19" d="M1232.32,294.81l-18.46,12.95s9.72,12.62,18.46,12.62c2.68,0,12-4.05,18.46-12.62Z"/><circle class="cls-14" cx="1186.2" cy="262.38" r="8.27" transform="translate(161.9 915.62) rotate(-45)"/><circle class="cls-18" cx="1278.43" cy="262.38" r="8.27" transform="translate(188.91 980.83) rotate(-45)"/><path class="cls-18" d="M1241.68,311c12.79-4.42,26.09-10.91,32.23-23,4.24-8.33,4.4-18.08,4.49-27.43.06-6.73.12-13.58-.9-20.2a49.23,49.23,0,0,0-2.35-9.42,44.18,44.18,0,0,0-25.21-25.47,47.11,47.11,0,0,0-17.63-3.17l-8.19,71.3,8.19,39.33c.21,0,.41,0,.62,0A29.32,29.32,0,0,0,1241.68,311Z"/><path class="cls-14" d="M1214.15,206.06c-8.57,3.51-16.27,9.5-21,17.48-6.36,10.79-6.78,24-6.73,36.47,0,11.41.54,24.09,7.9,33.46S1214.8,309,1226,312a27.21,27.21,0,0,0,6.57,1l-3.34-40.24,9.79-3.34-6.44-67.05h0A50,50,0,0,0,1214.15,206.06Z"/><circle class="cls-20" cx="1215.69" cy="250.68" r="3.48"/><circle class="cls-20" cx="1250.36" cy="250.68" r="3.48"/><ellipse class="cls-19" cx="1257.87" cy="266.25" rx="7.64" ry="3.87"/><ellipse class="cls-19" cx="1208.43" cy="266.25" rx="7.64" ry="3.87"/><polygon class="cls-19" points="1228.97 272.74 1242.73 272.74 1238.76 269.42 1228.97 272.74"/><path class="cls-18" d="M1273.24,402.26h19.26l4.88,14.47c-4.28,7.39-13.45,8.72-13.45,8.72l-2.59-17.78h-7.84l-.28,0a2.71,2.71,0,1,1,0-5.43Z"/><path class="cls-1" d="M1259.54,197.42a18.83,18.83,0,0,1-.6,2.64A11.66,11.66,0,0,0,1259.54,197.42Z"/><path class="cls-12" d="M1252.88,195.94v.38c-.86,1.6-8.63,15.73-19,23.46-3.89,2.9-8.14,4.91-12.53,5h26.31a8.69,8.69,0,0,1,6.68,2.8c2.58,2.77,3.42,6.6,7.75,6.6a8.92,8.92,0,0,1,6.22,2.18,10.87,10.87,0,0,1,3.18,6.59v19.4h7.22q0-1.19,0-2.36c0-1.94,0-3.9,0-5.87a8.22,8.22,0,0,1,4.67,1.62l.93.76v0l.11.14a166.43,166.43,0,0,0,1.15-18C1285.58,217.3,1272,201.94,1252.88,195.94Z"/><path class="cls-11" d="M1241,192.4a84.87,84.87,0,0,0-8.84,0c-1.56.08-3.11.2-4.66.37a63.29,63.29,0,0,0-6.73,1.09c-.21,0-.66.22-1.12.37l-1.19.22h0a57.74,57.74,0,0,0-9.94,2.85c-17.26,6.71-29.18,21.46-29.15,41.49,0,4.24.4,11.7,1,16.88,0,.29,0,.56,0,.85l.09-.07c0,.1,0,.22,0,.33.07-.08.13-.17.21-.25a8.13,8.13,0,0,1,5-2.32c.25,0,.5-.05.74,0,0,2,0,3.91,0,5.85q0,1.17,0,2.36h7.22V243a11.67,11.67,0,0,1,1.27-4.12l1.5-2.06,0,0c1.4-1.43,3.5-2.16,6.59-2.54s4.3-3.85,7-6.46a10.33,10.33,0,0,1,7.42-2.95s16.51.06,18.87,0c23.4-.53,32.48-16.47,36-25.23.78-1.95,1.29-3.54,1.62-4.53s2.13-12.61,2.27-13.53Z"/><path class="cls-21" d="M1232.32,302.58a21.28,21.28,0,0,0,21.28-21.28H1211A21.28,21.28,0,0,0,1232.32,302.58Z"/><path class="cls-18" d="M1296.3,307.7l-5.88,13.77a45.38,45.38,0,0,0-18-4.61,45.68,45.68,0,0,1,20.08,85.4l4.88,14.47a60.75,60.75,0,0,0-1.09-109Z"/><circle class="cls-22" cx="1217.39" cy="261.56" r="1.03"/><circle class="cls-22" cx="1209.03" cy="258.21" r="1.03"/><circle class="cls-22" cx="1224.08" cy="258.21" r="1.03"/><circle class="cls-22" cx="1210.7" cy="263.23" r="1.03"/><circle class="cls-22" cx="1205.68" cy="266.57" r="1.03"/><circle class="cls-22" cx="1220.73" cy="266.57" r="1.03"/><circle class="cls-22" cx="1251.22" cy="261.56" r="1.03"/><circle class="cls-22" cx="1259.58" cy="258.21" r="1.03"/><circle class="cls-22" cx="1244.53" cy="258.21" r="1.03"/><circle class="cls-22" cx="1257.9" cy="263.23" r="1.03"/><circle class="cls-22" cx="1262.92" cy="266.57" r="1.03"/><circle class="cls-22" cx="1247.87" cy="266.57" r="1.03"/><path class="cls-14" d="M1180.27,425.44s-15.42,69.51,19.89,130.83h13.2s-60.5-107.5,18.65-107.5V425.44Z"/><path class="cls-18" d="M1283.75,425.44s15.42,69.51-19.89,130.83h-13.2s60.5-107.5-18.65-107.5V425.44Z"/><path class="cls-11" d="M1217,558.08a4.79,4.79,0,0,0-3.75-1.8h-13.1s-8.42,3.79-12.89-1.11a6.6,6.6,0,1,0-5.15,10.72h31.14a4.8,4.8,0,0,0,3.75-7.8Z"/><path class="cls-12" d="M1247,558.08a4.79,4.79,0,0,1,3.75-1.8h13.1s8.42,3.79,12.89-1.11a6.6,6.6,0,1,1,5.15,10.72h-31.14a4.8,4.8,0,0,1-3.75-7.8Z"/><path class="cls-14" d="M1191,402.26h-19.26l-4.88,14.47c4.28,7.39,13.45,8.72,13.45,8.72l2.59-17.78h7.84l.28,0a2.71,2.71,0,1,0,0-5.43Z"/><path class="cls-23" d="M1180.27,425.44s-9.59,37.56-6.21,67.77c0,0,12.65-9.7,30.4,0,0,0-14.7-45,27.55-44.44V425.44Z"/><path class="cls-13" d="M1283.75,425.44s9.59,37.56,6.21,67.77c0,0-12.65-9.7-30.4,0,0,0,14.7-45-27.55-44.44V425.44Z"/><path class="cls-24" d="M1042.91,134.28a56.92,56.92,0,0,0-24.24,13.19c-9.68,9-15.6,21.21-18.79,33.9-2.89,11.5-3.72,23.46-3.47,35.29v86.9h15.65l2.88-12.14,2.56,12.14h44.17l.83-171.59h-.83A75.75,75.75,0,0,0,1042.91,134.28Z"/><path class="cls-25" d="M965.49,333.48a52.37,52.37,0,0,1,97.35-26.85l20.89,4.21a69.64,69.64,0,1,0-97.19,84.82l5.6-16.58A52.41,52.41,0,0,1,965.49,333.48Z"/><path class="cls-26" d="M1000.79,508.38s55.54,26.43,122.13,0l-6.09-16.68-89.05-7.24Z"/><path class="cls-27" d="M1120.64,405.66H1003.06s-17.53,79,22.6,148.66h15s-68.74-122.15,21.19-122.15S1083,554.32,1083,554.32h15C1138.16,484.64,1120.64,405.66,1120.64,405.66Z"/><path class="cls-25" d="M1003.06,405.66s-17.53,79,22.6,148.66h15s-68.74-122.15,21.19-122.15V405.66Z"/><path class="cls-28" d="M1120.64,405.66s17.53,79-22.6,148.66h-15s68.74-122.15-21.19-122.15V405.66Z"/><path class="cls-29" d="M1044.81,556.37a5.45,5.45,0,0,0-4.26-2h-14.88s-9.57,4.31-14.65-1.26a7.5,7.5,0,1,0-5.86,12.18h35.39a5.46,5.46,0,0,0,4.26-8.86Z"/><path class="cls-30" d="M1078.89,556.37a5.45,5.45,0,0,1,4.26-2H1098s9.57,4.31,14.65-1.26a7.5,7.5,0,1,1,5.86,12.18h-35.39a5.46,5.46,0,0,1-4.26-8.86Z"/><path class="cls-20" d="M1119.25,164.92a58.23,58.23,0,0,0-22.64-24.72,60.49,60.49,0,0,0-23.09-7.58,94.58,94.58,0,0,0-10.78-.68c-.36,0-.71,0-1.07,0V303.55h67v-86.9C1129,199.14,1127.14,180.81,1119.25,164.92Z"/><path class="cls-28" d="M1157.81,333.48a52.37,52.37,0,0,0-97.35-26.85l-20.89,4.21a69.64,69.64,0,1,1,97.19,84.82l-5.6-16.58A52.41,52.41,0,0,0,1157.81,333.48Z"/><path class="cls-31" d="M1121.34,405.66c-5.73-50.71-32.57-146.43-32.57-146.43l-27.1,15.25v226c31.56,0,61.24,7.87,61.24,7.87C1131.8,480.92,1121.21,405.66,1121.34,405.66Z"/><path class="cls-32" d="M1034.93,259.23s-26.84,95.71-32.57,146.43c.14,0-10.46,75.27-1.57,102.72,0,0,29.33-7.87,60.89-7.87V405.66h.35V274.48Z"/><g class="cls-33"><rect class="cls-34" x="968.51" y="247.73" width="93.37" height="4.86"/><rect class="cls-34" x="968.51" y="265.33" width="93.37" height="4.86"/><rect class="cls-34" x="968.51" y="282.93" width="93.37" height="4.86"/><rect class="cls-34" x="968.51" y="300.53" width="93.37" height="4.86"/><rect class="cls-34" x="968.51" y="318.13" width="93.37" height="4.86"/><rect class="cls-34" x="968.51" y="335.73" width="93.37" height="4.86"/><rect class="cls-34" x="968.51" y="353.33" width="93.37" height="4.86"/><rect class="cls-34" x="968.51" y="370.93" width="93.37" height="4.86"/><rect class="cls-34" x="968.51" y="388.53" width="93.37" height="4.86"/><rect class="cls-35" x="1061.88" y="247.73" width="104.7" height="4.86"/><rect class="cls-35" x="1061.88" y="265.33" width="104.7" height="4.86"/><rect class="cls-35" x="1061.88" y="282.93" width="104.7" height="4.86"/><rect class="cls-35" x="1061.88" y="300.53" width="104.7" height="4.86"/><rect class="cls-35" x="1061.88" y="318.13" width="104.7" height="4.86"/><rect class="cls-35" x="1061.88" y="335.73" width="104.7" height="4.86"/><rect class="cls-35" x="1061.88" y="353.33" width="104.7" height="4.86"/><rect class="cls-35" x="1061.88" y="370.93" width="104.7" height="4.86"/><rect class="cls-35" x="1061.88" y="388.53" width="104.7" height="4.86"/><rect class="cls-34" x="968.51" y="388.53" width="93.37" height="4.86"/><rect class="cls-34" x="968.51" y="406.13" width="93.37" height="4.86"/><rect class="cls-34" x="968.51" y="423.73" width="93.37" height="4.86"/><rect class="cls-34" x="968.51" y="441.33" width="93.37" height="4.86"/><rect class="cls-34" x="968.51" y="458.93" width="93.37" height="4.86"/><rect class="cls-34" x="968.51" y="476.53" width="93.37" height="4.86"/><rect class="cls-34" x="968.51" y="494.13" width="93.37" height="4.86"/><rect class="cls-35" x="1061.88" y="388.53" width="104.7" height="4.86"/><rect class="cls-35" x="1061.88" y="406.13" width="104.7" height="4.86"/><rect class="cls-35" x="1061.88" y="423.73" width="104.7" height="4.86"/><rect class="cls-35" x="1061.88" y="441.33" width="104.7" height="4.86"/><rect class="cls-35" x="1061.88" y="458.93" width="104.7" height="4.86"/><rect class="cls-35" x="1061.88" y="476.53" width="104.7" height="4.86"/><rect class="cls-35" x="1061.88" y="494.13" width="104.7" height="4.86"/></g><path class="cls-28" d="M1062,270.73h-21.16s9.46,21.26,21.16,23.81c11.7-2.56,21.16-23.81,21.16-23.81Z"/><path class="cls-36" d="M1062,255.89l-21.16,14.84S1052,285.2,1062,285.21c3.08,0,13.81-4.65,21.16-14.47Z"/><circle class="cls-25" cx="1009.16" cy="218.71" r="9.48" transform="translate(140.92 777.64) rotate(-45)"/><circle class="cls-28" cx="1114.9" cy="218.71" r="9.48" transform="translate(171.89 852.41) rotate(-45)"/><path class="cls-28" d="M1072.76,274.49c14.67-5.07,29.91-12.51,37-26.33,4.87-9.55,5-20.72,5.14-31.45.07-7.72.14-15.57-1-23.16a56.48,56.48,0,0,0-2.69-10.8,50.65,50.65,0,0,0-28.9-29.2,54,54,0,0,0-20.21-3.64l-9.38,81.74,9.38,45.1c.24,0,.47,0,.71,0A33.62,33.62,0,0,0,1072.76,274.49Z"/><path class="cls-25" d="M1041.2,154.15c-9.83,4-18.65,10.89-24,20-7.29,12.37-7.77,27.46-7.71,41.81.05,13.08.62,27.61,9.06,38.36s23.44,17.79,36.28,21.19a31.19,31.19,0,0,0,7.53,1.2l-3.83-46.14,11.22-3.83-7.39-76.87h0A57.36,57.36,0,0,0,1041.2,154.15Z"/><circle class="cls-20" cx="1042.97" cy="205.3" r="3.99"/><circle class="cls-20" cx="1082.71" cy="205.3" r="3.99"/><ellipse class="cls-36" cx="1091.32" cy="223.14" rx="8.76" ry="4.43"/><ellipse class="cls-36" cx="1034.64" cy="223.14" rx="8.76" ry="4.43"/><polygon class="cls-36" points="1058.19 230.58 1073.97 230.58 1069.41 226.78 1058.19 230.58"/><path class="cls-1" d="M1093.24,144.23a21.52,21.52,0,0,1-.68,3A13.36,13.36,0,0,0,1093.24,144.23Z"/><path class="cls-21" d="M1062,264.79a24.4,24.4,0,0,0,24.4-24.4h-48.8A24.4,24.4,0,0,0,1062,264.79Z"/><path class="cls-24" d="M1009.16,205.4s-.28-15.6,14.1-15.6l-6.87-8.29L1006,186Z"/><path class="cls-20" d="M1114.88,205.4s.28-15.6-14.1-15.6l6.87-8.29L1118,186Z"/><path class="cls-24" d="M1009.26,189.8H1062V140.66C1008.82,141.19,1009.26,189.8,1009.26,189.8Z"/><path class="cls-20" d="M1062.32,140.64l-.64,0V189.8h24.7l5.06-14.06,5.17,14.06h18.83S1117.51,140.3,1062.32,140.64Z"/><path class="cls-28" d="M1131.16,379.08h-22.09v6.19h9.3l3,20.38s10.51-1.52,15.42-10Z"/><circle class="cls-28" cx="1109.08" cy="382.2" r="3.11"/><path class="cls-25" d="M992.13,379.08h22.09v6.19h-9.3l-3,20.38s-10.51-1.52-15.42-10Z"/><circle class="cls-25" cx="1014.22" cy="382.2" r="3.11"/><polygon class="cls-14" points="1141.61 392.96 1149.79 394.3 1153.68 383.65 1145.37 376.19 1148.48 363.27 1141.61 361.03 1135.08 376.62 1142.69 385.98 1141.61 392.96"/><circle class="cls-31" cx="1289.96" cy="81.03" r="59.02"/><polygon class="cls-31" points="1289.96 135.76 1281.37 144.35 1289.96 144.35 1298.55 144.35 1289.96 135.76"/><path class="cls-14" d="M1148.48,363.27a52.85,52.85,0,0,1-13.4,13.35,60.31,60.31,0,0,0,6.53,16.34,70,70,0,0,0,12.07-9.3A45.35,45.35,0,0,1,1148.48,363.27Z"/></svg>