<svg id="Layer_1" data-name="Layer 1" xmlns="http://www.w3.org/2000/svg" viewBox="0 0 1920 1080"><defs><style>.cls-1{fill:#4187d7;}.cls-2{fill:#005fc8;}.cls-3{fill:#0039ba;}.cls-4{fill:#fff;}.cls-5{fill:#500778;}.cls-6{fill:#ff9141;}.cls-7{fill:#fff7ed;}.cls-8{fill:#eae0d6;}.cls-9{fill:#414042;}.cls-10{fill:#00a79d;}.cls-11{fill:#ff6341;}.cls-12{fill:none;}.cls-13{fill:#733791;}.cls-14{fill:#ffce00;}.cls-15{fill:#00a499;}.cls-16{fill:#845331;}.cls-17{fill:#ccbeb2;}.cls-18{fill:#543119;}.cls-19{fill:#2f2f30;}.cls-20{fill:#331e10;}.cls-21{fill:#41b9b4;}</style></defs><title>ilustracoes_caixa_am5SVG</title><polygon class="cls-1" points="960 256.5 469.09 539.93 469.09 610.79 960 894.21 1450.91 610.79 1450.91 539.93 960 256.5"/><polygon class="cls-2" points="960 894.21 469.09 610.79 469.09 539.93 960 823.36 960 894.21"/><polygon class="cls-3" points="960 894.21 1450.91 610.79 1450.91 539.93 960 823.36 960 894.21"/><path class="cls-3" d="M887.51,619c7.76-7.16,12.25-15.66,12.25-24.77,0-25.51-35.19-46.19-78.59-46.19s-78.59,20.68-78.59,46.19c0,9.12,4.49,17.62,12.25,24.77,13.95-9.73,38.44-16.19,66.34-16.19S873.56,609.26,887.51,619Z"/><path class="cls-4" d="M887.51,619c-13.95-9.73-38.44-16.19-66.34-16.19s-52.39,6.46-66.34,16.19c13.95,12.88,38.44,21.42,66.34,21.42S873.56,631.87,887.51,619Z"/><path class="cls-5" d="M780,587.7s37.62-20.56,81,0l-8.56,22.65h-41.6Z"/><path class="cls-4" d="M887.51,619c-8.35-5.82-20.47-10.47-34.84-13.27v30.83C867,632.85,879.16,626.7,887.51,619Z"/><path class="cls-4" d="M754.83,619c8.45,7.8,20.77,14,35.37,17.69V605.63C775.6,608.41,763.28,613.1,754.83,619Z"/><path class="cls-6" d="M790.2,559.19v77.5a130.35,130.35,0,0,0,62.47-.13V559.19Z"/><path class="cls-7" d="M932.93,292.75s-9.72-12.5-26.39,8.33-27.78,44.45-27.78,44.45H762.06s-11.11-23.62-27.78-44.45-26.39-8.33-26.39-8.33c-30.56,72.24-18.06,163.92,0,226.43S820.4,576.79,820.4,576.79s94.46,4.9,112.52-57.61a491.68,491.68,0,0,0,12.9-57.47C948.32,446.36,926.17,430.3,927,414,929.08,372.88,948.78,330.22,932.93,292.75Z"/><path class="cls-8" d="M932.93,519.18a491.68,491.68,0,0,0,12.9-57.47c2.64-16.29-18.6-33.33-17.85-50.6,1.74-40.23,20.42-81.79,4.95-118.36,0,0-9.72-12.5-26.39,8.33s-27.78,44.45-27.78,44.45H820.4V576.79S914.87,581.69,932.93,519.18Z"/><path class="cls-9" d="M932.93,292.75s-9.72-12.5-26.39,8.33-27.78,44.45-27.78,44.45H860.69s-27.07,5.16-40.29,36.12c-4.58,10.74-10,27.08.06,36.51,14.18,13.28,33.08,2.51,49.28,1.4,16.62-1.14,26.11,11.51,29.15,26.69,7.63,38.15,46.83,15.52,46.93,15.46C954.6,407.49,955,345,932.93,292.75Z"/><circle class="cls-10" cx="762.51" cy="495.58" r="11.16"/><circle class="cls-10" cx="874.49" cy="495.58" r="11.16"/><path class="cls-6" d="M721.77,451.11c24.31,3.47,29.17-5.56,34-25s10.42-41,31.26-42.37,83.35,16,77.79-38.2H762.06s-11.11-23.62-27.78-44.45-26.39-8.33-26.39-8.33c-24.76,58.53-21.25,129.82-9.42,188C698.45,480.47,697.57,447.65,721.77,451.11Z"/><path class="cls-11" d="M745.22,365.68c16.84-31.26-37.33-72.93-37.33-72.93C696,320.85,690.63,351.9,689.57,383,689.62,383.05,728.39,396.91,745.22,365.68Z"/><path class="cls-11" d="M896,365.68c15.88,29.46,51.25,18.81,55.26,17.49-1-31.09-6.38-62.1-18.22-90.19C929,296.14,879.81,335.69,896,365.68Z"/><polygon class="cls-6" points="820.4 523.22 788.14 523.22 820.4 543.65 852.67 523.22 820.4 523.22"/><polygon class="cls-11" points="820.4 523.22 820.4 543.65 852.67 523.22 820.4 523.22"/><path class="cls-12" d="M861,615.41l-8.56,4.44A66.35,66.35,0,0,0,861,615.41Z"/><path class="cls-13" d="M780,587.7v27.71h0s37.47,19.47,72.43,4.44l8.56-4.44V587.7C823.93,610.51,780,587.7,780,587.7Z"/><circle class="cls-14" cx="820.54" cy="625.55" r="20.09"/><path class="cls-3" d="M1175.9,619c7.76-7.16,12.25-15.66,12.25-24.77,0-25.51-35.19-46.19-78.59-46.19S1031,568.71,1031,594.22c0,9.12,4.49,17.62,12.25,24.77,13.95-9.73,38.44-16.19,66.34-16.19S1162,609.26,1175.9,619Z"/><path class="cls-15" d="M1070.26,587.7s37.62-20.56,81,0l-8.56,22.65h-41.6Z"/><path class="cls-4" d="M1175.9,619c-8.17-5.7-19.95-10.27-33.91-13.09v30.4C1156,632.59,1167.74,626.54,1175.9,619Z"/><path class="cls-4" d="M1043.23,619c8.63,8,21.29,14.27,36.3,17.92V605.45C1064.52,608.21,1051.85,613,1043.23,619Z"/><path class="cls-16" d="M1079.52,543.65v93.27a130.34,130.34,0,0,0,62.47-.61V543.65Z"/><ellipse class="cls-17" cx="1110.76" cy="554.21" rx="48.2" ry="21.77"/><path class="cls-16" d="M1208.34,400.38c.73-112.68-98.78-106.83-98.78-106.83s-99.51-5.85-98.78,106.83c0,0,1.46,39.51,20.49,83.41s10.24,57.8,10.24,57.8-4.39,26.34,18.66,22,34.76-24.35,49.39-24.35,26.34,20,49.39,24.35,18.66-22,18.66-22-8.78-13.9,10.24-57.8S1208.34,400.38,1208.34,400.38Z"/><path class="cls-18" d="M1159,563.55c23.05,4.39,18.66-22,18.66-22s-8.78-13.9,10.24-57.8,20.49-83.41,20.49-83.41c.73-112.68-98.78-106.83-98.78-106.83h0v252.7C1124.2,546.25,1135.91,559.16,1159,563.55Z"/><path class="cls-8" d="M1178.15,511.68s-4.76-48.38-40.61-77.65-15.34-140-15.34-140a86.74,86.74,0,0,0-12.64-.51V532.08h0V553.3c14.63,0,26.34,5.85,49.39,10.24s18.66-22,18.66-22S1172.73,533.85,1178.15,511.68Z"/><path class="cls-7" d="M1096.92,294.06s20.51,110.71-15.34,140S1041,511.68,1041,511.68c5.42,22.17.54,29.91.54,29.91s-4.39,26.34,18.66,22,34.76-10.24,49.39-10.24V293.55A86.76,86.76,0,0,0,1096.92,294.06Z"/><path class="cls-9" d="M1089.63,497.33c-17.32.79-11.71,16.1-11.71,16.1,5.12-1.46,11,6.22,11,6.22,8.78,16.09,20.66,12.44,20.66,12.44v-35C1105.19,497,1098.42,496.93,1089.63,497.33Z"/><path class="cls-19" d="M1109.56,532.08s11.88,3.66,20.66-12.44c0,0,5.85-7.68,11-6.22,0,0,5.61-15.31-11.71-16.1-8.8-.4-15.56-.37-19.93-.25h0v35Z"/><circle class="cls-19" cx="1050.49" cy="418.3" r="12.07"/><circle class="cls-19" cx="1166.08" cy="418.3" r="12.07"/><path class="cls-18" d="M1032.05,327.3c-8.49-2.5-22.48-.47-39.56,25.15C964,395.25,951.89,409,951.89,409s-32.93,19.76-20.3,69.15,50.49,80.12,50.49,80.12,26.89,29.63,37.32-9.33c6.34-23.7,6-59.36,4.73-83.67-12.25-35.89-13.33-64.86-13.33-64.86C1010.56,366.35,1019.49,343.14,1032.05,327.3Z"/><path class="cls-20" d="M1187.12,327.3c8.49-2.5,22.48-.47,39.56,25.15,9.14,13.71,18.46,27.33,28.24,40.6s24.06,23.37,30.62,38.56c6.35,14.69,6,31.23,2,46.51-12.62,49.39-50.49,80.12-50.49,80.12s-26.89,29.63-37.32-9.33c-6.34-23.7-6-59.36-4.73-83.67,12.25-35.89,13.33-64.86,13.33-64.86C1208.61,366.35,1199.68,343.14,1187.12,327.3Z"/><path class="cls-12" d="M1151.25,615.41l-8.56,4.44A66.35,66.35,0,0,0,1151.25,615.41Z"/><path class="cls-21" d="M1070.26,587.7v27.71h0s37.47,19.47,72.43,4.44l8.56-4.44V587.7C1114.15,610.51,1070.26,587.7,1070.26,587.7Z"/><circle class="cls-14" cx="1110.76" cy="625.55" r="20.09"/></svg>