<svg id="Layer_1" data-name="Layer 1" xmlns="http://www.w3.org/2000/svg" viewBox="0 0 1920 1080"><defs><style>.cls-1{fill:#3c9344;}.cls-2{fill:#ffce00;}.cls-3{fill:#ffe600;}.cls-4{fill:#ffbc00;}.cls-5{fill:#347534;}.cls-6{fill:#00652e;}.cls-7{fill:#775020;}.cls-8{fill:#99bf19;}.cls-9{fill:#733791;}.cls-10{fill:#500778;}.cls-11{fill:#ff9141;}.cls-12{fill:#00a499;}.cls-13{fill:#64c8c3;}.cls-14{fill:#420768;}.cls-15{fill:#ff6d00;}.cls-16{fill:#898d8d;}.cls-17{fill:#b9b9b9;}</style></defs><title>ilustracoes_caixa_am5SVG</title><polygon class="cls-1" points="960 256.5 469.09 539.93 469.09 610.79 960 894.21 1450.91 610.79 1450.91 539.93 960 256.5"/><path class="cls-2" d="M1198.72,176.86c.9,17.56-7.66,35.12-19.81,53.59,9.31-56.28-7.63-118.91-75.84-152q-6.57-3.19-13.77-6c6.75,25.22-9.46,56.29-25.22,90.06a222.43,222.43,0,0,0-33.32-31.07c3.53,2.68-2.18,21.62-3.26,25.09a133.15,133.15,0,0,1-11.77,26c-10.76,19-24,36.39-36,54.55C963,262.25,949.35,290.82,946,321.22c-3.13,28.62,6.52,57.69,21.92,81.55,13.2,20.44,31.32,39.27,54.48,48,2.06.78,4.09,1.63,6.08,2.58a261.62,261.62,0,0,0,74.56,7.58c31.09-1.39,66.64-9.2,95.65-32.35a134.65,134.65,0,0,0,17.11-15.31C1264.91,360.14,1291.93,249.81,1198.72,176.86Z"/><path class="cls-2" d="M1052.82,334.47c-8.11-11.71-14-23-13.06-34.67C979,347.08,996.53,418.67,1028.5,453.35a261.62,261.62,0,0,0,74.56,7.58V235.21C1057.87,256.67,1046.85,297.78,1052.82,334.47Z"/><path class="cls-3" d="M1089.29,72.4c6.75,25.22-9.46,56.29-25.22,90.06a222.43,222.43,0,0,0-33.32-31.07c3.53,2.68-2.18,21.62-3.26,25.09a133.15,133.15,0,0,1-11.77,26c-10.76,19-24,36.39-36,54.55C963,262.25,949.35,290.82,946,321.22c-3.13,28.62,6.52,57.69,21.92,81.55,13.2,20.44,31.32,39.27,54.48,48,2.06.78,4.09,1.63,6.08,2.58-32-34.67-49.53-106.27,11.26-153.55-.9,11.71,5,23,13.06,34.67-6-36.68,5.05-77.8,50.24-99.26V78.4Q1096.5,75.21,1089.29,72.4Z"/><path class="cls-4" d="M1148.73,270.08a117.14,117.14,0,0,0-21.61,20.26c-9.91-22.06-20.71-42.33-16.21-58.54-2.73,1.07-5.33,2.22-7.84,3.41V460.93c31.09-1.39,66.64-9.2,95.65-32.35C1228.44,360.59,1145.58,314.66,1148.73,270.08Z"/><path class="cls-2" d="M1198.72,176.86c.9,17.56-7.66,35.12-19.81,53.59,9.31-56.28-7.63-118.91-75.84-152V235.21c2.52-1.19,5.11-2.34,7.84-3.41-4.5,16.21,6.3,36.47,16.21,58.54a117.14,117.14,0,0,1,21.61-20.26c-3.15,44.58,79.7,90.51,50,158.5a134.65,134.65,0,0,0,17.11-15.31C1264.91,360.14,1291.93,249.81,1198.72,176.86Z"/><path class="cls-3" d="M993.51,171.82a15.09,15.09,0,0,0,3.27-6.73c4-19.58-7.8-40.15-24.17-50.06,4.41,2.67-.53,20.77-1.29,25-1.79,10-4.29,29.16,6.88,35C983.94,178,989.86,176.1,993.51,171.82Z"/><path class="cls-2" d="M1217.23,115s-9.95,0-17.08,4.93c-10.24,7.08-21.23,21.48-17.54,34.39a15.64,15.64,0,0,0,10.91,10.93c12.3,3,19.63-10.7,18.13-21.31-1-6.82-4.9-11.2-2.26-18.39A26,26,0,0,1,1217.23,115Z"/><path class="cls-2" d="M1238.78,186.7s-7.88-18.74,9.38-34.51C1248.17,152.18,1263.18,167.18,1238.78,186.7Z"/><polygon class="cls-5" points="960 894.21 469.09 610.79 469.09 539.93 960 823.36 960 894.21"/><polygon class="cls-6" points="960 894.21 1450.91 610.79 1450.91 539.93 960 823.36 960 894.21"/><rect class="cls-7" x="598.16" y="423.62" width="11.63" height="145.59"/><circle class="cls-8" cx="603.97" cy="423.62" r="69.06"/><path class="cls-6" d="M1337,444.13a76.33,76.33,0,0,0-76.33,76.33h152.66A76.33,76.33,0,0,0,1337,444.13Z"/><path class="cls-8" d="M1291.05,487.45a42,42,0,0,0-42,42h84A42,42,0,0,0,1291.05,487.45Z"/><polygon class="cls-9" points="975.46 688.44 713.87 537.41 713.87 310.86 975.46 461.89 975.46 688.44"/><polygon class="cls-10" points="1082.85 297.85 975.46 461.87 975.46 688.42 1171.66 575.14 1171.66 348.62 1082.85 297.85"/><polygon class="cls-11" points="696.03 337.41 811.91 140.92 1082.85 297.85 957.62 488.44 696.03 337.41"/><polygon class="cls-12" points="1040.82 650.68 1040.82 499.63 1106.26 461.89 1106.26 612.9 1040.82 650.68"/><polygon class="cls-13" points="877.36 480.63 877.36 556.15 942.76 593.9 942.76 518.39 877.36 480.63"/><polygon class="cls-13" points="746.81 405.25 746.81 480.77 812.21 518.53 812.21 443.01 746.81 405.25"/><polygon class="cls-9" points="889.44 369.61 889.44 293.66 841.81 266.16 841.81 342.11 889.44 369.61"/><polygon class="cls-10" points="937.07 266.62 889.44 293.66 889.44 369.61 937.07 297.2 937.07 266.62"/><polygon class="cls-14" points="841.81 266.16 889.44 293.66 937.07 266.62 889.32 238.73 841.81 266.16"/><polygon class="cls-11" points="1106.26 612.9 1040.82 650.68 1171.66 726.2 1215.59 675.92 1106.26 612.9"/><polygon class="cls-15" points="1150.16 784.51 1150.16 713.7 1215.59 675.92 1215.59 746.77 1150.16 784.51"/><polygon class="cls-2" points="600.78 276.68 637.75 276.68 603.48 222.71 646.65 222.71 687.13 303.66 655.29 303.66 687.13 379.21 600.78 276.68 600.78 276.68"/><path class="cls-16" d="M812.24,199.18a21.16,21.16,0,0,0-15,6.22V189.1a33.15,33.15,0,0,0-55.52-24.47A53.36,53.36,0,0,0,689,102.56c-.64,0-1.28,0-1.91,0a53.37,53.37,0,0,0-51.47,53.33v33a33.15,33.15,0,0,0-62.23,13.6A21.22,21.22,0,1,0,562,241.62H812.24a21.22,21.22,0,1,0,0-42.45Z"/><path class="cls-16" d="M812.24,199.18a21.16,21.16,0,0,0-15,6.22V189.1a33.15,33.15,0,0,0-55.52-24.47A53.36,53.36,0,0,0,689,102.56c-.64,0-1.28,0-1.91,0v139H812.24a21.22,21.22,0,0,0,0-42.45Z"/><path class="cls-17" d="M635.66,155.94v33a33.15,33.15,0,0,0-62.23,13.6A21.22,21.22,0,1,0,562,241.62H687.13v-139A53.37,53.37,0,0,0,635.66,155.94Z"/></svg>