<svg id="Layer_1" data-name="Layer 1" xmlns="http://www.w3.org/2000/svg" viewBox="0 0 1920 1080"><defs><style>.cls-1{fill:#ff9141;}.cls-2{fill:#ff6d00;}.cls-3{fill:#e65a00;}.cls-4{fill:#727375;}.cls-5{fill:#58595b;}.cls-6{fill:#6d6e71;}.cls-7{fill:#808285;}</style></defs><title>ilustracoes_caixa_am5SVG</title><polygon class="cls-1" points="960 256.5 469.09 539.93 469.09 610.79 960 894.21 1450.91 610.79 1450.91 539.93 960 256.5"/><polygon class="cls-2" points="960 894.21 469.09 610.79 469.09 539.93 960 823.36 960 894.21"/><polygon class="cls-3" points="960 894.21 1450.91 610.79 1450.91 539.93 960 823.36 960 894.21"/><path class="cls-3" d="M1171.36,539.67v-60l-58.67.37c-38.5-17.38-92.68-28.2-152.69-28.2S845.76,462.64,807.26,480l-58.81-.39v63.75C748.45,594,843.16,635,960,635s211.55-41,211.55-91.58C1171.55,542.14,1171.48,540.9,1171.36,539.67Z"/><ellipse class="cls-2" cx="960" cy="482.47" rx="211.55" ry="91.58"/><path class="cls-3" d="M948.58,467.11a22.62,22.62,0,0,0,.52-2.92c1.48-13.68-9.66-26.11-24.89-27.76s-28.76,8.11-30.24,21.8,9.66,26.11,24.89,27.76a30,30,0,0,0,14.73-2.06l25,47.16,41.72-24L1037,486.4Z"/><path class="cls-4" d="M999.5,418.63l15-15-24.94-24.94,24.94-24.94-19.94-19.94,19.94-19.94-19.94-19.94,25.06-25.06-.31-32.16L969.59,249l0,228.75-9.69,7.69-3.32,18.46,18-10.5,39.91-39.91a16.18,16.18,0,0,0,3.92-10.54c0-5.09-1-6.48-5-10.5Z"/><path class="cls-5" d="M929.7,459l21.86,14.69,16.81-47-5-11-2-26,15.2-25-6.64-22,3.44-17,3.15-21.28,24.81-51.12,18-2.46c37.36-18.22,63.19-53.79,63.46-98,.34-58.2-45.08-108.24-103.06-113.14A112.87,112.87,0,0,0,857.09,152.15c0,50,32.53,83.91,77.58,98.72Zm40.23-313.95a35.26,35.26,0,1,1,35.26-35.26,35.24,35.24,0,0,1-35.26,35.26Zm0,0"/><path class="cls-6" d="M921.23,454.12l35.36,49.79L996.47,464a16.18,16.18,0,0,0,3.92-10.54c0-5.11-1-6.51-5-10.52L981.52,429.1l14.95-14.95-24.94-24.94,24.94-24.94-19.94-19.94,19.94-19.94-19.94-19.94,25.09-25.09-.29-28.5c37.36-18.22,63.19-53.79,63.46-98,.34-58.2-45.08-108.24-103.06-113.14C895,34.06,848.09,86.59,848.09,152.15c0,50,23.53,83.91,68.58,98.72Zm30.71-309a35.26,35.26,0,1,1,35.26-35.26,35.24,35.24,0,0,1-35.26,35.26Zm0,0"/><path class="cls-7" d="M951.57,498.94l5,5L996.47,464a16.18,16.18,0,0,0,3.92-10.54c0-5.09-1-6.48-5-10.5L981.5,429.13l15-15-24.94-24.94,24.94-24.94-19.94-19.94,19.94-19.94-19.94-19.94,25.06-25.06-.25-26.06-49.75,6.21Zm0-239.4"/><path class="cls-7" d="M916.7,75a49.37,49.37,0,1,0,69.79,0,49.36,49.36,0,0,0-69.79,0Zm59.83,59.83a35.27,35.27,0,1,1,0-49.87,35.24,35.24,0,0,1,0,49.87Zm0,0"/></svg>