<svg id="Layer_1" data-name="Layer 1" xmlns="http://www.w3.org/2000/svg" viewBox="0 0 1920 1080"><defs><style>.cls-1{fill:#4187d7;}.cls-2{fill:#005fc8;}.cls-3{fill:#0039ba;}.cls-4{fill:#733791;}.cls-5{fill:#500778;}.cls-6{fill:#00a499;}.cls-7{fill:#ff9141;}.cls-8{fill:#ff6d00;}.cls-9{fill:#64c8c3;}.cls-10{fill:#603913;}.cls-11{fill:#754c29;}.cls-12{fill:#8b5e3c;}.cls-13{fill:#545757;}.cls-14{fill:#434545;}.cls-15{fill:#636666;}.cls-16{fill:#898d8d;}</style></defs><title>ilustracoes_caixa_am5SVG</title><polygon class="cls-1" points="960 256.5 469.09 539.93 469.09 610.79 960 894.21 1450.91 610.79 1450.91 539.93 960 256.5"/><polygon class="cls-2" points="960 894.21 469.09 610.79 469.09 539.93 960 823.36 960 894.21"/><polygon class="cls-3" points="960 894.21 1450.91 610.79 1450.91 539.93 960 823.36 960 894.21"/><polygon class="cls-4" points="1184.15 570.47 922.56 419.44 922.56 192.89 1184.15 343.92 1184.15 570.47"/><polygon class="cls-5" points="1095.38 292.15 987.99 456.16 987.99 682.71 1184.19 569.44 1184.19 342.91 1095.38 292.15"/><polygon class="cls-5" points="834.03 142.47 726.64 306.49 726.64 533.04 922.84 419.76 922.84 193.24 834.03 142.47"/><polygon class="cls-6" points="1053.35 644.98 1053.35 493.92 1118.79 456.19 1118.79 607.2 1053.35 644.98"/><polygon class="cls-7" points="1118.79 607.2 1053.35 644.98 1184.19 720.49 1228.12 670.21 1118.79 607.2"/><polygon class="cls-8" points="1162.69 778.8 1162.69 707.99 1228.12 670.21 1228.12 741.07 1162.69 778.8"/><polygon class="cls-4" points="987.99 682.73 726.4 531.7 726.4 305.16 987.99 456.19 987.99 682.73"/><polygon class="cls-9" points="889.89 474.93 889.89 550.44 955.29 588.2 955.29 512.68 889.89 474.93"/><polygon class="cls-9" points="759.34 399.55 759.34 475.07 824.74 512.82 824.74 437.31 759.34 399.55"/><polygon class="cls-7" points="708.56 331.71 824.44 135.21 1095.38 292.15 970.15 482.74 708.56 331.71"/><polygon class="cls-5" points="858.76 400.45 889.63 360.84 940.37 390.29 936.59 351 989.99 352.98 954.16 306.65 974.66 269.04 932.18 271.56 920.32 231.45 876.06 270.98 851.75 232.56 833.88 297.34 781.65 316.84 846.24 349.78 858.76 400.45"/><polygon class="cls-10" points="984.08 267.01 791.81 263.61 792.07 303.69 982.76 305.98 984.08 267.01"/><polygon class="cls-11" points="999.59 268.51 823.31 345.33 840.2 381.68 1014.59 304.51 999.59 268.51"/><polygon class="cls-12" points="859.14 215.44 881.5 406.42 921.18 400.81 897.94 211.53 859.14 215.44"/><polygon class="cls-13" points="890.16 368.15 882.28 363.61 882.28 647.03 890.16 651.58 890.16 368.15"/><polygon class="cls-14" points="890.16 368.15 898.03 363.61 898.03 647.03 890.16 651.58 890.16 368.15"/><polygon class="cls-13" points="792.94 424.5 785.07 419.96 785.07 703.38 792.94 707.93 792.94 424.5"/><polygon class="cls-14" points="792.94 424.5 800.81 419.96 800.81 703.38 792.94 707.93 792.94 424.5"/><polygon class="cls-13" points="730.71 394.31 722.84 389.76 722.84 673.19 730.71 677.74 730.71 394.31"/><polygon class="cls-14" points="730.71 394.31 738.58 389.76 738.58 673.19 730.71 677.74 730.71 394.31"/><polygon class="cls-13" points="827.93 337.96 820.05 333.41 820.05 616.84 827.93 621.38 827.93 337.96"/><polygon class="cls-14" points="827.93 337.96 835.8 333.41 835.8 616.84 827.93 621.38 827.93 337.96"/><polygon class="cls-15" points="703.33 546.84 703.33 536.23 918.95 509.65 918.95 520.27 788.51 595.51 703.33 546.84"/><polygon class="cls-16" points="703.33 536.23 833.8 460.97 918.95 509.65 788.51 584.9 703.33 536.23"/><polygon class="cls-13" points="788.51 595.51 788.51 584.9 918.95 509.65 918.95 520.27 788.51 595.51"/><polygon class="cls-13" points="730.71 677.74 730.71 677.74 730.71 677.74 730.71 677.74"/><polygon class="cls-14" points="730.71 677.74 730.71 677.74 730.71 677.74 730.71 677.74"/><polygon class="cls-14" points="730.71 528.67 730.71 528.67 730.71 394.31 730.71 394.31 730.71 394.31 730.71 528.67"/><polygon class="cls-13" points="827.93 337.96 827.93 337.96 820.05 337.75 820.05 480.09 827.93 484.64 827.93 337.96"/><polygon class="cls-14" points="827.93 484.64 835.8 480.09 835.8 333.41 827.93 337.96 827.93 337.96 827.93 484.64"/><polygon class="cls-14" points="827.93 472.59 827.93 472.59 827.93 337.96 827.93 337.96 827.93 337.96 827.93 472.59"/><polygon class="cls-13" points="722.84 389.76 722.84 533.21 722.84 535.77 730.71 540.31 730.71 528.67 730.71 394.31 730.71 394.31 722.84 389.76"/><polygon class="cls-14" points="730.71 394.31 730.71 394.31 730.71 528.67 730.71 540.31 738.58 535.77 738.58 524.13 738.58 389.76 730.71 394.31"/><polygon class="cls-16" points="730.71 528.67 730.71 528.67 730.71 542.87 730.71 542.87 730.71 528.67"/><polygon class="cls-16" points="827.93 472.59 827.93 472.59 827.93 530.89 827.93 530.89 827.93 472.59"/><polygon class="cls-13" points="792.94 707.93 792.94 707.93 792.94 707.93 792.94 707.93"/><polygon class="cls-14" points="792.94 707.93 792.94 707.93 792.94 707.93 792.94 707.93"/><polygon class="cls-14" points="792.94 558.86 792.94 558.86 792.94 424.5 792.94 424.5 792.94 424.5 792.94 558.86"/><polygon class="cls-13" points="890.16 368.15 890.16 368.15 882.28 367.95 882.28 510.29 890.16 514.83 890.16 368.15"/><polygon class="cls-14" points="890.16 514.83 898.03 510.29 898.03 363.61 890.16 368.15 890.16 368.15 890.16 514.83"/><polygon class="cls-14" points="890.16 368.15 890.16 368.15 890.16 368.15 890.16 368.15"/><polygon class="cls-13" points="785.07 419.96 785.07 563.4 785.07 565.96 792.94 570.51 792.94 558.86 792.94 424.5 792.94 424.5 785.07 419.96"/><polygon class="cls-14" points="792.94 424.5 792.94 424.5 792.94 558.86 792.94 570.51 800.81 565.96 800.81 554.32 800.81 419.96 792.94 424.5"/><polygon class="cls-16" points="792.94 558.86 792.94 558.86 792.94 573.06 792.94 573.06 792.94 558.86"/><polygon class="cls-15" points="696.94 397.87 696.94 387.25 912.56 360.67 912.56 371.29 782.13 446.53 696.94 397.87"/><polygon class="cls-16" points="696.94 387.25 827.41 312 912.56 360.67 782.13 435.92 696.94 387.25"/><polygon class="cls-13" points="782.13 446.53 782.13 435.92 912.56 360.67 912.56 371.29 782.13 446.53"/></svg>