<svg xmlns="http://www.w3.org/2000/svg" viewBox="0 0 1920 1080"><defs><style>.cls-1{isolation:isolate;}.cls-2{fill:#64c8c3;}.cls-3{fill:#ff9141;}.cls-4{fill:#ff6d00;}.cls-5{fill:#4187d7;opacity:0.47;mix-blend-mode:multiply;}.cls-6{fill:#41b9b4;}.cls-7{fill:#00a499;}.cls-8{fill:#3a075b;}.cls-9{fill:#500778;}.cls-10{fill:#e6e7e8;}.cls-11{fill:#f1f2f2;}.cls-12{fill:#d1d3d4;}.cls-13{fill:#a7a9ac;}.cls-14{fill:none;stroke:#a7a9ac;stroke-miterlimit:10;}.cls-15{fill:#8c5fa5;}.cls-16{fill:#733791;}</style></defs><title>ilustracoes_caixa_am5SVG</title><g class="cls-1"><g id="Layer_1" data-name="Layer 1"><polygon class="cls-2" points="960 256.5 469.09 539.93 469.09 610.79 960 894.21 1450.91 610.79 1450.91 539.93 960 256.5"/><path class="cls-3" d="M963.22,214.2l3.42-.77a11.91,11.91,0,0,1,7-10.26,77.82,77.82,0,0,0,59.25-48.86l-.14-.1h-145v.35a77.81,77.81,0,0,0,60.63,48.87,11.92,11.92,0,0,1,6.44,9.91l3.37.86Z"/><ellipse class="cls-4" cx="960.27" cy="154.2" rx="72.51" ry="9.4"/><path class="cls-3" d="M959.84,205.71l0,1.91-5,5.72c3.64,60.61,4.18,102.22,4.18,102.22h3.61s.44-41.62,4.08-102.22Z"/><path class="cls-3" d="M960.75,305.2c-24.76,0-64.91,43-72.39,64.6A40.11,40.11,0,0,0,902.29,379c14.94,6.13,35.43,6.71,58.05,6.71s42.91-.58,57.82-6.62a39.84,39.84,0,0,0,14.75-9.87C1024.91,347.39,985.28,305.2,960.75,305.2Z"/><path class="cls-5" d="M979.56,238.42a15.25,15.25,0,0,1-2.17-28.64,99.47,99.47,0,0,0,82.35-98c0-28.28-11.82-42.73-30.77-50.11-17.86-7-42-7.64-68.69-7.64s-50.83.68-68.69,7.64c-18.95,7.38-30.77,21.83-30.77,50.11A99.48,99.48,0,0,0,945,210.12,15.27,15.27,0,0,1,943.61,238a99.47,99.47,0,0,0-82.79,98c0,27.73,11.36,42.17,29.67,49.68,18,7.37,42.59,8.07,69.79,8.07s51.58-.7,69.52-8c18.47-7.48,29.95-21.92,29.95-49.79A99.48,99.48,0,0,0,979.56,238.42Z"/><polygon class="cls-6" points="960 894.21 469.09 610.79 469.09 539.93 960 823.36 960 894.21"/><polygon class="cls-7" points="960 894.21 1450.91 610.79 1450.91 539.93 960 823.36 960 894.21"/><polygon class="cls-8" points="850.07 395.2 850.07 359.79 577.69 517.05 577.69 552.46 850.07 395.2"/><polygon class="cls-8" points="850.07 393.75 1212.83 603.39 1212.83 567.99 850.07 358.34 850.07 393.75"/><polygon class="cls-9" points="940.45 761.25 577.69 551.61 850.07 393.75 1212.83 603.99 940.45 761.25"/><polygon class="cls-10" points="664.71 551.77 937.17 709.22 1141.75 591.11 664.71 485.28 664.71 551.77"/><polygon class="cls-11" points="664.71 485.28 937.17 642.74 1141.75 524.63 870 367.55 664.71 485.28"/><polygon class="cls-12" points="1141.75 591.11 1141.75 524.63 937.17 642.74 937.17 709.22 1141.75 591.11"/><polygon class="cls-11" points="641.48 483.07 986.67 633.89 1143.05 483.45 852.35 375.66 641.48 483.07"/><polygon class="cls-10" points="664.71 471.55 937.17 629 1141.75 510.89 664.71 460.91 664.71 471.55"/><polygon class="cls-11" points="664.71 460.91 937.17 618.37 1141.75 500.25 870 343.17 664.71 460.91"/><polygon class="cls-13" points="738.32 491.72 743.89 494.45 883.44 413.88 878.35 411.41 738.32 491.72"/><polygon class="cls-13" points="960.28 541.22 965.85 543.95 1022.13 511.36 1017.05 508.89 960.28 541.22"/><polygon class="cls-13" points="970.95 547.57 976.52 550.29 1001.88 535.24 996.79 532.77 970.95 547.57"/><polygon class="cls-13" points="788.25 522.91 793.81 525.64 982.24 417.03 977.16 414.56 788.25 522.91"/><polygon class="cls-13" points="798.06 529.87 803.63 532.59 992.06 423.99 986.98 421.52 798.06 529.87"/><polygon class="cls-13" points="807.88 536.82 813.45 539.54 1001.88 430.94 996.79 428.47 807.88 536.82"/><polygon class="cls-13" points="749.95 499.7 755.51 502.43 895.06 421.86 889.98 419.39 749.95 499.7"/><polygon class="cls-13" points="760.27 507.4 765.84 510.12 905.39 429.56 900.3 427.09 760.27 507.4"/><polygon class="cls-12" points="1141.75 510.89 1141.75 500.25 937.17 618.37 937.17 629 1141.75 510.89"/><polygon class="cls-10" points="842.44 358.98 876.76 377.74 903.23 362.38 842.44 358.98"/><line class="cls-14" x1="952.99" y1="533.38" x2="1056.93" y2="473.37"/><polygon class="cls-15" points="577.69 551.61 940.45 761.25 940.45 725.84 577.69 516.2 577.69 551.61"/><polygon class="cls-16" points="1212.83 603.99 1212.83 568.59 940.45 725.84 940.45 761.25 1212.83 603.99"/></g></g></svg>