<svg id="Layer_1" data-name="Layer 1" xmlns="http://www.w3.org/2000/svg" viewBox="0 0 1920 1080"><defs><style>.cls-1{fill:#64c8c3;}.cls-2{fill:#41b9b4;}.cls-3{fill:#00a499;}.cls-4{fill:#ffce00;}.cls-5{fill:#fff;}.cls-6{fill:#8c5fa5;}.cls-7{fill:#005fc8;}.cls-8{fill:#4187d7;}.cls-9{fill:#733791;}.cls-10{fill:#ff6d00;}.cls-11{fill:#e65a00;}.cls-12{fill:#ff9141;}.cls-13{fill:#00377d;}.cls-14{fill:#b9b9b9;}.cls-15{fill:#898d8d;}.cls-16{fill:#e1e1e1;}</style></defs><title>ilustracoes_caixa_am5SVG</title><polygon class="cls-1" points="959.48 256.84 468.57 540.27 468.57 611.13 959.48 894.55 1450.38 611.13 1450.38 540.27 959.48 256.84"/><polygon class="cls-2" points="960 894.21 469.09 610.79 469.09 539.93 960 823.36 960 894.21"/><polygon class="cls-3" points="960 894.21 1450.91 610.79 1450.91 539.93 960 823.36 960 894.21"/><circle class="cls-4" cx="1221.58" cy="494.46" r="117.19"/><path class="cls-3" d="M1044.64,630.93c9.9-9.13,15.63-20,15.63-31.61,0-32.55-44.89-58.94-100.27-58.94s-100.27,26.39-100.27,58.94c0,11.63,5.74,22.48,15.63,31.61,17.8-12.42,49.05-20.66,84.64-20.66S1026.85,618.51,1044.64,630.93Z"/><path class="cls-5" d="M1044.64,630.93c-17.8-12.42-49.05-20.66-84.64-20.66s-66.85,8.24-84.64,20.66c17.8,16.43,49.05,27.33,84.64,27.33S1026.85,647.36,1044.64,630.93Z"/><path class="cls-6" d="M958.55,478H929.29V655.44A165.75,165.75,0,0,0,960,658.26a167.72,167.72,0,0,0,25.15-1.87V478Z"/><polygon class="cls-7" points="960 504.68 1021.36 469.07 1021.42 433.6 960 469.07 960 504.68"/><polygon class="cls-8" points="960 504.68 898.64 469.07 898.58 433.6 960 469.07 960 504.68"/><path class="cls-6" d="M1249.51,455.28V131.43A500.78,500.78,0,0,0,1193.66,97V455.28Z"/><path class="cls-6" d="M1193.66,759.31v3.57c0,1.48-.05,3-.11,4.42A104.16,104.16,0,0,1,1042,855.67c-2.62-1.35-5.17-2.81-7.65-4.36l-52.26,30.17a160.08,160.08,0,0,0,267.45-118.6V533.19h-55.86Z"/><ellipse class="cls-9" cx="1221.58" cy="533.19" rx="27.93" ry="9.88"/><ellipse class="cls-9" cx="1221.58" cy="455.28" rx="27.93" ry="9.88"/><polygon class="cls-10" points="960 469.14 960 300.43 837.15 229.5 837.15 398.36 960 469.14"/><polygon class="cls-11" points="1082.85 229.5 960 300.43 960 469.14 1082.85 398.22 1082.85 229.5"/><polygon class="cls-12" points="837.15 229.5 960 158.72 1082.85 229.5 960 300.43 837.15 229.5"/><polygon class="cls-13" points="989.67 350.87 1060.26 308.95 1060.29 289.61 989.67 331.43 989.67 350.87"/><polygon class="cls-13" points="989.67 381.37 1060.26 339.45 1060.29 320.11 989.67 361.93 989.67 381.37"/><polygon class="cls-13" points="989.67 411.87 1060.26 369.95 1060.29 350.61 989.67 392.43 989.67 411.87"/><polygon class="cls-14" points="916.5 241.31 916.5 113.3 951.93 133.72 951.93 261.93 916.5 241.31"/><polygon class="cls-15" points="959.4 129.41 959.4 257.46 951.93 261.93 951.93 133.72 959.4 129.41"/><polygon class="cls-16" points="916.5 113.3 951.93 133.72 959.4 129.41 923.97 109.12 916.5 113.3"/><polygon class="cls-14" points="974.62 207.94 974.62 79.93 1010.05 100.35 1010.05 228.56 974.62 207.94"/><polygon class="cls-15" points="1017.52 96.04 1017.52 224.09 1010.05 228.56 1010.05 100.35 1017.52 96.04"/><polygon class="cls-16" points="974.62 79.93 1010.05 100.35 1017.52 96.04 982.09 75.75 974.62 79.93"/><polygon class="cls-4" points="592.01 357.54 687.08 357.54 598.95 218.75 709.98 218.75 814.07 426.93 732.19 426.93 814.07 621.23 592.01 357.54 592.01 357.54"/></svg>