<svg id="Layer_1" data-name="Layer 1" xmlns="http://www.w3.org/2000/svg" viewBox="0 0 1920 1080"><defs><style>.cls-1{fill:#3c9344;}.cls-2{fill:#347534;}.cls-3{fill:#00652e;}.cls-4{fill:#775020;}.cls-5{fill:#99bf19;}.cls-6{fill:#ff9141;}.cls-7{fill:#ff6d00;}.cls-8{fill:#733791;}.cls-9{fill:#500778;}.cls-10{fill:#00a499;}.cls-11{fill:#64c8c3;}.cls-12{fill:#420768;}.cls-13{fill:#e1e1e1;}.cls-14{fill:#bcbcbc;}.cls-15{fill:#f19297;}.cls-16{fill:#93794b;}.cls-17{fill:#313d47;}.cls-18{fill:#0b0f11;}.cls-19{fill:#202930;}.cls-20{fill:#a4a6a9;}.cls-21{fill:#454547;}.cls-22{fill:#84878c;}.cls-23{fill:#565658;}.cls-24{opacity:0.2;}.cls-25{fill:#5c6066;}.cls-26{fill:#b5bac6;}.cls-27{fill:#8e96a5;opacity:0.66;}.cls-28{fill:#9ea5b5;}.cls-29{fill:#412517;}.cls-30{fill:#c8cbd6;}.cls-31{fill:#b8bac1;}.cls-32{fill:#331b11;}.cls-33{fill:#d82a19;opacity:0.14;}.cls-34{fill:#262626;}.cls-35{fill:#b9b9b9;}.cls-36{fill:#6d6d6d;}.cls-37{fill:#545454;}.cls-38{fill:#444;}.cls-39{fill:#5b5b5b;}.cls-40{fill:#4c4c4c;}.cls-41{fill:#353535;}</style></defs><title>ilustracoes_caixa_am5SVG</title><polygon class="cls-1" points="960 256.5 469.09 539.93 469.09 610.79 960 894.21 1450.91 610.79 1450.91 539.93 960 256.5"/><polygon class="cls-2" points="960 894.21 469.09 610.79 469.09 539.93 960 823.36 960 894.21"/><polygon class="cls-3" points="960 894.21 1450.91 610.79 1450.91 539.93 960 823.36 960 894.21"/><rect class="cls-4" x="1299.79" y="213.7" width="9.6" height="120.19" transform="translate(-27.7 317.73) rotate(-13.74)"/><circle class="cls-5" cx="1290.31" cy="215.42" r="57.01" transform="translate(-14.24 312.66) rotate(-13.74)"/><polygon class="cls-6" points="1144.09 575.34 1082.69 610.79 1205.45 681.64 1266.85 646.2 1144.09 575.34"/><polygon class="cls-7" points="1205.45 752.5 1205.45 681.64 1266.85 646.2 1266.85 717.09 1205.45 752.5"/><polygon class="cls-3" points="1021.36 646.2 775.91 504.5 960 398.22 1205.45 539.91 1021.36 646.2"/><polygon class="cls-8" points="1010.79 535.99 845.41 345.85 906.89 167.14 1072.27 357.27 1010.79 535.99"/><polygon class="cls-9" points="1201.51 257.01 1072.28 357.26 1010.8 535.98 1196.31 499.86 1257.79 321.16 1201.51 257.01"/><polygon class="cls-6" points="885.62 183.24 1030.36 59.68 1201.51 257.01 1050.99 373.38 885.62 183.24"/><polygon class="cls-10" points="1072.6 523.95 1113.59 404.78 1175.46 392.77 1134.47 511.9 1072.6 523.95"/><polygon class="cls-11" points="989.8 345.44 969.31 405.01 1010.65 452.54 1031.14 392.97 989.8 345.44"/><polygon class="cls-11" points="907.26 250.54 886.77 310.12 928.12 357.65 948.61 298.08 907.26 250.54"/><polygon class="cls-8" points="1029.45 261.13 1050.07 201.21 1019.96 166.59 999.35 226.51 1029.45 261.13"/><polygon class="cls-9" points="1094.98 192.81 1050.07 201.21 1029.45 261.13 1086.68 216.93 1094.98 192.81"/><polygon class="cls-12" points="1019.96 166.59 1050.07 201.21 1094.98 192.81 1064.88 157.85 1019.96 166.59"/><path class="cls-13" d="M748.86,119.08c1.73-5.21,3-9,3-9s6.07-11.66-8.09-16.51l-17.51-6s-1.52-2.08-17.46,2.35a104.88,104.88,0,0,0-20.17,6.13c-6.3,2.76-12.13,6.49-14.1,11.28-5,12-2.66,21.15,4.37,28.56,1.67,1.75,4.92,3.63,8.92,5.47,4.38,2,9.66,4,14.72,5.74,9.83,3.37,18.82,5.82,18.82,5.82s14.55,2.49,18.63-8.19C742.4,138.3,746.22,127,748.86,119.08Z"/><path class="cls-13" d="M702.29,177.26,687.92,231l16,5.49,13.48-35.27,2.71-10.8C710.87,187,705.43,182.13,702.29,177.26Z"/><path class="cls-13" d="M801.72,226.24a24.54,24.54,0,0,1-4.9,2.25l-2.12,6.2a2,2,0,1,1-3.73-1.28l1.33-3.89a24.23,24.23,0,0,1-6.45,0L784,235a2,2,0,0,1-.86,1L774,260.49l14.53,5L805,235.54l2.11-6.17A19.79,19.79,0,0,1,801.72,226.24Z"/><path class="cls-13" d="M827,145.84l-78.14-26.76c-2.64,7.94-6.45,19.23-8.91,25.67-4.07,10.68-18.63,8.19-18.63,8.19s-9-2.45-18.82-5.82l-3.76,11a25.79,25.79,0,0,0,3.55,19.14c3.15,4.88,8.58,9.71,17.86,13.17l-2.71,10.8L708.21,238l15.48,5.3L742.93,198l21.79,7.46,26.41,9,3.59,1.23a21.89,21.89,0,0,0,7,10.48,19.79,19.79,0,0,0,5.42,3.13L805,235.54l-10.9,31.83,14.9,5.1,19.6-36.58,17-49.56S857.92,156.43,827,145.84Z"/><path class="cls-13" d="M794.73,215.76l-3.59-1.23-26.41-9A24.36,24.36,0,0,0,766,213.2l-2.11,6.16a2,2,0,0,0,3.73,1.28l.81-2.35a24.41,24.41,0,0,0,4.28,5.12l-1.63,4.76a2,2,0,0,0,3.73,1.28l1.21-3.53a24.46,24.46,0,0,0,5.18,2.49l.75.24-1.73,5A2,2,0,0,0,784,235l1.87-5.47a24.23,24.23,0,0,0,6.45,0L791,233.41a2,2,0,1,0,3.73,1.28l2.12-6.2a24.54,24.54,0,0,0,4.9-2.25A21.89,21.89,0,0,1,794.73,215.76Z"/><path class="cls-13" d="M727.68,103.08A2.36,2.36,0,0,1,729,98.55c.59.14,14.57,3.28,18.07-11.08a2.36,2.36,0,1,1,4.59,1.12c-4.63,19-23.59,14.6-23.78,14.55Z"/><path class="cls-13" d="M759.21,183.82a12.22,12.22,0,0,0-15.87,14.34L763,204.88a12.22,12.22,0,0,0-3.75-21.06Z"/><path class="cls-13" d="M726.49,222.35a12.2,12.2,0,0,0-10.31-16.13l-5.89,23.47c.22.09.44.19.66.27A12.24,12.24,0,0,0,726.49,222.35Z"/><path class="cls-13" d="M834.53,191.36a17.26,17.26,0,1,0-2,33.23l9.61-28.06A17.18,17.18,0,0,0,834.53,191.36Z"/><path class="cls-13" d="M787,171.58a30,30,0,0,0,39.54-25.92l-54.89-18.8A30,30,0,0,0,787,171.58Z"/><path class="cls-13" d="M739.94,144.75c.92-2.42,2-5.52,3.21-8.87a17.32,17.32,0,0,0-31.43,14.25c5.58,1.73,9.59,2.82,9.59,2.82S735.87,155.43,739.94,144.75Z"/><path class="cls-13" d="M702.6,100.87a17.24,17.24,0,0,0,.46-9.64,96.66,96.66,0,0,0-14.47,4.84c-6.3,2.76-12.13,6.49-14.1,11.28-.07.17-.12.33-.19.49a17.33,17.33,0,0,0,28.3-7Z"/><path class="cls-13" d="M688.59,96.07c-6.3,2.76-12.13,6.49-14.1,11.28-5,12-2.66,21.15,4.37,28.56,1.67,1.75,4.92,3.63,8.92,5.47C700.14,117.7,694.1,103.18,688.59,96.07Z"/><circle class="cls-13" cx="713.77" cy="107.06" r="4.11" transform="translate(381.23 747.65) rotate(-71.1)"/><path class="cls-13" d="M708,208.55a13.63,13.63,0,0,0-8.48-17.31c-.3-.1-.6-.18-.9-.26l-7,26.3A13.62,13.62,0,0,0,708,208.55Z"/><path class="cls-13" d="M778.67,248,774,260.49l12.67,4.34A13.38,13.38,0,0,0,778.67,248Z"/><path class="cls-13" d="M836.37,165.07l.31-6.29c.58,0,14.35.41,19.84-15.64l6,2c-3.67,10.72-10.52,15.57-15.62,17.74A25.76,25.76,0,0,1,836.37,165.07Z"/><path class="cls-13" d="M857.62,149.66h0c-3-1-4.89-3.64-4.15-5.81l3.69-10.78c.74-2.17,3.8-3.08,6.84-2h0c3,1,4.89,3.64,4.15,5.81l-3.69,10.78C863.72,149.79,860.66,150.7,857.62,149.66Z"/><path class="cls-13" d="M748.86,119.08c1.73-5.21,3-9,3-9s6.07-11.66-8.09-16.51l-17.51-6s-1.52-2.08-17.46,2.35a104.88,104.88,0,0,0-20.17,6.13c-6.3,2.76-12.13,6.49-14.1,11.28-5,12-2.66,21.15,4.37,28.56,1.67,1.75,4.92,3.63,8.92,5.47,4.38,2,9.66,4,14.72,5.74,9.83,3.37,18.82,5.82,18.82,5.82s14.55,2.49,18.63-8.19C742.4,138.3,746.22,127,748.86,119.08Z"/><path class="cls-14" d="M702.29,177.26,687.92,231l16,5.49,13.48-35.27,2.71-10.8C710.87,187,705.43,182.13,702.29,177.26Z"/><path class="cls-14" d="M801.72,226.24a24.54,24.54,0,0,1-4.9,2.25l-2.12,6.2a2,2,0,1,1-3.73-1.28l1.33-3.89a24.23,24.23,0,0,1-6.45,0L784,235a2,2,0,0,1-.86,1L774,260.49l14.53,5L805,235.54l2.11-6.17A19.79,19.79,0,0,1,801.72,226.24Z"/><path class="cls-13" d="M827,145.84l-78.14-26.76c-2.64,7.94-6.45,19.23-8.91,25.67-4.07,10.68-18.63,8.19-18.63,8.19s-9-2.45-18.82-5.82l-3.76,11a25.79,25.79,0,0,0,3.55,19.14c3.15,4.88,8.58,9.71,17.86,13.17l-2.71,10.8L708.21,238l15.48,5.3L742.93,198l21.79,7.46,26.41,9,3.59,1.23a21.89,21.89,0,0,0,7,10.48,19.79,19.79,0,0,0,5.42,3.13L805,235.54l-10.9,31.83,14.9,5.1,19.6-36.58,17-49.56S857.92,156.43,827,145.84Z"/><path class="cls-15" d="M794.73,215.76l-3.59-1.23-26.41-9A24.36,24.36,0,0,0,766,213.2l-2.11,6.16a2,2,0,0,0,3.73,1.28l.81-2.35a24.41,24.41,0,0,0,4.28,5.12l-1.63,4.76a2,2,0,0,0,3.73,1.28l1.21-3.53a24.46,24.46,0,0,0,5.18,2.49l.75.24-1.73,5A2,2,0,0,0,784,235l1.87-5.47a24.23,24.23,0,0,0,6.45,0L791,233.41a2,2,0,1,0,3.73,1.28l2.12-6.2a24.54,24.54,0,0,0,4.9-2.25A21.89,21.89,0,0,1,794.73,215.76Z"/><path class="cls-16" d="M727.68,103.08A2.36,2.36,0,0,1,729,98.55c.59.14,14.57,3.28,18.07-11.08a2.36,2.36,0,1,1,4.59,1.12c-4.63,19-23.59,14.6-23.78,14.55Z"/><path class="cls-17" d="M759.21,183.82a12.22,12.22,0,0,0-15.87,14.34L763,204.88a12.22,12.22,0,0,0-3.75-21.06Z"/><path class="cls-17" d="M726.49,222.35a12.2,12.2,0,0,0-10.31-16.13l-5.89,23.47c.22.09.44.19.66.27A12.24,12.24,0,0,0,726.49,222.35Z"/><path class="cls-17" d="M834.53,191.36a17.26,17.26,0,1,0-2,33.23l9.61-28.06A17.18,17.18,0,0,0,834.53,191.36Z"/><path class="cls-17" d="M787,171.58a30,30,0,0,0,39.54-25.92l-54.89-18.8A30,30,0,0,0,787,171.58Z"/><path class="cls-17" d="M739.94,144.75c.92-2.42,2-5.52,3.21-8.87a17.32,17.32,0,0,0-31.43,14.25c5.58,1.73,9.59,2.82,9.59,2.82S735.87,155.43,739.94,144.75Z"/><path class="cls-17" d="M702.6,100.87a17.24,17.24,0,0,0,.46-9.64,96.66,96.66,0,0,0-14.47,4.84c-6.3,2.76-12.13,6.49-14.1,11.28-.07.17-.12.33-.19.49a17.33,17.33,0,0,0,28.3-7Z"/><path class="cls-15" d="M688.59,96.07c-6.3,2.76-12.13,6.49-14.1,11.28-5,12-2.66,21.15,4.37,28.56,1.67,1.75,4.92,3.63,8.92,5.47C700.14,117.7,694.1,103.18,688.59,96.07Z"/><circle class="cls-18" cx="713.77" cy="107.06" r="4.11" transform="translate(381.23 747.65) rotate(-71.1)"/><path class="cls-19" d="M708,208.55a13.63,13.63,0,0,0-8.48-17.31c-.3-.1-.6-.18-.9-.26l-7,26.3A13.62,13.62,0,0,0,708,208.55Z"/><path class="cls-19" d="M778.67,248,774,260.49l12.67,4.34A13.38,13.38,0,0,0,778.67,248Z"/><path class="cls-13" d="M836.37,165.07l.31-6.29c.58,0,14.35.41,19.84-15.64l6,2c-3.67,10.72-10.52,15.57-15.62,17.74A25.76,25.76,0,0,1,836.37,165.07Z"/><path class="cls-17" d="M857.62,149.66h0c-3-1-4.89-3.64-4.15-5.81l3.69-10.78c.74-2.17,3.8-3.08,6.84-2h0c3,1,4.89,3.64,4.15,5.81l-3.69,10.78C863.72,149.79,860.66,150.7,857.62,149.66Z"/><path class="cls-20" d="M862.28,461.72s-5,7.24-.26,7.47c0,0,5.46-.44,5.2,2,0,.3-1.32,3.85-7.63,3,0,0-4.15.06-5.68-2.61Z"/><path class="cls-21" d="M863.42,469.15l-.16,5s4-.46,3.94-3.17C867.2,471,867.68,468.84,863.42,469.15Z"/><path class="cls-22" d="M832.19,453.44s-.8-5.44,1.74-9.09a10.06,10.06,0,0,1,7.72-6.1s15.39-.69,16.47-9.52c0,0,1.23-12.74-11.33-12C834.93,417.4,826,440,826,440s-4.83,12.18-1.73,18.22C824.23,458.24,830.8,457.95,832.19,453.44Z"/><path class="cls-23" d="M857.78,430.49c-3.21-4.08-9-11.36-11.22-13.86a13.56,13.56,0,0,0-7.07,3.22l12.63,15.87A10.47,10.47,0,0,0,857.78,430.49Z"/><path class="cls-23" d="M849.85,436.61c-2.65-2.77-10.18-10.62-13.46-13.79a44,44,0,0,0-3.81,4.94l10,10.32A33.88,33.88,0,0,0,849.85,436.61Z"/><path class="cls-23" d="M838.74,439.17c-2.74-1.79-6.37-4.15-9.37-6.06-.89,1.65-1.62,3.14-2.16,4.3l7.81,5.06A10.06,10.06,0,0,1,838.74,439.17Z"/><path class="cls-23" d="M833.52,445.2c-2.55-.75-5.61-1.64-8.38-2.43a47.32,47.32,0,0,0-1.19,4.66l8.34,2.42A12.57,12.57,0,0,1,833.52,445.2Z"/><path class="cls-23" d="M832.34,453.32s0-.3-.08-.8l-8.87-1.06a18.71,18.71,0,0,0,0,3.29l7.44.9A5.36,5.36,0,0,0,832.34,453.32Z"/><g class="cls-24"><path class="cls-25" d="M833.16,437.12A42.25,42.25,0,0,1,852,424.95a31.55,31.55,0,0,1,5.54-1.34c-1-3.45-3.71-7.31-10.78-6.9C834.93,417.4,826,440,826,440s-4.83,12.18-1.73,18.22a11.59,11.59,0,0,0,1.31-.16s0-.08,0-.12A30.51,30.51,0,0,1,833.16,437.12Z"/></g><path class="cls-20" d="M851.78,472.89s1.31,4.28-3.48,6.52c0,0-4.53,2.69-8,1.9,0,0,2.76,3.27,1.55,4,0,0-1.39,1.33-4.42-2.66L833.79,477S848.16,471.28,851.78,472.89Z"/><path class="cls-26" d="M826,468.35a18,18,0,0,0,8.46,9.13s7.58,4.62,19.42-6c0,0,7.62-6.39,8.36-9.8l-5.14-6Z"/><path class="cls-27" d="M844.69,462.37l3.82,1a8.18,8.18,0,0,1,3.57,1.6,2.81,2.81,0,0,1,.65,3.55,2.72,2.72,0,0,1-2.22,1,7.25,7.25,0,0,1-2.44-.57c-2.56-.95-5.14-2.19-6.82-4.34l-.68-.94Z"/><path class="cls-28" d="M842,461.76a7.33,7.33,0,0,0,10.11,3.46,2.83,2.83,0,0,0,1-.78,1.29,1.29,0,0,0,.22-1.2,1.41,1.41,0,0,0-1-.77,6.76,6.76,0,0,0-1.26-.16,7.27,7.27,0,0,1-4.54-2.17.6.6,0,0,0-.27-.2.57.57,0,0,0-.29,0,17.74,17.74,0,0,0-4.12,1.81"/><path class="cls-20" d="M854.26,452.12l-11,.67s-18.25-4.05-20.21,7.68c0,0-1.31,9.5,8,10.44,0,0,11.66-.08,11.28-9L856,456.58l1.41-.58-2.11-4.08Z"/><g class="cls-24"><path class="cls-22" d="M830.34,460.79a22.24,22.24,0,0,1,9.8-5.27,66.4,66.4,0,0,1,11.1-1.73,37,37,0,0,1,4.93-.26l-.83-1.61-1.08.2-11,.67s-18.25-4.05-20.21,7.68c0,0-.64,4.71,2.24,7.82.33-.76.72-1.5,1.12-2.21A23.67,23.67,0,0,1,830.34,460.79Z"/></g><path class="cls-20" d="M833.44,470.67s-2.74,1.27-1.59,3.27c0,0,2,4,1.09,4.73l-.78.68-10.22-14.83s1.41-1.44,2.25-1.06C824.18,463.46,834.56,469,833.44,470.67Z"/><path class="cls-20" d="M877.39,471.29a10.46,10.46,0,0,1,1.12-6.82s3.1-5,2.89-10.26a13.93,13.93,0,0,0-1.18-5.66,16.5,16.5,0,0,0-3.07-4.29,13.66,13.66,0,0,0-6.91-4.77c-5-1.63-10.66,0-10.66,0a10.46,10.46,0,0,1-6.87-.76,27.35,27.35,0,0,0,.33,19.38s.64,1.24,2,3.5a15.36,15.36,0,0,0,4.14,4.39A26.2,26.2,0,0,0,877.39,471.29Z"/><path class="cls-23" d="M872.62,471.29c.83-1.3-1.07-4.05-1.07-4.05l1.45-.34c5.67-1.82,3.59-6.82,3.59-6.82-3.05-6.15-13.39-3-15.66-2.28,1.09-1.84,6-10.85.93-15.53,0,0-4.19-3.4-7.24,1.39l-.66,1.26s-.91-2.84-2.32-2.43c-2.58,19.34,7,16.07,7,16.07l-.22-.55q.4.33.82.63c-1.16,2.79-3,10.4,13.27,12.56Z"/><ellipse class="cls-29" cx="859.01" cy="451.39" rx="1.71" ry="1.52" transform="translate(-98.21 610.69) rotate(-37.17)"/><ellipse class="cls-29" cx="866.68" cy="461.5" rx="1.71" ry="1.52" transform="translate(-102.76 617.37) rotate(-37.17)"/><path class="cls-20" d="M879.29,450.76s1.86-2,5.13,0,5.08,3.55,5.59,3.71l-3.74,4.84s-3.58,4.33-7.47,3Z"/><path class="cls-30" d="M887.72,454.89s-5.56-5.3-7.91-2.9c0,0-1.26,1.73,1.29,2.93l.56.4s-3.16,1.47-2,3.44c0,0,1.29,2.41,4.39.22C884,459,887.44,455.82,887.72,454.89Z"/><path class="cls-31" d="M887.72,454.89s-.61-.58-1.5-1.27c0,.1,0,.2,0,.3a4.34,4.34,0,0,1-2,2.67,6.64,6.64,0,0,1-3.52,1.1,2.91,2.91,0,0,1-1.24-.22,1.62,1.62,0,0,0,.18,1.28s1.29,2.41,4.39.22C884,459,887.44,455.82,887.72,454.89Z"/><path class="cls-20" d="M870.31,430.8s-7.61,1.76-9.11,7.22l-.62,1.93L872,441.83s1.72-3.54.14-6.43C872.18,435.4,870.22,432.1,870.31,430.8Z"/><path class="cls-30" d="M868.61,433.27s-6.57,3.13-5.26,5.48c0,0,1.44,1.84,3.14,1,0,0,2.47,2.71,4.08.77C870.57,440.53,872.57,437.88,868.61,433.27Z"/><path class="cls-31" d="M868.34,435.12a4.55,4.55,0,0,1,1.15-.71c-.26-.37-.55-.74-.89-1.14,0,0-6.57,3.13-5.26,5.48,0,0,1.34,1.7,2.95,1.09A6,6,0,0,1,868.34,435.12Z"/><path class="cls-32" d="M861.56,459.94a2.22,2.22,0,0,1-2.61-3.44c.75-.57,1.61,0,2.33.91S862.31,459.37,861.56,459.94Z"/><path class="cls-30" d="M852,454.34s6.63-2.32,10.37,2.13c0,0,3.66,5-.64,11.28C861.73,467.75,852.93,463.13,852,454.34Z"/><path class="cls-29" d="M861.91,460.53a2.81,2.81,0,0,1-3.3-4.36c1-.72,2,0,3,1.16S862.87,459.81,861.91,460.53Z"/><ellipse class="cls-33" cx="854.77" cy="452.15" rx="2.69" ry="3.29" transform="matrix(0.8, -0.6, 0.6, 0.8, -99.53, 608.28)"/><ellipse class="cls-33" cx="864.14" cy="464.5" rx="2.69" ry="3.29" transform="translate(-105.09 616.45) rotate(-37.17)"/><path class="cls-20" d="M852,456.35s-4.71,4.67-1.92,5.28c0,0,4.76,1.65,4,4.3,0,0-.5,2.41-4.83,1,0,0-5.39-.71-7.51-4.78C841.75,462.16,849.44,452.92,852,456.35Z"/><path class="cls-23" d="M850.47,461.78s-3.45,4-1.65,5.09c.09.06,4.14,1.6,5.27-.93C854.09,465.93,855.06,463.17,850.47,461.78Z"/><path class="cls-34" d="M759.56,284.45c-91,0-164.82,19.53-164.82,43.61a12.81,12.81,0,0,0,1.42,5.73h0l.07.11a17.51,17.51,0,0,0,1.19,2l30.85,51.93c-6.24.32-10.79,3.06-10.79,12.54,0,18.27,21.63,30.83,30.72,34.9,3.5,1.57,7.12,3,10.82,4.31l82.1,138.19a31.88,31.88,0,0,0-3.06,2.49,22.4,22.4,0,0,0-40.29,19.33,30.26,30.26,0,0,0-15.63,13.75,22.4,22.4,0,0,0-35.69,15H867.79a22.41,22.41,0,0,0-26.68-19A32.75,32.75,0,0,0,804,587.94c0-.2,0-.39,0-.58A16.15,16.15,0,0,0,781,572.76l35.12-59.19c3.24-1.16,6.41-2.43,9.49-3.81,8.44-3.78,28.5-15.44,28.5-32.39,0-8.6-4-11.22-9.63-11.6l76.31-128.6a17.51,17.51,0,0,0,2.76-4.64,12.37,12.37,0,0,0,.85-4.46C924.38,304,850.59,284.45,759.56,284.45Z"/><path class="cls-35" d="M596.15,333.8l.07.11-.06-.11Z"/><path class="cls-36" d="M597.41,335.92l-1.19-2A17.51,17.51,0,0,0,597.41,335.92Z"/><path class="cls-36" d="M920.78,337.17a17.52,17.52,0,0,0,2.76-4.64Z"/><path class="cls-37" d="M759.56,284.45c-91,0-164.82,19.53-164.82,43.61a12.81,12.81,0,0,0,1.42,5.73l.06.11,1.19,2c14,20.34,81.26,35.76,162.15,35.76,79.23,0,145.39-14.79,161.22-34.51l2.76-4.64a12.37,12.37,0,0,0,.85-4.46C924.38,304,850.59,284.45,759.56,284.45Z"/><path class="cls-37" d="M597.41,335.92,759.56,608.85V371.68C678.66,371.68,611.39,356.26,597.41,335.92Z"/><path class="cls-38" d="M759.56,371.68V608.85L920.78,337.17C905,356.88,838.79,371.68,759.56,371.68Z"/><path class="cls-39" d="M645.81,332.05l0,.08,0-.08Z"/><path class="cls-39" d="M646.69,333.53l-.83-1.4A12.19,12.19,0,0,0,646.69,333.53Z"/><path class="cls-39" d="M871.78,334.4a12.19,12.19,0,0,0,1.92-3.23Z"/><path class="cls-38" d="M759.56,297.7c-63.37,0-114.73,13.59-114.73,30.36a8.91,8.91,0,0,0,1,4l0,.08.83,1.4c9.73,14.16,56.56,24.89,112.87,24.89,55.15,0,101.21-10.3,112.22-24l1.92-3.23a8.61,8.61,0,0,0,.59-3.1C874.29,311.3,822.92,297.7,759.56,297.7Z"/><path class="cls-40" d="M699.08,330.19l0,0,0,0Z"/><path class="cls-40" d="M699.54,331l-.44-.74A6.48,6.48,0,0,0,699.54,331Z"/><path class="cls-40" d="M819.23,331.43a6.48,6.48,0,0,0,1-1.72Z"/><path class="cls-41" d="M759.56,311.92c-33.69,0-61,7.23-61,16.14a4.74,4.74,0,0,0,.53,2.12l0,0,.44.74c5.17,7.53,30.08,13.23,60,13.23,29.32,0,53.81-5.48,59.67-12.77l1-1.72a4.58,4.58,0,0,0,.32-1.65C820.56,319.15,793.25,311.92,759.56,311.92Z"/><path class="cls-41" d="M628.26,387.85l10.46,17.6c14.21,13.15,34,18.69,52.83,23.85,25.08,6.88,51.4,7.66,77.41,7.73-9.37,8.49-22.48,11.55-35.1,12.4-28,1.89-59.8-2.55-85.67-14.14-9.09-4.07-30.72-16.63-30.72-34.9C617.47,390.91,622,388.16,628.26,387.85Z"/><path class="cls-41" d="M844.08,465.74l-9.71,16.34c-13.19,12.2-31.57,17.34-49,22.13-23.28,6.39-47.7,7.1-71.83,7.17,8.7,7.88,20.86,10.72,32.57,11.51,26,1.75,55.49-2.37,79.5-13.12,8.44-3.78,28.5-15.44,28.5-32.39C854.09,468.58,849.86,466,844.08,465.74Z"/><path class="cls-41" d="M845.58,608.85a22.5,22.5,0,0,0-4.47.45A32.75,32.75,0,0,0,804,587.94c0-.2,0-.39,0-.58A16.15,16.15,0,0,0,776,576.44a31.68,31.68,0,0,0-38,3.84,22.4,22.4,0,0,0-40.29,19.33,30.26,30.26,0,0,0-15.63,13.75,22.4,22.4,0,0,0-35.69,15H867.79A22.4,22.4,0,0,0,845.58,608.85Z"/><path class="cls-3" d="M1337,444.13a76.33,76.33,0,0,0-76.33,76.33h152.66A76.33,76.33,0,0,0,1337,444.13Z"/><path class="cls-5" d="M1291.05,487.45a42,42,0,0,0-42,42h84A42,42,0,0,0,1291.05,487.45Z"/></svg>