<svg id="Layer_1" data-name="Layer 1" xmlns="http://www.w3.org/2000/svg" xmlns:xlink="http://www.w3.org/1999/xlink" viewBox="0 0 1920 1080"><defs><style>.cls-1,.cls-2{fill:none;}.cls-1{clip-rule:evenodd;}.cls-3{clip-path:url(#clip-path);}.cls-4{clip-path:url(#clip-path-2);}.cls-5{clip-path:url(#clip-path-3);}.cls-6{clip-path:url(#clip-path-4);}.cls-7{clip-path:url(#clip-path-5);}.cls-8{clip-path:url(#clip-path-6);}.cls-9{clip-path:url(#clip-path-7);}.cls-10{clip-path:url(#clip-path-8);}.cls-11{clip-path:url(#clip-path-9);}.cls-12{clip-path:url(#clip-path-10);}.cls-13{clip-path:url(#clip-path-11);}.cls-14{clip-path:url(#clip-path-12);}.cls-15{clip-path:url(#clip-path-13);}.cls-16{clip-path:url(#clip-path-14);}.cls-17{clip-path:url(#clip-path-15);}.cls-18{clip-path:url(#clip-path-16);}.cls-19{clip-path:url(#clip-path-17);}.cls-20{clip-path:url(#clip-path-18);}.cls-21{clip-path:url(#clip-path-19);}.cls-22{clip-path:url(#clip-path-20);}.cls-23{clip-path:url(#clip-path-21);}.cls-24{clip-path:url(#clip-path-22);}.cls-25{clip-path:url(#clip-path-23);}.cls-26{clip-path:url(#clip-path-24);}.cls-27{clip-path:url(#clip-path-25);}.cls-28{clip-path:url(#clip-path-26);}.cls-29{clip-path:url(#clip-path-27);}.cls-30{clip-path:url(#clip-path-28);}.cls-31{clip-path:url(#clip-path-29);}.cls-32{clip-path:url(#clip-path-30);}.cls-33{clip-path:url(#clip-path-31);}.cls-34{clip-path:url(#clip-path-32);}.cls-35{clip-path:url(#clip-path-33);}.cls-36{clip-path:url(#clip-path-34);}.cls-37{clip-path:url(#clip-path-35);}.cls-38{clip-path:url(#clip-path-36);}.cls-39{clip-path:url(#clip-path-37);}.cls-40{clip-path:url(#clip-path-38);}.cls-41{clip-path:url(#clip-path-39);}.cls-42{clip-path:url(#clip-path-40);}.cls-43{clip-path:url(#clip-path-41);}.cls-44{clip-path:url(#clip-path-42);}.cls-45{clip-path:url(#clip-path-43);}.cls-46{clip-path:url(#clip-path-44);}.cls-47{clip-path:url(#clip-path-45);}.cls-48{clip-path:url(#clip-path-46);}.cls-49{clip-path:url(#clip-path-47);}.cls-50{clip-path:url(#clip-path-48);}.cls-51{clip-path:url(#clip-path-49);}.cls-52{clip-path:url(#clip-path-50);}.cls-53{clip-path:url(#clip-path-51);}.cls-54{clip-path:url(#clip-path-52);}.cls-55{clip-path:url(#clip-path-53);}.cls-56{clip-path:url(#clip-path-54);}.cls-57{clip-path:url(#clip-path-55);}.cls-58{clip-path:url(#clip-path-56);}.cls-59{clip-path:url(#clip-path-57);}.cls-60{clip-path:url(#clip-path-58);}.cls-61{clip-path:url(#clip-path-59);}.cls-62{clip-path:url(#clip-path-60);}.cls-63{clip-path:url(#clip-path-61);}.cls-64{clip-path:url(#clip-path-62);}.cls-65{clip-path:url(#clip-path-63);}.cls-66{clip-path:url(#clip-path-64);}.cls-67{clip-path:url(#clip-path-65);}.cls-68{clip-path:url(#clip-path-66);}.cls-69{clip-path:url(#clip-path-67);}.cls-70{clip-path:url(#clip-path-68);}.cls-71{clip-path:url(#clip-path-69);}.cls-72{clip-path:url(#clip-path-70);}.cls-73{clip-path:url(#clip-path-71);}.cls-74{clip-path:url(#clip-path-72);}.cls-75{clip-path:url(#clip-path-73);}.cls-76{clip-path:url(#clip-path-74);}.cls-77{clip-path:url(#clip-path-75);}.cls-78{clip-path:url(#clip-path-76);}.cls-79{clip-path:url(#clip-path-77);}.cls-80{clip-path:url(#clip-path-78);}.cls-81{clip-path:url(#clip-path-79);}.cls-82{clip-path:url(#clip-path-80);}.cls-83{clip-path:url(#clip-path-81);}.cls-84{clip-path:url(#clip-path-82);}.cls-85{clip-path:url(#clip-path-83);}.cls-86{clip-path:url(#clip-path-84);}.cls-87{clip-path:url(#clip-path-85);}.cls-88{clip-path:url(#clip-path-86);}.cls-89{clip-path:url(#clip-path-87);}.cls-90{clip-path:url(#clip-path-88);}.cls-91{clip-path:url(#clip-path-89);}.cls-92{clip-path:url(#clip-path-90);}.cls-93{clip-path:url(#clip-path-91);}.cls-94{clip-path:url(#clip-path-92);}.cls-95{clip-path:url(#clip-path-93);}.cls-96{clip-path:url(#clip-path-94);}.cls-97{clip-path:url(#clip-path-95);}.cls-98{clip-path:url(#clip-path-96);}.cls-99{clip-path:url(#clip-path-97);}.cls-100{clip-path:url(#clip-path-98);}.cls-101{clip-path:url(#clip-path-99);}.cls-102{fill:#005fc8;}.cls-103{clip-path:url(#clip-path-100);}.cls-104{fill:#0039ba;}.cls-105{clip-path:url(#clip-path-102);}.cls-106{fill:#3c9344;}.cls-107{clip-path:url(#clip-path-104);}.cls-108{fill:#41b9b4;}.cls-109{clip-path:url(#clip-path-106);}.cls-110{fill:#00a499;}.cls-111{clip-path:url(#clip-path-108);}.cls-112{fill:#347534;}.cls-113{clip-path:url(#clip-path-110);}.cls-114{isolation:isolate;}.cls-115{clip-path:url(#clip-path-112);}.cls-116{clip-path:url(#clip-path-113);}.cls-117{fill:#00652e;}.cls-118{clip-path:url(#clip-path-115);}.cls-119{fill:#733791;}.cls-120{clip-path:url(#clip-path-117);}.cls-121{fill:#500778;}.cls-122{clip-path:url(#clip-path-119);}.cls-123{fill:#ff9141;}.cls-124{clip-path:url(#clip-path-121);}.cls-125{clip-path:url(#clip-path-123);}.cls-126{fill:#64c8c3;}.cls-127{clip-path:url(#clip-path-125);}.cls-128{clip-path:url(#clip-path-127);}.cls-129{clip-path:url(#clip-path-129);}.cls-130{clip-path:url(#clip-path-130);}.cls-131{clip-path:url(#clip-path-131);}.cls-132{clip-path:url(#clip-path-132);}.cls-133{clip-path:url(#clip-path-134);}.cls-134{fill:#420768;}.cls-135{clip-path:url(#clip-path-136);}.cls-136{clip-path:url(#clip-path-138);}.cls-137{fill:#99bf19;}.cls-138{clip-path:url(#clip-path-140);}.cls-139{clip-path:url(#clip-path-142);}.cls-140{fill:#4ca92c;}.cls-141{clip-path:url(#clip-path-144);}.cls-142{fill:#775020;}.cls-143{clip-path:url(#clip-path-146);}.cls-144{clip-path:url(#clip-path-148);}.cls-145{clip-path:url(#clip-path-150);}.cls-146{fill:#ff6d00;}.cls-147{clip-path:url(#clip-path-152);}.cls-148{fill:#2c346e;}.cls-149{clip-path:url(#clip-path-154);}.cls-150{fill:#13b9b0;}.cls-151{clip-path:url(#clip-path-156);}.cls-152{clip-path:url(#clip-path-158);}.cls-153{clip-path:url(#clip-path-160);}.cls-154{clip-path:url(#clip-path-162);}.cls-155{clip-path:url(#clip-path-164);}.cls-156{clip-path:url(#clip-path-166);}.cls-157{clip-path:url(#clip-path-168);}.cls-158{clip-path:url(#clip-path-170);}.cls-159{clip-path:url(#clip-path-172);}.cls-160{fill:#ffb692;}.cls-161{clip-path:url(#clip-path-174);}.cls-162{fill:#b5802c;}.cls-163{clip-path:url(#clip-path-176);}.cls-164{fill:#96631a;}.cls-165{clip-path:url(#clip-path-178);}.cls-166{clip-path:url(#clip-path-180);}.cls-167{clip-path:url(#clip-path-182);}.cls-168{fill:#ffa57d;}.cls-169{clip-path:url(#clip-path-184);}.cls-170{fill:#f99067;}.cls-171{clip-path:url(#clip-path-186);}.cls-172{clip-path:url(#clip-path-188);}.cls-173{clip-path:url(#clip-path-190);}.cls-174{clip-path:url(#clip-path-192);}.cls-175{clip-path:url(#clip-path-194);}.cls-176{fill:#59a352;}.cls-177{clip-path:url(#clip-path-196);}.cls-178{clip-path:url(#clip-path-198);}.cls-179{clip-path:url(#clip-path-200);}.cls-180{clip-path:url(#clip-path-202);}.cls-181{clip-path:url(#clip-path-204);}.cls-182{clip-path:url(#clip-path-206);}.cls-183{clip-path:url(#clip-path-208);}.cls-184{clip-path:url(#clip-path-210);}.cls-185{clip-path:url(#clip-path-212);}.cls-186{fill:#fff;}.cls-187{clip-path:url(#clip-path-214);}.cls-188{clip-path:url(#clip-path-216);}.cls-189{clip-path:url(#clip-path-218);}.cls-190{clip-path:url(#clip-path-220);}.cls-191{clip-path:url(#clip-path-222);}.cls-192{clip-path:url(#clip-path-224);}.cls-193{clip-path:url(#clip-path-226);}.cls-194{clip-path:url(#clip-path-228);}.cls-195{fill:#e57857;}.cls-196{clip-path:url(#clip-path-230);}.cls-197{clip-path:url(#clip-path-232);}.cls-198{clip-path:url(#clip-path-234);}.cls-199{clip-path:url(#clip-path-236);}.cls-200{clip-path:url(#clip-path-238);}.cls-201{clip-path:url(#clip-path-240);}.cls-202{fill:#2c446e;}.cls-203{clip-path:url(#clip-path-242);}.cls-204{clip-path:url(#clip-path-244);}.cls-205{fill:#a55c25;}.cls-206{clip-path:url(#clip-path-246);}.cls-207{fill:#8c491c;}.cls-208{clip-path:url(#clip-path-248);}.cls-209{clip-path:url(#clip-path-250);}.cls-210{clip-path:url(#clip-path-252);}.cls-211{clip-path:url(#clip-path-253);}.cls-212{fill:#633220;}.cls-213{clip-path:url(#clip-path-255);}.cls-214{clip-path:url(#clip-path-257);}.cls-215{clip-path:url(#clip-path-258);}.cls-216{clip-path:url(#clip-path-259);}.cls-217{fill:#4c2218;}.cls-218{clip-path:url(#clip-path-260);}.cls-219{clip-path:url(#clip-path-262);}.cls-220{fill:#2d2a2b;}.cls-221{clip-path:url(#clip-path-264);}.cls-222{fill:#231f20;}.cls-223{clip-path:url(#clip-path-266);}.cls-224{clip-path:url(#clip-path-268);}.cls-225{clip-path:url(#clip-path-270);}.cls-226{clip-path:url(#clip-path-272);}.cls-227{clip-path:url(#clip-path-274);}.cls-228{clip-path:url(#clip-path-276);}.cls-229{fill:#bf7c5e;}.cls-230{clip-path:url(#clip-path-278);}.cls-231{clip-path:url(#clip-path-280);}.cls-232{clip-path:url(#clip-path-282);}.cls-233{fill:#8a397e;}.cls-234{clip-path:url(#clip-path-284);}.cls-235{fill:#772a70;}.cls-236{clip-path:url(#clip-path-286);}.cls-237{clip-path:url(#clip-path-288);}.cls-238{clip-path:url(#clip-path-290);}.cls-239{clip-path:url(#clip-path-292);}.cls-240{clip-path:url(#clip-path-294);}.cls-241{fill:#681964;}.cls-242{clip-path:url(#clip-path-296);}.cls-243{fill:#ad6b51;}.cls-244{clip-path:url(#clip-path-298);}.cls-245{fill:#9b5942;}.cls-246{clip-path:url(#clip-path-300);}.cls-247{clip-path:url(#clip-path-302);}.cls-248{clip-path:url(#clip-path-304);}.cls-249{clip-path:url(#clip-path-306);}.cls-250{clip-path:url(#clip-path-308);}.cls-251{clip-path:url(#clip-path-310);}.cls-252{clip-path:url(#clip-path-312);}.cls-253{clip-path:url(#clip-path-314);}.cls-254{clip-path:url(#clip-path-316);}.cls-255{clip-path:url(#clip-path-318);}.cls-256{clip-path:url(#clip-path-320);}.cls-257{clip-path:url(#clip-path-322);}.cls-258{clip-path:url(#clip-path-324);}.cls-259{clip-path:url(#clip-path-326);}.cls-260{clip-path:url(#clip-path-328);}.cls-261{clip-path:url(#clip-path-330);}.cls-262{clip-path:url(#clip-path-332);}.cls-263{clip-path:url(#clip-path-334);}.cls-264{clip-path:url(#clip-path-336);}.cls-265{clip-path:url(#clip-path-338);}.cls-266{clip-path:url(#clip-path-340);}.cls-267{clip-path:url(#clip-path-342);}.cls-268{clip-path:url(#clip-path-344);}.cls-269{clip-path:url(#clip-path-346);}.cls-270{clip-path:url(#clip-path-348);}.cls-271{clip-path:url(#clip-path-350);}.cls-272{clip-path:url(#clip-path-352);}.cls-273{clip-path:url(#clip-path-354);}.cls-274{clip-path:url(#clip-path-355);}.cls-275{clip-path:url(#clip-path-356);}.cls-276{clip-path:url(#clip-path-357);}.cls-277{clip-path:url(#clip-path-358);}.cls-278{clip-path:url(#clip-path-359);}.cls-279{clip-path:url(#clip-path-360);}.cls-280{clip-path:url(#clip-path-361);}.cls-281{clip-path:url(#clip-path-362);}.cls-282{clip-path:url(#clip-path-363);}.cls-283{clip-path:url(#clip-path-364);}.cls-284{clip-path:url(#clip-path-365);}.cls-285{clip-path:url(#clip-path-366);}.cls-286{clip-path:url(#clip-path-367);}.cls-287{clip-path:url(#clip-path-368);}.cls-288{clip-path:url(#clip-path-369);}.cls-289{clip-path:url(#clip-path-370);}.cls-290{clip-path:url(#clip-path-371);}.cls-291{clip-path:url(#clip-path-372);}.cls-292{clip-path:url(#clip-path-373);}.cls-293{clip-path:url(#clip-path-374);}.cls-294{clip-path:url(#clip-path-375);}.cls-295{clip-path:url(#clip-path-376);}.cls-296{clip-path:url(#clip-path-377);}.cls-297{clip-path:url(#clip-path-378);}.cls-298{clip-path:url(#clip-path-379);}.cls-299{clip-path:url(#clip-path-380);}.cls-300{clip-path:url(#clip-path-381);}.cls-301{clip-path:url(#clip-path-382);}.cls-302{clip-path:url(#clip-path-383);}.cls-303{clip-path:url(#clip-path-384);}.cls-304{clip-path:url(#clip-path-385);}.cls-305{clip-path:url(#clip-path-386);}.cls-306{clip-path:url(#clip-path-387);}.cls-307{clip-path:url(#clip-path-388);}.cls-308{clip-path:url(#clip-path-389);}.cls-309{clip-path:url(#clip-path-390);}.cls-310{clip-path:url(#clip-path-391);}.cls-311{clip-path:url(#clip-path-392);}.cls-312{clip-path:url(#clip-path-393);}.cls-313{clip-path:url(#clip-path-394);}.cls-314{clip-path:url(#clip-path-395);}.cls-315{clip-path:url(#clip-path-396);}.cls-316{clip-path:url(#clip-path-397);}.cls-317{clip-path:url(#clip-path-398);}.cls-318{clip-path:url(#clip-path-399);}.cls-319{clip-path:url(#clip-path-400);}.cls-320{clip-path:url(#clip-path-401);}.cls-321{clip-path:url(#clip-path-402);}.cls-322{clip-path:url(#clip-path-403);}.cls-323{clip-path:url(#clip-path-404);}.cls-324{clip-path:url(#clip-path-405);}.cls-325{clip-path:url(#clip-path-406);}.cls-326{clip-path:url(#clip-path-407);}.cls-327{clip-path:url(#clip-path-408);}.cls-328{clip-path:url(#clip-path-409);}.cls-329{clip-path:url(#clip-path-410);}.cls-330{clip-path:url(#clip-path-411);}.cls-331{clip-path:url(#clip-path-412);}.cls-332{clip-path:url(#clip-path-413);}.cls-333{clip-path:url(#clip-path-414);}.cls-334{clip-path:url(#clip-path-415);}.cls-335{clip-path:url(#clip-path-416);}.cls-336{clip-path:url(#clip-path-417);}.cls-337{clip-path:url(#clip-path-418);}.cls-338{clip-path:url(#clip-path-419);}.cls-339{clip-path:url(#clip-path-420);}.cls-340{clip-path:url(#clip-path-421);}.cls-341{clip-path:url(#clip-path-422);}.cls-342{clip-path:url(#clip-path-423);}.cls-343{clip-path:url(#clip-path-424);}.cls-344{clip-path:url(#clip-path-425);}.cls-345{clip-path:url(#clip-path-426);}.cls-346{clip-path:url(#clip-path-427);}.cls-347{clip-path:url(#clip-path-428);}.cls-348{clip-path:url(#clip-path-429);}.cls-349{clip-path:url(#clip-path-430);}.cls-350{clip-path:url(#clip-path-431);}.cls-351{clip-path:url(#clip-path-432);}.cls-352{clip-path:url(#clip-path-433);}.cls-353{clip-path:url(#clip-path-434);}.cls-354{clip-path:url(#clip-path-435);}.cls-355{clip-path:url(#clip-path-436);}.cls-356{clip-path:url(#clip-path-437);}.cls-357{clip-path:url(#clip-path-438);}.cls-358{clip-path:url(#clip-path-439);}.cls-359{clip-path:url(#clip-path-440);}.cls-360{clip-path:url(#clip-path-441);}.cls-361{clip-path:url(#clip-path-442);}.cls-362{clip-path:url(#clip-path-443);}.cls-363{clip-path:url(#clip-path-444);}.cls-364{clip-path:url(#clip-path-445);}.cls-365{clip-path:url(#clip-path-446);}.cls-366{clip-path:url(#clip-path-447);}.cls-367{clip-path:url(#clip-path-448);}.cls-368{clip-path:url(#clip-path-449);}.cls-369{clip-path:url(#clip-path-450);}.cls-370{clip-path:url(#clip-path-451);}.cls-371{clip-path:url(#clip-path-452);}.cls-372{clip-path:url(#clip-path-453);}.cls-373{clip-path:url(#clip-path-454);}.cls-374{clip-path:url(#clip-path-455);}.cls-375{clip-path:url(#clip-path-456);}.cls-376{clip-path:url(#clip-path-457);}.cls-377{clip-path:url(#clip-path-458);}.cls-378{clip-path:url(#clip-path-459);}.cls-379{clip-path:url(#clip-path-460);}.cls-380{clip-path:url(#clip-path-461);}.cls-381{clip-path:url(#clip-path-462);}.cls-382{clip-path:url(#clip-path-463);}.cls-383{clip-path:url(#clip-path-464);}.cls-384{clip-path:url(#clip-path-465);}.cls-385{clip-path:url(#clip-path-466);}.cls-386{clip-path:url(#clip-path-467);}.cls-387{clip-path:url(#clip-path-468);}.cls-388{clip-path:url(#clip-path-469);}.cls-389{clip-path:url(#clip-path-470);}.cls-390{clip-path:url(#clip-path-471);}.cls-391{clip-path:url(#clip-path-472);}.cls-392{clip-path:url(#clip-path-473);}.cls-393{clip-path:url(#clip-path-474);}.cls-394{clip-path:url(#clip-path-475);}.cls-395{clip-path:url(#clip-path-476);}.cls-396{clip-path:url(#clip-path-477);}.cls-397{clip-path:url(#clip-path-478);}.cls-398{clip-path:url(#clip-path-479);}.cls-399{clip-path:url(#clip-path-480);}.cls-400{clip-path:url(#clip-path-481);}.cls-401{clip-path:url(#clip-path-482);}.cls-402{clip-path:url(#clip-path-483);}.cls-403{clip-path:url(#clip-path-484);}.cls-404{clip-path:url(#clip-path-485);}.cls-405{clip-path:url(#clip-path-486);}.cls-406{clip-path:url(#clip-path-487);}.cls-407{clip-path:url(#clip-path-488);}.cls-408{clip-path:url(#clip-path-489);}.cls-409{clip-path:url(#clip-path-490);}.cls-410{clip-path:url(#clip-path-491);}.cls-411{clip-path:url(#clip-path-492);}.cls-412{clip-path:url(#clip-path-493);}.cls-413{clip-path:url(#clip-path-494);}.cls-414{clip-path:url(#clip-path-495);}.cls-415{clip-path:url(#clip-path-496);}.cls-416{clip-path:url(#clip-path-497);}.cls-417{clip-path:url(#clip-path-498);}.cls-418{clip-path:url(#clip-path-499);}.cls-419{clip-path:url(#clip-path-500);}.cls-420{clip-path:url(#clip-path-501);}.cls-421{clip-path:url(#clip-path-502);}.cls-422{clip-path:url(#clip-path-503);}.cls-423{clip-path:url(#clip-path-504);}.cls-424{clip-path:url(#clip-path-505);}.cls-425{clip-path:url(#clip-path-506);}.cls-426{clip-path:url(#clip-path-507);}.cls-427{clip-path:url(#clip-path-508);}</style><clipPath id="clip-path"><polygon class="cls-1" points="-1875.83 540.53 -1875.83 611.53 -1383.96 895.51 -892.1 611.53 -892.1 540.53 -1383.96 256.55 -1875.83 540.53"/></clipPath><clipPath id="clip-path-2"><polygon class="cls-1" points="-1383.96 895.51 -1875.83 611.53 -1875.83 540.53 -1383.96 824.51 -1383.96 895.51"/></clipPath><clipPath id="clip-path-3"><polygon class="cls-1" points="-1138.03 895.51 -892.1 895.51 -892.1 540.53 -1383.96 540.53 -1383.96 895.51 -1138.03 895.51"/></clipPath><clipPath id="clip-path-4"><polygon class="cls-1" points="-1322.48 647.02 -1568.41 505.03 -1568.41 292.05 -1322.48 434.04 -1322.48 647.02"/></clipPath><clipPath id="clip-path-5"><polygon class="cls-1" points="-1221.52 279.82 -1322.48 434.02 -1322.48 647 -1138.03 540.51 -1138.03 327.55 -1221.52 279.82"/></clipPath><clipPath id="clip-path-6"><polygon class="cls-1" points="-1585.19 317.01 -1476.24 132.28 -1221.52 279.82 -1339.25 459 -1585.19 317.01"/></clipPath><clipPath id="clip-path-7"><polygon class="cls-1" points="-1261.03 611.53 -1261.03 469.52 -1199.51 434.04 -1199.51 576.01 -1261.03 611.53"/></clipPath><clipPath id="clip-path-8"><polygon class="cls-1" points="-1414.71 451.66 -1414.71 522.65 -1353.22 558.15 -1353.22 487.15 -1414.71 451.66"/></clipPath><clipPath id="clip-path-9"><polygon class="cls-1" points="-1537.45 380.79 -1537.45 451.79 -1475.96 487.29 -1475.96 416.29 -1537.45 380.79"/></clipPath><clipPath id="clip-path-10"><rect class="cls-2" x="-1875.83" y="67.86" width="983.74" height="827.65"/></clipPath><clipPath id="clip-path-11"><path class="cls-1" d="M-1619.26,577.31h-169.19s-25.22,113.66,32.53,213.91h21.57s-98.92-175.77,30.49-175.77,30.49,175.77,30.49,175.77h21.57c57.74-100.26,32.53-213.91,32.53-213.91"/></clipPath><clipPath id="clip-path-12"><path class="cls-1" d="M-1641.45,375.07h-.19a99.33,99.33,0,0,0-93.91,67l.47-.1a99.32,99.32,0,0,1,93.63-66.92"/></clipPath><clipPath id="clip-path-13"><path class="cls-1" d="M-1637.37,375.17c.91,0,1.82,0,2.73.07-.9,0-1.82,0-2.73-.07"/></clipPath><clipPath id="clip-path-14"><path class="cls-1" d="M-1641.4,399.69a27.82,27.82,0,0,1,3.41.25,28,28,0,0,0-3.21-.27l-.2,0"/></clipPath><clipPath id="clip-path-15"><path class="cls-1" d="M-1641.21,375.07h-.24a33.32,33.32,0,0,1,4.08.32,32.85,32.85,0,0,0-3.83-.33"/></clipPath><clipPath id="clip-path-16"><path class="cls-1" d="M-1636.83,399.8c-.46,0-.93,0-1.4,0l1.4,0"/></clipPath><clipPath id="clip-path-17"><path class="cls-1" d="M-1705.77,436.09l-29.32,5.91,0,.09,29.79-6a74.73,74.73,0,0,1,63.93-36.41h-.25a74.74,74.74,0,0,0-64.12,36.42"/></clipPath><clipPath id="clip-path-18"><path class="cls-1" d="M-1598.67,384.62a98.8,98.8,0,0,0-37.81-9.42,98.76,98.76,0,0,1,37.74,9.59Z"/></clipPath><clipPath id="clip-path-19"><path class="cls-1" d="M-1598.74,384.79a98.76,98.76,0,0,0-37.74-9.59l-.89,0c-1.35-.06-2.71-.1-4.08-.1A99.32,99.32,0,0,0-1735.09,442l29.32-5.91a74.73,74.73,0,0,1,64.12-36.42h.44c1,0,2,0,3,.09h.46a74.21,74.21,0,0,1,29.42,7.53Z"/></clipPath><clipPath id="clip-path-20"><path class="cls-1" d="M-1765.74,375.07a98.91,98.91,0,0,0-42.54,9.56l9.68,22.68a74.24,74.24,0,0,1,32.86-7.63,74.73,74.73,0,0,1,64.12,36.42l29.79,6a99.33,99.33,0,0,0-93.91-67"/></clipPath><clipPath id="clip-path-21"><path class="cls-1" d="M-1865,474.38a99.29,99.29,0,0,0,54.62,88.68l8-23.65a74.74,74.74,0,0,1-38-65,74.79,74.79,0,0,1,41.85-67.08l-9.68-22.68A99.31,99.31,0,0,0-1865,474.38"/></clipPath><clipPath id="clip-path-22"><path class="cls-1" d="M-1788.31,301.13s2.22,38.32,19.87,51l-2.85-24.47Z"/></clipPath><clipPath id="clip-path-23"><path class="cls-1" d="M-1618.39,301.13s-2.22,38.32-19.87,51l2.85-24.47Z"/></clipPath><clipPath id="clip-path-24"><path class="cls-1" d="M-1703.35,390.23-1742,368.48s-38.28,136.5-46.45,208.83h85.09Z"/></clipPath><clipPath id="clip-path-25"><path class="cls-1" d="M-1703.85,390.23l38.65-21.75s38.28,136.5,46.44,208.83h-85.09Z"/></clipPath><clipPath id="clip-path-26"><path class="cls-1" d="M-1703.35,384.88h-30.18s13.48,30.31,30.18,34c16.69-3.64,30.18-34,30.18-34Z"/></clipPath><clipPath id="clip-path-27"><path class="cls-1" d="M-1703.35,363.71l-30.18,21.17s15.89,20.64,30.18,20.64c4.39,0,19.7-6.63,30.18-20.64Z"/></clipPath><clipPath id="clip-path-28"><path class="cls-1" d="M-1769.19,301.13a13.52,13.52,0,0,0-19.12,0,13.52,13.52,0,0,0,0,19.12,13.52,13.52,0,0,0,19.12,0,13.52,13.52,0,0,0,0-19.12"/></clipPath><clipPath id="clip-path-29"><path class="cls-1" d="M-1618.39,301.13a13.52,13.52,0,0,0-19.12,0,13.52,13.52,0,0,0,0,19.12,13.52,13.52,0,0,0,19.12,0,13.52,13.52,0,0,0,0-19.12"/></clipPath><clipPath id="clip-path-30"><path class="cls-1" d="M-1688,390.25c20.92-7.23,42.66-17.84,52.7-37.56,6.94-13.63,7.19-29.55,7.34-44.85.1-11,.2-22.2-1.46-33a80.56,80.56,0,0,0-3.84-15.41c-6.89-18.91-22.48-34.29-41.22-41.65a77,77,0,0,0-28.82-5.19l-13.38,116.58,13.38,64.31c.34,0,.67,0,1,0,4.91-.12,9.66-1.64,14.3-3.24"/></clipPath><clipPath id="clip-path-31"><path class="cls-1" d="M-1733.06,218.61c-14,5.73-26.6,15.54-34.29,28.58-10.39,17.64-11.08,39.16-11,59.63.08,18.65.89,39.38,12.92,54.71s33.42,25.37,51.74,30.22a44.49,44.49,0,0,0,10.74,1.71l-5.47-65.8,16-5.47-10.54-109.63a81.81,81.81,0,0,0-30.11,6"/></clipPath><clipPath id="clip-path-32"><path class="cls-1" d="M-1724.85,291.57a5.68,5.68,0,0,0-5.68-5.68,5.68,5.68,0,0,0-5.68,5.68,5.68,5.68,0,0,0,5.68,5.68,5.68,5.68,0,0,0,5.68-5.68"/></clipPath><clipPath id="clip-path-33"><path class="cls-1" d="M-1668.17,291.57a5.68,5.68,0,0,0-5.68-5.68,5.68,5.68,0,0,0-5.68,5.68,5.68,5.68,0,0,0,5.68,5.68,5.68,5.68,0,0,0,5.68-5.68"/></clipPath><clipPath id="clip-path-34"><path class="cls-1" d="M-1649.08,317c0,3.49-5.59,6.32-12.5,6.32s-12.5-2.83-12.5-6.32,5.6-6.32,12.5-6.32,12.5,2.83,12.5,6.32"/></clipPath><clipPath id="clip-path-35"><path class="cls-1" d="M-1754.9,317c0,3.49,5.59,6.32,12.5,6.32s12.5-2.83,12.5-6.32-5.59-6.32-12.5-6.32-12.5,2.83-12.5,6.32"/></clipPath><clipPath id="clip-path-36"><polygon class="cls-1" points="-1708.82 327.63 -1686.32 327.63 -1692.82 322.2 -1708.82 327.63"/></clipPath><clipPath id="clip-path-37"><path class="cls-1" d="M-1636.44,539.41h31.5l8,23.65c-7,12.09-22,14.25-22,14.25l-4.23-29.07H-1636a4.29,4.29,0,0,1-.45,0,4.44,4.44,0,0,1-4.44-4.44,4.44,4.44,0,0,1,4.44-4.44"/></clipPath><clipPath id="clip-path-38"><path class="cls-1" d="M-1669.73,202.06v.63c-1.4,2.61-14.12,25.71-31.09,38.37-6.36,4.74-13.31,8-20.49,8.19h43c5.45.12,8.6,2.1,10.92,4.58,4.22,4.53,5.6,10.79,12.66,10.79a14.59,14.59,0,0,1,10.18,3.57c4.72,4.25,5.2,10.78,5.2,10.78v31.72h11.8q0-1.94,0-3.86c0-3.18,0-6.38-.06-9.59a13.44,13.44,0,0,1,7.64,2.65l1.52,1.24s0,0,0,0l.19.23a272.17,272.17,0,0,0,1.88-29.41c0-34.92-22.12-60-53.41-69.85"/></clipPath><clipPath id="clip-path-39"><path class="cls-1" d="M-1689.18,196.27a138.83,138.83,0,0,0-14.46,0c-2.54.13-5.09.32-7.62.6a103.49,103.49,0,0,0-11,1.79c-.34.08-1.08.36-1.84.61l-1.94.36h0a94.45,94.45,0,0,0-16.26,4.67c-28.22,11-47.71,35.09-47.66,67.84,0,6.94.65,19.13,1.67,27.6,0,.48,0,.92,0,1.4l.15-.12c0,.17,0,.37.06.53.12-.13.21-.28.34-.41a13.29,13.29,0,0,1,8.26-3.8c.41,0,.81-.09,1.22-.07-.06,3.2-.07,6.4-.06,9.57q0,1.92,0,3.86h11.8V279a19.1,19.1,0,0,1,2.08-6.74l2.46-3.38.06-.08c2.29-2.34,5.72-3.53,10.78-4.16s7-6.29,11.45-10.56a16.9,16.9,0,0,1,12.13-4.82s27,.1,30.85,0c38.27-.86,53.1-26.93,58.85-41.24,1.28-3.18,2.11-5.79,2.64-7.4a30.72,30.72,0,0,0,1-4.32Z"/></clipPath><clipPath id="clip-path-40"><path class="cls-1" d="M-1639.39,310.69c0,22.32-40.76,22.93-58.52,22.13H-1708c-17.76.79-58.52.18-58.52-22.13h-11.8c.21,17.61,1.68,36.57,12.89,50.84,11.95,15.23,33.42,25.37,51.74,30.22a44.44,44.44,0,0,0,10.74,1.71,44.44,44.44,0,0,0,10.74-1.71c18.31-4.86,39.79-15,51.74-30.22,11.2-14.27,12.67-33.24,12.89-50.84h-11.8Z"/></clipPath><clipPath id="clip-path-41"><path class="cls-1" d="M-1703.35,376.41a34.8,34.8,0,0,0,34.8-34.8h-69.59a34.8,34.8,0,0,0,34.8,34.8"/></clipPath><clipPath id="clip-path-42"><path class="cls-1" d="M-1598.74,384.79l-9.61,22.51a74.21,74.21,0,0,0-29.42-7.53,74.8,74.8,0,0,1,70.84,74.61,74.74,74.74,0,0,1-38,65l8,23.65a99.29,99.29,0,0,0,54.62-88.68,99.32,99.32,0,0,0-56.41-89.59"/></clipPath><clipPath id="clip-path-43"><path class="cls-1" d="M-1726,309.37a1.7,1.7,0,0,0-1.71-1.7,1.7,1.7,0,0,0-1.7,1.7,1.71,1.71,0,0,0,1.7,1.7,1.71,1.71,0,0,0,1.71-1.7"/></clipPath><clipPath id="clip-path-44"><path class="cls-1" d="M-1739.7,303.9a1.7,1.7,0,0,0-1.7-1.7,1.7,1.7,0,0,0-1.71,1.7,1.7,1.7,0,0,0,1.71,1.7,1.7,1.7,0,0,0,1.7-1.7"/></clipPath><clipPath id="clip-path-45"><path class="cls-1" d="M-1715.1,303.9a1.7,1.7,0,0,0-1.7-1.7,1.7,1.7,0,0,0-1.71,1.7,1.7,1.7,0,0,0,1.71,1.7,1.7,1.7,0,0,0,1.7-1.7"/></clipPath><clipPath id="clip-path-46"><path class="cls-1" d="M-1737,312.1a1.71,1.71,0,0,0-1.71-1.71,1.71,1.71,0,0,0-1.7,1.71,1.7,1.7,0,0,0,1.7,1.7,1.7,1.7,0,0,0,1.71-1.7"/></clipPath><clipPath id="clip-path-47"><path class="cls-1" d="M-1745.17,317.57a1.71,1.71,0,0,0-1.71-1.71,1.71,1.71,0,0,0-1.7,1.71,1.7,1.7,0,0,0,1.7,1.7,1.7,1.7,0,0,0,1.71-1.7"/></clipPath><clipPath id="clip-path-48"><path class="cls-1" d="M-1720.57,317.57a1.71,1.71,0,0,0-1.7-1.71,1.71,1.71,0,0,0-1.71,1.71,1.7,1.7,0,0,0,1.71,1.7,1.7,1.7,0,0,0,1.7-1.7"/></clipPath><clipPath id="clip-path-49"><path class="cls-1" d="M-1674.13,309.37a1.7,1.7,0,0,1,1.7-1.7,1.7,1.7,0,0,1,1.71,1.7,1.71,1.71,0,0,1-1.71,1.7,1.71,1.71,0,0,1-1.7-1.7"/></clipPath><clipPath id="clip-path-50"><path class="cls-1" d="M-1660.47,303.9a1.7,1.7,0,0,1,1.7-1.7,1.7,1.7,0,0,1,1.71,1.7,1.7,1.7,0,0,1-1.71,1.7,1.7,1.7,0,0,1-1.7-1.7"/></clipPath><clipPath id="clip-path-51"><path class="cls-1" d="M-1685.07,303.9a1.7,1.7,0,0,1,1.7-1.7,1.7,1.7,0,0,1,1.71,1.7,1.7,1.7,0,0,1-1.71,1.7,1.7,1.7,0,0,1-1.7-1.7"/></clipPath><clipPath id="clip-path-52"><path class="cls-1" d="M-1663.2,312.1a1.71,1.71,0,0,1,1.71-1.71,1.71,1.71,0,0,1,1.7,1.71,1.7,1.7,0,0,1-1.7,1.7,1.7,1.7,0,0,1-1.71-1.7"/></clipPath><clipPath id="clip-path-53"><path class="cls-1" d="M-1655,317.57a1.71,1.71,0,0,1,1.7-1.71,1.71,1.71,0,0,1,1.71,1.71,1.7,1.7,0,0,1-1.71,1.7,1.7,1.7,0,0,1-1.7-1.7"/></clipPath><clipPath id="clip-path-54"><path class="cls-1" d="M-1679.6,317.57a1.71,1.71,0,0,1,1.7-1.71,1.71,1.71,0,0,1,1.71,1.71,1.7,1.7,0,0,1-1.71,1.7,1.7,1.7,0,0,1-1.7-1.7"/></clipPath><clipPath id="clip-path-55"><path class="cls-1" d="M-1788.44,577.31s-25.22,113.66,32.53,213.91h21.57s-98.92-175.77,30.49-175.77V577.31Z"/></clipPath><clipPath id="clip-path-56"><path class="cls-1" d="M-1619.26,577.31S-1594,691-1651.78,791.22h-21.57s98.92-175.77-30.49-175.77V577.31Z"/></clipPath><clipPath id="clip-path-57"><path class="cls-1" d="M-1728.37,794.17a7.84,7.84,0,0,0-6.13-2.95h-21.42s-13.76,6.2-21.08-1.82a10.77,10.77,0,0,0-8.43-4.05,10.79,10.79,0,0,0-10.79,10.79,10.79,10.79,0,0,0,10.79,10.79h50.92a7.85,7.85,0,0,0,7.85-7.85,7.82,7.82,0,0,0-1.72-4.9"/></clipPath><clipPath id="clip-path-58"><path class="cls-1" d="M-1679.32,794.17a7.84,7.84,0,0,1,6.13-2.95h21.42s13.76,6.2,21.08-1.82a10.77,10.77,0,0,1,8.43-4.05,10.79,10.79,0,0,1,10.79,10.79,10.79,10.79,0,0,1-10.79,10.79h-50.92a7.85,7.85,0,0,1-7.85-7.85,7.82,7.82,0,0,1,1.72-4.9"/></clipPath><clipPath id="clip-path-59"><path class="cls-1" d="M-1770.95,539.41h-31.5l-8,23.65c7,12.09,22,14.25,22,14.25l4.23-29.07h12.82a4.29,4.29,0,0,0,.45,0,4.44,4.44,0,0,0,4.44-4.44,4.44,4.44,0,0,0-4.44-4.44"/></clipPath><clipPath id="clip-path-60"><rect class="cls-2" x="-1101.1" y="228.03" width="92.62" height="181.23"/></clipPath><clipPath id="clip-path-61"><rect class="cls-2" x="-1012.43" y="228.03" width="92.6" height="181.28"/></clipPath><clipPath id="clip-path-62"><path class="cls-1" d="M-932.22,590.62H-1088.9s-23.35,105.26,30.12,198.11h20S-1130.41,626-1010.56,626s28.24,162.78,28.24,162.78h20c53.48-92.85,30.12-198.11,30.12-198.11"/></clipPath><clipPath id="clip-path-63"><path class="cls-1" d="M-1088.9,590.62s-23.35,105.26,30.12,198.11h20S-1130.41,626-1010.56,626V590.62Z"/></clipPath><clipPath id="clip-path-64"><path class="cls-1" d="M-932.22,590.62s23.35,105.26-30.12,198.11h-20S-890.71,626-1010.56,626V590.62Z"/></clipPath><clipPath id="clip-path-65"><path class="cls-1" d="M-1033.27,791.46a7.26,7.26,0,0,0-5.68-2.73h-19.83s-12.75,5.74-19.52-1.68a10,10,0,0,0-7.8-3.75,10,10,0,0,0-10,10,10,10,0,0,0,10,10h47.16a7.27,7.27,0,0,0,7.27-7.27,7.24,7.24,0,0,0-1.59-4.54"/></clipPath><clipPath id="clip-path-66"><path class="cls-1" d="M-987.84,791.46a7.26,7.26,0,0,1,5.68-2.73h19.83s12.75,5.74,19.52-1.68a10,10,0,0,1,7.8-3.75,10,10,0,0,1,10,10,10,10,0,0,1-10,10h-47.16a7.27,7.27,0,0,1-7.27-7.27,7.25,7.25,0,0,1,1.59-4.54"/></clipPath><clipPath id="clip-path-67"><path class="cls-1" d="M-919.83,318.67A90.64,90.64,0,0,0-1010.46,228c-.66,0-1.31,0-2,0l-23.15,76.29,23.15,104.88c.66,0,1.3.05,2,.05a90.64,90.64,0,0,0,90.64-90.64"/></clipPath><clipPath id="clip-path-68"><path class="cls-1" d="M-1100.14,331.91s4.49,54.11-27.67,61.4c0,0,29.88,43.12,97.48,19.56l-9.73-45.54Z"/></clipPath><clipPath id="clip-path-69"><path class="cls-1" d="M-920.92,331.91s-4.49,54.11,27.67,61.4c0,0-29.88,43.12-97.48,19.56l9.73-45.54Z"/></clipPath><clipPath id="clip-path-70"><path class="cls-1" d="M-1159.33,485.91a92.94,92.94,0,0,0-.51,9.62,91.72,91.72,0,0,0,50.46,81.92l7.37-21.85a69,69,0,0,1-35.11-60.07,69.21,69.21,0,0,1,.69-9.62Z"/></clipPath><clipPath id="clip-path-71"><path class="cls-1" d="M-1043.51,407.14l-4.67,22.35a69.32,69.32,0,0,1,39.32,30.68l27.52,5.54a91.94,91.94,0,0,0-62.17-58.57"/></clipPath><clipPath id="clip-path-72"><path class="cls-1" d="M-1068.1,403.79a91.75,91.75,0,0,0-91.24,82.12h22.91a69.11,69.11,0,0,1,68.33-59.39,68.71,68.71,0,0,1,19.92,3l4.67-22.35a91.75,91.75,0,0,0-24.58-3.35"/></clipPath><clipPath id="clip-path-73"><path class="cls-1" d="M-1010.93,417.8l35.7-20.09s35.36,126.1,42.91,192.91h-78.61Z"/></clipPath><clipPath id="clip-path-74"><path class="cls-1" d="M-1002.25,429.06a91.59,91.59,0,0,0-15.53,24.67L-999.51,470a68.6,68.6,0,0,1,14.58-26.23l.47-.5-20.66-3.65Z"/></clipPath><clipPath id="clip-path-75"><path class="cls-1" d="M-889.28,406.73c-19.21-4.62-37.7-10.82-57.76-7.81a91.36,91.36,0,0,0-54.88,29.74l-.34.4-2.87,10.55,20.66,3.65A69.49,69.49,0,0,1-930,420.73c22.68,1.09,42.46,12.24,65.86,8.73a91.79,91.79,0,0,0,26.05-8l-10.57-20.21a69.51,69.51,0,0,1-40.63,5.48"/></clipPath><clipPath id="clip-path-76"><path class="cls-1" d="M-1010.46,417.8l-35.7-20.09s-35.36,126.1-42.91,192.91h78.61Z"/></clipPath><clipPath id="clip-path-77"><path class="cls-1" d="M-1038.34,412.87h6.33l-8-11.71-19.57,13.92,22.73,14-3.16,23,29.59,77.86V444.24c-15.42-3.37-27.88-31.37-27.88-31.37"/></clipPath><clipPath id="clip-path-78"><path class="cls-1" d="M-982.59,412.87h-6.33l8-11.71,19.57,13.92-22.73,14,3.16,23L-1010.46,530V444.24c15.42-3.37,27.88-31.37,27.88-31.37"/></clipPath><clipPath id="clip-path-79"><path class="cls-1" d="M-1010.46,412.87h-27.88s12.46,28,27.88,31.37c15.42-3.37,27.88-31.37,27.88-31.37Z"/></clipPath><clipPath id="clip-path-80"><path class="cls-1" d="M-1010.46,393.31l-27.88,19.56s14.68,19.07,27.88,19.07c4.06,0,18.2-6.12,27.88-19.07Z"/></clipPath><clipPath id="clip-path-81"><path class="cls-1" d="M-1071.29,335.5a12.49,12.49,0,0,0-17.66,0,12.49,12.49,0,0,0,0,17.66,12.49,12.49,0,0,0,17.66,0,12.49,12.49,0,0,0,0-17.66"/></clipPath><clipPath id="clip-path-82"><path class="cls-1" d="M-932,335.5a12.49,12.49,0,0,0-17.66,0,12.49,12.49,0,0,0,0,17.66,12.49,12.49,0,0,0,17.66,0,12.49,12.49,0,0,0,0-17.66"/></clipPath><clipPath id="clip-path-83"><path class="cls-1" d="M-996.32,417.82c19.32-6.67,39.41-16.48,48.69-34.69,6.41-12.59,6.64-27.3,6.78-41.43.1-10.17.18-20.51-1.35-30.52a74.36,74.36,0,0,0-3.55-14.23c-6.36-17.47-20.77-31.68-38.08-38.47a71.17,71.17,0,0,0-26.62-4.79l-12.36,107.69,12.36,59.41c.31,0,.62,0,.93,0,4.53-.11,8.93-1.51,13.21-3"/></clipPath><clipPath id="clip-path-84"><path class="cls-1" d="M-1037.91,259.27c-12.95,5.3-24.57,14.35-31.67,26.4-9.6,16.29-10.24,36.18-10.16,55.09.07,17.23.82,36.38,11.93,50.54s30.88,23.43,47.79,27.92a41.13,41.13,0,0,0,9.92,1.58l-5.05-60.78,14.78-5.05-9.73-101.27a75.59,75.59,0,0,0-27.82,5.57"/></clipPath><clipPath id="clip-path-85"><path class="cls-1" d="M-1030.32,326.66a5.25,5.25,0,0,0-5.25-5.25,5.25,5.25,0,0,0-5.25,5.25,5.25,5.25,0,0,0,5.25,5.25,5.25,5.25,0,0,0,5.25-5.25"/></clipPath><clipPath id="clip-path-86"><path class="cls-1" d="M-978,326.66a5.25,5.25,0,0,0-5.25-5.25,5.25,5.25,0,0,0-5.25,5.25,5.25,5.25,0,0,0,5.25,5.25,5.25,5.25,0,0,0,5.25-5.25"/></clipPath><clipPath id="clip-path-87"><path class="cls-1" d="M-960.33,350.17c0,3.23-5.17,5.84-11.54,5.84s-11.54-2.61-11.54-5.84,5.17-5.84,11.54-5.84,11.54,2.61,11.54,5.84"/></clipPath><clipPath id="clip-path-88"><path class="cls-1" d="M-1058.09,350.17c0,3.23,5.17,5.84,11.54,5.84s11.54-2.61,11.54-5.84-5.17-5.84-11.54-5.84-11.54,2.61-11.54,5.84"/></clipPath><clipPath id="clip-path-89"><polygon class="cls-1" points="-1015.51 359.97 -994.73 359.97 -1000.73 354.96 -1015.51 359.97"/></clipPath><clipPath id="clip-path-90"><path class="cls-1" d="M-1102,555.61h29.1v8.16h-12.25l-3.91,26.85s-13.85-2-20.31-13.16Z"/></clipPath><clipPath id="clip-path-91"><path class="cls-1" d="M-1072.91,555.61a4.1,4.1,0,0,1,4.1,4.1,4.1,4.1,0,0,1-4.1,4.1,4.1,4.1,0,0,1-4.1-4.1,4.1,4.1,0,0,1,4.1-4.1"/></clipPath><clipPath id="clip-path-92"><path class="cls-1" d="M-782.71,322.25a18.41,18.41,0,0,0,1-6,18.46,18.46,0,0,0-18.46-18.46,18.46,18.46,0,0,0-18.46,18.46,18.37,18.37,0,0,0,3.07,10.18h0l0,.07.1.14,6.55,9.69a68.76,68.76,0,0,1-17.36,48.25,68.39,68.39,0,0,1-22.41,16.63l10.57,20.21a91.4,91.4,0,0,0,28.82-21.74c16.44-18.49,23.06-40.44,22.13-63.35l4.42-14.12Z"/></clipPath><clipPath id="clip-path-93"><path class="cls-1" d="M-814.43,277.77a4.21,4.21,0,0,0-4.21,4.21v39.35h8.42V282a4.21,4.21,0,0,0-4.21-4.21"/></clipPath><clipPath id="clip-path-94"><path class="cls-1" d="M-794,312.13h-25.65a1.52,1.52,0,0,0-1.5,1.19,22,22,0,0,0-.45,4.41,25.73,25.73,0,0,0,1.14,7.59c1.6,5.1,9.21,2.82,9.3-2.52a1.52,1.52,0,0,1,1.52-1.49H-794v-.08h0c2.8,0,5.08-1.73,5.08-4.53s-2.27-4.57-5.08-4.57"/></clipPath><clipPath id="clip-path-95"><path class="cls-1" d="M-1010.46,405a32.14,32.14,0,0,0,32.14-32.14h-64.29A32.15,32.15,0,0,0-1010.46,405"/></clipPath><clipPath id="clip-path-96"><path class="cls-1" d="M-1009.48,289s-22.51,29.66-85.35,47.36c0,0-15.15-100.46,85.35-90.09Z"/></clipPath><clipPath id="clip-path-97"><path class="cls-1" d="M-1011.45,289s22.51,29.66,85.35,47.36c0,0,15.15-101.71-85.35-91.34Z"/></clipPath><clipPath id="clip-path-98"><path class="cls-1" d="M736.12,430.84s-71.17-123.23-201.91-52.61c-143.17,77.33-41.57,221-41.57,221S561,692.72,817.78,674.68V812s-380,70.95-471.62-212.8C249.26,299,531.06,230.06,531.06,230.06s200-50.48,317.53,134.63Z"/></clipPath><clipPath id="clip-path-99"><rect class="cls-2" x="-4210.76" y="-2648.07" width="7242.67" height="7661.39"/></clipPath><clipPath id="clip-path-100"><path class="cls-1" d="M1187.77,430.84s71.17-123.23,201.91-52.61c143.17,77.33,41.57,221,41.57,221s-68.32,93.48-325.14,75.44V812s380,70.95,471.62-212.8c96.89-300.22-184.9-369.12-184.9-369.12s-200-50.48-317.53,134.63Z"/></clipPath><clipPath id="clip-path-102"><polygon class="cls-1" points="962.05 258.25 469.93 542.56 469.93 613.64 962.05 897.96 1454.18 613.64 1454.18 542.56 962.05 258.25"/></clipPath><clipPath id="clip-path-104"><polygon class="cls-1" points="962.06 897.96 469.93 613.64 469.93 542.56 962.06 826.88 962.06 897.96"/></clipPath><clipPath id="clip-path-106"><polygon class="cls-1" points="962.06 897.96 1454.18 613.64 1454.18 542.56 962.06 826.88 962.06 897.96"/></clipPath><clipPath id="clip-path-108"><polygon class="cls-1" points="962.01 898.37 469.39 613.77 469.39 542.62 962.01 827.22 962.01 898.37"/></clipPath><clipPath id="clip-path-110"><polygon class="cls-1" points="1208.33 898.37 1454.64 898.37 1454.64 542.62 962.01 542.62 962.01 898.37 1208.33 898.37"/></clipPath><clipPath id="clip-path-112"><rect class="cls-2" x="960.97" y="537.57" width="497.93" height="362.13"/></clipPath><clipPath id="clip-path-113"><polygon class="cls-1" points="962.01 898.37 1454.64 613.77 1454.64 542.62 962.01 827.22 962.01 898.37"/></clipPath><clipPath id="clip-path-115"><polygon class="cls-1" points="1023.59 649.34 777.28 507.04 777.28 293.58 1023.59 435.89 1023.59 649.34"/></clipPath><clipPath id="clip-path-117"><polygon class="cls-1" points="1124.71 281.33 1023.59 435.87 1023.59 649.32 1208.33 542.6 1208.33 329.16 1124.71 281.33"/></clipPath><clipPath id="clip-path-119"><polygon class="cls-1" points="760.48 318.6 869.59 133.46 1124.71 281.33 1006.8 460.91 760.48 318.6"/></clipPath><clipPath id="clip-path-121"><polygon class="cls-1" points="1085.14 613.77 1085.14 471.44 1146.75 435.89 1146.75 578.17 1085.14 613.77"/></clipPath><clipPath id="clip-path-123"><polygon class="cls-1" points="931.23 453.55 931.23 524.7 992.8 560.27 992.8 489.12 931.23 453.55"/></clipPath><clipPath id="clip-path-125"><polygon class="cls-1" points="808.3 382.52 808.3 453.68 869.88 489.25 869.88 418.1 808.3 382.52"/></clipPath><clipPath id="clip-path-127"><rect class="cls-2" x="469.39" y="68.9" width="985.25" height="829.47"/></clipPath><clipPath id="clip-path-129"><rect class="cls-2" x="672.39" y="220.71" width="763.88" height="537.54"/></clipPath><clipPath id="clip-path-130"><polygon class="cls-1" points="942.59 348.94 942.59 277.38 897.75 251.47 897.75 323.03 942.59 348.94"/></clipPath><clipPath id="clip-path-131"><rect class="cls-2" x="468.69" y="130.17" width="990.21" height="769.53"/></clipPath><clipPath id="clip-path-132"><polygon class="cls-1" points="987.44 251.9 942.6 277.38 942.6 348.94 987.44 280.71 987.44 251.9"/></clipPath><clipPath id="clip-path-134"><polygon class="cls-1" points="897.75 251.47 942.59 277.38 987.44 251.9 942.49 225.62 897.75 251.47"/></clipPath><clipPath id="clip-path-136"><path class="cls-1" d="M1364.26,460.54a71.94,71.94,0,0,0-71.91,72h143.82a71.93,71.93,0,0,0-71.91-72"/></clipPath><clipPath id="clip-path-138"><path class="cls-1" d="M1316.92,502.81a39.58,39.58,0,0,0-39.57,39.6h79.14a39.58,39.58,0,0,0-39.57-39.6"/></clipPath><clipPath id="clip-path-140"><path class="cls-1" d="M1014.71,681.55a43.07,43.07,0,0,0-38.65,24.12,34.62,34.62,0,0,0-41.13-1.21,53.53,53.53,0,1,0-105.14,20.23h228a43.13,43.13,0,0,0-43.11-43.14"/></clipPath><clipPath id="clip-path-142"><path class="cls-1" d="M736.72,458.38A61.77,61.77,0,0,0,675,520.17h123.5a61.77,61.77,0,0,0-61.75-61.79"/></clipPath><clipPath id="clip-path-144"><rect class="cls-2" x="1264.49" y="406.77" width="13.16" height="164.85"/></clipPath><clipPath id="clip-path-146"><path class="cls-1" d="M1349.21,406.77A78.14,78.14,0,1,0,1271.07,485a78.16,78.16,0,0,0,78.14-78.19"/></clipPath><clipPath id="clip-path-148"><polygon class="cls-1" points="1146.75 578.17 1085.14 613.77 1208.33 684.92 1269.94 649.32 1146.75 578.17"/></clipPath><clipPath id="clip-path-150"><polygon class="cls-1" points="1208.33 756.07 1208.33 684.92 1269.94 649.32 1269.94 720.52 1208.33 756.07"/></clipPath><clipPath id="clip-path-152"><path class="cls-1" d="M693.76,473.75H600.43s-13.91,62.74,17.94,118.08h11.9s-54.57-97,16.82-97,16.82,97,16.82,97h11.9c31.85-55.34,17.94-118.08,17.94-118.08"/></clipPath><clipPath id="clip-path-154"><path class="cls-1" d="M681.52,362.12h-.11a54.8,54.8,0,0,0-51.81,37l.26-.05a54.79,54.79,0,0,1,51.65-36.94"/></clipPath><clipPath id="clip-path-156"><path class="cls-1" d="M683.77,362.17l1.5,0c-.5,0-1,0-1.5,0"/></clipPath><clipPath id="clip-path-158"><path class="cls-1" d="M681.55,375.71a15.32,15.32,0,0,1,1.88.14,15.45,15.45,0,0,0-1.77-.15h-.11"/></clipPath><clipPath id="clip-path-160"><path class="cls-1" d="M681.65,362.11h-.13a18.38,18.38,0,0,1,2.25.18,18.12,18.12,0,0,0-2.12-.18"/></clipPath><clipPath id="clip-path-162"><path class="cls-1" d="M684.06,375.77l-.77,0,.77,0"/></clipPath><clipPath id="clip-path-164"><path class="cls-1" d="M646,395.8l-16.17,3.26,0,.05,16.44-3.31a41.22,41.22,0,0,1,35.27-20.1h-.14A41.22,41.22,0,0,0,646,395.8"/></clipPath><clipPath id="clip-path-166"><path class="cls-1" d="M705.11,367.39a54.47,54.47,0,0,0-20.86-5.2,54.45,54.45,0,0,1,20.82,5.29Z"/></clipPath><clipPath id="clip-path-168"><path class="cls-1" d="M705.08,367.48a54.45,54.45,0,0,0-20.82-5.29h-.49c-.75,0-1.5-.06-2.25-.06a54.79,54.79,0,0,0-51.65,36.94L646,395.8a41.22,41.22,0,0,1,35.37-20.1h.24c.55,0,1.1,0,1.64,0h.25a40.91,40.91,0,0,1,16.23,4.16Z"/></clipPath><clipPath id="clip-path-170"><path class="cls-1" d="M613,362.11a54.53,54.53,0,0,0-23.46,5.28l5.34,12.52a41.15,41.15,0,0,1,53.5,15.89l16.44,3.31a54.8,54.8,0,0,0-51.81-37"/></clipPath><clipPath id="clip-path-172"><path class="cls-1" d="M558.17,416.93a54.81,54.81,0,0,0,30.13,49l4.4-13.06a41.23,41.23,0,0,1,2.12-72.92l-5.34-12.52a54.82,54.82,0,0,0-31.32,49.54"/></clipPath><clipPath id="clip-path-174"><path class="cls-1" d="M600.5,321.3s1.23,21.15,11,28.13l-1.57-13.51Z"/></clipPath><clipPath id="clip-path-176"><path class="cls-1" d="M694.24,321.3s-1.23,21.15-11,28.13l1.57-13.51Z"/></clipPath><clipPath id="clip-path-178"><path class="cls-1" d="M647.37,370.48l-21.32-12s-21.11,75.35-25.62,115.27h46.94Z"/></clipPath><clipPath id="clip-path-180"><path class="cls-1" d="M647.09,370.48l21.32-12S689.53,433.83,694,473.75H647.09Z"/></clipPath><clipPath id="clip-path-182"><path class="cls-1" d="M647.37,367.53H630.72s7.44,16.73,16.65,18.75c9.21-2,16.65-18.75,16.65-18.75Z"/></clipPath><clipPath id="clip-path-184"><path class="cls-1" d="M647.37,355.85l-16.65,11.69s8.76,11.39,16.65,11.39c2.42,0,10.86-3.66,16.65-11.39Z"/></clipPath><clipPath id="clip-path-186"><path class="cls-1" d="M611,321.3a7.46,7.46,0,1,0,0,10.55,7.45,7.45,0,0,0,0-10.55"/></clipPath><clipPath id="clip-path-188"><path class="cls-1" d="M694.24,321.3a7.46,7.46,0,1,0,0,10.55,7.45,7.45,0,0,0,0-10.55"/></clipPath><clipPath id="clip-path-190"><path class="cls-1" d="M655.82,370.49c11.54-4,23.53-9.85,29.07-20.73,3.83-7.52,4-16.31,4-24.75a113.94,113.94,0,0,0-.81-18.24,44.5,44.5,0,0,0-2.12-8.5,39.86,39.86,0,0,0-22.74-23,42.46,42.46,0,0,0-15.9-2.86L640,336.77l7.38,35.5.56,0a26.43,26.43,0,0,0,7.89-1.79"/></clipPath><clipPath id="clip-path-192"><path class="cls-1" d="M631,275.75a38.89,38.89,0,0,0-18.91,15.78c-5.73,9.73-6.11,21.62-6.07,32.92,0,10.3.49,21.74,7.13,30.2s18.44,14,28.54,16.68a24.53,24.53,0,0,0,5.92.95l-3-36.32,8.83-3-5.81-60.52A45.1,45.1,0,0,0,631,275.75"/></clipPath><clipPath id="clip-path-194"><path class="cls-1" d="M635.51,316a3.14,3.14,0,1,0-3.14,3.14,3.14,3.14,0,0,0,3.14-3.14"/></clipPath><clipPath id="clip-path-196"><path class="cls-1" d="M666.78,316a3.13,3.13,0,1,0-3.14,3.14,3.14,3.14,0,0,0,3.14-3.14"/></clipPath><clipPath id="clip-path-198"><path class="cls-1" d="M677.31,330.07c0,1.93-3.09,3.49-6.89,3.49s-6.89-1.56-6.89-3.49,3.09-3.49,6.89-3.49,6.89,1.56,6.89,3.49"/></clipPath><clipPath id="clip-path-200"><path class="cls-1" d="M618.93,330.07c0,1.93,3.09,3.49,6.89,3.49s6.89-1.56,6.89-3.49-3.09-3.49-6.89-3.49-6.89,1.56-6.89,3.49"/></clipPath><clipPath id="clip-path-202"><polygon class="cls-1" points="644.35 335.93 656.76 335.93 653.18 332.93 644.35 335.93"/></clipPath><clipPath id="clip-path-204"><path class="cls-1" d="M684.28,452.83h17.38l4.4,13.06c-3.86,6.67-12.13,7.87-12.13,7.87l-2.33-16h-7.07l-.25,0a2.45,2.45,0,0,1,0-4.9"/></clipPath><clipPath id="clip-path-206"><path class="cls-1" d="M665.92,266.61V267c-.77,1.44-7.79,14.19-17.15,21.18-3.51,2.62-7.34,4.43-11.3,4.52h23.73a7.83,7.83,0,0,1,6,2.53c2.33,2.5,3.09,6,7,6a8,8,0,0,1,5.61,2,9.82,9.82,0,0,1,2.87,6v17.51h6.51q0-1.07,0-2.13c0-1.75,0-3.52,0-5.29a7.41,7.41,0,0,1,4.22,1.46l.84.69v0l.1.13a150.36,150.36,0,0,0,1-16.23c0-19.28-12.2-33.14-29.46-38.56"/></clipPath><clipPath id="clip-path-208"><path class="cls-1" d="M655.19,263.42a76.57,76.57,0,0,0-8,0c-1.4.07-2.81.18-4.2.33a57.15,57.15,0,0,0-6.07,1c-.19,0-.6.2-1,.34l-1.07.2h0a52,52,0,0,0-9,2.58c-15.57,6.05-26.32,19.37-26.29,37.45,0,3.83.36,10.56.92,15.24,0,.26,0,.51,0,.77l.08-.07,0,.29c.07-.07.12-.16.19-.23a7.33,7.33,0,0,1,4.55-2.1c.22,0,.45,0,.67,0,0,1.77,0,3.53,0,5.28,0,.71,0,1.42,0,2.13h6.51V309.07a10.55,10.55,0,0,1,1.15-3.72l1.36-1.86,0,0c1.26-1.29,3.16-1.95,5.95-2.3s3.88-3.47,6.32-5.83a9.32,9.32,0,0,1,6.69-2.66s14.89.05,17,0c21.11-.48,29.29-14.87,32.46-22.77.7-1.76,1.16-3.2,1.46-4.09a17,17,0,0,0,.54-2.38Z"/></clipPath><clipPath id="clip-path-210"><path class="cls-1" d="M682.66,326.58c0,12.32-22.48,12.66-32.28,12.22h-5.56c-9.8.44-32.28.1-32.28-12.22H606c.12,9.72.93,20.19,7.11,28.06,6.59,8.4,18.44,14,28.54,16.68a19,19,0,0,0,11.85,0c10.1-2.68,21.95-8.28,28.54-16.68,6.18-7.88,7-18.35,7.11-28.06h-6.51Z"/></clipPath><clipPath id="clip-path-212"><path class="cls-1" d="M647.37,362.86a19.2,19.2,0,0,0,19.2-19.21H628.17a19.2,19.2,0,0,0,19.2,19.21"/></clipPath><clipPath id="clip-path-214"><path class="cls-1" d="M705.08,367.48l-5.3,12.43a40.91,40.91,0,0,0-16.23-4.16,41.23,41.23,0,0,1,18.11,77.08l4.4,13.06a54.84,54.84,0,0,0-1-98.4"/></clipPath><clipPath id="clip-path-216"><path class="cls-1" d="M634.86,325.85a.94.94,0,1,0-.94.94.94.94,0,0,0,.94-.94"/></clipPath><clipPath id="clip-path-218"><path class="cls-1" d="M627.32,322.83a.94.94,0,1,0-.94.94.94.94,0,0,0,.94-.94"/></clipPath><clipPath id="clip-path-220"><path class="cls-1" d="M640.89,322.83a.94.94,0,1,0-.94.94.94.94,0,0,0,.94-.94"/></clipPath><clipPath id="clip-path-222"><path class="cls-1" d="M628.82,327.36a.94.94,0,1,0-.94.94.94.94,0,0,0,.94-.94"/></clipPath><clipPath id="clip-path-224"><path class="cls-1" d="M624.3,330.38a.94.94,0,1,0-.94.94.94.94,0,0,0,.94-.94"/></clipPath><clipPath id="clip-path-226"><path class="cls-1" d="M637.87,330.38a.94.94,0,1,0-.94.94.94.94,0,0,0,.94-.94"/></clipPath><clipPath id="clip-path-228"><path class="cls-1" d="M663.49,325.85a.94.94,0,1,1,.94.94.94.94,0,0,1-.94-.94"/></clipPath><clipPath id="clip-path-230"><path class="cls-1" d="M671,322.83a.94.94,0,1,1,.94.94.94.94,0,0,1-.94-.94"/></clipPath><clipPath id="clip-path-232"><path class="cls-1" d="M657.46,322.83a.94.94,0,1,1,.94.94.94.94,0,0,1-.94-.94"/></clipPath><clipPath id="clip-path-234"><path class="cls-1" d="M669.52,327.36a.94.94,0,1,1,.94.94.94.94,0,0,1-.94-.94"/></clipPath><clipPath id="clip-path-236"><path class="cls-1" d="M674,330.38a.94.94,0,1,1,.94.94.94.94,0,0,1-.94-.94"/></clipPath><clipPath id="clip-path-238"><path class="cls-1" d="M660.47,330.38a.94.94,0,1,1,.94.94.94.94,0,0,1-.94-.94"/></clipPath><clipPath id="clip-path-240"><path class="cls-1" d="M600.43,473.75s-13.91,62.74,17.94,118.08h11.9s-54.57-97,16.82-97V473.75Z"/></clipPath><clipPath id="clip-path-242"><path class="cls-1" d="M693.76,473.75s13.91,62.74-17.94,118.08h-11.9s54.57-97-16.82-97V473.75Z"/></clipPath><clipPath id="clip-path-244"><path class="cls-1" d="M633.57,593.46a4.32,4.32,0,0,0-3.38-1.63H618.37s-7.59,3.42-11.63-1a6,6,0,1,0-4.65,9.67h28.09a4.33,4.33,0,0,0,3.38-7"/></clipPath><clipPath id="clip-path-246"><path class="cls-1" d="M660.62,593.46a4.32,4.32,0,0,1,3.38-1.63h11.81s7.59,3.42,11.63-1a6,6,0,1,1,4.65,9.67H664a4.34,4.34,0,0,1-3.38-7"/></clipPath><clipPath id="clip-path-248"><path class="cls-1" d="M610.08,452.83H592.71l-4.4,13.06c3.86,6.67,12.13,7.87,12.13,7.87l2.33-16h7.07l.25,0a2.45,2.45,0,0,0,0-4.9"/></clipPath><clipPath id="clip-path-250"><rect class="cls-2" x="725.17" y="277.56" width="51.09" height="100.04"/></clipPath><clipPath id="clip-path-252"><rect class="cls-2" x="723.32" y="277.29" width="56.58" height="101.85"/></clipPath><clipPath id="clip-path-253"><path class="cls-1" d="M725.17,327.59a50,50,0,0,0,48.92,50l2.18-90-1.39-10-.78,0a50,50,0,0,0-48.92,50"/></clipPath><clipPath id="clip-path-255"><rect class="cls-2" x="774.09" y="277.56" width="51.08" height="100.07"/></clipPath><clipPath id="clip-path-257"><rect class="cls-2" x="768.58" y="277.29" width="56.58" height="101.85"/></clipPath><clipPath id="clip-path-258"><path class="cls-1" d="M825.17,327.59a50,50,0,0,0-50-50h-.54v10.07l-.54,32.07v57.9l1.08,0a50,50,0,0,0,50-50"/></clipPath><clipPath id="clip-path-259"><rect class="cls-2" x="768.58" y="277.29" width="62.24" height="101.85"/></clipPath><clipPath id="clip-path-260"><path class="cls-1" d="M818.33,477.71H731.9S719,535.81,748.52,587.06h11S709,497.21,775.12,497.21s15.58,89.86,15.58,89.86h11c29.5-51.25,16.62-109.36,16.62-109.36"/></clipPath><clipPath id="clip-path-262"><path class="cls-1" d="M731.9,477.71S719,535.81,748.52,587.06h11S709,497.21,775.12,497.21v-19.5Z"/></clipPath><clipPath id="clip-path-264"><path class="cls-1" d="M818.33,477.71s12.88,58.1-16.62,109.36h-11s50.53-89.86-15.58-89.86v-19.5Z"/></clipPath><clipPath id="clip-path-266"><path class="cls-1" d="M762.59,588.57a4,4,0,0,0-3.13-1.51H748.52s-7,3.17-10.77-.93a5.51,5.51,0,1,0-4.3,9h26a4,4,0,0,0,3.13-6.52"/></clipPath><clipPath id="clip-path-268"><path class="cls-1" d="M787.65,588.57a4,4,0,0,1,3.13-1.51h10.94s7,3.17,10.77-.93a5.51,5.51,0,1,1,4.3,9h-26a4,4,0,0,1-3.13-6.52"/></clipPath><clipPath id="clip-path-270"><path class="cls-1" d="M825.17,327.59a50,50,0,0,0-50-50l-1.08,0L761.32,319.7l12.77,57.9,1.08,0a50,50,0,0,0,50-50"/></clipPath><clipPath id="clip-path-272"><path class="cls-1" d="M725.7,334.9s2.48,29.87-15.26,33.89c0,0,16.48,23.8,53.78,10.8l-5.37-25.14Z"/></clipPath><clipPath id="clip-path-274"><path class="cls-1" d="M824.57,334.9s-2.48,29.87,15.26,33.89c0,0-16.48,23.8-53.77,10.8l5.37-25.14Z"/></clipPath><clipPath id="clip-path-276"><path class="cls-1" d="M693,419.91a51.3,51.3,0,0,0-.28,5.31,50.63,50.63,0,0,0,27.84,45.22l4.07-12.06a38,38,0,0,1-19-38.47Z"/></clipPath><clipPath id="clip-path-278"><path class="cls-1" d="M720.43,455.58a7.32,7.32,0,0,0-1.68-6.37c-1.68-1.73-3.37-3.54-7.15-3.06a38.28,38.28,0,0,1-8.33,9.91c-.14,2.32-1.47,6.24,0,7.73s6.54,1.21,8.81,1.21a50.77,50.77,0,0,0,8.35-9.42"/></clipPath><clipPath id="clip-path-280"><path class="cls-1" d="M756.94,376.43l-2.57,12.34a38.24,38.24,0,0,1,21.69,16.93l15.18,3.06a50.73,50.73,0,0,0-34.3-32.33"/></clipPath><clipPath id="clip-path-282"><path class="cls-1" d="M743.38,374.58A50.63,50.63,0,0,0,693,419.91h12.64a38,38,0,0,1,48.68-31.14l2.57-12.34a50.58,50.58,0,0,0-13.56-1.85"/></clipPath><clipPath id="clip-path-284"><path class="cls-1" d="M774.92,382.31l19.69-11.09s19.51,69.61,23.67,106.49H774.92Z"/></clipPath><clipPath id="clip-path-286"><path class="cls-1" d="M779.7,388.53a50.56,50.56,0,0,0-8.57,13.62l10.08,9a37.87,37.87,0,0,1,8-14.48l.26-.27-11.4-2Z"/></clipPath><clipPath id="clip-path-288"><path class="cls-1" d="M842,376.2c-10.6-2.55-20.79-6-31.86-4.31a50.39,50.39,0,0,0-30.27,16.42l-.19.22-1.58,5.83,11.4,2a38.32,38.32,0,0,1,30-12.44c12.51.6,23.42,6.76,36.33,4.82a50.61,50.61,0,0,0,14.37-4.41l-5.83-11.16a38.32,38.32,0,0,1-22.41,3"/></clipPath><clipPath id="clip-path-290"><path class="cls-1" d="M775.17,382.31l-19.69-11.09S736,440.83,731.81,477.71h43.36Z"/></clipPath><clipPath id="clip-path-292"><path class="cls-1" d="M759.79,379.59h3.49l-4.44-6.46-10.8,7.68,12.54,7.72-1.74,12.72,16.32,43V396.9c-8.51-1.86-15.38-17.32-15.38-17.32"/></clipPath><clipPath id="clip-path-294"><path class="cls-1" d="M790.55,379.59h-3.49l4.44-6.46,10.8,7.68-12.54,7.72,1.74,12.72-16.32,43V396.9c8.51-1.86,15.38-17.32,15.38-17.32"/></clipPath><clipPath id="clip-path-296"><path class="cls-1" d="M775.17,379.59H759.79s6.87,15.46,15.38,17.32c8.51-1.86,15.38-17.32,15.38-17.32Z"/></clipPath><clipPath id="clip-path-298"><path class="cls-1" d="M775.17,368.79l-15.38,10.8s8.1,10.52,15.38,10.52c2.24,0,10-3.38,15.38-10.52Z"/></clipPath><clipPath id="clip-path-300"><path class="cls-1" d="M741.62,336.88a6.89,6.89,0,1,0,0,9.75,6.88,6.88,0,0,0,0-9.75"/></clipPath><clipPath id="clip-path-302"><path class="cls-1" d="M818.46,336.88a6.89,6.89,0,1,0,0,9.75,6.88,6.88,0,0,0,0-9.75"/></clipPath><clipPath id="clip-path-304"><path class="cls-1" d="M783,382.32c10.66-3.68,21.74-9.1,26.86-19.15,3.54-6.95,3.67-15.07,3.74-22.87a105.25,105.25,0,0,0-.75-16.85,41,41,0,0,0-2-7.86,36.82,36.82,0,0,0-21-21.24,39.23,39.23,0,0,0-14.69-2.65l-6.82,59.45L775.17,384l.51,0a24.41,24.41,0,0,0,7.29-1.65"/></clipPath><clipPath id="clip-path-306"><path class="cls-1" d="M760,294.8a35.93,35.93,0,0,0-17.47,14.58c-5.3,9-5.65,20-5.6,30.41,0,9.51.45,20.08,6.58,27.9s17,12.93,26.37,15.41a22.67,22.67,0,0,0,5.47.87l-2.79-33.55,8.15-2.79-5.37-55.9A41.67,41.67,0,0,0,760,294.8"/></clipPath><clipPath id="clip-path-308"><path class="cls-1" d="M764.22,332a2.9,2.9,0,1,0-2.9,2.9,2.9,2.9,0,0,0,2.9-2.9"/></clipPath><clipPath id="clip-path-310"><path class="cls-1" d="M793.1,332a2.9,2.9,0,1,0-2.9,2.9,2.9,2.9,0,0,0,2.9-2.9"/></clipPath><clipPath id="clip-path-312"><path class="cls-1" d="M802.83,345c0,1.78-2.85,3.22-6.37,3.22s-6.37-1.44-6.37-3.22,2.85-3.22,6.37-3.22,6.37,1.44,6.37,3.22"/></clipPath><clipPath id="clip-path-314"><path class="cls-1" d="M748.9,345c0,1.78,2.85,3.22,6.37,3.22s6.37-1.44,6.37-3.22-2.85-3.22-6.37-3.22-6.37,1.44-6.37,3.22"/></clipPath><clipPath id="clip-path-316"><polygon class="cls-1" points="772.38 350.39 783.85 350.39 780.54 347.62 772.38 350.39"/></clipPath><clipPath id="clip-path-318"><path class="cls-1" d="M724.67,458.38h16.05v4.5H734l-2.16,14.82s-7.64-1.1-11.2-7.27Z"/></clipPath><clipPath id="clip-path-320"><path class="cls-1" d="M740.72,458.38a2.26,2.26,0,1,1-2.26,2.26,2.26,2.26,0,0,1,2.26-2.26"/></clipPath><clipPath id="clip-path-322"><path class="cls-1" d="M900.81,329.57a10.18,10.18,0,1,0-18.12,2.33h0l0,0,.05.08,3.61,5.35a37.92,37.92,0,0,1-21.94,35.82l5.83,11.16a50.43,50.43,0,0,0,15.9-12c9.07-10.2,12.72-22.32,12.21-35l2.44-7.79Z"/></clipPath><clipPath id="clip-path-324"><path class="cls-1" d="M883.31,305a2.32,2.32,0,0,0-2.32,2.32v21.72h4.64V307.34a2.32,2.32,0,0,0-2.32-2.32"/></clipPath><clipPath id="clip-path-326"><path class="cls-1" d="M894.58,324H880.44a.84.84,0,0,0-.83.66,12.17,12.17,0,0,0-.25,2.43,14.2,14.2,0,0,0,.63,4.19c.88,2.81,5.08,1.56,5.13-1.39A.84.84,0,0,1,886,329h8.6v0h0a2.53,2.53,0,1,0,0-5"/></clipPath><clipPath id="clip-path-328"><path class="cls-1" d="M775.17,375.27a17.74,17.74,0,0,0,17.73-17.74H757.44a17.74,17.74,0,0,0,17.73,17.74"/></clipPath><clipPath id="clip-path-330"><path class="cls-1" d="M775.71,311.21s-12.42,16.37-47.08,26.15c0,0-8.36-55.46,47.08-49.73Z"/></clipPath><clipPath id="clip-path-332"><path class="cls-1" d="M774.63,311.21s12.42,16.37,47.08,26.15c0,0,8.36-56.14-47.08-50.42Z"/></clipPath><clipPath id="clip-path-334"><path class="cls-1" d="M1464.72,473.63c10,64.16-33.48,125.61-33.48,125.61s-68.32,93.48-325.14,75.44V812s380,70.95,471.62-212.8c17.3-53.61,22.53-99.84,19.44-139.63-14.2-183-204.34-229.5-204.34-229.5S1459.44,439.69,1464.72,473.63Z"/></clipPath><clipPath id="clip-path-336"><path class="cls-1" d="M1106.51,673.81l-166.27-56-15.68,46.66,70,23.57L965.3,849.13s83,15.21,141.35-36.21Z"/></clipPath><clipPath id="clip-path-338"><path class="cls-1" d="M908.93,633.41a24.72,24.72,0,1,0,31.31-15.56,24.74,24.74,0,0,0-31.31,15.56"/></clipPath><clipPath id="clip-path-340"><path class="cls-1" d="M994.59,688.08,842.85,652.65,802.5,806.11S922.88,857,992,851.23l28.61-66.14Z"/></clipPath><clipPath id="clip-path-342"><path class="cls-1" d="M802.5,806.11c25.73,6.57,55.4-22.63,66.27-65.23s-1.18-82.46-26.91-89-55.4,22.63-66.27,65.23,1.18,82.46,26.91,89"/></clipPath><clipPath id="clip-path-344"><path class="cls-1" d="M463.74,454.7c-23.52,70.42,28.9,144.55,28.9,144.55S561,692.72,817.78,674.68V812s-380,70.95-471.62-212.8c-29.51-91.45-23.89-161.44-1.8-214.55,50.43-121.26,186.7-154.58,186.7-154.58S473,427.07,463.74,454.7Z"/></clipPath><clipPath id="clip-path-346"><path class="cls-1" d="M818.57,676.06l175.31,6.16-1.73,49.19-73.84-2.59L889.1,889.89s-74-13.36-113-72.66c-2.31-3.5,42.52-141.17,42.52-141.17"/></clipPath><clipPath id="clip-path-348"><path class="cls-1" d="M1017.72,707.81a24.72,24.72,0,1,1-23.84-25.59,24.73,24.73,0,0,1,23.84,25.59"/></clipPath><clipPath id="clip-path-350"><path class="cls-1" d="M918.32,728.82l154.49,20.26-16.2,157.85S926,912.2,863.4,882.47l-3.52-72Z"/></clipPath><clipPath id="clip-path-352"><path class="cls-1" d="M1056.61,906.94c-26.4-2.91-43.9-40.69-39.09-84.39s30.1-76.77,56.5-73.86,43.9,40.69,39.09,84.39-30.1,76.77-56.5,73.87"/></clipPath><clipPath id="clip-path-354"><polygon class="cls-1" points="2770.39 632.05 2770.39 702.82 3260.65 985.87 3750.91 702.82 3750.91 632.05 3260.65 349 2770.39 632.05"/></clipPath><clipPath id="clip-path-355"><polygon class="cls-1" points="3260.65 985.87 2770.39 702.82 2770.39 632.05 3260.65 915.11 3260.65 985.87"/></clipPath><clipPath id="clip-path-356"><polygon class="cls-1" points="3505.78 985.87 3750.91 985.87 3750.91 632.05 3260.65 632.05 3260.65 985.87 3505.78 985.87"/></clipPath><clipPath id="clip-path-357"><path class="cls-1" d="M3618.06,525.91a71.57,71.57,0,0,0-71.57,71.57h143.13a71.57,71.57,0,0,0-71.57-71.57"/></clipPath><clipPath id="clip-path-358"><path class="cls-1" d="M3570.94,567.95a39.38,39.38,0,0,0-39.38,39.38h78.76a39.38,39.38,0,0,0-39.38-39.38"/></clipPath><clipPath id="clip-path-359"><path class="cls-1" d="M3313.09,770.23a42.86,42.86,0,0,0-38.47,24,34.47,34.47,0,0,0-40.93-1.2,53.28,53.28,0,1,0-104.63,20.12H3356a42.9,42.9,0,0,0-42.9-42.9"/></clipPath><clipPath id="clip-path-360"><path class="cls-1" d="M2881.15,629.49h122.91a61.45,61.45,0,0,0-122.91,0Z"/></clipPath><clipPath id="clip-path-361"><path class="cls-1" d="M3218.2,495.18H3049.57S3024.43,608.46,3082,708.39h21.5S3004.9,533.2,3133.89,533.2s30.39,175.19,30.39,175.19h21.5c57.55-99.93,32.42-213.21,32.42-213.21"/></clipPath><clipPath id="clip-path-362"><path class="cls-1" d="M3196.08,293.6h-.19a99,99,0,0,0-93.61,66.8l.47-.1a99,99,0,0,1,93.33-66.7"/></clipPath><clipPath id="clip-path-363"><path class="cls-1" d="M3200.15,293.7c.9,0,1.82,0,2.72.07-.9,0-1.81,0-2.72-.07"/></clipPath><clipPath id="clip-path-364"><path class="cls-1" d="M3196.14,318.14a27.72,27.72,0,0,1,3.4.25,27.92,27.92,0,0,0-3.19-.27l-.2,0"/></clipPath><clipPath id="clip-path-365"><path class="cls-1" d="M3196.32,293.6h-.24a33.17,33.17,0,0,1,4.07.32,32.68,32.68,0,0,0-3.82-.33"/></clipPath><clipPath id="clip-path-366"><path class="cls-1" d="M3200.69,318.25c-.46,0-.93,0-1.39,0l1.39,0"/></clipPath><clipPath id="clip-path-367"><path class="cls-1" d="M3132,354.42l-29.23,5.89,0,.09,29.7-6a74.49,74.49,0,0,1,63.72-36.29h-.25a74.49,74.49,0,0,0-63.91,36.3"/></clipPath><clipPath id="clip-path-368"><path class="cls-1" d="M3238.72,303.12a98.49,98.49,0,0,0-37.69-9.39,98.44,98.44,0,0,1,37.62,9.56Z"/></clipPath><clipPath id="clip-path-369"><path class="cls-1" d="M3238.65,303.29a98.43,98.43,0,0,0-37.62-9.56l-.88,0c-1.35-.06-2.7-.1-4.07-.1a99,99,0,0,0-93.33,66.7l29.23-5.89a74.49,74.49,0,0,1,63.91-36.3h.44c1,0,2,0,3,.09h.45a74,74,0,0,1,29.33,7.51Z"/></clipPath><clipPath id="clip-path-370"><path class="cls-1" d="M3072.2,293.6a98.59,98.59,0,0,0-42.4,9.53l9.65,22.6a74.37,74.37,0,0,1,96.66,28.69l29.7,6a99,99,0,0,0-93.61-66.8"/></clipPath><clipPath id="clip-path-371"><path class="cls-1" d="M2973.21,392.58A99,99,0,0,0,3027.66,481l8-23.57a74.42,74.42,0,0,1,3.84-131.67l-9.65-22.6a99,99,0,0,0-56.59,89.46"/></clipPath><clipPath id="clip-path-372"><path class="cls-1" d="M3049.71,219.91s2.21,38.19,19.81,50.79l-2.84-24.39Z"/></clipPath><clipPath id="clip-path-373"><path class="cls-1" d="M3219.06,219.91s-2.21,38.19-19.81,50.79l2.84-24.39Z"/></clipPath><clipPath id="clip-path-374"><path class="cls-1" d="M3134.38,308.71,3095.86,287s-38.15,136.05-46.29,208.14h84.81Z"/></clipPath><clipPath id="clip-path-375"><path class="cls-1" d="M3133.89,308.71,3172.41,287s38.15,136.05,46.29,208.14h-84.81Z"/></clipPath><clipPath id="clip-path-376"><path class="cls-1" d="M3134.38,303.38h-30.08s13.44,30.21,30.08,33.85c16.64-3.63,30.08-33.85,30.08-33.85Z"/></clipPath><clipPath id="clip-path-377"><path class="cls-1" d="M3134.38,282.28l-30.08,21.1S3120.14,324,3134.39,324c4.38,0,19.63-6.61,30.08-20.57Z"/></clipPath><clipPath id="clip-path-378"><path class="cls-1" d="M3068.76,219.91a13.47,13.47,0,1,0,0,19.05,13.47,13.47,0,0,0,0-19.05"/></clipPath><clipPath id="clip-path-379"><path class="cls-1" d="M3219.06,219.91a13.47,13.47,0,1,0,0,19.05,13.47,13.47,0,0,0,0-19.05"/></clipPath><clipPath id="clip-path-380"><path class="cls-1" d="M3149.65,308.73c20.85-7.2,42.52-17.78,52.53-37.43,6.92-13.58,7.17-29.46,7.31-44.7.1-11,.19-22.13-1.46-32.93a80.29,80.29,0,0,0-3.83-15.36c-6.87-18.85-22.41-34.18-41.09-41.51a76.75,76.75,0,0,0-28.73-5.17L3121,247.83l13.34,64.1c.34,0,.67,0,1,0,4.89-.12,9.63-1.63,14.25-3.23"/></clipPath><clipPath id="clip-path-381"><path class="cls-1" d="M3104.78,137.66c-14,5.71-26.51,15.48-34.17,28.49-10.36,17.58-11,39-11,59.44.08,18.59.89,39.25,12.88,54.53s33.31,25.28,51.57,30.12a44.34,44.34,0,0,0,10.7,1.71l-5.45-65.58,16-5.45-10.5-109.27a81.54,81.54,0,0,0-30,6"/></clipPath><clipPath id="clip-path-382"><path class="cls-1" d="M3113,210.37a5.66,5.66,0,1,0-5.66,5.66,5.67,5.67,0,0,0,5.66-5.66"/></clipPath><clipPath id="clip-path-383"><path class="cls-1" d="M3169.45,210.37a5.66,5.66,0,1,0-5.66,5.66,5.66,5.66,0,0,0,5.66-5.66"/></clipPath><clipPath id="clip-path-384"><path class="cls-1" d="M3188.48,235.73c0,3.48-5.58,6.3-12.45,6.3s-12.46-2.82-12.46-6.3,5.58-6.3,12.46-6.3,12.45,2.82,12.45,6.3"/></clipPath><clipPath id="clip-path-385"><path class="cls-1" d="M3083,235.73c0,3.48,5.58,6.3,12.45,6.3s12.46-2.82,12.46-6.3-5.58-6.3-12.46-6.3-12.45,2.82-12.45,6.3"/></clipPath><clipPath id="clip-path-386"><polygon class="cls-1" points="3128.93 246.31 3151.36 246.31 3144.89 240.9 3128.93 246.31"/></clipPath><clipPath id="clip-path-387"><path class="cls-1" d="M3201.08,457.4h31.39l8,23.57c-7,12-21.91,14.2-21.91,14.2l-4.22-29h-12.77a4.28,4.28,0,0,1-.45,0,4.42,4.42,0,1,1,0-8.85"/></clipPath><clipPath id="clip-path-388"><path class="cls-1" d="M3167.9,121.16v.62c-1.4,2.6-14.07,25.63-31,38.24-6.34,4.73-13.27,8-20.43,8.16h42.87c5.43.12,8.57,2.09,10.88,4.57,4.21,4.52,5.58,10.76,12.62,10.76a14.54,14.54,0,0,1,10.14,3.56c4.7,4.24,5.18,10.75,5.18,10.75v31.62H3210q0-1.94,0-3.85c0-3.17,0-6.36-.06-9.56a13.39,13.39,0,0,1,7.62,2.64l1.52,1.24s0,0,0,0l.19.23a271.3,271.3,0,0,0,1.88-29.31c0-34.81-22-59.84-53.23-69.62"/></clipPath><clipPath id="clip-path-389"><path class="cls-1" d="M3148.51,115.39a138.06,138.06,0,0,0-14.41,0c-2.54.13-5.07.32-7.59.6a103.3,103.3,0,0,0-11,1.78c-.34.08-1.08.36-1.83.61l-1.93.36h0a94.08,94.08,0,0,0-16.21,4.65c-28.13,10.93-47.55,35-47.51,67.61,0,6.91.65,19.07,1.66,27.51,0,.47,0,.91,0,1.39l.15-.12c0,.17,0,.36.06.53.12-.13.21-.28.34-.41a13.25,13.25,0,0,1,8.23-3.79c.41,0,.81-.09,1.21-.07-.06,3.19-.07,6.38-.06,9.54q0,1.91,0,3.85h11.76V197.81a19,19,0,0,1,2.07-6.71l2.45-3.36.06-.08c2.28-2.33,5.7-3.52,10.75-4.15s7-6.27,11.42-10.52a16.85,16.85,0,0,1,12.09-4.8s26.9.1,30.75,0c38.14-.86,52.93-26.84,58.65-41.11,1.27-3.17,2.1-5.77,2.64-7.38a30.64,30.64,0,0,0,1-4.3Z"/></clipPath><clipPath id="clip-path-390"><path class="cls-1" d="M3198.14,229.43c0,22.25-40.62,22.85-58.33,22.06h-10c-17.7.79-58.33.18-58.33-22.06h-11.76c.21,17.55,1.68,36.45,12.85,50.68,11.91,15.18,33.31,25.28,51.57,30.12a34.37,34.37,0,0,0,21.41,0c18.25-4.84,39.66-14.95,51.57-30.12,11.17-14.23,12.63-33.13,12.84-50.68h-11.76Z"/></clipPath><clipPath id="clip-path-391"><path class="cls-1" d="M3134.38,294.94a34.68,34.68,0,0,0,34.68-34.68H3099.7a34.68,34.68,0,0,0,34.68,34.68"/></clipPath><clipPath id="clip-path-392"><path class="cls-1" d="M3238.65,303.29l-9.58,22.44a74,74,0,0,0-29.33-7.51,74.44,74.44,0,0,1,32.73,139.18l8,23.57a99,99,0,0,0-1.78-177.68"/></clipPath><clipPath id="clip-path-393"><path class="cls-1" d="M3111.77,228.11a1.7,1.7,0,1,0-1.7,1.7,1.7,1.7,0,0,0,1.7-1.7"/></clipPath><clipPath id="clip-path-394"><path class="cls-1" d="M3098.15,222.66a1.7,1.7,0,1,0-1.7,1.7,1.7,1.7,0,0,0,1.7-1.7"/></clipPath><clipPath id="clip-path-395"><path class="cls-1" d="M3122.67,222.66a1.7,1.7,0,1,0-1.7,1.7,1.7,1.7,0,0,0,1.7-1.7"/></clipPath><clipPath id="clip-path-396"><path class="cls-1" d="M3100.88,230.84a1.7,1.7,0,1,0-1.7,1.7,1.7,1.7,0,0,0,1.7-1.7"/></clipPath><clipPath id="clip-path-397"><path class="cls-1" d="M3092.7,236.29a1.7,1.7,0,1,0-1.7,1.7,1.7,1.7,0,0,0,1.7-1.7"/></clipPath><clipPath id="clip-path-398"><path class="cls-1" d="M3117.22,236.29a1.7,1.7,0,1,0-1.7,1.7,1.7,1.7,0,0,0,1.7-1.7"/></clipPath><clipPath id="clip-path-399"><path class="cls-1" d="M3163.51,228.11a1.7,1.7,0,1,1,1.7,1.7,1.7,1.7,0,0,1-1.7-1.7"/></clipPath><clipPath id="clip-path-400"><path class="cls-1" d="M3177.13,222.66a1.7,1.7,0,1,1,1.7,1.7,1.7,1.7,0,0,1-1.7-1.7"/></clipPath><clipPath id="clip-path-401"><path class="cls-1" d="M3152.61,222.66a1.7,1.7,0,1,1,1.7,1.7,1.7,1.7,0,0,1-1.7-1.7"/></clipPath><clipPath id="clip-path-402"><path class="cls-1" d="M3174.4,230.84a1.7,1.7,0,1,1,1.7,1.7,1.7,1.7,0,0,1-1.7-1.7"/></clipPath><clipPath id="clip-path-403"><path class="cls-1" d="M3182.58,236.29a1.7,1.7,0,1,1,1.7,1.7,1.7,1.7,0,0,1-1.7-1.7"/></clipPath><clipPath id="clip-path-404"><path class="cls-1" d="M3158.06,236.29a1.7,1.7,0,1,1,1.7,1.7,1.7,1.7,0,0,1-1.7-1.7"/></clipPath><clipPath id="clip-path-405"><path class="cls-1" d="M3049.57,495.18S3024.44,608.46,3082,708.39h21.5S3004.9,533.2,3133.89,533.2v-38Z"/></clipPath><clipPath id="clip-path-406"><path class="cls-1" d="M3218.2,495.18s25.14,113.28-32.42,213.21h-21.5s98.59-175.19-30.39-175.19v-38Z"/></clipPath><clipPath id="clip-path-407"><path class="cls-1" d="M3109.45,711.33a7.81,7.81,0,0,0-6.11-2.94H3082s-13.72,6.18-21-1.81a10.75,10.75,0,1,0-8.4,17.46h50.76a7.83,7.83,0,0,0,6.11-12.71"/></clipPath><clipPath id="clip-path-408"><path class="cls-1" d="M3158.33,711.33a7.81,7.81,0,0,1,6.11-2.94h21.35s13.72,6.18,21-1.81a10.75,10.75,0,1,1,8.4,17.46h-50.76a7.83,7.83,0,0,1-6.11-12.71"/></clipPath><clipPath id="clip-path-409"><path class="cls-1" d="M3067,457.4h-31.39l-8,23.57c7,12,21.91,14.2,21.91,14.2l4.22-29h12.77a4.28,4.28,0,0,0,.45,0,4.42,4.42,0,1,0,0-8.85"/></clipPath><clipPath id="clip-path-410"><rect class="cls-2" x="3282.68" y="119.27" width="95.11" height="186.11"/></clipPath><clipPath id="clip-path-411"><rect class="cls-2" x="3373.74" y="119.27" width="95.09" height="186.16"/></clipPath><clipPath id="clip-path-412"><path class="cls-1" d="M3456.11,491.63H3295.2s-24,108.09,30.93,203.44h20.52s-94.08-167.16,29-167.16,29,167.16,29,167.16h20.52c54.92-95.35,30.93-203.44,30.93-203.44"/></clipPath><clipPath id="clip-path-413"><path class="cls-1" d="M3295.2,491.63s-24,108.09,30.93,203.44h20.52s-94.08-167.16,29-167.16V491.63Z"/></clipPath><clipPath id="clip-path-414"><path class="cls-1" d="M3456.11,491.63s24,108.09-30.93,203.44h-20.52s94.08-167.16-29-167.16V491.63Z"/></clipPath><clipPath id="clip-path-415"><path class="cls-1" d="M3352.34,697.88a7.45,7.45,0,0,0-5.83-2.81h-20.37s-13.09,5.9-20-1.73a10.26,10.26,0,1,0-8,16.66h48.43a7.47,7.47,0,0,0,5.83-12.13"/></clipPath><clipPath id="clip-path-416"><path class="cls-1" d="M3399,697.88a7.46,7.46,0,0,1,5.83-2.81h20.37s13.09,5.9,20-1.73a10.26,10.26,0,1,1,8,16.66h-48.43a7.47,7.47,0,0,1-5.83-12.13"/></clipPath><clipPath id="clip-path-417"><path class="cls-1" d="M3468.83,212.35a93.08,93.08,0,0,0-93.08-93.08c-.68,0-1.34,0-2,.05L3350,197.67l23.77,107.71c.67,0,1.34.05,2,.05a93.08,93.08,0,0,0,93.08-93.08"/></clipPath><clipPath id="clip-path-418"><path class="cls-1" d="M3283.66,226s4.61,55.57-28.41,63c0,0,30.69,44.28,100.11,20.08l-10-46.77Z"/></clipPath><clipPath id="clip-path-419"><path class="cls-1" d="M3467.71,226s-4.61,55.57,28.41,63c0,0-30.69,44.28-100.11,20.08l10-46.77Z"/></clipPath><clipPath id="clip-path-420"><path class="cls-1" d="M3222.87,384.1a95.37,95.37,0,0,0-.52,9.88,94.19,94.19,0,0,0,51.82,84.13l7.57-22.44a70.69,70.69,0,0,1-35.35-71.58Z"/></clipPath><clipPath id="clip-path-421"><path class="cls-1" d="M3275.32,450.73c.88-4.94-2.11-9.56-4.59-12.11-3.12-3.21-5.85-6.58-12.9-5.68-4.15,6.11-10.51,12.42-16.67,17.63-.26,4.31-2,12.4.76,15.17s16.44,2.47,16.44,2.47Z"/></clipPath><clipPath id="clip-path-422"><path class="cls-1" d="M3341.81,303.2l-4.79,23a71.19,71.19,0,0,1,40.38,31.5l28.27,5.69a94.42,94.42,0,0,0-63.85-60.15"/></clipPath><clipPath id="clip-path-423"><path class="cls-1" d="M3316.57,299.77a94.22,94.22,0,0,0-93.69,84.33h23.53A70.76,70.76,0,0,1,3337,326.16l4.79-23a94.23,94.23,0,0,0-25.25-3.44"/></clipPath><clipPath id="clip-path-424"><path class="cls-1" d="M3375.28,314.15l36.66-20.63S3448.25,423,3456,491.63h-80.72Z"/></clipPath><clipPath id="clip-path-425"><path class="cls-1" d="M3384.19,325.71a94.05,94.05,0,0,0-16,25.34l18.77,16.7a70.45,70.45,0,0,1,15-26.94l.48-.51-21.22-3.75Z"/></clipPath><clipPath id="clip-path-426"><path class="cls-1" d="M3500.2,302.78c-19.73-4.74-38.71-11.11-59.31-8a93.82,93.82,0,0,0-56.35,30.54l-.35.41-2.95,10.84,21.22,3.75a71.36,71.36,0,0,1,55.94-23.14c23.29,1.12,43.6,12.57,67.64,9a94.26,94.26,0,0,0,26.76-8.21l-10.86-20.76a71.38,71.38,0,0,1-41.73,5.63"/></clipPath><clipPath id="clip-path-427"><path class="cls-1" d="M3375.75,314.15l-36.66-20.63S3302.78,423,3295,491.63h80.72Z"/></clipPath><clipPath id="clip-path-428"><path class="cls-1" d="M3347.13,309.08h6.5l-8.26-12-20.1,14.29,23.34,14.37-3.24,23.67,30.38,80v-88c-15.83-3.46-28.63-32.22-28.63-32.22"/></clipPath><clipPath id="clip-path-429"><path class="cls-1" d="M3404.38,309.08h-6.5l8.26-12,20.1,14.29-23.34,14.37,3.24,23.67-30.38,80v-88c15.83-3.46,28.63-32.22,28.63-32.22"/></clipPath><clipPath id="clip-path-430"><path class="cls-1" d="M3375.75,309.08h-28.63s12.79,28.76,28.63,32.22c15.83-3.46,28.63-32.22,28.63-32.22Z"/></clipPath><clipPath id="clip-path-431"><path class="cls-1" d="M3375.75,289l-28.63,20.08s15.07,19.58,28.63,19.58c4.16,0,18.69-6.29,28.63-19.58Z"/></clipPath><clipPath id="clip-path-432"><path class="cls-1" d="M3313.29,229.63a12.82,12.82,0,1,0,0,18.13,12.82,12.82,0,0,0,0-18.13"/></clipPath><clipPath id="clip-path-433"><path class="cls-1" d="M3456.35,229.63a12.82,12.82,0,1,0,0,18.13,12.82,12.82,0,0,0,0-18.13"/></clipPath><clipPath id="clip-path-434"><path class="cls-1" d="M3390.28,314.17c19.84-6.85,40.47-16.92,50-35.63,6.58-12.93,6.82-28,7-42.54.1-10.44.19-21.07-1.39-31.34A76.32,76.32,0,0,0,3442.2,190c-6.53-17.94-21.33-32.53-39.1-39.51a73.08,73.08,0,0,0-27.34-4.92l-12.7,110.59,12.7,61c.32,0,.64,0,1,0,4.65-.11,9.17-1.56,13.57-3.08"/></clipPath><clipPath id="clip-path-435"><path class="cls-1" d="M3347.57,151.35c-13.3,5.44-25.23,14.74-32.53,27.12-9.86,16.73-10.51,37.15-10.43,56.57.07,17.69.84,37.36,12.25,51.9S3348.58,311,3366,315.61a42.22,42.22,0,0,0,10.19,1.63L3371,254.81l15.18-5.19-10-104a77.62,77.62,0,0,0-28.56,5.72"/></clipPath><clipPath id="clip-path-436"><path class="cls-1" d="M3355.36,220.56A5.39,5.39,0,1,0,3350,226a5.39,5.39,0,0,0,5.39-5.39"/></clipPath><clipPath id="clip-path-437"><path class="cls-1" d="M3409.13,220.56a5.39,5.39,0,1,0-5.39,5.39,5.39,5.39,0,0,0,5.39-5.39"/></clipPath><clipPath id="clip-path-438"><path class="cls-1" d="M3427.24,244.7c0,3.31-5.31,6-11.85,6s-11.86-2.68-11.86-6,5.31-6,11.86-6,11.85,2.68,11.85,6"/></clipPath><clipPath id="clip-path-439"><path class="cls-1" d="M3326.85,244.7c0,3.31,5.31,6,11.85,6s11.85-2.68,11.85-6-5.31-6-11.85-6-11.85,2.68-11.85,6"/></clipPath><clipPath id="clip-path-440"><polygon class="cls-1" points="3370.57 254.76 3391.91 254.76 3385.75 249.62 3370.57 254.76"/></clipPath><clipPath id="clip-path-441"><path class="cls-1" d="M3281.75,455.67h29.88v8.38H3299l-4,27.58s-14.22-2.05-20.86-13.52Z"/></clipPath><clipPath id="clip-path-442"><path class="cls-1" d="M3311.63,455.67a4.21,4.21,0,1,1-4.21,4.21,4.21,4.21,0,0,1,4.21-4.21"/></clipPath><clipPath id="clip-path-443"><path class="cls-1" d="M3609.64,216a19,19,0,1,0-33.74,4.33h0l0,.07.1.14,6.73,10a70.55,70.55,0,0,1-40.84,66.63l10.86,20.76a93.87,93.87,0,0,0,29.6-22.33c16.89-19,23.68-41.53,22.72-65.06l4.54-14.5Z"/></clipPath><clipPath id="clip-path-444"><path class="cls-1" d="M3577.07,170.35a4.32,4.32,0,0,0-4.32,4.32v40.41h8.64V174.68a4.32,4.32,0,0,0-4.32-4.32"/></clipPath><clipPath id="clip-path-445"><path class="cls-1" d="M3598.06,205.64h-26.34a1.56,1.56,0,0,0-1.54,1.22,22.63,22.63,0,0,0-.47,4.53,26.41,26.41,0,0,0,1.17,7.79c1.64,5.23,9.45,2.9,9.55-2.59a1.56,1.56,0,0,1,1.56-1.53h16V215h0c2.88,0,5.21-1.77,5.21-4.65s-2.33-4.7-5.21-4.7"/></clipPath><clipPath id="clip-path-446"><path class="cls-1" d="M3375.75,301a33,33,0,0,0,33-33h-66a33,33,0,0,0,33,33"/></clipPath><clipPath id="clip-path-447"><path class="cls-1" d="M3376.76,181.88s-23.12,30.46-87.65,48.64c0,0-15.56-103.17,87.65-92.52Z"/></clipPath><clipPath id="clip-path-448"><path class="cls-1" d="M3374.74,181.88s23.12,30.46,87.65,48.64c0,0,15.56-104.45-87.65-93.8Z"/></clipPath><clipPath id="clip-path-449"><polygon class="cls-1" points="5045.71 632.1 5045.71 702.74 5535.08 985.28 6024.45 702.74 6024.45 632.1 5535.08 349.56 5045.71 632.1"/></clipPath><clipPath id="clip-path-450"><polygon class="cls-1" points="5535.08 985.28 5045.71 702.74 5045.71 632.1 5535.08 914.64 5535.08 985.28"/></clipPath><clipPath id="clip-path-451"><polygon class="cls-1" points="5779.77 985.28 6024.45 985.28 6024.45 632.1 5535.08 632.1 5535.08 985.28 5779.77 985.28"/></clipPath><clipPath id="clip-path-452"><path class="cls-1" d="M5495.82,701.84l-165,95.17,94.05,54.3,201.18-116a53.29,53.29,0,0,0-2.91-95.35L5519,579.84l-94.05,54.3,70.37,40.6a16.17,16.17,0,0,1,.51,27.1Z"/></clipPath><clipPath id="clip-path-453"><polygon class="cls-1" points="5380.85 827.09 5436.99 794.28 5427.49 789.32 5371.58 821.7 5380.85 827.09"/></clipPath><clipPath id="clip-path-454"><polygon class="cls-1" points="5485.59 763.08 5541.74 730.27 5532.23 725.31 5476.32 757.69 5485.59 763.08"/></clipPath><clipPath id="clip-path-455"><path class="cls-1" d="M5572.88,710.71s19.45-13.41,26-17.76,5.11-14.73-1.54-19.13-22.3-14.76-23.14-14.35-8.4,5.49-8.4,5.49,18.78,11.38,21.21,12.79,9.57,6,2.88,10.14-26.29,17.43-26.29,17.43Z"/></clipPath><clipPath id="clip-path-456"><polyline class="cls-1" points="5526.65 640.88 5470.5 608.07 5480.01 603.11 5535.92 635.49"/></clipPath><clipPath id="clip-path-457"><polygon class="cls-1" points="5516.89 525.64 5516.79 273.6 5437.86 228.03 5438 480.04 5516.89 525.64"/></clipPath><clipPath id="clip-path-458"><polygon class="cls-1" points="5595.73 228.03 5516.79 273.6 5516.89 525.64 5595.88 480.04 5595.73 228.03"/></clipPath><clipPath id="clip-path-459"><polygon class="cls-1" points="5437.86 228.03 5516.79 182.46 5595.73 228.03 5516.79 273.6 5437.86 228.03"/></clipPath><clipPath id="clip-path-460"><polygon class="cls-1" points="5477.24 227.99 5477.24 159.59 5516.78 182.42 5516.78 250.81 5477.24 227.99"/></clipPath><clipPath id="clip-path-461"><polygon class="cls-1" points="5556.24 159.59 5516.78 182.42 5516.78 250.81 5556.24 227.99 5556.24 159.59"/></clipPath><clipPath id="clip-path-462"><polygon class="cls-1" points="5516.78 182.42 5556.24 159.59 5516.78 136.76 5477.24 159.59 5516.78 182.42"/></clipPath><clipPath id="clip-path-463"><polygon class="cls-1" points="5506.33 160.24 5506.33 72.56 5516.75 78.58 5516.75 166.25 5506.33 160.24"/></clipPath><clipPath id="clip-path-464"><polygon class="cls-1" points="5527.15 72.56 5516.75 78.58 5516.75 166.25 5527.15 160.24 5527.15 72.56"/></clipPath><clipPath id="clip-path-465"><rect class="cls-2" x="5506.33" y="66.54" width="20.82" height="12.03"/></clipPath><clipPath id="clip-path-466"><polygon class="cls-1" points="5638 479.23 5637.93 308.77 5584.02 277.95 5584.12 448.39 5638 479.23"/></clipPath><clipPath id="clip-path-467"><polygon class="cls-1" points="5691.84 277.95 5637.93 308.77 5638 479.23 5691.94 448.39 5691.84 277.95"/></clipPath><clipPath id="clip-path-468"><polygon class="cls-1" points="5584.02 277.95 5637.93 247.13 5691.84 277.95 5637.93 308.77 5584.02 277.95"/></clipPath><clipPath id="clip-path-469"><polygon class="cls-1" points="5414.83 491.15 5414.77 326.38 5362.78 296.58 5362.88 461.34 5414.83 491.15"/></clipPath><clipPath id="clip-path-470"><polygon class="cls-1" points="5466.75 296.58 5414.77 326.38 5414.83 491.15 5466.84 461.34 5466.75 296.58"/></clipPath><clipPath id="clip-path-471"><polygon class="cls-1" points="5362.78 296.58 5414.76 266.79 5466.75 296.58 5414.76 326.38 5362.78 296.58"/></clipPath><clipPath id="clip-path-472"><path class="cls-1" d="M5923.45,549.57c-26.79-16.65-113.34-38.16-234.91-38.65l-63.92-75.18a71.3,71.3,0,0,0-54-25.12l-300.07-1.22a57,57,0,0,0-40.4,16.54l-72.23,71.65A57.06,57.06,0,0,0,5142.79,524l-10.6,41.67,213.49,100.69,598.9,2.44.33-80.61a45.23,45.23,0,0,0-21.45-38.64"/></clipPath><clipPath id="clip-path-473"><path class="cls-1" d="M5624.62,435.73a71.29,71.29,0,0,0-54-25.12l-300.07-1.22a57,57,0,0,0-40.4,16.54L5161,494.51l37.29.15a356.67,356.67,0,0,1,39.36,2.34l108.66,12.52,342.23,1.39Z"/></clipPath><clipPath id="clip-path-474"><path class="cls-1" d="M5602,510.56l-236.76-1a341.94,341.94,0,0,1-37.78-2.25l-74.18-8.55a19.55,19.55,0,0,1-13-31.69l26.43-32.77a28.55,28.55,0,0,1,22.31-10.61l243.87,1a28.51,28.51,0,0,1,21.87,10.35l52.75,63.82a7.13,7.13,0,0,1-5.52,11.67"/></clipPath><clipPath id="clip-path-475"><path class="cls-1" d="M5944.86,597.51c.12-28.52-42.55-57.21-242.18-58l-556.12-2.27a14.26,14.26,0,0,0-14.32,14.2l-.3,71.3,270.82,29.62,541.86,2.2Z"/></clipPath><clipPath id="clip-path-476"><path class="cls-1" d="M5944.69,640.29,5276,637.57l-126.69-28.69a14.26,14.26,0,1,0-6.29,27.81l128.22,29a14,14,0,0,0,3.09.36l670.2,2.73a14.26,14.26,0,0,0,.12-28.52"/></clipPath><clipPath id="clip-path-477"><path class="cls-1" d="M5253.33,579.25a65.36,65.36,0,1,1-65.62,65.09,65.36,65.36,0,0,1,65.62-65.09"/></clipPath><clipPath id="clip-path-478"><path class="cls-1" d="M5253.27,594.7a49.91,49.91,0,1,0,49.7,50.11,50,50,0,0,0-49.7-50.11M5252.75,723a78.43,78.43,0,1,1,78.74-78.11A78.51,78.51,0,0,1,5252.75,723"/></clipPath><clipPath id="clip-path-479"><path class="cls-1" d="M5253.18,616.09a28.52,28.52,0,1,1-28.63,28.4,28.52,28.52,0,0,1,28.63-28.4"/></clipPath><clipPath id="clip-path-480"><path class="cls-1" d="M5702.38,610.79l-342.23-1.39a14.26,14.26,0,0,1,.12-28.52l342.23,1.39a14.26,14.26,0,0,1-.12,28.52"/></clipPath><clipPath id="clip-path-481"><path class="cls-1" d="M5944.8,611.78l-14.26-.06a14.26,14.26,0,0,1,.12-28.52l14.26.06a14.26,14.26,0,0,1-.12,28.52"/></clipPath><clipPath id="clip-path-482"><rect class="cls-2" x="5417.77" y="452.94" width="85.56" height="28.52" transform="translate(4971.28 5925.82) rotate(-89.77)"/></clipPath><clipPath id="clip-path-483"><path class="cls-1" d="M5929.73,554.67l-13.21-.05a14.26,14.26,0,0,0-.12,28.52l27.88.11a44.67,44.67,0,0,0-14.55-28.58"/></clipPath><clipPath id="clip-path-484"><path class="cls-1" d="M5624.62,435.73a71.26,71.26,0,0,0-11.32-10.68L5590,425a7.13,7.13,0,0,0-5.52,11.67l52.75,63.82a28.52,28.52,0,0,0,21.87,10.35l29.42.12Z"/></clipPath><clipPath id="clip-path-485"><polygon class="cls-1" points="5318.82 506.35 5346.65 423.97 5318.13 423.85 5278.79 501.74 5318.82 506.35"/></clipPath><clipPath id="clip-path-486"><path class="cls-1" d="M5142.79,524l-3.36,13.18,35.64.15a14.26,14.26,0,1,0,.12-28.52l-25.94-.11a56.9,56.9,0,0,0-6.46,15.3"/></clipPath><clipPath id="clip-path-487"><path class="cls-1" d="M5809.45,581.51a65.36,65.36,0,1,1-65.62,65.09,65.36,65.36,0,0,1,65.62-65.09"/></clipPath><clipPath id="clip-path-488"><path class="cls-1" d="M5809.39,597a49.91,49.91,0,1,0,49.7,50.11,50,50,0,0,0-49.7-50.11m-.52,128.34a78.43,78.43,0,1,1,78.74-78.11,78.51,78.51,0,0,1-78.74,78.11"/></clipPath><clipPath id="clip-path-489"><path class="cls-1" d="M5809.3,618.35a28.52,28.52,0,1,1-28.63,28.4,28.52,28.52,0,0,1,28.63-28.4"/></clipPath><clipPath id="clip-path-490"><polyline class="cls-1" points="-1837.28 1781.54 -1837.43 1961.19 -1759.73 2006.04 -1759.73 2006.23 -1759.57 2006.13 -1759.4 2006.23 -1759.41 2006.04 -1681.71 1961.19 -1681.87 1781.54 -1759.33 1826.36"/></clipPath><clipPath id="clip-path-491"><polygon class="cls-1" points="-1837.28 1781.54 -1759.81 1826.36 -1759.4 2006.23 -1837.43 1961.19 -1837.28 1781.54"/></clipPath><clipPath id="clip-path-492"><polygon class="cls-1" points="-1681.87 1781.54 -1759.33 1826.36 -1759.73 2006.23 -1681.71 1961.19 -1681.87 1781.54"/></clipPath><clipPath id="clip-path-493"><polygon class="cls-1" points="-1535.88 2102.22 -1535.88 1778.01 -1255.06 1615.9 -1255.06 1940.11 -1535.88 2102.22"/></clipPath><clipPath id="clip-path-494"><polygon class="cls-1" points="-1240.97 1927.78 -1535.03 1871.3 -1535.19 1967.81 -1488.89 2087.46 -1240.97 1927.78"/></clipPath><clipPath id="clip-path-495"><polygon class="cls-1" points="-1257.28 1633.02 -1591.97 1633.02 -1759.65 1729.96 -1508.44 1778.01 -1257.28 1633.02"/></clipPath><clipPath id="clip-path-496"><polygon class="cls-1" points="-1380.28 1764.11 -1676.79 1781.96 -1670.31 1843.73 -1393.77 1923.15 -1380.28 1764.11"/></clipPath><clipPath id="clip-path-497"><path class="cls-1" d="M-1337.12,1845.79c-1.84,44.11-25.41,79-52.64,77.82s-47.81-37.82-46-81.94,25.41-79,52.64-77.81,47.81,37.82,46,81.93"/></clipPath><clipPath id="clip-path-498"><polygon class="cls-1" points="-1508.42 1778.17 -1759.57 1729.96 -1759.73 1826.47 -1508.42 2067.97 -1508.42 1778.17"/></clipPath><clipPath id="clip-path-499"><polygon class="cls-1" points="-1208.74 1583.58 -1240.97 1564.93 -1553.22 1745.17 -1520.99 1763.83 -1208.74 1583.58"/></clipPath><clipPath id="clip-path-500"><polygon class="cls-1" points="-1208.74 1902.85 -1240.97 1884.2 -1553.22 2064.45 -1520.99 2083.1 -1208.74 1902.85"/></clipPath><clipPath id="clip-path-501"><polygon class="cls-1" points="-1553.22 2105.67 -1520.99 2124.33 -1520.99 1763.83 -1553.22 1745.18 -1553.22 2105.67"/></clipPath><clipPath id="clip-path-502"><polygon class="cls-1" points="-1273.19 1902.67 -1240.97 1921.33 -1240.97 1622.7 -1273.19 1634.58 -1273.19 1902.67"/></clipPath><clipPath id="clip-path-503"><path class="cls-1" d="M-1208.74,1625.12V1584l-.13.07V1584l-32.1,18.53v.07l-247.93,143.12v-.37l-32.1,18.53v360.49l280-161.65v.16l32.1-18.57v-.11l.13-.07v-41.16l-.13.07V1625.2Zm-32.23,296.4-247.93,143.12V1786.85L-1241,1643.73Z"/></clipPath><clipPath id="clip-path-504"><polygon class="cls-1" points="-1591.57 1632.94 -1703.66 1568.36 -1871.64 1665.32 -1759.65 1729.96 -1591.57 1632.94"/></clipPath><clipPath id="clip-path-505"><polygon class="cls-1" points="-1871.53 1665.66 -1759.59 1729.99 -1759.41 1826.47 -1871.75 1762.12 -1871.53 1665.66"/></clipPath><clipPath id="clip-path-506"><polygon class="cls-1" points="-1075.85 1847.54 -1074.17 1783.66 -1169.01 1840.41 -1167.04 1765.81 -1025.28 1699.56 -1026.73 1754.58 -894.7 1703 -1075.85 1847.54"/></clipPath><clipPath id="clip-path-507"><polygon class="cls-1" points="-1329.06 2133.83 -1265.17 2135.51 -1321.94 2040.69 -1247.32 2042.66 -1181.06 2184.4 -1236.09 2182.95 -1184.5 2314.96 -1329.06 2133.83"/></clipPath><clipPath id="clip-path-508"><polygon class="cls-1" points="-1075.85 1937.64 -1074.17 2001.52 -1169.01 1944.76 -1167.04 2019.37 -1025.28 2085.62 -1026.73 2030.6 -894.7 2082.18 -1075.85 1937.64"/></clipPath></defs><title>ilustracoes_caixa_am5SVG</title><g class="cls-100"><g class="cls-101"><rect class="cls-102" x="297.59" y="195.48" width="579.29" height="652.68"/></g></g><g class="cls-103"><g class="cls-101"><rect class="cls-104" x="1047.01" y="195.48" width="579.29" height="652.68"/></g></g><g class="cls-105"><g class="cls-101"><rect class="cls-106" x="441.64" y="229.95" width="1040.83" height="696.3"/></g></g><g class="cls-107"><g class="cls-101"><rect class="cls-108" x="441.64" y="514.27" width="548.71" height="411.98"/></g></g><g class="cls-109"><g class="cls-101"><rect class="cls-110" x="933.76" y="514.27" width="548.71" height="411.98"/></g></g><g class="cls-111"><g class="cls-101"><rect class="cls-112" x="441.1" y="514.33" width="549.21" height="412.34"/></g></g><g class="cls-113"><g class="cls-101"><g class="cls-114"><g class="cls-115"><g class="cls-116"><g class="cls-115"><rect class="cls-117" x="933.72" y="514.33" width="549.21" height="412.34"/></g></g></g></g></g></g><g class="cls-118"><g class="cls-101"><rect class="cls-119" x="748.99" y="265.29" width="302.9" height="412.34"/></g></g><g class="cls-120"><g class="cls-101"><rect class="cls-121" x="995.3" y="253.04" width="241.32" height="424.58"/></g></g><g class="cls-122"><g class="cls-101"><rect class="cls-123" x="732.19" y="105.17" width="420.81" height="384.03"/></g></g><g class="cls-124"><g class="cls-101"><rect class="cls-110" x="1056.84" y="407.6" width="118.2" height="234.46"/></g></g><g class="cls-125"><g class="cls-101"><rect class="cls-126" x="902.93" y="425.25" width="118.16" height="163.31"/></g></g><g class="cls-127"><g class="cls-101"><rect class="cls-126" x="780.01" y="354.23" width="118.16" height="163.31"/></g></g><g class="cls-128"><g class="cls-101"><g class="cls-114"><g class="cls-129"><g class="cls-130"><g class="cls-131"><rect class="cls-119" x="869.46" y="223.18" width="101.43" height="154.06"/></g></g><g class="cls-132"><g class="cls-131"><rect class="cls-121" x="914.3" y="223.61" width="101.43" height="153.62"/></g></g><g class="cls-133"><g class="cls-131"><rect class="cls-134" x="869.46" y="197.33" width="146.28" height="108.34"/></g></g><g class="cls-135"><g class="cls-131"><rect class="cls-117" x="1264.06" y="432.25" width="200.41" height="128.54"/></g></g><g class="cls-136"><g class="cls-131"><rect class="cls-137" x="1249.05" y="474.52" width="135.73" height="96.18"/></g></g><g class="cls-138"><g class="cls-131"><rect class="cls-117" x="800.46" y="632.36" width="285.65" height="120.62"/></g></g><g class="cls-139"><g class="cls-131"><rect class="cls-140" x="646.68" y="430.09" width="180.08" height="118.37"/></g></g><g class="cls-141"><g class="cls-131"><rect class="cls-142" x="1236.2" y="378.48" width="69.74" height="221.43"/></g></g><g class="cls-143"><g class="cls-131"><rect class="cls-137" x="1164.64" y="300.29" width="212.86" height="212.97"/></g></g><g class="cls-144"><g class="cls-131"><rect class="cls-123" x="1056.84" y="549.88" width="241.39" height="163.33"/></g></g><g class="cls-145"><g class="cls-131"><rect class="cls-146" x="1180.04" y="621.03" width="118.2" height="163.33"/></g></g></g></g></g></g><g class="cls-147"><g class="cls-101"><rect class="cls-148" x="569.11" y="445.46" width="155.96" height="174.66"/></g></g><g class="cls-149"><g class="cls-101"><rect class="cls-150" x="601.31" y="333.82" width="108.5" height="93.58"/></g></g><g class="cls-151"><g class="cls-101"><rect class="cls-150" x="655.47" y="333.88" width="58.09" height="56.62"/></g></g><g class="cls-152"><g class="cls-101"><rect class="cls-150" x="653.25" y="347.4" width="58.46" height="56.73"/></g></g><g class="cls-153"><g class="cls-101"><rect class="cls-150" x="653.22" y="333.82" width="58.83" height="56.77"/></g></g><g class="cls-154"><g class="cls-101"><rect class="cls-150" x="655" y="347.45" width="57.35" height="56.61"/></g></g><g class="cls-155"><g class="cls-101"><rect class="cls-150" x="601.55" y="347.4" width="108.29" height="80"/></g></g><g class="cls-156"><g class="cls-101"><rect class="cls-150" x="655.96" y="333.9" width="77.44" height="61.88"/></g></g><g class="cls-157"><g class="cls-101"><rect class="cls-146" x="601.57" y="333.83" width="131.8" height="93.52"/></g></g><g class="cls-158"><g class="cls-101"><rect class="cls-123" x="561.2" y="333.82" width="131.85" height="93.58"/></g></g><g class="cls-159"><g class="cls-101"><rect class="cls-160" x="529.88" y="339.1" width="93.24" height="155.08"/></g></g><g class="cls-161"><g class="cls-101"><rect class="cls-162" x="572.21" y="293.01" width="67.55" height="84.71"/></g></g><g class="cls-163"><g class="cls-101"><rect class="cls-164" x="654.98" y="293.01" width="67.55" height="84.71"/></g></g><g class="cls-165"><g class="cls-101"><rect class="cls-123" x="572.14" y="330.19" width="103.52" height="171.86"/></g></g><g class="cls-166"><g class="cls-101"><rect class="cls-146" x="618.8" y="330.19" width="103.52" height="171.86"/></g></g><g class="cls-167"><g class="cls-101"><rect class="cls-168" x="602.43" y="339.24" width="89.88" height="75.33"/></g></g><g class="cls-169"><g class="cls-101"><rect class="cls-170" x="602.43" y="327.56" width="89.88" height="79.66"/></g></g><g class="cls-171"><g class="cls-101"><rect class="cls-160" x="570.03" y="290.83" width="71.5" height="71.51"/></g></g><g class="cls-172"><g class="cls-101"><rect class="cls-168" x="653.21" y="290.83" width="71.5" height="71.51"/></g></g><g class="cls-173"><g class="cls-101"><rect class="cls-168" x="611.7" y="244.12" width="105.56" height="156.46"/></g></g><g class="cls-174"><g class="cls-101"><rect class="cls-160" x="577.71" y="244.13" width="103.99" height="156.44"/></g></g><g class="cls-175"><g class="cls-101"><rect class="cls-176" x="600.95" y="284.6" width="62.85" height="62.86"/></g></g><g class="cls-177"><g class="cls-101"><rect class="cls-176" x="632.22" y="284.6" width="62.85" height="62.86"/></g></g><g class="cls-178"><g class="cls-101"><rect class="cls-170" x="635.23" y="298.29" width="70.37" height="63.56"/></g></g><g class="cls-179"><g class="cls-101"><rect class="cls-168" x="590.64" y="298.29" width="70.37" height="63.56"/></g></g><g class="cls-180"><g class="cls-101"><rect class="cls-170" x="616.06" y="304.64" width="68.99" height="59.58"/></g></g><g class="cls-181"><g class="cls-101"><rect class="cls-160" x="653.54" y="424.54" width="80.81" height="77.51"/></g></g><g class="cls-182"><g class="cls-101"><rect class="cls-164" x="609.17" y="238.32" width="114.5" height="116.55"/></g></g><g class="cls-183"><g class="cls-101"><rect class="cls-162" x="571.29" y="235.03" width="142.5" height="119.85"/></g></g><g class="cls-184"><g class="cls-101"><rect class="cls-162" x="577.73" y="298.29" width="139.73" height="102.28"/></g></g><g class="cls-185"><g class="cls-101"><rect class="cls-186" x="599.88" y="315.36" width="94.97" height="75.79"/></g></g><g class="cls-187"><g class="cls-101"><rect class="cls-160" x="655.25" y="339.19" width="109.23" height="154.99"/></g></g><g class="cls-188"><g class="cls-101"><rect class="cls-170" x="604.68" y="296.62" width="58.46" height="58.47"/></g></g><g class="cls-189"><g class="cls-101"><rect class="cls-170" x="597.14" y="293.6" width="58.46" height="58.47"/></g></g><g class="cls-190"><g class="cls-101"><rect class="cls-170" x="610.72" y="293.6" width="58.46" height="58.47"/></g></g><g class="cls-191"><g class="cls-101"><rect class="cls-170" x="598.65" y="298.13" width="58.46" height="58.47"/></g></g><g class="cls-192"><g class="cls-101"><rect class="cls-170" x="594.13" y="301.14" width="58.46" height="58.47"/></g></g><g class="cls-193"><g class="cls-101"><rect class="cls-170" x="607.7" y="301.14" width="58.46" height="58.47"/></g></g><g class="cls-194"><g class="cls-101"><rect class="cls-195" x="635.2" y="296.62" width="58.46" height="58.47"/></g></g><g class="cls-196"><g class="cls-101"><rect class="cls-195" x="642.74" y="293.6" width="58.46" height="58.47"/></g></g><g class="cls-197"><g class="cls-101"><rect class="cls-195" x="629.16" y="293.6" width="58.46" height="58.47"/></g></g><g class="cls-198"><g class="cls-101"><rect class="cls-195" x="641.23" y="298.13" width="58.46" height="58.47"/></g></g><g class="cls-199"><g class="cls-101"><rect class="cls-195" x="645.75" y="301.14" width="58.46" height="58.47"/></g></g><g class="cls-200"><g class="cls-101"><rect class="cls-195" x="632.18" y="301.14" width="58.46" height="58.47"/></g></g><g class="cls-201"><g class="cls-101"><rect class="cls-202" x="569.11" y="445.46" width="106.27" height="174.66"/></g></g><g class="cls-203"><g class="cls-101"><rect class="cls-148" x="618.8" y="445.46" width="106.27" height="174.66"/></g></g><g class="cls-204"><g class="cls-101"><rect class="cls-205" x="567.85" y="560.3" width="94.96" height="68.49"/></g></g><g class="cls-206"><g class="cls-101"><rect class="cls-207" x="631.38" y="560.3" width="94.96" height="68.49"/></g></g><g class="cls-208"><g class="cls-101"><rect class="cls-160" x="560.01" y="424.54" width="80.81" height="77.51"/></g></g><g class="cls-209"><g class="cls-101"><g class="cls-114"><g class="cls-210"><g class="cls-211"><g class="cls-210"><rect class="cls-212" x="696.88" y="249.26" width="107.67" height="156.62"/></g></g></g></g></g></g><g class="cls-213"><g class="cls-101"><g class="cls-114"><g class="cls-214"><g class="cls-215"><g class="cls-216"><rect class="cls-217" x="745.8" y="249.26" width="107.67" height="156.65"/></g></g></g></g></g></g><g class="cls-218"><g class="cls-101"><rect class="cls-148" x="700.81" y="449.42" width="148.62" height="165.94"/></g></g><g class="cls-219"><g class="cls-101"><rect class="cls-220" x="700.81" y="449.42" width="102.6" height="165.94"/></g></g><g class="cls-221"><g class="cls-101"><rect class="cls-222" x="746.83" y="449.42" width="102.6" height="165.94"/></g></g><g class="cls-223"><g class="cls-101"><rect class="cls-205" x="699.64" y="555.77" width="92.12" height="67.61"/></g></g><g class="cls-224"><g class="cls-101"><rect class="cls-207" x="758.48" y="555.77" width="92.12" height="67.61"/></g></g><g class="cls-225"><g class="cls-101"><rect class="cls-217" x="733.03" y="249.27" width="120.43" height="156.65"/></g></g><g class="cls-226"><g class="cls-101"><rect class="cls-212" x="682.15" y="306.61" width="110.36" height="105.16"/></g></g><g class="cls-227"><g class="cls-101"><rect class="cls-217" x="757.76" y="306.61" width="110.36" height="105.16"/></g></g><g class="cls-228"><g class="cls-101"><rect class="cls-229" x="664.48" y="391.62" width="88.49" height="107.12"/></g></g><g class="cls-230"><g class="cls-101"><rect class="cls-160" x="674.3" y="417.78" width="74.55" height="75.53"/></g></g><g class="cls-231"><g class="cls-101"><rect class="cls-160" x="726.07" y="348.13" width="93.46" height="88.91"/></g></g><g class="cls-232"><g class="cls-101"><rect class="cls-233" x="664.76" y="346.29" width="120.47" height="101.91"/></g></g><g class="cls-234"><g class="cls-101"><rect class="cls-235" x="746.62" y="342.93" width="99.95" height="163.07"/></g></g><g class="cls-236"><g class="cls-101"><rect class="cls-160" x="742.84" y="360.23" width="74.97" height="79.18"/></g></g><g class="cls-237"><g class="cls-101"><rect class="cls-235" x="749.82" y="343.16" width="148.73" height="81.5"/></g></g><g class="cls-238"><g class="cls-101"><rect class="cls-233" x="703.52" y="342.93" width="99.95" height="163.07"/></g></g><g class="cls-239"><g class="cls-101"><rect class="cls-235" x="719.76" y="344.83" width="83.7" height="127.69"/></g></g><g class="cls-240"><g class="cls-101"><rect class="cls-241" x="746.88" y="344.83" width="83.7" height="127.69"/></g></g><g class="cls-242"><g class="cls-101"><rect class="cls-243" x="731.5" y="351.29" width="87.34" height="73.9"/></g></g><g class="cls-244"><g class="cls-101"><rect class="cls-245" x="731.5" y="340.5" width="87.34" height="77.9"/></g></g><g class="cls-246"><g class="cls-101"><rect class="cls-229" x="701.57" y="306.57" width="70.36" height="70.37"/></g></g><g class="cls-247"><g class="cls-101"><rect class="cls-243" x="778.41" y="306.57" width="70.36" height="70.37"/></g></g><g class="cls-248"><g class="cls-101"><rect class="cls-243" x="740.06" y="263.42" width="101.83" height="148.84"/></g></g><g class="cls-249"><g class="cls-101"><rect class="cls-229" x="708.66" y="263.43" width="100.37" height="148.83"/></g></g><g class="cls-250"><g class="cls-101"><rect class="cls-217" x="730.13" y="300.81" width="62.38" height="62.38"/></g></g><g class="cls-251"><g class="cls-101"><rect class="cls-217" x="759.02" y="300.81" width="62.38" height="62.38"/></g></g><g class="cls-252"><g class="cls-101"><rect class="cls-245" x="761.8" y="313.46" width="69.32" height="63.03"/></g></g><g class="cls-253"><g class="cls-101"><rect class="cls-243" x="720.61" y="313.46" width="69.32" height="63.03"/></g></g><g class="cls-254"><g class="cls-101"><rect class="cls-245" x="744.09" y="319.33" width="68.05" height="59.35"/></g></g><g class="cls-255"><g class="cls-101"><rect class="cls-229" x="692.31" y="430.09" width="76.7" height="75.91"/></g></g><g class="cls-256"><g class="cls-101"><rect class="cls-229" x="710.17" y="430.09" width="61.11" height="61.11"/></g></g><g class="cls-257"><g class="cls-101"><rect class="cls-229" x="836.14" y="287.79" width="93.51" height="124.83"/></g></g><g class="cls-258"><g class="cls-101"><rect class="cls-229" x="852.7" y="276.72" width="61.23" height="80.63"/></g></g><g class="cls-259"><g class="cls-101"><rect class="cls-243" x="851.07" y="295.69" width="74.61" height="65.44"/></g></g><g class="cls-260"><g class="cls-101"><rect class="cls-186" x="729.15" y="329.23" width="92.05" height="74.33"/></g></g><g class="cls-261"><g class="cls-101"><rect class="cls-212" x="699.89" y="258.92" width="104.12" height="106.73"/></g></g><g class="cls-262"><g class="cls-101"><rect class="cls-217" x="746.34" y="258.24" width="104.12" height="107.41"/></g></g><g class="cls-263"><g class="cls-101"><rect class="cls-104" x="1077.81" y="201.77" width="548.48" height="646.4"/></g></g><g class="cls-264"><g class="cls-101"><rect class="cls-170" x="896.27" y="589.56" width="238.67" height="289.97"/></g></g><g class="cls-265"><g class="cls-101"><rect class="cls-170" x="879.34" y="588.26" width="106.04" height="106.07"/></g></g><g class="cls-266"><g class="cls-101"><rect class="cls-170" x="774.21" y="624.35" width="274.65" height="255.63"/></g></g><g class="cls-267"><g class="cls-101"><rect class="cls-170" x="743.3" y="622.63" width="157.76" height="212.7"/></g></g><g class="cls-268"><g class="cls-101"><rect class="cls-102" x="297.59" y="201.77" width="548.48" height="646.4"/></g></g><g class="cls-269"><g class="cls-101"><rect class="cls-160" x="747.67" y="647.77" width="274.5" height="270.41"/></g></g><g class="cls-270"><g class="cls-101"><rect class="cls-160" x="940" y="653.91" width="106.03" height="106.06"/></g></g><g class="cls-271"><g class="cls-101"><rect class="cls-160" x="831.58" y="700.53" width="269.52" height="235.06"/></g></g><g class="cls-272"><g class="cls-101"><rect class="cls-160" x="988.43" y="720.21" width="153.77" height="215.2"/></g></g></svg>