<svg id="Layer_1" data-name="Layer 1" xmlns="http://www.w3.org/2000/svg" viewBox="0 0 1920 1080"><defs><style>.cls-1{fill:#64c8c3;}.cls-2{fill:#41b9b4;}.cls-3{fill:#00a499;}.cls-4{fill:#e65a00;}.cls-5{fill:#c44702;}.cls-6{fill:#ff9141;}.cls-7{fill:#ff6d00;}.cls-8{fill:#fff;}.cls-9{fill:#733791;}.cls-10{fill:#500778;}.cls-11{fill:#8c5fa5;}</style></defs><title>ilustracoes_caixa_am5SVG</title><polygon class="cls-1" points="960 256.5 469.09 539.93 469.09 610.79 960 894.21 1450.91 610.79 1450.91 539.93 960 256.5"/><polygon class="cls-2" points="960 894.21 469.09 610.79 469.09 539.93 960 823.36 960 894.21"/><polygon class="cls-3" points="960 894.21 1450.91 610.79 1450.91 539.93 960 823.36 960 894.21"/><polygon class="cls-4" points="763.8 309.49 763.8 639.32 779.46 630.04 779.46 300.28 763.8 309.49"/><polygon class="cls-4" points="1146.35 230.15 1146.35 563.54 1130.68 554.26 1130.68 220.94 1146.35 230.15"/><polygon class="cls-5" points="1024.07 159.64 1024.07 504.13 1039.73 494.85 1039.73 150.44 1024.07 159.64"/><polygon class="cls-4" points="1024.07 159.64 1024.07 504.13 1008.41 494.85 1008.41 150.44 1024.07 159.64"/><polygon class="cls-6" points="1161.98 539.33 1024.05 459.7 1023.98 380.02 1161.98 460.27 1161.98 539.33"/><polygon class="cls-7" points="1023.96 459.63 1023.98 380.04 748.11 539.87 748.11 618.93 1023.96 459.63"/><path class="cls-8" d="M773.24,569.06l104.37,60.69a16.86,16.86,0,0,0,16.93,0l242.18-140.31a16.86,16.86,0,0,0,0-29.19l-104.26-60.2a16.86,16.86,0,0,0-16.86,0L773.29,539.88A16.86,16.86,0,0,0,773.24,569.06Z"/><polygon class="cls-6" points="886.04 698.56 748.12 618.93 748.05 539.26 886.04 619.51 886.04 698.56"/><path class="cls-2" d="M1144.8,478.22a16.79,16.79,0,0,0-8.1-18l-104.26-60.2a16.86,16.86,0,0,0-16.86,0L884.17,475.9l132.07,76.8Z"/><polygon class="cls-1" points="884.17 475.9 1016.24 552.7 1038.13 540.01 906.11 463.24 884.17 475.9"/><polygon class="cls-7" points="1161.9 539.26 1161.92 459.68 886.04 619.51 886.04 698.56 1161.9 539.26"/><path class="cls-9" d="M946.68,562.88l-78.47-45.31a4.71,4.71,0,0,0-4.7,0l-37.12,21.32-18.88-2.83v15.57a4.79,4.79,0,0,0,0,1.76h0a4.64,4.64,0,0,0,2.25,3.19l78.49,45.64a4.71,4.71,0,0,0,4.73,0L946.69,571A4.71,4.71,0,0,0,946.68,562.88Z"/><path class="cls-10" d="M949.07,550.19l-27.54-1.84h-.16l-30.77,24.28v30.23a4.7,4.7,0,0,0,2.38-.64L946.69,571A4.67,4.67,0,0,0,949,566.5h.06Z"/><path class="cls-11" d="M809.76,539.47l78.49,45.64a4.71,4.71,0,0,0,4.73,0l53.71-31.19a4.71,4.71,0,0,0,0-8.15l-78.47-45.31a4.71,4.71,0,0,0-4.7,0l-53.73,30.85A4.71,4.71,0,0,0,809.76,539.47Z"/><polygon class="cls-4" points="886.08 379.99 886.08 714.14 901.74 704.85 901.74 370.79 886.08 379.99"/><polygon class="cls-7" points="886.08 379.99 886.08 714.14 870.41 704.85 870.41 370.79 886.08 379.99"/><polygon class="cls-5" points="1146.35 230.15 1146.35 563.54 1162.01 554.26 1162.01 220.94 1146.35 230.15"/><polygon class="cls-6" points="1162.01 220.76 1024.08 141.13 1024.01 61.45 1162.01 141.7 1162.01 220.76"/><polygon class="cls-7" points="1023.99 141.06 1024.01 61.47 748.14 221.3 748.14 300.36 1023.99 141.06"/><path class="cls-8" d="M773.24,250.49l104.37,60.69a16.86,16.86,0,0,0,16.93,0l242.18-140.31a16.86,16.86,0,0,0,0-29.19l-104.26-60.2a16.86,16.86,0,0,0-16.86,0L773.29,221.31A16.86,16.86,0,0,0,773.24,250.49Z"/><path class="cls-2" d="M1144.8,159.65a16.79,16.79,0,0,0-8.1-18l-104.26-60.2a16.86,16.86,0,0,0-16.86,0L884.17,157.33l132.07,76.8Z"/><polygon class="cls-1" points="884.17 157.33 1016.24 234.13 1038.13 221.45 906.11 144.67 884.17 157.33"/><polygon class="cls-7" points="1161.93 220.69 1161.95 141.11 886.08 300.94 886.08 379.99 1161.93 220.69"/><polygon class="cls-6" points="886.08 379.99 748.15 300.36 748.08 220.69 886.08 300.94 886.08 379.99"/><polygon class="cls-7" points="763.8 309.49 763.8 639.32 748.14 630.04 748.14 300.28 763.8 309.49"/><path class="cls-9" d="M946.68,245l-78.47-45.31a4.71,4.71,0,0,0-4.7,0L826.39,221l-18.88-2.83V233.7a4.79,4.79,0,0,0,0,1.76h0a4.64,4.64,0,0,0,2.25,3.19l78.49,45.64a4.71,4.71,0,0,0,4.73,0l53.71-31.19A4.71,4.71,0,0,0,946.68,245Z"/><path class="cls-10" d="M949.07,232.27l-27.54-1.84h-.16L890.59,254.7v30.23a4.7,4.7,0,0,0,2.38-.64l53.71-31.19a4.67,4.67,0,0,0,2.32-4.53h.06Z"/><path class="cls-11" d="M809.76,221.55l78.49,45.64a4.71,4.71,0,0,0,4.73,0L946.69,236a4.71,4.71,0,0,0,0-8.15l-78.47-45.31a4.71,4.71,0,0,0-4.7,0l-53.73,30.85A4.71,4.71,0,0,0,809.76,221.55Z"/><polygon class="cls-10" points="1060.15 156.22 1060.15 613.77 1067.98 609.13 1067.98 151.62 1060.15 156.22"/><polygon class="cls-9" points="1060.15 156.22 1060.15 613.77 1052.32 609.13 1052.32 151.62 1060.15 156.22"/><polygon class="cls-11" points="1052.32 151.62 1060.15 147.09 1067.98 151.61 1060.15 156.14 1052.32 151.62"/><polygon class="cls-10" points="989.59 617.14 989.59 611.09 1057.56 571.27 1057.57 577.32 989.59 617.14"/><polygon class="cls-11" points="984.34 608.05 989.59 611.09 1057.56 571.27 1052.32 568.24 984.34 608.05"/><polygon class="cls-10" points="989.59 574.28 989.59 568.23 1057.56 528.41 1057.57 534.46 989.59 574.28"/><polygon class="cls-11" points="984.34 565.19 989.59 568.23 1057.56 528.41 1052.32 525.38 984.34 565.19"/><polygon class="cls-10" points="989.59 531.42 989.59 525.37 1057.56 485.54 1057.57 491.6 989.59 531.42"/><polygon class="cls-11" points="984.34 522.33 989.59 525.37 1057.56 485.54 1052.32 482.51 984.34 522.33"/><polygon class="cls-10" points="989.59 488.56 989.59 482.5 1057.56 442.68 1057.57 448.73 989.59 488.56"/><polygon class="cls-11" points="984.34 479.46 989.59 482.5 1057.56 442.68 1052.32 439.65 984.34 479.46"/><polygon class="cls-10" points="989.59 445.69 989.59 439.64 1057.56 399.82 1057.57 405.87 989.59 445.69"/><polygon class="cls-11" points="984.34 436.6 989.59 439.64 1057.56 399.82 1052.32 396.79 984.34 436.6"/><polygon class="cls-10" points="989.59 402.83 989.59 396.78 1057.56 356.96 1057.57 363.01 989.59 402.83"/><polygon class="cls-11" points="984.34 393.74 989.59 396.78 1057.56 356.96 1052.32 353.93 984.34 393.74"/><polygon class="cls-10" points="989.59 359.97 989.59 353.92 1057.56 314.09 1057.57 320.14 989.59 359.97"/><polygon class="cls-11" points="984.34 350.88 989.59 353.92 1057.56 314.09 1052.32 311.06 984.34 350.88"/><polygon class="cls-10" points="989.59 317.11 989.59 311.05 1057.56 271.23 1057.57 277.28 989.59 317.11"/><polygon class="cls-11" points="984.34 308.01 989.59 311.05 1057.56 271.23 1052.32 268.2 984.34 308.01"/><polygon class="cls-10" points="989.59 274.24 989.59 268.19 1057.56 228.37 1057.57 234.42 989.59 274.24"/><polygon class="cls-11" points="984.34 265.15 989.59 268.19 1057.56 228.37 1052.32 225.34 984.34 265.15"/><polygon class="cls-10" points="988.25 197.55 988.25 655.11 996.09 650.46 996.09 192.95 988.25 197.55"/><polygon class="cls-9" points="988.25 197.55 988.25 655.11 980.42 650.46 980.42 192.95 988.25 197.55"/><polygon class="cls-11" points="980.42 192.95 988.25 188.43 996.09 192.95 988.26 197.47 980.42 192.95"/></svg>