<svg id="Layer_1" data-name="Layer 1" xmlns="http://www.w3.org/2000/svg" xmlns:xlink="http://www.w3.org/1999/xlink" viewBox="0 0 1920 1080"><defs><style>.cls-1{fill:none;}.cls-2{fill:#64c8c3;}.cls-3{fill:#41b9b4;}.cls-4{fill:#00a499;}.cls-5{fill:#414042;}.cls-6{fill:#515151;}.cls-7{fill:#2d2d2d;}.cls-8{fill:#00fff8;}.cls-9{fill:#f800ff;}.cls-10{fill:#001fff;}.cls-11{fill:#f3ff00;}.cls-12{fill:#19ff00;}.cls-13{fill:red;}.cls-14{fill:#1c1c1c;}.cls-15{fill:#6d6e71;}.cls-16{fill:#898d8d;}.cls-17{clip-path:url(#clip-path);}.cls-18{fill:#e1e1e1;}.cls-19{fill:#fff;}.cls-20{fill:#b9b9b9;}.cls-21{fill:#e65a00;}.cls-22{fill:#ff6d00;}.cls-23{fill:#58595b;}.cls-24{fill:#ff9141;}.cls-25{fill:#4187d7;}.cls-26{fill:#0039ba;}.cls-27{fill:#005fc8;}.cls-28{fill:#8c5fa5;}.cls-29{fill:#500778;}.cls-30{fill:#733791;}</style><clipPath id="clip-path"><rect class="cls-1" x="574.78" y="555.93" width="325" height="322.29"/></clipPath></defs><title>ilustracoes_caixa_am5SVG</title><polygon class="cls-2" points="960.9 256.5 469.99 539.93 469.99 610.79 960.9 894.21 1451.81 610.79 1451.81 539.93 960.9 256.5"/><polygon class="cls-3" points="960 894.21 469.09 610.79 469.09 539.93 960 823.36 960 894.21"/><polygon class="cls-4" points="960 894.21 1450.91 610.79 1450.91 539.93 960 823.36 960 894.21"/><polygon class="cls-5" points="1223.27 607.81 1370.35 489.95 1370.35 323.4 1263.98 306.75 1169.95 323.4 1213.58 506.6 1223.27 607.81"/><polygon class="cls-6" points="962.78 203.53 1151.15 209.63 1370.35 323.4 1169.95 323.4 962.78 203.53"/><polygon class="cls-7" points="1180.73 658.8 870.26 198.93 912.34 174.35 1223.53 354.4 1223.26 635.48 1180.73 658.8"/><polygon class="cls-5" points="870.26 479.55 870.26 198.93 1181.19 378.45 1180.73 658.8 870.26 479.55"/><polygon class="cls-8" points="955.61 490.65 968.18 294.39 1002.96 314.41 1013.19 523.8 955.61 490.65"/><polygon class="cls-9" points="1026.54 531.47 1037.68 334.4 1072.46 354.42 1077.36 560.73 1026.54 531.47"/><polygon class="cls-10" points="1101.49 574.62 1107.19 374.4 1141.97 394.43 1141.71 598.04 1101.49 574.62"/><polygon class="cls-11" points="933.42 477.88 933.42 274.38 968.2 294.41 968.2 497.9 933.42 477.88"/><polygon class="cls-12" points="1002.93 517.89 1002.93 314.39 1037.71 334.41 1037.71 537.91 1002.93 517.89"/><polygon class="cls-13" points="1072.44 557.9 1072.44 354.4 1107.22 374.42 1107.22 577.92 1072.44 557.9"/><polygon class="cls-7" points="885.47 410.25 885.47 247.13 917.76 265.77 917.72 428.87 885.47 410.25"/><polygon class="cls-5" points="882.72 268.95 882.72 258.03 920.52 279.85 920.46 290.74 882.72 268.95"/><polygon class="cls-5" points="882.72 294.46 882.72 283.53 920.52 305.35 920.46 316.25 882.72 294.46"/><polygon class="cls-5" points="882.72 319.96 882.72 309.04 920.52 330.86 920.46 341.75 882.72 319.96"/><polygon class="cls-14" points="1181.19 378.45 1223.53 354.4 1223.26 635.48 1180.73 658.8 1181.19 378.45"/><path class="cls-15" d="M911,453.73c-.75-8.88-5.57-15.72-10.77-15.28h-9.45l-1.53,14.48,2.89,17.66h8.09v-.44a5.91,5.91,0,0,0,2.71.44C908.18,470.16,911.78,462.61,911,453.73Z"/><ellipse class="cls-16" cx="892.17" cy="454.52" rx="9.45" ry="16.13" transform="translate(-35.08 76.67) rotate(-4.83)"/><polygon class="cls-5" points="710.45 551.47 710.45 259.32 583.94 186.28 583.94 478.44 710.45 551.47"/><polygon class="cls-14" points="836.95 186.28 710.45 259.32 710.45 551.47 836.08 478.45 836.95 186.28"/><polygon class="cls-6" points="583.94 186.28 710.45 113.25 836.95 186.28 710.45 259.32 583.94 186.28"/><ellipse class="cls-6" cx="773.7" cy="303.54" rx="42.19" ry="51.39"/><ellipse class="cls-5" cx="773.7" cy="303.54" rx="30.68" ry="37.37"/><ellipse class="cls-6" cx="773.7" cy="440.63" rx="42.19" ry="51.39"/><ellipse class="cls-5" cx="773.7" cy="440.63" rx="30.68" ry="37.37"/><g class="cls-17"><path class="cls-18" d="M810.2,762.31,693.39,645.5a5.08,5.08,0,0,0-7.18,0l-19.15,19.15a5.08,5.08,0,0,0,0,7.18L783.87,788.64a5.08,5.08,0,0,0,7.18,0l19.15-19.15a5.08,5.08,0,0,0,0-7.18Z"/><path class="cls-18" d="M710.62,601.46l-44-44a5.08,5.08,0,0,0-7.18,0l-19.15,19.15a5.08,5.08,0,0,0,0,7.18L673,616.54,638.1,651.49,605.3,618.69a5.08,5.08,0,0,0-7.18,0L579,637.84a5.08,5.08,0,0,0,0,7.18l44,44a5.08,5.08,0,0,0,3.59,1.49l.46,0,42.13-3.83a5.08,5.08,0,0,0,3.13-1.47l34.47-34.47a5.08,5.08,0,0,0,1.47-3.13l3.83-42.13a5.08,5.08,0,0,0-1.47-4Z"/><path class="cls-19" d="M680.89,603.16a5.06,5.06,0,0,1-3.59-1.49l-13.54-13.54a5.08,5.08,0,1,1,7.18-7.18l13.54,13.54a5.08,5.08,0,0,1-3.59,8.67Z"/><path class="cls-18" d="M898.29,789.12l-44-44a5.08,5.08,0,0,0-4.05-1.47l-42.13,3.83a5.07,5.07,0,0,0-3.13,1.47l-34.47,34.47a5.08,5.08,0,0,0-1.47,3.13l-3.83,42.13a5.08,5.08,0,0,0,1.47,4l44,44a5.08,5.08,0,0,0,7.18,0L837,857.58a5.08,5.08,0,0,0,0-7.18l-32.79-32.79,34.95-34.95L872,815.45a5.08,5.08,0,0,0,7.18,0l19.15-19.15a5.08,5.08,0,0,0,0-7.18Z"/></g><path class="cls-16" d="M677,654.75l-9.9,9.9a5.08,5.08,0,0,0,0,7.18L783.87,788.64a5.08,5.08,0,0,0,7.18,0l9.9-9.9-124-124Z"/><path class="cls-20" d="M655.9,633.69l-17.8,17.8L605.3,618.69a5.08,5.08,0,0,0-7.18,0L579,637.84a5.08,5.08,0,0,0,0,7.18l44,44a5.08,5.08,0,0,0,3.59,1.49l.46,0,42.13-3.83a5.08,5.08,0,0,0,3.13-1.47l17.56-17.56-34-34Z"/><path class="cls-20" d="M770.47,783.38a5.08,5.08,0,0,0-1.47,3.13l-3.83,42.13a5.08,5.08,0,0,0,1.47,4l44,44a5.08,5.08,0,0,0,7.18,0L837,857.58a5.08,5.08,0,0,0,0-7.18l-32.79-32.79,17.8-17.8-34-34-17.56,17.56Z"/><path class="cls-18" d="M805.58,646.91l-15.32-15.32a5.08,5.08,0,0,0-7.18,0L681.59,733.08a5.08,5.08,0,0,0,0,7.18l15.32,15.32a5.08,5.08,0,0,0,7.18,0L805.58,654.09a5.08,5.08,0,0,0,0-7.18Z"/><path class="cls-18" d="M868.77,583.71l-15.32-15.32a5.08,5.08,0,0,0-5.69-1l-42.13,19.15a5.06,5.06,0,0,0-1.49,1L771.59,620.1a5.08,5.08,0,0,0,0,7.18l38.3,38.3a5.08,5.08,0,0,0,7.18,0L849.62,633a5.07,5.07,0,0,0,1-1.49L869.8,589.4a5.07,5.07,0,0,0-1-5.69Z"/><path class="cls-21" d="M702.17,784.78,652.38,735a5.08,5.08,0,0,0-7.18,0l-59.36,59.36a5.08,5.08,0,0,0,0,7.18l49.79,49.79a5.08,5.08,0,0,0,7.18,0L702.17,792a5.08,5.08,0,0,0,0-7.18Z"/><path class="cls-22" d="M652.38,735a5.08,5.08,0,0,0-7.18,0l-59.36,59.36a5.08,5.08,0,0,0,0,7.18l24.68,24.69,66.54-66.54L652.38,735Z"/><polygon class="cls-5" points="673.68 756.29 680.86 763.48 614.32 830.02 607.14 822.84 673.68 756.29 673.68 756.29"/><polygon class="cls-5" points="687.09 769.7 694.27 776.88 629.64 841.51 622.46 834.33 687.09 769.7 687.09 769.7"/><polygon class="cls-23" points="660.28 742.89 667.46 750.08 602.84 814.7 595.65 807.52 660.28 742.89 660.28 742.89"/><polygon class="cls-23" points="607.14 822.84 673.68 756.29 677.06 759.67 610.52 826.22 607.14 822.84 607.14 822.84"/><path class="cls-16" d="M797.71,639,689,747.71l7.87,7.87a5.08,5.08,0,0,0,7.18,0L805.58,654.09a5.08,5.08,0,0,0,0-7.18L797.71,639Z"/><g class="cls-17"><path class="cls-20" d="M860.9,575.84l-70.37,70.37,19.36,19.36a5.08,5.08,0,0,0,7.18,0L849.62,633a5.07,5.07,0,0,0,1-1.49L869.8,589.4a5.08,5.08,0,0,0-1-5.69l-7.87-7.87Z"/><path class="cls-22" d="M622,862.39a5.06,5.06,0,0,0,2.46-.64l17.23-9.57L585,795.48l-9.57,17.23a5.08,5.08,0,0,0,.85,6.06l42.13,42.13a5.07,5.07,0,0,0,3.59,1.49Z"/><path class="cls-24" d="M585,795.48l-9.57,17.23a5.08,5.08,0,0,0,.85,6.06l20.86,20.86,16-16L585,795.48Z"/></g><path class="cls-22" d="M679.19,723.5a5.08,5.08,0,0,0-5.59-1.08l-26.81,11.49,56.46,56.46,11.49-26.81a5.08,5.08,0,0,0-1.08-5.59L679.19,723.5Z"/><path class="cls-24" d="M679.19,723.5a5.08,5.08,0,0,0-5.59-1.08l-26.81,11.49,28,28,21.41-21.41-17-17Z"/><path class="cls-19" d="M799.21,629.07a5.08,5.08,0,0,1-3.59-8.67l16.25-16.25a5.08,5.08,0,1,1,7.18,7.18L802.8,627.58a5.06,5.06,0,0,1-3.59,1.49Z"/><polygon class="cls-25" points="995.09 616.43 882.97 681.16 882.97 697.35 995.09 762.08 1107.22 697.35 1107.22 681.16 995.09 616.43"/><polygon class="cls-26" points="994.89 762.08 1107.01 697.35 1107.01 681.16 994.89 745.9 994.89 762.08"/><polygon class="cls-27" points="994.89 762.08 882.76 697.35 882.76 681.16 994.89 745.9 994.89 762.08"/><polygon class="cls-24" points="977.7 593.41 865.58 658.14 865.58 674.33 977.7 739.07 1089.83 674.33 1089.83 658.14 977.7 593.41"/><polygon class="cls-21" points="977.5 739.07 1089.62 674.33 1089.62 658.14 977.5 722.88 977.5 739.07"/><polygon class="cls-22" points="977.5 739.07 865.37 674.33 865.37 658.14 977.5 722.88 977.5 739.07"/><polygon class="cls-28" points="989.47 576.24 877.35 640.97 877.35 657.15 989.47 721.89 1101.6 657.15 1101.6 640.97 989.47 576.24"/><polygon class="cls-29" points="989.26 721.89 1101.39 657.15 1101.39 640.97 989.26 705.71 989.26 721.89"/><polygon class="cls-30" points="989.26 721.89 877.14 657.15 877.14 640.97 989.26 705.71 989.26 721.89"/><ellipse class="cls-18" cx="970.75" cy="630.1" rx="38.35" ry="56.64" transform="translate(42.8 1321.68) rotate(-69.68)"/><ellipse class="cls-20" cx="970.75" cy="630.1" rx="12" ry="17.72" transform="translate(42.8 1321.68) rotate(-69.68)"/><ellipse class="cls-28" cx="970.75" cy="630.1" rx="6.59" ry="9.74" transform="translate(42.8 1321.68) rotate(-69.68)"/></svg>