<svg id="Layer_1" data-name="Layer 1" xmlns="http://www.w3.org/2000/svg" xmlns:xlink="http://www.w3.org/1999/xlink" viewBox="0 0 1920 1080"><defs><style>.cls-1,.cls-2{fill:none;}.cls-1{clip-rule:evenodd;}.cls-3{fill:#3c9344;}.cls-4{fill:#347534;}.cls-5{fill:#00652e;}.cls-6{fill:#733791;}.cls-7{fill:#500778;}.cls-8{fill:#ff9141;}.cls-9{fill:#00a499;}.cls-10{fill:#64c8c3;}.cls-11{fill:#420768;}.cls-12{fill:#ff6d00;}.cls-13{fill:#775020;}.cls-14{fill:#99bf19;}.cls-15{clip-path:url(#clip-path);}.cls-16{clip-path:url(#clip-path-2);}.cls-17{clip-path:url(#clip-path-3);}.cls-18{clip-path:url(#clip-path-4);}.cls-19{clip-path:url(#clip-path-5);}.cls-20{clip-path:url(#clip-path-6);}.cls-21{clip-path:url(#clip-path-7);}.cls-22{clip-path:url(#clip-path-8);}.cls-23{clip-path:url(#clip-path-9);}.cls-24{clip-path:url(#clip-path-10);}.cls-25{clip-path:url(#clip-path-11);}.cls-26{clip-path:url(#clip-path-12);}.cls-27{clip-path:url(#clip-path-13);}.cls-28{clip-path:url(#clip-path-14);}.cls-29{clip-path:url(#clip-path-15);}.cls-30{clip-path:url(#clip-path-16);}.cls-31{clip-path:url(#clip-path-17);}.cls-32{clip-path:url(#clip-path-18);}.cls-33{clip-path:url(#clip-path-19);}.cls-34{clip-path:url(#clip-path-20);}.cls-35{clip-path:url(#clip-path-21);}.cls-36{clip-path:url(#clip-path-22);}.cls-37{clip-path:url(#clip-path-23);}.cls-38{clip-path:url(#clip-path-24);}.cls-39{clip-path:url(#clip-path-25);}.cls-40{clip-path:url(#clip-path-26);}.cls-41{clip-path:url(#clip-path-27);}.cls-42{clip-path:url(#clip-path-28);}.cls-43{clip-path:url(#clip-path-29);}.cls-44{clip-path:url(#clip-path-30);}.cls-45{clip-path:url(#clip-path-31);}.cls-46{clip-path:url(#clip-path-32);}.cls-47{clip-path:url(#clip-path-33);}.cls-48{clip-path:url(#clip-path-34);}.cls-49{clip-path:url(#clip-path-35);}.cls-50{clip-path:url(#clip-path-36);}.cls-51{clip-path:url(#clip-path-37);}.cls-52{clip-path:url(#clip-path-38);}.cls-53{clip-path:url(#clip-path-39);}.cls-54{clip-path:url(#clip-path-40);}.cls-55{clip-path:url(#clip-path-41);}.cls-56{clip-path:url(#clip-path-42);}.cls-57{clip-path:url(#clip-path-43);}.cls-58{clip-path:url(#clip-path-44);}.cls-59{clip-path:url(#clip-path-45);}.cls-60{clip-path:url(#clip-path-46);}.cls-61{clip-path:url(#clip-path-47);}.cls-62{clip-path:url(#clip-path-48);}.cls-63{clip-path:url(#clip-path-49);}.cls-64{clip-path:url(#clip-path-50);}.cls-65{clip-path:url(#clip-path-51);}.cls-66{clip-path:url(#clip-path-52);}.cls-67{clip-path:url(#clip-path-53);}.cls-68{clip-path:url(#clip-path-54);}.cls-69{clip-path:url(#clip-path-55);}.cls-70{clip-path:url(#clip-path-56);}.cls-71{clip-path:url(#clip-path-57);}.cls-72{clip-path:url(#clip-path-58);}.cls-73{clip-path:url(#clip-path-59);}.cls-74{clip-path:url(#clip-path-60);}.cls-75{clip-path:url(#clip-path-61);}.cls-76{clip-path:url(#clip-path-62);}.cls-77{clip-path:url(#clip-path-63);}.cls-78{clip-path:url(#clip-path-64);}.cls-79{clip-path:url(#clip-path-65);}.cls-80{clip-path:url(#clip-path-66);}.cls-81{clip-path:url(#clip-path-67);}.cls-82{clip-path:url(#clip-path-68);}.cls-83{clip-path:url(#clip-path-69);}.cls-84{clip-path:url(#clip-path-70);}.cls-85{clip-path:url(#clip-path-71);}.cls-86{clip-path:url(#clip-path-72);}.cls-87{clip-path:url(#clip-path-73);}.cls-88{clip-path:url(#clip-path-74);}.cls-89{clip-path:url(#clip-path-75);}.cls-90{clip-path:url(#clip-path-76);}.cls-91{clip-path:url(#clip-path-77);}.cls-92{clip-path:url(#clip-path-78);}.cls-93{clip-path:url(#clip-path-79);}.cls-94{clip-path:url(#clip-path-80);}.cls-95{clip-path:url(#clip-path-81);}.cls-96{clip-path:url(#clip-path-82);}.cls-97{clip-path:url(#clip-path-83);}.cls-98{clip-path:url(#clip-path-84);}.cls-99{clip-path:url(#clip-path-85);}.cls-100{clip-path:url(#clip-path-86);}.cls-101{clip-path:url(#clip-path-87);}.cls-102{clip-path:url(#clip-path-88);}.cls-103{clip-path:url(#clip-path-89);}.cls-104{clip-path:url(#clip-path-90);}.cls-105{clip-path:url(#clip-path-91);}.cls-106{clip-path:url(#clip-path-92);}.cls-107{clip-path:url(#clip-path-93);}.cls-108{clip-path:url(#clip-path-94);}.cls-109{clip-path:url(#clip-path-95);}.cls-110{clip-path:url(#clip-path-96);}.cls-111{clip-path:url(#clip-path-97);}.cls-112{clip-path:url(#clip-path-98);}.cls-113{clip-path:url(#clip-path-99);}.cls-114{clip-path:url(#clip-path-100);}.cls-115{clip-path:url(#clip-path-101);}.cls-116{clip-path:url(#clip-path-102);}.cls-117{clip-path:url(#clip-path-103);}.cls-118{clip-path:url(#clip-path-104);}.cls-119{clip-path:url(#clip-path-105);}.cls-120{clip-path:url(#clip-path-106);}.cls-121{clip-path:url(#clip-path-107);}.cls-122{clip-path:url(#clip-path-108);}.cls-123{clip-path:url(#clip-path-109);}.cls-124{clip-path:url(#clip-path-110);}.cls-125{clip-path:url(#clip-path-111);}.cls-126{clip-path:url(#clip-path-112);}.cls-127{clip-path:url(#clip-path-113);}.cls-128{clip-path:url(#clip-path-114);}.cls-129{clip-path:url(#clip-path-115);}.cls-130{clip-path:url(#clip-path-116);}.cls-131{clip-path:url(#clip-path-117);}.cls-132{clip-path:url(#clip-path-118);}.cls-133{clip-path:url(#clip-path-119);}.cls-134{clip-path:url(#clip-path-120);}.cls-135{clip-path:url(#clip-path-121);}.cls-136{clip-path:url(#clip-path-122);}.cls-137{clip-path:url(#clip-path-123);}.cls-138{clip-path:url(#clip-path-124);}.cls-139{clip-path:url(#clip-path-125);}.cls-140{clip-path:url(#clip-path-126);}.cls-141{clip-path:url(#clip-path-127);}.cls-142{clip-path:url(#clip-path-128);}.cls-143{clip-path:url(#clip-path-129);}.cls-144{clip-path:url(#clip-path-130);}.cls-145{clip-path:url(#clip-path-131);}.cls-146{clip-path:url(#clip-path-132);}.cls-147{clip-path:url(#clip-path-133);}.cls-148{clip-path:url(#clip-path-134);}.cls-149{clip-path:url(#clip-path-135);}.cls-150{clip-path:url(#clip-path-136);}.cls-151{clip-path:url(#clip-path-137);}.cls-152{clip-path:url(#clip-path-138);}.cls-153{clip-path:url(#clip-path-139);}.cls-154{clip-path:url(#clip-path-140);}.cls-155{clip-path:url(#clip-path-141);}.cls-156{clip-path:url(#clip-path-142);}.cls-157{clip-path:url(#clip-path-143);}.cls-158{clip-path:url(#clip-path-144);}.cls-159{clip-path:url(#clip-path-145);}.cls-160{clip-path:url(#clip-path-146);}.cls-161{clip-path:url(#clip-path-147);}.cls-162{clip-path:url(#clip-path-148);}.cls-163{clip-path:url(#clip-path-149);}.cls-164{clip-path:url(#clip-path-150);}.cls-165{clip-path:url(#clip-path-151);}.cls-166{clip-path:url(#clip-path-152);}.cls-167{clip-path:url(#clip-path-153);}.cls-168{clip-path:url(#clip-path-154);}.cls-169{clip-path:url(#clip-path-155);}.cls-170{clip-path:url(#clip-path-156);}.cls-171{clip-path:url(#clip-path-157);}.cls-172{clip-path:url(#clip-path-158);}.cls-173{clip-path:url(#clip-path-159);}.cls-174{clip-path:url(#clip-path-160);}.cls-175{clip-path:url(#clip-path-161);}.cls-176{clip-path:url(#clip-path-162);}.cls-177{clip-path:url(#clip-path-163);}.cls-178{clip-path:url(#clip-path-164);}.cls-179{clip-path:url(#clip-path-165);}.cls-180{clip-path:url(#clip-path-166);}.cls-181{clip-path:url(#clip-path-167);}.cls-182{clip-path:url(#clip-path-168);}.cls-183{clip-path:url(#clip-path-169);}.cls-184{clip-path:url(#clip-path-170);}.cls-185{clip-path:url(#clip-path-171);}.cls-186{clip-path:url(#clip-path-172);}.cls-187{clip-path:url(#clip-path-173);}.cls-188{clip-path:url(#clip-path-174);}.cls-189{clip-path:url(#clip-path-175);}.cls-190{clip-path:url(#clip-path-176);}.cls-191{clip-path:url(#clip-path-177);}.cls-192{clip-path:url(#clip-path-178);}.cls-193{clip-path:url(#clip-path-179);}.cls-194{clip-path:url(#clip-path-180);}.cls-195{clip-path:url(#clip-path-181);}.cls-196{clip-path:url(#clip-path-182);}.cls-197{clip-path:url(#clip-path-183);}.cls-198{clip-path:url(#clip-path-184);}.cls-199{clip-path:url(#clip-path-185);}.cls-200{clip-path:url(#clip-path-186);}.cls-201{clip-path:url(#clip-path-187);}.cls-202{clip-path:url(#clip-path-188);}.cls-203{clip-path:url(#clip-path-189);}.cls-204{clip-path:url(#clip-path-190);}.cls-205{clip-path:url(#clip-path-191);}.cls-206{clip-path:url(#clip-path-192);}.cls-207{clip-path:url(#clip-path-193);}.cls-208{clip-path:url(#clip-path-194);}.cls-209{clip-path:url(#clip-path-195);}.cls-210{clip-path:url(#clip-path-196);}.cls-211{clip-path:url(#clip-path-197);}.cls-212{clip-path:url(#clip-path-198);}.cls-213{clip-path:url(#clip-path-199);}.cls-214{clip-path:url(#clip-path-200);}.cls-215{clip-path:url(#clip-path-201);}.cls-216{clip-path:url(#clip-path-202);}.cls-217{clip-path:url(#clip-path-203);}.cls-218{clip-path:url(#clip-path-204);}.cls-219{clip-path:url(#clip-path-205);}.cls-220{clip-path:url(#clip-path-206);}.cls-221{clip-path:url(#clip-path-207);}.cls-222{clip-path:url(#clip-path-208);}.cls-223{clip-path:url(#clip-path-209);}.cls-224{clip-path:url(#clip-path-210);}.cls-225{clip-path:url(#clip-path-211);}.cls-226{clip-path:url(#clip-path-212);}.cls-227{clip-path:url(#clip-path-213);}.cls-228{clip-path:url(#clip-path-214);}.cls-229{clip-path:url(#clip-path-215);}.cls-230{clip-path:url(#clip-path-216);}.cls-231{clip-path:url(#clip-path-217);}.cls-232{clip-path:url(#clip-path-218);}.cls-233{clip-path:url(#clip-path-219);}.cls-234{clip-path:url(#clip-path-220);}.cls-235{clip-path:url(#clip-path-221);}.cls-236{clip-path:url(#clip-path-222);}.cls-237{clip-path:url(#clip-path-223);}.cls-238{clip-path:url(#clip-path-224);}.cls-239{clip-path:url(#clip-path-225);}.cls-240{clip-path:url(#clip-path-226);}.cls-241{clip-path:url(#clip-path-227);}.cls-242{clip-path:url(#clip-path-228);}.cls-243{clip-path:url(#clip-path-229);}.cls-244{clip-path:url(#clip-path-230);}.cls-245{clip-path:url(#clip-path-231);}.cls-246{clip-path:url(#clip-path-232);}.cls-247{clip-path:url(#clip-path-233);}.cls-248{clip-path:url(#clip-path-234);}.cls-249{clip-path:url(#clip-path-235);}.cls-250{clip-path:url(#clip-path-236);}.cls-251{clip-path:url(#clip-path-237);}.cls-252{clip-path:url(#clip-path-238);}.cls-253{clip-path:url(#clip-path-239);}.cls-254{clip-path:url(#clip-path-240);}.cls-255{clip-path:url(#clip-path-241);}.cls-256{clip-path:url(#clip-path-242);}.cls-257{clip-path:url(#clip-path-243);}.cls-258{clip-path:url(#clip-path-244);}.cls-259{clip-path:url(#clip-path-245);}.cls-260{clip-path:url(#clip-path-246);}.cls-261{clip-path:url(#clip-path-247);}.cls-262{clip-path:url(#clip-path-248);}.cls-263{clip-path:url(#clip-path-249);}.cls-264{clip-path:url(#clip-path-250);}.cls-265{clip-path:url(#clip-path-251);}.cls-266{clip-path:url(#clip-path-252);}.cls-267{clip-path:url(#clip-path-253);}.cls-268{clip-path:url(#clip-path-254);}.cls-269{clip-path:url(#clip-path-255);}.cls-270{clip-path:url(#clip-path-256);}.cls-271{clip-path:url(#clip-path-257);}.cls-272{clip-path:url(#clip-path-258);}.cls-273{clip-path:url(#clip-path-259);}.cls-274{clip-path:url(#clip-path-260);}.cls-275{clip-path:url(#clip-path-261);}.cls-276{clip-path:url(#clip-path-262);}.cls-277{clip-path:url(#clip-path-263);}.cls-278{clip-path:url(#clip-path-264);}.cls-279{clip-path:url(#clip-path-265);}.cls-280{clip-path:url(#clip-path-266);}.cls-281{clip-path:url(#clip-path-267);}.cls-282{clip-path:url(#clip-path-268);}.cls-283{clip-path:url(#clip-path-269);}.cls-284{clip-path:url(#clip-path-270);}.cls-285{clip-path:url(#clip-path-271);}.cls-286{clip-path:url(#clip-path-272);}.cls-287{clip-path:url(#clip-path-273);}.cls-288{clip-path:url(#clip-path-274);}.cls-289{clip-path:url(#clip-path-275);}.cls-290{clip-path:url(#clip-path-276);}.cls-291{clip-path:url(#clip-path-277);}.cls-292{clip-path:url(#clip-path-278);}.cls-293{clip-path:url(#clip-path-279);}.cls-294{clip-path:url(#clip-path-280);}.cls-295{clip-path:url(#clip-path-281);}.cls-296{clip-path:url(#clip-path-282);}.cls-297{clip-path:url(#clip-path-283);}.cls-298{clip-path:url(#clip-path-284);}.cls-299{clip-path:url(#clip-path-285);}.cls-300{clip-path:url(#clip-path-286);}.cls-301{clip-path:url(#clip-path-287);}.cls-302{clip-path:url(#clip-path-288);}.cls-303{clip-path:url(#clip-path-289);}.cls-304{clip-path:url(#clip-path-290);}.cls-305{clip-path:url(#clip-path-291);}.cls-306{clip-path:url(#clip-path-292);}.cls-307{clip-path:url(#clip-path-293);}.cls-308{clip-path:url(#clip-path-294);}.cls-309{clip-path:url(#clip-path-295);}.cls-310{clip-path:url(#clip-path-296);}.cls-311{clip-path:url(#clip-path-297);}.cls-312{clip-path:url(#clip-path-298);}.cls-313{clip-path:url(#clip-path-299);}.cls-314{clip-path:url(#clip-path-300);}.cls-315{clip-path:url(#clip-path-301);}.cls-316{clip-path:url(#clip-path-302);}.cls-317{clip-path:url(#clip-path-303);}.cls-318{clip-path:url(#clip-path-304);}.cls-319{clip-path:url(#clip-path-305);}.cls-320{clip-path:url(#clip-path-306);}.cls-321{clip-path:url(#clip-path-307);}.cls-322{clip-path:url(#clip-path-308);}.cls-323{clip-path:url(#clip-path-309);}.cls-324{clip-path:url(#clip-path-310);}.cls-325{clip-path:url(#clip-path-311);}.cls-326{clip-path:url(#clip-path-312);}.cls-327{clip-path:url(#clip-path-313);}.cls-328{clip-path:url(#clip-path-314);}.cls-329{clip-path:url(#clip-path-315);}.cls-330{clip-path:url(#clip-path-316);}.cls-331{clip-path:url(#clip-path-317);}.cls-332{clip-path:url(#clip-path-318);}.cls-333{clip-path:url(#clip-path-319);}.cls-334{clip-path:url(#clip-path-320);}.cls-335{clip-path:url(#clip-path-321);}.cls-336{clip-path:url(#clip-path-322);}.cls-337{clip-path:url(#clip-path-323);}.cls-338{clip-path:url(#clip-path-324);}.cls-339{clip-path:url(#clip-path-325);}.cls-340{clip-path:url(#clip-path-326);}.cls-341{clip-path:url(#clip-path-327);}.cls-342{clip-path:url(#clip-path-328);}.cls-343{clip-path:url(#clip-path-329);}.cls-344{clip-path:url(#clip-path-330);}.cls-345{clip-path:url(#clip-path-331);}.cls-346{clip-path:url(#clip-path-332);}.cls-347{clip-path:url(#clip-path-333);}.cls-348{clip-path:url(#clip-path-334);}.cls-349{clip-path:url(#clip-path-335);}.cls-350{clip-path:url(#clip-path-336);}.cls-351{clip-path:url(#clip-path-337);}.cls-352{clip-path:url(#clip-path-338);}.cls-353{clip-path:url(#clip-path-339);}.cls-354{clip-path:url(#clip-path-340);}.cls-355{clip-path:url(#clip-path-341);}.cls-356{clip-path:url(#clip-path-342);}.cls-357{clip-path:url(#clip-path-343);}.cls-358{clip-path:url(#clip-path-344);}.cls-359{clip-path:url(#clip-path-345);}</style><clipPath id="clip-path"><polygon class="cls-1" points="-1875.83 3305.39 -1875.83 3376.39 -1383.96 3660.37 -892.1 3376.39 -892.1 3305.39 -1383.96 3021.41 -1875.83 3305.39"/></clipPath><clipPath id="clip-path-2"><polygon class="cls-1" points="-1383.96 3660.37 -1875.83 3376.39 -1875.83 3305.39 -1383.96 3589.37 -1383.96 3660.37"/></clipPath><clipPath id="clip-path-3"><polygon class="cls-1" points="-1138.03 3660.37 -892.1 3660.37 -892.1 3305.39 -1383.96 3305.39 -1383.96 3660.37 -1138.03 3660.37"/></clipPath><clipPath id="clip-path-4"><polygon class="cls-1" points="-1322.48 3411.89 -1568.41 3269.89 -1568.41 3056.91 -1322.48 3198.9 -1322.48 3411.89"/></clipPath><clipPath id="clip-path-5"><polygon class="cls-1" points="-1221.52 3044.68 -1322.48 3198.88 -1322.48 3411.86 -1138.03 3305.37 -1138.03 3092.41 -1221.52 3044.68"/></clipPath><clipPath id="clip-path-6"><polygon class="cls-1" points="-1585.19 3081.87 -1476.24 2897.14 -1221.52 3044.68 -1339.25 3223.86 -1585.19 3081.87"/></clipPath><clipPath id="clip-path-7"><polygon class="cls-1" points="-1261.03 3376.39 -1261.03 3234.38 -1199.51 3198.9 -1199.51 3340.87 -1261.03 3376.39"/></clipPath><clipPath id="clip-path-8"><polygon class="cls-1" points="-1414.71 3216.52 -1414.71 3287.51 -1353.22 3323.01 -1353.22 3252.01 -1414.71 3216.52"/></clipPath><clipPath id="clip-path-9"><polygon class="cls-1" points="-1537.45 3145.65 -1537.45 3216.65 -1475.96 3252.14 -1475.96 3181.15 -1537.45 3145.65"/></clipPath><clipPath id="clip-path-10"><rect class="cls-2" x="-1875.83" y="2832.72" width="983.74" height="827.65"/></clipPath><clipPath id="clip-path-11"><path class="cls-1" d="M-1619.26,3342.17h-169.19s-25.22,113.66,32.53,213.91h21.57s-98.92-175.77,30.49-175.77,30.49,175.77,30.49,175.77h21.57c57.74-100.26,32.53-213.91,32.53-213.91"/></clipPath><clipPath id="clip-path-12"><path class="cls-1" d="M-1641.45,3139.93h-.19a99.33,99.33,0,0,0-93.91,67l.47-.1a99.32,99.32,0,0,1,93.63-66.92"/></clipPath><clipPath id="clip-path-13"><path class="cls-1" d="M-1637.37,3140c.91,0,1.82,0,2.73.07-.9,0-1.82,0-2.73-.07"/></clipPath><clipPath id="clip-path-14"><path class="cls-1" d="M-1641.4,3164.55a27.82,27.82,0,0,1,3.41.25,28,28,0,0,0-3.21-.27l-.2,0"/></clipPath><clipPath id="clip-path-15"><path class="cls-1" d="M-1641.21,3139.92h-.24a33.32,33.32,0,0,1,4.08.32,32.85,32.85,0,0,0-3.83-.33"/></clipPath><clipPath id="clip-path-16"><path class="cls-1" d="M-1636.83,3164.66c-.46,0-.93,0-1.4,0l1.4,0"/></clipPath><clipPath id="clip-path-17"><path class="cls-1" d="M-1705.77,3200.95l-29.32,5.91,0,.09,29.79-6a74.73,74.73,0,0,1,63.93-36.41h-.25a74.74,74.74,0,0,0-64.12,36.42"/></clipPath><clipPath id="clip-path-18"><path class="cls-1" d="M-1598.67,3149.48a98.8,98.8,0,0,0-37.81-9.42,98.76,98.76,0,0,1,37.74,9.59Z"/></clipPath><clipPath id="clip-path-19"><path class="cls-1" d="M-1598.74,3149.65a98.76,98.76,0,0,0-37.74-9.59l-.89,0c-1.35-.06-2.71-.1-4.08-.1a99.32,99.32,0,0,0-93.63,66.92l29.32-5.91a74.73,74.73,0,0,1,64.12-36.42h.44c1,0,2,0,3,.09h.46a74.21,74.21,0,0,1,29.42,7.53Z"/></clipPath><clipPath id="clip-path-20"><path class="cls-1" d="M-1765.74,3139.92a98.91,98.91,0,0,0-42.54,9.56l9.68,22.68a74.24,74.24,0,0,1,32.86-7.63,74.73,74.73,0,0,1,64.12,36.42l29.79,6a99.33,99.33,0,0,0-93.91-67"/></clipPath><clipPath id="clip-path-21"><path class="cls-1" d="M-1865,3239.24a99.29,99.29,0,0,0,54.62,88.68l8-23.65a74.74,74.74,0,0,1-38-65,74.79,74.79,0,0,1,41.85-67.08l-9.68-22.68a99.31,99.31,0,0,0-56.78,89.75"/></clipPath><clipPath id="clip-path-22"><path class="cls-1" d="M-1788.31,3066s2.22,38.32,19.87,51l-2.85-24.47Z"/></clipPath><clipPath id="clip-path-23"><path class="cls-1" d="M-1618.39,3066s-2.22,38.32-19.87,51l2.85-24.47Z"/></clipPath><clipPath id="clip-path-24"><path class="cls-1" d="M-1703.35,3155.09l-38.65-21.75s-38.28,136.5-46.45,208.83h85.09Z"/></clipPath><clipPath id="clip-path-25"><path class="cls-1" d="M-1703.85,3155.09l38.65-21.75s38.28,136.5,46.44,208.83h-85.09Z"/></clipPath><clipPath id="clip-path-26"><path class="cls-1" d="M-1703.35,3149.74h-30.18s13.48,30.31,30.18,34c16.69-3.64,30.18-34,30.18-34Z"/></clipPath><clipPath id="clip-path-27"><path class="cls-1" d="M-1703.35,3128.57l-30.18,21.17s15.89,20.64,30.18,20.64c4.39,0,19.7-6.63,30.18-20.64Z"/></clipPath><clipPath id="clip-path-28"><path class="cls-1" d="M-1769.19,3066a13.52,13.52,0,0,0-19.12,0,13.52,13.52,0,0,0,0,19.12,13.52,13.52,0,0,0,19.12,0,13.52,13.52,0,0,0,0-19.12"/></clipPath><clipPath id="clip-path-29"><path class="cls-1" d="M-1618.39,3066a13.52,13.52,0,0,0-19.12,0,13.52,13.52,0,0,0,0,19.12,13.52,13.52,0,0,0,19.12,0,13.52,13.52,0,0,0,0-19.12"/></clipPath><clipPath id="clip-path-30"><path class="cls-1" d="M-1688,3155.11c20.92-7.23,42.66-17.84,52.7-37.56,6.94-13.63,7.19-29.55,7.34-44.85.1-11,.2-22.2-1.46-33a80.56,80.56,0,0,0-3.84-15.41c-6.89-18.91-22.48-34.29-41.22-41.65a77,77,0,0,0-28.82-5.19L-1716.74,3094l13.38,64.31c.34,0,.67,0,1,0,4.91-.12,9.66-1.64,14.3-3.24"/></clipPath><clipPath id="clip-path-31"><path class="cls-1" d="M-1733.06,2983.47c-14,5.73-26.6,15.54-34.29,28.58-10.39,17.64-11.08,39.16-11,59.63.08,18.65.89,39.38,12.92,54.71s33.42,25.37,51.74,30.22a44.49,44.49,0,0,0,10.74,1.71l-5.47-65.8,16-5.47-10.54-109.63a81.81,81.81,0,0,0-30.11,6"/></clipPath><clipPath id="clip-path-32"><path class="cls-1" d="M-1724.85,3056.43a5.68,5.68,0,0,0-5.68-5.68,5.68,5.68,0,0,0-5.68,5.68,5.68,5.68,0,0,0,5.68,5.68,5.68,5.68,0,0,0,5.68-5.68"/></clipPath><clipPath id="clip-path-33"><path class="cls-1" d="M-1668.17,3056.43a5.68,5.68,0,0,0-5.68-5.68,5.68,5.68,0,0,0-5.68,5.68,5.68,5.68,0,0,0,5.68,5.68,5.68,5.68,0,0,0,5.68-5.68"/></clipPath><clipPath id="clip-path-34"><path class="cls-1" d="M-1649.08,3081.87c0,3.49-5.59,6.32-12.5,6.32s-12.5-2.83-12.5-6.32,5.6-6.32,12.5-6.32,12.5,2.83,12.5,6.32"/></clipPath><clipPath id="clip-path-35"><path class="cls-1" d="M-1754.9,3081.87c0,3.49,5.59,6.32,12.5,6.32s12.5-2.83,12.5-6.32-5.59-6.32-12.5-6.32-12.5,2.83-12.5,6.32"/></clipPath><clipPath id="clip-path-36"><polygon class="cls-1" points="-1708.82 3092.49 -1686.32 3092.49 -1692.82 3087.06 -1708.82 3092.49"/></clipPath><clipPath id="clip-path-37"><path class="cls-1" d="M-1636.44,3304.27h31.5l8,23.65c-7,12.09-22,14.25-22,14.25l-4.23-29.07H-1636a4.29,4.29,0,0,1-.45,0,4.44,4.44,0,0,1-4.44-4.44,4.44,4.44,0,0,1,4.44-4.44"/></clipPath><clipPath id="clip-path-38"><path class="cls-1" d="M-1669.73,2966.92v.63c-1.4,2.61-14.12,25.71-31.09,38.37-6.36,4.74-13.31,8-20.49,8.19h43c5.45.12,8.6,2.1,10.92,4.58,4.22,4.53,5.6,10.79,12.66,10.79a14.59,14.59,0,0,1,10.18,3.57c4.72,4.25,5.2,10.78,5.2,10.78v31.72h11.8q0-1.94,0-3.86c0-3.18,0-6.38-.06-9.59a13.44,13.44,0,0,1,7.64,2.65l1.52,1.24s0,0,0,0l.19.23a272.17,272.17,0,0,0,1.88-29.41c0-34.92-22.12-60-53.41-69.85"/></clipPath><clipPath id="clip-path-39"><path class="cls-1" d="M-1689.18,2961.13a138.83,138.83,0,0,0-14.46,0c-2.54.13-5.09.32-7.62.6a103.49,103.49,0,0,0-11,1.79c-.34.08-1.08.36-1.84.61l-1.94.36h0a94.45,94.45,0,0,0-16.26,4.67c-28.22,11-47.71,35.09-47.66,67.84,0,6.94.65,19.13,1.67,27.6,0,.48,0,.92,0,1.4l.15-.12c0,.17,0,.37.06.53.12-.13.21-.28.34-.41a13.29,13.29,0,0,1,8.26-3.8c.41,0,.81-.09,1.22-.07-.06,3.2-.07,6.4-.06,9.57q0,1.92,0,3.86h11.8v-31.72a19.1,19.1,0,0,1,2.08-6.74l2.46-3.38.06-.08c2.29-2.34,5.72-3.53,10.78-4.16s7-6.29,11.45-10.56a16.9,16.9,0,0,1,12.13-4.82s27,.1,30.85,0c38.27-.86,53.1-26.93,58.85-41.24,1.28-3.18,2.11-5.79,2.64-7.4a30.72,30.72,0,0,0,1-4.32Z"/></clipPath><clipPath id="clip-path-40"><path class="cls-1" d="M-1639.39,3075.55c0,22.32-40.76,22.93-58.52,22.13H-1708c-17.76.79-58.52.18-58.52-22.13h-11.8c.21,17.61,1.68,36.57,12.89,50.84,11.95,15.23,33.42,25.37,51.74,30.22a44.44,44.44,0,0,0,10.74,1.71,44.44,44.44,0,0,0,10.74-1.71c18.31-4.86,39.79-15,51.74-30.22,11.2-14.27,12.67-33.24,12.89-50.84h-11.8Z"/></clipPath><clipPath id="clip-path-41"><path class="cls-1" d="M-1703.35,3141.27a34.8,34.8,0,0,0,34.8-34.8h-69.59a34.8,34.8,0,0,0,34.8,34.8"/></clipPath><clipPath id="clip-path-42"><path class="cls-1" d="M-1598.74,3149.65l-9.61,22.51a74.21,74.21,0,0,0-29.42-7.53,74.8,74.8,0,0,1,70.84,74.61,74.74,74.74,0,0,1-38,65l8,23.65a99.29,99.29,0,0,0,54.62-88.68,99.32,99.32,0,0,0-56.41-89.59"/></clipPath><clipPath id="clip-path-43"><path class="cls-1" d="M-1726,3074.23a1.7,1.7,0,0,0-1.71-1.7,1.7,1.7,0,0,0-1.7,1.7,1.71,1.71,0,0,0,1.7,1.7,1.71,1.71,0,0,0,1.71-1.7"/></clipPath><clipPath id="clip-path-44"><path class="cls-1" d="M-1739.7,3068.76a1.7,1.7,0,0,0-1.7-1.7,1.7,1.7,0,0,0-1.71,1.7,1.7,1.7,0,0,0,1.71,1.7,1.7,1.7,0,0,0,1.7-1.7"/></clipPath><clipPath id="clip-path-45"><path class="cls-1" d="M-1715.1,3068.76a1.7,1.7,0,0,0-1.7-1.7,1.7,1.7,0,0,0-1.71,1.7,1.7,1.7,0,0,0,1.71,1.7,1.7,1.7,0,0,0,1.7-1.7"/></clipPath><clipPath id="clip-path-46"><path class="cls-1" d="M-1737,3077a1.71,1.71,0,0,0-1.71-1.71,1.71,1.71,0,0,0-1.7,1.71,1.7,1.7,0,0,0,1.7,1.7,1.7,1.7,0,0,0,1.71-1.7"/></clipPath><clipPath id="clip-path-47"><path class="cls-1" d="M-1745.17,3082.43a1.71,1.71,0,0,0-1.71-1.71,1.71,1.71,0,0,0-1.7,1.71,1.7,1.7,0,0,0,1.7,1.7,1.7,1.7,0,0,0,1.71-1.7"/></clipPath><clipPath id="clip-path-48"><path class="cls-1" d="M-1720.57,3082.43a1.71,1.71,0,0,0-1.7-1.71,1.71,1.71,0,0,0-1.71,1.71,1.7,1.7,0,0,0,1.71,1.7,1.7,1.7,0,0,0,1.7-1.7"/></clipPath><clipPath id="clip-path-49"><path class="cls-1" d="M-1674.13,3074.23a1.7,1.7,0,0,1,1.7-1.7,1.7,1.7,0,0,1,1.71,1.7,1.71,1.71,0,0,1-1.71,1.7,1.71,1.71,0,0,1-1.7-1.7"/></clipPath><clipPath id="clip-path-50"><path class="cls-1" d="M-1660.47,3068.76a1.7,1.7,0,0,1,1.7-1.7,1.7,1.7,0,0,1,1.71,1.7,1.7,1.7,0,0,1-1.71,1.7,1.7,1.7,0,0,1-1.7-1.7"/></clipPath><clipPath id="clip-path-51"><path class="cls-1" d="M-1685.07,3068.76a1.7,1.7,0,0,1,1.7-1.7,1.7,1.7,0,0,1,1.71,1.7,1.7,1.7,0,0,1-1.71,1.7,1.7,1.7,0,0,1-1.7-1.7"/></clipPath><clipPath id="clip-path-52"><path class="cls-1" d="M-1663.2,3077a1.71,1.71,0,0,1,1.71-1.71,1.71,1.71,0,0,1,1.7,1.71,1.7,1.7,0,0,1-1.7,1.7,1.7,1.7,0,0,1-1.71-1.7"/></clipPath><clipPath id="clip-path-53"><path class="cls-1" d="M-1655,3082.43a1.71,1.71,0,0,1,1.7-1.71,1.71,1.71,0,0,1,1.71,1.71,1.7,1.7,0,0,1-1.71,1.7,1.7,1.7,0,0,1-1.7-1.7"/></clipPath><clipPath id="clip-path-54"><path class="cls-1" d="M-1679.6,3082.43a1.71,1.71,0,0,1,1.7-1.71,1.71,1.71,0,0,1,1.71,1.71,1.7,1.7,0,0,1-1.71,1.7,1.7,1.7,0,0,1-1.7-1.7"/></clipPath><clipPath id="clip-path-55"><path class="cls-1" d="M-1788.44,3342.17s-25.22,113.66,32.53,213.91h21.57s-98.92-175.77,30.49-175.77v-38.15Z"/></clipPath><clipPath id="clip-path-56"><path class="cls-1" d="M-1619.26,3342.17s25.22,113.66-32.53,213.91h-21.57s98.92-175.77-30.49-175.77v-38.15Z"/></clipPath><clipPath id="clip-path-57"><path class="cls-1" d="M-1728.37,3559a7.84,7.84,0,0,0-6.13-2.95h-21.42s-13.76,6.2-21.08-1.82a10.77,10.77,0,0,0-8.43-4.05,10.79,10.79,0,0,0-10.79,10.79,10.79,10.79,0,0,0,10.79,10.79h50.92a7.85,7.85,0,0,0,7.85-7.85,7.82,7.82,0,0,0-1.72-4.9"/></clipPath><clipPath id="clip-path-58"><path class="cls-1" d="M-1679.32,3559a7.84,7.84,0,0,1,6.13-2.95h21.42s13.76,6.2,21.08-1.82a10.77,10.77,0,0,1,8.43-4.05,10.79,10.79,0,0,1,10.79,10.79,10.79,10.79,0,0,1-10.79,10.79h-50.92a7.85,7.85,0,0,1-7.85-7.85,7.82,7.82,0,0,1,1.72-4.9"/></clipPath><clipPath id="clip-path-59"><path class="cls-1" d="M-1770.95,3304.27h-31.5l-8,23.65c7,12.09,22,14.25,22,14.25l4.23-29.07h12.82a4.29,4.29,0,0,0,.45,0,4.44,4.44,0,0,0,4.44-4.44,4.44,4.44,0,0,0-4.44-4.44"/></clipPath><clipPath id="clip-path-60"><rect class="cls-2" x="-1101.1" y="2992.89" width="92.62" height="181.23"/></clipPath><clipPath id="clip-path-61"><rect class="cls-2" x="-1012.43" y="2992.89" width="92.6" height="181.28"/></clipPath><clipPath id="clip-path-62"><path class="cls-1" d="M-932.22,3355.48H-1088.9s-23.35,105.26,30.12,198.11h20s-91.61-162.78,28.24-162.78,28.24,162.78,28.24,162.78h20c53.48-92.85,30.12-198.11,30.12-198.11"/></clipPath><clipPath id="clip-path-63"><path class="cls-1" d="M-1088.9,3355.48s-23.35,105.26,30.12,198.11h20s-91.61-162.78,28.24-162.78v-35.33Z"/></clipPath><clipPath id="clip-path-64"><path class="cls-1" d="M-932.22,3355.48s23.35,105.26-30.12,198.11h-20s91.61-162.78-28.24-162.78v-35.33Z"/></clipPath><clipPath id="clip-path-65"><path class="cls-1" d="M-1033.27,3556.32a7.26,7.26,0,0,0-5.68-2.73h-19.83s-12.75,5.74-19.52-1.68a10,10,0,0,0-7.8-3.75,10,10,0,0,0-10,10,10,10,0,0,0,10,10h47.16a7.27,7.27,0,0,0,7.27-7.27,7.24,7.24,0,0,0-1.59-4.54"/></clipPath><clipPath id="clip-path-66"><path class="cls-1" d="M-987.84,3556.32a7.26,7.26,0,0,1,5.68-2.73h19.83s12.75,5.74,19.52-1.68a10,10,0,0,1,7.8-3.75,10,10,0,0,1,10,10,10,10,0,0,1-10,10h-47.16a7.27,7.27,0,0,1-7.27-7.27,7.25,7.25,0,0,1,1.59-4.54"/></clipPath><clipPath id="clip-path-67"><path class="cls-1" d="M-919.83,3083.53a90.64,90.64,0,0,0-90.64-90.64c-.66,0-1.31,0-2,0l-23.15,76.29,23.15,104.88c.66,0,1.3.05,2,.05a90.64,90.64,0,0,0,90.64-90.64"/></clipPath><clipPath id="clip-path-68"><path class="cls-1" d="M-1100.14,3096.77s4.49,54.11-27.67,61.4c0,0,29.88,43.12,97.48,19.56l-9.73-45.54Z"/></clipPath><clipPath id="clip-path-69"><path class="cls-1" d="M-920.92,3096.77s-4.49,54.11,27.67,61.4c0,0-29.88,43.12-97.48,19.56l9.73-45.54Z"/></clipPath><clipPath id="clip-path-70"><path class="cls-1" d="M-1159.33,3250.77a92.94,92.94,0,0,0-.51,9.62,91.72,91.72,0,0,0,50.46,81.92l7.37-21.85a69,69,0,0,1-35.11-60.07,69.21,69.21,0,0,1,.69-9.62Z"/></clipPath><clipPath id="clip-path-71"><path class="cls-1" d="M-1043.51,3172l-4.67,22.35a69.32,69.32,0,0,1,39.32,30.68l27.52,5.54a91.94,91.94,0,0,0-62.17-58.57"/></clipPath><clipPath id="clip-path-72"><path class="cls-1" d="M-1068.1,3168.65a91.75,91.75,0,0,0-91.24,82.12h22.91a69.11,69.11,0,0,1,68.33-59.39,68.71,68.71,0,0,1,19.92,3l4.67-22.35a91.75,91.75,0,0,0-24.58-3.35"/></clipPath><clipPath id="clip-path-73"><path class="cls-1" d="M-1010.93,3182.66l35.7-20.09s35.36,126.1,42.91,192.91h-78.61Z"/></clipPath><clipPath id="clip-path-74"><path class="cls-1" d="M-1002.25,3193.92a91.59,91.59,0,0,0-15.53,24.67l18.28,16.26a68.6,68.6,0,0,1,14.58-26.23l.47-.5-20.66-3.65Z"/></clipPath><clipPath id="clip-path-75"><path class="cls-1" d="M-889.28,3171.59c-19.21-4.62-37.7-10.82-57.76-7.81a91.36,91.36,0,0,0-54.88,29.74l-.34.4-2.87,10.55,20.66,3.65A69.49,69.49,0,0,1-930,3185.59c22.68,1.09,42.46,12.24,65.86,8.73a91.79,91.79,0,0,0,26.05-8l-10.57-20.21a69.51,69.51,0,0,1-40.63,5.48"/></clipPath><clipPath id="clip-path-76"><path class="cls-1" d="M-1010.46,3182.66l-35.7-20.09s-35.36,126.1-42.91,192.91h78.61Z"/></clipPath><clipPath id="clip-path-77"><path class="cls-1" d="M-1038.34,3177.73h6.33l-8-11.71-19.57,13.92,22.73,14-3.16,23,29.59,77.86V3209.1c-15.42-3.37-27.88-31.37-27.88-31.37"/></clipPath><clipPath id="clip-path-78"><path class="cls-1" d="M-982.59,3177.73h-6.33l8-11.71,19.57,13.92-22.73,14,3.16,23-29.59,77.86V3209.1c15.42-3.37,27.88-31.37,27.88-31.37"/></clipPath><clipPath id="clip-path-79"><path class="cls-1" d="M-1010.46,3177.73h-27.88s12.46,28,27.88,31.37c15.42-3.37,27.88-31.37,27.88-31.37Z"/></clipPath><clipPath id="clip-path-80"><path class="cls-1" d="M-1010.46,3158.17l-27.88,19.56s14.68,19.07,27.88,19.07c4.06,0,18.2-6.12,27.88-19.07Z"/></clipPath><clipPath id="clip-path-81"><path class="cls-1" d="M-1071.29,3100.36a12.49,12.49,0,0,0-17.66,0,12.49,12.49,0,0,0,0,17.66,12.49,12.49,0,0,0,17.66,0,12.49,12.49,0,0,0,0-17.66"/></clipPath><clipPath id="clip-path-82"><path class="cls-1" d="M-932,3100.36a12.49,12.49,0,0,0-17.66,0,12.49,12.49,0,0,0,0,17.66,12.49,12.49,0,0,0,17.66,0,12.49,12.49,0,0,0,0-17.66"/></clipPath><clipPath id="clip-path-83"><path class="cls-1" d="M-996.32,3182.68c19.32-6.67,39.41-16.48,48.69-34.69,6.41-12.59,6.64-27.3,6.78-41.43.1-10.17.18-20.51-1.35-30.52a74.36,74.36,0,0,0-3.55-14.23c-6.36-17.47-20.77-31.68-38.08-38.47a71.17,71.17,0,0,0-26.62-4.79l-12.36,107.69,12.36,59.41c.31,0,.62,0,.93,0,4.53-.11,8.93-1.51,13.21-3"/></clipPath><clipPath id="clip-path-84"><path class="cls-1" d="M-1037.91,3024.13c-12.95,5.3-24.57,14.35-31.67,26.4-9.6,16.29-10.24,36.18-10.16,55.09.07,17.23.82,36.38,11.93,50.54s30.88,23.43,47.79,27.92a41.13,41.13,0,0,0,9.92,1.58l-5.05-60.78,14.78-5.05-9.73-101.27a75.59,75.59,0,0,0-27.82,5.57"/></clipPath><clipPath id="clip-path-85"><path class="cls-1" d="M-1030.32,3091.52a5.25,5.25,0,0,0-5.25-5.25,5.25,5.25,0,0,0-5.25,5.25,5.25,5.25,0,0,0,5.25,5.25,5.25,5.25,0,0,0,5.25-5.25"/></clipPath><clipPath id="clip-path-86"><path class="cls-1" d="M-978,3091.52a5.25,5.25,0,0,0-5.25-5.25,5.25,5.25,0,0,0-5.25,5.25,5.25,5.25,0,0,0,5.25,5.25,5.25,5.25,0,0,0,5.25-5.25"/></clipPath><clipPath id="clip-path-87"><path class="cls-1" d="M-960.33,3115c0,3.23-5.17,5.84-11.54,5.84s-11.54-2.61-11.54-5.84,5.17-5.84,11.54-5.84,11.54,2.61,11.54,5.84"/></clipPath><clipPath id="clip-path-88"><path class="cls-1" d="M-1058.09,3115c0,3.23,5.17,5.84,11.54,5.84s11.54-2.61,11.54-5.84-5.17-5.84-11.54-5.84-11.54,2.61-11.54,5.84"/></clipPath><clipPath id="clip-path-89"><polygon class="cls-1" points="-1015.51 3124.83 -994.73 3124.83 -1000.73 3119.82 -1015.51 3124.83"/></clipPath><clipPath id="clip-path-90"><path class="cls-1" d="M-1102,3320.47h29.1v8.16h-12.25l-3.91,26.85s-13.85-2-20.31-13.16Z"/></clipPath><clipPath id="clip-path-91"><path class="cls-1" d="M-1072.91,3320.47a4.1,4.1,0,0,1,4.1,4.1,4.1,4.1,0,0,1-4.1,4.1,4.1,4.1,0,0,1-4.1-4.1,4.1,4.1,0,0,1,4.1-4.1"/></clipPath><clipPath id="clip-path-92"><path class="cls-1" d="M-782.71,3087.11a18.41,18.41,0,0,0,1-6,18.46,18.46,0,0,0-18.46-18.46,18.46,18.46,0,0,0-18.46,18.46,18.37,18.37,0,0,0,3.07,10.18h0l0,.07.1.14,6.55,9.69a68.76,68.76,0,0,1-17.36,48.25,68.39,68.39,0,0,1-22.41,16.63l10.57,20.21a91.4,91.4,0,0,0,28.82-21.74c16.44-18.49,23.06-40.44,22.13-63.35l4.42-14.12Z"/></clipPath><clipPath id="clip-path-93"><path class="cls-1" d="M-814.43,3042.63a4.21,4.21,0,0,0-4.21,4.21v39.35h8.42v-39.35a4.21,4.21,0,0,0-4.21-4.21"/></clipPath><clipPath id="clip-path-94"><path class="cls-1" d="M-794,3077h-25.65a1.52,1.52,0,0,0-1.5,1.19,22,22,0,0,0-.45,4.41,25.73,25.73,0,0,0,1.14,7.59c1.6,5.1,9.21,2.82,9.3-2.52a1.52,1.52,0,0,1,1.52-1.49H-794v-.08h0c2.8,0,5.08-1.73,5.08-4.53s-2.27-4.57-5.08-4.57"/></clipPath><clipPath id="clip-path-95"><path class="cls-1" d="M-1010.46,3169.9a32.14,32.14,0,0,0,32.14-32.14h-64.29a32.15,32.15,0,0,0,32.15,32.14"/></clipPath><clipPath id="clip-path-96"><path class="cls-1" d="M-1009.48,3053.86s-22.51,29.66-85.35,47.36c0,0-15.15-100.46,85.35-90.09Z"/></clipPath><clipPath id="clip-path-97"><path class="cls-1" d="M-1011.45,3053.86s22.51,29.66,85.35,47.36c0,0,15.15-101.71-85.35-91.34Z"/></clipPath><clipPath id="clip-path-98"><path class="cls-1" d="M736.12,3195.7s-71.17-123.23-201.91-52.61c-143.17,77.33-41.57,221-41.57,221s68.32,93.48,325.14,75.44v137.31s-380,70.95-471.62-212.8c-96.89-300.22,184.9-369.12,184.9-369.12s200-50.48,317.53,134.63Z"/></clipPath><clipPath id="clip-path-99"><path class="cls-1" d="M1187.77,3195.7s71.17-123.23,201.91-52.61c143.17,77.33,41.57,221,41.57,221s-68.32,93.48-325.14,75.44v137.31s380,70.95,471.62-212.8c96.89-300.22-184.9-369.12-184.9-369.12s-200-50.48-317.53,134.63Z"/></clipPath><clipPath id="clip-path-100"><polygon class="cls-1" points="962.05 3023.11 469.93 3307.42 469.93 3378.5 962.05 3662.82 1454.18 3378.5 1454.18 3307.42 962.05 3023.11"/></clipPath><clipPath id="clip-path-101"><polygon class="cls-1" points="962.06 3662.82 469.93 3378.5 469.93 3307.42 962.06 3591.74 962.06 3662.82"/></clipPath><clipPath id="clip-path-102"><polygon class="cls-1" points="962.06 3662.82 1454.18 3378.5 1454.18 3307.42 962.06 3591.74 962.06 3662.82"/></clipPath><clipPath id="clip-path-103"><polygon class="cls-1" points="962.01 3663.23 469.39 3378.63 469.39 3307.48 962.01 3592.08 962.01 3663.23"/></clipPath><clipPath id="clip-path-104"><polygon class="cls-1" points="1208.33 3663.23 1454.64 3663.23 1454.64 3307.48 962.01 3307.48 962.01 3663.23 1208.33 3663.23"/></clipPath><clipPath id="clip-path-105"><polygon class="cls-1" points="1023.59 3414.2 777.28 3271.9 777.28 3058.45 1023.59 3200.75 1023.59 3414.2"/></clipPath><clipPath id="clip-path-106"><polygon class="cls-1" points="1124.71 3046.19 1023.59 3200.73 1023.59 3414.18 1208.33 3307.45 1208.33 3094.02 1124.71 3046.19"/></clipPath><clipPath id="clip-path-107"><polygon class="cls-1" points="760.48 3083.46 869.59 2898.32 1124.71 3046.19 1006.8 3225.77 760.48 3083.46"/></clipPath><clipPath id="clip-path-108"><polygon class="cls-1" points="1085.14 3378.63 1085.14 3236.3 1146.75 3200.75 1146.75 3343.03 1085.14 3378.63"/></clipPath><clipPath id="clip-path-109"><polygon class="cls-1" points="931.23 3218.41 931.23 3289.56 992.8 3325.13 992.8 3253.98 931.23 3218.41"/></clipPath><clipPath id="clip-path-110"><polygon class="cls-1" points="808.3 3147.39 808.3 3218.54 869.88 3254.11 869.88 3182.96 808.3 3147.39"/></clipPath><clipPath id="clip-path-111"><rect class="cls-2" x="469.39" y="2833.76" width="985.25" height="829.47"/></clipPath><clipPath id="clip-path-112"><path class="cls-1" d="M693.76,3238.61H600.43s-13.91,62.74,17.94,118.08h11.9s-54.57-97,16.82-97,16.82,97,16.82,97h11.9c31.85-55.34,17.94-118.08,17.94-118.08"/></clipPath><clipPath id="clip-path-113"><path class="cls-1" d="M681.52,3127h-.11a54.8,54.8,0,0,0-51.81,37l.26-.05A54.79,54.79,0,0,1,681.52,3127"/></clipPath><clipPath id="clip-path-114"><path class="cls-1" d="M683.77,3127l1.5,0c-.5,0-1,0-1.5,0"/></clipPath><clipPath id="clip-path-115"><path class="cls-1" d="M681.55,3140.57a15.32,15.32,0,0,1,1.88.14,15.45,15.45,0,0,0-1.77-.15h-.11"/></clipPath><clipPath id="clip-path-116"><path class="cls-1" d="M681.65,3127h-.13a18.38,18.38,0,0,1,2.25.18,18.12,18.12,0,0,0-2.12-.18"/></clipPath><clipPath id="clip-path-117"><path class="cls-1" d="M684.06,3140.63l-.77,0,.77,0"/></clipPath><clipPath id="clip-path-118"><path class="cls-1" d="M646,3160.66l-16.17,3.26,0,.05,16.44-3.31a41.22,41.22,0,0,1,35.27-20.1h-.14a41.22,41.22,0,0,0-35.37,20.1"/></clipPath><clipPath id="clip-path-119"><path class="cls-1" d="M705.11,3132.25a54.47,54.47,0,0,0-20.86-5.2,54.45,54.45,0,0,1,20.82,5.29Z"/></clipPath><clipPath id="clip-path-120"><path class="cls-1" d="M705.08,3132.34a54.45,54.45,0,0,0-20.82-5.29h-.49c-.75,0-1.5-.06-2.25-.06a54.79,54.79,0,0,0-51.65,36.94l16.17-3.26a41.22,41.22,0,0,1,35.37-20.1h.24c.55,0,1.1,0,1.64,0h.25a40.91,40.91,0,0,1,16.23,4.16Z"/></clipPath><clipPath id="clip-path-121"><path class="cls-1" d="M613,3127a54.53,54.53,0,0,0-23.46,5.28l5.34,12.52a41.15,41.15,0,0,1,53.5,15.89l16.44,3.31A54.8,54.8,0,0,0,613,3127"/></clipPath><clipPath id="clip-path-122"><path class="cls-1" d="M558.17,3181.79a54.81,54.81,0,0,0,30.13,49l4.4-13.06a41.23,41.23,0,0,1,2.12-72.92l-5.34-12.52a54.82,54.82,0,0,0-31.32,49.54"/></clipPath><clipPath id="clip-path-123"><path class="cls-1" d="M600.5,3086.16s1.23,21.15,11,28.13l-1.57-13.51Z"/></clipPath><clipPath id="clip-path-124"><path class="cls-1" d="M694.24,3086.16s-1.23,21.15-11,28.13l1.57-13.51Z"/></clipPath><clipPath id="clip-path-125"><path class="cls-1" d="M647.37,3135.34l-21.32-12s-21.11,75.35-25.62,115.27h46.94Z"/></clipPath><clipPath id="clip-path-126"><path class="cls-1" d="M647.09,3135.34l21.32-12s21.11,75.35,25.62,115.27H647.09Z"/></clipPath><clipPath id="clip-path-127"><path class="cls-1" d="M647.37,3132.39H630.72s7.44,16.73,16.65,18.75c9.21-2,16.65-18.75,16.65-18.75Z"/></clipPath><clipPath id="clip-path-128"><path class="cls-1" d="M647.37,3120.71l-16.65,11.69s8.76,11.39,16.65,11.39c2.42,0,10.86-3.66,16.65-11.39Z"/></clipPath><clipPath id="clip-path-129"><path class="cls-1" d="M611,3086.16a7.46,7.46,0,1,0,0,10.55,7.45,7.45,0,0,0,0-10.55"/></clipPath><clipPath id="clip-path-130"><path class="cls-1" d="M694.24,3086.16a7.46,7.46,0,1,0,0,10.55,7.45,7.45,0,0,0,0-10.55"/></clipPath><clipPath id="clip-path-131"><path class="cls-1" d="M655.82,3135.35c11.54-4,23.53-9.85,29.07-20.73,3.83-7.52,4-16.31,4-24.75a113.94,113.94,0,0,0-.81-18.24,44.5,44.5,0,0,0-2.12-8.5,39.86,39.86,0,0,0-22.74-23,42.46,42.46,0,0,0-15.9-2.86L640,3101.63l7.38,35.5.56,0a26.43,26.43,0,0,0,7.89-1.79"/></clipPath><clipPath id="clip-path-132"><path class="cls-1" d="M631,3040.61a38.89,38.89,0,0,0-18.91,15.78c-5.73,9.73-6.11,21.62-6.07,32.92,0,10.3.49,21.74,7.13,30.2s18.44,14,28.54,16.68a24.53,24.53,0,0,0,5.92.95l-3-36.32,8.83-3-5.81-60.52a45.1,45.1,0,0,0-16.61,3.33"/></clipPath><clipPath id="clip-path-133"><path class="cls-1" d="M635.51,3080.88a3.14,3.14,0,1,0-3.14,3.14,3.14,3.14,0,0,0,3.14-3.14"/></clipPath><clipPath id="clip-path-134"><path class="cls-1" d="M666.78,3080.88a3.13,3.13,0,1,0-3.14,3.14,3.14,3.14,0,0,0,3.14-3.14"/></clipPath><clipPath id="clip-path-135"><path class="cls-1" d="M677.31,3094.93c0,1.93-3.09,3.49-6.89,3.49s-6.89-1.56-6.89-3.49,3.09-3.49,6.89-3.49,6.89,1.56,6.89,3.49"/></clipPath><clipPath id="clip-path-136"><path class="cls-1" d="M618.93,3094.93c0,1.93,3.09,3.49,6.89,3.49s6.89-1.56,6.89-3.49-3.09-3.49-6.89-3.49-6.89,1.56-6.89,3.49"/></clipPath><clipPath id="clip-path-137"><polygon class="cls-1" points="644.35 3100.79 656.76 3100.79 653.18 3097.79 644.35 3100.79"/></clipPath><clipPath id="clip-path-138"><path class="cls-1" d="M684.28,3217.69h17.38l4.4,13.06c-3.86,6.67-12.13,7.87-12.13,7.87l-2.33-16h-7.07l-.25,0a2.45,2.45,0,0,1,0-4.9"/></clipPath><clipPath id="clip-path-139"><path class="cls-1" d="M665.92,3031.47v.35c-.77,1.44-7.79,14.19-17.15,21.18-3.51,2.62-7.34,4.43-11.3,4.52h23.73a7.83,7.83,0,0,1,6,2.53c2.33,2.5,3.09,6,7,6a8,8,0,0,1,5.61,2,9.82,9.82,0,0,1,2.87,6v17.51h6.51q0-1.07,0-2.13c0-1.75,0-3.52,0-5.29a7.41,7.41,0,0,1,4.22,1.46l.84.69v0l.1.13a150.36,150.36,0,0,0,1-16.23c0-19.28-12.2-33.14-29.46-38.56"/></clipPath><clipPath id="clip-path-140"><path class="cls-1" d="M655.19,3028.28a76.57,76.57,0,0,0-8,0c-1.4.07-2.81.18-4.2.33a57.15,57.15,0,0,0-6.07,1c-.19,0-.6.2-1,.34l-1.07.2h0a52,52,0,0,0-9,2.58c-15.57,6.05-26.32,19.37-26.29,37.45,0,3.83.36,10.56.92,15.24,0,.26,0,.51,0,.77l.08-.07,0,.29c.07-.07.12-.16.19-.23a7.33,7.33,0,0,1,4.55-2.1c.22,0,.45,0,.67,0,0,1.77,0,3.53,0,5.28,0,.71,0,1.42,0,2.13h6.51v-17.51a10.55,10.55,0,0,1,1.15-3.72l1.36-1.86,0,0c1.26-1.29,3.16-1.95,5.95-2.3s3.88-3.47,6.32-5.83a9.32,9.32,0,0,1,6.69-2.66s14.89.05,17,0c21.11-.48,29.29-14.87,32.46-22.77.7-1.76,1.16-3.2,1.46-4.09a17,17,0,0,0,.54-2.38Z"/></clipPath><clipPath id="clip-path-141"><path class="cls-1" d="M682.66,3091.44c0,12.32-22.48,12.66-32.28,12.22h-5.56c-9.8.44-32.28.1-32.28-12.22H606c.12,9.72.93,20.19,7.11,28.06,6.59,8.4,18.44,14,28.54,16.68a19,19,0,0,0,11.85,0c10.1-2.68,21.95-8.28,28.54-16.68,6.18-7.88,7-18.35,7.11-28.06h-6.51Z"/></clipPath><clipPath id="clip-path-142"><path class="cls-1" d="M647.37,3127.72a19.2,19.2,0,0,0,19.2-19.21H628.17a19.2,19.2,0,0,0,19.2,19.21"/></clipPath><clipPath id="clip-path-143"><path class="cls-1" d="M705.08,3132.34l-5.3,12.43a40.91,40.91,0,0,0-16.23-4.16,41.23,41.23,0,0,1,18.11,77.08l4.4,13.06a54.84,54.84,0,0,0-1-98.4"/></clipPath><clipPath id="clip-path-144"><path class="cls-1" d="M634.86,3090.71a.94.94,0,1,0-.94.94.94.94,0,0,0,.94-.94"/></clipPath><clipPath id="clip-path-145"><path class="cls-1" d="M627.32,3087.69a.94.94,0,1,0-.94.94.94.94,0,0,0,.94-.94"/></clipPath><clipPath id="clip-path-146"><path class="cls-1" d="M640.89,3087.69a.94.94,0,1,0-.94.94.94.94,0,0,0,.94-.94"/></clipPath><clipPath id="clip-path-147"><path class="cls-1" d="M628.82,3092.22a.94.94,0,1,0-.94.94.94.94,0,0,0,.94-.94"/></clipPath><clipPath id="clip-path-148"><path class="cls-1" d="M624.3,3095.24a.94.94,0,1,0-.94.94.94.94,0,0,0,.94-.94"/></clipPath><clipPath id="clip-path-149"><path class="cls-1" d="M637.87,3095.24a.94.94,0,1,0-.94.94.94.94,0,0,0,.94-.94"/></clipPath><clipPath id="clip-path-150"><path class="cls-1" d="M663.49,3090.71a.94.94,0,1,1,.94.94.94.94,0,0,1-.94-.94"/></clipPath><clipPath id="clip-path-151"><path class="cls-1" d="M671,3087.69a.94.94,0,1,1,.94.94.94.94,0,0,1-.94-.94"/></clipPath><clipPath id="clip-path-152"><path class="cls-1" d="M657.46,3087.69a.94.94,0,1,1,.94.94.94.94,0,0,1-.94-.94"/></clipPath><clipPath id="clip-path-153"><path class="cls-1" d="M669.52,3092.22a.94.94,0,1,1,.94.94.94.94,0,0,1-.94-.94"/></clipPath><clipPath id="clip-path-154"><path class="cls-1" d="M674,3095.24a.94.94,0,1,1,.94.94.94.94,0,0,1-.94-.94"/></clipPath><clipPath id="clip-path-155"><path class="cls-1" d="M660.47,3095.24a.94.94,0,1,1,.94.94.94.94,0,0,1-.94-.94"/></clipPath><clipPath id="clip-path-156"><path class="cls-1" d="M600.43,3238.61s-13.91,62.74,17.94,118.08h11.9s-54.57-97,16.82-97v-21.06Z"/></clipPath><clipPath id="clip-path-157"><path class="cls-1" d="M693.76,3238.61s13.91,62.74-17.94,118.08h-11.9s54.57-97-16.82-97v-21.06Z"/></clipPath><clipPath id="clip-path-158"><path class="cls-1" d="M633.57,3358.32a4.32,4.32,0,0,0-3.38-1.63H618.37s-7.59,3.42-11.63-1a6,6,0,1,0-4.65,9.67h28.09a4.33,4.33,0,0,0,3.38-7"/></clipPath><clipPath id="clip-path-159"><path class="cls-1" d="M660.62,3358.32a4.32,4.32,0,0,1,3.38-1.63h11.81s7.59,3.42,11.63-1a6,6,0,1,1,4.65,9.67H664a4.34,4.34,0,0,1-3.38-7"/></clipPath><clipPath id="clip-path-160"><path class="cls-1" d="M610.08,3217.69H592.71l-4.4,13.06c3.86,6.67,12.13,7.87,12.13,7.87l2.33-16h7.07l.25,0a2.45,2.45,0,0,0,0-4.9"/></clipPath><clipPath id="clip-path-161"><rect class="cls-2" x="725.17" y="3042.42" width="51.09" height="100.04"/></clipPath><clipPath id="clip-path-162"><rect class="cls-2" x="774.09" y="3042.42" width="51.08" height="100.07"/></clipPath><clipPath id="clip-path-163"><path class="cls-1" d="M818.33,3242.57H731.9s-12.88,58.1,16.62,109.36h11s-50.53-89.86,15.58-89.86,15.58,89.86,15.58,89.86h11c29.5-51.25,16.62-109.36,16.62-109.36"/></clipPath><clipPath id="clip-path-164"><path class="cls-1" d="M731.9,3242.57s-12.88,58.1,16.62,109.36h11s-50.53-89.86,15.58-89.86v-19.5Z"/></clipPath><clipPath id="clip-path-165"><path class="cls-1" d="M818.33,3242.57s12.88,58.1-16.62,109.36h-11s50.53-89.86-15.58-89.86v-19.5Z"/></clipPath><clipPath id="clip-path-166"><path class="cls-1" d="M762.59,3353.43a4,4,0,0,0-3.13-1.51H748.52s-7,3.17-10.77-.93a5.51,5.51,0,1,0-4.3,9h26a4,4,0,0,0,3.13-6.52"/></clipPath><clipPath id="clip-path-167"><path class="cls-1" d="M787.65,3353.43a4,4,0,0,1,3.13-1.51h10.94s7,3.17,10.77-.93a5.51,5.51,0,1,1,4.3,9h-26a4,4,0,0,1-3.13-6.52"/></clipPath><clipPath id="clip-path-168"><path class="cls-1" d="M825.17,3092.45a50,50,0,0,0-50-50l-1.08,0-12.77,42.11,12.77,57.9,1.08,0a50,50,0,0,0,50-50"/></clipPath><clipPath id="clip-path-169"><path class="cls-1" d="M725.7,3099.76s2.48,29.87-15.26,33.89c0,0,16.48,23.8,53.78,10.8l-5.37-25.14Z"/></clipPath><clipPath id="clip-path-170"><path class="cls-1" d="M824.57,3099.76s-2.48,29.87,15.26,33.89c0,0-16.48,23.8-53.77,10.8l5.37-25.14Z"/></clipPath><clipPath id="clip-path-171"><path class="cls-1" d="M693,3184.77a51.3,51.3,0,0,0-.28,5.31,50.63,50.63,0,0,0,27.84,45.22l4.07-12.06a38,38,0,0,1-19-38.47Z"/></clipPath><clipPath id="clip-path-172"><path class="cls-1" d="M720.43,3220.44a7.32,7.32,0,0,0-1.68-6.37c-1.68-1.73-3.37-3.54-7.15-3.06a38.28,38.28,0,0,1-8.33,9.91c-.14,2.32-1.47,6.24,0,7.73s6.54,1.21,8.81,1.21a50.77,50.77,0,0,0,8.35-9.42"/></clipPath><clipPath id="clip-path-173"><path class="cls-1" d="M756.94,3141.29l-2.57,12.34a38.24,38.24,0,0,1,21.69,16.93l15.18,3.06a50.73,50.73,0,0,0-34.3-32.33"/></clipPath><clipPath id="clip-path-174"><path class="cls-1" d="M743.38,3139.44A50.63,50.63,0,0,0,693,3184.77h12.64a38,38,0,0,1,48.68-31.14l2.57-12.34a50.58,50.58,0,0,0-13.56-1.85"/></clipPath><clipPath id="clip-path-175"><path class="cls-1" d="M774.92,3147.17l19.69-11.09s19.51,69.61,23.67,106.49H774.92Z"/></clipPath><clipPath id="clip-path-176"><path class="cls-1" d="M779.7,3153.38a50.56,50.56,0,0,0-8.57,13.62l10.08,9a37.87,37.87,0,0,1,8-14.48l.26-.27-11.4-2Z"/></clipPath><clipPath id="clip-path-177"><path class="cls-1" d="M842,3141.06c-10.6-2.55-20.79-6-31.86-4.31a50.39,50.39,0,0,0-30.27,16.42l-.19.22-1.58,5.83,11.4,2a38.32,38.32,0,0,1,30-12.44c12.51.6,23.42,6.76,36.33,4.82a50.61,50.61,0,0,0,14.37-4.41L864.44,3138a38.32,38.32,0,0,1-22.41,3"/></clipPath><clipPath id="clip-path-178"><path class="cls-1" d="M775.17,3147.17l-19.69-11.09s-19.51,69.61-23.67,106.49h43.36Z"/></clipPath><clipPath id="clip-path-179"><path class="cls-1" d="M759.79,3144.45h3.49l-4.44-6.46-10.8,7.68,12.54,7.72-1.74,12.72,16.32,43v-47.33c-8.51-1.86-15.38-17.32-15.38-17.32"/></clipPath><clipPath id="clip-path-180"><path class="cls-1" d="M790.55,3144.45h-3.49l4.44-6.46,10.8,7.68-12.54,7.72,1.74,12.72-16.32,43v-47.33c8.51-1.86,15.38-17.32,15.38-17.32"/></clipPath><clipPath id="clip-path-181"><path class="cls-1" d="M775.17,3144.45H759.79s6.87,15.46,15.38,17.32c8.51-1.86,15.38-17.32,15.38-17.32Z"/></clipPath><clipPath id="clip-path-182"><path class="cls-1" d="M775.17,3133.65l-15.38,10.8s8.1,10.52,15.38,10.52c2.24,0,10-3.38,15.38-10.52Z"/></clipPath><clipPath id="clip-path-183"><path class="cls-1" d="M741.62,3101.74a6.89,6.89,0,1,0,0,9.75,6.88,6.88,0,0,0,0-9.75"/></clipPath><clipPath id="clip-path-184"><path class="cls-1" d="M818.46,3101.74a6.89,6.89,0,1,0,0,9.75,6.88,6.88,0,0,0,0-9.75"/></clipPath><clipPath id="clip-path-185"><path class="cls-1" d="M783,3147.18c10.66-3.68,21.74-9.1,26.86-19.15,3.54-6.95,3.67-15.07,3.74-22.87a105.25,105.25,0,0,0-.75-16.85,41,41,0,0,0-2-7.86,36.82,36.82,0,0,0-21-21.24,39.23,39.23,0,0,0-14.69-2.65L768.35,3116l6.82,32.79.51,0a24.41,24.41,0,0,0,7.29-1.65"/></clipPath><clipPath id="clip-path-186"><path class="cls-1" d="M760,3059.66a35.93,35.93,0,0,0-17.47,14.58c-5.3,9-5.65,20-5.6,30.41,0,9.51.45,20.08,6.58,27.9s17,12.93,26.37,15.41a22.67,22.67,0,0,0,5.47.87l-2.79-33.55,8.15-2.79-5.37-55.9a41.67,41.67,0,0,0-15.34,3.08"/></clipPath><clipPath id="clip-path-187"><path class="cls-1" d="M764.22,3096.86a2.9,2.9,0,1,0-2.9,2.9,2.9,2.9,0,0,0,2.9-2.9"/></clipPath><clipPath id="clip-path-188"><path class="cls-1" d="M793.1,3096.86a2.9,2.9,0,1,0-2.9,2.9,2.9,2.9,0,0,0,2.9-2.9"/></clipPath><clipPath id="clip-path-189"><path class="cls-1" d="M802.83,3109.84c0,1.78-2.85,3.22-6.37,3.22s-6.37-1.44-6.37-3.22,2.85-3.22,6.37-3.22,6.37,1.44,6.37,3.22"/></clipPath><clipPath id="clip-path-190"><path class="cls-1" d="M748.9,3109.84c0,1.78,2.85,3.22,6.37,3.22s6.37-1.44,6.37-3.22-2.85-3.22-6.37-3.22-6.37,1.44-6.37,3.22"/></clipPath><clipPath id="clip-path-191"><polygon class="cls-1" points="772.38 3115.25 783.85 3115.25 780.54 3112.48 772.38 3115.25"/></clipPath><clipPath id="clip-path-192"><path class="cls-1" d="M724.67,3223.24h16.05v4.5H734l-2.16,14.82s-7.64-1.1-11.2-7.27Z"/></clipPath><clipPath id="clip-path-193"><path class="cls-1" d="M740.72,3223.24a2.26,2.26,0,1,1-2.26,2.26,2.26,2.26,0,0,1,2.26-2.26"/></clipPath><clipPath id="clip-path-194"><path class="cls-1" d="M900.81,3094.42a10.18,10.18,0,1,0-18.12,2.33h0l0,0,.05.08,3.61,5.35A37.92,37.92,0,0,1,864.44,3138l5.83,11.16a50.43,50.43,0,0,0,15.9-12c9.07-10.2,12.72-22.32,12.21-35l2.44-7.79Z"/></clipPath><clipPath id="clip-path-195"><path class="cls-1" d="M883.31,3069.87a2.32,2.32,0,0,0-2.32,2.32v21.72h4.64V3072.2a2.32,2.32,0,0,0-2.32-2.32"/></clipPath><clipPath id="clip-path-196"><path class="cls-1" d="M894.58,3088.84H880.44a.84.84,0,0,0-.83.66,12.17,12.17,0,0,0-.25,2.43,14.2,14.2,0,0,0,.63,4.19c.88,2.81,5.08,1.56,5.13-1.39a.84.84,0,0,1,.84-.82h8.6v0h0a2.53,2.53,0,1,0,0-5"/></clipPath><clipPath id="clip-path-197"><path class="cls-1" d="M775.17,3140.13a17.74,17.74,0,0,0,17.73-17.74H757.44a17.74,17.74,0,0,0,17.73,17.74"/></clipPath><clipPath id="clip-path-198"><path class="cls-1" d="M775.71,3076.07s-12.42,16.37-47.08,26.15c0,0-8.36-55.46,47.08-49.73Z"/></clipPath><clipPath id="clip-path-199"><path class="cls-1" d="M774.63,3076.07s12.42,16.37,47.08,26.15c0,0,8.36-56.14-47.08-50.42Z"/></clipPath><clipPath id="clip-path-200"><path class="cls-1" d="M1464.72,3238.49c10,64.16-33.48,125.61-33.48,125.61s-68.32,93.48-325.14,75.44v137.31s380,70.95,471.62-212.8c17.3-53.61,22.53-99.84,19.44-139.63-14.2-183-204.34-229.5-204.34-229.5S1459.44,3204.55,1464.72,3238.49Z"/></clipPath><clipPath id="clip-path-201"><path class="cls-1" d="M1106.51,3438.67l-166.27-56-15.68,46.66,70,23.57L965.3,3614s83,15.21,141.35-36.21Z"/></clipPath><clipPath id="clip-path-202"><path class="cls-1" d="M908.93,3398.27a24.72,24.72,0,1,0,31.31-15.56,24.74,24.74,0,0,0-31.31,15.56"/></clipPath><clipPath id="clip-path-203"><path class="cls-1" d="M994.59,3452.94l-151.74-35.43L802.5,3571s120.38,50.91,189.46,45.13l28.61-66.14Z"/></clipPath><clipPath id="clip-path-204"><path class="cls-1" d="M802.5,3571c25.73,6.57,55.4-22.63,66.27-65.23s-1.18-82.46-26.91-89-55.4,22.63-66.27,65.23,1.18,82.46,26.91,89"/></clipPath><clipPath id="clip-path-205"><path class="cls-1" d="M463.74,3219.56c-23.52,70.42,28.9,144.55,28.9,144.55s68.32,93.48,325.14,75.44v137.31s-380,70.95-471.62-212.8c-29.51-91.45-23.89-161.44-1.8-214.55,50.43-121.26,186.7-154.58,186.7-154.58S473,3191.93,463.74,3219.56Z"/></clipPath><clipPath id="clip-path-206"><path class="cls-1" d="M818.57,3440.92l175.31,6.16-1.73,49.19-73.84-2.59L889.1,3654.75s-74-13.36-113-72.66c-2.31-3.5,42.52-141.17,42.52-141.17"/></clipPath><clipPath id="clip-path-207"><path class="cls-1" d="M1017.72,3472.67a24.72,24.72,0,1,1-23.84-25.59,24.73,24.73,0,0,1,23.84,25.59"/></clipPath><clipPath id="clip-path-208"><path class="cls-1" d="M918.32,3493.68l154.49,20.26-16.2,157.85S926,3677.06,863.4,3647.33l-3.52-72Z"/></clipPath><clipPath id="clip-path-209"><path class="cls-1" d="M1056.61,3671.8c-26.4-2.91-43.9-40.69-39.09-84.39s30.1-76.77,56.5-73.86,43.9,40.69,39.09,84.39-30.1,76.77-56.5,73.87"/></clipPath><clipPath id="clip-path-210"><polygon class="cls-1" points="2770.39 3396.91 2770.39 3467.68 3260.65 3750.73 3750.91 3467.68 3750.91 3396.91 3260.65 3113.86 2770.39 3396.91"/></clipPath><clipPath id="clip-path-211"><polygon class="cls-1" points="3260.65 3750.73 2770.39 3467.68 2770.39 3396.91 3260.65 3679.97 3260.65 3750.73"/></clipPath><clipPath id="clip-path-212"><polygon class="cls-1" points="3505.78 3750.73 3750.91 3750.73 3750.91 3396.91 3260.65 3396.91 3260.65 3750.73 3505.78 3750.73"/></clipPath><clipPath id="clip-path-213"><path class="cls-1" d="M3618.06,3290.77a71.57,71.57,0,0,0-71.57,71.57h143.13a71.57,71.57,0,0,0-71.57-71.57"/></clipPath><clipPath id="clip-path-214"><path class="cls-1" d="M3570.94,3332.81a39.38,39.38,0,0,0-39.38,39.38h78.76a39.38,39.38,0,0,0-39.38-39.38"/></clipPath><clipPath id="clip-path-215"><path class="cls-1" d="M3313.09,3535.09a42.86,42.86,0,0,0-38.47,24,34.47,34.47,0,0,0-40.93-1.2A53.28,53.28,0,1,0,3129.06,3578H3356a42.9,42.9,0,0,0-42.9-42.9"/></clipPath><clipPath id="clip-path-216"><path class="cls-1" d="M2881.15,3394.35h122.91a61.45,61.45,0,0,0-122.91,0Z"/></clipPath><clipPath id="clip-path-217"><path class="cls-1" d="M3218.2,3260H3049.57s-25.14,113.28,32.42,213.21h21.5s-98.59-175.19,30.39-175.19,30.39,175.19,30.39,175.19h21.5c57.55-99.93,32.42-213.21,32.42-213.21"/></clipPath><clipPath id="clip-path-218"><path class="cls-1" d="M3196.08,3058.46h-.19a99,99,0,0,0-93.61,66.8l.47-.1a99,99,0,0,1,93.33-66.7"/></clipPath><clipPath id="clip-path-219"><path class="cls-1" d="M3200.15,3058.56c.9,0,1.82,0,2.72.07-.9,0-1.81,0-2.72-.07"/></clipPath><clipPath id="clip-path-220"><path class="cls-1" d="M3196.14,3083a27.72,27.72,0,0,1,3.4.25,27.92,27.92,0,0,0-3.19-.27l-.2,0"/></clipPath><clipPath id="clip-path-221"><path class="cls-1" d="M3196.32,3058.46h-.24a33.17,33.17,0,0,1,4.07.32,32.68,32.68,0,0,0-3.82-.33"/></clipPath><clipPath id="clip-path-222"><path class="cls-1" d="M3200.69,3083.11c-.46,0-.93,0-1.39,0l1.39,0"/></clipPath><clipPath id="clip-path-223"><path class="cls-1" d="M3132,3119.28l-29.23,5.89,0,.09,29.7-6a74.49,74.49,0,0,1,63.72-36.29h-.25a74.49,74.49,0,0,0-63.91,36.3"/></clipPath><clipPath id="clip-path-224"><path class="cls-1" d="M3238.72,3068a98.49,98.49,0,0,0-37.69-9.39,98.44,98.44,0,0,1,37.62,9.56Z"/></clipPath><clipPath id="clip-path-225"><path class="cls-1" d="M3238.65,3068.15a98.43,98.43,0,0,0-37.62-9.56l-.88,0c-1.35-.06-2.7-.1-4.07-.1a99,99,0,0,0-93.33,66.7l29.23-5.89a74.49,74.49,0,0,1,63.91-36.3h.44c1,0,2,0,3,.09h.45a74,74,0,0,1,29.33,7.51Z"/></clipPath><clipPath id="clip-path-226"><path class="cls-1" d="M3072.2,3058.46a98.59,98.59,0,0,0-42.4,9.53l9.65,22.6a74.37,74.37,0,0,1,96.66,28.69l29.7,6a99,99,0,0,0-93.61-66.8"/></clipPath><clipPath id="clip-path-227"><path class="cls-1" d="M2973.21,3157.44a99,99,0,0,0,54.44,88.39l8-23.57a74.42,74.42,0,0,1,3.84-131.67l-9.65-22.6a99,99,0,0,0-56.59,89.46"/></clipPath><clipPath id="clip-path-228"><path class="cls-1" d="M3049.71,2984.77s2.21,38.19,19.81,50.79l-2.84-24.39Z"/></clipPath><clipPath id="clip-path-229"><path class="cls-1" d="M3219.06,2984.77s-2.21,38.19-19.81,50.79l2.84-24.39Z"/></clipPath><clipPath id="clip-path-230"><path class="cls-1" d="M3134.38,3073.57l-38.52-21.67s-38.15,136.05-46.29,208.14h84.81Z"/></clipPath><clipPath id="clip-path-231"><path class="cls-1" d="M3133.89,3073.57l38.52-21.67s38.15,136.05,46.29,208.14h-84.81Z"/></clipPath><clipPath id="clip-path-232"><path class="cls-1" d="M3134.38,3068.24h-30.08s13.44,30.21,30.08,33.85c16.64-3.63,30.08-33.85,30.08-33.85Z"/></clipPath><clipPath id="clip-path-233"><path class="cls-1" d="M3134.38,3047.14l-30.08,21.1s15.84,20.57,30.08,20.57c4.38,0,19.63-6.61,30.08-20.57Z"/></clipPath><clipPath id="clip-path-234"><path class="cls-1" d="M3068.76,2984.77a13.47,13.47,0,1,0,0,19.05,13.47,13.47,0,0,0,0-19.05"/></clipPath><clipPath id="clip-path-235"><path class="cls-1" d="M3219.06,2984.77a13.47,13.47,0,1,0,0,19.05,13.47,13.47,0,0,0,0-19.05"/></clipPath><clipPath id="clip-path-236"><path class="cls-1" d="M3149.65,3073.59c20.85-7.2,42.52-17.78,52.53-37.43,6.92-13.58,7.17-29.46,7.31-44.7.1-11,.19-22.13-1.46-32.93a80.29,80.29,0,0,0-3.83-15.36c-6.87-18.85-22.41-34.18-41.09-41.51a76.75,76.75,0,0,0-28.73-5.17L3121,3012.69l13.34,64.1c.34,0,.67,0,1,0,4.89-.12,9.63-1.63,14.25-3.23"/></clipPath><clipPath id="clip-path-237"><path class="cls-1" d="M3104.78,2902.52c-14,5.71-26.51,15.48-34.17,28.49-10.36,17.58-11,39-11,59.44.08,18.59.89,39.25,12.88,54.53s33.31,25.28,51.57,30.12a44.34,44.34,0,0,0,10.7,1.71l-5.45-65.58,16-5.45-10.5-109.27a81.54,81.54,0,0,0-30,6"/></clipPath><clipPath id="clip-path-238"><path class="cls-1" d="M3113,2975.23a5.66,5.66,0,1,0-5.66,5.66,5.67,5.67,0,0,0,5.66-5.66"/></clipPath><clipPath id="clip-path-239"><path class="cls-1" d="M3169.45,2975.23a5.66,5.66,0,1,0-5.66,5.66,5.66,5.66,0,0,0,5.66-5.66"/></clipPath><clipPath id="clip-path-240"><path class="cls-1" d="M3188.48,3000.59c0,3.48-5.58,6.3-12.45,6.3s-12.46-2.82-12.46-6.3,5.58-6.3,12.46-6.3,12.45,2.82,12.45,6.3"/></clipPath><clipPath id="clip-path-241"><path class="cls-1" d="M3083,3000.59c0,3.48,5.58,6.3,12.45,6.3s12.46-2.82,12.46-6.3-5.58-6.3-12.46-6.3-12.45,2.82-12.45,6.3"/></clipPath><clipPath id="clip-path-242"><polygon class="cls-1" points="3128.93 3011.17 3151.36 3011.17 3144.89 3005.76 3128.93 3011.17"/></clipPath><clipPath id="clip-path-243"><path class="cls-1" d="M3201.08,3222.26h31.39l8,23.57c-7,12-21.91,14.2-21.91,14.2l-4.22-29h-12.77a4.28,4.28,0,0,1-.45,0,4.42,4.42,0,1,1,0-8.85"/></clipPath><clipPath id="clip-path-244"><path class="cls-1" d="M3167.9,2886v.62c-1.4,2.6-14.07,25.63-31,38.24-6.34,4.73-13.27,8-20.43,8.16h42.87c5.43.12,8.57,2.09,10.88,4.57,4.21,4.52,5.58,10.76,12.62,10.76a14.54,14.54,0,0,1,10.14,3.56c4.7,4.24,5.18,10.75,5.18,10.75v31.62H3210q0-1.94,0-3.85c0-3.17,0-6.36-.06-9.56a13.39,13.39,0,0,1,7.62,2.64l1.52,1.24s0,0,0,0l.19.23a271.3,271.3,0,0,0,1.88-29.31c0-34.81-22-59.84-53.23-69.62"/></clipPath><clipPath id="clip-path-245"><path class="cls-1" d="M3148.51,2880.25a138.06,138.06,0,0,0-14.41,0c-2.54.13-5.07.32-7.59.6a103.3,103.3,0,0,0-11,1.78c-.34.08-1.08.36-1.83.61l-1.93.36h0a94.08,94.08,0,0,0-16.21,4.65c-28.13,10.93-47.55,35-47.51,67.61,0,6.91.65,19.07,1.66,27.51,0,.47,0,.91,0,1.39l.15-.12c0,.17,0,.36.06.53.12-.13.21-.28.34-.41a13.25,13.25,0,0,1,8.23-3.79c.41,0,.81-.09,1.21-.07-.06,3.19-.07,6.38-.06,9.54q0,1.91,0,3.85h11.76v-31.62a19,19,0,0,1,2.07-6.71l2.45-3.36.06-.08c2.28-2.33,5.7-3.52,10.75-4.15s7-6.27,11.42-10.52a16.85,16.85,0,0,1,12.09-4.8s26.9.1,30.75,0c38.14-.86,52.93-26.84,58.65-41.11,1.27-3.17,2.1-5.77,2.64-7.38a30.64,30.64,0,0,0,1-4.3Z"/></clipPath><clipPath id="clip-path-246"><path class="cls-1" d="M3198.14,2994.29c0,22.25-40.62,22.85-58.33,22.06h-10c-17.7.79-58.33.18-58.33-22.06h-11.76c.21,17.55,1.68,36.45,12.85,50.68,11.91,15.18,33.31,25.28,51.57,30.12a34.37,34.37,0,0,0,21.41,0c18.25-4.84,39.66-14.95,51.57-30.12,11.17-14.23,12.63-33.13,12.84-50.68h-11.76Z"/></clipPath><clipPath id="clip-path-247"><path class="cls-1" d="M3134.38,3059.8a34.68,34.68,0,0,0,34.68-34.68H3099.7a34.68,34.68,0,0,0,34.68,34.68"/></clipPath><clipPath id="clip-path-248"><path class="cls-1" d="M3238.65,3068.15l-9.58,22.44a74,74,0,0,0-29.33-7.51,74.44,74.44,0,0,1,32.73,139.18l8,23.57a99,99,0,0,0-1.78-177.68"/></clipPath><clipPath id="clip-path-249"><path class="cls-1" d="M3111.77,2993a1.7,1.7,0,1,0-1.7,1.7,1.7,1.7,0,0,0,1.7-1.7"/></clipPath><clipPath id="clip-path-250"><path class="cls-1" d="M3098.15,2987.52a1.7,1.7,0,1,0-1.7,1.7,1.7,1.7,0,0,0,1.7-1.7"/></clipPath><clipPath id="clip-path-251"><path class="cls-1" d="M3122.67,2987.52a1.7,1.7,0,1,0-1.7,1.7,1.7,1.7,0,0,0,1.7-1.7"/></clipPath><clipPath id="clip-path-252"><path class="cls-1" d="M3100.88,2995.7a1.7,1.7,0,1,0-1.7,1.7,1.7,1.7,0,0,0,1.7-1.7"/></clipPath><clipPath id="clip-path-253"><path class="cls-1" d="M3092.7,3001.15a1.7,1.7,0,1,0-1.7,1.7,1.7,1.7,0,0,0,1.7-1.7"/></clipPath><clipPath id="clip-path-254"><path class="cls-1" d="M3117.22,3001.15a1.7,1.7,0,1,0-1.7,1.7,1.7,1.7,0,0,0,1.7-1.7"/></clipPath><clipPath id="clip-path-255"><path class="cls-1" d="M3163.51,2993a1.7,1.7,0,1,1,1.7,1.7,1.7,1.7,0,0,1-1.7-1.7"/></clipPath><clipPath id="clip-path-256"><path class="cls-1" d="M3177.13,2987.52a1.7,1.7,0,1,1,1.7,1.7,1.7,1.7,0,0,1-1.7-1.7"/></clipPath><clipPath id="clip-path-257"><path class="cls-1" d="M3152.61,2987.52a1.7,1.7,0,1,1,1.7,1.7,1.7,1.7,0,0,1-1.7-1.7"/></clipPath><clipPath id="clip-path-258"><path class="cls-1" d="M3174.4,2995.7a1.7,1.7,0,1,1,1.7,1.7,1.7,1.7,0,0,1-1.7-1.7"/></clipPath><clipPath id="clip-path-259"><path class="cls-1" d="M3182.58,3001.15a1.7,1.7,0,1,1,1.7,1.7,1.7,1.7,0,0,1-1.7-1.7"/></clipPath><clipPath id="clip-path-260"><path class="cls-1" d="M3158.06,3001.15a1.7,1.7,0,1,1,1.7,1.7,1.7,1.7,0,0,1-1.7-1.7"/></clipPath><clipPath id="clip-path-261"><path class="cls-1" d="M3049.57,3260s-25.14,113.28,32.42,213.21h21.5s-98.59-175.19,30.39-175.19v-38Z"/></clipPath><clipPath id="clip-path-262"><path class="cls-1" d="M3218.2,3260s25.14,113.28-32.42,213.21h-21.5s98.59-175.19-30.39-175.19v-38Z"/></clipPath><clipPath id="clip-path-263"><path class="cls-1" d="M3109.45,3476.19a7.81,7.81,0,0,0-6.11-2.94H3082s-13.72,6.18-21-1.81a10.75,10.75,0,1,0-8.4,17.46h50.76a7.83,7.83,0,0,0,6.11-12.71"/></clipPath><clipPath id="clip-path-264"><path class="cls-1" d="M3158.33,3476.19a7.81,7.81,0,0,1,6.11-2.94h21.35s13.72,6.18,21-1.81a10.75,10.75,0,1,1,8.4,17.46h-50.76a7.83,7.83,0,0,1-6.11-12.71"/></clipPath><clipPath id="clip-path-265"><path class="cls-1" d="M3067,3222.26h-31.39l-8,23.57c7,12,21.91,14.2,21.91,14.2l4.22-29h12.77a4.28,4.28,0,0,0,.45,0,4.42,4.42,0,1,0,0-8.85"/></clipPath><clipPath id="clip-path-266"><rect class="cls-2" x="3282.68" y="2884.13" width="95.11" height="186.11"/></clipPath><clipPath id="clip-path-267"><rect class="cls-2" x="3373.74" y="2884.13" width="95.09" height="186.16"/></clipPath><clipPath id="clip-path-268"><path class="cls-1" d="M3456.11,3256.49H3295.2s-24,108.09,30.93,203.44h20.52s-94.08-167.16,29-167.16,29,167.16,29,167.16h20.52c54.92-95.35,30.93-203.44,30.93-203.44"/></clipPath><clipPath id="clip-path-269"><path class="cls-1" d="M3295.2,3256.49s-24,108.09,30.93,203.44h20.52s-94.08-167.16,29-167.16v-36.28Z"/></clipPath><clipPath id="clip-path-270"><path class="cls-1" d="M3456.11,3256.49s24,108.09-30.93,203.44h-20.52s94.08-167.16-29-167.16v-36.28Z"/></clipPath><clipPath id="clip-path-271"><path class="cls-1" d="M3352.34,3462.74a7.45,7.45,0,0,0-5.83-2.81h-20.37s-13.09,5.9-20-1.73a10.26,10.26,0,1,0-8,16.66h48.43a7.47,7.47,0,0,0,5.83-12.13"/></clipPath><clipPath id="clip-path-272"><path class="cls-1" d="M3399,3462.74a7.46,7.46,0,0,1,5.83-2.81h20.37s13.09,5.9,20-1.73a10.26,10.26,0,1,1,8,16.66h-48.43a7.47,7.47,0,0,1-5.83-12.13"/></clipPath><clipPath id="clip-path-273"><path class="cls-1" d="M3468.83,2977.21a93.08,93.08,0,0,0-93.08-93.08c-.68,0-1.34,0-2,.05L3350,2962.53l23.77,107.71c.67,0,1.34.05,2,.05a93.08,93.08,0,0,0,93.08-93.08"/></clipPath><clipPath id="clip-path-274"><path class="cls-1" d="M3283.66,2990.81s4.61,55.57-28.41,63c0,0,30.69,44.28,100.11,20.08l-10-46.77Z"/></clipPath><clipPath id="clip-path-275"><path class="cls-1" d="M3467.71,2990.81s-4.61,55.57,28.41,63c0,0-30.69,44.28-100.11,20.08l10-46.77Z"/></clipPath><clipPath id="clip-path-276"><path class="cls-1" d="M3222.87,3149a95.37,95.37,0,0,0-.52,9.88,94.19,94.19,0,0,0,51.82,84.13l7.57-22.44A70.69,70.69,0,0,1,3246.4,3149Z"/></clipPath><clipPath id="clip-path-277"><path class="cls-1" d="M3275.32,3215.59c.88-4.94-2.11-9.56-4.59-12.11-3.12-3.21-5.85-6.58-12.9-5.68-4.15,6.11-10.51,12.42-16.67,17.63-.26,4.31-2,12.4.76,15.17s16.44,2.47,16.44,2.47Z"/></clipPath><clipPath id="clip-path-278"><path class="cls-1" d="M3341.81,3068.06l-4.79,23a71.19,71.19,0,0,1,40.38,31.5l28.27,5.69a94.42,94.42,0,0,0-63.85-60.15"/></clipPath><clipPath id="clip-path-279"><path class="cls-1" d="M3316.57,3064.63a94.22,94.22,0,0,0-93.69,84.33h23.53A70.76,70.76,0,0,1,3337,3091l4.79-23a94.23,94.23,0,0,0-25.25-3.44"/></clipPath><clipPath id="clip-path-280"><path class="cls-1" d="M3375.28,3079l36.66-20.63s36.31,129.49,44.06,198.11h-80.72Z"/></clipPath><clipPath id="clip-path-281"><path class="cls-1" d="M3384.19,3090.57a94.05,94.05,0,0,0-16,25.34l18.77,16.7a70.45,70.45,0,0,1,15-26.94l.48-.51-21.22-3.75Z"/></clipPath><clipPath id="clip-path-282"><path class="cls-1" d="M3500.2,3067.64c-19.73-4.74-38.71-11.11-59.31-8a93.82,93.82,0,0,0-56.35,30.54l-.35.41-2.95,10.84,21.22,3.75a71.36,71.36,0,0,1,55.94-23.14c23.29,1.12,43.6,12.57,67.64,9a94.26,94.26,0,0,0,26.76-8.21L3541.93,3062a71.38,71.38,0,0,1-41.73,5.63"/></clipPath><clipPath id="clip-path-283"><path class="cls-1" d="M3375.75,3079l-36.66-20.63s-36.31,129.49-44.06,198.11h80.72Z"/></clipPath><clipPath id="clip-path-284"><path class="cls-1" d="M3347.13,3073.94h6.5l-8.26-12-20.1,14.29,23.34,14.37-3.24,23.67,30.38,80v-88c-15.83-3.46-28.63-32.22-28.63-32.22"/></clipPath><clipPath id="clip-path-285"><path class="cls-1" d="M3404.38,3073.94h-6.5l8.26-12,20.1,14.29-23.34,14.37,3.24,23.67-30.38,80v-88c15.83-3.46,28.63-32.22,28.63-32.22"/></clipPath><clipPath id="clip-path-286"><path class="cls-1" d="M3375.75,3073.94h-28.63s12.79,28.76,28.63,32.22c15.83-3.46,28.63-32.22,28.63-32.22Z"/></clipPath><clipPath id="clip-path-287"><path class="cls-1" d="M3375.75,3053.86l-28.63,20.08s15.07,19.58,28.63,19.58c4.16,0,18.69-6.29,28.63-19.58Z"/></clipPath><clipPath id="clip-path-288"><path class="cls-1" d="M3313.29,2994.49a12.82,12.82,0,1,0,0,18.13,12.82,12.82,0,0,0,0-18.13"/></clipPath><clipPath id="clip-path-289"><path class="cls-1" d="M3456.35,2994.49a12.82,12.82,0,1,0,0,18.13,12.82,12.82,0,0,0,0-18.13"/></clipPath><clipPath id="clip-path-290"><path class="cls-1" d="M3390.28,3079c19.84-6.85,40.47-16.92,50-35.63,6.58-12.93,6.82-28,7-42.54.1-10.44.19-21.07-1.39-31.34a76.32,76.32,0,0,0-3.65-14.62c-6.53-17.94-21.33-32.53-39.1-39.51a73.08,73.08,0,0,0-27.34-4.92l-12.7,110.59,12.7,61c.32,0,.64,0,1,0,4.65-.11,9.17-1.56,13.57-3.08"/></clipPath><clipPath id="clip-path-291"><path class="cls-1" d="M3347.57,2916.21c-13.3,5.44-25.23,14.74-32.53,27.12-9.86,16.73-10.51,37.15-10.43,56.57.07,17.69.84,37.36,12.25,51.9s31.71,24.06,49.08,28.67a42.22,42.22,0,0,0,10.19,1.63l-5.19-62.42,15.18-5.19-10-104a77.62,77.62,0,0,0-28.56,5.72"/></clipPath><clipPath id="clip-path-292"><path class="cls-1" d="M3355.36,2985.42a5.39,5.39,0,1,0-5.39,5.39,5.39,5.39,0,0,0,5.39-5.39"/></clipPath><clipPath id="clip-path-293"><path class="cls-1" d="M3409.13,2985.42a5.39,5.39,0,1,0-5.39,5.39,5.39,5.39,0,0,0,5.39-5.39"/></clipPath><clipPath id="clip-path-294"><path class="cls-1" d="M3427.24,3009.56c0,3.31-5.31,6-11.85,6s-11.86-2.68-11.86-6,5.31-6,11.86-6,11.85,2.68,11.85,6"/></clipPath><clipPath id="clip-path-295"><path class="cls-1" d="M3326.85,3009.56c0,3.31,5.31,6,11.85,6s11.85-2.68,11.85-6-5.31-6-11.85-6-11.85,2.68-11.85,6"/></clipPath><clipPath id="clip-path-296"><polygon class="cls-1" points="3370.57 3019.62 3391.91 3019.62 3385.75 3014.47 3370.57 3019.62"/></clipPath><clipPath id="clip-path-297"><path class="cls-1" d="M3281.75,3220.53h29.88v8.38H3299l-4,27.58s-14.22-2.05-20.86-13.52Z"/></clipPath><clipPath id="clip-path-298"><path class="cls-1" d="M3311.63,3220.53a4.21,4.21,0,1,1-4.21,4.21,4.21,4.21,0,0,1,4.21-4.21"/></clipPath><clipPath id="clip-path-299"><path class="cls-1" d="M3609.64,2980.89a19,19,0,1,0-33.74,4.33h0l0,.07.1.14,6.73,10a70.55,70.55,0,0,1-40.84,66.63l10.86,20.76a93.87,93.87,0,0,0,29.6-22.33c16.89-19,23.68-41.53,22.72-65.06l4.54-14.5Z"/></clipPath><clipPath id="clip-path-300"><path class="cls-1" d="M3577.07,2935.21a4.32,4.32,0,0,0-4.32,4.32v40.41h8.64v-40.41a4.32,4.32,0,0,0-4.32-4.32"/></clipPath><clipPath id="clip-path-301"><path class="cls-1" d="M3598.06,2970.5h-26.34a1.56,1.56,0,0,0-1.54,1.22,22.63,22.63,0,0,0-.47,4.53,26.41,26.41,0,0,0,1.17,7.79c1.64,5.23,9.45,2.9,9.55-2.59a1.56,1.56,0,0,1,1.56-1.53h16v-.08h0c2.88,0,5.21-1.77,5.21-4.65s-2.33-4.7-5.21-4.7"/></clipPath><clipPath id="clip-path-302"><path class="cls-1" d="M3375.75,3065.91a33,33,0,0,0,33-33h-66a33,33,0,0,0,33,33"/></clipPath><clipPath id="clip-path-303"><path class="cls-1" d="M3376.76,2946.74s-23.12,30.46-87.65,48.64c0,0-15.56-103.17,87.65-92.52Z"/></clipPath><clipPath id="clip-path-304"><path class="cls-1" d="M3374.74,2946.74s23.12,30.46,87.65,48.64c0,0,15.56-104.45-87.65-93.8Z"/></clipPath><clipPath id="clip-path-305"><polygon class="cls-1" points="5045.71 3396.96 5045.71 3467.6 5535.08 3750.14 6024.45 3467.6 6024.45 3396.96 5535.08 3114.43 5045.71 3396.96"/></clipPath><clipPath id="clip-path-306"><polygon class="cls-1" points="5535.08 3750.14 5045.71 3467.6 5045.71 3396.96 5535.08 3679.5 5535.08 3750.14"/></clipPath><clipPath id="clip-path-307"><polygon class="cls-1" points="5779.77 3750.14 6024.45 3750.14 6024.45 3396.96 5535.08 3396.96 5535.08 3750.14 5779.77 3750.14"/></clipPath><clipPath id="clip-path-308"><path class="cls-1" d="M5495.82,3466.7l-165,95.17,94.05,54.3,201.18-116a53.29,53.29,0,0,0-2.91-95.35L5519,3344.7l-94.05,54.3,70.37,40.6a16.17,16.17,0,0,1,.51,27.1Z"/></clipPath><clipPath id="clip-path-309"><polygon class="cls-1" points="5380.85 3591.95 5436.99 3559.14 5427.49 3554.18 5371.58 3586.56 5380.85 3591.95"/></clipPath><clipPath id="clip-path-310"><polygon class="cls-1" points="5485.59 3527.94 5541.74 3495.13 5532.23 3490.17 5476.32 3522.55 5485.59 3527.94"/></clipPath><clipPath id="clip-path-311"><path class="cls-1" d="M5572.88,3475.57s19.45-13.41,26-17.76,5.11-14.73-1.54-19.13-22.3-14.76-23.14-14.35-8.4,5.49-8.4,5.49,18.78,11.38,21.21,12.79,9.57,6,2.88,10.14-26.29,17.43-26.29,17.43Z"/></clipPath><clipPath id="clip-path-312"><polyline class="cls-1" points="5526.65 3405.74 5470.5 3372.93 5480.01 3367.97 5535.92 3400.35"/></clipPath><clipPath id="clip-path-313"><polygon class="cls-1" points="5516.89 3290.5 5516.79 3038.46 5437.86 2992.89 5438 3244.89 5516.89 3290.5"/></clipPath><clipPath id="clip-path-314"><polygon class="cls-1" points="5595.73 2992.89 5516.79 3038.46 5516.89 3290.5 5595.88 3244.89 5595.73 2992.89"/></clipPath><clipPath id="clip-path-315"><polygon class="cls-1" points="5437.86 2992.89 5516.79 2947.31 5595.73 2992.89 5516.79 3038.46 5437.86 2992.89"/></clipPath><clipPath id="clip-path-316"><polygon class="cls-1" points="5477.24 2992.84 5477.24 2924.45 5516.78 2947.28 5516.78 3015.67 5477.24 2992.84"/></clipPath><clipPath id="clip-path-317"><polygon class="cls-1" points="5556.24 2924.45 5516.78 2947.28 5516.78 3015.67 5556.24 2992.84 5556.24 2924.45"/></clipPath><clipPath id="clip-path-318"><polygon class="cls-1" points="5516.78 2947.28 5556.24 2924.45 5516.78 2901.62 5477.24 2924.45 5516.78 2947.28"/></clipPath><clipPath id="clip-path-319"><polygon class="cls-1" points="5506.33 2925.1 5506.33 2837.42 5516.75 2843.43 5516.75 2931.11 5506.33 2925.1"/></clipPath><clipPath id="clip-path-320"><polygon class="cls-1" points="5527.15 2837.42 5516.75 2843.44 5516.75 2931.11 5527.15 2925.1 5527.15 2837.42"/></clipPath><clipPath id="clip-path-321"><rect class="cls-2" x="5506.33" y="2831.4" width="20.82" height="12.03"/></clipPath><clipPath id="clip-path-322"><polygon class="cls-1" points="5638 3244.09 5637.93 3073.63 5584.02 3042.81 5584.12 3213.25 5638 3244.09"/></clipPath><clipPath id="clip-path-323"><polygon class="cls-1" points="5691.84 3042.81 5637.93 3073.63 5638 3244.09 5691.94 3213.25 5691.84 3042.81"/></clipPath><clipPath id="clip-path-324"><polygon class="cls-1" points="5584.02 3042.81 5637.93 3011.99 5691.84 3042.81 5637.93 3073.63 5584.02 3042.81"/></clipPath><clipPath id="clip-path-325"><polygon class="cls-1" points="5414.83 3256.01 5414.77 3091.24 5362.78 3061.44 5362.88 3226.2 5414.83 3256.01"/></clipPath><clipPath id="clip-path-326"><polygon class="cls-1" points="5466.75 3061.44 5414.77 3091.24 5414.83 3256.01 5466.84 3226.2 5466.75 3061.44"/></clipPath><clipPath id="clip-path-327"><polygon class="cls-1" points="5362.78 3061.44 5414.76 3031.64 5466.75 3061.44 5414.76 3091.24 5362.78 3061.44"/></clipPath><clipPath id="clip-path-328"><path class="cls-1" d="M5923.45,3314.43c-26.79-16.65-113.34-38.16-234.91-38.65l-63.92-75.18a71.3,71.3,0,0,0-54-25.12l-300.07-1.22a57,57,0,0,0-40.4,16.54l-72.23,71.65a57.06,57.06,0,0,0-15.11,26.43l-10.6,41.67,213.49,100.69,598.9,2.44.33-80.61a45.23,45.23,0,0,0-21.45-38.64"/></clipPath><clipPath id="clip-path-329"><path class="cls-1" d="M5624.62,3200.59a71.29,71.29,0,0,0-54-25.12l-300.07-1.22a57,57,0,0,0-40.4,16.54L5161,3259.37l37.29.15a356.67,356.67,0,0,1,39.36,2.34l108.66,12.52,342.23,1.39Z"/></clipPath><clipPath id="clip-path-330"><path class="cls-1" d="M5602,3275.42l-236.76-1a341.94,341.94,0,0,1-37.78-2.25l-74.18-8.55a19.55,19.55,0,0,1-13-31.69l26.43-32.77a28.55,28.55,0,0,1,22.31-10.61l243.87,1a28.51,28.51,0,0,1,21.87,10.35l52.75,63.82a7.13,7.13,0,0,1-5.52,11.67"/></clipPath><clipPath id="clip-path-331"><path class="cls-1" d="M5944.86,3362.37c.12-28.52-42.55-57.21-242.18-58l-556.12-2.27a14.26,14.26,0,0,0-14.32,14.2l-.3,71.3,270.82,29.62,541.86,2.2Z"/></clipPath><clipPath id="clip-path-332"><path class="cls-1" d="M5944.69,3405.15,5276,3402.43l-126.69-28.69a14.26,14.26,0,1,0-6.29,27.81l128.22,29a14,14,0,0,0,3.09.36l670.2,2.73a14.26,14.26,0,0,0,.12-28.52"/></clipPath><clipPath id="clip-path-333"><path class="cls-1" d="M5253.33,3344.11a65.36,65.36,0,1,1-65.62,65.09,65.36,65.36,0,0,1,65.62-65.09"/></clipPath><clipPath id="clip-path-334"><path class="cls-1" d="M5253.27,3359.56a49.91,49.91,0,1,0,49.7,50.11,50,50,0,0,0-49.7-50.11m-.52,128.34a78.43,78.43,0,1,1,78.74-78.11,78.51,78.51,0,0,1-78.74,78.11"/></clipPath><clipPath id="clip-path-335"><path class="cls-1" d="M5253.18,3380.95a28.52,28.52,0,1,1-28.63,28.4,28.52,28.52,0,0,1,28.63-28.4"/></clipPath><clipPath id="clip-path-336"><path class="cls-1" d="M5702.38,3375.65l-342.23-1.39a14.26,14.26,0,0,1,.12-28.52l342.23,1.39a14.26,14.26,0,0,1-.12,28.52"/></clipPath><clipPath id="clip-path-337"><path class="cls-1" d="M5944.8,3376.63l-14.26-.06a14.26,14.26,0,0,1,.12-28.52l14.26.06a14.26,14.26,0,0,1-.12,28.52"/></clipPath><clipPath id="clip-path-338"><rect class="cls-2" x="5417.77" y="3217.8" width="85.56" height="28.52" transform="translate(2206.44 8679.51) rotate(-89.77)"/></clipPath><clipPath id="clip-path-339"><path class="cls-1" d="M5929.73,3319.53l-13.21-.05a14.26,14.26,0,0,0-.12,28.52l27.88.11a44.67,44.67,0,0,0-14.55-28.58"/></clipPath><clipPath id="clip-path-340"><path class="cls-1" d="M5624.62,3200.59a71.26,71.26,0,0,0-11.32-10.68l-23.27-.1a7.13,7.13,0,0,0-5.52,11.67l52.75,63.82a28.52,28.52,0,0,0,21.87,10.35l29.42.12Z"/></clipPath><clipPath id="clip-path-341"><polygon class="cls-1" points="5318.82 3271.21 5346.65 3188.82 5318.13 3188.71 5278.79 3266.6 5318.82 3271.21"/></clipPath><clipPath id="clip-path-342"><path class="cls-1" d="M5142.79,3288.88l-3.36,13.18,35.64.15a14.26,14.26,0,1,0,.12-28.52l-25.94-.11a56.9,56.9,0,0,0-6.46,15.3"/></clipPath><clipPath id="clip-path-343"><path class="cls-1" d="M5809.45,3346.37a65.36,65.36,0,1,1-65.62,65.09,65.36,65.36,0,0,1,65.62-65.09"/></clipPath><clipPath id="clip-path-344"><path class="cls-1" d="M5809.39,3361.82a49.91,49.91,0,1,0,49.7,50.11,50,50,0,0,0-49.7-50.11m-.52,128.34a78.43,78.43,0,1,1,78.74-78.11,78.51,78.51,0,0,1-78.74,78.11"/></clipPath><clipPath id="clip-path-345"><path class="cls-1" d="M5809.3,3383.21a28.52,28.52,0,1,1-28.63,28.4,28.52,28.52,0,0,1,28.63-28.4"/></clipPath></defs><title>ilustracoes_caixa_am5SVG</title><polygon class="cls-3" points="960 256.5 469.09 539.93 469.09 610.79 960 894.21 1450.91 610.79 1450.91 539.93 960 256.5"/><polygon class="cls-4" points="960 894.21 469.09 610.79 469.09 539.93 960 823.36 960 894.21"/><polygon class="cls-5" points="960 894.21 1450.91 610.79 1450.91 539.93 960 823.36 960 894.21"/><polygon class="cls-6" points="975.46 688.44 713.87 537.41 713.87 310.86 975.46 461.89 975.46 688.44"/><polygon class="cls-7" points="1082.85 297.85 975.46 461.87 975.46 688.42 1171.66 575.14 1171.66 348.62 1082.85 297.85"/><polygon class="cls-8" points="696.03 337.41 811.91 140.92 1082.85 297.85 957.62 488.44 696.03 337.41"/><polygon class="cls-9" points="1040.82 650.68 1040.82 499.63 1106.26 461.89 1106.26 612.9 1040.82 650.68"/><polygon class="cls-10" points="877.36 480.63 877.36 556.15 942.76 593.9 942.76 518.39 877.36 480.63"/><polygon class="cls-10" points="746.81 405.25 746.81 480.77 812.21 518.53 812.21 443.01 746.81 405.25"/><polygon class="cls-6" points="889.44 369.61 889.44 293.66 841.81 266.16 841.81 342.11 889.44 369.61"/><polygon class="cls-7" points="937.07 266.62 889.44 293.66 889.44 369.61 937.07 297.2 937.07 266.62"/><polygon class="cls-11" points="841.81 266.16 889.44 293.66 937.07 266.62 889.32 238.73 841.81 266.16"/><polygon class="cls-8" points="1106.26 612.9 1040.82 650.68 1171.66 726.2 1215.59 675.92 1106.26 612.9"/><polygon class="cls-12" points="1150.16 784.51 1150.16 713.7 1215.59 675.92 1215.59 746.77 1150.16 784.51"/><rect class="cls-13" x="618.69" y="411.99" width="11.63" height="145.59"/><circle class="cls-14" cx="624.51" cy="411.99" r="69.06"/><path class="cls-5" d="M1283,435.13a76.33,76.33,0,0,0-76.33,76.33h152.66A76.33,76.33,0,0,0,1283,435.13Z"/><path class="cls-14" d="M1237.05,478.45a42,42,0,0,0-42,42h84A42,42,0,0,0,1237.05,478.45Z"/></svg>