<svg id="Layer_1" data-name="Layer 1" xmlns="http://www.w3.org/2000/svg" viewBox="0 0 1920 1080"><defs><style>.cls-1{fill:#b9b9b9;}.cls-2{fill:#898d8d;}.cls-3{fill:#757777;}.cls-4{fill:#fff;}.cls-5{fill:#e65a00;}.cls-6{fill:#676767;}.cls-7{fill:#ff9141;}.cls-8{fill:#ff6d00;}.cls-9{fill:#733791;}.cls-10{fill:#414042;}.cls-11{fill:#58595b;}.cls-12{fill:#4187d7;}.cls-13{fill:#0039ba;}.cls-14{fill:#64c8c3;}.cls-15{fill:#005fc8;}.cls-16{fill:#00377d;}.cls-17{fill:#8c5fa5;}.cls-18{fill:#500778;}</style></defs><title>ilustracoes_caixa_am5SVG</title><polygon class="cls-1" points="960 256.5 469.09 539.93 469.09 610.79 960 894.21 1450.91 610.79 1450.91 539.93 960 256.5"/><polygon class="cls-2" points="960 894.21 469.09 610.79 469.09 539.93 960 823.36 960 894.21"/><polygon class="cls-3" points="960 894.21 1450.91 610.79 1450.91 539.93 960 823.36 960 894.21"/><path class="cls-2" d="M898.48,711.19a120.7,120.7,0,0,0,129.72-4.73L1381,499.59,1248.29,423l-180.74,106-10.81,6.34-68.32,40.06,0-.07a53.3,53.3,0,0,1-48.8,3.59l-11.27-6.6-.56-.45-.06.08-64.33-37.71L847.73,525l-175-102.61L539.6,499.22l358.87,212Z"/><path class="cls-2" d="M1045.16,405.27c9.9-9.13,15.63-20,15.63-31.61,0-32.55-44.89-58.94-100.27-58.94s-100.27,26.39-100.27,58.94c0,11.63,5.74,22.48,15.63,31.61,17.8-12.42,49.05-20.66,84.64-20.66S1027.36,392.85,1045.16,405.27Z"/><path class="cls-4" d="M1045.16,405.27c-17.8-12.42-49.05-20.66-84.64-20.66s-66.85,8.24-84.64,20.66c17.8,16.43,49.05,27.33,84.64,27.33S1027.36,421.7,1045.16,405.27Z"/><path class="cls-5" d="M791,240.45c-2.73,2.51-40.82,6-43.33,3.24l-9.14-9.92a6.76,6.76,0,0,1,.39-9.53l5-4.57c7.7-7.32,24.06-22.17,40.18-37l39.68-36.57,5.21-4.8a6.77,6.77,0,0,1,9.53.39l9.14,9.92c2.51,2.73-3.8,40.42-6.53,42.93L791,240.45Zm0,0"/><path class="cls-6" d="M801.73,414.89a13.12,13.12,0,1,0-12.57-13.64,13.23,13.23,0,0,0,12.57,13.64Zm41.09-12.64a13.12,13.12,0,1,0-12.57-13.64,13.23,13.23,0,0,0,12.57,13.64ZM997.74,261.8a13.08,13.08,0,0,0-12.57-13.64,13.12,13.12,0,1,0,12.57,13.64Zm2.31-27.35a13.12,13.12,0,1,0-12.57-13.64,13.24,13.24,0,0,0,12.57,13.64Zm0,0"/><path class="cls-7" d="M909.61,368.22c-5.46,5-152.93,51-158,45.57L733.6,394.2a13.24,13.24,0,0,1,.77-18.82l136.24-98.25,109.54-128a13.24,13.24,0,0,1,18.82.77L1017,169.51c5,5.45-52.85,148.44-58.31,153.47l-49.11,45.25Zm0,0"/><path class="cls-7" d="M1027.64,447c-13.64,12.57-45.82-.2-60.9-16.57L803.58,253.14c-15.08-16.37-48-74-34.41-86.61s68.43,25,83.51,41.37L1016.09,385c14.85,16.36,25.18,49.48,11.54,62Zm0,0"/><path class="cls-8" d="M815.72,242.18c-12.8-13.89-38.23-57.42-37.63-77.91-3.81-.16-6.95.67-8.94,2.5-13.4,12.58,19.33,70.25,34.41,86.61L966.73,430.47c15.08,16.37,47.25,29.38,60.89,16.81a20.83,20.83,0,0,0,4.59-7.21c-15.46,4.38-40.53-6.91-53.33-20.8L815.72,242.18Zm0,0"/><path class="cls-5" d="M816.51,316.2l59.64,65c18.39-6.17,32-11.1,33.45-12.47l.74-.69-66-71.68L816.51,316.2Zm0,0"/><path class="cls-9" d="M901.36,260.72,997.59,148.9a13.44,13.44,0,0,0-17.67.23L892.68,251.3Zm-57.8,36.06L734.37,375.38a13.35,13.35,0,0,0-2.12,16.86l120-86.26Zm8.69,9.19"/><path class="cls-10" d="M1177.73,511.24l15-3,3.42,16.83a42.55,42.55,0,0,1,3.74,18.41l3.43,16.91-15,3.05c-8.86,1.8-18.42-8.43-21.35-22.85S1168.87,513,1177.73,511.24Z"/><ellipse class="cls-11" cx="1195.66" cy="534.79" rx="15.11" ry="26.65" transform="translate(-82.52 248.7) rotate(-11.48)"/><path class="cls-10" d="M1110.31,573.23l15-3,3.42,16.83a42.55,42.55,0,0,1,3.74,18.41l3.43,16.91-15,3.05c-8.86,1.8-18.42-8.43-21.35-22.85S1101.45,575,1110.31,573.23Z"/><ellipse class="cls-11" cx="1128.24" cy="596.78" rx="15.11" ry="26.65" transform="matrix(0.98, -0.2, 0.2, 0.98, -96.21, 236.52)"/><polygon class="cls-12" points="1097.16 401.19 1191.12 429.54 1153.23 581.23 1117.41 614.7 1001.61 490.47 1097.16 401.19"/><polygon class="cls-13" points="1001.61 490.47 1095.57 518.82 1117.41 614.7 1023.72 585.92 1001.61 490.47"/><polygon class="cls-14" points="1013.55 503.23 1088.19 525.75 1105.54 601.91 1031.11 579.06 1013.55 503.23"/><polygon class="cls-12" points="1223.31 457.8 1187.27 491.44 1093.18 463 1129.34 429.45 1223.31 457.8"/><polygon class="cls-15" points="1106.5 566.8 1095.57 518.82 1191.12 429.54 1202.26 477.7 1223.31 457.8 1234.27 504.86 1213.14 524.75 1213.17 524.87 1122.43 609.99 1117.41 614.7 1081.92 647.99 987.63 619.25 976.63 572.01 1106.5 566.8"/><polygon class="cls-12" points="1106.5 566.8 1086.93 569.72 1070.72 600.45 976.63 572.01 995.05 537.19 1012.79 538.47 1106.5 566.8"/><polygon class="cls-13" points="1070.72 600.45 1081.92 647.99 987.63 619.25 976.63 572.01 1070.72 600.45"/><polygon class="cls-4" points="1072.56 607.96 1075.52 620.51 1053.02 613.33 1050.11 600.87 1072.56 607.96"/><polygon class="cls-4" points="1000.77 586.39 1003.73 598.94 981.23 591.76 978.32 579.29 1000.77 586.39"/><polygon class="cls-7" points="1072.56 607.96 1075.52 620.51 1081.6 614.6 1078.69 602.13 1072.56 607.96"/><polygon class="cls-14" points="1103.97 520.52 1187.08 442.19 1196.09 481.31 1113.04 559.59 1103.97 520.52"/><polygon class="cls-15" points="1148.83 474.26 1165.85 547.28 1161.13 548.38 1144.88 478.63 1148.83 474.26"/><polygon class="cls-16" points="1070.72 600.45 1106.5 566.8 1086.93 569.72 1070.72 600.45"/><polygon class="cls-15" points="1086.93 569.72 995.05 537.19 1012.79 538.47 1106.5 566.8 1086.93 569.72"/><path class="cls-10" d="M798.32,573.84l-16.74.56.54,18.77a46.51,46.51,0,0,0,.59,20.52l.54,18.85,16.75-.48c9.88-.28,17.52-13.55,17.06-29.63S808.2,573.56,798.32,573.84Z"/><ellipse class="cls-11" cx="785.08" cy="603.36" rx="16.51" ry="29.13" transform="translate(-16.88 22.62) rotate(-1.63)"/><path class="cls-10" d="M885.47,623.12l-16.74.56.54,18.77a46.51,46.51,0,0,0,.59,20.52l.54,18.85,16.75-.48c9.88-.28,17.52-13.55,17.06-29.63S895.36,622.84,885.47,623.12Z"/><ellipse class="cls-11" cx="872.23" cy="652.63" rx="16.51" ry="29.13" transform="translate(-18.25 25.13) rotate(-1.63)"/><polygon class="cls-17" points="856.81 436.69 763.8 490.18 841.77 642.28 888.2 669.02 980.68 508.04 856.81 436.69"/><polygon class="cls-18" points="980.68 508.04 887.67 561.53 888.2 669.02 980.81 615.15 980.68 508.04"/><polygon class="cls-14" points="971.13 524.59 897.25 567.08 897.67 652.47 971.24 609.67 971.13 524.59"/><polygon class="cls-17" points="736.55 528.25 783.26 555.13 876.38 501.51 829.55 474.76 736.55 528.25"/><polygon class="cls-9" points="887.94 615.32 887.67 561.53 763.8 490.18 763.89 544.21 736.55 528.25 736.55 581.07 763.98 597 763.98 597.14 888.2 669.02 934.24 695.67 1027.5 641.68 1027.5 588.66 887.94 615.32"/><polygon class="cls-17" points="887.67 615.4 934.38 642.28 1027.5 588.66 980.68 561.91 887.67 615.4"/><polygon class="cls-18" points="934.38 642.28 934.24 695.67 1027.5 641.68 1027.5 588.66 934.38 642.28"/><polygon class="cls-4" points="934.28 650.73 934.24 664.82 956.42 651.6 956.42 637.6 934.28 650.73"/><polygon class="cls-4" points="1005.36 609.96 1005.33 624.05 1027.5 610.82 1027.5 596.83 1005.36 609.96"/><polygon class="cls-7" points="934.28 650.73 934.24 664.82 926.31 660.03 926.31 646.04 934.28 650.73"/><polygon class="cls-14" points="879.16 565.43 771.24 502.65 771.36 546.53 879.18 609.26 879.16 565.43"/><polygon class="cls-9" points="819.92 527.3 819.92 609.26 825.21 609.26 825.21 530.97 819.92 527.3"/><path class="cls-1" d="M1045.16,405.27c-17.8,16.43-49.05,27.33-84.64,27.33s-66.85-10.9-84.64-27.33l-5.44,17.09,44.67,36.24,71.67,28.33,52-37,19-41.33Z"/></svg>