<svg id="Layer_1" data-name="Layer 1" xmlns="http://www.w3.org/2000/svg" viewBox="0 0 1920 1080"><defs><style>.cls-1{fill:#64c8c3;}.cls-2{fill:#41b9b4;}.cls-3{fill:#00a499;}.cls-4{fill:#b9b9b9;}.cls-5{fill:#e1e1e1;}.cls-6{fill:#474747;}.cls-7{fill:#ffce00;}.cls-8{fill:#500778;}.cls-9{fill:#231f20;}.cls-10{fill:#939598;}</style></defs><title>ilustracoes_caixa_am5SVG</title><polygon class="cls-1" points="960 256.5 469.09 539.93 469.09 610.79 960 894.21 1450.91 610.79 1450.91 539.93 960 256.5"/><polygon class="cls-2" points="960 894.21 469.09 610.79 469.09 539.93 960 823.36 960 894.21"/><polygon class="cls-3" points="960 894.21 1450.91 610.79 1450.91 539.93 960 823.36 960 894.21"/><path class="cls-4" d="M680.43,182.2l-.4,426.6c0,6.6,2.23,7.77,9.66,13.7l25.32,15,42.53-63.22,68.06-39-22-324.14-120.76-37A14.54,14.54,0,0,0,680.43,182.2Z"/><path class="cls-5" d="M865.36,504.11V132.3l33.07-49.16L874.52,69.28q-.53-.33-1.09-.62h0a14.38,14.38,0,0,0-14,.34L687.67,169.63a14.53,14.53,0,0,0-4.82,4.54l61.69,30.89,81.05,330.27,32.46-18.6A14.54,14.54,0,0,0,865.36,504.11Z"/><path class="cls-6" d="M905.41,95.56A14.54,14.54,0,0,0,883.56,83l-169.74,98.6a14.54,14.54,0,0,0-7.24,12.57v410.3L905.41,489.64Z"/><path class="cls-7" d="M717,560.55V192.7a5.93,5.93,0,0,1,3-5.13L886.07,91.08A5.93,5.93,0,0,1,895,96.2V465.36a5.93,5.93,0,0,1-3,5.14L725.89,565.7A5.93,5.93,0,0,1,717,560.55Z"/><path class="cls-5" d="M728.36,637,898.1,539.71a14.54,14.54,0,0,0,7.31-12.62V471.64L706.59,586.46v37.91A14.54,14.54,0,0,0,728.36,637Z"/><path class="cls-8" d="M1040.38,543.42c2.61,8.53,5.32,17.36,6.67,26.25.55,3.62,2.72,30,3.88,44.45A12,12,0,0,0,1061.09,625l19.22,2.91a6.64,6.64,0,0,1,5.52,5.28l2.53,13a12,12,0,0,0,11.77,9.69l149.06-.09a12,12,0,0,0,11.71-9.44l2.9-13.34a6.64,6.64,0,0,1,5.5-5l23.4-3.4a12,12,0,0,0,10.24-11.14c.9-14.89,2.57-42,3.09-45.72,1.23-8.77,3.82-17.44,6.32-25.88,3.5-11.81,7.13-24,7.13-36.66,0-80.93-64.32-146.75-143.39-146.75s-143.39,65.86-143.39,146.81c0,13.24,3.89,25.93,7.65,38.2ZM1194.79,536c.91-23,21.52-28.77,44.51-27.86s39.64,8.16,38.73,31.15a41.65,41.65,0,0,1-83.24-3.29Zm-13.52,45.1,14.92,22.1a6.63,6.63,0,0,1,.48,6.6l-2.14,4.43a6.64,6.64,0,0,1-6,3.75H1163a6.64,6.64,0,0,1-6-3.75l-2.14-4.43a6.63,6.63,0,0,1,.48-6.6l14.92-22.1a6.64,6.64,0,0,1,11,0Zm-68.35-73c23-.91,43.6,4.87,44.51,27.86a41.65,41.65,0,0,1-83.24,3.29c-.91-23,15.75-30.24,38.73-31.15Zm0,0"/><path class="cls-8" d="M1363.09,337.31a35.71,35.71,0,1,0-60.49,19.49l-13,13a13.31,13.31,0,0,0,0,18.82l22.18,22.18a13.3,13.3,0,0,0,18.82,0l13-13a35.71,35.71,0,1,0,19.49-60.49Zm0,0"/><path class="cls-8" d="M1009.83,397.79l13,13a13.3,13.3,0,0,0,18.82,0l22.18-22.18a13.31,13.31,0,0,0,0-18.82l-13-13a35.71,35.71,0,1,0-60.49-19.48,35.71,35.71,0,1,0,19.49,60.49Zm0,0"/><path class="cls-8" d="M1394.7,645.76a35.71,35.71,0,0,0-51.11-.61l-13-13a13.3,13.3,0,0,0-18.82,0l-22.18,22.18a13.31,13.31,0,0,0,0,18.82l13,13a35.71,35.71,0,1,0,60.49,19.49,35.71,35.71,0,0,0,31.62-59.87Zm0,0"/><path class="cls-8" d="M990.35,705.64a35.71,35.71,0,1,0,60.49-19.49l13-13a13.3,13.3,0,0,0,0-18.82l-22.18-22.18a13.3,13.3,0,0,0-18.82,0l-13,13a35.71,35.71,0,1,0-19.49,60.49Zm0,0"/><polygon class="cls-9" points="783.01 420.84 775.01 212.34 836.51 176.34 830.51 393.34 783.01 420.84"/><polygon class="cls-9" points="782.85 433.79 782.85 491.01 830.15 464.01 830.15 408.23 782.85 433.79"/><ellipse class="cls-4" cx="817.37" cy="553.33" rx="22.03" ry="15.81" transform="translate(168.97 1297.54) rotate(-83.03)"/><path class="cls-10" d="M818.65,534.37h0a8.57,8.57,0,0,1,1,.06c3.21.39,6.06,2.6,8,6.22a23.84,23.84,0,0,1,2.36,14.22c-1.19,9.76-7.34,17.4-14,17.4a8.57,8.57,0,0,1-1-.06c-6.89-.84-11.66-10.21-10.41-20.45,1.19-9.76,7.34-17.4,14-17.4m0-3c-8.14,0-15.57,8.61-17,20-1.48,12.08,4.35,22.73,13,23.79a11.53,11.53,0,0,0,1.4.09c8.14,0,15.57-8.61,17-20,1.48-12.08-4.35-22.73-13-23.79a11.53,11.53,0,0,0-1.4-.09Z"/></svg>