<svg id="Layer_1" data-name="Layer 1" xmlns="http://www.w3.org/2000/svg" xmlns:xlink="http://www.w3.org/1999/xlink" viewBox="0 0 1920 1080"><defs><style>.cls-1,.cls-2,.cls-3{fill:none;}.cls-1{clip-rule:evenodd;}.cls-3{fill-rule:evenodd;}.cls-4{clip-path:url(#clip-path);}.cls-5{clip-path:url(#clip-path-2);}.cls-6{fill:#64c8c3;}.cls-7{clip-path:url(#clip-path-3);}.cls-8{fill:#41b9b4;}.cls-9{clip-path:url(#clip-path-5);}.cls-10{isolation:isolate;}.cls-11{clip-path:url(#clip-path-7);}.cls-12{clip-path:url(#clip-path-8);}.cls-13{fill:#00a499;}.cls-14{clip-path:url(#clip-path-10);}.cls-15{fill:#e65a00;}.cls-16{clip-path:url(#clip-path-12);}.cls-17{fill:#7a7a7a;}.cls-18{clip-path:url(#clip-path-14);}.cls-19{fill:#ff9141;}.cls-20{clip-path:url(#clip-path-16);}.cls-21{clip-path:url(#clip-path-18);}.cls-22{fill:#ff6d00;}.cls-23{clip-path:url(#clip-path-20);}.cls-24{clip-path:url(#clip-path-22);}.cls-25{fill:#733791;}.cls-26{clip-path:url(#clip-path-24);}.cls-27{fill:#fff;}.cls-28{clip-path:url(#clip-path-26);}.cls-29{clip-path:url(#clip-path-28);}.cls-30{clip-path:url(#clip-path-30);}.cls-31{clip-path:url(#clip-path-32);}.cls-32{clip-path:url(#clip-path-34);}.cls-33{clip-path:url(#clip-path-36);}.cls-34{clip-path:url(#clip-path-38);}.cls-35{clip-path:url(#clip-path-40);}.cls-36{clip-path:url(#clip-path-42);}.cls-37{clip-path:url(#clip-path-44);}.cls-38{clip-path:url(#clip-path-46);}.cls-39{clip-path:url(#clip-path-48);}.cls-40{clip-path:url(#clip-path-50);}.cls-41{clip-path:url(#clip-path-52);}.cls-42{clip-path:url(#clip-path-54);}.cls-43{clip-path:url(#clip-path-56);}.cls-44{clip-path:url(#clip-path-58);}.cls-45{clip-path:url(#clip-path-60);}.cls-46{clip-path:url(#clip-path-61);}.cls-47{clip-path:url(#clip-path-62);}.cls-48{clip-path:url(#clip-path-63);}.cls-49{clip-path:url(#clip-path-64);}.cls-50{clip-path:url(#clip-path-65);}.cls-51{clip-path:url(#clip-path-66);}.cls-52{clip-path:url(#clip-path-67);}.cls-53{clip-path:url(#clip-path-68);}.cls-54{clip-path:url(#clip-path-69);}.cls-55{clip-path:url(#clip-path-70);}.cls-56{clip-path:url(#clip-path-71);}.cls-57{clip-path:url(#clip-path-72);}.cls-58{clip-path:url(#clip-path-73);}.cls-59{clip-path:url(#clip-path-74);}.cls-60{clip-path:url(#clip-path-75);}.cls-61{clip-path:url(#clip-path-76);}.cls-62{clip-path:url(#clip-path-77);}.cls-63{clip-path:url(#clip-path-78);}.cls-64{clip-path:url(#clip-path-79);}.cls-65{clip-path:url(#clip-path-80);}.cls-66{clip-path:url(#clip-path-81);}.cls-67{clip-path:url(#clip-path-82);}.cls-68{clip-path:url(#clip-path-83);}.cls-69{clip-path:url(#clip-path-84);}.cls-70{clip-path:url(#clip-path-85);}.cls-71{clip-path:url(#clip-path-86);}.cls-72{clip-path:url(#clip-path-87);}.cls-73{clip-path:url(#clip-path-88);}.cls-74{clip-path:url(#clip-path-89);}.cls-75{clip-path:url(#clip-path-90);}.cls-76{clip-path:url(#clip-path-91);}.cls-77{clip-path:url(#clip-path-92);}.cls-78{clip-path:url(#clip-path-93);}.cls-79{clip-path:url(#clip-path-112);}.cls-80{clip-path:url(#clip-path-113);}.cls-81{clip-path:url(#clip-path-114);}.cls-82{clip-path:url(#clip-path-115);}.cls-83{clip-path:url(#clip-path-116);}.cls-84{clip-path:url(#clip-path-117);}.cls-85{clip-path:url(#clip-path-118);}.cls-86{clip-path:url(#clip-path-119);}.cls-87{clip-path:url(#clip-path-120);}.cls-88{clip-path:url(#clip-path-121);}.cls-89{clip-path:url(#clip-path-122);}.cls-90{clip-path:url(#clip-path-123);}.cls-91{clip-path:url(#clip-path-124);}.cls-92{clip-path:url(#clip-path-125);}.cls-93{clip-path:url(#clip-path-126);}.cls-94{clip-path:url(#clip-path-127);}.cls-95{clip-path:url(#clip-path-128);}.cls-96{clip-path:url(#clip-path-129);}</style><clipPath id="clip-path"><polygon class="cls-1" points="474.31 633.03 474.31 703.51 962.61 985.43 1450.91 703.51 1450.91 633.03 962.61 351.11 474.31 633.03"/></clipPath><clipPath id="clip-path-2"><rect class="cls-2" x="-4617.84" y="-3704.19" width="7432.1" height="6683.08"/></clipPath><clipPath id="clip-path-3"><polygon class="cls-1" points="962.61 985.43 474.31 703.51 474.31 633.03 962.61 914.95 962.61 985.43"/></clipPath><clipPath id="clip-path-5"><polygon class="cls-1" points="1206.76 985.43 1450.91 985.43 1450.91 633.03 962.61 633.03 962.61 985.43 1206.76 985.43"/></clipPath><clipPath id="clip-path-7"><rect class="cls-2" x="962.04" y="627.33" width="493.54" height="359.99"/></clipPath><clipPath id="clip-path-8"><polygon class="cls-1" points="962.61 985.43 1450.91 703.51 1450.91 633.03 962.61 914.95 962.61 985.43"/></clipPath><clipPath id="clip-path-10"><path class="cls-1" d="M1012.37,583.61l-89.14-1.55c-4.86-.07-44.92,30.09-45,35l-.26,17.7a8.87,8.87,0,0,0,8.72,9l9.29.14,70.78,1c28.76.43,57.73,1.08,71.67,1.06l8.85.13a8.87,8.87,0,0,0,9-8.72l.27-17.7c.07-4.86-39.29-36-44.15-36.05"/></clipPath><clipPath id="clip-path-12"><path class="cls-1" d="M1159.67,407.92a17.21,17.21,0,1,1-24.33-.36,17.36,17.36,0,0,1,24.33.36m-50.51-25.09a17.21,17.21,0,1,1-24.33-.36,17.36,17.36,0,0,1,24.33.36m-274.25-6.29a17.21,17.21,0,1,1-.36,24.33,17.16,17.16,0,0,1,.36-24.33M808,400.48a17.21,17.21,0,1,1-24.34-.36,17.36,17.36,0,0,1,24.34.36"/></clipPath><clipPath id="clip-path-14"><path class="cls-1" d="M1014.88,354.88l-87.59-1.3c-9.74-.14-194,83.62-194.1,93.36l-.52,34.95a17.37,17.37,0,0,0,17.21,17.73l219.82-22.84,218.38,29.57a17.37,17.37,0,0,0,17.73-17.22l.52-34.95c.14-9.74-181.72-99.17-191.45-99.31"/></clipPath><clipPath id="clip-path-16"><path class="cls-1" d="M973.77,173.29c-24.33-.36-44.41,40.49-45.06,69.47l-4.48,316.09C923.8,588,942,673.28,966.34,673.64s45.06-84.29,45.49-113.49l4.92-316.09c.44-29.2-18.64-70.41-43-70.77"/></clipPath><clipPath id="clip-path-18"><path class="cls-1" d="M990.38,559.61l4.7-315.87c.37-24.78-13.29-58.16-32-68A27.37,27.37,0,0,1,974,173.07c24.33.37,43.19,41.8,42.75,71l-4.7,315.87c-.43,29.2-21.38,113.62-45.49,113.49-3.54-.05-7.27-2.1-10.76-5.69,19.09-19,34.21-83.34,34.57-108.12"/></clipPath><clipPath id="clip-path-20"><path class="cls-1" d="M1056.48,488.47l-44.38-6.19,1.9-127.85,1.33,0c2.65,0,20,7.6,43.09,18.34Z"/></clipPath><clipPath id="clip-path-22"><path class="cls-1" d="M925.39,481.43,750.11,499.85a17.63,17.63,0,0,1-17-15.74l192.55-19.48Zm87.85-15.51,192.09,26.31a17.51,17.51,0,0,1-17.24,14.12l-174.87-23.84Z"/></clipPath><clipPath id="clip-path-24"><path class="cls-1" d="M1195.5,599.45A19.59,19.59,0,1,0,1175.92,619a19.59,19.59,0,0,0,19.59-19.59"/></clipPath><clipPath id="clip-path-26"><path class="cls-1" d="M1269.63,600.51A18.53,18.53,0,1,0,1251.1,619a18.53,18.53,0,0,0,18.53-18.53"/></clipPath><clipPath id="clip-path-28"><path class="cls-1" d="M1238.22,575.35a31.15,31.15,0,1,0-31.15,31.15,31.15,31.15,0,0,0,31.15-31.15"/></clipPath><clipPath id="clip-path-30"><polygon class="cls-1" points="1238.22 575.35 1237.51 599.45 1253.57 602.97 1253.57 619.04 1175.92 619.04 1175.92 591.29 1238.22 575.35"/></clipPath><clipPath id="clip-path-32"><path class="cls-1" d="M781.07,631.52a30.36,30.36,0,1,1,30.36,30.78,30.57,30.57,0,0,1-30.36-30.78"/></clipPath><clipPath id="clip-path-34"><path class="cls-1" d="M666.18,633.18a28.72,28.72,0,1,1,28.72,29.11,28.92,28.92,0,0,1-28.72-29.11"/></clipPath><clipPath id="clip-path-36"><path class="cls-1" d="M714.86,593.64c0-27,21.62-49,48.29-49s48.29,21.92,48.29,49-21.62,49-48.29,49-48.29-21.92-48.29-49"/></clipPath><clipPath id="clip-path-38"><polygon class="cls-1" points="714.86 593.64 715.97 631.52 691.07 637.06 691.07 662.3 811.43 662.3 811.43 618.69 714.86 593.64"/></clipPath><clipPath id="clip-path-40"><path class="cls-1" d="M940.32,760.07a15.46,15.46,0,1,0-15.46,15.46,15.46,15.46,0,0,0,15.46-15.46"/></clipPath><clipPath id="clip-path-42"><path class="cls-1" d="M1008.63,765.76a9.47,9.47,0,1,0-9.47,9.47,9.47,9.47,0,0,0,9.47-9.47"/></clipPath><clipPath id="clip-path-44"><path class="cls-1" d="M991.15,756.29a15.46,15.46,0,1,0-15.46,15.46,15.46,15.46,0,0,0,15.46-15.46"/></clipPath><clipPath id="clip-path-46"><path class="cls-1" d="M973.9,753.07a22.16,22.16,0,1,0-22.16,22.16,22.16,22.16,0,0,0,22.16-22.16"/></clipPath><clipPath id="clip-path-48"><polygon class="cls-1" points="991.15 756.29 991.15 765.76 999.16 765.76 999.16 775.23 924.86 775.23 924.86 763.54 962.01 763.54 991.15 756.29"/></clipPath><clipPath id="clip-path-50"><path class="cls-1" d="M1068.4,506.59a17.9,17.9,0,1,1,17.9,17.9,17.9,17.9,0,0,1-17.9-17.9"/></clipPath><clipPath id="clip-path-52"><path class="cls-1" d="M989.28,513.18a11,11,0,1,1,11,11,11,11,0,0,1-11-11"/></clipPath><clipPath id="clip-path-54"><path class="cls-1" d="M1009.52,502.21a17.9,17.9,0,1,1,17.9,17.9,17.9,17.9,0,0,1-17.9-17.9"/></clipPath><clipPath id="clip-path-56"><path class="cls-1" d="M1029.5,498.48a25.67,25.67,0,1,1,25.67,25.67,25.67,25.67,0,0,1-25.67-25.67"/></clipPath><clipPath id="clip-path-58"><polygon class="cls-1" points="1009.52 502.21 1009.52 513.18 1000.25 513.18 1000.25 524.15 1086.3 524.15 1086.3 510.61 1043.28 510.61 1009.52 502.21"/></clipPath><clipPath id="clip-path-60"><rect class="cls-2" x="3635" y="358.27" width="10.8" height="135.33" transform="translate(3.08 877.46) rotate(-13.75)"/></clipPath><clipPath id="clip-path-61"><path class="cls-1" d="M3686.65,345a64.15,64.15,0,1,0-47.07,77.61A64.14,64.14,0,0,0,3686.65,345"/></clipPath><clipPath id="clip-path-62"><path class="cls-1" d="M3644.9,615.66a94.25,94.25,0,0,0-94.21,94.29h188.42a94.25,94.25,0,0,0-94.21-94.29"/></clipPath><clipPath id="clip-path-63"><path class="cls-1" d="M3582.87,671A51.86,51.86,0,0,0,3531,722.92h103.68A51.86,51.86,0,0,0,3582.87,671"/></clipPath><clipPath id="clip-path-64"><path class="cls-1" d="M3243.43,937.54a56.42,56.42,0,0,0-50.64,31.6,45.35,45.35,0,0,0-53.89-1.58,70.14,70.14,0,1,0-137.74,26.51h298.74a56.5,56.5,0,0,0-56.48-56.53"/></clipPath><clipPath id="clip-path-65"><polygon class="cls-1" points="3255.07 895.32 2932.37 708.89 3174.39 569.04 3497.09 755.47 3255.07 895.32"/></clipPath><clipPath id="clip-path-66"><polygon class="cls-1" points="3264.97 720.58 3060.53 485.34 3136.54 264.23 3340.98 499.47 3264.97 720.58"/></clipPath><clipPath id="clip-path-67"><polygon class="cls-1" points="3500.74 375.42 3340.99 499.44 3264.98 720.55 3494.32 675.87 3570.32 454.79 3500.74 375.42"/></clipPath><clipPath id="clip-path-68"><polygon class="cls-1" points="3110.23 284.15 3289.16 131.28 3500.74 375.42 3314.67 519.39 3110.23 284.15"/></clipPath><clipPath id="clip-path-69"><polygon class="cls-1" points="3341.38 705.67 3392.06 558.24 3468.54 543.38 3417.88 690.77 3341.38 705.67"/></clipPath><clipPath id="clip-path-70"><polygon class="cls-1" points="3239.03 484.82 3213.69 558.52 3264.8 617.33 3290.14 543.63 3239.03 484.82"/></clipPath><clipPath id="clip-path-71"><polygon class="cls-1" points="3136.99 367.42 3111.66 441.12 3162.77 499.93 3188.1 426.23 3136.99 367.42"/></clipPath><clipPath id="clip-path-72"><polygon class="cls-1" points="3288.05 380.51 3313.53 306.38 3276.3 263.56 3250.82 337.69 3288.05 380.51"/></clipPath><clipPath id="clip-path-73"><polygon class="cls-1" points="3369.05 295.99 3313.53 306.38 3288.05 380.51 3358.79 325.83 3369.05 295.99"/></clipPath><clipPath id="clip-path-74"><polygon class="cls-1" points="3276.31 263.56 3313.53 306.38 3369.05 295.99 3331.84 252.73 3276.31 263.56"/></clipPath><clipPath id="clip-path-75"><path class="cls-1" d="M2976.06,701.66a80.93,80.93,0,0,0-80.9,81H3057a80.93,80.93,0,0,0-80.9-81"/></clipPath><clipPath id="clip-path-76"><path class="cls-1" d="M2925.71,215.67c1.81-5.44,3.09-9.39,3.09-9.39s6.34-12.19-8.44-17.25l-18.29-6.27s-1.58-2.18-18.23,2.45a109.54,109.54,0,0,0-21.06,6.4c-6.58,2.88-12.67,6.78-14.73,11.79-5.18,12.59-2.78,22.11,4.57,29.85,1.74,1.83,5.14,3.79,9.31,5.72,4.58,2.11,10.09,4.19,15.37,6,10.26,3.53,19.66,6.08,19.66,6.08s15.2,2.6,19.45-8.56c2.57-6.74,6.55-18.54,9.31-26.83"/></clipPath><clipPath id="clip-path-77"><path class="cls-1" d="M2877.08,276.48l-15,56.19,16.73,5.73,14.08-36.87,2.83-11.29c-9.68-3.61-15.36-8.67-18.65-13.76"/></clipPath><clipPath id="clip-path-78"><path class="cls-1" d="M2980.92,327.68a25.64,25.64,0,0,1-5.12,2.35l-2.22,6.48a2.06,2.06,0,1,1-3.89-1.33l1.39-4.06a25.3,25.3,0,0,1-6.73,0l-2,5.71a2,2,0,0,1-.9,1.09L2952,363.48l15.18,5.2,17.22-31.27,2.21-6.45a20.65,20.65,0,0,1-5.66-3.27"/></clipPath><clipPath id="clip-path-79"><path class="cls-1" d="M3007.32,243.64l-81.61-28c-2.75,8.3-6.74,20.1-9.31,26.83-4.25,11.16-19.45,8.56-19.45,8.56s-9.39-2.56-19.66-6.08l-3.93,11.49a27,27,0,0,0,3.71,20c3.29,5.1,9,10.15,18.65,13.76l-2.83,11.29-9.63,38.39,16.17,5.54,20.09-47.29,22.76,7.8,27.58,9.45,3.75,1.28a22.88,22.88,0,0,0,7.3,11,20.61,20.61,0,0,0,5.66,3.27l-2.21,6.45L2973,370.68l15.57,5.34L3009,337.78l17.72-51.8s12.87-31.27-19.43-42.34"/></clipPath><clipPath id="clip-path-80"><path class="cls-1" d="M2973.62,316.72l-3.75-1.29L2942.29,306a25.49,25.49,0,0,0,1.38,8.07l-2.2,6.44a2.06,2.06,0,1,0,3.89,1.33l.84-2.46a25.51,25.51,0,0,0,4.47,5.35l-1.7,5a2.06,2.06,0,1,0,3.89,1.33l1.26-3.69a25.5,25.5,0,0,0,5.41,2.61l.79.25-1.81,5.28a2,2,0,0,0,3,2.43,2,2,0,0,0,.9-1.1l2-5.71a25.31,25.31,0,0,0,6.73,0l-1.39,4.06a2.06,2.06,0,1,0,3.89,1.33l2.22-6.48a25.61,25.61,0,0,0,5.12-2.35,22.89,22.89,0,0,1-7.3-11"/></clipPath><clipPath id="clip-path-81"><path class="cls-1" d="M2903.6,199a2.47,2.47,0,0,1,1.39-4.74c.61.14,15.21,3.42,18.87-11.58a2.47,2.47,0,1,1,4.79,1.17c-4.84,19.84-24.63,15.26-24.83,15.21l-.22-.06"/></clipPath><clipPath id="clip-path-82"><path class="cls-1" d="M2936.53,283.34a12.77,12.77,0,0,0-16.58,15l20.49,7a12.78,12.78,0,0,0-3.92-22"/></clipPath><clipPath id="clip-path-83"><path class="cls-1" d="M2902.35,323.61a12.75,12.75,0,0,0-10.77-16.86l-6.15,24.54c.23.09.45.2.69.28a12.78,12.78,0,0,0,16.23-8"/></clipPath><clipPath id="clip-path-84"><path class="cls-1" d="M3015.19,291.23a18,18,0,1,0-2.12,34.73l10-29.33a18,18,0,0,0-7.91-5.4"/></clipPath><clipPath id="clip-path-85"><path class="cls-1" d="M2965.5,270.55a31.29,31.29,0,0,0,41.29-27.09l-57.33-19.65a31.32,31.32,0,0,0,16,46.74"/></clipPath><clipPath id="clip-path-86"><path class="cls-1" d="M2916.41,242.51c1-2.53,2.13-5.77,3.35-9.27a18.1,18.1,0,0,0-32.82,14.89c5.83,1.81,10,2.94,10,2.94s15.2,2.6,19.45-8.56"/></clipPath><clipPath id="clip-path-87"><path class="cls-1" d="M2877.4,196.64a18,18,0,0,0,.48-10.07,101,101,0,0,0-15.11,5.06c-6.58,2.88-12.67,6.78-14.73,11.79-.07.17-.13.34-.2.52a18.09,18.09,0,0,0,29.56-7.29"/></clipPath><clipPath id="clip-path-88"><path class="cls-1" d="M2862.77,191.62c-6.58,2.88-12.67,6.78-14.73,11.79-5.18,12.59-2.78,22.11,4.57,29.85,1.74,1.83,5.14,3.79,9.31,5.72,12.91-24.75,6.6-39.92.85-47.36"/></clipPath><clipPath id="clip-path-89"><path class="cls-1" d="M2893.13,204.51a4.29,4.29,0,1,0-5.45,2.67,4.3,4.3,0,0,0,5.45-2.67"/></clipPath><clipPath id="clip-path-90"><path class="cls-1" d="M2883,309.19a14.25,14.25,0,0,0-8.85-18.09c-.31-.11-.63-.19-.94-.27l-7.34,27.49a14.22,14.22,0,0,0,17.13-9.13"/></clipPath><clipPath id="clip-path-91"><path class="cls-1" d="M2956.85,350.38l-4.88,13.1L2965.2,368a14,14,0,0,0-8.35-17.64"/></clipPath><clipPath id="clip-path-92"><path class="cls-1" d="M3017.12,263.74l.33-6.58c.61,0,15,.42,20.72-16.34l6.23,2.13c-3.83,11.2-11,16.27-16.32,18.55a26.9,26.9,0,0,1-11,2.24"/></clipPath><clipPath id="clip-path-93"><path class="cls-1" d="M3039.31,247.64h0c-3.17-1.09-5.11-3.8-4.33-6.07l3.86-11.27c.77-2.27,4-3.22,7.14-2.14s5.11,3.8,4.33,6.07l-3.86,11.27c-.78,2.27-4,3.22-7.14,2.14"/></clipPath><clipPath id="clip-path-112"><path class="cls-1" d="M2910.87,419.35c-119.68,0-216.69,25.69-216.69,57.39a16.86,16.86,0,0,0,1.87,7.54h0l.09.14a22.79,22.79,0,0,0,1.57,2.65l40.56,68.33c-8.2.42-14.18,4-14.18,16.5,0,24,28.43,40.57,40.38,45.92,4.6,2.07,9.36,3.94,14.22,5.67l107.94,181.82a41.85,41.85,0,0,0-4,3.28,29.45,29.45,0,0,0-53,25.44,39.79,39.79,0,0,0-20.55,18.09,29.44,29.44,0,0,0-46.92,19.71h291a29.46,29.46,0,0,0-35.07-25.05,43,43,0,0,0-48.74-28.09c0-.26,0-.51,0-.77a21.26,21.26,0,0,0-21.25-21.27,21,21,0,0,0-9.11,2.07l46.18-77.88c4.26-1.53,8.43-3.2,12.48-5,11.09-5,37.47-20.31,37.47-42.62,0-11.31-5.31-14.76-12.66-15.27l100.33-169.21a23,23,0,0,0,3.62-6.11,16.27,16.27,0,0,0,1.12-5.87c0-31.69-97-57.39-216.69-57.39"/></clipPath><clipPath id="clip-path-113"><path class="cls-1" d="M2696,484.28l.27.45c-.08-.15-.17-.3-.24-.45Z"/></clipPath><clipPath id="clip-path-114"><path class="cls-1" d="M2700.16,488.46l-4-4a37.6,37.6,0,0,0,4,4"/></clipPath><clipPath id="clip-path-115"><path class="cls-1" d="M3122.82,488.72a22.66,22.66,0,0,0,4-6.11Z"/></clipPath><clipPath id="clip-path-116"><path class="cls-1" d="M2910.87,419.35c-119.68,0-216.69,25.69-216.69,57.39a16.86,16.86,0,0,0,1.87,7.54l.08.15,1.57,2.65c18.38,26.76,106.83,47,213.18,47,104.16,0,191.15-19.46,212-45.41l3.62-6.11a16.28,16.28,0,0,0,1.12-5.87c0-31.69-97-57.39-216.69-57.39"/></clipPath><clipPath id="clip-path-117"><path class="cls-1" d="M2697.69,487.07l213.18,359.1V534.12c-106.35,0-194.8-20.29-213.18-47"/></clipPath><clipPath id="clip-path-118"><path class="cls-1" d="M2910.87,534.12V846.17l212-357.46c-20.81,25.94-107.79,45.41-212,45.41"/></clipPath><clipPath id="clip-path-119"><path class="cls-1" d="M2761.33,482l.19.31-.17-.31Z"/></clipPath><clipPath id="clip-path-120"><path class="cls-1" d="M2764.74,486.13l-3.36-4a35.2,35.2,0,0,0,3.36,4"/></clipPath><clipPath id="clip-path-121"><path class="cls-1" d="M3058.41,485.08a16.69,16.69,0,0,0,4-4.25Z"/></clipPath><clipPath id="clip-path-122"><path class="cls-1" d="M2910.87,436.79c-83.31,0-150.84,17.88-150.84,39.95a11.74,11.74,0,0,0,1.3,5.25l.05.1,1.09,1.84c12.79,18.63,74.36,32.75,148.39,32.75,72.51,0,133.05-13.55,147.54-31.61l2.52-4.25a11.33,11.33,0,0,0,.78-4.08c0-22.06-67.53-39.95-150.84-39.95"/></clipPath><clipPath id="clip-path-123"><path class="cls-1" d="M2831.36,479.53l.1.17-.08-.17Z"/></clipPath><clipPath id="clip-path-124"><path class="cls-1" d="M2833.17,482.59l-1.78-3a25.87,25.87,0,0,0,1.78,3"/></clipPath><clipPath id="clip-path-125"><path class="cls-1" d="M2989.32,482.95a16.14,16.14,0,0,0,4-4Z"/></clipPath><clipPath id="clip-path-126"><path class="cls-1" d="M2910.87,455.5c-44.29,0-80.2,9.51-80.2,21.24a6.24,6.24,0,0,0,.69,2.79l0,.05.58,1c6.8,9.9,39.54,17.41,78.9,17.41,38.55,0,70.75-7.2,78.45-16.81l1.34-2.26a6,6,0,0,0,.41-2.17c0-11.73-35.91-21.24-80.2-21.24"/></clipPath><clipPath id="clip-path-127"><path class="cls-1" d="M2738.25,555.4,2752,578.56c18.68,17.3,44.73,24.59,69.45,31.38,33,9.06,67.57,10.07,101.77,10.17-12.32,11.17-29.55,15.19-46.14,16.31-36.83,2.49-78.62-3.36-112.63-18.61-12-5.36-40.38-21.89-40.38-45.92,0-12.47,6-16.08,14.18-16.5"/></clipPath><clipPath id="clip-path-128"><path class="cls-1" d="M3022,657.88l-12.76,21.49c-17.33,16.05-41.5,22.82-64.45,29.12-30.6,8.4-62.71,9.35-94.44,9.44,11.43,10.37,27.42,14.1,42.82,15.14,34.18,2.31,73-3.11,104.52-17.27,11.09-5,37.47-20.31,37.47-42.62,0-11.57-5.55-14.92-13.16-15.31"/></clipPath><clipPath id="clip-path-129"><path class="cls-1" d="M3024,846.17a29.6,29.6,0,0,0-5.88.59,43,43,0,0,0-48.74-28.09c0-.26,0-.51,0-.77a21.23,21.23,0,0,0-36.9-14.36,41.62,41.62,0,0,0-49.9,5,29.45,29.45,0,0,0-53,25.44,39.79,39.79,0,0,0-20.55,18.09,29.44,29.44,0,0,0-46.92,19.71h291A29.46,29.46,0,0,0,3024,846.17"/></clipPath></defs><title>ilustracoes_caixa_am5SVG</title><g class="cls-4"><g class="cls-5"><rect class="cls-6" x="445.27" y="322.07" width="1034.67" height="692.39"/></g></g><g class="cls-7"><g class="cls-5"><rect class="cls-8" x="445.27" y="603.99" width="546.37" height="410.46"/></g></g><g class="cls-9"><g class="cls-5"><g class="cls-10"><g class="cls-11"><g class="cls-12"><g class="cls-11"><rect class="cls-13" x="933.58" y="603.99" width="546.37" height="410.46"/></g></g></g></g></g></g><g class="cls-14"><g class="cls-5"><rect class="cls-15" x="881.66" y="513.36" width="174.51" height="223.72" transform="translate(-57 1151.72) rotate(-60)"/></g></g><g class="cls-16"><g class="cls-5"><rect class="cls-17" x="840.57" y="215.82" width="261.84" height="400.73" transform="matrix(0.5, -0.87, 0.87, 0.5, 125.32, 1049.43)"/></g></g><g class="cls-18"><g class="cls-5"><rect class="cls-19" x="803.54" y="225.84" width="330.63" height="490.86" transform="translate(76.29 1074.69) rotate(-60)"/></g></g><g class="cls-20"><g class="cls-5"><rect class="cls-19" x="717.67" y="258.32" width="499.47" height="325.48" transform="translate(119.05 1048.33) rotate(-60)"/></g></g><g class="cls-21"><g class="cls-5"><rect class="cls-22" x="721.02" y="263.58" width="499.41" height="318.08" transform="translate(119.36 1051.99) rotate(-60)"/></g></g><g class="cls-23"><g class="cls-5"><rect class="cls-15" x="944.59" y="345.06" width="176.05" height="161.88" transform="translate(147.38 1107.27) rotate(-60)"/></g></g><g class="cls-24"><g class="cls-5"><rect class="cls-25" x="820.58" y="255.53" width="294.41" height="472.02" transform="translate(58.21 1083.9) rotate(-60)"/></g></g><g class="cls-26"><g class="cls-5"><rect class="cls-27" x="1127.3" y="550.83" width="97.24" height="97.24"/></g></g><g class="cls-28"><g class="cls-5"><rect class="cls-27" x="1203.55" y="552.95" width="95.12" height="95.12"/></g></g><g class="cls-29"><g class="cls-5"><rect class="cls-27" x="1146.88" y="515.16" width="120.37" height="120.37"/></g></g><g class="cls-30"><g class="cls-5"><rect class="cls-27" x="1146.88" y="546.31" width="135.72" height="101.76"/></g></g><g class="cls-31"><g class="cls-5"><rect class="cls-27" x="752.04" y="571.71" width="118.78" height="119.62"/></g></g><g class="cls-32"><g class="cls-5"><rect class="cls-27" x="637.14" y="575.04" width="115.5" height="116.29"/></g></g><g class="cls-33"><g class="cls-5"><rect class="cls-27" x="685.83" y="515.65" width="154.64" height="155.97"/></g></g><g class="cls-34"><g class="cls-5"><rect class="cls-27" x="662.04" y="564.61" width="178.42" height="126.72"/></g></g><g class="cls-35"><g class="cls-5"><rect class="cls-27" x="880.37" y="715.58" width="88.98" height="88.98"/></g></g><g class="cls-36"><g class="cls-5"><rect class="cls-27" x="960.66" y="727.26" width="77.01" height="77.01"/></g></g><g class="cls-37"><g class="cls-5"><rect class="cls-27" x="931.2" y="711.8" width="88.98" height="88.98"/></g></g><g class="cls-38"><g class="cls-5"><rect class="cls-27" x="900.55" y="701.88" width="102.39" height="102.39"/></g></g><g class="cls-39"><g class="cls-5"><rect class="cls-27" x="895.82" y="727.26" width="132.37" height="77.01"/></g></g><g class="cls-40"><g class="cls-5"><rect class="cls-27" x="1039.37" y="459.66" width="93.87" height="93.87"/></g></g><g class="cls-41"><g class="cls-5"><rect class="cls-27" x="960.24" y="473.18" width="80" height="80"/></g></g><g class="cls-42"><g class="cls-5"><rect class="cls-27" x="980.49" y="455.27" width="93.87" height="93.87"/></g></g><g class="cls-43"><g class="cls-5"><rect class="cls-27" x="1000.47" y="443.78" width="109.4" height="109.4"/></g></g><g class="cls-44"><g class="cls-5"><rect class="cls-27" x="971.22" y="473.18" width="144.12" height="80"/></g></g></svg>