<svg id="Layer_1" data-name="Layer 1" xmlns="http://www.w3.org/2000/svg" xmlns:xlink="http://www.w3.org/1999/xlink" viewBox="0 0 1920 1080"><defs><style>.cls-1,.cls-2{fill:none;}.cls-1{clip-rule:evenodd;}.cls-3{fill:#3c9344;}.cls-4{fill:#347534;}.cls-5{fill:#00652e;}.cls-6{fill:#775020;}.cls-7{fill:#99bf19;}.cls-8{fill:#733791;}.cls-9{fill:#500778;}.cls-10{fill:#00a499;}.cls-11{fill:#64c8c3;}.cls-12{fill:#ff9141;}.cls-13{fill:#ff6d00;}.cls-14{fill:#8c5fa5;}.cls-15{clip-path:url(#clip-path);}.cls-16{clip-path:url(#clip-path-2);}.cls-17{clip-path:url(#clip-path-3);}.cls-18{clip-path:url(#clip-path-4);}.cls-19{clip-path:url(#clip-path-5);}.cls-20{clip-path:url(#clip-path-6);}.cls-21{clip-path:url(#clip-path-7);}.cls-22{clip-path:url(#clip-path-8);}.cls-23{clip-path:url(#clip-path-9);}.cls-24{clip-path:url(#clip-path-10);}.cls-25{clip-path:url(#clip-path-11);}.cls-26{clip-path:url(#clip-path-12);}.cls-27{clip-path:url(#clip-path-13);}.cls-28{clip-path:url(#clip-path-14);}.cls-29{clip-path:url(#clip-path-15);}.cls-30{clip-path:url(#clip-path-16);}.cls-31{clip-path:url(#clip-path-17);}.cls-32{clip-path:url(#clip-path-18);}.cls-33{clip-path:url(#clip-path-19);}.cls-34{clip-path:url(#clip-path-20);}.cls-35{clip-path:url(#clip-path-21);}.cls-36{clip-path:url(#clip-path-22);}.cls-37{clip-path:url(#clip-path-23);}.cls-38{clip-path:url(#clip-path-24);}.cls-39{clip-path:url(#clip-path-25);}.cls-40{clip-path:url(#clip-path-26);}.cls-41{clip-path:url(#clip-path-27);}.cls-42{clip-path:url(#clip-path-28);}.cls-43{clip-path:url(#clip-path-29);}.cls-44{clip-path:url(#clip-path-30);}.cls-45{clip-path:url(#clip-path-31);}.cls-46{clip-path:url(#clip-path-32);}.cls-47{clip-path:url(#clip-path-33);}.cls-48{clip-path:url(#clip-path-34);}.cls-49{clip-path:url(#clip-path-35);}.cls-50{clip-path:url(#clip-path-36);}.cls-51{clip-path:url(#clip-path-37);}.cls-52{clip-path:url(#clip-path-38);}.cls-53{clip-path:url(#clip-path-39);}.cls-54{clip-path:url(#clip-path-40);}.cls-55{clip-path:url(#clip-path-41);}.cls-56{clip-path:url(#clip-path-42);}.cls-57{clip-path:url(#clip-path-43);}.cls-58{clip-path:url(#clip-path-44);}.cls-59{clip-path:url(#clip-path-45);}.cls-60{clip-path:url(#clip-path-46);}.cls-61{clip-path:url(#clip-path-47);}.cls-62{clip-path:url(#clip-path-48);}.cls-63{clip-path:url(#clip-path-49);}.cls-64{clip-path:url(#clip-path-50);}.cls-65{clip-path:url(#clip-path-51);}.cls-66{clip-path:url(#clip-path-52);}.cls-67{clip-path:url(#clip-path-53);}.cls-68{clip-path:url(#clip-path-54);}.cls-69{clip-path:url(#clip-path-55);}.cls-70{clip-path:url(#clip-path-56);}.cls-71{clip-path:url(#clip-path-57);}.cls-72{clip-path:url(#clip-path-58);}.cls-73{clip-path:url(#clip-path-59);}.cls-74{clip-path:url(#clip-path-60);}.cls-75{clip-path:url(#clip-path-61);}.cls-76{clip-path:url(#clip-path-62);}.cls-77{clip-path:url(#clip-path-63);}.cls-78{clip-path:url(#clip-path-64);}.cls-79{clip-path:url(#clip-path-65);}.cls-80{clip-path:url(#clip-path-66);}.cls-81{clip-path:url(#clip-path-67);}.cls-82{clip-path:url(#clip-path-68);}.cls-83{clip-path:url(#clip-path-69);}.cls-84{clip-path:url(#clip-path-70);}.cls-85{clip-path:url(#clip-path-71);}.cls-86{clip-path:url(#clip-path-72);}.cls-87{clip-path:url(#clip-path-73);}.cls-88{clip-path:url(#clip-path-74);}.cls-89{clip-path:url(#clip-path-75);}.cls-90{clip-path:url(#clip-path-76);}.cls-91{clip-path:url(#clip-path-77);}.cls-92{clip-path:url(#clip-path-78);}.cls-93{clip-path:url(#clip-path-79);}.cls-94{clip-path:url(#clip-path-80);}.cls-95{clip-path:url(#clip-path-81);}.cls-96{clip-path:url(#clip-path-82);}.cls-97{clip-path:url(#clip-path-83);}.cls-98{clip-path:url(#clip-path-84);}.cls-99{clip-path:url(#clip-path-85);}.cls-100{clip-path:url(#clip-path-86);}.cls-101{clip-path:url(#clip-path-87);}.cls-102{clip-path:url(#clip-path-88);}.cls-103{clip-path:url(#clip-path-89);}.cls-104{clip-path:url(#clip-path-90);}.cls-105{clip-path:url(#clip-path-91);}.cls-106{clip-path:url(#clip-path-92);}.cls-107{clip-path:url(#clip-path-93);}.cls-108{clip-path:url(#clip-path-94);}.cls-109{clip-path:url(#clip-path-95);}.cls-110{clip-path:url(#clip-path-96);}.cls-111{clip-path:url(#clip-path-97);}.cls-112{clip-path:url(#clip-path-98);}.cls-113{clip-path:url(#clip-path-99);}.cls-114{clip-path:url(#clip-path-100);}.cls-115{clip-path:url(#clip-path-101);}.cls-116{clip-path:url(#clip-path-102);}.cls-117{clip-path:url(#clip-path-103);}.cls-118{clip-path:url(#clip-path-104);}.cls-119{clip-path:url(#clip-path-105);}.cls-120{clip-path:url(#clip-path-106);}.cls-121{clip-path:url(#clip-path-107);}.cls-122{clip-path:url(#clip-path-108);}.cls-123{clip-path:url(#clip-path-109);}.cls-124{clip-path:url(#clip-path-110);}.cls-125{clip-path:url(#clip-path-111);}.cls-126{clip-path:url(#clip-path-112);}.cls-127{clip-path:url(#clip-path-113);}.cls-128{clip-path:url(#clip-path-114);}.cls-129{clip-path:url(#clip-path-115);}.cls-130{clip-path:url(#clip-path-116);}.cls-131{clip-path:url(#clip-path-117);}.cls-132{clip-path:url(#clip-path-118);}.cls-133{clip-path:url(#clip-path-119);}.cls-134{clip-path:url(#clip-path-120);}.cls-135{clip-path:url(#clip-path-121);}.cls-136{clip-path:url(#clip-path-122);}.cls-137{clip-path:url(#clip-path-123);}.cls-138{clip-path:url(#clip-path-124);}.cls-139{clip-path:url(#clip-path-125);}.cls-140{clip-path:url(#clip-path-126);}.cls-141{clip-path:url(#clip-path-127);}.cls-142{clip-path:url(#clip-path-128);}.cls-143{clip-path:url(#clip-path-129);}.cls-144{clip-path:url(#clip-path-130);}.cls-145{clip-path:url(#clip-path-131);}.cls-146{clip-path:url(#clip-path-132);}.cls-147{clip-path:url(#clip-path-133);}.cls-148{clip-path:url(#clip-path-134);}.cls-149{clip-path:url(#clip-path-135);}.cls-150{clip-path:url(#clip-path-136);}.cls-151{clip-path:url(#clip-path-137);}.cls-152{clip-path:url(#clip-path-138);}.cls-153{clip-path:url(#clip-path-139);}.cls-154{clip-path:url(#clip-path-140);}.cls-155{clip-path:url(#clip-path-141);}.cls-156{clip-path:url(#clip-path-142);}.cls-157{clip-path:url(#clip-path-143);}.cls-158{clip-path:url(#clip-path-144);}.cls-159{clip-path:url(#clip-path-145);}.cls-160{clip-path:url(#clip-path-146);}.cls-161{clip-path:url(#clip-path-147);}.cls-162{clip-path:url(#clip-path-148);}.cls-163{clip-path:url(#clip-path-149);}.cls-164{clip-path:url(#clip-path-150);}.cls-165{clip-path:url(#clip-path-151);}.cls-166{clip-path:url(#clip-path-152);}.cls-167{clip-path:url(#clip-path-153);}.cls-168{clip-path:url(#clip-path-154);}.cls-169{clip-path:url(#clip-path-155);}.cls-170{clip-path:url(#clip-path-156);}.cls-171{clip-path:url(#clip-path-157);}.cls-172{clip-path:url(#clip-path-158);}.cls-173{clip-path:url(#clip-path-159);}.cls-174{clip-path:url(#clip-path-160);}.cls-175{clip-path:url(#clip-path-161);}.cls-176{clip-path:url(#clip-path-162);}.cls-177{clip-path:url(#clip-path-163);}.cls-178{clip-path:url(#clip-path-164);}.cls-179{clip-path:url(#clip-path-165);}.cls-180{clip-path:url(#clip-path-166);}.cls-181{clip-path:url(#clip-path-167);}.cls-182{clip-path:url(#clip-path-168);}.cls-183{clip-path:url(#clip-path-169);}.cls-184{clip-path:url(#clip-path-170);}.cls-185{clip-path:url(#clip-path-171);}.cls-186{clip-path:url(#clip-path-172);}.cls-187{clip-path:url(#clip-path-173);}.cls-188{clip-path:url(#clip-path-174);}.cls-189{clip-path:url(#clip-path-175);}.cls-190{clip-path:url(#clip-path-176);}.cls-191{clip-path:url(#clip-path-177);}.cls-192{clip-path:url(#clip-path-178);}.cls-193{clip-path:url(#clip-path-179);}.cls-194{clip-path:url(#clip-path-180);}.cls-195{clip-path:url(#clip-path-181);}.cls-196{clip-path:url(#clip-path-182);}.cls-197{clip-path:url(#clip-path-183);}.cls-198{clip-path:url(#clip-path-184);}.cls-199{clip-path:url(#clip-path-185);}.cls-200{clip-path:url(#clip-path-186);}.cls-201{clip-path:url(#clip-path-187);}.cls-202{clip-path:url(#clip-path-188);}.cls-203{clip-path:url(#clip-path-189);}.cls-204{clip-path:url(#clip-path-190);}.cls-205{clip-path:url(#clip-path-191);}.cls-206{clip-path:url(#clip-path-192);}.cls-207{clip-path:url(#clip-path-193);}.cls-208{clip-path:url(#clip-path-194);}.cls-209{clip-path:url(#clip-path-195);}.cls-210{clip-path:url(#clip-path-196);}.cls-211{clip-path:url(#clip-path-197);}.cls-212{clip-path:url(#clip-path-198);}.cls-213{clip-path:url(#clip-path-199);}.cls-214{clip-path:url(#clip-path-200);}.cls-215{clip-path:url(#clip-path-201);}.cls-216{clip-path:url(#clip-path-202);}.cls-217{clip-path:url(#clip-path-203);}.cls-218{clip-path:url(#clip-path-204);}.cls-219{clip-path:url(#clip-path-205);}.cls-220{clip-path:url(#clip-path-206);}.cls-221{clip-path:url(#clip-path-207);}.cls-222{clip-path:url(#clip-path-208);}.cls-223{clip-path:url(#clip-path-209);}</style><clipPath id="clip-path"><polygon class="cls-1" points="469.7 3305.39 469.7 3376.39 961.57 3660.37 1453.43 3376.39 1453.43 3305.39 961.57 3021.41 469.7 3305.39"/></clipPath><clipPath id="clip-path-2"><polygon class="cls-1" points="961.57 3660.37 469.7 3376.39 469.7 3305.39 961.57 3589.37 961.57 3660.37"/></clipPath><clipPath id="clip-path-3"><polygon class="cls-1" points="1207.5 3660.37 1453.43 3660.37 1453.43 3305.39 961.57 3305.39 961.57 3660.37 1207.5 3660.37"/></clipPath><clipPath id="clip-path-4"><polygon class="cls-1" points="1023.05 3411.89 777.12 3269.89 777.12 3056.91 1023.05 3198.9 1023.05 3411.89"/></clipPath><clipPath id="clip-path-5"><polygon class="cls-1" points="1124.01 3044.68 1023.05 3198.88 1023.05 3411.86 1207.5 3305.37 1207.5 3092.41 1124.01 3044.68"/></clipPath><clipPath id="clip-path-6"><polygon class="cls-1" points="760.34 3081.87 869.29 2897.14 1124.01 3044.68 1006.28 3223.86 760.34 3081.87"/></clipPath><clipPath id="clip-path-7"><polygon class="cls-1" points="1084.5 3376.39 1084.5 3234.38 1146.02 3198.9 1146.02 3340.87 1084.5 3376.39"/></clipPath><clipPath id="clip-path-8"><polygon class="cls-1" points="930.82 3216.52 930.82 3287.51 992.31 3323.01 992.31 3252.01 930.82 3216.52"/></clipPath><clipPath id="clip-path-9"><polygon class="cls-1" points="808.09 3145.65 808.09 3216.65 869.57 3252.14 869.57 3181.15 808.09 3145.65"/></clipPath><clipPath id="clip-path-10"><rect class="cls-2" x="469.7" y="2832.72" width="983.74" height="827.65"/></clipPath><clipPath id="clip-path-11"><path class="cls-1" d="M726.27,3342.17H557.09s-25.22,113.66,32.53,213.91h21.57s-98.92-175.77,30.49-175.77,30.49,175.77,30.49,175.77h21.57c57.74-100.26,32.53-213.91,32.53-213.91"/></clipPath><clipPath id="clip-path-12"><path class="cls-1" d="M704.08,3139.93h-.19a99.33,99.33,0,0,0-93.91,67l.47-.1a99.32,99.32,0,0,1,93.63-66.92"/></clipPath><clipPath id="clip-path-13"><path class="cls-1" d="M708.16,3140c.91,0,1.82,0,2.73.07-.9,0-1.82,0-2.73-.07"/></clipPath><clipPath id="clip-path-14"><path class="cls-1" d="M704.13,3164.55a27.82,27.82,0,0,1,3.41.25,28,28,0,0,0-3.21-.27l-.2,0"/></clipPath><clipPath id="clip-path-15"><path class="cls-1" d="M704.32,3139.92h-.24a33.32,33.32,0,0,1,4.08.32,32.85,32.85,0,0,0-3.83-.33"/></clipPath><clipPath id="clip-path-16"><path class="cls-1" d="M708.7,3164.66c-.46,0-.93,0-1.4,0l1.4,0"/></clipPath><clipPath id="clip-path-17"><path class="cls-1" d="M639.76,3200.95l-29.32,5.91,0,.09,29.79-6a74.73,74.73,0,0,1,63.93-36.41h-.25a74.74,74.74,0,0,0-64.12,36.42"/></clipPath><clipPath id="clip-path-18"><path class="cls-1" d="M746.86,3149.48a98.8,98.8,0,0,0-37.81-9.42,98.76,98.76,0,0,1,37.74,9.59Z"/></clipPath><clipPath id="clip-path-19"><path class="cls-1" d="M746.79,3149.65a98.76,98.76,0,0,0-37.74-9.59l-.89,0c-1.35-.06-2.71-.1-4.08-.1a99.32,99.32,0,0,0-93.63,66.92l29.32-5.91a74.73,74.73,0,0,1,64.12-36.42h.44c1,0,2,0,3,.09h.46a74.21,74.21,0,0,1,29.42,7.53Z"/></clipPath><clipPath id="clip-path-20"><path class="cls-1" d="M579.79,3139.92a98.91,98.91,0,0,0-42.54,9.56l9.68,22.68a74.62,74.62,0,0,1,97,28.79l29.79,6a99.33,99.33,0,0,0-93.91-67"/></clipPath><clipPath id="clip-path-21"><path class="cls-1" d="M480.48,3239.24a99.29,99.29,0,0,0,54.62,88.68l8-23.65a74.66,74.66,0,0,1,3.85-132.11l-9.68-22.68a99.31,99.31,0,0,0-56.78,89.75"/></clipPath><clipPath id="clip-path-22"><path class="cls-1" d="M557.22,3066s2.22,38.32,19.87,51l-2.85-24.47Z"/></clipPath><clipPath id="clip-path-23"><path class="cls-1" d="M727.14,3066s-2.22,38.32-19.87,51l2.85-24.47Z"/></clipPath><clipPath id="clip-path-24"><path class="cls-1" d="M642.18,3155.09l-38.65-21.75s-38.28,136.5-46.45,208.83h85.09Z"/></clipPath><clipPath id="clip-path-25"><path class="cls-1" d="M641.68,3155.09l38.65-21.75s38.28,136.5,46.44,208.83H641.68Z"/></clipPath><clipPath id="clip-path-26"><path class="cls-1" d="M642.18,3149.74H612s13.48,30.31,30.18,34c16.69-3.64,30.18-34,30.18-34Z"/></clipPath><clipPath id="clip-path-27"><path class="cls-1" d="M642.18,3128.57,612,3149.74s15.89,20.64,30.18,20.64c4.39,0,19.7-6.63,30.18-20.64Z"/></clipPath><clipPath id="clip-path-28"><path class="cls-1" d="M576.34,3066a13.52,13.52,0,1,0,0,19.12,13.52,13.52,0,0,0,0-19.12"/></clipPath><clipPath id="clip-path-29"><path class="cls-1" d="M727.14,3066a13.52,13.52,0,1,0,0,19.12,13.52,13.52,0,0,0,0-19.12"/></clipPath><clipPath id="clip-path-30"><path class="cls-1" d="M657.49,3155.11c20.92-7.23,42.66-17.84,52.7-37.56,6.94-13.63,7.19-29.55,7.34-44.85.1-11,.2-22.2-1.46-33a80.56,80.56,0,0,0-3.84-15.41c-6.89-18.91-22.48-34.29-41.22-41.65a77,77,0,0,0-28.82-5.19L628.79,3094l13.38,64.31c.34,0,.67,0,1,0,4.91-.12,9.66-1.64,14.3-3.24"/></clipPath><clipPath id="clip-path-31"><path class="cls-1" d="M612.47,2983.47c-14,5.73-26.6,15.54-34.29,28.58-10.39,17.64-11.08,39.16-11,59.63.08,18.65.89,39.38,12.92,54.71s33.42,25.37,51.74,30.22a44.49,44.49,0,0,0,10.74,1.71l-5.47-65.8,16-5.47-10.54-109.63a81.81,81.81,0,0,0-30.11,6"/></clipPath><clipPath id="clip-path-32"><path class="cls-1" d="M620.68,3056.43a5.68,5.68,0,1,0-5.68,5.68,5.68,5.68,0,0,0,5.68-5.68"/></clipPath><clipPath id="clip-path-33"><path class="cls-1" d="M677.36,3056.43a5.68,5.68,0,1,0-5.68,5.68,5.68,5.68,0,0,0,5.68-5.68"/></clipPath><clipPath id="clip-path-34"><path class="cls-1" d="M696.45,3081.87c0,3.49-5.59,6.32-12.5,6.32s-12.5-2.83-12.5-6.32,5.6-6.32,12.5-6.32,12.5,2.83,12.5,6.32"/></clipPath><clipPath id="clip-path-35"><path class="cls-1" d="M590.63,3081.87c0,3.49,5.59,6.32,12.5,6.32s12.5-2.83,12.5-6.32-5.59-6.32-12.5-6.32-12.5,2.83-12.5,6.32"/></clipPath><clipPath id="clip-path-36"><polygon class="cls-1" points="636.71 3092.49 659.21 3092.49 652.72 3087.06 636.71 3092.49"/></clipPath><clipPath id="clip-path-37"><path class="cls-1" d="M709.09,3304.27h31.5l8,23.65c-7,12.09-22,14.25-22,14.25l-4.23-29.07H709.54a4.29,4.29,0,0,1-.45,0,4.44,4.44,0,1,1,0-8.88"/></clipPath><clipPath id="clip-path-38"><path class="cls-1" d="M675.8,2966.92v.63c-1.4,2.61-14.12,25.71-31.09,38.37-6.36,4.74-13.31,8-20.49,8.19h43c5.45.12,8.6,2.1,10.92,4.58,4.22,4.53,5.6,10.79,12.66,10.79A14.59,14.59,0,0,1,701,3033c4.72,4.25,5.2,10.78,5.2,10.78v31.72H718q0-1.94,0-3.86c0-3.18,0-6.38-.06-9.59a13.44,13.44,0,0,1,7.64,2.65l1.52,1.24s0,0,0,0l.19.23a272.17,272.17,0,0,0,1.88-29.41c0-34.92-22.12-60-53.41-69.85"/></clipPath><clipPath id="clip-path-39"><path class="cls-1" d="M656.35,2961.13a138.83,138.83,0,0,0-14.46,0c-2.54.13-5.09.32-7.62.6a103.49,103.49,0,0,0-11,1.79c-.34.08-1.08.36-1.84.61l-1.94.36h0a94.45,94.45,0,0,0-16.26,4.67c-28.22,11-47.71,35.09-47.66,67.84,0,6.94.65,19.13,1.67,27.6,0,.48,0,.92,0,1.4l.15-.12c0,.17,0,.37.06.53.12-.13.21-.28.34-.41a13.29,13.29,0,0,1,8.26-3.8c.41,0,.81-.09,1.22-.07-.06,3.2-.07,6.4-.06,9.57q0,1.92,0,3.86H579v-31.72a19.1,19.1,0,0,1,2.08-6.74l2.46-3.38.06-.08c2.29-2.34,5.72-3.53,10.78-4.16s7-6.29,11.45-10.56A16.9,16.9,0,0,1,618,3014.1s27,.1,30.85,0c38.27-.86,53.1-26.93,58.85-41.24,1.28-3.18,2.11-5.79,2.64-7.4a30.72,30.72,0,0,0,1-4.32Z"/></clipPath><clipPath id="clip-path-40"><path class="cls-1" d="M706.14,3075.55c0,22.32-40.76,22.93-58.52,22.13H637.55c-17.76.79-58.52.18-58.52-22.13h-11.8c.21,17.61,1.68,36.57,12.89,50.84,11.95,15.23,33.42,25.37,51.74,30.22a34.48,34.48,0,0,0,21.48,0c18.31-4.86,39.79-15,51.74-30.22,11.2-14.27,12.67-33.24,12.89-50.84h-11.8Z"/></clipPath><clipPath id="clip-path-41"><path class="cls-1" d="M642.18,3141.27a34.8,34.8,0,0,0,34.8-34.8H607.38a34.8,34.8,0,0,0,34.8,34.8"/></clipPath><clipPath id="clip-path-42"><path class="cls-1" d="M746.79,3149.65l-9.61,22.51a74.21,74.21,0,0,0-29.42-7.53,74.68,74.68,0,0,1,32.83,139.64l8,23.65a99.32,99.32,0,0,0-1.79-178.27"/></clipPath><clipPath id="clip-path-43"><path class="cls-1" d="M619.5,3074.23a1.7,1.7,0,1,0-1.71,1.7,1.7,1.7,0,0,0,1.71-1.7"/></clipPath><clipPath id="clip-path-44"><path class="cls-1" d="M605.83,3068.76a1.7,1.7,0,1,0-1.7,1.7,1.7,1.7,0,0,0,1.7-1.7"/></clipPath><clipPath id="clip-path-45"><path class="cls-1" d="M630.43,3068.76a1.7,1.7,0,1,0-1.7,1.7,1.7,1.7,0,0,0,1.7-1.7"/></clipPath><clipPath id="clip-path-46"><path class="cls-1" d="M608.56,3077a1.7,1.7,0,1,0-1.71,1.7,1.71,1.71,0,0,0,1.71-1.7"/></clipPath><clipPath id="clip-path-47"><path class="cls-1" d="M600.36,3082.43a1.7,1.7,0,1,0-1.71,1.7,1.71,1.71,0,0,0,1.71-1.7"/></clipPath><clipPath id="clip-path-48"><path class="cls-1" d="M625,3082.43a1.7,1.7,0,1,0-1.7,1.7,1.71,1.71,0,0,0,1.7-1.7"/></clipPath><clipPath id="clip-path-49"><path class="cls-1" d="M671.4,3074.23a1.7,1.7,0,1,1,1.7,1.7,1.7,1.7,0,0,1-1.7-1.7"/></clipPath><clipPath id="clip-path-50"><path class="cls-1" d="M685.06,3068.76a1.7,1.7,0,1,1,1.7,1.7,1.7,1.7,0,0,1-1.7-1.7"/></clipPath><clipPath id="clip-path-51"><path class="cls-1" d="M660.46,3068.76a1.7,1.7,0,1,1,1.7,1.7,1.7,1.7,0,0,1-1.7-1.7"/></clipPath><clipPath id="clip-path-52"><path class="cls-1" d="M682.33,3077a1.7,1.7,0,1,1,1.71,1.7,1.71,1.71,0,0,1-1.71-1.7"/></clipPath><clipPath id="clip-path-53"><path class="cls-1" d="M690.53,3082.43a1.7,1.7,0,1,1,1.7,1.7,1.71,1.71,0,0,1-1.7-1.7"/></clipPath><clipPath id="clip-path-54"><path class="cls-1" d="M665.93,3082.43a1.7,1.7,0,1,1,1.7,1.7,1.71,1.71,0,0,1-1.7-1.7"/></clipPath><clipPath id="clip-path-55"><path class="cls-1" d="M557.09,3342.17s-25.22,113.66,32.53,213.91h21.57s-98.92-175.77,30.49-175.77v-38.15Z"/></clipPath><clipPath id="clip-path-56"><path class="cls-1" d="M726.27,3342.17s25.22,113.66-32.53,213.91H672.17s98.92-175.77-30.49-175.77v-38.15Z"/></clipPath><clipPath id="clip-path-57"><path class="cls-1" d="M617.16,3559a7.84,7.84,0,0,0-6.13-2.95H589.61s-13.76,6.2-21.08-1.82a10.79,10.79,0,1,0-8.43,17.52H611a7.85,7.85,0,0,0,6.13-12.76"/></clipPath><clipPath id="clip-path-58"><path class="cls-1" d="M666.21,3559a7.84,7.84,0,0,1,6.13-2.95h21.42s13.76,6.2,21.08-1.82a10.79,10.79,0,1,1,8.43,17.52H672.34a7.85,7.85,0,0,1-6.13-12.76"/></clipPath><clipPath id="clip-path-59"><path class="cls-1" d="M574.58,3304.27h-31.5l-8,23.65c7,12.09,22,14.25,22,14.25l4.23-29.07h12.82a4.29,4.29,0,0,0,.45,0,4.44,4.44,0,1,0,0-8.88"/></clipPath><clipPath id="clip-path-60"><rect class="cls-2" x="1244.43" y="2992.89" width="92.62" height="181.23"/></clipPath><clipPath id="clip-path-61"><rect class="cls-2" x="1333.1" y="2992.89" width="92.6" height="181.28"/></clipPath><clipPath id="clip-path-62"><path class="cls-1" d="M1413.31,3355.48H1256.63s-23.35,105.26,30.12,198.11h20s-91.61-162.78,28.24-162.78,28.24,162.78,28.24,162.78h20c53.48-92.85,30.12-198.11,30.12-198.11"/></clipPath><clipPath id="clip-path-63"><path class="cls-1" d="M1256.63,3355.48s-23.35,105.26,30.12,198.11h20s-91.61-162.78,28.24-162.78v-35.33Z"/></clipPath><clipPath id="clip-path-64"><path class="cls-1" d="M1413.31,3355.48s23.35,105.26-30.12,198.11h-20s91.61-162.78-28.24-162.78v-35.33Z"/></clipPath><clipPath id="clip-path-65"><path class="cls-1" d="M1312.27,3556.32a7.26,7.26,0,0,0-5.68-2.73h-19.83s-12.75,5.74-19.52-1.68a10,10,0,1,0-7.8,16.23h47.16a7.27,7.27,0,0,0,5.68-11.81"/></clipPath><clipPath id="clip-path-66"><path class="cls-1" d="M1357.69,3556.32a7.26,7.26,0,0,1,5.68-2.73h19.83s12.75,5.74,19.52-1.68a10,10,0,1,1,7.8,16.23h-47.16a7.27,7.27,0,0,1-5.68-11.81"/></clipPath><clipPath id="clip-path-67"><path class="cls-1" d="M1425.7,3083.53a90.64,90.64,0,0,0-90.64-90.64c-.66,0-1.31,0-2,0L1310,3069.23l23.15,104.88c.66,0,1.3.05,2,.05a90.64,90.64,0,0,0,90.64-90.64"/></clipPath><clipPath id="clip-path-68"><path class="cls-1" d="M1245.39,3096.77s4.49,54.11-27.67,61.4c0,0,29.88,43.12,97.48,19.56l-9.73-45.54Z"/></clipPath><clipPath id="clip-path-69"><path class="cls-1" d="M1424.61,3096.77s-4.49,54.11,27.67,61.4c0,0-29.88,43.12-97.48,19.56l9.73-45.54Z"/></clipPath><clipPath id="clip-path-70"><path class="cls-1" d="M1186.2,3250.77a92.94,92.94,0,0,0-.51,9.62,91.72,91.72,0,0,0,50.46,81.92l7.37-21.85a68.84,68.84,0,0,1-34.42-69.7Z"/></clipPath><clipPath id="clip-path-71"><path class="cls-1" d="M1302,3172l-4.67,22.35a69.32,69.32,0,0,1,39.32,30.68l27.52,5.54A91.94,91.94,0,0,0,1302,3172"/></clipPath><clipPath id="clip-path-72"><path class="cls-1" d="M1277.43,3168.65a91.75,91.75,0,0,0-91.24,82.12h22.91a68.9,68.9,0,0,1,88.24-56.42L1302,3172a91.75,91.75,0,0,0-24.58-3.35"/></clipPath><clipPath id="clip-path-73"><path class="cls-1" d="M1334.61,3182.66l35.7-20.09s35.36,126.1,42.91,192.91h-78.61Z"/></clipPath><clipPath id="clip-path-74"><path class="cls-1" d="M1343.28,3193.92a91.59,91.59,0,0,0-15.53,24.67l18.28,16.26a68.6,68.6,0,0,1,14.58-26.23l.47-.5-20.66-3.65Z"/></clipPath><clipPath id="clip-path-75"><path class="cls-1" d="M1456.25,3171.59c-19.21-4.62-37.7-10.82-57.76-7.81a91.36,91.36,0,0,0-54.88,29.74l-.34.4-2.87,10.55,20.66,3.65a69.49,69.49,0,0,1,54.47-22.54c22.68,1.09,42.46,12.24,65.86,8.73a91.79,91.79,0,0,0,26.05-8l-10.57-20.21a69.51,69.51,0,0,1-40.63,5.48"/></clipPath><clipPath id="clip-path-76"><path class="cls-1" d="M1335.07,3182.66l-35.7-20.09s-35.36,126.1-42.91,192.91h78.61Z"/></clipPath><clipPath id="clip-path-77"><path class="cls-1" d="M1307.19,3177.73h6.33l-8-11.71-19.57,13.92,22.73,14-3.16,23,29.59,77.86V3209.1c-15.42-3.37-27.88-31.37-27.88-31.37"/></clipPath><clipPath id="clip-path-78"><path class="cls-1" d="M1362.94,3177.73h-6.33l8-11.71,19.57,13.92-22.73,14,3.16,23-29.59,77.86V3209.1c15.42-3.37,27.88-31.37,27.88-31.37"/></clipPath><clipPath id="clip-path-79"><path class="cls-1" d="M1335.07,3177.73h-27.88s12.46,28,27.88,31.37c15.42-3.37,27.88-31.37,27.88-31.37Z"/></clipPath><clipPath id="clip-path-80"><path class="cls-1" d="M1335.07,3158.17l-27.88,19.56s14.68,19.07,27.88,19.07c4.06,0,18.2-6.12,27.88-19.07Z"/></clipPath><clipPath id="clip-path-81"><path class="cls-1" d="M1274.24,3100.36a12.49,12.49,0,1,0,0,17.66,12.49,12.49,0,0,0,0-17.66"/></clipPath><clipPath id="clip-path-82"><path class="cls-1" d="M1413.55,3100.36a12.49,12.49,0,1,0,0,17.66,12.49,12.49,0,0,0,0-17.66"/></clipPath><clipPath id="clip-path-83"><path class="cls-1" d="M1349.21,3182.68c19.32-6.67,39.41-16.48,48.69-34.69,6.41-12.59,6.64-27.3,6.78-41.43.1-10.17.18-20.51-1.35-30.52a74.36,74.36,0,0,0-3.55-14.23c-6.36-17.47-20.77-31.68-38.08-38.47a71.17,71.17,0,0,0-26.62-4.79l-12.36,107.69,12.36,59.41c.31,0,.62,0,.93,0,4.53-.11,8.93-1.51,13.21-3"/></clipPath><clipPath id="clip-path-84"><path class="cls-1" d="M1307.63,3024.13c-12.95,5.3-24.57,14.35-31.67,26.4-9.6,16.29-10.24,36.18-10.16,55.09.07,17.23.82,36.38,11.93,50.54s30.88,23.43,47.79,27.92a41.13,41.13,0,0,0,9.92,1.58l-5.05-60.78,14.78-5.05-9.73-101.27a75.59,75.59,0,0,0-27.82,5.57"/></clipPath><clipPath id="clip-path-85"><path class="cls-1" d="M1315.21,3091.52a5.25,5.25,0,1,0-5.25,5.25,5.25,5.25,0,0,0,5.25-5.25"/></clipPath><clipPath id="clip-path-86"><path class="cls-1" d="M1367.57,3091.52a5.25,5.25,0,1,0-5.25,5.25,5.25,5.25,0,0,0,5.25-5.25"/></clipPath><clipPath id="clip-path-87"><path class="cls-1" d="M1385.21,3115c0,3.23-5.17,5.84-11.54,5.84s-11.54-2.61-11.54-5.84,5.17-5.84,11.54-5.84,11.54,2.61,11.54,5.84"/></clipPath><clipPath id="clip-path-88"><path class="cls-1" d="M1287.44,3115c0,3.23,5.17,5.84,11.54,5.84s11.54-2.61,11.54-5.84-5.17-5.84-11.54-5.84-11.54,2.61-11.54,5.84"/></clipPath><clipPath id="clip-path-89"><polygon class="cls-1" points="1330.02 3124.83 1350.8 3124.83 1344.8 3119.82 1330.02 3124.83"/></clipPath><clipPath id="clip-path-90"><path class="cls-1" d="M1243.53,3320.47h29.1v8.16h-12.25l-3.91,26.85s-13.85-2-20.31-13.16Z"/></clipPath><clipPath id="clip-path-91"><path class="cls-1" d="M1272.62,3320.47a4.1,4.1,0,1,1-4.1,4.1,4.1,4.1,0,0,1,4.1-4.1"/></clipPath><clipPath id="clip-path-92"><path class="cls-1" d="M1562.82,3087.11a18.46,18.46,0,1,0-32.86,4.22h0l0,.07.1.14,6.55,9.69a68.7,68.7,0,0,1-39.77,64.88l10.57,20.21a91.4,91.4,0,0,0,28.82-21.74c16.44-18.49,23.06-40.44,22.13-63.35l4.42-14.12Z"/></clipPath><clipPath id="clip-path-93"><path class="cls-1" d="M1531.11,3042.63a4.21,4.21,0,0,0-4.21,4.21v39.35h8.42v-39.35a4.21,4.21,0,0,0-4.21-4.21"/></clipPath><clipPath id="clip-path-94"><path class="cls-1" d="M1551.54,3077h-25.65a1.52,1.52,0,0,0-1.5,1.19,22,22,0,0,0-.45,4.41,25.73,25.73,0,0,0,1.14,7.59c1.6,5.1,9.21,2.82,9.3-2.52a1.52,1.52,0,0,1,1.52-1.49h15.6v-.08h0c2.8,0,5.08-1.73,5.08-4.53s-2.27-4.57-5.08-4.57"/></clipPath><clipPath id="clip-path-95"><path class="cls-1" d="M1335.07,3169.9a32.14,32.14,0,0,0,32.14-32.14h-64.29a32.15,32.15,0,0,0,32.15,32.14"/></clipPath><clipPath id="clip-path-96"><path class="cls-1" d="M1336,3053.86s-22.51,29.66-85.35,47.36c0,0-15.15-100.46,85.35-90.09Z"/></clipPath><clipPath id="clip-path-97"><path class="cls-1" d="M1334.09,3053.86s22.51,29.66,85.35,47.36c0,0,15.15-101.71-85.35-91.34Z"/></clipPath><clipPath id="clip-path-98"><path class="cls-1" d="M3081.65,3195.7s-71.17-123.23-201.91-52.61c-143.17,77.33-41.57,221-41.57,221s68.32,93.48,325.14,75.44v137.31s-380,70.95-471.62-212.8c-96.89-300.22,184.9-369.12,184.9-369.12s200-50.48,317.53,134.63Z"/></clipPath><clipPath id="clip-path-99"><path class="cls-1" d="M3533.3,3195.7s71.17-123.23,201.91-52.61c143.17,77.33,41.57,221,41.57,221s-68.32,93.48-325.14,75.44v137.31s380,70.95,471.62-212.8c96.89-300.22-184.9-369.12-184.9-369.12s-200-50.48-317.53,134.63Z"/></clipPath><clipPath id="clip-path-100"><polygon class="cls-1" points="3307.59 3023.11 2815.46 3307.42 2815.46 3378.5 3307.59 3662.82 3799.71 3378.5 3799.71 3307.42 3307.59 3023.11"/></clipPath><clipPath id="clip-path-101"><polygon class="cls-1" points="3307.59 3662.82 2815.46 3378.5 2815.46 3307.42 3307.59 3591.74 3307.59 3662.82"/></clipPath><clipPath id="clip-path-102"><polygon class="cls-1" points="3307.59 3662.82 3799.71 3378.5 3799.71 3307.42 3307.59 3591.74 3307.59 3662.82"/></clipPath><clipPath id="clip-path-103"><polygon class="cls-1" points="3307.55 3663.23 2814.92 3378.63 2814.92 3307.48 3307.55 3592.08 3307.55 3663.23"/></clipPath><clipPath id="clip-path-104"><polygon class="cls-1" points="3553.86 3663.23 3800.17 3663.23 3800.17 3307.48 3307.55 3307.48 3307.55 3663.23 3553.86 3663.23"/></clipPath><clipPath id="clip-path-105"><polygon class="cls-1" points="3369.13 3414.2 3122.81 3271.9 3122.81 3058.45 3369.13 3200.75 3369.13 3414.2"/></clipPath><clipPath id="clip-path-106"><polygon class="cls-1" points="3470.24 3046.19 3369.13 3200.73 3369.13 3414.18 3553.86 3307.45 3553.86 3094.02 3470.24 3046.19"/></clipPath><clipPath id="clip-path-107"><polygon class="cls-1" points="3106.01 3083.46 3215.12 2898.32 3470.24 3046.19 3352.33 3225.77 3106.01 3083.46"/></clipPath><clipPath id="clip-path-108"><polygon class="cls-1" points="3430.67 3378.63 3430.67 3236.3 3492.28 3200.75 3492.28 3343.03 3430.67 3378.63"/></clipPath><clipPath id="clip-path-109"><polygon class="cls-1" points="3276.76 3218.41 3276.76 3289.56 3338.34 3325.13 3338.34 3253.98 3276.76 3218.41"/></clipPath><clipPath id="clip-path-110"><polygon class="cls-1" points="3153.83 3147.39 3153.83 3218.54 3215.41 3254.11 3215.41 3182.96 3153.83 3147.39"/></clipPath><clipPath id="clip-path-111"><rect class="cls-2" x="2814.92" y="2833.76" width="985.25" height="829.47"/></clipPath><clipPath id="clip-path-112"><path class="cls-1" d="M3039.29,3238.61H2946s-13.91,62.74,17.94,118.08h11.9s-54.57-97,16.82-97,16.82,97,16.82,97h11.9c31.85-55.34,17.94-118.08,17.94-118.08"/></clipPath><clipPath id="clip-path-113"><path class="cls-1" d="M3027,3127h-.11a54.8,54.8,0,0,0-51.81,37l.26-.05A54.79,54.79,0,0,1,3027,3127"/></clipPath><clipPath id="clip-path-114"><path class="cls-1" d="M3029.3,3127l1.5,0c-.5,0-1,0-1.5,0"/></clipPath><clipPath id="clip-path-115"><path class="cls-1" d="M3027.08,3140.57a15.32,15.32,0,0,1,1.88.14,15.45,15.45,0,0,0-1.77-.15h-.11"/></clipPath><clipPath id="clip-path-116"><path class="cls-1" d="M3027.18,3127H3027a18.38,18.38,0,0,1,2.25.18,18.12,18.12,0,0,0-2.12-.18"/></clipPath><clipPath id="clip-path-117"><path class="cls-1" d="M3029.6,3140.63l-.77,0,.77,0"/></clipPath><clipPath id="clip-path-118"><path class="cls-1" d="M2991.57,3160.66l-16.17,3.26,0,.05,16.44-3.31a41.22,41.22,0,0,1,35.27-20.1h-.14a41.22,41.22,0,0,0-35.37,20.1"/></clipPath><clipPath id="clip-path-119"><path class="cls-1" d="M3050.65,3132.25a54.47,54.47,0,0,0-20.86-5.2,54.45,54.45,0,0,1,20.82,5.29Z"/></clipPath><clipPath id="clip-path-120"><path class="cls-1" d="M3050.61,3132.34a54.45,54.45,0,0,0-20.82-5.29h-.49c-.75,0-1.5-.06-2.25-.06a54.79,54.79,0,0,0-51.65,36.94l16.17-3.26a41.22,41.22,0,0,1,35.37-20.1h.24c.55,0,1.1,0,1.64,0h.25a40.91,40.91,0,0,1,16.23,4.16Z"/></clipPath><clipPath id="clip-path-121"><path class="cls-1" d="M2958.49,3127a54.53,54.53,0,0,0-23.46,5.28l5.34,12.52a41.15,41.15,0,0,1,53.5,15.89l16.44,3.31a54.8,54.8,0,0,0-51.81-37"/></clipPath><clipPath id="clip-path-122"><path class="cls-1" d="M2903.7,3181.79a54.81,54.81,0,0,0,30.13,49l4.4-13.06a41.23,41.23,0,0,1,2.12-72.92l-5.34-12.52a54.82,54.82,0,0,0-31.32,49.54"/></clipPath><clipPath id="clip-path-123"><path class="cls-1" d="M2946,3086.16s1.23,21.15,11,28.13l-1.57-13.51Z"/></clipPath><clipPath id="clip-path-124"><path class="cls-1" d="M3039.77,3086.16s-1.23,21.15-11,28.13l1.57-13.51Z"/></clipPath><clipPath id="clip-path-125"><path class="cls-1" d="M2992.9,3135.34l-21.32-12s-21.11,75.35-25.62,115.27h46.94Z"/></clipPath><clipPath id="clip-path-126"><path class="cls-1" d="M2992.63,3135.34l21.32-12s21.11,75.35,25.62,115.27h-46.94Z"/></clipPath><clipPath id="clip-path-127"><path class="cls-1" d="M2992.9,3132.39h-16.65s7.44,16.73,16.65,18.75c9.21-2,16.65-18.75,16.65-18.75Z"/></clipPath><clipPath id="clip-path-128"><path class="cls-1" d="M2992.9,3120.71l-16.65,11.69s8.76,11.39,16.65,11.39c2.42,0,10.86-3.66,16.65-11.39Z"/></clipPath><clipPath id="clip-path-129"><path class="cls-1" d="M2956.58,3086.16a7.46,7.46,0,1,0,0,10.55,7.45,7.45,0,0,0,0-10.55"/></clipPath><clipPath id="clip-path-130"><path class="cls-1" d="M3039.77,3086.16a7.46,7.46,0,1,0,0,10.55,7.45,7.45,0,0,0,0-10.55"/></clipPath><clipPath id="clip-path-131"><path class="cls-1" d="M3001.35,3135.35c11.54-4,23.53-9.85,29.07-20.73,3.83-7.52,4-16.31,4-24.75a113.94,113.94,0,0,0-.81-18.24,44.5,44.5,0,0,0-2.12-8.5,39.86,39.86,0,0,0-22.74-23,42.46,42.46,0,0,0-15.9-2.86l-7.38,64.35,7.38,35.5.56,0a26.43,26.43,0,0,0,7.89-1.79"/></clipPath><clipPath id="clip-path-132"><path class="cls-1" d="M2976.51,3040.61a38.89,38.89,0,0,0-18.91,15.78c-5.73,9.73-6.11,21.62-6.07,32.92,0,10.3.49,21.74,7.13,30.2s18.44,14,28.54,16.68a24.53,24.53,0,0,0,5.92.95l-3-36.32,8.83-3-5.81-60.52a45.1,45.1,0,0,0-16.61,3.33"/></clipPath><clipPath id="clip-path-133"><path class="cls-1" d="M2981,3080.88a3.14,3.14,0,1,0-3.14,3.14,3.14,3.14,0,0,0,3.14-3.14"/></clipPath><clipPath id="clip-path-134"><path class="cls-1" d="M3012.31,3080.88a3.13,3.13,0,1,0-3.14,3.14,3.14,3.14,0,0,0,3.14-3.14"/></clipPath><clipPath id="clip-path-135"><path class="cls-1" d="M3022.84,3094.93c0,1.93-3.09,3.49-6.89,3.49s-6.89-1.56-6.89-3.49,3.09-3.49,6.89-3.49,6.89,1.56,6.89,3.49"/></clipPath><clipPath id="clip-path-136"><path class="cls-1" d="M2964.46,3094.93c0,1.93,3.09,3.49,6.89,3.49s6.89-1.56,6.89-3.49-3.09-3.49-6.89-3.49-6.89,1.56-6.89,3.49"/></clipPath><clipPath id="clip-path-137"><polygon class="cls-1" points="2989.89 3100.79 3002.29 3100.79 2998.71 3097.79 2989.89 3100.79"/></clipPath><clipPath id="clip-path-138"><path class="cls-1" d="M3029.81,3217.69h17.38l4.4,13.06c-3.86,6.67-12.13,7.87-12.13,7.87l-2.33-16h-7.07l-.25,0a2.45,2.45,0,0,1,0-4.9"/></clipPath><clipPath id="clip-path-139"><path class="cls-1" d="M3011.45,3031.47v.35c-.77,1.44-7.79,14.19-17.15,21.18-3.51,2.62-7.34,4.43-11.3,4.52h23.73a7.83,7.83,0,0,1,6,2.53c2.33,2.5,3.09,6,7,6a8,8,0,0,1,5.61,2,9.82,9.82,0,0,1,2.87,6v17.51h6.51q0-1.07,0-2.13c0-1.75,0-3.52,0-5.29a7.41,7.41,0,0,1,4.22,1.46l.84.69v0l.1.13a150.36,150.36,0,0,0,1-16.23c0-19.28-12.2-33.14-29.46-38.56"/></clipPath><clipPath id="clip-path-140"><path class="cls-1" d="M3000.72,3028.28a76.57,76.57,0,0,0-8,0c-1.4.07-2.81.18-4.2.33a57.15,57.15,0,0,0-6.07,1c-.19,0-.6.2-1,.34l-1.07.2h0a52,52,0,0,0-9,2.58c-15.57,6.05-26.32,19.37-26.29,37.45,0,3.83.36,10.56.92,15.24,0,.26,0,.51,0,.77l.08-.07,0,.29c.07-.07.12-.16.19-.23a7.33,7.33,0,0,1,4.55-2.1c.22,0,.45,0,.67,0,0,1.77,0,3.53,0,5.28,0,.71,0,1.42,0,2.13h6.51v-17.51a10.55,10.55,0,0,1,1.15-3.72l1.36-1.86,0,0c1.26-1.29,3.16-1.95,5.95-2.3s3.88-3.47,6.32-5.83a9.32,9.32,0,0,1,6.69-2.66s14.89.05,17,0c21.11-.48,29.29-14.87,32.46-22.77.7-1.76,1.16-3.2,1.46-4.09a17,17,0,0,0,.54-2.38Z"/></clipPath><clipPath id="clip-path-141"><path class="cls-1" d="M3028.19,3091.44c0,12.32-22.48,12.66-32.28,12.22h-5.56c-9.8.44-32.28.1-32.28-12.22h-6.51c.12,9.72.93,20.19,7.11,28.06,6.59,8.4,18.44,14,28.54,16.68a19,19,0,0,0,11.85,0c10.1-2.68,21.95-8.28,28.54-16.68,6.18-7.88,7-18.35,7.11-28.06h-6.51Z"/></clipPath><clipPath id="clip-path-142"><path class="cls-1" d="M2992.9,3127.72a19.2,19.2,0,0,0,19.2-19.21h-38.39a19.2,19.2,0,0,0,19.2,19.21"/></clipPath><clipPath id="clip-path-143"><path class="cls-1" d="M3050.61,3132.34l-5.3,12.43a40.91,40.91,0,0,0-16.23-4.16,41.23,41.23,0,0,1,18.11,77.08l4.4,13.06a54.84,54.84,0,0,0-1-98.4"/></clipPath><clipPath id="clip-path-144"><path class="cls-1" d="M2980.39,3090.71a.94.94,0,1,0-.94.94.94.94,0,0,0,.94-.94"/></clipPath><clipPath id="clip-path-145"><path class="cls-1" d="M2972.85,3087.69a.94.94,0,1,0-.94.94.94.94,0,0,0,.94-.94"/></clipPath><clipPath id="clip-path-146"><path class="cls-1" d="M2986.42,3087.69a.94.94,0,1,0-.94.94.94.94,0,0,0,.94-.94"/></clipPath><clipPath id="clip-path-147"><path class="cls-1" d="M2974.36,3092.22a.94.94,0,1,0-.94.94.94.94,0,0,0,.94-.94"/></clipPath><clipPath id="clip-path-148"><path class="cls-1" d="M2969.83,3095.24a.94.94,0,1,0-.94.94.94.94,0,0,0,.94-.94"/></clipPath><clipPath id="clip-path-149"><path class="cls-1" d="M2983.4,3095.24a.94.94,0,1,0-.94.94.94.94,0,0,0,.94-.94"/></clipPath><clipPath id="clip-path-150"><path class="cls-1" d="M3009,3090.71a.94.94,0,1,1,.94.94.94.94,0,0,1-.94-.94"/></clipPath><clipPath id="clip-path-151"><path class="cls-1" d="M3016.56,3087.69a.94.94,0,1,1,.94.94.94.94,0,0,1-.94-.94"/></clipPath><clipPath id="clip-path-152"><path class="cls-1" d="M3003,3087.69a.94.94,0,1,1,.94.94.94.94,0,0,1-.94-.94"/></clipPath><clipPath id="clip-path-153"><path class="cls-1" d="M3015,3092.22a.94.94,0,1,1,.94.94.94.94,0,0,1-.94-.94"/></clipPath><clipPath id="clip-path-154"><path class="cls-1" d="M3019.57,3095.24a.94.94,0,1,1,.94.94.94.94,0,0,1-.94-.94"/></clipPath><clipPath id="clip-path-155"><path class="cls-1" d="M3006,3095.24a.94.94,0,1,1,.94.94.94.94,0,0,1-.94-.94"/></clipPath><clipPath id="clip-path-156"><path class="cls-1" d="M2946,3238.61s-13.91,62.74,17.94,118.08h11.9s-54.57-97,16.82-97v-21.06Z"/></clipPath><clipPath id="clip-path-157"><path class="cls-1" d="M3039.29,3238.61s13.91,62.74-17.94,118.08h-11.9s54.57-97-16.82-97v-21.06Z"/></clipPath><clipPath id="clip-path-158"><path class="cls-1" d="M2979.1,3358.32a4.32,4.32,0,0,0-3.38-1.63H2963.9s-7.59,3.42-11.63-1a6,6,0,1,0-4.65,9.67h28.09a4.33,4.33,0,0,0,3.38-7"/></clipPath><clipPath id="clip-path-159"><path class="cls-1" d="M3006.16,3358.32a4.32,4.32,0,0,1,3.38-1.63h11.81s7.59,3.42,11.63-1a6,6,0,1,1,4.65,9.67h-28.09a4.34,4.34,0,0,1-3.38-7"/></clipPath><clipPath id="clip-path-160"><path class="cls-1" d="M2955.61,3217.69h-17.38l-4.4,13.06c3.86,6.67,12.13,7.87,12.13,7.87l2.33-16h7.07l.25,0a2.45,2.45,0,0,0,0-4.9"/></clipPath><clipPath id="clip-path-161"><rect class="cls-2" x="3070.7" y="3042.42" width="51.09" height="100.04"/></clipPath><clipPath id="clip-path-162"><rect class="cls-2" x="3119.62" y="3042.42" width="51.08" height="100.07"/></clipPath><clipPath id="clip-path-163"><path class="cls-1" d="M3163.87,3242.57h-86.43s-12.88,58.1,16.62,109.36h11s-50.53-89.86,15.58-89.86,15.58,89.86,15.58,89.86h11c29.5-51.25,16.62-109.36,16.62-109.36"/></clipPath><clipPath id="clip-path-164"><path class="cls-1" d="M3077.43,3242.57s-12.88,58.1,16.62,109.36h11s-50.53-89.86,15.58-89.86v-19.5Z"/></clipPath><clipPath id="clip-path-165"><path class="cls-1" d="M3163.87,3242.57s12.88,58.1-16.62,109.36h-11s50.53-89.86-15.58-89.86v-19.5Z"/></clipPath><clipPath id="clip-path-166"><path class="cls-1" d="M3108.12,3353.43a4,4,0,0,0-3.13-1.51H3094s-7,3.17-10.77-.93a5.51,5.51,0,1,0-4.3,9h26a4,4,0,0,0,3.13-6.52"/></clipPath><clipPath id="clip-path-167"><path class="cls-1" d="M3133.18,3353.43a4,4,0,0,1,3.13-1.51h10.94s7,3.17,10.77-.93a5.51,5.51,0,1,1,4.3,9h-26a4,4,0,0,1-3.13-6.52"/></clipPath><clipPath id="clip-path-168"><path class="cls-1" d="M3170.7,3092.45a50,50,0,0,0-50-50l-1.08,0-12.77,42.11,12.77,57.9,1.08,0a50,50,0,0,0,50-50"/></clipPath><clipPath id="clip-path-169"><path class="cls-1" d="M3071.23,3099.76s2.48,29.87-15.26,33.89c0,0,16.48,23.8,53.78,10.8l-5.37-25.14Z"/></clipPath><clipPath id="clip-path-170"><path class="cls-1" d="M3170.1,3099.76s-2.48,29.87,15.26,33.89c0,0-16.48,23.8-53.77,10.8l5.37-25.14Z"/></clipPath><clipPath id="clip-path-171"><path class="cls-1" d="M3038.58,3184.77a51.3,51.3,0,0,0-.28,5.31,50.63,50.63,0,0,0,27.84,45.22l4.07-12.06a38,38,0,0,1-19-38.47Z"/></clipPath><clipPath id="clip-path-172"><path class="cls-1" d="M3066,3220.44a7.32,7.32,0,0,0-1.68-6.37c-1.68-1.73-3.37-3.54-7.15-3.06a38.28,38.28,0,0,1-8.33,9.91c-.14,2.32-1.47,6.24,0,7.73s6.54,1.21,8.81,1.21a50.77,50.77,0,0,0,8.35-9.42"/></clipPath><clipPath id="clip-path-173"><path class="cls-1" d="M3102.47,3141.29l-2.57,12.34a38.24,38.24,0,0,1,21.69,16.93l15.18,3.06a50.73,50.73,0,0,0-34.3-32.33"/></clipPath><clipPath id="clip-path-174"><path class="cls-1" d="M3088.91,3139.44a50.63,50.63,0,0,0-50.33,45.33h12.64a38,38,0,0,1,48.68-31.14l2.57-12.34a50.58,50.58,0,0,0-13.56-1.85"/></clipPath><clipPath id="clip-path-175"><path class="cls-1" d="M3120.45,3147.17l19.69-11.09s19.51,69.61,23.67,106.49h-43.36Z"/></clipPath><clipPath id="clip-path-176"><path class="cls-1" d="M3125.23,3153.38a50.56,50.56,0,0,0-8.57,13.62l10.08,9a37.87,37.87,0,0,1,8-14.48l.26-.27-11.4-2Z"/></clipPath><clipPath id="clip-path-177"><path class="cls-1" d="M3187.55,3141.06c-10.6-2.55-20.79-6-31.86-4.31a50.39,50.39,0,0,0-30.27,16.42l-.19.22-1.58,5.83,11.4,2a38.32,38.32,0,0,1,30-12.44c12.51.6,23.42,6.76,36.33,4.82a50.61,50.61,0,0,0,14.37-4.41L3210,3138a38.32,38.32,0,0,1-22.41,3"/></clipPath><clipPath id="clip-path-178"><path class="cls-1" d="M3120.7,3147.17,3101,3136.08s-19.51,69.61-23.67,106.49h43.36Z"/></clipPath><clipPath id="clip-path-179"><path class="cls-1" d="M3105.32,3144.45h3.49l-4.44-6.46-10.8,7.68,12.54,7.72-1.74,12.72,16.32,43v-47.33c-8.51-1.86-15.38-17.32-15.38-17.32"/></clipPath><clipPath id="clip-path-180"><path class="cls-1" d="M3136.08,3144.45h-3.49L3137,3138l10.8,7.68-12.54,7.72,1.74,12.72-16.32,43v-47.33c8.51-1.86,15.38-17.32,15.38-17.32"/></clipPath><clipPath id="clip-path-181"><path class="cls-1" d="M3120.7,3144.45h-15.38s6.87,15.46,15.38,17.32c8.51-1.86,15.38-17.32,15.38-17.32Z"/></clipPath><clipPath id="clip-path-182"><path class="cls-1" d="M3120.7,3133.65l-15.38,10.8s8.1,10.52,15.38,10.52c2.24,0,10-3.38,15.38-10.52Z"/></clipPath><clipPath id="clip-path-183"><path class="cls-1" d="M3087.15,3101.74a6.89,6.89,0,1,0,0,9.75,6.88,6.88,0,0,0,0-9.75"/></clipPath><clipPath id="clip-path-184"><path class="cls-1" d="M3164,3101.74a6.89,6.89,0,1,0,0,9.75,6.88,6.88,0,0,0,0-9.75"/></clipPath><clipPath id="clip-path-185"><path class="cls-1" d="M3128.5,3147.18c10.66-3.68,21.74-9.1,26.86-19.15,3.54-6.95,3.67-15.07,3.74-22.87a105.25,105.25,0,0,0-.75-16.85,41,41,0,0,0-2-7.86,36.82,36.82,0,0,0-21-21.24,39.23,39.23,0,0,0-14.69-2.65l-6.82,59.45,6.82,32.79.51,0a24.41,24.41,0,0,0,7.29-1.65"/></clipPath><clipPath id="clip-path-186"><path class="cls-1" d="M3105.56,3059.66a35.93,35.93,0,0,0-17.47,14.58c-5.3,9-5.65,20-5.6,30.41,0,9.51.45,20.08,6.58,27.9s17,12.93,26.37,15.41a22.67,22.67,0,0,0,5.47.87l-2.79-33.55,8.15-2.79-5.37-55.9a41.67,41.67,0,0,0-15.34,3.08"/></clipPath><clipPath id="clip-path-187"><path class="cls-1" d="M3109.75,3096.86a2.9,2.9,0,1,0-2.9,2.9,2.9,2.9,0,0,0,2.9-2.9"/></clipPath><clipPath id="clip-path-188"><path class="cls-1" d="M3138.63,3096.86a2.9,2.9,0,1,0-2.9,2.9,2.9,2.9,0,0,0,2.9-2.9"/></clipPath><clipPath id="clip-path-189"><path class="cls-1" d="M3148.36,3109.84c0,1.78-2.85,3.22-6.37,3.22s-6.37-1.44-6.37-3.22,2.85-3.22,6.37-3.22,6.37,1.44,6.37,3.22"/></clipPath><clipPath id="clip-path-190"><path class="cls-1" d="M3094.43,3109.84c0,1.78,2.85,3.22,6.37,3.22s6.37-1.44,6.37-3.22-2.85-3.22-6.37-3.22-6.37,1.44-6.37,3.22"/></clipPath><clipPath id="clip-path-191"><polygon class="cls-1" points="3117.91 3115.25 3129.38 3115.25 3126.07 3112.48 3117.91 3115.25"/></clipPath><clipPath id="clip-path-192"><path class="cls-1" d="M3070.2,3223.24h16.05v4.5h-6.76l-2.16,14.82s-7.64-1.1-11.2-7.27Z"/></clipPath><clipPath id="clip-path-193"><path class="cls-1" d="M3086.25,3223.24a2.26,2.26,0,1,1-2.26,2.26,2.26,2.26,0,0,1,2.26-2.26"/></clipPath><clipPath id="clip-path-194"><path class="cls-1" d="M3246.34,3094.42a10.18,10.18,0,1,0-18.12,2.33h0l0,0,.05.08,3.61,5.35A37.92,37.92,0,0,1,3210,3138l5.83,11.16a50.43,50.43,0,0,0,15.9-12c9.07-10.2,12.72-22.32,12.21-35l2.44-7.79Z"/></clipPath><clipPath id="clip-path-195"><path class="cls-1" d="M3228.84,3069.87a2.32,2.32,0,0,0-2.32,2.32v21.72h4.64V3072.2a2.32,2.32,0,0,0-2.32-2.32"/></clipPath><clipPath id="clip-path-196"><path class="cls-1" d="M3240.12,3088.84H3226a.84.84,0,0,0-.83.66,12.17,12.17,0,0,0-.25,2.43,14.2,14.2,0,0,0,.63,4.19c.88,2.81,5.08,1.56,5.13-1.39a.84.84,0,0,1,.84-.82h8.6v0h0a2.53,2.53,0,1,0,0-5"/></clipPath><clipPath id="clip-path-197"><path class="cls-1" d="M3120.7,3140.13a17.74,17.74,0,0,0,17.73-17.74H3103a17.74,17.74,0,0,0,17.73,17.74"/></clipPath><clipPath id="clip-path-198"><path class="cls-1" d="M3121.24,3076.07s-12.42,16.37-47.08,26.15c0,0-8.36-55.46,47.08-49.73Z"/></clipPath><clipPath id="clip-path-199"><path class="cls-1" d="M3120.16,3076.07s12.42,16.37,47.08,26.15c0,0,8.36-56.14-47.08-50.42Z"/></clipPath><clipPath id="clip-path-200"><path class="cls-1" d="M3810.25,3238.49c10,64.16-33.48,125.61-33.48,125.61s-68.32,93.48-325.14,75.44v137.31s380,70.95,471.62-212.8c17.3-53.61,22.53-99.84,19.44-139.63-14.2-183-204.34-229.5-204.34-229.5S3805,3204.55,3810.25,3238.49Z"/></clipPath><clipPath id="clip-path-201"><path class="cls-1" d="M3452,3438.67l-166.27-56-15.68,46.66,70,23.57L3310.83,3614s83,15.21,141.35-36.21Z"/></clipPath><clipPath id="clip-path-202"><path class="cls-1" d="M3254.46,3398.27a24.72,24.72,0,1,0,31.31-15.56,24.74,24.74,0,0,0-31.31,15.56"/></clipPath><clipPath id="clip-path-203"><path class="cls-1" d="M3340.12,3452.94l-151.74-35.43L3148,3571s120.38,50.91,189.46,45.13L3366.1,3550Z"/></clipPath><clipPath id="clip-path-204"><path class="cls-1" d="M3148,3571c25.73,6.57,55.4-22.63,66.27-65.23s-1.18-82.46-26.91-89-55.4,22.63-66.27,65.23,1.18,82.46,26.91,89"/></clipPath><clipPath id="clip-path-205"><path class="cls-1" d="M2809.27,3219.56c-23.52,70.42,28.9,144.55,28.9,144.55s68.32,93.48,325.14,75.44v137.31s-380,70.95-471.62-212.8c-29.51-91.45-23.89-161.44-1.8-214.55,50.43-121.26,186.7-154.58,186.7-154.58S2818.5,3191.93,2809.27,3219.56Z"/></clipPath><clipPath id="clip-path-206"><path class="cls-1" d="M3164.1,3440.92l175.31,6.16-1.73,49.19-73.84-2.59-29.22,161.07s-74-13.36-113-72.66c-2.31-3.5,42.52-141.17,42.52-141.17"/></clipPath><clipPath id="clip-path-207"><path class="cls-1" d="M3363.25,3472.67a24.72,24.72,0,1,1-23.84-25.59,24.73,24.73,0,0,1,23.84,25.59"/></clipPath><clipPath id="clip-path-208"><path class="cls-1" d="M3263.85,3493.68l154.49,20.26-16.2,157.85s-130.58,5.27-193.21-24.47l-3.52-72Z"/></clipPath><clipPath id="clip-path-209"><path class="cls-1" d="M3402.14,3671.8c-26.4-2.91-43.9-40.69-39.09-84.39s30.1-76.77,56.5-73.86,43.9,40.69,39.09,84.39-30.1,76.77-56.5,73.87"/></clipPath></defs><title>ilustracoes_caixa_am5SVG</title><polygon class="cls-3" points="960 256.5 469.09 539.93 469.09 610.79 960 894.21 1450.91 610.79 1450.91 539.93 960 256.5"/><polygon class="cls-4" points="960 894.21 469.09 610.79 469.09 539.93 960 823.36 960 894.21"/><polygon class="cls-5" points="960 894.21 1450.91 610.79 1450.91 539.93 960 823.36 960 894.21"/><rect class="cls-6" x="618.69" y="411.99" width="11.63" height="145.59"/><circle class="cls-7" cx="624.51" cy="411.99" r="69.06"/><path class="cls-5" d="M1283,435.13a76.33,76.33,0,0,0-76.33,76.33h152.66A76.33,76.33,0,0,0,1283,435.13Z"/><path class="cls-7" d="M1237.05,478.45a42,42,0,0,0-42,42h84A42,42,0,0,0,1237.05,478.45Z"/><polygon class="cls-8" points="975.46 733.44 713.87 582.41 713.87 229.86 975.46 380.89 975.46 733.44"/><polygon class="cls-9" points="975.46 380.87 975.46 733.42 1171.66 620.14 1171.66 267.62 975.46 380.87"/><polygon class="cls-10" points="1040.82 695.68 1040.82 544.63 1106.26 506.89 1106.26 657.9 1040.82 695.68"/><polygon class="cls-11" points="877.36 525.63 877.36 601.15 942.76 638.9 942.76 563.39 877.36 525.63"/><polygon class="cls-11" points="746.81 450.25 746.81 525.77 812.21 563.53 812.21 488.01 746.81 450.25"/><polygon class="cls-11" points="877.36 380.62 877.36 456.13 942.76 493.89 942.76 418.38 877.36 380.62"/><polygon class="cls-10" points="1106.26 353.62 1106.26 429.13 1040.86 466.89 1040.86 391.38 1106.26 353.62"/><polygon class="cls-11" points="746.81 305.24 746.81 380.76 812.21 418.51 812.21 343 746.81 305.24"/><polygon class="cls-12" points="1106.26 657.9 1040.82 695.68 1133.69 748.04 1177.63 697.76 1106.26 657.9"/><polygon class="cls-13" points="1112.19 806.36 1112.19 735.54 1177.63 697.76 1177.63 768.62 1112.19 806.36"/><polygon class="cls-14" points="713.87 229.87 975.46 380.89 1171.66 267.62 910.1 116.58 713.87 229.87"/></svg>